%TF.GenerationSoftware,KiCad,Pcbnew,7.0.10*%
%TF.CreationDate,2024-02-07T15:53:30+08:00*%
%TF.ProjectId,UINIO-MCU-GD32F350RBT6,55494e49-4f2d-44d4-9355-2d4744333246,Version 3.2.0*%
%TF.SameCoordinates,PX6853c38PY56b895f*%
%TF.FileFunction,Legend,Bot*%
%TF.FilePolarity,Positive*%
%FSLAX46Y46*%
G04 Gerber Fmt 4.6, Leading zero omitted, Abs format (unit mm)*
G04 Created by KiCad (PCBNEW 7.0.10) date 2024-02-07 15:53:30*
%MOMM*%
%LPD*%
G01*
G04 APERTURE LIST*
%ADD10C,0.187500*%
%ADD11C,0.300000*%
%ADD12C,0.100000*%
%ADD13C,0.120000*%
%ADD14C,1.200000*%
%ADD15C,0.650000*%
%ADD16O,2.100000X1.000000*%
%ADD17O,1.900000X1.000000*%
%ADD18R,1.700000X1.700000*%
%ADD19O,1.700000X1.700000*%
G04 APERTURE END LIST*
D10*
G36*
X45851454Y-10183869D02*
G01*
X45294776Y-10183869D01*
X45294776Y-11762557D01*
X45295351Y-11802433D01*
X45297077Y-11840924D01*
X45299952Y-11878029D01*
X45303978Y-11913749D01*
X45309154Y-11948084D01*
X45315480Y-11981034D01*
X45322957Y-12012598D01*
X45331584Y-12042777D01*
X45341360Y-12071570D01*
X45352288Y-12098978D01*
X45364365Y-12125001D01*
X45377593Y-12149639D01*
X45391971Y-12172891D01*
X45407499Y-12194758D01*
X45424177Y-12215240D01*
X45442006Y-12234336D01*
X45461039Y-12252165D01*
X45481466Y-12268843D01*
X45503287Y-12284371D01*
X45526502Y-12298749D01*
X45551110Y-12311977D01*
X45577112Y-12324054D01*
X45604507Y-12334982D01*
X45633297Y-12344758D01*
X45663480Y-12353385D01*
X45695057Y-12360862D01*
X45728027Y-12367188D01*
X45762391Y-12372364D01*
X45798149Y-12376390D01*
X45835301Y-12379265D01*
X45873846Y-12380991D01*
X45913785Y-12381566D01*
X46625216Y-12381566D01*
X46665157Y-12380991D01*
X46703709Y-12379265D01*
X46740871Y-12376390D01*
X46776643Y-12372364D01*
X46811026Y-12367188D01*
X46844020Y-12360862D01*
X46875624Y-12353385D01*
X46905839Y-12344758D01*
X46934664Y-12334982D01*
X46962099Y-12324054D01*
X46988145Y-12311977D01*
X47012802Y-12298749D01*
X47036069Y-12284371D01*
X47057946Y-12268843D01*
X47078434Y-12252165D01*
X47097533Y-12234336D01*
X47115296Y-12215240D01*
X47131914Y-12194758D01*
X47147385Y-12172891D01*
X47161710Y-12149639D01*
X47174890Y-12125001D01*
X47186923Y-12098978D01*
X47197810Y-12071570D01*
X47207552Y-12042777D01*
X47216147Y-12012598D01*
X47223596Y-11981034D01*
X47229899Y-11948084D01*
X47235057Y-11913749D01*
X47239068Y-11878029D01*
X47241933Y-11840924D01*
X47243652Y-11802433D01*
X47244225Y-11762557D01*
X47244225Y-10183869D01*
X46687547Y-10183869D01*
X46687547Y-11762557D01*
X46686820Y-11785005D01*
X46683008Y-11815962D01*
X46675927Y-11843661D01*
X46665578Y-11868100D01*
X46651961Y-11889282D01*
X46635076Y-11907204D01*
X46614922Y-11921868D01*
X46591501Y-11933273D01*
X46564812Y-11941420D01*
X46534854Y-11946308D01*
X46513067Y-11947756D01*
X46501629Y-11947937D01*
X46037372Y-11947937D01*
X46014859Y-11947213D01*
X45983812Y-11943411D01*
X45956033Y-11936351D01*
X45931522Y-11926032D01*
X45910280Y-11912454D01*
X45892305Y-11895618D01*
X45877599Y-11875523D01*
X45866161Y-11852169D01*
X45857991Y-11825557D01*
X45853088Y-11795686D01*
X45851636Y-11773962D01*
X45851454Y-11762557D01*
X45851454Y-10183869D01*
G37*
G36*
X43914902Y-12350401D02*
G01*
X45028796Y-12350401D01*
X45028796Y-11917309D01*
X44750457Y-11917309D01*
X44750457Y-10616960D01*
X45028796Y-10616960D01*
X45028796Y-10183869D01*
X43914902Y-10183869D01*
X43914902Y-10616960D01*
X44193241Y-10616960D01*
X44193241Y-11917309D01*
X43914902Y-11917309D01*
X43914902Y-12350401D01*
G37*
G36*
X41756430Y-12350401D02*
G01*
X42344274Y-12350401D01*
X43087407Y-11050589D01*
X43087407Y-12350401D01*
X43644085Y-12350401D01*
X43644085Y-10183869D01*
X43056242Y-10183869D01*
X42313646Y-11483680D01*
X42313646Y-10183869D01*
X41756430Y-10183869D01*
X41756430Y-12350401D01*
G37*
G36*
X40374944Y-12350401D02*
G01*
X41488838Y-12350401D01*
X41488838Y-11917309D01*
X41210498Y-11917309D01*
X41210498Y-10616960D01*
X41488838Y-10616960D01*
X41488838Y-10183869D01*
X40374944Y-10183869D01*
X40374944Y-10616960D01*
X40653283Y-10616960D01*
X40653283Y-11917309D01*
X40374944Y-11917309D01*
X40374944Y-12350401D01*
G37*
G36*
X39587325Y-10153278D02*
G01*
X39625816Y-10155004D01*
X39662921Y-10157879D01*
X39698641Y-10161905D01*
X39732976Y-10167081D01*
X39765926Y-10173408D01*
X39797490Y-10180884D01*
X39827669Y-10189511D01*
X39856462Y-10199288D01*
X39883870Y-10210215D01*
X39909893Y-10222292D01*
X39934531Y-10235520D01*
X39957783Y-10249898D01*
X39979650Y-10265426D01*
X40000132Y-10282104D01*
X40019228Y-10299933D01*
X40037057Y-10319029D01*
X40053735Y-10339511D01*
X40069263Y-10361378D01*
X40083641Y-10384630D01*
X40096869Y-10409268D01*
X40108946Y-10435291D01*
X40119874Y-10462699D01*
X40129651Y-10491493D01*
X40138277Y-10521671D01*
X40145754Y-10553236D01*
X40152080Y-10586185D01*
X40157256Y-10620520D01*
X40161282Y-10656240D01*
X40164157Y-10693346D01*
X40165883Y-10731836D01*
X40166458Y-10771712D01*
X40166458Y-11762557D01*
X40165883Y-11802433D01*
X40164157Y-11840924D01*
X40161282Y-11878029D01*
X40157256Y-11913749D01*
X40152080Y-11948084D01*
X40145754Y-11981034D01*
X40138277Y-12012598D01*
X40129651Y-12042777D01*
X40119874Y-12071570D01*
X40108946Y-12098978D01*
X40096869Y-12125001D01*
X40083641Y-12149639D01*
X40069263Y-12172891D01*
X40053735Y-12194758D01*
X40037057Y-12215240D01*
X40019228Y-12234336D01*
X40000132Y-12252165D01*
X39979650Y-12268843D01*
X39957783Y-12284371D01*
X39934531Y-12298749D01*
X39909893Y-12311977D01*
X39883870Y-12324054D01*
X39856462Y-12334982D01*
X39827669Y-12344758D01*
X39797490Y-12353385D01*
X39765926Y-12360862D01*
X39732976Y-12367188D01*
X39698641Y-12372364D01*
X39662921Y-12376390D01*
X39625816Y-12379265D01*
X39587325Y-12380991D01*
X39547449Y-12381566D01*
X38773688Y-12381566D01*
X38733748Y-12380991D01*
X38695203Y-12379265D01*
X38658051Y-12376390D01*
X38622294Y-12372364D01*
X38587929Y-12367188D01*
X38554959Y-12360862D01*
X38523382Y-12353385D01*
X38493199Y-12344758D01*
X38464410Y-12334982D01*
X38437014Y-12324054D01*
X38411012Y-12311977D01*
X38386404Y-12298749D01*
X38363189Y-12284371D01*
X38341369Y-12268843D01*
X38320941Y-12252165D01*
X38301908Y-12234336D01*
X38284079Y-12215240D01*
X38267401Y-12194758D01*
X38251873Y-12172891D01*
X38237495Y-12149639D01*
X38224267Y-12125001D01*
X38212190Y-12098978D01*
X38201263Y-12071570D01*
X38191486Y-12042777D01*
X38182859Y-12012598D01*
X38175383Y-11981034D01*
X38169056Y-11948084D01*
X38163880Y-11913749D01*
X38159854Y-11878029D01*
X38156979Y-11840924D01*
X38155254Y-11802433D01*
X38154678Y-11762557D01*
X38711357Y-11762557D01*
X38711538Y-11773962D01*
X38712991Y-11795686D01*
X38717893Y-11825557D01*
X38726063Y-11852169D01*
X38737501Y-11875523D01*
X38752208Y-11895618D01*
X38770182Y-11912454D01*
X38791425Y-11926032D01*
X38815935Y-11936351D01*
X38843714Y-11943411D01*
X38874761Y-11947213D01*
X38897274Y-11947937D01*
X39423325Y-11947937D01*
X39434763Y-11947756D01*
X39456550Y-11946308D01*
X39486508Y-11941420D01*
X39513197Y-11933273D01*
X39536618Y-11921868D01*
X39556771Y-11907204D01*
X39573656Y-11889282D01*
X39587274Y-11868100D01*
X39597622Y-11843661D01*
X39604703Y-11815962D01*
X39608516Y-11785005D01*
X39609242Y-11762557D01*
X39609242Y-10771712D01*
X39609061Y-10760307D01*
X39607608Y-10738583D01*
X39602706Y-10708712D01*
X39594536Y-10682100D01*
X39583098Y-10658746D01*
X39568391Y-10638651D01*
X39550417Y-10621815D01*
X39529174Y-10608237D01*
X39504664Y-10597918D01*
X39476885Y-10590858D01*
X39445838Y-10587056D01*
X39423325Y-10586332D01*
X38897274Y-10586332D01*
X38885836Y-10586513D01*
X38864049Y-10587961D01*
X38834091Y-10592849D01*
X38807402Y-10600996D01*
X38783981Y-10612401D01*
X38763828Y-10627065D01*
X38746943Y-10644988D01*
X38733326Y-10666169D01*
X38722977Y-10690609D01*
X38715896Y-10718307D01*
X38712083Y-10749264D01*
X38711357Y-10771712D01*
X38711357Y-11762557D01*
X38154678Y-11762557D01*
X38154678Y-10771712D01*
X38155254Y-10731836D01*
X38156979Y-10693346D01*
X38159854Y-10656240D01*
X38163880Y-10620520D01*
X38169056Y-10586185D01*
X38175383Y-10553236D01*
X38182859Y-10521671D01*
X38191486Y-10491493D01*
X38201263Y-10462699D01*
X38212190Y-10435291D01*
X38224267Y-10409268D01*
X38237495Y-10384630D01*
X38251873Y-10361378D01*
X38267401Y-10339511D01*
X38284079Y-10319029D01*
X38301908Y-10299933D01*
X38320941Y-10282104D01*
X38341369Y-10265426D01*
X38363189Y-10249898D01*
X38386404Y-10235520D01*
X38411012Y-10222292D01*
X38437014Y-10210215D01*
X38464410Y-10199288D01*
X38493199Y-10189511D01*
X38523382Y-10180884D01*
X38554959Y-10173408D01*
X38587929Y-10167081D01*
X38622294Y-10161905D01*
X38658051Y-10157879D01*
X38695203Y-10155004D01*
X38733748Y-10153278D01*
X38773688Y-10152703D01*
X39547449Y-10152703D01*
X39587325Y-10153278D01*
G37*
G36*
X37948879Y-11483680D02*
G01*
X37948879Y-11050589D01*
X36680233Y-11050589D01*
X36680233Y-11483680D01*
X37948879Y-11483680D01*
G37*
G36*
X34552390Y-11143548D02*
G01*
X34986018Y-11917309D01*
X35419110Y-11917309D01*
X35852738Y-11143548D01*
X35852738Y-12350401D01*
X36409417Y-12350401D01*
X36409417Y-10183869D01*
X35821573Y-10183869D01*
X35202564Y-11328928D01*
X34583555Y-10183869D01*
X33995711Y-10183869D01*
X33995711Y-12350401D01*
X34552390Y-12350401D01*
X34552390Y-11143548D01*
G37*
G36*
X31967812Y-12319235D02*
G01*
X32010703Y-12323070D01*
X32053137Y-12326783D01*
X32095111Y-12330374D01*
X32136627Y-12333844D01*
X32177684Y-12337192D01*
X32218283Y-12340418D01*
X32258423Y-12343522D01*
X32298104Y-12346505D01*
X32337327Y-12349366D01*
X32376091Y-12352105D01*
X32414397Y-12354722D01*
X32452244Y-12357218D01*
X32489632Y-12359592D01*
X32526562Y-12361844D01*
X32563033Y-12363974D01*
X32599045Y-12365983D01*
X32634599Y-12367870D01*
X32669694Y-12369635D01*
X32704331Y-12371279D01*
X32738509Y-12372801D01*
X32772228Y-12374201D01*
X32805489Y-12375479D01*
X32838291Y-12376635D01*
X32870634Y-12377670D01*
X32902519Y-12378583D01*
X32933945Y-12379375D01*
X32964913Y-12380044D01*
X32995422Y-12380592D01*
X33025472Y-12381018D01*
X33055064Y-12381322D01*
X33084197Y-12381505D01*
X33112871Y-12381566D01*
X33150191Y-12381010D01*
X33186251Y-12379341D01*
X33221052Y-12376560D01*
X33254593Y-12372666D01*
X33286875Y-12367660D01*
X33317898Y-12361542D01*
X33347661Y-12354311D01*
X33376165Y-12345967D01*
X33403409Y-12336512D01*
X33429395Y-12325943D01*
X33454120Y-12314263D01*
X33477587Y-12301469D01*
X33499794Y-12287564D01*
X33520741Y-12272546D01*
X33540430Y-12256415D01*
X33558858Y-12239172D01*
X33576101Y-12220743D01*
X33592232Y-12201055D01*
X33607250Y-12180108D01*
X33621156Y-12157901D01*
X33633949Y-12134434D01*
X33645630Y-12109708D01*
X33656198Y-12083723D01*
X33665654Y-12056479D01*
X33673997Y-12027975D01*
X33681228Y-11998211D01*
X33687346Y-11967189D01*
X33692352Y-11934907D01*
X33696246Y-11901365D01*
X33699027Y-11866565D01*
X33700696Y-11830504D01*
X33701252Y-11793185D01*
X33701252Y-10802878D01*
X33700677Y-10762939D01*
X33698952Y-10724393D01*
X33696076Y-10687242D01*
X33692050Y-10651484D01*
X33686874Y-10617120D01*
X33680548Y-10584149D01*
X33673071Y-10552572D01*
X33664445Y-10522389D01*
X33654668Y-10493600D01*
X33643741Y-10466204D01*
X33631663Y-10440202D01*
X33618435Y-10415594D01*
X33604058Y-10392380D01*
X33588529Y-10370559D01*
X33571851Y-10350132D01*
X33554022Y-10331098D01*
X33534926Y-10313270D01*
X33514444Y-10296591D01*
X33492577Y-10281063D01*
X33469325Y-10266685D01*
X33444688Y-10253458D01*
X33418665Y-10241380D01*
X33391256Y-10230453D01*
X33362463Y-10220676D01*
X33332284Y-10212049D01*
X33300720Y-10204573D01*
X33267770Y-10198247D01*
X33233435Y-10193071D01*
X33197715Y-10189045D01*
X33160610Y-10186169D01*
X33122119Y-10184444D01*
X33082243Y-10183869D01*
X31967812Y-10183869D01*
X31967812Y-10616960D01*
X32958119Y-10616960D01*
X32980632Y-10617686D01*
X33011679Y-10621499D01*
X33039458Y-10628580D01*
X33063968Y-10638929D01*
X33085211Y-10652546D01*
X33103185Y-10669431D01*
X33117892Y-10689584D01*
X33129330Y-10713006D01*
X33137500Y-10739695D01*
X33142402Y-10769652D01*
X33143855Y-10791440D01*
X33144036Y-10802878D01*
X33144036Y-11793185D01*
X33143013Y-11814796D01*
X33139084Y-11838825D01*
X33132208Y-11860776D01*
X33122385Y-11880649D01*
X33109615Y-11898444D01*
X33102124Y-11906562D01*
X33085595Y-11920623D01*
X33064258Y-11933351D01*
X33044208Y-11941109D01*
X33022534Y-11945957D01*
X32999236Y-11947897D01*
X32995195Y-11947937D01*
X32970379Y-11947880D01*
X32944694Y-11947710D01*
X32922626Y-11947482D01*
X32899954Y-11947175D01*
X32876680Y-11946790D01*
X32852801Y-11946325D01*
X32828477Y-11945795D01*
X32803864Y-11945213D01*
X32778962Y-11944578D01*
X32753772Y-11943890D01*
X32728293Y-11943150D01*
X32702526Y-11942358D01*
X32692138Y-11942026D01*
X32665917Y-11941019D01*
X32639643Y-11940011D01*
X32613317Y-11939004D01*
X32586938Y-11937996D01*
X32560507Y-11936989D01*
X32534024Y-11935981D01*
X32523415Y-11935578D01*
X32501410Y-11934680D01*
X32477843Y-11933597D01*
X32452714Y-11932329D01*
X32426024Y-11930877D01*
X32397771Y-11929240D01*
X32375558Y-11927890D01*
X32352465Y-11926437D01*
X32328495Y-11924881D01*
X32303646Y-11923220D01*
X32277776Y-11921479D01*
X32250746Y-11919681D01*
X32222553Y-11917826D01*
X32193198Y-11915915D01*
X32162682Y-11913948D01*
X32131004Y-11911923D01*
X32109240Y-11910542D01*
X32086959Y-11909136D01*
X32064162Y-11907704D01*
X32040849Y-11906248D01*
X32017020Y-11904766D01*
X31992674Y-11903259D01*
X31967812Y-11901726D01*
X31967812Y-12319235D01*
G37*
G36*
X30337540Y-10183869D02*
G01*
X29780861Y-10183869D01*
X29780861Y-11762557D01*
X29781436Y-11802433D01*
X29783162Y-11840924D01*
X29786037Y-11878029D01*
X29790063Y-11913749D01*
X29795239Y-11948084D01*
X29801565Y-11981034D01*
X29809042Y-12012598D01*
X29817669Y-12042777D01*
X29827446Y-12071570D01*
X29838373Y-12098978D01*
X29850450Y-12125001D01*
X29863678Y-12149639D01*
X29878056Y-12172891D01*
X29893584Y-12194758D01*
X29910262Y-12215240D01*
X29928091Y-12234336D01*
X29947124Y-12252165D01*
X29967551Y-12268843D01*
X29989372Y-12284371D01*
X30012587Y-12298749D01*
X30037195Y-12311977D01*
X30063197Y-12324054D01*
X30090592Y-12334982D01*
X30119382Y-12344758D01*
X30149565Y-12353385D01*
X30181142Y-12360862D01*
X30214112Y-12367188D01*
X30248476Y-12372364D01*
X30284234Y-12376390D01*
X30321386Y-12379265D01*
X30359931Y-12380991D01*
X30399870Y-12381566D01*
X31111301Y-12381566D01*
X31151242Y-12380991D01*
X31189794Y-12379265D01*
X31226956Y-12376390D01*
X31262728Y-12372364D01*
X31297112Y-12367188D01*
X31330105Y-12360862D01*
X31361709Y-12353385D01*
X31391924Y-12344758D01*
X31420749Y-12334982D01*
X31448184Y-12324054D01*
X31474230Y-12311977D01*
X31498887Y-12298749D01*
X31522154Y-12284371D01*
X31544031Y-12268843D01*
X31564519Y-12252165D01*
X31583618Y-12234336D01*
X31601381Y-12215240D01*
X31617999Y-12194758D01*
X31633470Y-12172891D01*
X31647796Y-12149639D01*
X31660975Y-12125001D01*
X31673008Y-12098978D01*
X31683896Y-12071570D01*
X31693637Y-12042777D01*
X31702232Y-12012598D01*
X31709681Y-11981034D01*
X31715985Y-11948084D01*
X31721142Y-11913749D01*
X31725153Y-11878029D01*
X31728018Y-11840924D01*
X31729737Y-11802433D01*
X31730310Y-11762557D01*
X31730310Y-10183869D01*
X31173632Y-10183869D01*
X31173632Y-11762557D01*
X31172905Y-11785005D01*
X31169093Y-11815962D01*
X31162012Y-11843661D01*
X31151663Y-11868100D01*
X31138046Y-11889282D01*
X31121161Y-11907204D01*
X31101008Y-11921868D01*
X31077586Y-11933273D01*
X31050897Y-11941420D01*
X31020940Y-11946308D01*
X30999152Y-11947756D01*
X30987714Y-11947937D01*
X30523457Y-11947937D01*
X30500944Y-11947213D01*
X30469897Y-11943411D01*
X30442118Y-11936351D01*
X30417608Y-11926032D01*
X30396365Y-11912454D01*
X30378391Y-11895618D01*
X30363684Y-11875523D01*
X30352246Y-11852169D01*
X30344076Y-11825557D01*
X30339174Y-11795686D01*
X30337721Y-11773962D01*
X30337540Y-11762557D01*
X30337540Y-10183869D01*
G37*
G36*
X29514881Y-11483680D02*
G01*
X29514881Y-11050589D01*
X28246235Y-11050589D01*
X28246235Y-11483680D01*
X29514881Y-11483680D01*
G37*
G36*
X26118391Y-12304190D02*
G01*
X26163546Y-12308950D01*
X26208472Y-12313560D01*
X26253168Y-12318018D01*
X26297634Y-12322325D01*
X26341870Y-12326481D01*
X26385876Y-12330486D01*
X26429653Y-12334339D01*
X26473199Y-12338042D01*
X26516516Y-12341593D01*
X26559603Y-12344994D01*
X26602460Y-12348243D01*
X26645088Y-12351341D01*
X26687485Y-12354288D01*
X26729653Y-12357084D01*
X26771591Y-12359728D01*
X26813298Y-12362222D01*
X26854777Y-12364564D01*
X26896025Y-12366756D01*
X26937043Y-12368796D01*
X26977832Y-12370685D01*
X27018391Y-12372423D01*
X27058720Y-12374010D01*
X27098819Y-12375445D01*
X27138688Y-12376730D01*
X27178327Y-12377863D01*
X27217737Y-12378846D01*
X27256917Y-12379677D01*
X27295867Y-12380357D01*
X27334587Y-12380886D01*
X27373077Y-12381264D01*
X27411337Y-12381490D01*
X27449368Y-12381566D01*
X27486687Y-12381010D01*
X27522748Y-12379341D01*
X27557548Y-12376560D01*
X27591090Y-12372666D01*
X27623372Y-12367660D01*
X27654395Y-12361542D01*
X27684158Y-12354311D01*
X27712662Y-12345967D01*
X27739906Y-12336512D01*
X27765891Y-12325943D01*
X27790617Y-12314263D01*
X27814084Y-12301469D01*
X27836291Y-12287564D01*
X27857238Y-12272546D01*
X27876926Y-12256415D01*
X27895355Y-12239172D01*
X27912598Y-12220743D01*
X27928729Y-12201055D01*
X27943747Y-12180108D01*
X27957653Y-12157901D01*
X27970446Y-12134434D01*
X27982126Y-12109708D01*
X27992695Y-12083723D01*
X28002151Y-12056479D01*
X28010494Y-12027975D01*
X28017725Y-11998211D01*
X28023843Y-11967189D01*
X28028849Y-11934907D01*
X28032743Y-11901365D01*
X28035524Y-11866565D01*
X28037193Y-11830504D01*
X28037749Y-11793185D01*
X28037749Y-10802878D01*
X28037174Y-10762939D01*
X28035448Y-10724393D01*
X28032573Y-10687242D01*
X28028547Y-10651484D01*
X28023371Y-10617120D01*
X28017045Y-10584149D01*
X28009568Y-10552572D01*
X28000942Y-10522389D01*
X27991165Y-10493600D01*
X27980237Y-10466204D01*
X27968160Y-10440202D01*
X27954932Y-10415594D01*
X27940554Y-10392380D01*
X27925026Y-10370559D01*
X27908348Y-10350132D01*
X27890519Y-10331098D01*
X27871423Y-10313270D01*
X27850941Y-10296591D01*
X27829074Y-10281063D01*
X27805822Y-10266685D01*
X27781184Y-10253458D01*
X27755161Y-10241380D01*
X27727753Y-10230453D01*
X27698960Y-10220676D01*
X27668781Y-10212049D01*
X27637217Y-10204573D01*
X27604267Y-10198247D01*
X27569932Y-10193071D01*
X27534212Y-10189045D01*
X27497107Y-10186169D01*
X27458616Y-10184444D01*
X27418740Y-10183869D01*
X26304309Y-10183869D01*
X26304309Y-10616960D01*
X27294616Y-10616960D01*
X27317129Y-10617686D01*
X27348176Y-10621499D01*
X27375955Y-10628580D01*
X27400465Y-10638929D01*
X27421708Y-10652546D01*
X27439682Y-10669431D01*
X27454389Y-10689584D01*
X27465827Y-10713006D01*
X27473997Y-10739695D01*
X27478899Y-10769652D01*
X27480352Y-10791440D01*
X27480533Y-10802878D01*
X27480533Y-11793185D01*
X27479510Y-11814796D01*
X27475581Y-11838825D01*
X27468705Y-11860776D01*
X27458881Y-11880649D01*
X27446111Y-11898444D01*
X27438621Y-11906562D01*
X27421884Y-11920623D01*
X27403107Y-11931775D01*
X27382289Y-11940018D01*
X27359432Y-11945351D01*
X27334534Y-11947776D01*
X27325781Y-11947937D01*
X27303576Y-11947922D01*
X27281493Y-11947876D01*
X27259531Y-11947800D01*
X27237692Y-11947694D01*
X27215974Y-11947557D01*
X27194378Y-11947389D01*
X27151550Y-11946963D01*
X27109210Y-11946415D01*
X27067357Y-11945746D01*
X27025990Y-11944955D01*
X26985111Y-11944041D01*
X26944719Y-11943007D01*
X26904813Y-11941850D01*
X26865395Y-11940572D01*
X26826463Y-11939172D01*
X26788019Y-11937650D01*
X26750061Y-11936007D01*
X26712590Y-11934241D01*
X26675607Y-11932354D01*
X26675607Y-11483680D01*
X27078070Y-11483680D01*
X27078070Y-11112382D01*
X26118391Y-11112382D01*
X26118391Y-12304190D01*
G37*
G36*
X25819633Y-12350401D02*
G01*
X24612780Y-12350401D01*
X24569714Y-12349693D01*
X24527965Y-12347571D01*
X24487535Y-12344034D01*
X24448423Y-12339083D01*
X24410629Y-12332717D01*
X24374154Y-12324936D01*
X24338996Y-12315740D01*
X24305156Y-12305130D01*
X24272635Y-12293105D01*
X24241432Y-12279665D01*
X24211547Y-12264811D01*
X24182980Y-12248542D01*
X24155731Y-12230858D01*
X24129801Y-12211760D01*
X24105188Y-12191247D01*
X24081894Y-12169319D01*
X24070753Y-12157836D01*
X24049533Y-12133883D01*
X24029727Y-12108612D01*
X24011336Y-12082022D01*
X23994359Y-12054114D01*
X23978798Y-12024888D01*
X23964651Y-11994344D01*
X23951918Y-11962482D01*
X23940601Y-11929302D01*
X23930698Y-11894803D01*
X23922210Y-11858986D01*
X23915136Y-11821851D01*
X23909477Y-11783398D01*
X23905233Y-11743627D01*
X23902404Y-11702538D01*
X23900989Y-11660131D01*
X23900812Y-11638433D01*
X24458028Y-11638433D01*
X24459115Y-11672203D01*
X24462377Y-11703794D01*
X24467813Y-11733207D01*
X24475424Y-11760441D01*
X24485210Y-11785496D01*
X24497169Y-11808373D01*
X24511304Y-11829071D01*
X24527613Y-11847590D01*
X24546096Y-11863930D01*
X24566754Y-11878092D01*
X24589587Y-11890075D01*
X24614594Y-11899879D01*
X24641775Y-11907505D01*
X24671131Y-11912952D01*
X24702662Y-11916220D01*
X24736367Y-11917309D01*
X25262955Y-11917309D01*
X25262955Y-10616960D01*
X24736367Y-10616960D01*
X24702662Y-10618050D01*
X24671131Y-10621318D01*
X24641775Y-10626764D01*
X24614594Y-10634390D01*
X24589587Y-10644194D01*
X24566754Y-10656177D01*
X24546096Y-10670339D01*
X24527613Y-10686679D01*
X24511304Y-10705198D01*
X24497169Y-10725896D01*
X24485210Y-10748773D01*
X24475424Y-10773828D01*
X24467813Y-10801062D01*
X24462377Y-10830475D01*
X24459115Y-10862066D01*
X24458028Y-10895837D01*
X24458028Y-11638433D01*
X23900812Y-11638433D01*
X23900812Y-10895837D01*
X23901520Y-10852770D01*
X23903642Y-10811022D01*
X23907179Y-10770592D01*
X23912130Y-10731480D01*
X23918496Y-10693686D01*
X23926277Y-10657210D01*
X23935473Y-10622052D01*
X23946083Y-10588213D01*
X23958108Y-10555691D01*
X23971547Y-10524488D01*
X23986402Y-10494603D01*
X24002671Y-10466036D01*
X24020355Y-10438788D01*
X24039453Y-10412857D01*
X24059966Y-10388245D01*
X24081894Y-10364950D01*
X24093376Y-10353810D01*
X24117330Y-10332589D01*
X24142601Y-10312783D01*
X24169191Y-10294392D01*
X24197099Y-10277416D01*
X24226325Y-10261854D01*
X24256869Y-10247707D01*
X24288731Y-10234975D01*
X24321911Y-10223657D01*
X24356410Y-10213754D01*
X24392227Y-10205266D01*
X24429361Y-10198193D01*
X24467814Y-10192534D01*
X24507586Y-10188290D01*
X24548675Y-10185460D01*
X24591082Y-10184046D01*
X24612780Y-10183869D01*
X25819633Y-10183869D01*
X25819633Y-12350401D01*
G37*
G36*
X22582731Y-12381566D02*
G01*
X22615147Y-12381505D01*
X22647780Y-12381322D01*
X22680631Y-12381018D01*
X22713698Y-12380592D01*
X22746983Y-12380044D01*
X22780485Y-12379375D01*
X22814204Y-12378583D01*
X22848141Y-12377670D01*
X22882295Y-12376635D01*
X22916666Y-12375479D01*
X22951254Y-12374201D01*
X22986060Y-12372801D01*
X23021082Y-12371279D01*
X23056322Y-12369635D01*
X23091780Y-12367870D01*
X23127454Y-12365983D01*
X23163346Y-12363974D01*
X23199455Y-12361844D01*
X23235781Y-12359592D01*
X23272324Y-12357218D01*
X23309085Y-12354722D01*
X23346063Y-12352105D01*
X23383258Y-12349366D01*
X23420671Y-12346505D01*
X23458300Y-12343522D01*
X23496147Y-12340418D01*
X23534211Y-12337192D01*
X23572493Y-12333844D01*
X23610991Y-12330374D01*
X23649707Y-12326783D01*
X23688640Y-12323070D01*
X23727791Y-12319235D01*
X23727791Y-11901726D01*
X23685378Y-11904569D01*
X23643641Y-11907322D01*
X23602582Y-11909985D01*
X23562199Y-11912557D01*
X23522494Y-11915039D01*
X23483465Y-11917431D01*
X23445114Y-11919732D01*
X23407439Y-11921944D01*
X23370441Y-11924065D01*
X23334120Y-11926095D01*
X23298476Y-11928036D01*
X23263509Y-11929886D01*
X23229219Y-11931646D01*
X23195605Y-11933316D01*
X23162669Y-11934895D01*
X23130409Y-11936384D01*
X23098827Y-11937783D01*
X23067921Y-11939092D01*
X23037693Y-11940311D01*
X23008141Y-11941439D01*
X22979266Y-11942477D01*
X22951068Y-11943424D01*
X22923547Y-11944282D01*
X22896703Y-11945049D01*
X22870535Y-11945726D01*
X22845045Y-11946313D01*
X22820232Y-11946809D01*
X22796095Y-11947215D01*
X22772636Y-11947531D01*
X22749853Y-11947757D01*
X22727747Y-11947892D01*
X22706318Y-11947937D01*
X22680740Y-11946483D01*
X22657203Y-11942119D01*
X22635705Y-11934846D01*
X22616248Y-11924664D01*
X22598831Y-11911573D01*
X22593478Y-11906562D01*
X22579235Y-11889806D01*
X22567938Y-11870972D01*
X22559588Y-11850060D01*
X22554186Y-11827071D01*
X22551730Y-11802003D01*
X22551566Y-11793185D01*
X22551566Y-11669598D01*
X22552292Y-11647085D01*
X22556105Y-11616038D01*
X22563186Y-11588259D01*
X22573535Y-11563748D01*
X22587152Y-11542506D01*
X22604037Y-11524531D01*
X22624190Y-11509825D01*
X22647611Y-11498387D01*
X22674301Y-11490217D01*
X22704258Y-11485314D01*
X22726045Y-11483862D01*
X22737484Y-11483680D01*
X23387121Y-11483680D01*
X23387121Y-11050589D01*
X22799277Y-11050589D01*
X22776764Y-11049863D01*
X22745717Y-11046050D01*
X22717938Y-11038969D01*
X22693428Y-11028620D01*
X22672185Y-11015003D01*
X22654211Y-10998118D01*
X22639504Y-10977965D01*
X22628066Y-10954544D01*
X22619896Y-10927854D01*
X22614994Y-10897897D01*
X22613541Y-10876110D01*
X22613360Y-10864671D01*
X22613360Y-10802878D01*
X22614086Y-10780364D01*
X22617899Y-10749318D01*
X22624979Y-10721539D01*
X22635328Y-10697028D01*
X22648945Y-10675786D01*
X22665830Y-10657811D01*
X22685984Y-10643105D01*
X22709405Y-10631667D01*
X22736094Y-10623496D01*
X22766052Y-10618594D01*
X22787839Y-10617142D01*
X22799277Y-10616960D01*
X23696625Y-10616960D01*
X23696625Y-10183869D01*
X22644525Y-10183869D01*
X22607205Y-10184408D01*
X22571145Y-10186026D01*
X22536344Y-10188724D01*
X22502803Y-10192500D01*
X22470521Y-10197355D01*
X22439498Y-10203288D01*
X22409735Y-10210301D01*
X22381231Y-10218392D01*
X22353987Y-10227563D01*
X22328001Y-10237812D01*
X22303276Y-10249140D01*
X22279809Y-10261547D01*
X22257602Y-10275033D01*
X22236655Y-10289598D01*
X22216966Y-10305241D01*
X22198537Y-10321964D01*
X22181295Y-10339721D01*
X22165164Y-10358603D01*
X22150146Y-10378610D01*
X22136240Y-10399743D01*
X22123447Y-10422000D01*
X22111766Y-10445383D01*
X22101198Y-10469890D01*
X22091742Y-10495523D01*
X22083399Y-10522280D01*
X22076168Y-10550163D01*
X22070050Y-10579170D01*
X22065043Y-10609303D01*
X22061150Y-10640561D01*
X22058369Y-10672944D01*
X22056700Y-10706452D01*
X22056144Y-10741084D01*
X22056478Y-10763986D01*
X22057479Y-10786346D01*
X22059148Y-10808165D01*
X22062902Y-10839878D01*
X22068158Y-10870372D01*
X22074916Y-10899648D01*
X22083176Y-10927705D01*
X22092938Y-10954544D01*
X22104202Y-10980165D01*
X22116967Y-11004567D01*
X22131234Y-11027750D01*
X22141580Y-11042529D01*
X22157976Y-11063682D01*
X22175325Y-11083616D01*
X22193629Y-11102332D01*
X22212886Y-11119829D01*
X22233097Y-11136108D01*
X22254263Y-11151169D01*
X22276382Y-11165011D01*
X22299456Y-11177635D01*
X22323483Y-11189040D01*
X22348464Y-11199227D01*
X22365648Y-11205341D01*
X22334976Y-11214644D01*
X22305559Y-11225491D01*
X22277398Y-11237883D01*
X22250491Y-11251821D01*
X22224840Y-11267303D01*
X22200443Y-11284329D01*
X22177302Y-11302901D01*
X22155416Y-11323017D01*
X22134786Y-11344679D01*
X22115410Y-11367885D01*
X22097290Y-11392636D01*
X22080425Y-11418932D01*
X22064815Y-11446772D01*
X22050460Y-11476158D01*
X22037360Y-11507088D01*
X22025516Y-11539563D01*
X22018211Y-11563970D01*
X22011881Y-11589367D01*
X22006524Y-11615755D01*
X22002142Y-11643134D01*
X21998733Y-11671504D01*
X21996816Y-11693431D01*
X21995446Y-11715916D01*
X21994624Y-11738958D01*
X21994350Y-11762557D01*
X21994350Y-11793185D01*
X21994907Y-11830504D01*
X21996575Y-11866565D01*
X21999356Y-11901365D01*
X22003250Y-11934907D01*
X22008256Y-11967189D01*
X22014375Y-11998211D01*
X22021605Y-12027975D01*
X22029949Y-12056479D01*
X22039405Y-12083723D01*
X22049973Y-12109708D01*
X22061654Y-12134434D01*
X22074447Y-12157901D01*
X22088352Y-12180108D01*
X22103371Y-12201055D01*
X22119501Y-12220743D01*
X22136744Y-12239172D01*
X22155173Y-12256415D01*
X22174861Y-12272546D01*
X22195809Y-12287564D01*
X22218016Y-12301469D01*
X22241482Y-12314263D01*
X22266208Y-12325943D01*
X22292193Y-12336512D01*
X22319438Y-12345967D01*
X22347942Y-12354311D01*
X22377705Y-12361542D01*
X22408728Y-12367660D01*
X22441010Y-12372666D01*
X22474551Y-12376560D01*
X22509352Y-12379341D01*
X22545412Y-12381010D01*
X22582731Y-12381566D01*
G37*
G36*
X20177623Y-10864671D02*
G01*
X20178494Y-10897304D01*
X20181108Y-10929378D01*
X20185463Y-10960894D01*
X20191560Y-10991852D01*
X20199400Y-11022251D01*
X20208982Y-11052092D01*
X20220306Y-11081374D01*
X20233372Y-11110099D01*
X20248180Y-11138265D01*
X20264730Y-11165872D01*
X20283023Y-11192922D01*
X20303057Y-11219413D01*
X20324834Y-11245345D01*
X20348353Y-11270720D01*
X20373614Y-11295536D01*
X20400617Y-11319793D01*
X20417870Y-11334444D01*
X20435510Y-11349112D01*
X20453536Y-11363796D01*
X20471948Y-11378497D01*
X20490746Y-11393215D01*
X20509931Y-11407950D01*
X20529502Y-11422701D01*
X20549459Y-11437470D01*
X21214678Y-11917309D01*
X20177623Y-11917309D01*
X20177623Y-12350401D01*
X21849270Y-12350401D01*
X21849270Y-11762557D01*
X20734839Y-10957630D01*
X20734839Y-10802878D01*
X20735565Y-10780364D01*
X20739378Y-10749318D01*
X20746459Y-10721539D01*
X20756808Y-10697028D01*
X20770425Y-10675786D01*
X20787310Y-10657811D01*
X20807463Y-10643105D01*
X20830884Y-10631667D01*
X20857574Y-10623496D01*
X20887531Y-10618594D01*
X20909318Y-10617142D01*
X20920757Y-10616960D01*
X21787477Y-10616960D01*
X21787477Y-10183869D01*
X20796632Y-10183869D01*
X20756756Y-10184444D01*
X20718266Y-10186169D01*
X20681160Y-10189045D01*
X20645440Y-10193071D01*
X20611105Y-10198247D01*
X20578156Y-10204573D01*
X20546591Y-10212049D01*
X20516413Y-10220676D01*
X20487619Y-10230453D01*
X20460211Y-10241380D01*
X20434188Y-10253458D01*
X20409550Y-10266685D01*
X20386298Y-10281063D01*
X20364431Y-10296591D01*
X20343949Y-10313270D01*
X20324853Y-10331098D01*
X20307024Y-10350132D01*
X20290346Y-10370559D01*
X20274818Y-10392380D01*
X20260440Y-10415594D01*
X20247212Y-10440202D01*
X20235135Y-10466204D01*
X20224208Y-10493600D01*
X20214431Y-10522389D01*
X20205804Y-10552572D01*
X20198327Y-10584149D01*
X20192001Y-10617120D01*
X20186825Y-10651484D01*
X20182799Y-10687242D01*
X20179924Y-10724393D01*
X20178198Y-10762939D01*
X20177623Y-10802878D01*
X20177623Y-10864671D01*
G37*
G36*
X19352278Y-12350401D02*
G01*
X19908956Y-12350401D01*
X19908956Y-10183869D01*
X18191636Y-10183869D01*
X18191636Y-10616960D01*
X19352278Y-10616960D01*
X19352278Y-11127965D01*
X18438810Y-11127965D01*
X18438810Y-11561056D01*
X19352278Y-11561056D01*
X19352278Y-12350401D01*
G37*
G36*
X16964364Y-12381566D02*
G01*
X16996780Y-12381505D01*
X17029413Y-12381322D01*
X17062264Y-12381018D01*
X17095331Y-12380592D01*
X17128616Y-12380044D01*
X17162118Y-12379375D01*
X17195837Y-12378583D01*
X17229774Y-12377670D01*
X17263928Y-12376635D01*
X17298299Y-12375479D01*
X17332887Y-12374201D01*
X17367693Y-12372801D01*
X17402715Y-12371279D01*
X17437955Y-12369635D01*
X17473413Y-12367870D01*
X17509087Y-12365983D01*
X17544979Y-12363974D01*
X17581088Y-12361844D01*
X17617414Y-12359592D01*
X17653957Y-12357218D01*
X17690718Y-12354722D01*
X17727696Y-12352105D01*
X17764891Y-12349366D01*
X17802304Y-12346505D01*
X17839933Y-12343522D01*
X17877780Y-12340418D01*
X17915844Y-12337192D01*
X17954126Y-12333844D01*
X17992624Y-12330374D01*
X18031340Y-12326783D01*
X18070273Y-12323070D01*
X18109424Y-12319235D01*
X18109424Y-11901726D01*
X18067011Y-11904569D01*
X18025274Y-11907322D01*
X17984215Y-11909985D01*
X17943832Y-11912557D01*
X17904127Y-11915039D01*
X17865098Y-11917431D01*
X17826747Y-11919732D01*
X17789072Y-11921944D01*
X17752074Y-11924065D01*
X17715753Y-11926095D01*
X17680109Y-11928036D01*
X17645142Y-11929886D01*
X17610852Y-11931646D01*
X17577238Y-11933316D01*
X17544302Y-11934895D01*
X17512042Y-11936384D01*
X17480460Y-11937783D01*
X17449554Y-11939092D01*
X17419325Y-11940311D01*
X17389774Y-11941439D01*
X17360899Y-11942477D01*
X17332701Y-11943424D01*
X17305180Y-11944282D01*
X17278336Y-11945049D01*
X17252168Y-11945726D01*
X17226678Y-11946313D01*
X17201865Y-11946809D01*
X17177728Y-11947215D01*
X17154269Y-11947531D01*
X17131486Y-11947757D01*
X17109380Y-11947892D01*
X17087951Y-11947937D01*
X17062373Y-11946483D01*
X17038836Y-11942119D01*
X17017338Y-11934846D01*
X16997881Y-11924664D01*
X16980463Y-11911573D01*
X16975111Y-11906562D01*
X16960868Y-11889806D01*
X16949571Y-11870972D01*
X16941221Y-11850060D01*
X16935819Y-11827071D01*
X16933363Y-11802003D01*
X16933199Y-11793185D01*
X16933199Y-11669598D01*
X16933925Y-11647085D01*
X16937738Y-11616038D01*
X16944819Y-11588259D01*
X16955168Y-11563748D01*
X16968785Y-11542506D01*
X16985670Y-11524531D01*
X17005823Y-11509825D01*
X17029244Y-11498387D01*
X17055934Y-11490217D01*
X17085891Y-11485314D01*
X17107678Y-11483862D01*
X17119117Y-11483680D01*
X17768754Y-11483680D01*
X17768754Y-11050589D01*
X17180910Y-11050589D01*
X17158397Y-11049863D01*
X17127350Y-11046050D01*
X17099571Y-11038969D01*
X17075061Y-11028620D01*
X17053818Y-11015003D01*
X17035844Y-10998118D01*
X17021137Y-10977965D01*
X17009699Y-10954544D01*
X17001529Y-10927854D01*
X16996627Y-10897897D01*
X16995174Y-10876110D01*
X16994992Y-10864671D01*
X16994992Y-10802878D01*
X16995719Y-10780364D01*
X16999531Y-10749318D01*
X17006612Y-10721539D01*
X17016961Y-10697028D01*
X17030578Y-10675786D01*
X17047463Y-10657811D01*
X17067617Y-10643105D01*
X17091038Y-10631667D01*
X17117727Y-10623496D01*
X17147685Y-10618594D01*
X17169472Y-10617142D01*
X17180910Y-10616960D01*
X18078258Y-10616960D01*
X18078258Y-10183869D01*
X17026158Y-10183869D01*
X16988838Y-10184408D01*
X16952778Y-10186026D01*
X16917977Y-10188724D01*
X16884436Y-10192500D01*
X16852154Y-10197355D01*
X16821131Y-10203288D01*
X16791368Y-10210301D01*
X16762864Y-10218392D01*
X16735620Y-10227563D01*
X16709634Y-10237812D01*
X16684909Y-10249140D01*
X16661442Y-10261547D01*
X16639235Y-10275033D01*
X16618288Y-10289598D01*
X16598599Y-10305241D01*
X16580170Y-10321964D01*
X16562927Y-10339721D01*
X16546797Y-10358603D01*
X16531779Y-10378610D01*
X16517873Y-10399743D01*
X16505080Y-10422000D01*
X16493399Y-10445383D01*
X16482831Y-10469890D01*
X16473375Y-10495523D01*
X16465032Y-10522280D01*
X16457801Y-10550163D01*
X16451682Y-10579170D01*
X16446676Y-10609303D01*
X16442783Y-10640561D01*
X16440002Y-10672944D01*
X16438333Y-10706452D01*
X16437777Y-10741084D01*
X16438111Y-10763986D01*
X16439112Y-10786346D01*
X16440780Y-10808165D01*
X16444535Y-10839878D01*
X16449791Y-10870372D01*
X16456549Y-10899648D01*
X16464809Y-10927705D01*
X16474571Y-10954544D01*
X16485835Y-10980165D01*
X16498600Y-11004567D01*
X16512867Y-11027750D01*
X16523213Y-11042529D01*
X16539608Y-11063682D01*
X16556958Y-11083616D01*
X16575261Y-11102332D01*
X16594519Y-11119829D01*
X16614730Y-11136108D01*
X16635896Y-11151169D01*
X16658015Y-11165011D01*
X16681089Y-11177635D01*
X16705116Y-11189040D01*
X16730097Y-11199227D01*
X16747281Y-11205341D01*
X16716609Y-11214644D01*
X16687192Y-11225491D01*
X16659031Y-11237883D01*
X16632124Y-11251821D01*
X16606473Y-11267303D01*
X16582076Y-11284329D01*
X16558935Y-11302901D01*
X16537049Y-11323017D01*
X16516419Y-11344679D01*
X16497043Y-11367885D01*
X16478923Y-11392636D01*
X16462058Y-11418932D01*
X16446448Y-11446772D01*
X16432093Y-11476158D01*
X16418993Y-11507088D01*
X16407149Y-11539563D01*
X16399844Y-11563970D01*
X16393514Y-11589367D01*
X16388157Y-11615755D01*
X16383775Y-11643134D01*
X16380366Y-11671504D01*
X16378449Y-11693431D01*
X16377079Y-11715916D01*
X16376257Y-11738958D01*
X16375983Y-11762557D01*
X16375983Y-11793185D01*
X16376540Y-11830504D01*
X16378208Y-11866565D01*
X16380989Y-11901365D01*
X16384883Y-11934907D01*
X16389889Y-11967189D01*
X16396007Y-11998211D01*
X16403238Y-12027975D01*
X16411582Y-12056479D01*
X16421038Y-12083723D01*
X16431606Y-12109708D01*
X16443287Y-12134434D01*
X16456080Y-12157901D01*
X16469985Y-12180108D01*
X16485003Y-12201055D01*
X16501134Y-12220743D01*
X16518377Y-12239172D01*
X16536806Y-12256415D01*
X16556494Y-12272546D01*
X16577442Y-12287564D01*
X16599649Y-12301469D01*
X16623115Y-12314263D01*
X16647841Y-12325943D01*
X16673826Y-12336512D01*
X16701071Y-12345967D01*
X16729575Y-12354311D01*
X16759338Y-12361542D01*
X16790360Y-12367660D01*
X16822643Y-12372666D01*
X16856184Y-12376560D01*
X16890985Y-12379341D01*
X16927045Y-12381010D01*
X16964364Y-12381566D01*
G37*
G36*
X15085844Y-12381566D02*
G01*
X15118260Y-12381505D01*
X15150893Y-12381322D01*
X15183743Y-12381018D01*
X15216811Y-12380592D01*
X15250095Y-12380044D01*
X15283598Y-12379375D01*
X15317317Y-12378583D01*
X15351253Y-12377670D01*
X15385407Y-12376635D01*
X15419778Y-12375479D01*
X15454366Y-12374201D01*
X15489172Y-12372801D01*
X15524195Y-12371279D01*
X15559435Y-12369635D01*
X15594892Y-12367870D01*
X15630566Y-12365983D01*
X15666458Y-12363974D01*
X15702567Y-12361844D01*
X15738893Y-12359592D01*
X15775437Y-12357218D01*
X15812197Y-12354722D01*
X15849175Y-12352105D01*
X15886371Y-12349366D01*
X15923783Y-12346505D01*
X15961413Y-12343522D01*
X15999260Y-12340418D01*
X16037324Y-12337192D01*
X16075605Y-12333844D01*
X16114104Y-12330374D01*
X16152820Y-12326783D01*
X16191753Y-12323070D01*
X16230903Y-12319235D01*
X16230903Y-11901726D01*
X16188490Y-11904569D01*
X16146754Y-11907322D01*
X16105694Y-11909985D01*
X16065312Y-11912557D01*
X16025606Y-11915039D01*
X15986578Y-11917431D01*
X15948226Y-11919732D01*
X15910551Y-11921944D01*
X15873553Y-11924065D01*
X15837232Y-11926095D01*
X15801588Y-11928036D01*
X15766621Y-11929886D01*
X15732331Y-11931646D01*
X15698718Y-11933316D01*
X15665781Y-11934895D01*
X15633522Y-11936384D01*
X15601939Y-11937783D01*
X15571034Y-11939092D01*
X15540805Y-11940311D01*
X15511253Y-11941439D01*
X15482378Y-11942477D01*
X15454180Y-11943424D01*
X15426659Y-11944282D01*
X15399815Y-11945049D01*
X15373648Y-11945726D01*
X15348157Y-11946313D01*
X15323344Y-11946809D01*
X15299208Y-11947215D01*
X15275748Y-11947531D01*
X15252965Y-11947757D01*
X15230860Y-11947892D01*
X15209431Y-11947937D01*
X15183853Y-11946483D01*
X15160315Y-11942119D01*
X15138817Y-11934846D01*
X15119360Y-11924664D01*
X15101943Y-11911573D01*
X15096591Y-11906562D01*
X15082347Y-11889806D01*
X15071050Y-11870972D01*
X15062701Y-11850060D01*
X15057298Y-11827071D01*
X15054842Y-11802003D01*
X15054678Y-11793185D01*
X15054678Y-11638433D01*
X15055405Y-11615984D01*
X15059217Y-11585027D01*
X15066298Y-11557329D01*
X15076647Y-11532889D01*
X15090264Y-11511708D01*
X15107149Y-11493785D01*
X15127303Y-11479121D01*
X15150724Y-11467716D01*
X15177413Y-11459570D01*
X15207371Y-11454682D01*
X15229158Y-11453233D01*
X15240596Y-11453052D01*
X16137944Y-11453052D01*
X16137944Y-10183869D01*
X14652215Y-10183869D01*
X14652215Y-10616960D01*
X15580729Y-10616960D01*
X15580729Y-11019424D01*
X15085844Y-11019424D01*
X15048524Y-11019963D01*
X15012464Y-11021581D01*
X14977663Y-11024278D01*
X14944122Y-11028054D01*
X14911840Y-11032909D01*
X14880817Y-11038843D01*
X14851054Y-11045856D01*
X14822550Y-11053947D01*
X14795306Y-11063118D01*
X14769320Y-11073367D01*
X14744595Y-11084695D01*
X14721128Y-11097102D01*
X14698921Y-11110588D01*
X14677974Y-11125152D01*
X14658285Y-11140796D01*
X14639856Y-11157518D01*
X14622613Y-11175276D01*
X14606483Y-11194158D01*
X14591465Y-11214165D01*
X14577559Y-11235298D01*
X14564766Y-11257555D01*
X14553085Y-11280937D01*
X14542517Y-11305445D01*
X14533061Y-11331077D01*
X14524718Y-11357835D01*
X14517487Y-11385718D01*
X14511368Y-11414725D01*
X14506362Y-11444858D01*
X14502469Y-11476116D01*
X14499688Y-11508498D01*
X14498019Y-11542006D01*
X14497463Y-11576639D01*
X14497463Y-11793185D01*
X14498019Y-11830504D01*
X14499688Y-11866565D01*
X14502469Y-11901365D01*
X14506362Y-11934907D01*
X14511368Y-11967189D01*
X14517487Y-11998211D01*
X14524718Y-12027975D01*
X14533061Y-12056479D01*
X14542517Y-12083723D01*
X14553085Y-12109708D01*
X14564766Y-12134434D01*
X14577559Y-12157901D01*
X14591465Y-12180108D01*
X14606483Y-12201055D01*
X14622613Y-12220743D01*
X14639856Y-12239172D01*
X14658285Y-12256415D01*
X14677974Y-12272546D01*
X14698921Y-12287564D01*
X14721128Y-12301469D01*
X14744595Y-12314263D01*
X14769320Y-12325943D01*
X14795306Y-12336512D01*
X14822550Y-12345967D01*
X14851054Y-12354311D01*
X14880817Y-12361542D01*
X14911840Y-12367660D01*
X14944122Y-12372666D01*
X14977663Y-12376560D01*
X15012464Y-12379341D01*
X15048524Y-12381010D01*
X15085844Y-12381566D01*
G37*
G36*
X13743696Y-10153278D02*
G01*
X13782187Y-10155004D01*
X13819292Y-10157879D01*
X13855013Y-10161905D01*
X13889347Y-10167081D01*
X13922297Y-10173408D01*
X13953861Y-10180884D01*
X13984040Y-10189511D01*
X14012833Y-10199288D01*
X14040242Y-10210215D01*
X14066265Y-10222292D01*
X14090902Y-10235520D01*
X14114155Y-10249898D01*
X14136022Y-10265426D01*
X14156503Y-10282104D01*
X14175600Y-10299933D01*
X14193428Y-10319029D01*
X14210107Y-10339511D01*
X14225635Y-10361378D01*
X14240013Y-10384630D01*
X14253240Y-10409268D01*
X14265318Y-10435291D01*
X14276245Y-10462699D01*
X14286022Y-10491493D01*
X14294649Y-10521671D01*
X14302125Y-10553236D01*
X14308451Y-10586185D01*
X14313627Y-10620520D01*
X14317653Y-10656240D01*
X14320529Y-10693346D01*
X14322254Y-10731836D01*
X14322829Y-10771712D01*
X14322829Y-11762557D01*
X14322254Y-11802433D01*
X14320529Y-11840924D01*
X14317653Y-11878029D01*
X14313627Y-11913749D01*
X14308451Y-11948084D01*
X14302125Y-11981034D01*
X14294649Y-12012598D01*
X14286022Y-12042777D01*
X14276245Y-12071570D01*
X14265318Y-12098978D01*
X14253240Y-12125001D01*
X14240013Y-12149639D01*
X14225635Y-12172891D01*
X14210107Y-12194758D01*
X14193428Y-12215240D01*
X14175600Y-12234336D01*
X14156503Y-12252165D01*
X14136022Y-12268843D01*
X14114155Y-12284371D01*
X14090902Y-12298749D01*
X14066265Y-12311977D01*
X14040242Y-12324054D01*
X14012833Y-12334982D01*
X13984040Y-12344758D01*
X13953861Y-12353385D01*
X13922297Y-12360862D01*
X13889347Y-12367188D01*
X13855013Y-12372364D01*
X13819292Y-12376390D01*
X13782187Y-12379265D01*
X13743696Y-12380991D01*
X13703820Y-12381566D01*
X13115439Y-12381566D01*
X13075500Y-12380991D01*
X13036955Y-12379265D01*
X12999803Y-12376390D01*
X12964045Y-12372364D01*
X12929681Y-12367188D01*
X12896710Y-12360862D01*
X12865134Y-12353385D01*
X12834951Y-12344758D01*
X12806161Y-12334982D01*
X12778766Y-12324054D01*
X12752764Y-12311977D01*
X12728155Y-12298749D01*
X12704941Y-12284371D01*
X12683120Y-12268843D01*
X12662693Y-12252165D01*
X12643660Y-12234336D01*
X12625831Y-12215240D01*
X12609153Y-12194758D01*
X12593625Y-12172891D01*
X12579247Y-12149639D01*
X12566019Y-12125001D01*
X12553942Y-12098978D01*
X12543014Y-12071570D01*
X12533237Y-12042777D01*
X12524611Y-12012598D01*
X12517134Y-11981034D01*
X12510808Y-11948084D01*
X12505632Y-11913749D01*
X12501606Y-11878029D01*
X12498730Y-11840924D01*
X12497005Y-11802433D01*
X12496430Y-11762557D01*
X13053646Y-11762557D01*
X13053827Y-11773962D01*
X13055280Y-11795686D01*
X13060182Y-11825557D01*
X13068352Y-11852169D01*
X13079790Y-11875523D01*
X13094497Y-11895618D01*
X13112471Y-11912454D01*
X13133714Y-11926032D01*
X13158224Y-11936351D01*
X13186003Y-11943411D01*
X13217050Y-11947213D01*
X13239563Y-11947937D01*
X13579696Y-11947937D01*
X13591134Y-11947756D01*
X13612921Y-11946308D01*
X13642879Y-11941420D01*
X13669568Y-11933273D01*
X13692989Y-11921868D01*
X13713143Y-11907204D01*
X13730028Y-11889282D01*
X13743645Y-11868100D01*
X13753994Y-11843661D01*
X13761075Y-11815962D01*
X13764887Y-11785005D01*
X13765614Y-11762557D01*
X13765614Y-10771712D01*
X13765432Y-10760307D01*
X13763979Y-10738583D01*
X13759077Y-10708712D01*
X13750907Y-10682100D01*
X13739469Y-10658746D01*
X13724762Y-10638651D01*
X13706788Y-10621815D01*
X13685545Y-10608237D01*
X13661035Y-10597918D01*
X13633256Y-10590858D01*
X13602209Y-10587056D01*
X13579696Y-10586332D01*
X13239563Y-10586332D01*
X13228125Y-10586513D01*
X13206338Y-10587961D01*
X13176380Y-10592849D01*
X13149691Y-10600996D01*
X13126270Y-10612401D01*
X13106117Y-10627065D01*
X13089231Y-10644988D01*
X13075614Y-10666169D01*
X13065265Y-10690609D01*
X13058185Y-10718307D01*
X13054372Y-10749264D01*
X13053646Y-10771712D01*
X13053646Y-11762557D01*
X12496430Y-11762557D01*
X12496430Y-10771712D01*
X12497005Y-10731836D01*
X12498730Y-10693346D01*
X12501606Y-10656240D01*
X12505632Y-10620520D01*
X12510808Y-10586185D01*
X12517134Y-10553236D01*
X12524611Y-10521671D01*
X12533237Y-10491493D01*
X12543014Y-10462699D01*
X12553942Y-10435291D01*
X12566019Y-10409268D01*
X12579247Y-10384630D01*
X12593625Y-10361378D01*
X12609153Y-10339511D01*
X12625831Y-10319029D01*
X12643660Y-10299933D01*
X12662693Y-10282104D01*
X12683120Y-10265426D01*
X12704941Y-10249898D01*
X12728155Y-10235520D01*
X12752764Y-10222292D01*
X12778766Y-10210215D01*
X12806161Y-10199288D01*
X12834951Y-10189511D01*
X12865134Y-10180884D01*
X12896710Y-10173408D01*
X12929681Y-10167081D01*
X12964045Y-10161905D01*
X12999803Y-10157879D01*
X13036955Y-10155004D01*
X13075500Y-10153278D01*
X13115439Y-10152703D01*
X13703820Y-10152703D01*
X13743696Y-10153278D01*
G37*
G36*
X12197135Y-12350401D02*
G01*
X11640457Y-12350401D01*
X11640457Y-11700226D01*
X11206828Y-11700226D01*
X10851112Y-12350401D01*
X10247686Y-12350401D01*
X10634567Y-11669598D01*
X10623046Y-11666583D01*
X10600595Y-11659992D01*
X10578934Y-11652654D01*
X10558062Y-11644569D01*
X10537979Y-11635736D01*
X10518685Y-11626157D01*
X10491224Y-11610386D01*
X10465539Y-11592934D01*
X10441630Y-11573801D01*
X10419497Y-11552987D01*
X10399139Y-11530491D01*
X10380557Y-11506314D01*
X10363750Y-11480456D01*
X10358494Y-11471445D01*
X10343726Y-11443070D01*
X10334715Y-11423035D01*
X10326372Y-11402106D01*
X10318696Y-11380283D01*
X10311688Y-11357566D01*
X10305347Y-11333955D01*
X10299673Y-11309450D01*
X10294667Y-11284050D01*
X10290329Y-11257756D01*
X10286658Y-11230569D01*
X10283654Y-11202487D01*
X10281318Y-11173510D01*
X10279649Y-11143640D01*
X10278648Y-11112876D01*
X10278314Y-11081217D01*
X10835530Y-11081217D01*
X10835711Y-11092655D01*
X10837164Y-11114442D01*
X10842066Y-11144400D01*
X10850236Y-11171089D01*
X10861674Y-11194511D01*
X10876381Y-11214664D01*
X10894355Y-11231549D01*
X10915598Y-11245166D01*
X10940108Y-11255515D01*
X10967887Y-11262596D01*
X10998934Y-11266408D01*
X11021447Y-11267135D01*
X11640457Y-11267135D01*
X11640457Y-10616960D01*
X11021447Y-10616960D01*
X11010009Y-10617142D01*
X10988222Y-10618594D01*
X10958265Y-10623496D01*
X10931575Y-10631667D01*
X10908154Y-10643105D01*
X10888001Y-10657811D01*
X10871116Y-10675786D01*
X10857499Y-10697028D01*
X10847150Y-10721539D01*
X10840069Y-10749318D01*
X10836256Y-10780364D01*
X10835530Y-10802878D01*
X10835530Y-11081217D01*
X10278314Y-11081217D01*
X10278314Y-10802878D01*
X10278889Y-10762939D01*
X10280615Y-10724393D01*
X10283490Y-10687242D01*
X10287516Y-10651484D01*
X10292692Y-10617120D01*
X10299018Y-10584149D01*
X10306495Y-10552572D01*
X10315122Y-10522389D01*
X10324899Y-10493600D01*
X10335826Y-10466204D01*
X10347903Y-10440202D01*
X10361131Y-10415594D01*
X10375509Y-10392380D01*
X10391037Y-10370559D01*
X10407715Y-10350132D01*
X10425544Y-10331098D01*
X10444577Y-10313270D01*
X10465004Y-10296591D01*
X10486825Y-10281063D01*
X10510040Y-10266685D01*
X10534648Y-10253458D01*
X10560650Y-10241380D01*
X10588045Y-10230453D01*
X10616835Y-10220676D01*
X10647018Y-10212049D01*
X10678595Y-10204573D01*
X10711565Y-10198247D01*
X10745929Y-10193071D01*
X10781687Y-10189045D01*
X10818839Y-10186169D01*
X10857384Y-10184444D01*
X10897323Y-10183869D01*
X12197135Y-10183869D01*
X12197135Y-12350401D01*
G37*
G36*
X9981168Y-12350401D02*
G01*
X8650729Y-12350401D01*
X8613409Y-12349844D01*
X8577349Y-12348176D01*
X8542548Y-12345394D01*
X8509007Y-12341501D01*
X8476725Y-12336495D01*
X8445702Y-12330376D01*
X8415939Y-12323145D01*
X8387435Y-12314802D01*
X8360190Y-12305346D01*
X8334205Y-12294778D01*
X8309479Y-12283097D01*
X8286013Y-12270304D01*
X8263806Y-12256398D01*
X8242858Y-12241380D01*
X8223170Y-12225250D01*
X8204741Y-12208007D01*
X8187498Y-12189580D01*
X8171368Y-12169898D01*
X8156350Y-12148961D01*
X8142444Y-12126769D01*
X8129651Y-12103321D01*
X8117970Y-12078619D01*
X8107402Y-12052661D01*
X8097946Y-12025448D01*
X8089603Y-11996979D01*
X8082372Y-11967256D01*
X8076253Y-11936277D01*
X8071247Y-11904044D01*
X8067354Y-11870555D01*
X8064573Y-11835811D01*
X8062904Y-11799811D01*
X8062348Y-11762557D01*
X8062622Y-11738958D01*
X8062892Y-11731391D01*
X8619563Y-11731391D01*
X8619745Y-11742830D01*
X8621197Y-11764617D01*
X8626099Y-11794574D01*
X8634270Y-11821264D01*
X8645708Y-11844685D01*
X8660414Y-11864838D01*
X8678389Y-11881723D01*
X8699631Y-11895340D01*
X8724142Y-11905689D01*
X8751921Y-11912770D01*
X8782967Y-11916583D01*
X8805481Y-11917309D01*
X9424490Y-11917309D01*
X9424490Y-11483680D01*
X8805481Y-11483680D01*
X8794043Y-11483862D01*
X8772255Y-11485314D01*
X8742298Y-11490217D01*
X8715609Y-11498387D01*
X8692187Y-11509825D01*
X8672034Y-11524531D01*
X8655149Y-11542506D01*
X8641532Y-11563748D01*
X8631183Y-11588259D01*
X8624102Y-11616038D01*
X8620290Y-11647085D01*
X8619563Y-11669598D01*
X8619563Y-11731391D01*
X8062892Y-11731391D01*
X8063443Y-11715916D01*
X8064813Y-11693431D01*
X8066730Y-11671504D01*
X8070139Y-11643134D01*
X8074522Y-11615755D01*
X8079878Y-11589367D01*
X8086209Y-11563970D01*
X8093513Y-11539563D01*
X8105357Y-11507088D01*
X8118457Y-11476158D01*
X8132812Y-11446772D01*
X8148422Y-11418932D01*
X8165287Y-11392636D01*
X8183407Y-11367885D01*
X8202783Y-11344679D01*
X8223414Y-11323017D01*
X8245299Y-11302901D01*
X8268441Y-11284329D01*
X8292837Y-11267303D01*
X8318488Y-11251821D01*
X8345395Y-11237883D01*
X8373557Y-11225491D01*
X8402974Y-11214644D01*
X8433646Y-11205341D01*
X8419146Y-11199227D01*
X8397932Y-11189040D01*
X8377360Y-11177635D01*
X8357430Y-11165011D01*
X8338143Y-11151169D01*
X8319498Y-11136108D01*
X8301495Y-11119829D01*
X8284134Y-11102332D01*
X8267416Y-11083616D01*
X8251340Y-11063682D01*
X8235907Y-11042529D01*
X8226146Y-11027750D01*
X8212687Y-11004567D01*
X8200644Y-10980165D01*
X8190018Y-10954544D01*
X8180809Y-10927705D01*
X8173016Y-10899648D01*
X8166641Y-10870372D01*
X8165714Y-10864671D01*
X8712522Y-10864671D01*
X8712703Y-10876110D01*
X8714151Y-10897897D01*
X8719039Y-10927854D01*
X8727186Y-10954544D01*
X8738591Y-10977965D01*
X8753255Y-10998118D01*
X8771178Y-11015003D01*
X8792359Y-11028620D01*
X8816799Y-11038969D01*
X8844497Y-11046050D01*
X8875454Y-11049863D01*
X8897902Y-11050589D01*
X9424490Y-11050589D01*
X9424490Y-10616960D01*
X8897902Y-10616960D01*
X8886497Y-10617142D01*
X8864773Y-10618594D01*
X8834902Y-10623496D01*
X8808290Y-10631667D01*
X8784936Y-10643105D01*
X8764841Y-10657811D01*
X8748005Y-10675786D01*
X8734427Y-10697028D01*
X8724108Y-10721539D01*
X8717048Y-10749318D01*
X8713246Y-10780364D01*
X8712522Y-10802878D01*
X8712522Y-10864671D01*
X8165714Y-10864671D01*
X8161682Y-10839878D01*
X8158140Y-10808165D01*
X8156566Y-10786346D01*
X8155621Y-10763986D01*
X8155306Y-10741084D01*
X8155863Y-10706452D01*
X8157531Y-10672944D01*
X8160313Y-10640561D01*
X8164206Y-10609303D01*
X8169212Y-10579170D01*
X8175331Y-10550163D01*
X8182562Y-10522280D01*
X8190905Y-10495523D01*
X8200361Y-10469890D01*
X8210929Y-10445383D01*
X8222610Y-10422000D01*
X8235403Y-10399743D01*
X8249309Y-10378610D01*
X8264327Y-10358603D01*
X8280457Y-10339721D01*
X8297700Y-10321964D01*
X8316127Y-10305241D01*
X8335809Y-10289598D01*
X8356746Y-10275033D01*
X8378938Y-10261547D01*
X8402386Y-10249140D01*
X8427088Y-10237812D01*
X8453046Y-10227563D01*
X8480259Y-10218392D01*
X8508728Y-10210301D01*
X8538451Y-10203288D01*
X8569430Y-10197355D01*
X8601663Y-10192500D01*
X8635152Y-10188724D01*
X8669896Y-10186026D01*
X8705896Y-10184408D01*
X8743150Y-10183869D01*
X9981168Y-10183869D01*
X9981168Y-12350401D01*
G37*
G36*
X6805523Y-12350401D02*
G01*
X7362738Y-12350401D01*
X7362738Y-10616960D01*
X8012376Y-10616960D01*
X8012376Y-10183869D01*
X6155348Y-10183869D01*
X6155348Y-10616960D01*
X6805523Y-10616960D01*
X6805523Y-12350401D01*
G37*
G36*
X5460281Y-10153260D02*
G01*
X5496341Y-10154928D01*
X5531142Y-10157709D01*
X5564684Y-10161603D01*
X5596966Y-10166609D01*
X5627988Y-10172727D01*
X5657752Y-10179958D01*
X5686256Y-10188302D01*
X5713500Y-10197758D01*
X5739485Y-10208326D01*
X5764211Y-10220007D01*
X5787677Y-10232800D01*
X5809884Y-10246705D01*
X5830832Y-10261723D01*
X5850520Y-10277854D01*
X5868949Y-10295097D01*
X5886192Y-10313526D01*
X5902323Y-10333214D01*
X5917341Y-10354162D01*
X5931246Y-10376369D01*
X5944040Y-10399835D01*
X5955720Y-10424561D01*
X5966289Y-10450546D01*
X5975744Y-10477791D01*
X5984088Y-10506294D01*
X5991319Y-10536058D01*
X5997437Y-10567080D01*
X6002443Y-10599362D01*
X6006337Y-10632904D01*
X6009118Y-10667705D01*
X6010787Y-10703765D01*
X6011343Y-10741084D01*
X6011343Y-11824350D01*
X6010787Y-11858985D01*
X6009118Y-11892499D01*
X6006337Y-11924893D01*
X6002443Y-11956165D01*
X5997437Y-11986317D01*
X5991319Y-12015347D01*
X5984088Y-12043257D01*
X5975744Y-12070046D01*
X5966289Y-12095715D01*
X5955720Y-12120262D01*
X5944040Y-12143688D01*
X5931246Y-12165994D01*
X5917341Y-12187179D01*
X5902323Y-12207243D01*
X5886192Y-12226186D01*
X5868949Y-12244008D01*
X5850520Y-12260666D01*
X5830832Y-12276248D01*
X5809884Y-12290756D01*
X5787677Y-12304190D01*
X5764211Y-12316548D01*
X5739485Y-12327832D01*
X5713500Y-12338042D01*
X5686256Y-12347176D01*
X5657752Y-12355237D01*
X5627988Y-12362222D01*
X5596966Y-12368133D01*
X5564684Y-12372969D01*
X5531142Y-12376730D01*
X5496341Y-12379417D01*
X5460281Y-12381029D01*
X5422962Y-12381566D01*
X4835118Y-12381566D01*
X4797799Y-12381029D01*
X4761738Y-12379417D01*
X4726938Y-12376730D01*
X4693396Y-12372969D01*
X4661114Y-12368133D01*
X4630091Y-12362222D01*
X4600328Y-12355237D01*
X4571824Y-12347176D01*
X4544580Y-12338042D01*
X4518595Y-12327832D01*
X4493869Y-12316548D01*
X4470402Y-12304190D01*
X4448195Y-12290756D01*
X4427248Y-12276248D01*
X4407560Y-12260666D01*
X4389131Y-12244008D01*
X4371888Y-12226186D01*
X4355757Y-12207243D01*
X4340739Y-12187179D01*
X4326833Y-12165994D01*
X4314040Y-12143688D01*
X4302360Y-12120262D01*
X4291791Y-12095715D01*
X4282335Y-12070046D01*
X4273992Y-12043257D01*
X4266761Y-12015347D01*
X4260643Y-11986317D01*
X4255637Y-11956165D01*
X4251743Y-11924893D01*
X4248962Y-11892499D01*
X4247293Y-11858985D01*
X4246737Y-11824350D01*
X4246737Y-11762557D01*
X4803953Y-11762557D01*
X4804134Y-11773962D01*
X4805587Y-11795686D01*
X4810489Y-11825557D01*
X4818659Y-11852169D01*
X4830097Y-11875523D01*
X4844804Y-11895618D01*
X4862778Y-11912454D01*
X4884021Y-11926032D01*
X4908531Y-11936351D01*
X4936310Y-11943411D01*
X4967357Y-11947213D01*
X4989870Y-11947937D01*
X5268209Y-11947937D01*
X5279648Y-11947756D01*
X5301435Y-11946308D01*
X5331392Y-11941420D01*
X5358082Y-11933273D01*
X5381503Y-11921868D01*
X5401656Y-11907204D01*
X5418541Y-11889282D01*
X5432158Y-11868100D01*
X5442507Y-11843661D01*
X5449588Y-11815962D01*
X5453401Y-11785005D01*
X5454127Y-11762557D01*
X5454127Y-11421887D01*
X5438754Y-11420183D01*
X5413460Y-11417280D01*
X5390332Y-11414543D01*
X5365341Y-11411518D01*
X5344007Y-11408890D01*
X5321481Y-11406078D01*
X5297763Y-11403080D01*
X5291632Y-11402320D01*
X5266730Y-11399520D01*
X5241223Y-11397106D01*
X5215112Y-11395078D01*
X5188396Y-11393437D01*
X5161076Y-11392182D01*
X5133152Y-11391313D01*
X5104623Y-11390830D01*
X5082829Y-11390722D01*
X4912494Y-11390722D01*
X4898279Y-11391482D01*
X4874675Y-11396687D01*
X4853621Y-11406822D01*
X4835118Y-11421887D01*
X4824527Y-11434103D01*
X4812748Y-11454410D01*
X4805901Y-11477098D01*
X4803953Y-11499263D01*
X4803953Y-11762557D01*
X4246737Y-11762557D01*
X4246737Y-11421887D01*
X4247235Y-11395885D01*
X4248727Y-11370538D01*
X4251214Y-11345846D01*
X4254696Y-11321808D01*
X4259173Y-11298426D01*
X4264645Y-11275698D01*
X4271112Y-11253626D01*
X4278574Y-11232208D01*
X4287031Y-11211445D01*
X4296482Y-11191337D01*
X4306929Y-11171884D01*
X4318370Y-11153085D01*
X4330807Y-11134942D01*
X4344238Y-11117453D01*
X4358664Y-11100620D01*
X4374085Y-11084441D01*
X4390262Y-11069085D01*
X4407089Y-11054720D01*
X4424567Y-11041345D01*
X4442696Y-11028961D01*
X4461476Y-11017568D01*
X4480906Y-11007166D01*
X4500986Y-10997754D01*
X4521718Y-10989333D01*
X4543100Y-10981902D01*
X4565133Y-10975463D01*
X4587816Y-10970014D01*
X4611150Y-10965556D01*
X4635135Y-10962088D01*
X4659771Y-10959612D01*
X4685057Y-10958125D01*
X4710994Y-10957630D01*
X4928077Y-10957630D01*
X4956579Y-10957871D01*
X4985664Y-10958596D01*
X5015333Y-10959803D01*
X5045585Y-10961492D01*
X5076421Y-10963665D01*
X5107840Y-10966320D01*
X5139843Y-10969458D01*
X5172430Y-10973078D01*
X5205600Y-10977182D01*
X5239353Y-10981768D01*
X5273690Y-10986837D01*
X5308610Y-10992389D01*
X5344114Y-10998423D01*
X5380202Y-11004941D01*
X5416873Y-11011941D01*
X5454127Y-11019424D01*
X5454127Y-10741084D01*
X5453942Y-10731563D01*
X5451172Y-10704814D01*
X5445076Y-10680785D01*
X5435656Y-10659477D01*
X5422911Y-10640888D01*
X5406842Y-10625020D01*
X5387447Y-10611872D01*
X5364728Y-10601445D01*
X5338684Y-10593737D01*
X5309316Y-10588750D01*
X5287889Y-10586937D01*
X5264985Y-10586332D01*
X5258418Y-10586338D01*
X5231769Y-10586476D01*
X5204516Y-10586800D01*
X5176659Y-10587308D01*
X5148197Y-10588000D01*
X5126454Y-10588641D01*
X5104371Y-10589386D01*
X5081948Y-10590234D01*
X5059184Y-10591186D01*
X5036081Y-10592243D01*
X5026806Y-10593042D01*
X5003562Y-10594987D01*
X4980240Y-10596852D01*
X4956840Y-10598639D01*
X4933360Y-10600347D01*
X4909802Y-10601976D01*
X4886165Y-10603527D01*
X4866544Y-10604660D01*
X4840105Y-10606242D01*
X4817423Y-10607640D01*
X4793382Y-10609156D01*
X4767980Y-10610789D01*
X4741218Y-10612539D01*
X4713096Y-10614407D01*
X4691112Y-10615885D01*
X4676002Y-10616832D01*
X4652589Y-10618276D01*
X4628278Y-10619748D01*
X4603070Y-10621248D01*
X4576965Y-10622776D01*
X4549962Y-10624333D01*
X4522062Y-10625919D01*
X4493265Y-10627532D01*
X4463570Y-10629174D01*
X4432978Y-10630844D01*
X4401489Y-10632543D01*
X4401489Y-10215034D01*
X4438665Y-10211199D01*
X4475501Y-10207486D01*
X4511998Y-10203895D01*
X4548156Y-10200425D01*
X4583976Y-10197078D01*
X4619456Y-10193851D01*
X4654597Y-10190747D01*
X4689400Y-10187764D01*
X4723863Y-10184904D01*
X4757988Y-10182164D01*
X4791773Y-10179547D01*
X4825219Y-10177051D01*
X4858327Y-10174677D01*
X4891095Y-10172425D01*
X4923525Y-10170295D01*
X4955615Y-10168286D01*
X4987367Y-10166399D01*
X5018779Y-10164634D01*
X5049853Y-10162990D01*
X5080587Y-10161469D01*
X5110983Y-10160069D01*
X5141040Y-10158790D01*
X5170757Y-10157634D01*
X5200136Y-10156599D01*
X5229176Y-10155686D01*
X5257876Y-10154895D01*
X5286238Y-10154225D01*
X5314261Y-10153677D01*
X5341944Y-10153251D01*
X5369289Y-10152947D01*
X5396295Y-10152764D01*
X5422962Y-10152703D01*
X5460281Y-10153260D01*
G37*
D11*
G36*
X56019110Y-12395976D02*
G01*
X56056627Y-12404633D01*
X56095406Y-12423572D01*
X56125167Y-12451529D01*
X56145909Y-12488504D01*
X56156009Y-12524578D01*
X56160338Y-12566423D01*
X56160519Y-12577786D01*
X56160519Y-13646984D01*
X56157633Y-13690055D01*
X56148975Y-13727383D01*
X56130036Y-13765967D01*
X56102079Y-13795578D01*
X56065104Y-13816216D01*
X56029031Y-13826266D01*
X55987185Y-13830573D01*
X55975822Y-13830752D01*
X55334489Y-13830752D01*
X55291419Y-13827881D01*
X55254091Y-13819267D01*
X55215506Y-13800423D01*
X55185895Y-13772607D01*
X55165257Y-13735817D01*
X55155207Y-13699925D01*
X55150900Y-13658290D01*
X55150721Y-13646984D01*
X55150721Y-12577786D01*
X55153592Y-12534498D01*
X55162206Y-12496982D01*
X55181050Y-12458203D01*
X55208866Y-12428442D01*
X55245656Y-12407700D01*
X55281548Y-12397599D01*
X55323183Y-12393270D01*
X55334489Y-12393090D01*
X55975822Y-12393090D01*
X56019110Y-12395976D01*
G37*
G36*
X63980060Y-11513927D02*
G01*
X64027019Y-11521586D01*
X64068856Y-11534352D01*
X64105569Y-11552225D01*
X64137160Y-11575204D01*
X64163627Y-11603290D01*
X64184972Y-11636482D01*
X64201195Y-11674781D01*
X64212294Y-11718186D01*
X64218271Y-11766698D01*
X64219409Y-11801876D01*
X64219409Y-13513334D01*
X64216848Y-13565250D01*
X64209163Y-13612060D01*
X64196356Y-13653763D01*
X64178427Y-13690359D01*
X64155374Y-13721849D01*
X64127199Y-13748233D01*
X64093900Y-13769510D01*
X64055479Y-13785680D01*
X64011935Y-13796744D01*
X63963269Y-13802702D01*
X63927978Y-13803837D01*
X63019346Y-13803837D01*
X62967264Y-13801283D01*
X62920305Y-13793624D01*
X62878469Y-13780857D01*
X62841756Y-13762985D01*
X62810165Y-13740006D01*
X62783697Y-13711920D01*
X62762352Y-13678728D01*
X62746130Y-13640429D01*
X62735031Y-13597024D01*
X62729054Y-13548512D01*
X62727916Y-13513334D01*
X62727916Y-11801876D01*
X62730477Y-11749960D01*
X62738161Y-11703150D01*
X62750968Y-11661447D01*
X62768898Y-11624851D01*
X62791951Y-11593361D01*
X62820126Y-11566977D01*
X62853424Y-11545700D01*
X62891845Y-11529530D01*
X62935389Y-11518466D01*
X62984056Y-11512508D01*
X63019346Y-11511373D01*
X63927978Y-11511373D01*
X63980060Y-11513927D01*
G37*
G36*
X76943878Y-15155089D02*
G01*
X48686440Y-15155089D01*
X48686440Y-14558401D01*
X49229297Y-14558401D01*
X50224245Y-14558401D01*
X50224245Y-12603774D01*
X50228686Y-12563694D01*
X50242010Y-12528146D01*
X50264216Y-12497130D01*
X50269723Y-12491471D01*
X50299833Y-12467978D01*
X50334474Y-12453186D01*
X50373647Y-12447095D01*
X50382026Y-12446921D01*
X50408941Y-12446921D01*
X50454296Y-12447794D01*
X50501609Y-12450412D01*
X50550879Y-12454777D01*
X50602107Y-12460886D01*
X50655293Y-12468742D01*
X50710436Y-12478343D01*
X50748286Y-12485714D01*
X50787006Y-12493860D01*
X50826597Y-12502782D01*
X50867057Y-12512481D01*
X50908388Y-12522955D01*
X50950588Y-12534205D01*
X50993659Y-12546230D01*
X50993659Y-14558401D01*
X51988606Y-14558401D01*
X51988606Y-12603774D01*
X51992957Y-12563694D01*
X52006009Y-12528146D01*
X52027762Y-12497130D01*
X52033156Y-12491471D01*
X52063357Y-12467978D01*
X52098270Y-12453186D01*
X52137896Y-12447095D01*
X52146387Y-12446921D01*
X52173303Y-12446921D01*
X52218658Y-12447794D01*
X52265970Y-12450412D01*
X52315240Y-12454777D01*
X52366468Y-12460886D01*
X52419654Y-12468742D01*
X52474798Y-12478343D01*
X52512648Y-12485714D01*
X52551368Y-12493860D01*
X52590958Y-12502782D01*
X52631419Y-12512481D01*
X52672749Y-12522955D01*
X52714950Y-12534205D01*
X52758020Y-12546230D01*
X52758020Y-14558401D01*
X53752968Y-14558401D01*
X53752968Y-13726802D01*
X54155773Y-13726802D01*
X54156694Y-13777740D01*
X54159457Y-13827301D01*
X54164061Y-13875483D01*
X54170507Y-13922288D01*
X54178795Y-13967716D01*
X54188925Y-14011765D01*
X54200896Y-14054437D01*
X54214709Y-14095731D01*
X54230364Y-14135648D01*
X54247860Y-14174187D01*
X54267199Y-14211348D01*
X54288379Y-14247131D01*
X54311401Y-14281537D01*
X54336264Y-14314565D01*
X54362969Y-14346216D01*
X54391516Y-14376488D01*
X54421677Y-14405035D01*
X54453222Y-14431741D01*
X54486152Y-14456604D01*
X54520468Y-14479626D01*
X54556168Y-14500806D01*
X54593253Y-14520144D01*
X54631723Y-14537641D01*
X54671578Y-14553296D01*
X54712817Y-14567109D01*
X54755442Y-14579080D01*
X54799452Y-14589210D01*
X54844846Y-14597498D01*
X54891626Y-14603944D01*
X54939791Y-14608548D01*
X54989340Y-14611311D01*
X55040274Y-14612232D01*
X56270037Y-14612232D01*
X56320975Y-14611311D01*
X56370535Y-14608548D01*
X56418718Y-14603944D01*
X56465523Y-14597498D01*
X56510950Y-14589210D01*
X56555000Y-14579080D01*
X56597672Y-14567109D01*
X56638966Y-14553296D01*
X56678882Y-14537641D01*
X56717421Y-14520144D01*
X56754582Y-14500806D01*
X56790366Y-14479626D01*
X56824772Y-14456604D01*
X56857800Y-14431741D01*
X56889450Y-14405035D01*
X56919723Y-14376488D01*
X56948270Y-14346216D01*
X56974975Y-14314565D01*
X56999839Y-14281537D01*
X57022861Y-14247131D01*
X57044041Y-14211348D01*
X57063379Y-14174187D01*
X57080876Y-14135648D01*
X57096530Y-14095731D01*
X57110344Y-14054437D01*
X57122315Y-14011765D01*
X57132444Y-13967716D01*
X57140732Y-13922288D01*
X57147178Y-13875483D01*
X57151783Y-13827301D01*
X57154545Y-13777740D01*
X57155466Y-13726802D01*
X57155466Y-12497040D01*
X57154545Y-12446105D01*
X57151783Y-12396556D01*
X57147178Y-12348391D01*
X57140732Y-12301612D01*
X57132444Y-12256217D01*
X57122315Y-12212208D01*
X57110344Y-12169583D01*
X57096530Y-12128343D01*
X57080876Y-12088488D01*
X57063379Y-12050018D01*
X57044041Y-12012933D01*
X57022861Y-11977233D01*
X56999839Y-11942918D01*
X56974975Y-11909988D01*
X56948270Y-11878442D01*
X56919723Y-11848282D01*
X56889450Y-11819735D01*
X56857800Y-11793030D01*
X56824772Y-11768166D01*
X56790366Y-11745144D01*
X56754582Y-11723964D01*
X56717421Y-11704626D01*
X56678882Y-11687129D01*
X56638966Y-11671474D01*
X56620933Y-11665442D01*
X57455250Y-11665442D01*
X57455250Y-12446921D01*
X58901265Y-12446921D01*
X58944553Y-12449792D01*
X58982070Y-12458407D01*
X59020849Y-12477250D01*
X59050610Y-12505067D01*
X59071352Y-12541856D01*
X59081452Y-12577748D01*
X59085781Y-12619383D01*
X59085962Y-12630689D01*
X59085962Y-13672971D01*
X59081611Y-13713540D01*
X59068559Y-13749396D01*
X59046807Y-13780539D01*
X59041412Y-13786202D01*
X59010813Y-13809695D01*
X58975863Y-13824487D01*
X58936563Y-13830578D01*
X58928181Y-13830752D01*
X58866196Y-13830430D01*
X58800201Y-13829462D01*
X58730197Y-13827848D01*
X58656183Y-13825590D01*
X58617672Y-13824218D01*
X58578159Y-13822686D01*
X58537643Y-13820992D01*
X58496125Y-13819136D01*
X58453605Y-13817119D01*
X58410082Y-13814941D01*
X58365556Y-13812602D01*
X58320028Y-13810101D01*
X58273498Y-13807439D01*
X58225965Y-13804616D01*
X58177430Y-13801631D01*
X58127892Y-13798485D01*
X58077352Y-13795178D01*
X58025810Y-13791709D01*
X57973265Y-13788079D01*
X57919717Y-13784288D01*
X57865167Y-13780335D01*
X57809615Y-13776221D01*
X57753060Y-13771946D01*
X57695503Y-13767509D01*
X57636944Y-13762911D01*
X57577381Y-13758152D01*
X57516817Y-13753231D01*
X57455250Y-13748149D01*
X57455250Y-14501785D01*
X57519210Y-14508580D01*
X57582660Y-14515159D01*
X57645601Y-14521523D01*
X57708033Y-14527671D01*
X57769955Y-14533603D01*
X57831368Y-14539320D01*
X57892272Y-14544820D01*
X57952666Y-14550105D01*
X58012550Y-14555175D01*
X58071926Y-14560028D01*
X58130792Y-14564666D01*
X58189149Y-14569088D01*
X58246996Y-14573295D01*
X58304334Y-14577286D01*
X58361162Y-14581061D01*
X58417481Y-14584620D01*
X58473291Y-14587964D01*
X58528591Y-14591091D01*
X58583382Y-14594004D01*
X58637664Y-14596700D01*
X58691436Y-14599181D01*
X58744699Y-14601446D01*
X58797452Y-14603495D01*
X58849696Y-14605329D01*
X58901431Y-14606947D01*
X58952656Y-14608349D01*
X59003372Y-14609535D01*
X59053579Y-14610506D01*
X59103276Y-14611261D01*
X59152464Y-14611800D01*
X59201142Y-14612124D01*
X59249311Y-14612232D01*
X59295609Y-14611340D01*
X59340760Y-14608664D01*
X59384766Y-14604205D01*
X59427627Y-14597962D01*
X59469342Y-14589935D01*
X59509911Y-14580124D01*
X59549334Y-14568530D01*
X59587612Y-14555152D01*
X59624744Y-14539990D01*
X59660731Y-14523045D01*
X59695572Y-14504316D01*
X59729267Y-14483803D01*
X59761816Y-14461506D01*
X59793220Y-14437425D01*
X59823479Y-14411561D01*
X59852591Y-14383913D01*
X59880239Y-14354801D01*
X59906103Y-14324543D01*
X59930184Y-14293139D01*
X59952480Y-14260589D01*
X59972993Y-14226894D01*
X59991723Y-14192053D01*
X60008668Y-14156067D01*
X60023830Y-14118934D01*
X60037208Y-14080657D01*
X60048802Y-14041233D01*
X60058613Y-14000664D01*
X60066639Y-13958949D01*
X60072883Y-13916089D01*
X60077342Y-13872083D01*
X60080017Y-13826931D01*
X60080909Y-13780634D01*
X60080909Y-13697103D01*
X60389046Y-13697103D01*
X60389046Y-14558401D01*
X61410909Y-14558401D01*
X61410909Y-13697103D01*
X60389046Y-13697103D01*
X60080909Y-13697103D01*
X60080909Y-13513334D01*
X61706981Y-13513334D01*
X61708007Y-13583708D01*
X61711085Y-13651668D01*
X61716215Y-13717213D01*
X61723397Y-13780344D01*
X61732631Y-13841059D01*
X61743917Y-13899361D01*
X61757255Y-13955248D01*
X61772645Y-14008720D01*
X61790087Y-14059777D01*
X61809582Y-14108420D01*
X61831128Y-14154649D01*
X61854726Y-14198463D01*
X61880376Y-14239862D01*
X61908079Y-14278847D01*
X61937833Y-14315417D01*
X61969639Y-14349573D01*
X62003686Y-14381379D01*
X62040162Y-14411134D01*
X62079067Y-14438836D01*
X62120401Y-14464486D01*
X62164164Y-14488084D01*
X62210357Y-14509631D01*
X62258978Y-14529125D01*
X62310028Y-14546567D01*
X62363508Y-14561957D01*
X62419416Y-14575295D01*
X62477754Y-14586581D01*
X62538521Y-14595815D01*
X62601716Y-14602998D01*
X62667341Y-14608128D01*
X62735395Y-14611206D01*
X62805878Y-14612232D01*
X64142375Y-14612232D01*
X64212749Y-14611206D01*
X64280709Y-14608128D01*
X64346254Y-14602998D01*
X64409384Y-14595815D01*
X64470100Y-14586581D01*
X64528401Y-14575295D01*
X64584288Y-14561957D01*
X64637760Y-14546567D01*
X64688818Y-14529125D01*
X64737461Y-14509631D01*
X64783690Y-14488084D01*
X64827503Y-14464486D01*
X64868903Y-14438836D01*
X64907888Y-14411134D01*
X64944458Y-14381379D01*
X64978613Y-14349573D01*
X65010420Y-14315417D01*
X65040174Y-14278847D01*
X65067876Y-14239862D01*
X65093527Y-14198463D01*
X65117125Y-14154649D01*
X65138671Y-14108420D01*
X65158165Y-14059777D01*
X65175608Y-14008720D01*
X65190998Y-13955248D01*
X65204336Y-13899361D01*
X65215622Y-13841059D01*
X65224856Y-13780344D01*
X65232038Y-13717213D01*
X65237168Y-13651668D01*
X65240246Y-13583708D01*
X65241272Y-13513334D01*
X65241272Y-11801876D01*
X65240246Y-11731505D01*
X65237168Y-11663556D01*
X65232038Y-11598030D01*
X65224856Y-11534924D01*
X65215622Y-11474241D01*
X65204336Y-11415980D01*
X65190998Y-11360140D01*
X65175608Y-11306722D01*
X65158165Y-11255726D01*
X65138671Y-11207152D01*
X65117125Y-11161000D01*
X65093527Y-11117269D01*
X65067876Y-11075960D01*
X65040174Y-11037074D01*
X65010420Y-11000608D01*
X64978613Y-10966565D01*
X64944458Y-10934646D01*
X64907888Y-10904787D01*
X64868903Y-10876987D01*
X64827503Y-10851246D01*
X64783690Y-10827564D01*
X64737461Y-10805942D01*
X64688818Y-10786379D01*
X64637760Y-10768875D01*
X64595986Y-10756809D01*
X65541984Y-10756809D01*
X65541984Y-11564276D01*
X66022752Y-11564276D01*
X66022752Y-13750934D01*
X65541984Y-13750934D01*
X65541984Y-14558401D01*
X67525382Y-14558401D01*
X67821454Y-14558401D01*
X68816401Y-14558401D01*
X68816401Y-12603774D01*
X68820752Y-12563694D01*
X68833804Y-12528146D01*
X68855557Y-12497130D01*
X68860951Y-12491471D01*
X68891061Y-12467978D01*
X68925702Y-12453186D01*
X68964876Y-12447095D01*
X68973254Y-12446921D01*
X69160735Y-12446921D01*
X69213423Y-12447794D01*
X69267074Y-12450412D01*
X69321687Y-12454777D01*
X69358631Y-12458656D01*
X69396002Y-12463311D01*
X69433801Y-12468742D01*
X69472029Y-12474949D01*
X69510683Y-12481931D01*
X69549766Y-12489690D01*
X69589277Y-12498224D01*
X69629215Y-12507535D01*
X69669581Y-12517621D01*
X69710375Y-12528483D01*
X69751597Y-12540120D01*
X69772368Y-12546230D01*
X69772368Y-14558401D01*
X70767315Y-14558401D01*
X70767315Y-11772176D01*
X71232305Y-11772176D01*
X71232305Y-14558401D01*
X72227253Y-14558401D01*
X72227253Y-12553655D01*
X72628202Y-12553655D01*
X72628202Y-11772176D01*
X71232305Y-11772176D01*
X70767315Y-11772176D01*
X70767315Y-11665442D01*
X69884671Y-11665442D01*
X69835480Y-11913250D01*
X69794144Y-11887014D01*
X69751927Y-11861903D01*
X69708829Y-11837918D01*
X69664851Y-11815058D01*
X69619991Y-11793324D01*
X69574250Y-11772716D01*
X69527628Y-11753234D01*
X69480125Y-11734877D01*
X69431741Y-11717646D01*
X69382476Y-11701541D01*
X69349144Y-11691429D01*
X69299403Y-11677331D01*
X69251114Y-11664619D01*
X69204278Y-11653294D01*
X69158893Y-11643355D01*
X69114960Y-11634804D01*
X69072480Y-11627639D01*
X69031451Y-11621861D01*
X68991875Y-11617469D01*
X68953750Y-11614465D01*
X68905176Y-11612616D01*
X68893436Y-11612539D01*
X68653052Y-11612539D01*
X68606646Y-11613431D01*
X68561400Y-11616106D01*
X68517314Y-11620565D01*
X68474388Y-11626809D01*
X68432623Y-11634835D01*
X68392017Y-11644646D01*
X68352572Y-11656240D01*
X68314287Y-11669618D01*
X68277162Y-11684780D01*
X68241197Y-11701725D01*
X68206393Y-11720455D01*
X68172748Y-11740968D01*
X68140264Y-11763264D01*
X68108940Y-11787345D01*
X68078776Y-11813209D01*
X68049772Y-11840857D01*
X68022124Y-11869861D01*
X67996260Y-11900025D01*
X67972179Y-11931349D01*
X67949883Y-11963833D01*
X67929370Y-11997478D01*
X67910640Y-12032282D01*
X67893695Y-12068247D01*
X67878533Y-12105372D01*
X67865155Y-12143657D01*
X67853561Y-12183102D01*
X67843750Y-12223708D01*
X67835724Y-12265473D01*
X67829480Y-12308399D01*
X67825021Y-12352485D01*
X67822346Y-12397731D01*
X67821454Y-12444137D01*
X67821454Y-14558401D01*
X67525382Y-14558401D01*
X67525382Y-13750934D01*
X67044615Y-13750934D01*
X67044615Y-11564276D01*
X67525382Y-11564276D01*
X67525382Y-10756809D01*
X65541984Y-10756809D01*
X64595986Y-10756809D01*
X64584288Y-10753430D01*
X64528401Y-10740045D01*
X64470100Y-10728719D01*
X64409384Y-10719452D01*
X64346254Y-10712245D01*
X64280709Y-10707097D01*
X64212749Y-10704008D01*
X64142375Y-10702978D01*
X71232305Y-10702978D01*
X71232305Y-11511373D01*
X72227253Y-11511373D01*
X72227253Y-10756809D01*
X72974392Y-10756809D01*
X72974392Y-13513334D01*
X72975418Y-13583708D01*
X72978496Y-13651668D01*
X72983626Y-13717213D01*
X72990808Y-13780344D01*
X73000042Y-13841059D01*
X73011328Y-13899361D01*
X73024666Y-13955248D01*
X73040056Y-14008720D01*
X73057498Y-14059777D01*
X73076993Y-14108420D01*
X73098539Y-14154649D01*
X73122137Y-14198463D01*
X73147787Y-14239862D01*
X73175490Y-14278847D01*
X73205244Y-14315417D01*
X73237050Y-14349573D01*
X73271097Y-14381379D01*
X73307573Y-14411134D01*
X73346478Y-14438836D01*
X73387812Y-14464486D01*
X73431575Y-14488084D01*
X73477768Y-14509631D01*
X73526389Y-14529125D01*
X73577439Y-14546567D01*
X73630919Y-14561957D01*
X73686827Y-14575295D01*
X73745165Y-14586581D01*
X73805932Y-14595815D01*
X73869127Y-14602998D01*
X73934752Y-14608128D01*
X74002806Y-14611206D01*
X74073289Y-14612232D01*
X75302124Y-14612232D01*
X75372607Y-14611206D01*
X75440660Y-14608128D01*
X75506285Y-14602998D01*
X75569481Y-14595815D01*
X75630248Y-14586581D01*
X75688585Y-14575295D01*
X75744494Y-14561957D01*
X75797973Y-14546567D01*
X75849024Y-14529125D01*
X75897645Y-14509631D01*
X75943837Y-14488084D01*
X75987600Y-14464486D01*
X76028934Y-14438836D01*
X76067839Y-14411134D01*
X76104315Y-14381379D01*
X76138362Y-14349573D01*
X76170169Y-14315417D01*
X76199923Y-14278847D01*
X76227625Y-14239862D01*
X76253275Y-14198463D01*
X76276874Y-14154649D01*
X76298420Y-14108420D01*
X76317914Y-14059777D01*
X76335356Y-14008720D01*
X76350746Y-13955248D01*
X76364085Y-13899361D01*
X76375371Y-13841059D01*
X76384605Y-13780344D01*
X76391787Y-13717213D01*
X76396917Y-13651668D01*
X76399995Y-13583708D01*
X76401021Y-13513334D01*
X76401021Y-10756809D01*
X75380086Y-10756809D01*
X75380086Y-13513334D01*
X75377525Y-13565250D01*
X75369840Y-13612060D01*
X75357033Y-13653763D01*
X75339103Y-13690359D01*
X75316051Y-13721849D01*
X75287875Y-13748233D01*
X75254577Y-13769510D01*
X75216156Y-13785680D01*
X75172612Y-13796744D01*
X75123946Y-13802702D01*
X75088655Y-13803837D01*
X74286757Y-13803837D01*
X74234675Y-13801283D01*
X74187716Y-13793624D01*
X74145880Y-13780857D01*
X74109167Y-13762985D01*
X74077576Y-13740006D01*
X74051108Y-13711920D01*
X74029763Y-13678728D01*
X74013541Y-13640429D01*
X74002442Y-13597024D01*
X73996465Y-13548512D01*
X73995327Y-13513334D01*
X73995327Y-10756809D01*
X72974392Y-10756809D01*
X72227253Y-10756809D01*
X72227253Y-10702978D01*
X71232305Y-10702978D01*
X64142375Y-10702978D01*
X62805878Y-10702978D01*
X62735395Y-10704008D01*
X62667341Y-10707097D01*
X62601716Y-10712245D01*
X62538521Y-10719452D01*
X62477754Y-10728719D01*
X62419416Y-10740045D01*
X62363508Y-10753430D01*
X62310028Y-10768875D01*
X62258978Y-10786379D01*
X62210357Y-10805942D01*
X62164164Y-10827564D01*
X62120401Y-10851246D01*
X62079067Y-10876987D01*
X62040162Y-10904787D01*
X62003686Y-10934646D01*
X61969639Y-10966565D01*
X61937833Y-11000608D01*
X61908079Y-11037074D01*
X61880376Y-11075960D01*
X61854726Y-11117269D01*
X61831128Y-11161000D01*
X61809582Y-11207152D01*
X61790087Y-11255726D01*
X61772645Y-11306722D01*
X61757255Y-11360140D01*
X61743917Y-11415980D01*
X61732631Y-11474241D01*
X61723397Y-11534924D01*
X61716215Y-11598030D01*
X61711085Y-11663556D01*
X61708007Y-11731505D01*
X61706981Y-11801876D01*
X61706981Y-13513334D01*
X60080909Y-13513334D01*
X60080909Y-12550871D01*
X60079988Y-12499936D01*
X60077226Y-12450387D01*
X60072622Y-12402223D01*
X60066175Y-12355443D01*
X60057888Y-12310048D01*
X60047758Y-12266039D01*
X60035787Y-12223414D01*
X60021974Y-12182174D01*
X60006319Y-12142319D01*
X59988822Y-12103849D01*
X59969484Y-12066764D01*
X59948304Y-12031064D01*
X59925282Y-11996749D01*
X59900418Y-11963819D01*
X59873713Y-11932273D01*
X59845166Y-11902113D01*
X59814893Y-11873454D01*
X59783243Y-11846643D01*
X59750215Y-11821682D01*
X59715809Y-11798569D01*
X59680026Y-11777306D01*
X59642864Y-11757891D01*
X59604326Y-11740326D01*
X59564409Y-11724610D01*
X59523115Y-11710742D01*
X59480443Y-11698724D01*
X59436393Y-11688554D01*
X59390966Y-11680234D01*
X59344161Y-11673762D01*
X59295978Y-11669140D01*
X59246418Y-11666366D01*
X59195480Y-11665442D01*
X57455250Y-11665442D01*
X56620933Y-11665442D01*
X56597672Y-11657661D01*
X56555000Y-11645690D01*
X56510950Y-11635560D01*
X56465523Y-11627273D01*
X56418718Y-11620827D01*
X56370535Y-11616222D01*
X56320975Y-11613460D01*
X56270037Y-11612539D01*
X55040274Y-11612539D01*
X54989340Y-11613460D01*
X54939791Y-11616222D01*
X54891626Y-11620827D01*
X54844846Y-11627273D01*
X54799452Y-11635560D01*
X54755442Y-11645690D01*
X54712817Y-11657661D01*
X54671578Y-11671474D01*
X54631723Y-11687129D01*
X54593253Y-11704626D01*
X54556168Y-11723964D01*
X54520468Y-11745144D01*
X54486152Y-11768166D01*
X54453222Y-11793030D01*
X54421677Y-11819735D01*
X54391516Y-11848282D01*
X54362969Y-11878442D01*
X54336264Y-11909988D01*
X54311401Y-11942918D01*
X54288379Y-11977233D01*
X54267199Y-12012933D01*
X54247860Y-12050018D01*
X54230364Y-12088488D01*
X54214709Y-12128343D01*
X54200896Y-12169583D01*
X54188925Y-12212208D01*
X54178795Y-12256217D01*
X54170507Y-12301612D01*
X54164061Y-12348391D01*
X54159457Y-12396556D01*
X54156694Y-12446105D01*
X54155773Y-12497040D01*
X54155773Y-13646984D01*
X54155773Y-13726802D01*
X53752968Y-13726802D01*
X53752968Y-11665442D01*
X52870323Y-11665442D01*
X52821133Y-11913250D01*
X52779797Y-11887014D01*
X52737580Y-11861903D01*
X52694482Y-11837918D01*
X52650503Y-11815058D01*
X52605643Y-11793324D01*
X52559902Y-11772716D01*
X52513280Y-11753234D01*
X52465778Y-11734877D01*
X52417394Y-11717646D01*
X52368129Y-11701541D01*
X52334796Y-11691429D01*
X52285056Y-11677331D01*
X52236767Y-11664619D01*
X52189930Y-11653294D01*
X52144546Y-11643355D01*
X52100613Y-11634804D01*
X52058132Y-11627639D01*
X52017104Y-11621861D01*
X51977527Y-11617469D01*
X51939402Y-11614465D01*
X51890828Y-11612616D01*
X51879088Y-11612539D01*
X51825257Y-11612539D01*
X51770193Y-11613746D01*
X51716841Y-11617368D01*
X51665199Y-11623404D01*
X51615269Y-11631855D01*
X51567050Y-11642721D01*
X51520543Y-11656001D01*
X51475746Y-11671696D01*
X51432661Y-11689805D01*
X51391287Y-11710329D01*
X51351624Y-11733267D01*
X51313673Y-11758620D01*
X51277432Y-11786388D01*
X51242903Y-11816570D01*
X51210085Y-11849166D01*
X51178979Y-11884178D01*
X51149583Y-11921604D01*
X51106567Y-11893716D01*
X51062441Y-11867134D01*
X51017206Y-11841858D01*
X50970862Y-11817886D01*
X50923408Y-11795219D01*
X50874845Y-11773858D01*
X50825172Y-11753802D01*
X50774390Y-11735051D01*
X50722498Y-11717605D01*
X50669497Y-11701464D01*
X50633547Y-11691429D01*
X50597477Y-11681876D01*
X50544283Y-11668702D01*
X50492182Y-11656915D01*
X50441175Y-11646514D01*
X50391260Y-11637500D01*
X50342438Y-11629873D01*
X50294710Y-11623633D01*
X50248074Y-11618779D01*
X50202532Y-11615312D01*
X50158083Y-11613232D01*
X50114727Y-11612539D01*
X50060895Y-11612539D01*
X50014598Y-11613431D01*
X49969446Y-11616106D01*
X49925440Y-11620565D01*
X49882580Y-11626809D01*
X49840865Y-11634835D01*
X49800296Y-11644646D01*
X49760872Y-11656240D01*
X49722595Y-11669618D01*
X49685462Y-11684780D01*
X49649476Y-11701725D01*
X49614635Y-11720455D01*
X49580940Y-11740968D01*
X49548390Y-11763264D01*
X49516986Y-11787345D01*
X49486728Y-11813209D01*
X49457616Y-11840857D01*
X49429968Y-11869861D01*
X49404103Y-11900025D01*
X49380023Y-11931349D01*
X49357726Y-11963833D01*
X49337213Y-11997478D01*
X49318484Y-12032282D01*
X49301539Y-12068247D01*
X49286377Y-12105372D01*
X49272999Y-12143657D01*
X49261405Y-12183102D01*
X49251594Y-12223708D01*
X49243567Y-12265473D01*
X49237324Y-12308399D01*
X49232865Y-12352485D01*
X49230189Y-12397731D01*
X49229297Y-12444137D01*
X49229297Y-14558401D01*
X48686440Y-14558401D01*
X48686440Y-10160121D01*
X76943878Y-10160121D01*
X76943878Y-15155089D01*
G37*
D10*
G36*
X32335837Y-14531546D02*
G01*
X31953255Y-13428741D01*
X31514399Y-13428741D01*
X32110743Y-15004401D01*
X32560931Y-15004401D01*
X33157665Y-13428741D01*
X32718419Y-13428741D01*
X32335837Y-14531546D01*
G37*
G36*
X31183116Y-13789422D02*
G01*
X31203362Y-13790544D01*
X31223037Y-13792414D01*
X31242142Y-13795032D01*
X31260675Y-13798398D01*
X31278638Y-13802512D01*
X31296029Y-13807374D01*
X31312850Y-13812984D01*
X31329100Y-13819342D01*
X31344779Y-13826448D01*
X31359887Y-13834302D01*
X31374424Y-13842904D01*
X31388390Y-13852254D01*
X31401785Y-13862351D01*
X31414609Y-13873197D01*
X31426863Y-13884791D01*
X31438457Y-13896997D01*
X31449303Y-13909777D01*
X31459400Y-13923131D01*
X31468750Y-13937059D01*
X31477352Y-13951561D01*
X31485206Y-13966637D01*
X31492312Y-13982287D01*
X31498670Y-13998511D01*
X31504280Y-14015309D01*
X31509142Y-14032680D01*
X31513256Y-14050626D01*
X31516622Y-14069146D01*
X31519240Y-14088239D01*
X31521110Y-14107907D01*
X31522232Y-14128149D01*
X31522606Y-14148964D01*
X31522606Y-14689425D01*
X31522246Y-14708290D01*
X31521165Y-14726684D01*
X31519364Y-14744609D01*
X31516842Y-14762063D01*
X31513599Y-14779047D01*
X31509637Y-14795561D01*
X31504953Y-14811604D01*
X31499549Y-14827178D01*
X31493425Y-14842281D01*
X31486580Y-14856914D01*
X31479015Y-14871077D01*
X31470729Y-14884770D01*
X31461722Y-14897993D01*
X31451995Y-14910746D01*
X31441548Y-14923028D01*
X31430380Y-14934840D01*
X31418568Y-14946008D01*
X31406285Y-14956456D01*
X31393533Y-14966183D01*
X31380310Y-14975189D01*
X31366617Y-14983475D01*
X31352454Y-14991040D01*
X31337821Y-14997885D01*
X31322718Y-15004010D01*
X31307144Y-15009414D01*
X31291100Y-15014097D01*
X31274586Y-15018060D01*
X31257602Y-15021302D01*
X31240148Y-15023824D01*
X31222224Y-15025625D01*
X31203829Y-15026706D01*
X31184965Y-15027066D01*
X31162782Y-15027022D01*
X31140442Y-15026889D01*
X31117945Y-15026668D01*
X31095291Y-15026358D01*
X31072479Y-15025960D01*
X31049511Y-15025473D01*
X31026385Y-15024897D01*
X31003101Y-15024233D01*
X30979661Y-15023480D01*
X30956063Y-15022639D01*
X30932308Y-15021710D01*
X30908396Y-15020691D01*
X30884327Y-15019585D01*
X30860100Y-15018390D01*
X30835716Y-15017106D01*
X30811175Y-15015733D01*
X30786477Y-15014272D01*
X30761622Y-15012723D01*
X30736609Y-15011085D01*
X30711439Y-15009359D01*
X30686112Y-15007544D01*
X30660627Y-15005640D01*
X30634985Y-15003648D01*
X30609187Y-15001567D01*
X30583230Y-14999398D01*
X30557117Y-14997140D01*
X30530846Y-14994794D01*
X30504419Y-14992359D01*
X30477833Y-14989836D01*
X30451091Y-14987224D01*
X30424192Y-14984524D01*
X30397135Y-14981735D01*
X30397135Y-14700367D01*
X30423799Y-14702459D01*
X30450059Y-14704484D01*
X30475915Y-14706443D01*
X30501366Y-14708335D01*
X30526412Y-14710162D01*
X30551054Y-14711921D01*
X30575291Y-14713615D01*
X30599124Y-14715241D01*
X30622552Y-14716802D01*
X30645576Y-14718296D01*
X30668195Y-14719724D01*
X30690409Y-14721085D01*
X30712220Y-14722380D01*
X30733625Y-14723608D01*
X30754626Y-14724770D01*
X30775223Y-14725866D01*
X30795415Y-14726895D01*
X30815202Y-14727858D01*
X30834585Y-14728755D01*
X30853564Y-14729585D01*
X30872138Y-14730348D01*
X30890307Y-14731045D01*
X30908072Y-14731676D01*
X30925432Y-14732241D01*
X30942388Y-14732739D01*
X30958939Y-14733170D01*
X30975086Y-14733536D01*
X30990828Y-14733834D01*
X31021099Y-14734233D01*
X31049752Y-14734366D01*
X31059987Y-14733822D01*
X31077064Y-14730102D01*
X31092410Y-14722858D01*
X31106025Y-14712091D01*
X31113728Y-14703193D01*
X31122294Y-14688351D01*
X31127274Y-14671717D01*
X31128691Y-14655426D01*
X31128691Y-14565545D01*
X30351803Y-14565545D01*
X30351803Y-14284177D01*
X30745718Y-14284177D01*
X31128691Y-14284177D01*
X31128691Y-14160297D01*
X31128603Y-14154767D01*
X31126487Y-14134404D01*
X31121550Y-14116849D01*
X31113793Y-14102103D01*
X31103214Y-14090165D01*
X31089814Y-14081037D01*
X31073593Y-14074717D01*
X31054552Y-14071206D01*
X31038419Y-14070416D01*
X30835990Y-14070416D01*
X30830437Y-14070504D01*
X30809984Y-14072610D01*
X30792353Y-14077526D01*
X30777543Y-14085250D01*
X30765553Y-14095783D01*
X30756385Y-14109125D01*
X30750038Y-14125275D01*
X30746512Y-14144234D01*
X30745718Y-14160297D01*
X30745718Y-14284177D01*
X30351803Y-14284177D01*
X30351803Y-14148964D01*
X30352177Y-14128149D01*
X30353299Y-14107907D01*
X30355169Y-14088239D01*
X30357787Y-14069146D01*
X30361153Y-14050626D01*
X30365267Y-14032680D01*
X30370129Y-14015309D01*
X30375739Y-13998511D01*
X30382097Y-13982287D01*
X30389203Y-13966637D01*
X30397057Y-13951561D01*
X30405659Y-13937059D01*
X30415009Y-13923131D01*
X30425107Y-13909777D01*
X30435953Y-13896997D01*
X30447547Y-13884791D01*
X30459800Y-13873197D01*
X30472624Y-13862351D01*
X30486019Y-13852254D01*
X30499986Y-13842904D01*
X30514523Y-13834302D01*
X30529631Y-13826448D01*
X30545309Y-13819342D01*
X30561559Y-13812984D01*
X30578380Y-13807374D01*
X30595771Y-13802512D01*
X30613734Y-13798398D01*
X30632267Y-13795032D01*
X30651372Y-13792414D01*
X30671047Y-13790544D01*
X30691293Y-13789422D01*
X30712110Y-13789048D01*
X31162299Y-13789048D01*
X31183116Y-13789422D01*
G37*
G36*
X29470575Y-14137631D02*
G01*
X29488342Y-14137896D01*
X29506180Y-14138688D01*
X29524087Y-14140008D01*
X29542065Y-14141857D01*
X29560113Y-14144234D01*
X29578231Y-14147139D01*
X29596420Y-14150572D01*
X29614678Y-14154533D01*
X29633007Y-14159023D01*
X29651407Y-14164040D01*
X29669876Y-14169586D01*
X29688415Y-14175660D01*
X29707025Y-14182262D01*
X29725705Y-14189393D01*
X29744455Y-14197051D01*
X29763276Y-14205238D01*
X29763276Y-15004401D01*
X30157191Y-15004401D01*
X30157191Y-13811323D01*
X29808217Y-13811323D01*
X29785942Y-13957869D01*
X29773810Y-13947482D01*
X29761644Y-13937426D01*
X29737209Y-13918301D01*
X29712637Y-13900496D01*
X29687927Y-13884010D01*
X29663080Y-13868842D01*
X29638095Y-13854994D01*
X29612973Y-13842464D01*
X29587714Y-13831253D01*
X29562317Y-13821361D01*
X29536783Y-13812788D01*
X29511112Y-13805534D01*
X29485303Y-13799599D01*
X29459357Y-13794983D01*
X29433273Y-13791686D01*
X29407052Y-13789708D01*
X29380694Y-13789048D01*
X29279480Y-13789048D01*
X29279480Y-14137631D01*
X29470575Y-14137631D01*
G37*
G36*
X29172013Y-14689425D02*
G01*
X29143650Y-14691493D01*
X29115664Y-14693495D01*
X29088057Y-14695431D01*
X29060827Y-14697302D01*
X29033975Y-14699107D01*
X29007501Y-14700846D01*
X28981405Y-14702520D01*
X28955687Y-14704128D01*
X28930346Y-14705671D01*
X28905384Y-14707148D01*
X28880799Y-14708559D01*
X28856591Y-14709905D01*
X28832762Y-14711185D01*
X28809311Y-14712399D01*
X28786237Y-14713548D01*
X28763541Y-14714631D01*
X28741223Y-14715648D01*
X28719283Y-14716600D01*
X28697720Y-14717486D01*
X28676536Y-14718307D01*
X28655729Y-14719062D01*
X28635300Y-14719751D01*
X28615249Y-14720374D01*
X28595575Y-14720932D01*
X28576280Y-14721425D01*
X28557362Y-14721851D01*
X28538822Y-14722212D01*
X28520660Y-14722508D01*
X28502876Y-14722737D01*
X28485469Y-14722901D01*
X28468440Y-14723000D01*
X28451789Y-14723033D01*
X28435669Y-14721641D01*
X28419169Y-14716746D01*
X28404400Y-14708328D01*
X28395516Y-14700758D01*
X28384559Y-14687112D01*
X28377189Y-14671673D01*
X28373647Y-14656445D01*
X28372850Y-14644093D01*
X28372850Y-14565545D01*
X28857037Y-14565545D01*
X28875902Y-14565185D01*
X28894296Y-14564104D01*
X28912221Y-14562303D01*
X28929675Y-14559781D01*
X28946659Y-14556538D01*
X28963173Y-14552576D01*
X28979217Y-14547892D01*
X28994790Y-14542488D01*
X29009894Y-14536364D01*
X29024527Y-14529519D01*
X29038690Y-14521954D01*
X29052383Y-14513668D01*
X29065605Y-14504661D01*
X29078358Y-14494934D01*
X29090640Y-14484487D01*
X29102452Y-14473319D01*
X29113620Y-14461507D01*
X29124068Y-14449224D01*
X29133795Y-14436472D01*
X29142801Y-14423249D01*
X29151087Y-14409556D01*
X29158653Y-14395393D01*
X29165498Y-14380760D01*
X29171622Y-14365657D01*
X29177026Y-14350083D01*
X29181709Y-14334039D01*
X29185672Y-14317526D01*
X29188914Y-14300541D01*
X29191436Y-14283087D01*
X29193237Y-14265163D01*
X29194318Y-14246768D01*
X29194678Y-14227904D01*
X29194678Y-14148964D01*
X29194318Y-14130101D01*
X29193237Y-14111711D01*
X29191436Y-14093794D01*
X29188914Y-14076351D01*
X29185672Y-14059381D01*
X29181709Y-14042884D01*
X29177026Y-14026860D01*
X29171622Y-14011309D01*
X29165498Y-13996232D01*
X29158653Y-13981627D01*
X29151087Y-13967496D01*
X29142801Y-13953839D01*
X29133795Y-13940654D01*
X29124068Y-13927943D01*
X29113620Y-13915705D01*
X29102452Y-13903940D01*
X29090640Y-13892725D01*
X29078358Y-13882233D01*
X29065605Y-13872465D01*
X29052383Y-13863420D01*
X29038690Y-13855099D01*
X29024527Y-13847502D01*
X29009894Y-13840628D01*
X28994790Y-13834477D01*
X28979217Y-13829050D01*
X28963173Y-13824347D01*
X28946659Y-13820368D01*
X28929675Y-13817112D01*
X28912221Y-13814579D01*
X28894296Y-13812770D01*
X28875902Y-13811685D01*
X28857037Y-13811323D01*
X28091482Y-13811323D01*
X28091482Y-14104024D01*
X28721824Y-14104024D01*
X28738115Y-14105440D01*
X28754749Y-14110421D01*
X28769591Y-14118987D01*
X28778489Y-14126689D01*
X28789256Y-14140146D01*
X28796500Y-14155458D01*
X28800220Y-14172625D01*
X28800764Y-14182963D01*
X28799371Y-14199083D01*
X28794477Y-14215583D01*
X28786059Y-14230352D01*
X28778489Y-14239237D01*
X28764843Y-14250004D01*
X28749404Y-14257248D01*
X28732172Y-14260968D01*
X28721824Y-14261511D01*
X28316577Y-14261511D01*
X28297713Y-14261873D01*
X28279323Y-14262959D01*
X28261407Y-14264768D01*
X28243963Y-14267300D01*
X28226993Y-14270556D01*
X28210496Y-14274536D01*
X28194472Y-14279239D01*
X28178921Y-14284666D01*
X28163844Y-14290816D01*
X28149240Y-14297690D01*
X28135109Y-14305287D01*
X28121451Y-14313608D01*
X28108266Y-14322653D01*
X28095555Y-14332421D01*
X28083317Y-14342913D01*
X28071552Y-14354128D01*
X28060337Y-14365893D01*
X28049845Y-14378131D01*
X28040077Y-14390843D01*
X28031032Y-14404027D01*
X28022711Y-14417685D01*
X28015114Y-14431816D01*
X28008240Y-14446420D01*
X28002090Y-14461497D01*
X27996663Y-14477048D01*
X27991960Y-14493072D01*
X27987980Y-14509569D01*
X27984724Y-14526539D01*
X27982191Y-14543983D01*
X27980382Y-14561900D01*
X27979297Y-14580290D01*
X27978935Y-14599153D01*
X27978935Y-14689425D01*
X27979297Y-14708290D01*
X27980382Y-14726684D01*
X27982191Y-14744609D01*
X27984724Y-14762063D01*
X27987980Y-14779047D01*
X27991960Y-14795561D01*
X27996663Y-14811604D01*
X28002090Y-14827178D01*
X28008240Y-14842281D01*
X28015114Y-14856914D01*
X28022711Y-14871077D01*
X28031032Y-14884770D01*
X28040077Y-14897993D01*
X28049845Y-14910746D01*
X28060337Y-14923028D01*
X28071552Y-14934840D01*
X28083317Y-14946008D01*
X28095555Y-14956456D01*
X28108266Y-14966183D01*
X28121451Y-14975189D01*
X28135109Y-14983475D01*
X28149240Y-14991040D01*
X28163844Y-14997885D01*
X28178921Y-15004010D01*
X28194472Y-15009414D01*
X28210496Y-15014097D01*
X28226993Y-15018060D01*
X28243963Y-15021302D01*
X28261407Y-15023824D01*
X28279323Y-15025625D01*
X28297713Y-15026706D01*
X28316577Y-15027066D01*
X28341546Y-15027022D01*
X28366630Y-15026889D01*
X28391827Y-15026668D01*
X28417137Y-15026358D01*
X28442562Y-15025960D01*
X28468100Y-15025473D01*
X28493752Y-15024897D01*
X28519518Y-15024233D01*
X28545397Y-15023480D01*
X28571391Y-15022639D01*
X28597497Y-15021710D01*
X28623718Y-15020691D01*
X28650052Y-15019585D01*
X28676501Y-15018390D01*
X28703062Y-15017106D01*
X28729738Y-15015733D01*
X28756527Y-15014272D01*
X28783430Y-15012723D01*
X28810447Y-15011085D01*
X28837577Y-15009359D01*
X28864821Y-15007544D01*
X28892179Y-15005640D01*
X28919651Y-15003648D01*
X28947236Y-15001567D01*
X28974935Y-14999398D01*
X29002748Y-14997140D01*
X29030674Y-14994794D01*
X29058715Y-14992359D01*
X29086869Y-14989836D01*
X29115136Y-14987224D01*
X29143518Y-14984524D01*
X29172013Y-14981735D01*
X29172013Y-14689425D01*
G37*
G36*
X27354846Y-13856264D02*
G01*
X27354846Y-15004401D01*
X27748761Y-15004401D01*
X27748761Y-14160297D01*
X27917581Y-14160297D01*
X27917581Y-13856264D01*
X27354846Y-13856264D01*
G37*
G36*
X27748761Y-13406075D02*
G01*
X27354846Y-13406075D01*
X27354846Y-13721442D01*
X27748761Y-13721442D01*
X27748761Y-13406075D01*
G37*
G36*
X26817226Y-13789422D02*
G01*
X26837472Y-13790544D01*
X26857148Y-13792414D01*
X26876252Y-13795032D01*
X26894786Y-13798398D01*
X26912748Y-13802512D01*
X26930140Y-13807374D01*
X26946960Y-13812984D01*
X26963210Y-13819342D01*
X26978889Y-13826448D01*
X26993997Y-13834302D01*
X27008534Y-13842904D01*
X27022500Y-13852254D01*
X27035895Y-13862351D01*
X27048720Y-13873197D01*
X27060973Y-13884791D01*
X27072567Y-13896997D01*
X27083413Y-13909777D01*
X27093511Y-13923131D01*
X27102861Y-13937059D01*
X27111463Y-13951561D01*
X27119316Y-13966637D01*
X27126422Y-13982287D01*
X27132780Y-13998511D01*
X27138390Y-14015309D01*
X27143252Y-14032680D01*
X27147366Y-14050626D01*
X27150732Y-14069146D01*
X27153350Y-14088239D01*
X27155220Y-14107907D01*
X27156342Y-14128149D01*
X27156716Y-14148964D01*
X27156716Y-14666759D01*
X27156342Y-14687576D01*
X27155220Y-14707823D01*
X27153350Y-14727498D01*
X27150732Y-14746602D01*
X27147366Y-14765136D01*
X27143252Y-14783098D01*
X27138390Y-14800490D01*
X27132780Y-14817310D01*
X27126422Y-14833560D01*
X27119316Y-14849239D01*
X27111463Y-14864347D01*
X27102861Y-14878884D01*
X27093511Y-14892850D01*
X27083413Y-14906245D01*
X27072567Y-14919070D01*
X27060973Y-14931323D01*
X27048720Y-14942917D01*
X27035895Y-14953763D01*
X27022500Y-14963861D01*
X27008534Y-14973211D01*
X26993997Y-14981813D01*
X26978889Y-14989667D01*
X26963210Y-14996772D01*
X26946960Y-15003130D01*
X26930140Y-15008740D01*
X26912748Y-15013602D01*
X26894786Y-15017716D01*
X26876252Y-15021082D01*
X26857148Y-15023700D01*
X26837472Y-15025570D01*
X26817226Y-15026692D01*
X26796409Y-15027066D01*
X26278614Y-15027066D01*
X26257799Y-15026692D01*
X26237557Y-15025570D01*
X26217889Y-15023700D01*
X26198796Y-15021082D01*
X26180276Y-15017716D01*
X26162330Y-15013602D01*
X26144959Y-15008740D01*
X26128161Y-15003130D01*
X26111937Y-14996772D01*
X26096287Y-14989667D01*
X26081211Y-14981813D01*
X26066709Y-14973211D01*
X26052781Y-14963861D01*
X26039427Y-14953763D01*
X26026647Y-14942917D01*
X26014441Y-14931323D01*
X26002847Y-14919070D01*
X25992001Y-14906245D01*
X25981904Y-14892850D01*
X25972554Y-14878884D01*
X25963952Y-14864347D01*
X25956098Y-14849239D01*
X25948992Y-14833560D01*
X25942634Y-14817310D01*
X25937024Y-14800490D01*
X25932162Y-14783098D01*
X25928048Y-14765136D01*
X25924682Y-14746602D01*
X25922064Y-14727498D01*
X25920194Y-14707823D01*
X25919072Y-14687576D01*
X25918698Y-14666759D01*
X25918698Y-14633151D01*
X26312613Y-14633151D01*
X26312701Y-14638681D01*
X26314807Y-14659045D01*
X26319723Y-14676600D01*
X26327447Y-14691346D01*
X26337980Y-14703283D01*
X26351322Y-14712412D01*
X26367472Y-14718732D01*
X26386431Y-14722243D01*
X26402494Y-14723033D01*
X26672529Y-14723033D01*
X26678083Y-14722945D01*
X26698535Y-14720838D01*
X26716167Y-14715923D01*
X26730977Y-14708199D01*
X26742966Y-14697666D01*
X26752134Y-14684324D01*
X26758482Y-14668174D01*
X26762008Y-14649214D01*
X26762801Y-14633151D01*
X26762801Y-14182963D01*
X26762713Y-14177409D01*
X26760597Y-14156957D01*
X26755661Y-14139326D01*
X26747903Y-14124515D01*
X26737324Y-14112526D01*
X26723924Y-14103358D01*
X26707704Y-14097010D01*
X26688662Y-14093484D01*
X26672529Y-14092691D01*
X26402494Y-14092691D01*
X26396964Y-14092779D01*
X26376601Y-14094895D01*
X26359046Y-14099831D01*
X26344300Y-14107589D01*
X26332362Y-14118168D01*
X26323234Y-14131568D01*
X26316914Y-14147789D01*
X26313403Y-14166830D01*
X26312613Y-14182963D01*
X26312613Y-14633151D01*
X25918698Y-14633151D01*
X25918698Y-14148964D01*
X25919072Y-14128149D01*
X25920194Y-14107907D01*
X25922064Y-14088239D01*
X25924682Y-14069146D01*
X25928048Y-14050626D01*
X25932162Y-14032680D01*
X25937024Y-14015309D01*
X25942634Y-13998511D01*
X25948992Y-13982287D01*
X25956098Y-13966637D01*
X25963952Y-13951561D01*
X25972554Y-13937059D01*
X25981904Y-13923131D01*
X25992001Y-13909777D01*
X26002847Y-13896997D01*
X26014441Y-13884791D01*
X26026647Y-13873197D01*
X26039427Y-13862351D01*
X26052781Y-13852254D01*
X26066709Y-13842904D01*
X26081211Y-13834302D01*
X26096287Y-13826448D01*
X26111937Y-13819342D01*
X26128161Y-13812984D01*
X26144959Y-13807374D01*
X26162330Y-13802512D01*
X26180276Y-13798398D01*
X26198796Y-13795032D01*
X26217889Y-13792414D01*
X26237557Y-13790544D01*
X26257799Y-13789422D01*
X26278614Y-13789048D01*
X26796409Y-13789048D01*
X26817226Y-13789422D01*
G37*
G36*
X25060136Y-14115357D02*
G01*
X25082762Y-14115752D01*
X25105945Y-14116936D01*
X25121709Y-14118165D01*
X25137721Y-14119745D01*
X25153980Y-14121676D01*
X25170486Y-14123958D01*
X25187240Y-14126592D01*
X25204240Y-14129576D01*
X25221489Y-14132911D01*
X25238984Y-14136598D01*
X25256727Y-14140636D01*
X25274717Y-14145024D01*
X25292954Y-14149764D01*
X25311439Y-14154855D01*
X25330170Y-14160297D01*
X25330170Y-15004401D01*
X25724085Y-15004401D01*
X25724085Y-13811323D01*
X25375111Y-13811323D01*
X25352836Y-13923870D01*
X25339577Y-13915320D01*
X25326275Y-13907060D01*
X25306242Y-13895214D01*
X25286112Y-13884020D01*
X25265887Y-13873479D01*
X25245565Y-13863591D01*
X25225147Y-13854355D01*
X25204633Y-13845772D01*
X25184022Y-13837841D01*
X25163316Y-13830563D01*
X25142513Y-13823938D01*
X25135558Y-13821874D01*
X25114981Y-13816008D01*
X25095015Y-13810719D01*
X25075661Y-13806006D01*
X25056918Y-13801871D01*
X25038786Y-13798313D01*
X25021266Y-13795331D01*
X25004357Y-13792927D01*
X24988060Y-13791100D01*
X24972373Y-13789850D01*
X24952410Y-13789080D01*
X24947588Y-13789048D01*
X24846374Y-13789048D01*
X24827464Y-13789408D01*
X24809030Y-13790489D01*
X24791072Y-13792290D01*
X24773590Y-13794812D01*
X24756584Y-13798055D01*
X24740055Y-13802017D01*
X24724002Y-13806701D01*
X24708426Y-13812105D01*
X24693326Y-13818229D01*
X24678702Y-13825074D01*
X24664554Y-13832639D01*
X24650882Y-13840925D01*
X24637687Y-13849932D01*
X24624968Y-13859659D01*
X24612725Y-13870106D01*
X24600959Y-13881274D01*
X24589791Y-13893041D01*
X24579344Y-13905283D01*
X24569617Y-13918002D01*
X24560610Y-13931197D01*
X24552324Y-13944869D01*
X24544759Y-13959017D01*
X24537914Y-13973641D01*
X24531789Y-13988741D01*
X24526386Y-14004318D01*
X24521702Y-14020370D01*
X24517739Y-14036900D01*
X24514497Y-14053905D01*
X24511975Y-14071387D01*
X24510174Y-14089345D01*
X24509093Y-14107779D01*
X24508733Y-14126689D01*
X24508733Y-15004401D01*
X24902648Y-15004401D01*
X24902648Y-14193905D01*
X24904064Y-14177809D01*
X24909045Y-14161395D01*
X24917611Y-14146774D01*
X24925314Y-14138022D01*
X24938740Y-14127066D01*
X24953959Y-14119695D01*
X24970971Y-14115910D01*
X24981196Y-14115357D01*
X25060136Y-14115357D01*
G37*
G36*
X22876800Y-15027066D02*
G01*
X22900375Y-15027022D01*
X22924108Y-15026889D01*
X22947999Y-15026668D01*
X22972049Y-15026358D01*
X22996256Y-15025960D01*
X23020621Y-15025473D01*
X23045144Y-15024897D01*
X23069825Y-15024233D01*
X23094664Y-15023480D01*
X23119661Y-15022639D01*
X23144816Y-15021710D01*
X23170129Y-15020691D01*
X23195601Y-15019585D01*
X23221230Y-15018390D01*
X23247017Y-15017106D01*
X23272962Y-15015733D01*
X23299065Y-15014272D01*
X23325326Y-15012723D01*
X23351745Y-15011085D01*
X23378322Y-15009359D01*
X23405057Y-15007544D01*
X23431950Y-15005640D01*
X23459001Y-15003648D01*
X23486210Y-15001567D01*
X23513577Y-14999398D01*
X23541102Y-14997140D01*
X23568785Y-14994794D01*
X23596626Y-14992359D01*
X23624625Y-14989836D01*
X23652782Y-14987224D01*
X23681097Y-14984524D01*
X23709570Y-14981735D01*
X23709570Y-14678092D01*
X23678724Y-14680160D01*
X23648371Y-14682162D01*
X23618509Y-14684098D01*
X23589140Y-14685969D01*
X23560264Y-14687774D01*
X23531879Y-14689513D01*
X23503987Y-14691187D01*
X23476587Y-14692795D01*
X23449680Y-14694338D01*
X23423264Y-14695815D01*
X23397341Y-14697226D01*
X23371911Y-14698572D01*
X23346972Y-14699852D01*
X23322526Y-14701066D01*
X23298573Y-14702215D01*
X23275111Y-14703298D01*
X23252142Y-14704315D01*
X23229665Y-14705267D01*
X23207681Y-14706153D01*
X23186188Y-14706974D01*
X23165189Y-14707729D01*
X23144681Y-14708418D01*
X23124666Y-14709041D01*
X23105143Y-14709599D01*
X23086112Y-14710092D01*
X23067573Y-14710518D01*
X23049527Y-14710879D01*
X23031974Y-14711175D01*
X23014912Y-14711404D01*
X22998343Y-14711569D01*
X22982266Y-14711667D01*
X22966681Y-14711700D01*
X22948079Y-14710642D01*
X22930961Y-14707468D01*
X22915326Y-14702179D01*
X22901175Y-14694774D01*
X22888508Y-14685253D01*
X22884616Y-14681609D01*
X22874257Y-14669423D01*
X22866041Y-14655726D01*
X22859969Y-14640517D01*
X22856039Y-14623797D01*
X22854253Y-14605566D01*
X22854134Y-14599153D01*
X22854134Y-14509271D01*
X22854662Y-14492898D01*
X22857435Y-14470318D01*
X22862585Y-14450116D01*
X22870111Y-14432290D01*
X22880015Y-14416841D01*
X22892295Y-14403768D01*
X22906952Y-14393073D01*
X22923985Y-14384754D01*
X22943396Y-14378812D01*
X22965183Y-14375247D01*
X22981028Y-14374191D01*
X22989347Y-14374059D01*
X23461810Y-14374059D01*
X23461810Y-14059083D01*
X23034288Y-14059083D01*
X23017914Y-14058555D01*
X22995335Y-14055782D01*
X22975132Y-14050632D01*
X22957306Y-14043106D01*
X22941857Y-14033202D01*
X22928785Y-14020922D01*
X22918089Y-14006265D01*
X22909770Y-13989232D01*
X22903828Y-13969821D01*
X22900263Y-13948034D01*
X22899207Y-13932189D01*
X22899075Y-13923870D01*
X22899075Y-13878929D01*
X22899603Y-13862556D01*
X22902376Y-13839977D01*
X22907526Y-13819774D01*
X22915052Y-13801948D01*
X22924955Y-13786499D01*
X22937236Y-13773426D01*
X22951892Y-13762731D01*
X22968926Y-13754412D01*
X22988336Y-13748470D01*
X23010124Y-13744905D01*
X23025969Y-13743849D01*
X23034288Y-13743717D01*
X23686905Y-13743717D01*
X23686905Y-13428741D01*
X22921741Y-13428741D01*
X22894599Y-13429133D01*
X22868374Y-13430310D01*
X22843064Y-13432272D01*
X22818670Y-13435018D01*
X22795192Y-13438549D01*
X22772630Y-13442864D01*
X22750984Y-13447964D01*
X22730254Y-13453849D01*
X22710440Y-13460519D01*
X22691542Y-13467973D01*
X22673559Y-13476211D01*
X22656493Y-13485234D01*
X22640342Y-13495042D01*
X22625108Y-13505635D01*
X22610789Y-13517012D01*
X22597386Y-13529174D01*
X22584846Y-13542088D01*
X22573114Y-13555821D01*
X22562192Y-13570371D01*
X22552079Y-13585740D01*
X22542775Y-13601928D01*
X22534280Y-13618933D01*
X22526594Y-13636757D01*
X22519717Y-13655398D01*
X22513649Y-13674858D01*
X22508390Y-13695137D01*
X22503940Y-13716233D01*
X22500300Y-13738148D01*
X22497468Y-13760881D01*
X22495445Y-13784432D01*
X22494232Y-13808801D01*
X22493827Y-13833989D01*
X22494070Y-13850645D01*
X22494798Y-13866907D01*
X22496012Y-13882775D01*
X22498742Y-13905839D01*
X22502565Y-13928016D01*
X22507480Y-13949308D01*
X22513487Y-13969713D01*
X22520587Y-13989232D01*
X22528778Y-14007865D01*
X22538062Y-14025612D01*
X22548438Y-14042473D01*
X22555963Y-14053221D01*
X22567887Y-14068605D01*
X22580504Y-14083103D01*
X22593816Y-14096714D01*
X22607821Y-14109440D01*
X22622521Y-14121279D01*
X22637914Y-14132232D01*
X22654000Y-14142299D01*
X22670781Y-14151480D01*
X22688256Y-14159775D01*
X22706424Y-14167183D01*
X22718921Y-14171630D01*
X22696614Y-14178396D01*
X22675220Y-14186285D01*
X22654739Y-14195297D01*
X22635170Y-14205433D01*
X22616515Y-14216693D01*
X22598772Y-14229076D01*
X22581942Y-14242583D01*
X22566025Y-14257213D01*
X22551021Y-14272966D01*
X22536930Y-14289844D01*
X22523751Y-14307844D01*
X22511486Y-14326969D01*
X22500133Y-14347216D01*
X22489693Y-14368588D01*
X22480166Y-14391082D01*
X22471552Y-14414701D01*
X22466240Y-14432451D01*
X22461636Y-14450922D01*
X22457740Y-14470113D01*
X22454553Y-14490025D01*
X22452074Y-14510657D01*
X22450679Y-14526605D01*
X22449683Y-14542957D01*
X22449086Y-14559715D01*
X22448886Y-14576878D01*
X22448886Y-14599153D01*
X22449291Y-14626294D01*
X22450505Y-14652520D01*
X22452527Y-14677829D01*
X22455359Y-14702223D01*
X22459000Y-14725701D01*
X22463449Y-14748263D01*
X22468708Y-14769909D01*
X22474776Y-14790639D01*
X22481653Y-14810453D01*
X22489339Y-14829352D01*
X22497834Y-14847334D01*
X22507138Y-14864401D01*
X22517252Y-14880551D01*
X22528174Y-14895786D01*
X22539905Y-14910104D01*
X22552445Y-14923507D01*
X22565848Y-14936048D01*
X22580167Y-14947779D01*
X22595402Y-14958701D01*
X22611552Y-14968814D01*
X22628619Y-14978118D01*
X22646601Y-14986614D01*
X22665499Y-14994300D01*
X22685314Y-15001176D01*
X22706044Y-15007244D01*
X22727690Y-15012503D01*
X22750252Y-15016953D01*
X22773729Y-15020594D01*
X22798123Y-15023425D01*
X22823433Y-15025448D01*
X22849658Y-15026662D01*
X22876800Y-15027066D01*
G37*
G36*
X22320708Y-14666759D02*
G01*
X21915460Y-14666759D01*
X21915460Y-15004401D01*
X22320708Y-15004401D01*
X22320708Y-14666759D01*
G37*
G36*
X20589905Y-13923870D02*
G01*
X20590539Y-13947603D01*
X20592439Y-13970930D01*
X20595607Y-13993850D01*
X20600041Y-14016365D01*
X20605743Y-14038473D01*
X20612711Y-14060176D01*
X20620947Y-14081472D01*
X20630450Y-14102363D01*
X20641219Y-14122847D01*
X20653256Y-14142925D01*
X20666559Y-14162598D01*
X20681130Y-14181864D01*
X20696968Y-14200724D01*
X20714072Y-14219178D01*
X20732444Y-14237226D01*
X20752083Y-14254868D01*
X20764631Y-14265523D01*
X20777459Y-14276190D01*
X20790569Y-14286870D01*
X20803960Y-14297562D01*
X20817631Y-14308266D01*
X20831584Y-14318982D01*
X20845817Y-14329710D01*
X20860331Y-14340451D01*
X21344127Y-14689425D01*
X20589905Y-14689425D01*
X20589905Y-15004401D01*
X21805648Y-15004401D01*
X21805648Y-14576878D01*
X20995153Y-13991477D01*
X20995153Y-13878929D01*
X20995681Y-13862556D01*
X20998454Y-13839977D01*
X21003604Y-13819774D01*
X21011130Y-13801948D01*
X21021034Y-13786499D01*
X21033314Y-13773426D01*
X21047971Y-13762731D01*
X21065004Y-13754412D01*
X21084415Y-13748470D01*
X21106202Y-13744905D01*
X21122047Y-13743849D01*
X21130366Y-13743717D01*
X21760708Y-13743717D01*
X21760708Y-13428741D01*
X21040094Y-13428741D01*
X21011093Y-13429159D01*
X20983100Y-13430414D01*
X20956114Y-13432505D01*
X20930136Y-13435433D01*
X20905165Y-13439198D01*
X20881202Y-13443799D01*
X20858246Y-13449236D01*
X20836297Y-13455510D01*
X20815357Y-13462621D01*
X20795423Y-13470568D01*
X20776498Y-13479351D01*
X20758579Y-13488971D01*
X20741669Y-13499428D01*
X20725765Y-13510721D01*
X20710870Y-13522851D01*
X20696981Y-13535817D01*
X20684015Y-13549660D01*
X20671885Y-13564516D01*
X20660592Y-13580385D01*
X20650136Y-13597269D01*
X20640515Y-13615166D01*
X20631732Y-13634076D01*
X20623785Y-13654000D01*
X20616674Y-13674938D01*
X20610400Y-13696889D01*
X20604963Y-13719854D01*
X20600362Y-13743833D01*
X20596598Y-13768825D01*
X20593670Y-13794831D01*
X20591578Y-13821850D01*
X20590324Y-13849883D01*
X20589905Y-13878929D01*
X20589905Y-13923870D01*
G37*
G36*
X20462117Y-14666759D02*
G01*
X20056870Y-14666759D01*
X20056870Y-15004401D01*
X20462117Y-15004401D01*
X20462117Y-14666759D01*
G37*
G36*
X19480930Y-13406494D02*
G01*
X19508923Y-13407748D01*
X19535909Y-13409840D01*
X19561887Y-13412768D01*
X19586858Y-13416532D01*
X19610821Y-13421133D01*
X19633777Y-13426570D01*
X19655725Y-13432844D01*
X19676666Y-13439955D01*
X19696599Y-13447902D01*
X19715525Y-13456685D01*
X19733443Y-13466306D01*
X19750354Y-13476762D01*
X19766257Y-13488055D01*
X19781153Y-13500185D01*
X19795041Y-13513151D01*
X19808008Y-13527040D01*
X19820137Y-13541935D01*
X19831431Y-13557839D01*
X19841887Y-13574749D01*
X19851507Y-13592668D01*
X19860291Y-13611593D01*
X19868238Y-13631527D01*
X19875348Y-13652467D01*
X19881622Y-13674416D01*
X19887060Y-13697372D01*
X19891661Y-13721335D01*
X19895425Y-13746306D01*
X19898353Y-13772284D01*
X19900444Y-13799270D01*
X19901699Y-13827263D01*
X19902117Y-13856264D01*
X19902117Y-14576878D01*
X19901699Y-14605879D01*
X19900444Y-14633872D01*
X19898353Y-14660858D01*
X19895425Y-14686836D01*
X19891661Y-14711807D01*
X19887060Y-14735770D01*
X19881622Y-14758726D01*
X19875348Y-14780674D01*
X19868238Y-14801615D01*
X19860291Y-14821548D01*
X19851507Y-14840474D01*
X19841887Y-14858392D01*
X19831431Y-14875303D01*
X19820137Y-14891206D01*
X19808008Y-14906102D01*
X19795041Y-14919990D01*
X19781153Y-14932956D01*
X19766257Y-14945086D01*
X19750354Y-14956379D01*
X19733443Y-14966836D01*
X19715525Y-14976456D01*
X19696599Y-14985240D01*
X19676666Y-14993187D01*
X19655725Y-15000297D01*
X19633777Y-15006571D01*
X19610821Y-15012009D01*
X19586858Y-15016610D01*
X19561887Y-15020374D01*
X19535909Y-15023302D01*
X19508923Y-15025393D01*
X19480930Y-15026648D01*
X19451929Y-15027066D01*
X19024016Y-15027066D01*
X18994969Y-15026648D01*
X18966936Y-15025393D01*
X18939917Y-15023302D01*
X18913911Y-15020374D01*
X18888919Y-15016610D01*
X18864940Y-15012009D01*
X18841975Y-15006571D01*
X18820024Y-15000297D01*
X18799086Y-14993187D01*
X18779162Y-14985240D01*
X18760252Y-14976456D01*
X18742355Y-14966836D01*
X18725471Y-14956379D01*
X18709602Y-14945086D01*
X18694746Y-14932956D01*
X18680903Y-14919990D01*
X18667937Y-14906102D01*
X18655807Y-14891206D01*
X18644514Y-14875303D01*
X18634057Y-14858392D01*
X18624437Y-14840474D01*
X18615654Y-14821548D01*
X18607707Y-14801615D01*
X18600596Y-14780674D01*
X18594322Y-14758726D01*
X18588885Y-14735770D01*
X18584284Y-14711807D01*
X18580519Y-14686836D01*
X18577592Y-14660858D01*
X18575500Y-14633872D01*
X18574245Y-14605879D01*
X18573827Y-14576878D01*
X18979075Y-14576878D01*
X18979207Y-14585173D01*
X18980263Y-14600972D01*
X18983828Y-14622696D01*
X18989770Y-14642051D01*
X18998089Y-14659035D01*
X19008785Y-14673650D01*
X19021857Y-14685894D01*
X19037306Y-14695769D01*
X19055132Y-14703273D01*
X19075335Y-14708408D01*
X19097914Y-14711173D01*
X19114288Y-14711700D01*
X19361657Y-14711700D01*
X19369976Y-14711568D01*
X19385821Y-14710515D01*
X19407608Y-14706960D01*
X19427019Y-14701035D01*
X19444052Y-14692741D01*
X19458709Y-14682076D01*
X19470989Y-14669041D01*
X19480892Y-14653637D01*
X19488419Y-14635862D01*
X19493569Y-14615718D01*
X19496342Y-14593204D01*
X19496870Y-14576878D01*
X19496870Y-13856264D01*
X19496738Y-13847969D01*
X19495681Y-13832170D01*
X19492116Y-13810445D01*
X19486174Y-13791091D01*
X19477855Y-13774107D01*
X19467160Y-13759492D01*
X19454088Y-13747247D01*
X19438638Y-13737373D01*
X19420812Y-13729868D01*
X19400610Y-13724733D01*
X19378030Y-13721968D01*
X19361657Y-13721442D01*
X19114288Y-13721442D01*
X19105969Y-13721573D01*
X19090124Y-13722627D01*
X19068336Y-13726182D01*
X19048926Y-13732106D01*
X19031892Y-13740401D01*
X19017236Y-13751066D01*
X19004955Y-13764100D01*
X18995052Y-13779505D01*
X18987526Y-13797279D01*
X18982376Y-13817423D01*
X18979603Y-13839938D01*
X18979075Y-13856264D01*
X18979075Y-14576878D01*
X18573827Y-14576878D01*
X18573827Y-13856264D01*
X18574245Y-13827263D01*
X18575500Y-13799270D01*
X18577592Y-13772284D01*
X18580519Y-13746306D01*
X18584284Y-13721335D01*
X18588885Y-13697372D01*
X18594322Y-13674416D01*
X18600596Y-13652467D01*
X18607707Y-13631527D01*
X18615654Y-13611593D01*
X18624437Y-13592668D01*
X18634057Y-13574749D01*
X18644514Y-13557839D01*
X18655807Y-13541935D01*
X18667937Y-13527040D01*
X18680903Y-13513151D01*
X18694746Y-13500185D01*
X18709602Y-13488055D01*
X18725471Y-13476762D01*
X18742355Y-13466306D01*
X18760252Y-13456685D01*
X18779162Y-13447902D01*
X18799086Y-13439955D01*
X18820024Y-13432844D01*
X18841975Y-13426570D01*
X18864940Y-13421133D01*
X18888919Y-13416532D01*
X18913911Y-13412768D01*
X18939917Y-13409840D01*
X18966936Y-13407748D01*
X18994969Y-13406494D01*
X19024016Y-13406075D01*
X19451929Y-13406075D01*
X19480930Y-13406494D01*
G37*
D12*
%TO.C,HOLE1*%
X84135000Y-20256401D02*
G75*
G03*
X82335000Y-20256401I-900000J0D01*
G01*
X82335000Y-20256401D02*
G75*
G03*
X84135000Y-20256401I900000J0D01*
G01*
%TO.C,HOLE3*%
X-165000Y-20256401D02*
G75*
G03*
X-1965000Y-20256401I-900000J0D01*
G01*
X-1965000Y-20256401D02*
G75*
G03*
X-165000Y-20256401I900000J0D01*
G01*
%TO.C,HOLE2*%
X84125000Y-5146401D02*
G75*
G03*
X82325000Y-5146401I-900000J0D01*
G01*
X82325000Y-5146401D02*
G75*
G03*
X84125000Y-5146401I900000J0D01*
G01*
%TO.C,HOLE4*%
X-165000Y-5146401D02*
G75*
G03*
X-1965000Y-5146401I-900000J0D01*
G01*
X-1965000Y-5146401D02*
G75*
G03*
X-165000Y-5146401I900000J0D01*
G01*
D13*
%TO.C,J2*%
X81775000Y-16401D02*
X81775000Y-2676401D01*
X2975000Y-16401D02*
X81775000Y-16401D01*
X2975000Y-16401D02*
X2975000Y-2676401D01*
X1705000Y-16401D02*
X375000Y-16401D01*
X375000Y-16401D02*
X375000Y-1346401D01*
X2975000Y-2676401D02*
X81775000Y-2676401D01*
%TO.C,J1*%
X81775000Y-22726401D02*
X81775000Y-25386401D01*
X2975000Y-22726401D02*
X81775000Y-22726401D01*
X2975000Y-22726401D02*
X2975000Y-25386401D01*
X1705000Y-22726401D02*
X375000Y-22726401D01*
X375000Y-22726401D02*
X375000Y-24056401D01*
X2975000Y-25386401D02*
X81775000Y-25386401D01*
%TD*%
%LPC*%
D14*
%TO.C,HOLE1*%
X83235000Y-20256401D03*
%TD*%
%TO.C,HOLE3*%
X-1065000Y-20256401D03*
%TD*%
%TO.C,HOLE2*%
X83225000Y-5146401D03*
%TD*%
D15*
%TO.C,USB1*%
X2614000Y-9810000D03*
X2614000Y-15590000D03*
D16*
X3114000Y-8375000D03*
X3114000Y-17025000D03*
D17*
X-1086000Y-8375000D03*
X-1086000Y-17025000D03*
%TD*%
D18*
%TO.C,J3*%
X83785000Y-8886401D03*
D19*
X83785000Y-11426401D03*
X83785000Y-13966401D03*
X83785000Y-16506401D03*
%TD*%
D14*
%TO.C,HOLE4*%
X-1065000Y-5146401D03*
%TD*%
D18*
%TO.C,J2*%
X1705000Y-1346401D03*
D19*
X4245000Y-1346401D03*
X6785000Y-1346401D03*
X9325000Y-1346401D03*
X11865000Y-1346401D03*
X14405000Y-1346401D03*
X16945000Y-1346401D03*
X19485000Y-1346401D03*
X22025000Y-1346401D03*
X24565000Y-1346401D03*
X27105000Y-1346401D03*
X29645000Y-1346401D03*
X32185000Y-1346401D03*
X34725000Y-1346401D03*
X37265000Y-1346401D03*
X39805000Y-1346401D03*
X42345000Y-1346401D03*
X44885000Y-1346401D03*
X47425000Y-1346401D03*
X49965000Y-1346401D03*
X52505000Y-1346401D03*
X55045000Y-1346401D03*
X57585000Y-1346401D03*
X60125000Y-1346401D03*
X62665000Y-1346401D03*
X65205000Y-1346401D03*
X67745000Y-1346401D03*
X70285000Y-1346401D03*
X72825000Y-1346401D03*
X75365000Y-1346401D03*
X77905000Y-1346401D03*
X80445000Y-1346401D03*
%TD*%
D18*
%TO.C,J1*%
X1705000Y-24056401D03*
D19*
X4245000Y-24056401D03*
X6785000Y-24056401D03*
X9325000Y-24056401D03*
X11865000Y-24056401D03*
X14405000Y-24056401D03*
X16945000Y-24056401D03*
X19485000Y-24056401D03*
X22025000Y-24056401D03*
X24565000Y-24056401D03*
X27105000Y-24056401D03*
X29645000Y-24056401D03*
X32185000Y-24056401D03*
X34725000Y-24056401D03*
X37265000Y-24056401D03*
X39805000Y-24056401D03*
X42345000Y-24056401D03*
X44885000Y-24056401D03*
X47425000Y-24056401D03*
X49965000Y-24056401D03*
X52505000Y-24056401D03*
X55045000Y-24056401D03*
X57585000Y-24056401D03*
X60125000Y-24056401D03*
X62665000Y-24056401D03*
X65205000Y-24056401D03*
X67745000Y-24056401D03*
X70285000Y-24056401D03*
X72825000Y-24056401D03*
X75365000Y-24056401D03*
X77905000Y-24056401D03*
X80445000Y-24056401D03*
%TD*%
%LPD*%
M02*
