M48
; DRILL file {KiCad (6.0.9)} date Mon Dec 12 23:09:55 2022
; FORMAT={-:-/ absolute / metric / decimal}
; #@! TF.CreationDate,2022-12-12T23:09:55+08:00
; #@! TF.GenerationSoftware,Kicad,Pcbnew,(6.0.9)
; #@! TF.FileFunction,MixedPlating,1,2
FMAT,2
METRIC
; #@! TA.AperFunction,Plated,PTH,ViaDrill
T1C0.300
; #@! TA.AperFunction,Plated,PTH,ViaDrill
T2C0.400
; #@! TA.AperFunction,Plated,PTH,ViaDrill
T3C0.500
; #@! TA.AperFunction,Plated,PTH,ComponentDrill
T4C0.600
; #@! TA.AperFunction,Plated,PTH,ComponentDrill
T5C1.000
; #@! TA.AperFunction,Plated,PTH,ComponentDrill
T6C1.200
; #@! TA.AperFunction,NonPlated,NPTH,ComponentDrill
T7C0.650
%
G90
G05
T1
X6.71Y-7.6
X6.71Y-10.1
X6.72Y-5.26
X10.82Y-7.26
X11.52Y-8.15
X11.53Y-12.21
X16.198Y-6.667
X17.82Y-10.03
X23.83Y-10.78
X24.634Y-12.194
X24.88Y-6.4
X29.47Y-11.26
X29.58Y-8.64
X35.98Y-11.28
X36.59Y-7.4
X36.862Y-15.252
X38.485Y-15.805
X39.25Y-8.33
X41.26Y-9.79
X41.26Y-11.23
X41.652Y-12.194
X41.98Y-9.22
X44.9Y-6.52
X45.68Y-8.95
X46.34Y-9.8
X46.34Y-10.999
X46.35Y-5.07
X47.01Y-11.9
X61.55Y-10.03
X62.652Y-6.867
X69.29Y-10.06
X71.75Y-9.22
X75.33Y-10.04
X75.33Y-11.04
T2
X29.206Y-6.457
X60.83Y-5.15
X60.83Y-11.41
X69.93Y-5.11
T3
X72.87Y-12.68
X72.88Y-7.89
T5
X1.325Y-6.35
X1.325Y-8.89
X1.325Y-11.43
X1.325Y-13.97
X1.33Y-1.33
X1.33Y-18.98
X3.87Y-1.33
X3.87Y-18.98
X6.41Y-1.33
X6.41Y-18.98
X8.95Y-1.33
X8.95Y-18.98
X11.49Y-1.33
X11.49Y-18.98
X14.03Y-1.33
X14.03Y-18.98
X16.57Y-1.33
X16.57Y-18.98
X19.11Y-1.33
X19.11Y-18.98
X21.65Y-1.33
X21.65Y-18.98
X24.19Y-1.33
X24.19Y-18.98
X26.73Y-1.33
X26.73Y-18.98
X29.27Y-1.33
X29.27Y-18.98
X31.81Y-1.33
X31.81Y-18.98
X34.35Y-1.33
X34.35Y-18.98
X36.89Y-1.33
X36.89Y-18.98
X39.43Y-1.33
X39.43Y-18.98
X41.97Y-1.33
X41.97Y-18.98
X44.51Y-1.33
X44.51Y-18.98
X47.05Y-1.33
X47.05Y-18.98
X49.59Y-1.33
X49.59Y-18.98
X52.13Y-1.33
X52.13Y-18.98
X54.67Y-1.33
X54.67Y-18.98
X57.21Y-1.33
X57.21Y-18.98
X59.75Y-1.33
X59.75Y-18.98
X62.29Y-1.33
X62.29Y-18.98
X64.83Y-1.33
X64.83Y-18.98
X67.37Y-1.33
X67.37Y-18.98
X69.91Y-1.33
X69.91Y-18.98
X72.45Y-1.33
X72.45Y-18.98
X74.99Y-1.33
X74.99Y-18.98
X77.53Y-1.33
X77.53Y-18.98
X80.07Y-1.33
X80.07Y-18.98
T6
X8.85Y-7.59
X8.85Y-12.71
X70.86Y-7.58
X70.86Y-12.99
T7
X75.64Y-7.4
X75.64Y-13.18
T4
G00X74.54Y-5.965
M15
G01X75.74Y-5.965
M16
G05
G00X74.54Y-14.615
M15
G01X75.74Y-14.615
M16
G05
G00X78.89Y-5.965
M15
G01X79.79Y-5.965
M16
G05
G00X78.89Y-14.615
M15
G01X79.79Y-14.615
M16
G05
T0
M30
