M48
; DRILL file {KiCad 7.0.11} date Thu Apr 18 20:34:36 2024
; FORMAT={-:-/ absolute / metric / decimal}
; #@! TF.CreationDate,2024-04-18T20:34:36+08:00
; #@! TF.GenerationSoftware,Kicad,Pcbnew,7.0.11
; #@! TF.FileFunction,MixedPlating,1,2
FMAT,2
METRIC
; #@! TA.AperFunction,Plated,PTH,ViaDrill
T1C0.300
; #@! TA.AperFunction,Plated,PTH,ViaDrill
T2C0.400
; #@! TA.AperFunction,Plated,PTH,ComponentDrill
T3C0.600
; #@! TA.AperFunction,Plated,PTH,ComponentDrill
T4C1.000
; #@! TA.AperFunction,Plated,PTH,ComponentDrill
T5C1.200
; #@! TA.AperFunction,NonPlated,NPTH,ComponentDrill
T6C0.650
%
G90
G05
T1
X2.975Y-12.45
X2.976Y-13.446
X10.845Y-6.566
X11.225Y-17.016
X11.64Y-6.566
X12.435Y-6.566
X13.085Y-21.546
X13.088Y-12.846
X13.088Y-15.316
X13.095Y-17.546
X15.705Y-21.526
X18.215Y-21.526
X18.64Y-10.81
X18.65Y-11.78
X18.65Y-12.9
X18.65Y-15.3
X19.64Y-10.83
X19.64Y-11.79
X19.65Y-12.89
X19.77Y-15.3
X20.565Y-7.431
X20.565Y-17.176
X20.565Y-20.266
X21.26Y-6.56
X22.14Y-14.26
X22.214Y-6.56
X23.168Y-6.56
X23.26Y-8.8
X23.26Y-9.87
X23.26Y-10.875
X23.26Y-11.881
X23.26Y-12.886
X23.26Y-15.37
X23.26Y-16.488
X23.26Y-17.605
X23.262Y-14.26
X23.75Y-8.18
X24.122Y-6.56
X24.377Y-12.886
X24.38Y-14.26
X24.74Y-8.18
X25.077Y-6.56
X25.495Y-12.886
X25.497Y-14.26
X25.73Y-8.18
X26.031Y-6.56
X26.612Y-12.886
X26.615Y-14.26
X26.72Y-8.18
X26.985Y-6.56
X27.71Y-8.18
X27.73Y-12.886
X27.732Y-14.26
X27.939Y-6.56
X28.7Y-8.18
X28.848Y-12.886
X28.85Y-14.26
X28.893Y-6.56
X29.69Y-8.18
X29.847Y-6.56
X29.965Y-12.886
X29.965Y-13.571
X29.965Y-14.256
X30.33Y-8.81
X30.62Y-14.92
X30.802Y-6.56
X30.985Y-18.18
X31.31Y-9.86
X31.31Y-10.66
X31.31Y-15.61
X31.6Y-11.46
X31.6Y-12.243
X31.6Y-13.027
X31.6Y-13.81
X31.756Y-6.56
X31.76Y-7.62
X32.02Y-18.18
X32.055Y-16.356
X32.42Y-13.81
X32.71Y-6.56
X32.71Y-7.615
X32.71Y-8.67
X33.055Y-18.18
X33.112Y-16.356
X34.09Y-18.18
X34.145Y-11.776
X34.17Y-16.356
X34.89Y-13.786
X34.895Y-9.336
X35.62Y-16.356
X36.725Y-16.336
X39.302Y-14.557
X40.142Y-19.352
X40.519Y-10.662
X41.227Y-3.554
X42.62Y-14.43
X43.12Y-6.881
X43.455Y-8.456
X43.665Y-11.436
X43.665Y-17.496
X44.021Y-3.554
X44.021Y-21.842
X44.913Y-7.604
X48.339Y-21.842
X48.593Y-3.554
X51.35Y-14.18
X52.48Y-14.92
X52.48Y-15.83
X52.57Y-11.7
X53.91Y-12.94
X54.51Y-13.44
X56.705Y-10.331
X58.245Y-12.076
X58.245Y-16.746
X60.44Y-19.056
X60.55Y-12.64
X61.335Y-19.056
X62.175Y-12.64
X62.23Y-19.056
X63.125Y-19.056
X63.8Y-12.64
X64.02Y-19.056
X70.245Y-10.646
X70.255Y-14.706
X70.39Y-12.64
X70.955Y-15.596
X73.51Y-9.92
X73.52Y-12.64
X73.53Y-15.38
X75.833Y-9.94
X75.85Y-12.64
X75.87Y-15.38
X76.852Y-9.94
X76.868Y-12.64
X76.888Y-15.38
X77.87Y-9.94
X77.887Y-12.64
X77.907Y-15.38
X78.888Y-9.94
X78.905Y-12.64
X78.925Y-15.38
X79.907Y-9.94
X79.923Y-12.64
X79.943Y-15.38
X80.925Y-9.94
X80.942Y-12.64
X80.962Y-15.38
X81.943Y-9.94
X81.96Y-12.64
X81.98Y-15.38
T2
X8.895Y-15.096
X8.915Y-10.316
T4
X1.705Y-1.346
X1.705Y-24.056
X4.245Y-1.346
X4.245Y-24.056
X6.785Y-1.346
X6.785Y-24.056
X9.325Y-1.346
X9.325Y-24.056
X11.865Y-1.346
X11.865Y-24.056
X14.405Y-1.346
X14.405Y-24.056
X16.945Y-1.346
X16.945Y-24.056
X19.485Y-1.346
X19.485Y-24.056
X22.025Y-1.346
X22.025Y-24.056
X24.565Y-1.346
X24.565Y-24.056
X27.105Y-1.346
X27.105Y-24.056
X29.645Y-1.346
X29.645Y-24.056
X32.185Y-1.346
X32.185Y-24.056
X34.725Y-1.346
X34.725Y-24.056
X37.265Y-1.346
X37.265Y-24.056
X39.805Y-1.346
X39.805Y-24.056
X42.345Y-1.346
X42.345Y-24.056
X44.885Y-1.346
X44.885Y-24.056
X47.425Y-1.346
X47.425Y-24.056
X49.965Y-1.346
X49.965Y-24.056
X52.505Y-1.346
X52.505Y-24.056
X55.045Y-1.346
X55.045Y-24.056
X57.585Y-1.346
X57.585Y-24.056
X60.125Y-1.346
X60.125Y-24.056
X62.665Y-1.346
X62.665Y-24.056
X65.205Y-1.346
X65.205Y-24.056
X67.745Y-1.346
X67.745Y-24.056
X70.285Y-1.346
X70.285Y-24.056
X72.825Y-1.346
X72.825Y-24.056
X75.365Y-1.346
X75.365Y-24.056
X77.905Y-1.346
X77.905Y-24.056
X80.445Y-1.346
X80.445Y-24.056
X83.785Y-8.886
X83.785Y-11.426
X83.785Y-13.966
X83.785Y-16.506
T5
X-1.065Y-5.146
X-1.065Y-20.256
X83.225Y-5.146
X83.235Y-20.256
T6
X2.614Y-9.81
X2.614Y-15.59
T3
G00X-0.636Y-8.375
M15
G01X-1.536Y-8.375
M16
G05
G00X-0.636Y-17.025
M15
G01X-1.536Y-17.025
M16
G05
G00X3.714Y-8.375
M15
G01X2.514Y-8.375
M16
G05
G00X3.714Y-17.025
M15
G01X2.514Y-17.025
M16
G05
M30
