M48
; DRILL file {KiCad 7.0.5} date Thu Jun 29 01:51:13 2023
; FORMAT={-:-/ absolute / metric / decimal}
; #@! TF.CreationDate,2023-06-29T01:51:13+08:00
; #@! TF.GenerationSoftware,Kicad,Pcbnew,7.0.5
; #@! TF.FileFunction,MixedPlating,1,2
FMAT,2
METRIC
; #@! TA.AperFunction,Plated,PTH,ViaDrill
T1C0.300
; #@! TA.AperFunction,Plated,PTH,ViaDrill
T2C0.400
; #@! TA.AperFunction,Plated,PTH,ComponentDrill
T3C0.600
; #@! TA.AperFunction,Plated,PTH,ComponentDrill
T4C1.000
; #@! TA.AperFunction,Plated,PTH,ComponentDrill
T5C1.200
; #@! TA.AperFunction,NonPlated,NPTH,ComponentDrill
T6C0.650
%
G90
G05
T1
X2.98Y-5.33
X2.98Y-7.75
X2.98Y-10.17
X10.82Y-7.26
X11.52Y-8.15
X11.53Y-12.21
X16.198Y-6.667
X17.82Y-10.03
X23.83Y-10.78
X24.634Y-12.194
X24.88Y-6.4
X27.06Y-9.26
X29.47Y-11.26
X29.58Y-8.64
X36.862Y-15.252
X38.11Y-5.36
X38.11Y-9.26
X38.11Y-11.42
X38.485Y-15.805
X38.49Y-14.52
X41.256Y-12.194
X41.26Y-9.79
X41.26Y-11.23
X41.98Y-9.22
X44.9Y-6.52
X45.68Y-8.95
X46.34Y-9.8
X46.34Y-10.999
X46.41Y-5.01
X47.01Y-11.9
X50.5Y-11.61
X61.55Y-10.03
X62.652Y-6.867
X64.01Y-3.14
X66.09Y-3.89
X68.87Y-3.89
X69.29Y-10.06
X76.005Y-11.426
X76.01Y-8.93
X78.799Y-9.41
X78.8Y-10.406
T2
X29.206Y-6.457
X60.83Y-5.15
X60.83Y-11.41
X71.335Y-4.985
X72.86Y-12.54
X72.88Y-7.76
T4
X-2.01Y-6.35
X-2.01Y-8.89
X-2.01Y-11.43
X-2.01Y-13.97
X1.33Y-1.33
X1.33Y-18.98
X3.87Y-1.33
X3.87Y-18.98
X6.41Y-1.33
X6.41Y-18.98
X8.95Y-1.33
X8.95Y-18.98
X11.49Y-1.33
X11.49Y-18.98
X14.03Y-1.33
X14.03Y-18.98
X16.57Y-1.33
X16.57Y-18.98
X19.11Y-1.33
X19.11Y-18.98
X21.65Y-1.33
X21.65Y-18.98
X24.19Y-1.33
X24.19Y-18.98
X26.73Y-1.33
X26.73Y-18.98
X29.27Y-1.33
X29.27Y-18.98
X31.81Y-1.33
X31.81Y-18.98
X34.35Y-1.33
X34.35Y-18.98
X36.89Y-1.33
X36.89Y-18.98
X39.43Y-1.33
X39.43Y-18.98
X41.97Y-1.33
X41.97Y-18.98
X44.51Y-1.33
X44.51Y-18.98
X47.05Y-1.33
X47.05Y-18.98
X49.59Y-1.33
X49.59Y-18.98
X52.13Y-1.33
X52.13Y-18.98
X54.67Y-1.33
X54.67Y-18.98
X57.21Y-1.33
X57.21Y-18.98
X59.75Y-1.33
X59.75Y-18.98
X62.29Y-1.33
X62.29Y-18.98
X64.83Y-1.33
X64.83Y-18.98
X67.37Y-1.33
X67.37Y-18.98
X69.91Y-1.33
X69.91Y-18.98
X72.45Y-1.33
X72.45Y-18.98
X74.99Y-1.33
X74.99Y-18.98
X77.53Y-1.33
X77.53Y-18.98
X80.07Y-1.33
X80.07Y-18.98
T5
X-1.46Y-2.6
X-1.45Y-17.71
X82.84Y-2.6
X82.84Y-17.71
T6
X79.161Y-7.266
X79.161Y-13.046
T3
G00X78.061Y-5.831
M15
G01X79.261Y-5.831
M16
G05
G00X78.061Y-14.481
M15
G01X79.261Y-14.481
M16
G05
G00X82.411Y-5.831
M15
G01X83.311Y-5.831
M16
G05
G00X82.411Y-14.481
M15
G01X83.311Y-14.481
M16
G05
T0
M30
