%TF.GenerationSoftware,KiCad,Pcbnew,7.0.11*%
%TF.CreationDate,2024-04-18T20:34:33+08:00*%
%TF.ProjectId,UINIO-MCU-GD32F350RBT6,55494e49-4f2d-44d4-9355-2d4744333246,Version 3.3.0*%
%TF.SameCoordinates,PX6853c38PY56b895f*%
%TF.FileFunction,Paste,Top*%
%TF.FilePolarity,Positive*%
%FSLAX46Y46*%
G04 Gerber Fmt 4.6, Leading zero omitted, Abs format (unit mm)*
G04 Created by KiCad (PCBNEW 7.0.11) date 2024-04-18 20:34:33*
%MOMM*%
%LPD*%
G01*
G04 APERTURE LIST*
G04 Aperture macros list*
%AMRoundRect*
0 Rectangle with rounded corners*
0 $1 Rounding radius*
0 $2 $3 $4 $5 $6 $7 $8 $9 X,Y pos of 4 corners*
0 Add a 4 corners polygon primitive as box body*
4,1,4,$2,$3,$4,$5,$6,$7,$8,$9,$2,$3,0*
0 Add four circle primitives for the rounded corners*
1,1,$1+$1,$2,$3*
1,1,$1+$1,$4,$5*
1,1,$1+$1,$6,$7*
1,1,$1+$1,$8,$9*
0 Add four rect primitives between the rounded corners*
20,1,$1+$1,$2,$3,$4,$5,0*
20,1,$1+$1,$4,$5,$6,$7,0*
20,1,$1+$1,$6,$7,$8,$9,0*
20,1,$1+$1,$8,$9,$2,$3,0*%
%AMHorizOval*
0 Thick line with rounded ends*
0 $1 width*
0 $2 $3 position (X,Y) of the first rounded end (center of the circle)*
0 $4 $5 position (X,Y) of the second rounded end (center of the circle)*
0 Add line between two ends*
20,1,$1,$2,$3,$4,$5,0*
0 Add two circle primitives to create the rounded ends*
1,1,$1,$2,$3*
1,1,$1,$4,$5*%
G04 Aperture macros list end*
%ADD10C,0.120000*%
%ADD11RoundRect,0.200000X-0.275000X0.200000X-0.275000X-0.200000X0.275000X-0.200000X0.275000X0.200000X0*%
%ADD12RoundRect,0.225000X-0.225000X-0.250000X0.225000X-0.250000X0.225000X0.250000X-0.225000X0.250000X0*%
%ADD13RoundRect,0.225000X-0.250000X0.225000X-0.250000X-0.225000X0.250000X-0.225000X0.250000X0.225000X0*%
%ADD14RoundRect,0.200000X-0.200000X-0.275000X0.200000X-0.275000X0.200000X0.275000X-0.200000X0.275000X0*%
%ADD15RoundRect,0.225000X0.225000X0.250000X-0.225000X0.250000X-0.225000X-0.250000X0.225000X-0.250000X0*%
%ADD16RoundRect,0.200000X0.275000X-0.200000X0.275000X0.200000X-0.275000X0.200000X-0.275000X-0.200000X0*%
%ADD17RoundRect,0.218750X0.256250X-0.218750X0.256250X0.218750X-0.256250X0.218750X-0.256250X-0.218750X0*%
%ADD18HorizOval,0.300000X-0.601041X-0.601041X0.601041X0.601041X0*%
%ADD19HorizOval,0.300000X0.601041X-0.601041X-0.601041X0.601041X0*%
%ADD20R,1.200000X1.400000*%
%ADD21R,1.000000X0.600000*%
%ADD22RoundRect,0.225000X0.250000X-0.225000X0.250000X0.225000X-0.250000X0.225000X-0.250000X-0.225000X0*%
%ADD23RoundRect,0.200000X0.200000X0.275000X-0.200000X0.275000X-0.200000X-0.275000X0.200000X-0.275000X0*%
%ADD24R,1.150000X0.600000*%
%ADD25R,1.150000X0.300000*%
%ADD26R,1.200000X0.650000*%
%ADD27R,1.800000X1.000000*%
%ADD28RoundRect,0.218750X-0.256250X0.218750X-0.256250X-0.218750X0.256250X-0.218750X0.256250X0.218750X0*%
G04 APERTURE END LIST*
%TO.C,USB1*%
D10*
X4451000Y-9800000D02*
X3301000Y-9800000D01*
X3301000Y-9200000D01*
X4451000Y-9200000D01*
X4451000Y-9800000D01*
G36*
X4451000Y-9800000D02*
G01*
X3301000Y-9800000D01*
X3301000Y-9200000D01*
X4451000Y-9200000D01*
X4451000Y-9800000D01*
G37*
X4451000Y-10600000D02*
X3301000Y-10600000D01*
X3301000Y-10000000D01*
X4451000Y-10000000D01*
X4451000Y-10600000D01*
G36*
X4451000Y-10600000D02*
G01*
X3301000Y-10600000D01*
X3301000Y-10000000D01*
X4451000Y-10000000D01*
X4451000Y-10600000D01*
G37*
X4451000Y-11100000D02*
X3301000Y-11100000D01*
X3301000Y-10800000D01*
X4451000Y-10800000D01*
X4451000Y-11100000D01*
G36*
X4451000Y-11100000D02*
G01*
X3301000Y-11100000D01*
X3301000Y-10800000D01*
X4451000Y-10800000D01*
X4451000Y-11100000D01*
G37*
X4451000Y-11600000D02*
X3301000Y-11600000D01*
X3301000Y-11300000D01*
X4451000Y-11300000D01*
X4451000Y-11600000D01*
G36*
X4451000Y-11600000D02*
G01*
X3301000Y-11600000D01*
X3301000Y-11300000D01*
X4451000Y-11300000D01*
X4451000Y-11600000D01*
G37*
X4451000Y-12100000D02*
X3301000Y-12100000D01*
X3301000Y-11800000D01*
X4451000Y-11800000D01*
X4451000Y-12100000D01*
G36*
X4451000Y-12100000D02*
G01*
X3301000Y-12100000D01*
X3301000Y-11800000D01*
X4451000Y-11800000D01*
X4451000Y-12100000D01*
G37*
X4451000Y-12600000D02*
X3301000Y-12600000D01*
X3301000Y-12300000D01*
X4451000Y-12300000D01*
X4451000Y-12600000D01*
G36*
X4451000Y-12600000D02*
G01*
X3301000Y-12600000D01*
X3301000Y-12300000D01*
X4451000Y-12300000D01*
X4451000Y-12600000D01*
G37*
X4451000Y-13100000D02*
X3301000Y-13100000D01*
X3301000Y-12800000D01*
X4451000Y-12800000D01*
X4451000Y-13100000D01*
G36*
X4451000Y-13100000D02*
G01*
X3301000Y-13100000D01*
X3301000Y-12800000D01*
X4451000Y-12800000D01*
X4451000Y-13100000D01*
G37*
X4451000Y-13600000D02*
X3301000Y-13600000D01*
X3301000Y-13300000D01*
X4451000Y-13300000D01*
X4451000Y-13600000D01*
G36*
X4451000Y-13600000D02*
G01*
X3301000Y-13600000D01*
X3301000Y-13300000D01*
X4451000Y-13300000D01*
X4451000Y-13600000D01*
G37*
X4451000Y-14100000D02*
X3301000Y-14100000D01*
X3301000Y-13800000D01*
X4451000Y-13800000D01*
X4451000Y-14100000D01*
G36*
X4451000Y-14100000D02*
G01*
X3301000Y-14100000D01*
X3301000Y-13800000D01*
X4451000Y-13800000D01*
X4451000Y-14100000D01*
G37*
X4451000Y-14600000D02*
X3301000Y-14600000D01*
X3301000Y-14300000D01*
X4451000Y-14300000D01*
X4451000Y-14600000D01*
G36*
X4451000Y-14600000D02*
G01*
X3301000Y-14600000D01*
X3301000Y-14300000D01*
X4451000Y-14300000D01*
X4451000Y-14600000D01*
G37*
X4451000Y-15400000D02*
X3301000Y-15400000D01*
X3301000Y-14800000D01*
X4451000Y-14800000D01*
X4451000Y-15400000D01*
G36*
X4451000Y-15400000D02*
G01*
X3301000Y-15400000D01*
X3301000Y-14800000D01*
X4451000Y-14800000D01*
X4451000Y-15400000D01*
G37*
X4451000Y-16200000D02*
X3301000Y-16200000D01*
X3301000Y-15600000D01*
X4451000Y-15600000D01*
X4451000Y-16200000D01*
G36*
X4451000Y-16200000D02*
G01*
X3301000Y-16200000D01*
X3301000Y-15600000D01*
X4451000Y-15600000D01*
X4451000Y-16200000D01*
G37*
X3761000Y-7885000D02*
X3855000Y-7913000D01*
X3941000Y-7959000D01*
X4017000Y-8021000D01*
X4079000Y-8097000D01*
X4126000Y-8184000D01*
X4154000Y-8277000D01*
X4164000Y-8375000D01*
X4154000Y-8473000D01*
X4126000Y-8566000D01*
X4079000Y-8653000D01*
X4017000Y-8729000D01*
X3941000Y-8791000D01*
X3855000Y-8837000D01*
X3761000Y-8865000D01*
X3664000Y-8875000D01*
X2564000Y-8875000D01*
X2466000Y-8865000D01*
X2372000Y-8837000D01*
X2286000Y-8791000D01*
X2210000Y-8729000D01*
X2148000Y-8653000D01*
X2102000Y-8566000D01*
X2073000Y-8473000D01*
X2064000Y-8375000D01*
X2073000Y-8277000D01*
X2102000Y-8184000D01*
X2148000Y-8097000D01*
X2210000Y-8021000D01*
X2286000Y-7959000D01*
X2372000Y-7913000D01*
X2466000Y-7885000D01*
X2564000Y-7875000D01*
X3664000Y-7875000D01*
X3761000Y-7885000D01*
G36*
X3761000Y-7885000D02*
G01*
X3855000Y-7913000D01*
X3941000Y-7959000D01*
X4017000Y-8021000D01*
X4079000Y-8097000D01*
X4126000Y-8184000D01*
X4154000Y-8277000D01*
X4164000Y-8375000D01*
X4154000Y-8473000D01*
X4126000Y-8566000D01*
X4079000Y-8653000D01*
X4017000Y-8729000D01*
X3941000Y-8791000D01*
X3855000Y-8837000D01*
X3761000Y-8865000D01*
X3664000Y-8875000D01*
X2564000Y-8875000D01*
X2466000Y-8865000D01*
X2372000Y-8837000D01*
X2286000Y-8791000D01*
X2210000Y-8729000D01*
X2148000Y-8653000D01*
X2102000Y-8566000D01*
X2073000Y-8473000D01*
X2064000Y-8375000D01*
X2073000Y-8277000D01*
X2102000Y-8184000D01*
X2148000Y-8097000D01*
X2210000Y-8021000D01*
X2286000Y-7959000D01*
X2372000Y-7913000D01*
X2466000Y-7885000D01*
X2564000Y-7875000D01*
X3664000Y-7875000D01*
X3761000Y-7885000D01*
G37*
X-539000Y-7885000D02*
X-445000Y-7913000D01*
X-359000Y-7959000D01*
X-283000Y-8021000D01*
X-221000Y-8097000D01*
X-174000Y-8184000D01*
X-146000Y-8277000D01*
X-136000Y-8375000D01*
X-146000Y-8473000D01*
X-174000Y-8566000D01*
X-221000Y-8653000D01*
X-283000Y-8729000D01*
X-359000Y-8791000D01*
X-445000Y-8837000D01*
X-539000Y-8865000D01*
X-636000Y-8875000D01*
X-1536000Y-8875000D01*
X-1634000Y-8865000D01*
X-1728000Y-8837000D01*
X-1814000Y-8791000D01*
X-1890000Y-8729000D01*
X-1952000Y-8653000D01*
X-1998000Y-8566000D01*
X-2027000Y-8473000D01*
X-2036000Y-8375000D01*
X-2027000Y-8277000D01*
X-1998000Y-8184000D01*
X-1952000Y-8097000D01*
X-1890000Y-8021000D01*
X-1814000Y-7959000D01*
X-1728000Y-7913000D01*
X-1634000Y-7885000D01*
X-1536000Y-7875000D01*
X-636000Y-7875000D01*
X-539000Y-7885000D01*
G36*
X-539000Y-7885000D02*
G01*
X-445000Y-7913000D01*
X-359000Y-7959000D01*
X-283000Y-8021000D01*
X-221000Y-8097000D01*
X-174000Y-8184000D01*
X-146000Y-8277000D01*
X-136000Y-8375000D01*
X-146000Y-8473000D01*
X-174000Y-8566000D01*
X-221000Y-8653000D01*
X-283000Y-8729000D01*
X-359000Y-8791000D01*
X-445000Y-8837000D01*
X-539000Y-8865000D01*
X-636000Y-8875000D01*
X-1536000Y-8875000D01*
X-1634000Y-8865000D01*
X-1728000Y-8837000D01*
X-1814000Y-8791000D01*
X-1890000Y-8729000D01*
X-1952000Y-8653000D01*
X-1998000Y-8566000D01*
X-2027000Y-8473000D01*
X-2036000Y-8375000D01*
X-2027000Y-8277000D01*
X-1998000Y-8184000D01*
X-1952000Y-8097000D01*
X-1890000Y-8021000D01*
X-1814000Y-7959000D01*
X-1728000Y-7913000D01*
X-1634000Y-7885000D01*
X-1536000Y-7875000D01*
X-636000Y-7875000D01*
X-539000Y-7885000D01*
G37*
X3761000Y-16535000D02*
X3855000Y-16563000D01*
X3941000Y-16609000D01*
X4017000Y-16671000D01*
X4079000Y-16747000D01*
X4126000Y-16834000D01*
X4154000Y-16927000D01*
X4164000Y-17025000D01*
X4154000Y-17123000D01*
X4126000Y-17216000D01*
X4079000Y-17303000D01*
X4017000Y-17379000D01*
X3941000Y-17441000D01*
X3855000Y-17487000D01*
X3761000Y-17515000D01*
X3664000Y-17525000D01*
X2564000Y-17525000D01*
X2466000Y-17515000D01*
X2372000Y-17487000D01*
X2286000Y-17441000D01*
X2210000Y-17379000D01*
X2148000Y-17303000D01*
X2102000Y-17216000D01*
X2073000Y-17123000D01*
X2064000Y-17025000D01*
X2073000Y-16927000D01*
X2102000Y-16834000D01*
X2148000Y-16747000D01*
X2210000Y-16671000D01*
X2286000Y-16609000D01*
X2372000Y-16563000D01*
X2466000Y-16535000D01*
X2564000Y-16525000D01*
X3664000Y-16525000D01*
X3761000Y-16535000D01*
G36*
X3761000Y-16535000D02*
G01*
X3855000Y-16563000D01*
X3941000Y-16609000D01*
X4017000Y-16671000D01*
X4079000Y-16747000D01*
X4126000Y-16834000D01*
X4154000Y-16927000D01*
X4164000Y-17025000D01*
X4154000Y-17123000D01*
X4126000Y-17216000D01*
X4079000Y-17303000D01*
X4017000Y-17379000D01*
X3941000Y-17441000D01*
X3855000Y-17487000D01*
X3761000Y-17515000D01*
X3664000Y-17525000D01*
X2564000Y-17525000D01*
X2466000Y-17515000D01*
X2372000Y-17487000D01*
X2286000Y-17441000D01*
X2210000Y-17379000D01*
X2148000Y-17303000D01*
X2102000Y-17216000D01*
X2073000Y-17123000D01*
X2064000Y-17025000D01*
X2073000Y-16927000D01*
X2102000Y-16834000D01*
X2148000Y-16747000D01*
X2210000Y-16671000D01*
X2286000Y-16609000D01*
X2372000Y-16563000D01*
X2466000Y-16535000D01*
X2564000Y-16525000D01*
X3664000Y-16525000D01*
X3761000Y-16535000D01*
G37*
X-539000Y-16535000D02*
X-445000Y-16563000D01*
X-359000Y-16609000D01*
X-283000Y-16671000D01*
X-221000Y-16747000D01*
X-174000Y-16834000D01*
X-146000Y-16927000D01*
X-136000Y-17025000D01*
X-146000Y-17123000D01*
X-174000Y-17216000D01*
X-221000Y-17303000D01*
X-283000Y-17379000D01*
X-359000Y-17441000D01*
X-445000Y-17487000D01*
X-539000Y-17515000D01*
X-636000Y-17525000D01*
X-1536000Y-17525000D01*
X-1634000Y-17515000D01*
X-1728000Y-17487000D01*
X-1814000Y-17441000D01*
X-1890000Y-17379000D01*
X-1952000Y-17303000D01*
X-1998000Y-17216000D01*
X-2027000Y-17123000D01*
X-2036000Y-17025000D01*
X-2027000Y-16927000D01*
X-1998000Y-16834000D01*
X-1952000Y-16747000D01*
X-1890000Y-16671000D01*
X-1814000Y-16609000D01*
X-1728000Y-16563000D01*
X-1634000Y-16535000D01*
X-1536000Y-16525000D01*
X-636000Y-16525000D01*
X-539000Y-16535000D01*
G36*
X-539000Y-16535000D02*
G01*
X-445000Y-16563000D01*
X-359000Y-16609000D01*
X-283000Y-16671000D01*
X-221000Y-16747000D01*
X-174000Y-16834000D01*
X-146000Y-16927000D01*
X-136000Y-17025000D01*
X-146000Y-17123000D01*
X-174000Y-17216000D01*
X-221000Y-17303000D01*
X-283000Y-17379000D01*
X-359000Y-17441000D01*
X-445000Y-17487000D01*
X-539000Y-17515000D01*
X-636000Y-17525000D01*
X-1536000Y-17525000D01*
X-1634000Y-17515000D01*
X-1728000Y-17487000D01*
X-1814000Y-17441000D01*
X-1890000Y-17379000D01*
X-1952000Y-17303000D01*
X-1998000Y-17216000D01*
X-2027000Y-17123000D01*
X-2036000Y-17025000D01*
X-2027000Y-16927000D01*
X-1998000Y-16834000D01*
X-1952000Y-16747000D01*
X-1890000Y-16671000D01*
X-1814000Y-16609000D01*
X-1728000Y-16563000D01*
X-1634000Y-16535000D01*
X-1536000Y-16525000D01*
X-636000Y-16525000D01*
X-539000Y-16535000D01*
G37*
%TD*%
D11*
%TO.C,R5*%
X68965000Y-8681401D03*
X68965000Y-10331401D03*
%TD*%
D12*
%TO.C,C8*%
X24775000Y-9506401D03*
X26325000Y-9506401D03*
%TD*%
D13*
%TO.C,C7*%
X67035000Y-15161401D03*
X67035000Y-16711401D03*
%TD*%
D14*
%TO.C,R11*%
X15275000Y-16635000D03*
X16925000Y-16635000D03*
%TD*%
D15*
%TO.C,C11*%
X34890000Y-14706401D03*
X33340000Y-14706401D03*
%TD*%
D16*
%TO.C,R2*%
X55765000Y-10331401D03*
X55765000Y-8681401D03*
%TD*%
D11*
%TO.C,R6*%
X68975000Y-15111401D03*
X68975000Y-16761401D03*
%TD*%
D14*
%TO.C,R10*%
X15275000Y-11450000D03*
X16925000Y-11450000D03*
%TD*%
D17*
%TO.C,L1*%
X53845000Y-16723901D03*
X53845000Y-15148901D03*
%TD*%
D13*
%TO.C,C2*%
X67025000Y-8731401D03*
X67025000Y-10281401D03*
%TD*%
D16*
%TO.C,R3*%
X55785000Y-16761401D03*
X55785000Y-15111401D03*
%TD*%
D18*
%TO.C,U2*%
X36950849Y-14114214D03*
X37304402Y-14467767D03*
X37657955Y-14821320D03*
X38011509Y-15174874D03*
X38365062Y-15528427D03*
X38718616Y-15881981D03*
X39072169Y-16235534D03*
X39425722Y-16589087D03*
X39779276Y-16942641D03*
X40132829Y-17296194D03*
X40486382Y-17649747D03*
X40839936Y-18003301D03*
X41193489Y-18356854D03*
X41547043Y-18710408D03*
X41900596Y-19063961D03*
X42254149Y-19417514D03*
D19*
X45082577Y-19417514D03*
X45436130Y-19063961D03*
X45789683Y-18710408D03*
X46143237Y-18356854D03*
X46496790Y-18003301D03*
X46850344Y-17649747D03*
X47203897Y-17296194D03*
X47557450Y-16942641D03*
X47911004Y-16589087D03*
X48264557Y-16235534D03*
X48618110Y-15881981D03*
X48971664Y-15528427D03*
X49325217Y-15174874D03*
X49678771Y-14821320D03*
X50032324Y-14467767D03*
X50385877Y-14114214D03*
D18*
X50385877Y-11285786D03*
X50032324Y-10932233D03*
X49678771Y-10578680D03*
X49325217Y-10225126D03*
X48971664Y-9871573D03*
X48618110Y-9518019D03*
X48264557Y-9164466D03*
X47911004Y-8810913D03*
X47557450Y-8457359D03*
X47203897Y-8103806D03*
X46850344Y-7750253D03*
X46496790Y-7396699D03*
X46143237Y-7043146D03*
X45789683Y-6689592D03*
X45436130Y-6336039D03*
X45082577Y-5982486D03*
D19*
X42254149Y-5982486D03*
X41900596Y-6336039D03*
X41547043Y-6689592D03*
X41193489Y-7043146D03*
X40839936Y-7396699D03*
X40486382Y-7750253D03*
X40132829Y-8103806D03*
X39779276Y-8457359D03*
X39425722Y-8810913D03*
X39072169Y-9164466D03*
X38718616Y-9518019D03*
X38365062Y-9871573D03*
X38011509Y-10225126D03*
X37657955Y-10578680D03*
X37304402Y-10932233D03*
X36950849Y-11285786D03*
%TD*%
D20*
%TO.C,Y2*%
X29565000Y-18076401D03*
X29565000Y-15876401D03*
X27865000Y-15876401D03*
X27865000Y-18076401D03*
%TD*%
D12*
%TO.C,C9*%
X24775000Y-11716401D03*
X26325000Y-11716401D03*
%TD*%
D13*
%TO.C,C5*%
X53845000Y-8731401D03*
X53845000Y-10281401D03*
%TD*%
D21*
%TO.C,U1*%
X15375000Y-7451401D03*
X15375000Y-8401401D03*
X15375000Y-9351401D03*
X17975000Y-9351401D03*
X17975000Y-7451401D03*
%TD*%
D13*
%TO.C,C1*%
X13795000Y-7796401D03*
X13795000Y-9346401D03*
%TD*%
D22*
%TO.C,C3*%
X19555000Y-8981401D03*
X19555000Y-7431401D03*
%TD*%
D23*
%TO.C,R7*%
X16925000Y-13356401D03*
X15275000Y-13356401D03*
%TD*%
D24*
%TO.C,USB1*%
X3876000Y-9500000D03*
X3876000Y-10300000D03*
D25*
X3876000Y-11450000D03*
X3876000Y-12450000D03*
X3876000Y-12950000D03*
X3876000Y-13950000D03*
D24*
X3876000Y-15900000D03*
X3876000Y-15100000D03*
D25*
X3876000Y-14450000D03*
X3876000Y-13450000D03*
X3876000Y-11950000D03*
X3876000Y-10950000D03*
%TD*%
D12*
%TO.C,C4*%
X33340000Y-10656401D03*
X34890000Y-10656401D03*
%TD*%
D26*
%TO.C,SW2*%
X60035000Y-15106401D03*
X64335000Y-15106401D03*
X60035000Y-17256401D03*
X64335000Y-17256401D03*
%TD*%
D23*
%TO.C,R1*%
X16925000Y-18095000D03*
X15275000Y-18095000D03*
%TD*%
%TO.C,R8*%
X16925000Y-14816401D03*
X15275000Y-14816401D03*
%TD*%
D26*
%TO.C,SW1*%
X60035000Y-8136401D03*
X64335000Y-8136401D03*
X60035000Y-10286401D03*
X64335000Y-10286401D03*
%TD*%
D12*
%TO.C,C6*%
X24775000Y-18076401D03*
X26325000Y-18076401D03*
%TD*%
D27*
%TO.C,Y1*%
X28210000Y-11856401D03*
X28210000Y-9356401D03*
%TD*%
D28*
%TO.C,D1*%
X18910000Y-18132500D03*
X18910000Y-16557500D03*
%TD*%
D12*
%TO.C,C10*%
X24775000Y-15876401D03*
X26325000Y-15876401D03*
%TD*%
M02*
