%TF.GenerationSoftware,KiCad,Pcbnew,7.0.10*%
%TF.CreationDate,2024-01-31T14:40:52+08:00*%
%TF.ProjectId,UINIO-MCU-GD32F350RBT6,55494e49-4f2d-44d4-9355-2d4744333246,Version 3.1.1*%
%TF.SameCoordinates,PX68576d0PY5926440*%
%TF.FileFunction,Copper,L2,Bot*%
%TF.FilePolarity,Positive*%
%FSLAX46Y46*%
G04 Gerber Fmt 4.6, Leading zero omitted, Abs format (unit mm)*
G04 Created by KiCad (PCBNEW 7.0.10) date 2024-01-31 14:40:52*
%MOMM*%
%LPD*%
G01*
G04 APERTURE LIST*
%TA.AperFunction,ComponentPad*%
%ADD10C,1.200000*%
%TD*%
%TA.AperFunction,ComponentPad*%
%ADD11O,2.100000X1.000000*%
%TD*%
%TA.AperFunction,ComponentPad*%
%ADD12O,1.900000X1.000000*%
%TD*%
%TA.AperFunction,ComponentPad*%
%ADD13R,1.700000X1.700000*%
%TD*%
%TA.AperFunction,ComponentPad*%
%ADD14O,1.700000X1.700000*%
%TD*%
%TA.AperFunction,ViaPad*%
%ADD15C,0.500000*%
%TD*%
%TA.AperFunction,ViaPad*%
%ADD16C,0.900000*%
%TD*%
%TA.AperFunction,ViaPad*%
%ADD17C,0.700000*%
%TD*%
%TA.AperFunction,Conductor*%
%ADD18C,0.300000*%
%TD*%
%TA.AperFunction,Conductor*%
%ADD19C,0.500000*%
%TD*%
%TA.AperFunction,Conductor*%
%ADD20C,0.200000*%
%TD*%
G04 APERTURE END LIST*
D10*
%TO.P,HOLE1,*%
%TO.N,*%
X83220000Y-17710000D03*
%TD*%
%TO.P,HOLE3,*%
%TO.N,*%
X-1080000Y-17710000D03*
%TD*%
%TO.P,HOLE2,*%
%TO.N,*%
X83210000Y-2600000D03*
%TD*%
D11*
%TO.P,USB1,13,GND*%
%TO.N,GND*%
X3099000Y-5828599D03*
%TO.P,USB1,14,GND*%
X3099000Y-14478599D03*
D12*
%TO.P,USB1,15,GND*%
X-1101000Y-5828599D03*
%TO.P,USB1,16,GND*%
X-1101000Y-14478599D03*
%TD*%
D13*
%TO.P,J3,1,Pin_1*%
%TO.N,GND*%
X83770000Y-6340000D03*
D14*
%TO.P,J3,2,Pin_2*%
%TO.N,/PA14{slash}SWCLK*%
X83770000Y-8880000D03*
%TO.P,J3,3,Pin_3*%
%TO.N,/PA13{slash}SWDIO*%
X83770000Y-11420000D03*
%TO.P,J3,4,Pin_4*%
%TO.N,/VDD_3.3V*%
X83770000Y-13960000D03*
%TD*%
D10*
%TO.P,HOLE4,*%
%TO.N,*%
X-1080000Y-2600000D03*
%TD*%
D13*
%TO.P,J2,1,Pin_1*%
%TO.N,GND*%
X1690000Y-1330000D03*
D14*
%TO.P,J2,2,Pin_2*%
%TO.N,/VDD_3.3V*%
X4230000Y-1330000D03*
%TO.P,J2,3,Pin_3*%
%TO.N,/PB9*%
X6770000Y-1330000D03*
%TO.P,J2,4,Pin_4*%
%TO.N,/PB8*%
X9310000Y-1330000D03*
%TO.P,J2,5,Pin_5*%
%TO.N,/BOOT0*%
X11850000Y-1330000D03*
%TO.P,J2,6,Pin_6*%
%TO.N,/PB7*%
X14390000Y-1330000D03*
%TO.P,J2,7,Pin_7*%
%TO.N,/PB6*%
X16930000Y-1330000D03*
%TO.P,J2,8,Pin_8*%
%TO.N,/PB5*%
X19470000Y-1330000D03*
%TO.P,J2,9,Pin_9*%
%TO.N,/PB4*%
X22010000Y-1330000D03*
%TO.P,J2,10,Pin_10*%
%TO.N,/PB3*%
X24550000Y-1330000D03*
%TO.P,J2,11,Pin_11*%
%TO.N,/PD2*%
X27090000Y-1330000D03*
%TO.P,J2,12,Pin_12*%
%TO.N,/PC12*%
X29630000Y-1330000D03*
%TO.P,J2,13,Pin_13*%
%TO.N,/PC11*%
X32170000Y-1330000D03*
%TO.P,J2,14,Pin_14*%
%TO.N,/PC10*%
X34710000Y-1330000D03*
%TO.P,J2,15,Pin_15*%
%TO.N,/PA15*%
X37250000Y-1330000D03*
%TO.P,J2,16,Pin_16*%
%TO.N,/PA14{slash}SWCLK*%
X39790000Y-1330000D03*
%TO.P,J2,17,Pin_17*%
%TO.N,/PF7*%
X42330000Y-1330000D03*
%TO.P,J2,18,Pin_18*%
%TO.N,/PF6*%
X44870000Y-1330000D03*
%TO.P,J2,19,Pin_19*%
%TO.N,/PA13{slash}SWDIO*%
X47410000Y-1330000D03*
%TO.P,J2,20,Pin_20*%
%TO.N,/PA12*%
X49950000Y-1330000D03*
%TO.P,J2,21,Pin_21*%
%TO.N,/PA11*%
X52490000Y-1330000D03*
%TO.P,J2,22,Pin_22*%
%TO.N,/PA10*%
X55030000Y-1330000D03*
%TO.P,J2,23,Pin_23*%
%TO.N,/PA9*%
X57570000Y-1330000D03*
%TO.P,J2,24,Pin_24*%
%TO.N,/PA8*%
X60110000Y-1330000D03*
%TO.P,J2,25,Pin_25*%
%TO.N,/PC9*%
X62650000Y-1330000D03*
%TO.P,J2,26,Pin_26*%
%TO.N,/PC8*%
X65190000Y-1330000D03*
%TO.P,J2,27,Pin_27*%
%TO.N,/PC7*%
X67730000Y-1330000D03*
%TO.P,J2,28,Pin_28*%
%TO.N,/PC6*%
X70270000Y-1330000D03*
%TO.P,J2,29,Pin_29*%
%TO.N,/PB15*%
X72810000Y-1330000D03*
%TO.P,J2,30,Pin_30*%
%TO.N,/PB14*%
X75350000Y-1330000D03*
%TO.P,J2,31,Pin_31*%
%TO.N,/PB13*%
X77890000Y-1330000D03*
%TO.P,J2,32,Pin_32*%
%TO.N,/PB12*%
X80430000Y-1330000D03*
%TD*%
D13*
%TO.P,J1,1,Pin_1*%
%TO.N,GND*%
X1690000Y-18980000D03*
D14*
%TO.P,J1,2,Pin_2*%
%TO.N,/VDD_5V*%
X4230000Y-18980000D03*
%TO.P,J1,3,Pin_3*%
%TO.N,GND*%
X6770000Y-18980000D03*
%TO.P,J1,4,Pin_4*%
%TO.N,/VDD_3.3V*%
X9310000Y-18980000D03*
%TO.P,J1,5,Pin_5*%
%TO.N,/VBAT*%
X11850000Y-18980000D03*
%TO.P,J1,6,Pin_6*%
%TO.N,/PC13*%
X14390000Y-18980000D03*
%TO.P,J1,7,Pin_7*%
%TO.N,/NRST*%
X16930000Y-18980000D03*
%TO.P,J1,8,Pin_8*%
%TO.N,/PC0*%
X19470000Y-18980000D03*
%TO.P,J1,9,Pin_9*%
%TO.N,/PC1*%
X22010000Y-18980000D03*
%TO.P,J1,10,Pin_10*%
%TO.N,/PC2*%
X24550000Y-18980000D03*
%TO.P,J1,11,Pin_11*%
%TO.N,/PC3*%
X27090000Y-18980000D03*
%TO.P,J1,12,Pin_12*%
%TO.N,/VDD_3.3V*%
X29630000Y-18980000D03*
%TO.P,J1,13,Pin_13*%
%TO.N,GND*%
X32170000Y-18980000D03*
%TO.P,J1,14,Pin_14*%
%TO.N,/PA0*%
X34710000Y-18980000D03*
%TO.P,J1,15,Pin_15*%
%TO.N,/PA1*%
X37250000Y-18980000D03*
%TO.P,J1,16,Pin_16*%
%TO.N,/PA2*%
X39790000Y-18980000D03*
%TO.P,J1,17,Pin_17*%
%TO.N,/PA3*%
X42330000Y-18980000D03*
%TO.P,J1,18,Pin_18*%
%TO.N,/PF4*%
X44870000Y-18980000D03*
%TO.P,J1,19,Pin_19*%
%TO.N,/PF5*%
X47410000Y-18980000D03*
%TO.P,J1,20,Pin_20*%
%TO.N,/PA4*%
X49950000Y-18980000D03*
%TO.P,J1,21,Pin_21*%
%TO.N,/PA5*%
X52490000Y-18980000D03*
%TO.P,J1,22,Pin_22*%
%TO.N,/PA6*%
X55030000Y-18980000D03*
%TO.P,J1,23,Pin_23*%
%TO.N,/PA7*%
X57570000Y-18980000D03*
%TO.P,J1,24,Pin_24*%
%TO.N,/PC4*%
X60110000Y-18980000D03*
%TO.P,J1,25,Pin_25*%
%TO.N,/PC5*%
X62650000Y-18980000D03*
%TO.P,J1,26,Pin_26*%
%TO.N,/PB0*%
X65190000Y-18980000D03*
%TO.P,J1,27,Pin_27*%
%TO.N,/PB1*%
X67730000Y-18980000D03*
%TO.P,J1,28,Pin_28*%
%TO.N,/PB2*%
X70270000Y-18980000D03*
%TO.P,J1,29,Pin_29*%
%TO.N,/PB10*%
X72810000Y-18980000D03*
%TO.P,J1,30,Pin_30*%
%TO.N,/PB11*%
X75350000Y-18980000D03*
%TO.P,J1,31,Pin_31*%
%TO.N,/VDD_3.3V*%
X77890000Y-18980000D03*
%TO.P,J1,32,Pin_32*%
%TO.N,GND*%
X80430000Y-18980000D03*
%TD*%
D15*
%TO.N,GND*%
X54700000Y-11050000D03*
X15670000Y-16420000D03*
X40500000Y-10520000D03*
X43650000Y-11050000D03*
X12890000Y-16420000D03*
X35420000Y-9310500D03*
X35420000Y-10510000D03*
D16*
X52554000Y-13852500D03*
D17*
X65562090Y-13643150D03*
D15*
X78780000Y-14980000D03*
X19107500Y-13442500D03*
X52180000Y-11670000D03*
X6184819Y-8924427D03*
X52290000Y-9050000D03*
X63940000Y-10280000D03*
X43650000Y-14950000D03*
X6180000Y-11420000D03*
X78780000Y-12560000D03*
X43270000Y-5790000D03*
X36860000Y-13789500D03*
X12470000Y-10250000D03*
X78780000Y-10140000D03*
X40500000Y-9080000D03*
D16*
X10425000Y-15325000D03*
D15*
X43650000Y-8890000D03*
X20210000Y-10280000D03*
X35349500Y-15300000D03*
X70940000Y-13050000D03*
X31260000Y-8700000D03*
D16*
%TO.N,/VDD_5V*%
X8880000Y-12550000D03*
X8900000Y-7770000D03*
D15*
%TO.N,/BOOT0*%
X40504000Y-8116000D03*
X57126000Y-8116000D03*
D17*
%TO.N,/VDD_3.3V*%
X17750000Y-17170000D03*
D16*
X20930000Y-15160000D03*
D17*
X34750000Y-8410000D03*
X56880000Y-13910000D03*
X57930000Y-9530000D03*
D16*
X20930000Y-8900000D03*
D15*
%TO.N,/VBAT*%
X36080000Y-11360000D03*
%TO.N,/PC13*%
X39780000Y-11090000D03*
%TO.N,/PA14{slash}SWCLK*%
X43275000Y-4505000D03*
X70230000Y-8100000D03*
%TO.N,/PA13{slash}SWDIO*%
X70240000Y-12160000D03*
X44897750Y-5057750D03*
%TO.N,Net-(USB1-CC1)*%
X5140000Y-8900000D03*
X5140000Y-6560000D03*
%TO.N,/USB_Data+*%
X2960553Y-10900000D03*
X2960000Y-9903599D03*
%TO.N,Net-(USB1-CC2)*%
X5150000Y-13750000D03*
X5150000Y-11900000D03*
%TD*%
D18*
%TO.N,GND*%
X40500000Y-10520000D02*
X40500000Y-11464974D01*
X35420000Y-9310500D02*
X35420000Y-10510000D01*
D19*
X3099000Y-14478599D02*
X-1101000Y-14478599D01*
D18*
X40490000Y-9080000D02*
X36860000Y-12710000D01*
D19*
X9588599Y-14478599D02*
X3099000Y-14478599D01*
X-1101000Y-14478599D02*
X-1101000Y-5828599D01*
D18*
X33570000Y-17600000D02*
X32190000Y-18980000D01*
X12470000Y-6520000D02*
X11645000Y-5695000D01*
X40500000Y-9080000D02*
X40490000Y-9080000D01*
D19*
X10425000Y-15315000D02*
X9588599Y-14478599D01*
D18*
X11645000Y-5695000D02*
X3109000Y-5695000D01*
X40500000Y-11464974D02*
X34364974Y-17600000D01*
X34364974Y-17600000D02*
X33570000Y-17600000D01*
D19*
X-1101000Y-5828599D02*
X3099000Y-5828599D01*
D18*
X36860000Y-12710000D02*
X36860000Y-13789500D01*
D19*
X10425000Y-15325000D02*
X10425000Y-15315000D01*
D18*
X12470000Y-10250000D02*
X12470000Y-6520000D01*
X35349500Y-15300000D02*
X36860000Y-13789500D01*
X40500000Y-9080000D02*
X40500000Y-10520000D01*
X20210000Y-10280000D02*
X20210000Y-12340000D01*
X12500000Y-10280000D02*
X20210000Y-10280000D01*
X12470000Y-10250000D02*
X12500000Y-10280000D01*
X20210000Y-12340000D02*
X19107500Y-13442500D01*
D19*
%TO.N,/VDD_5V*%
X8900000Y-12530000D02*
X8880000Y-12550000D01*
X8900000Y-7770000D02*
X8900000Y-12530000D01*
D20*
%TO.N,/BOOT0*%
X57126000Y-8116000D02*
X40504000Y-8116000D01*
D18*
%TO.N,/VDD_3.3V*%
X27820000Y-17170000D02*
X29630000Y-18980000D01*
X57500000Y-7100000D02*
X57930000Y-7530000D01*
X28370000Y-7100000D02*
X57500000Y-7100000D01*
X14800000Y-2760000D02*
X5660000Y-2760000D01*
X20930000Y-8900000D02*
X20930000Y-8890000D01*
X20930000Y-8890000D02*
X14800000Y-2760000D01*
X57930000Y-7530000D02*
X57930000Y-9530000D01*
X5660000Y-2760000D02*
X4230000Y-1330000D01*
X17750000Y-17170000D02*
X27820000Y-17170000D01*
X20930000Y-8900000D02*
X22730000Y-7100000D01*
X34750000Y-8410000D02*
X34750000Y-7100000D01*
X56880000Y-10580000D02*
X57930000Y-9530000D01*
X20930000Y-8900000D02*
X20930000Y-15160000D01*
X22730000Y-7100000D02*
X28370000Y-7100000D01*
X56880000Y-13910000D02*
X56880000Y-10580000D01*
X34750000Y-7100000D02*
X28370000Y-7100000D01*
D20*
%TO.N,/VBAT*%
X31650000Y-15810000D02*
X15020000Y-15810000D01*
X36080000Y-11380000D02*
X31650000Y-15810000D01*
X15020000Y-15810000D02*
X11850000Y-18980000D01*
X36080000Y-11360000D02*
X36080000Y-11380000D01*
%TO.N,/PC13*%
X39780000Y-11090000D02*
X39780000Y-11520000D01*
X16910000Y-16460000D02*
X14390000Y-18980000D01*
X39780000Y-11520000D02*
X34840000Y-16460000D01*
X34840000Y-16460000D02*
X16910000Y-16460000D01*
%TO.N,/PA14{slash}SWCLK*%
X43275000Y-4505000D02*
X45040000Y-6270000D01*
X69765736Y-6270000D02*
X70230000Y-6734264D01*
X45040000Y-6270000D02*
X69765736Y-6270000D01*
X70230000Y-6734264D02*
X70230000Y-8100000D01*
%TO.N,/PA13{slash}SWDIO*%
X70530000Y-5670000D02*
X45510000Y-5670000D01*
X70240000Y-12160000D02*
X71260000Y-11140000D01*
X45510000Y-5670000D02*
X44897750Y-5057750D01*
X71260000Y-6400000D02*
X70530000Y-5670000D01*
X71260000Y-11140000D02*
X71260000Y-6400000D01*
%TO.N,Net-(USB1-CC1)*%
X5140000Y-6560000D02*
X5140000Y-8900000D01*
%TO.N,/USB_Data+*%
X2960553Y-9904152D02*
X2960553Y-10900000D01*
X2960000Y-9903599D02*
X2960553Y-9904152D01*
%TO.N,Net-(USB1-CC2)*%
X5150000Y-11900000D02*
X5150000Y-13750000D01*
%TD*%
%TA.AperFunction,Conductor*%
%TO.N,GND*%
G36*
X288944Y-266284D02*
G01*
X334699Y-319088D01*
X345194Y-383855D01*
X340000Y-432155D01*
X340000Y-1080000D01*
X1256314Y-1080000D01*
X1230507Y-1120156D01*
X1190000Y-1258111D01*
X1190000Y-1401889D01*
X1230507Y-1539844D01*
X1256314Y-1580000D01*
X340000Y-1580000D01*
X340000Y-2227844D01*
X346401Y-2287372D01*
X346403Y-2287379D01*
X396645Y-2422086D01*
X396649Y-2422093D01*
X482809Y-2537187D01*
X482812Y-2537190D01*
X597906Y-2623350D01*
X597913Y-2623354D01*
X732620Y-2673596D01*
X732627Y-2673598D01*
X792155Y-2679999D01*
X792172Y-2680000D01*
X1440000Y-2680000D01*
X1440000Y-1765501D01*
X1547685Y-1814680D01*
X1654237Y-1830000D01*
X1725763Y-1830000D01*
X1832315Y-1814680D01*
X1940000Y-1765501D01*
X1940000Y-2680000D01*
X2587828Y-2680000D01*
X2587844Y-2679999D01*
X2647372Y-2673598D01*
X2647379Y-2673596D01*
X2782086Y-2623354D01*
X2782093Y-2623350D01*
X2897187Y-2537190D01*
X2897190Y-2537187D01*
X2983350Y-2422093D01*
X2983354Y-2422086D01*
X3029681Y-2297877D01*
X3071552Y-2241943D01*
X3137016Y-2217526D01*
X3205289Y-2232377D01*
X3237089Y-2257223D01*
X3306760Y-2332906D01*
X3484424Y-2471189D01*
X3682426Y-2578342D01*
X3710335Y-2587923D01*
X3729009Y-2596106D01*
X3738853Y-2601424D01*
X5028355Y-3075791D01*
X5073225Y-3104484D01*
X5133286Y-3164546D01*
X5143436Y-3177215D01*
X5143612Y-3177070D01*
X5148583Y-3183079D01*
X5200288Y-3231633D01*
X5203087Y-3234346D01*
X5223663Y-3254923D01*
X5227239Y-3257697D01*
X5236120Y-3265282D01*
X5269865Y-3296971D01*
X5269867Y-3296972D01*
X5288794Y-3307377D01*
X5305054Y-3318057D01*
X5322131Y-3331304D01*
X5364622Y-3349691D01*
X5375100Y-3354824D01*
X5415663Y-3377124D01*
X5435667Y-3382260D01*
X5436586Y-3382496D01*
X5454991Y-3388797D01*
X5474823Y-3397379D01*
X5520557Y-3404622D01*
X5531951Y-3406981D01*
X5576812Y-3418500D01*
X5598418Y-3418500D01*
X5617816Y-3420026D01*
X5639151Y-3423406D01*
X5681336Y-3419418D01*
X5685232Y-3419050D01*
X5696901Y-3418500D01*
X14475878Y-3418500D01*
X14542917Y-3438185D01*
X14563559Y-3454819D01*
X19742693Y-8633953D01*
X19767924Y-8670380D01*
X20036650Y-9262379D01*
X20040216Y-9271102D01*
X20169529Y-9625245D01*
X20262954Y-9881107D01*
X20263978Y-9883910D01*
X20271500Y-9926441D01*
X20271500Y-14133556D01*
X20263978Y-14176087D01*
X20035736Y-14801165D01*
X20022570Y-14842590D01*
X20022569Y-14842593D01*
X20022449Y-14843572D01*
X20018043Y-14864384D01*
X19985367Y-14972102D01*
X19973790Y-15089654D01*
X19947629Y-15154441D01*
X19890595Y-15194800D01*
X19850387Y-15201500D01*
X15068005Y-15201500D01*
X15051820Y-15200439D01*
X15020001Y-15196250D01*
X15019999Y-15196250D01*
X14984153Y-15200969D01*
X14984122Y-15200972D01*
X14880544Y-15214607D01*
X14880543Y-15214608D01*
X14867613Y-15216310D01*
X14861148Y-15217162D01*
X14713126Y-15278474D01*
X14713123Y-15278476D01*
X14619561Y-15350268D01*
X14619562Y-15350269D01*
X14586010Y-15376015D01*
X14566467Y-15401483D01*
X14555775Y-15413674D01*
X12735030Y-17234419D01*
X12686703Y-17264328D01*
X11373593Y-17703784D01*
X11356336Y-17709904D01*
X11355632Y-17710168D01*
X11355623Y-17710171D01*
X11355620Y-17710173D01*
X11343690Y-17715624D01*
X11332791Y-17720605D01*
X11321525Y-17725100D01*
X11302433Y-17731655D01*
X11302423Y-17731659D01*
X11104427Y-17838809D01*
X11104422Y-17838812D01*
X10926761Y-17977092D01*
X10926756Y-17977097D01*
X10774284Y-18142723D01*
X10774276Y-18142734D01*
X10683808Y-18281206D01*
X10630662Y-18326562D01*
X10561431Y-18335986D01*
X10498095Y-18306484D01*
X10476192Y-18281206D01*
X10405223Y-18172581D01*
X10385722Y-18142732D01*
X10385719Y-18142729D01*
X10385715Y-18142723D01*
X10233243Y-17977097D01*
X10233238Y-17977092D01*
X10093688Y-17868475D01*
X10055576Y-17838811D01*
X10055575Y-17838810D01*
X10055572Y-17838808D01*
X9857580Y-17731661D01*
X9857577Y-17731659D01*
X9857574Y-17731658D01*
X9857571Y-17731657D01*
X9857569Y-17731656D01*
X9644637Y-17658556D01*
X9422569Y-17621500D01*
X9197431Y-17621500D01*
X8975362Y-17658556D01*
X8762430Y-17731656D01*
X8762419Y-17731661D01*
X8564427Y-17838808D01*
X8564422Y-17838812D01*
X8386761Y-17977092D01*
X8386756Y-17977097D01*
X8234284Y-18142723D01*
X8234276Y-18142734D01*
X8140251Y-18286650D01*
X8087105Y-18332007D01*
X8017873Y-18341430D01*
X7954538Y-18311928D01*
X7934868Y-18289951D01*
X7808113Y-18108926D01*
X7808108Y-18108920D01*
X7641082Y-17941894D01*
X7447578Y-17806399D01*
X7233492Y-17706570D01*
X7233486Y-17706567D01*
X7020000Y-17649364D01*
X7020000Y-18544498D01*
X6912315Y-18495320D01*
X6805763Y-18480000D01*
X6734237Y-18480000D01*
X6627685Y-18495320D01*
X6520000Y-18544498D01*
X6520000Y-17649364D01*
X6519999Y-17649364D01*
X6306513Y-17706567D01*
X6306507Y-17706570D01*
X6092422Y-17806399D01*
X6092420Y-17806400D01*
X5898926Y-17941886D01*
X5898920Y-17941891D01*
X5731891Y-18108920D01*
X5731890Y-18108922D01*
X5605131Y-18289952D01*
X5550554Y-18333577D01*
X5481055Y-18340769D01*
X5418701Y-18309247D01*
X5399752Y-18286656D01*
X5305722Y-18142732D01*
X5305715Y-18142725D01*
X5305715Y-18142723D01*
X5153243Y-17977097D01*
X5153238Y-17977092D01*
X5013688Y-17868475D01*
X4975576Y-17838811D01*
X4975575Y-17838810D01*
X4975572Y-17838808D01*
X4777580Y-17731661D01*
X4777577Y-17731659D01*
X4777574Y-17731658D01*
X4777571Y-17731657D01*
X4777569Y-17731656D01*
X4564637Y-17658556D01*
X4342569Y-17621500D01*
X4117431Y-17621500D01*
X3895362Y-17658556D01*
X3682430Y-17731656D01*
X3682419Y-17731661D01*
X3484427Y-17838808D01*
X3484422Y-17838812D01*
X3306761Y-17977092D01*
X3237092Y-18052773D01*
X3177205Y-18088763D01*
X3107367Y-18086662D01*
X3049751Y-18047137D01*
X3029681Y-18012122D01*
X2983354Y-17887913D01*
X2983350Y-17887906D01*
X2897190Y-17772812D01*
X2897187Y-17772809D01*
X2782093Y-17686649D01*
X2782086Y-17686645D01*
X2647379Y-17636403D01*
X2647372Y-17636401D01*
X2587844Y-17630000D01*
X1940000Y-17630000D01*
X1940000Y-18544498D01*
X1832315Y-18495320D01*
X1725763Y-18480000D01*
X1654237Y-18480000D01*
X1547685Y-18495320D01*
X1440000Y-18544498D01*
X1440000Y-17630000D01*
X792155Y-17630000D01*
X732627Y-17636401D01*
X732620Y-17636403D01*
X597913Y-17686645D01*
X597906Y-17686649D01*
X482812Y-17772809D01*
X482809Y-17772812D01*
X396649Y-17887906D01*
X396645Y-17887913D01*
X346403Y-18022620D01*
X346401Y-18022627D01*
X340000Y-18082155D01*
X340000Y-18730000D01*
X1256314Y-18730000D01*
X1230507Y-18770156D01*
X1190000Y-18908111D01*
X1190000Y-19051889D01*
X1230507Y-19189844D01*
X1256314Y-19230000D01*
X340000Y-19230000D01*
X340000Y-19877844D01*
X344893Y-19923343D01*
X332489Y-19992102D01*
X284879Y-20043240D01*
X221604Y-20060599D01*
X-16520Y-20060599D01*
X-23473Y-20060404D01*
X-320895Y-20043701D01*
X-334713Y-20042144D01*
X-624955Y-19992829D01*
X-638512Y-19989735D01*
X-921415Y-19908232D01*
X-934539Y-19903639D01*
X-1206529Y-19790978D01*
X-1219058Y-19784945D01*
X-1476733Y-19642532D01*
X-1488498Y-19635139D01*
X-1728615Y-19464767D01*
X-1739472Y-19456109D01*
X-1776951Y-19422616D01*
X-1959000Y-19259927D01*
X-1968831Y-19250096D01*
X-2037693Y-19173039D01*
X-2165015Y-19030565D01*
X-2173675Y-19019704D01*
X-2344041Y-18779596D01*
X-2351428Y-18767841D01*
X-2493850Y-18510148D01*
X-2499876Y-18497634D01*
X-2608799Y-18234670D01*
X-2612541Y-18225637D01*
X-2617134Y-18212512D01*
X-2686270Y-17972535D01*
X-2698638Y-17929607D01*
X-2701731Y-17916052D01*
X-2704157Y-17901774D01*
X-2736740Y-17710003D01*
X-2193249Y-17710003D01*
X-2186321Y-17784776D01*
X-2185933Y-17790313D01*
X-2182209Y-17868470D01*
X-2182208Y-17868475D01*
X-2178445Y-17883986D01*
X-2175479Y-17901774D01*
X-2174294Y-17914559D01*
X-2154925Y-17982636D01*
X-2152800Y-17990102D01*
X-2151562Y-17994802D01*
X-2132299Y-18074201D01*
X-2132298Y-18074206D01*
X-2127109Y-18085568D01*
X-2120641Y-18103134D01*
X-2118078Y-18112141D01*
X-2118072Y-18112157D01*
X-2081524Y-18185554D01*
X-2079730Y-18189314D01*
X-2044359Y-18266765D01*
X-2044353Y-18266776D01*
X-2039121Y-18274123D01*
X-2029132Y-18290771D01*
X-2026504Y-18296048D01*
X-2026502Y-18296052D01*
X-1975011Y-18364236D01*
X-1972958Y-18367035D01*
X-1921557Y-18439218D01*
X-1921555Y-18439219D01*
X-1917541Y-18443047D01*
X-1904163Y-18458057D01*
X-1902708Y-18459983D01*
X-1902705Y-18459987D01*
X-1902702Y-18459989D01*
X-1902701Y-18459991D01*
X-1836960Y-18519922D01*
X-1834967Y-18521780D01*
X-1768346Y-18585303D01*
X-1766602Y-18586424D01*
X-1755481Y-18594970D01*
X-1755456Y-18594938D01*
X-1750881Y-18598393D01*
X-1672315Y-18647039D01*
X-1670598Y-18648122D01*
X-1590254Y-18699756D01*
X-1590252Y-18699757D01*
X-1585000Y-18702465D01*
X-1585034Y-18702529D01*
X-1581512Y-18704308D01*
X-1581350Y-18703984D01*
X-1576227Y-18706534D01*
X-1576218Y-18706540D01*
X-1486840Y-18741164D01*
X-1485612Y-18741647D01*
X-1450681Y-18755632D01*
X-1393722Y-18778436D01*
X-1391753Y-18779013D01*
X-1385660Y-18780465D01*
X-1384661Y-18780749D01*
X-1384660Y-18780749D01*
X-1384655Y-18780751D01*
X-1286828Y-18799037D01*
X-1286717Y-18799058D01*
X-1185849Y-18818500D01*
X-1185844Y-18818500D01*
X-977284Y-18818500D01*
X-977282Y-18818500D01*
X-930603Y-18809773D01*
X-919651Y-18808229D01*
X-869261Y-18803419D01*
X-827349Y-18791112D01*
X-815214Y-18788203D01*
X-775345Y-18780751D01*
X-727873Y-18762360D01*
X-718014Y-18759009D01*
X-687128Y-18749939D01*
X-666138Y-18743777D01*
X-653606Y-18737315D01*
X-630391Y-18725348D01*
X-618366Y-18719937D01*
X-583782Y-18706540D01*
X-537543Y-18677909D01*
X-529081Y-18673118D01*
X-480651Y-18648151D01*
X-477974Y-18646771D01*
X-449078Y-18624046D01*
X-437718Y-18616099D01*
X-409118Y-18598392D01*
X-366367Y-18559417D01*
X-359506Y-18553606D01*
X-311568Y-18515908D01*
X-289769Y-18490749D01*
X-279595Y-18480316D01*
X-273556Y-18474809D01*
X-257299Y-18459991D01*
X-220346Y-18411055D01*
X-215136Y-18404618D01*
X-172935Y-18355918D01*
X-158011Y-18330066D01*
X-149592Y-18317361D01*
X-133497Y-18296050D01*
X-104636Y-18238088D01*
X-101023Y-18231360D01*
X-97719Y-18225637D01*
X-67087Y-18172582D01*
X-58463Y-18147661D01*
X-52291Y-18132965D01*
X-41926Y-18112152D01*
X-23255Y-18046527D01*
X-21173Y-18039921D01*
X2150Y-17972535D01*
X2153Y-17972527D01*
X5412Y-17949857D01*
X8878Y-17933590D01*
X14294Y-17914559D01*
X20906Y-17843199D01*
X21638Y-17837003D01*
X24042Y-17820287D01*
X32281Y-17762984D01*
X31356Y-17743578D01*
X31743Y-17726238D01*
X33249Y-17710000D01*
X26318Y-17635214D01*
X25930Y-17629679D01*
X25540Y-17621500D01*
X22208Y-17551526D01*
X18441Y-17536002D01*
X15478Y-17518229D01*
X14294Y-17505441D01*
X-7217Y-17429840D01*
X-8444Y-17425182D01*
X-27702Y-17345796D01*
X-32893Y-17334430D01*
X-39364Y-17316853D01*
X-40025Y-17314530D01*
X-41926Y-17307848D01*
X-78490Y-17234419D01*
X-80284Y-17230659D01*
X-93417Y-17201902D01*
X-115644Y-17153229D01*
X-120879Y-17145877D01*
X-130871Y-17129224D01*
X-133497Y-17123950D01*
X-184998Y-17055752D01*
X-187044Y-17052963D01*
X-187133Y-17052838D01*
X-238441Y-16980785D01*
X-238446Y-16980780D01*
X-242454Y-16976958D01*
X-255847Y-16961931D01*
X-257292Y-16960018D01*
X-257295Y-16960014D01*
X-257296Y-16960013D01*
X-257299Y-16960009D01*
X-323087Y-16900036D01*
X-324998Y-16898253D01*
X-391654Y-16834697D01*
X-391657Y-16834694D01*
X-393399Y-16833575D01*
X-404520Y-16825029D01*
X-404544Y-16825062D01*
X-409123Y-16821604D01*
X-487673Y-16772967D01*
X-489433Y-16771857D01*
X-569742Y-16720246D01*
X-575001Y-16717535D01*
X-574968Y-16717470D01*
X-578488Y-16715692D01*
X-578649Y-16716016D01*
X-583787Y-16713457D01*
X-673117Y-16678851D01*
X-674409Y-16678343D01*
X-766278Y-16641564D01*
X-768239Y-16640988D01*
X-774320Y-16639540D01*
X-775340Y-16639250D01*
X-872983Y-16620996D01*
X-873663Y-16620867D01*
X-974150Y-16601500D01*
X-974151Y-16601500D01*
X-977282Y-16601500D01*
X-1182718Y-16601500D01*
X-1182724Y-16601500D01*
X-1229386Y-16610222D01*
X-1240378Y-16611771D01*
X-1290735Y-16616580D01*
X-1290739Y-16616580D01*
X-1290739Y-16616581D01*
X-1314995Y-16623703D01*
X-1332654Y-16628888D01*
X-1344800Y-16631798D01*
X-1384649Y-16639247D01*
X-1384662Y-16639251D01*
X-1432134Y-16657641D01*
X-1441989Y-16660991D01*
X-1493860Y-16676222D01*
X-1529611Y-16694652D01*
X-1541629Y-16700059D01*
X-1576219Y-16713460D01*
X-1576220Y-16713460D01*
X-1622460Y-16742091D01*
X-1630915Y-16746878D01*
X-1682023Y-16773226D01*
X-1710918Y-16795949D01*
X-1722286Y-16803901D01*
X-1750885Y-16821609D01*
X-1793625Y-16860571D01*
X-1800506Y-16866400D01*
X-1848435Y-16904093D01*
X-1870237Y-16929253D01*
X-1880402Y-16939678D01*
X-1902699Y-16960006D01*
X-1939634Y-17008915D01*
X-1944873Y-17015387D01*
X-1987064Y-17064079D01*
X-2001986Y-17089925D01*
X-2010413Y-17102641D01*
X-2026503Y-17123950D01*
X-2026504Y-17123951D01*
X-2026504Y-17123952D01*
X-2026509Y-17123960D01*
X-2055368Y-17181914D01*
X-2058978Y-17188637D01*
X-2092912Y-17247414D01*
X-2092913Y-17247418D01*
X-2099779Y-17267256D01*
X-2101536Y-17272331D01*
X-2107712Y-17287036D01*
X-2118072Y-17307842D01*
X-2118077Y-17307856D01*
X-2136744Y-17373459D01*
X-2138828Y-17380077D01*
X-2162154Y-17447475D01*
X-2165413Y-17470137D01*
X-2168881Y-17486409D01*
X-2174294Y-17505437D01*
X-2180907Y-17576796D01*
X-2181640Y-17582999D01*
X-2192281Y-17657010D01*
X-2192281Y-17657015D01*
X-2191357Y-17676434D01*
X-2191746Y-17693766D01*
X-2193239Y-17709899D01*
X-2193249Y-17710003D01*
X-2736740Y-17710003D01*
X-2751047Y-17625801D01*
X-2752601Y-17612001D01*
X-2765625Y-17380077D01*
X-2769306Y-17314530D01*
X-2769501Y-17307578D01*
X-2769501Y-14756255D01*
X-2749816Y-14689216D01*
X-2697012Y-14643461D01*
X-2627854Y-14633517D01*
X-2564298Y-14662542D01*
X-2526524Y-14721320D01*
X-2525461Y-14725168D01*
X-2524071Y-14730537D01*
X-2453435Y-14921264D01*
X-2345851Y-15093866D01*
X-2205736Y-15241267D01*
X-2205734Y-15241268D01*
X-2038805Y-15357455D01*
X-1851908Y-15437658D01*
X-1652690Y-15478599D01*
X-1351000Y-15478599D01*
X-1351000Y-14778599D01*
X-851000Y-14778599D01*
X-851000Y-15478599D01*
X-600287Y-15478599D01*
X-448662Y-15463180D01*
X-254619Y-15402299D01*
X-254609Y-15402294D01*
X-76785Y-15303593D01*
X-76784Y-15303593D01*
X77530Y-15171120D01*
X77531Y-15171119D01*
X202018Y-15010294D01*
X291588Y-14827692D01*
X317246Y-14728599D01*
X1575634Y-14728599D01*
X1575931Y-14730545D01*
X1575933Y-14730551D01*
X1646562Y-14921256D01*
X1646565Y-14921263D01*
X1754149Y-15093866D01*
X1894264Y-15241267D01*
X1894266Y-15241268D01*
X2061195Y-15357455D01*
X2248092Y-15437658D01*
X2447310Y-15478599D01*
X2849000Y-15478599D01*
X2849000Y-14778599D01*
X3349000Y-14778599D01*
X3349000Y-15478599D01*
X3699713Y-15478599D01*
X3851338Y-15463180D01*
X4045381Y-15402299D01*
X4045391Y-15402294D01*
X4223215Y-15303593D01*
X4223216Y-15303593D01*
X4377530Y-15171120D01*
X4377531Y-15171119D01*
X4502018Y-15010294D01*
X4591588Y-14827692D01*
X4617246Y-14728599D01*
X3865111Y-14728599D01*
X3904610Y-14704142D01*
X3972201Y-14614637D01*
X4002895Y-14506759D01*
X3992546Y-14395078D01*
X3942552Y-14294677D01*
X3870069Y-14228599D01*
X4504557Y-14228599D01*
X4571596Y-14248284D01*
X4592238Y-14264918D01*
X4674091Y-14346771D01*
X4818817Y-14437709D01*
X4980150Y-14494162D01*
X4980155Y-14494163D01*
X5149996Y-14513299D01*
X5150000Y-14513299D01*
X5150004Y-14513299D01*
X5319844Y-14494163D01*
X5319847Y-14494162D01*
X5319850Y-14494162D01*
X5481183Y-14437709D01*
X5625909Y-14346771D01*
X5746771Y-14225909D01*
X5837709Y-14081183D01*
X5894162Y-13919850D01*
X5909234Y-13786078D01*
X5913299Y-13750003D01*
X5913299Y-13749996D01*
X5894163Y-13580157D01*
X5894161Y-13580147D01*
X5874413Y-13523711D01*
X5869251Y-13503789D01*
X5866164Y-13485855D01*
X5866163Y-13485849D01*
X5764534Y-13172099D01*
X5758500Y-13133889D01*
X5758500Y-12550000D01*
X7916862Y-12550000D01*
X7935368Y-12737901D01*
X7990177Y-12918578D01*
X8079176Y-13085085D01*
X8079180Y-13085092D01*
X8198958Y-13231041D01*
X8344907Y-13350819D01*
X8344914Y-13350823D01*
X8447489Y-13405650D01*
X8511423Y-13439823D01*
X8692101Y-13494632D01*
X8880000Y-13513138D01*
X9067899Y-13494632D01*
X9248577Y-13439823D01*
X9415091Y-13350820D01*
X9561041Y-13231041D01*
X9680820Y-13085091D01*
X9769823Y-12918577D01*
X9824632Y-12737899D01*
X9843138Y-12550000D01*
X9824632Y-12362101D01*
X9801323Y-12285267D01*
X9798339Y-12271314D01*
X9798120Y-12271359D01*
X9795424Y-12257972D01*
X9723345Y-11900003D01*
X9660940Y-11590079D01*
X9658500Y-11565602D01*
X9658500Y-8763624D01*
X9661596Y-8736089D01*
X9662949Y-8730149D01*
X9814237Y-8065839D01*
X9816587Y-8054981D01*
X9816587Y-8054978D01*
X9817594Y-8050327D01*
X9817705Y-8050351D01*
X9820596Y-8037132D01*
X9844632Y-7957899D01*
X9863138Y-7770000D01*
X9844632Y-7582101D01*
X9789823Y-7401423D01*
X9773840Y-7371520D01*
X9700823Y-7234914D01*
X9700819Y-7234907D01*
X9581041Y-7088958D01*
X9435092Y-6969180D01*
X9435085Y-6969176D01*
X9268578Y-6880177D01*
X9087901Y-6825368D01*
X8900000Y-6806862D01*
X8712098Y-6825368D01*
X8531421Y-6880177D01*
X8364914Y-6969176D01*
X8364907Y-6969180D01*
X8218958Y-7088958D01*
X8099180Y-7234907D01*
X8099176Y-7234914D01*
X8010177Y-7401421D01*
X7955368Y-7582098D01*
X7936862Y-7770000D01*
X7955367Y-7957897D01*
X7981046Y-8042549D01*
X7984655Y-8061522D01*
X7985088Y-8061456D01*
X7985762Y-8065842D01*
X8070377Y-8437384D01*
X8138403Y-8736089D01*
X8138404Y-8736091D01*
X8141500Y-8763626D01*
X8141500Y-11554000D01*
X8137608Y-11584822D01*
X7969387Y-12240339D01*
X7965193Y-12257973D01*
X7964700Y-12261163D01*
X7960819Y-12278196D01*
X7935368Y-12362100D01*
X7916862Y-12550000D01*
X5758500Y-12550000D01*
X5758500Y-12516108D01*
X5764534Y-12477897D01*
X5777711Y-12437217D01*
X5866163Y-12164149D01*
X5875480Y-12131805D01*
X5875480Y-12131798D01*
X5876522Y-12126460D01*
X5876913Y-12126536D01*
X5881534Y-12105933D01*
X5894162Y-12069850D01*
X5894281Y-12068792D01*
X5913299Y-11900003D01*
X5913299Y-11899996D01*
X5894163Y-11730155D01*
X5894162Y-11730150D01*
X5876213Y-11678854D01*
X5837709Y-11568817D01*
X5746771Y-11424091D01*
X5625909Y-11303229D01*
X5625908Y-11303228D01*
X5481183Y-11212291D01*
X5319849Y-11155837D01*
X5319844Y-11155836D01*
X5150004Y-11136701D01*
X5149996Y-11136701D01*
X4980155Y-11155836D01*
X4980150Y-11155837D01*
X4818816Y-11212291D01*
X4674091Y-11303228D01*
X4553228Y-11424091D01*
X4462291Y-11568816D01*
X4405837Y-11730150D01*
X4405836Y-11730155D01*
X4386701Y-11899996D01*
X4386701Y-11900003D01*
X4405837Y-12069847D01*
X4425586Y-12126288D01*
X4430746Y-12146203D01*
X4433835Y-12164147D01*
X4433835Y-12164149D01*
X4535466Y-12477900D01*
X4541500Y-12516111D01*
X4541500Y-13133888D01*
X4535465Y-13172099D01*
X4433836Y-13485849D01*
X4431483Y-13494017D01*
X4424518Y-13518195D01*
X4423477Y-13523535D01*
X4423090Y-13523459D01*
X4418463Y-13544066D01*
X4403539Y-13586721D01*
X4402200Y-13586252D01*
X4371881Y-13640455D01*
X4310218Y-13673311D01*
X4240581Y-13667613D01*
X4214264Y-13653656D01*
X4136804Y-13599742D01*
X3949907Y-13519539D01*
X3750690Y-13478599D01*
X3349000Y-13478599D01*
X3349000Y-14178599D01*
X2849000Y-14178599D01*
X2849000Y-13576623D01*
X2868685Y-13509584D01*
X2894742Y-13480438D01*
X2986665Y-13405653D01*
X3069971Y-13287636D01*
X3111032Y-13172100D01*
X3118345Y-13151524D01*
X3118345Y-13151522D01*
X3118346Y-13151520D01*
X3128204Y-13007400D01*
X3098814Y-12865965D01*
X3032354Y-12737704D01*
X3032351Y-12737701D01*
X3032350Y-12737699D01*
X2933754Y-12632129D01*
X2810330Y-12557074D01*
X2810329Y-12557073D01*
X2810328Y-12557073D01*
X2671228Y-12518099D01*
X2563051Y-12518099D01*
X2563050Y-12518099D01*
X2455889Y-12532828D01*
X2323389Y-12590380D01*
X2323389Y-12590381D01*
X2211338Y-12681542D01*
X2211333Y-12681547D01*
X2128028Y-12799562D01*
X2079654Y-12935673D01*
X2079654Y-12935676D01*
X2079654Y-12935678D01*
X2069796Y-13079798D01*
X2088976Y-13172099D01*
X2099186Y-13221233D01*
X2099187Y-13221235D01*
X2165645Y-13349492D01*
X2165649Y-13349498D01*
X2179188Y-13363995D01*
X2210559Y-13426426D01*
X2203197Y-13495907D01*
X2159439Y-13550377D01*
X2148741Y-13557049D01*
X1974784Y-13653603D01*
X1974783Y-13653604D01*
X1820469Y-13786077D01*
X1820468Y-13786078D01*
X1695981Y-13946903D01*
X1606411Y-14129505D01*
X1580754Y-14228599D01*
X2332889Y-14228599D01*
X2293390Y-14253056D01*
X2225799Y-14342561D01*
X2195105Y-14450439D01*
X2205454Y-14562120D01*
X2255448Y-14662521D01*
X2327931Y-14728599D01*
X1575634Y-14728599D01*
X317246Y-14728599D01*
X-484889Y-14728599D01*
X-445390Y-14704142D01*
X-377799Y-14614637D01*
X-347105Y-14506759D01*
X-357454Y-14395078D01*
X-407448Y-14294677D01*
X-479931Y-14228599D01*
X322366Y-14228599D01*
X322068Y-14226652D01*
X322066Y-14226646D01*
X251437Y-14035941D01*
X251434Y-14035934D01*
X143850Y-13863331D01*
X3735Y-13715930D01*
X3733Y-13715929D01*
X-163196Y-13599742D01*
X-350093Y-13519539D01*
X-549310Y-13478599D01*
X-851000Y-13478599D01*
X-851000Y-14178599D01*
X-1351000Y-14178599D01*
X-1351000Y-13478599D01*
X-1601713Y-13478599D01*
X-1753339Y-13494017D01*
X-1947382Y-13554898D01*
X-1947392Y-13554903D01*
X-2125216Y-13653604D01*
X-2125217Y-13653604D01*
X-2279531Y-13786077D01*
X-2279532Y-13786078D01*
X-2404019Y-13946903D01*
X-2493589Y-14129505D01*
X-2525460Y-14252597D01*
X-2561320Y-14312562D01*
X-2623907Y-14343620D01*
X-2693350Y-14335911D01*
X-2747601Y-14291882D01*
X-2769437Y-14225512D01*
X-2769501Y-14221515D01*
X-2769501Y-9903602D01*
X2196701Y-9903602D01*
X2215837Y-10073447D01*
X2215837Y-10073448D01*
X2235763Y-10130395D01*
X2240895Y-10150147D01*
X2244061Y-10168395D01*
X2244063Y-10168403D01*
X2307647Y-10363821D01*
X2309671Y-10433661D01*
X2307698Y-10440397D01*
X2244391Y-10635840D01*
X2235071Y-10668195D01*
X2234030Y-10673535D01*
X2233643Y-10673459D01*
X2229016Y-10694066D01*
X2216391Y-10730149D01*
X2216389Y-10730156D01*
X2197254Y-10899996D01*
X2197254Y-10900003D01*
X2216389Y-11069844D01*
X2216390Y-11069849D01*
X2272844Y-11231183D01*
X2355410Y-11362586D01*
X2363782Y-11375909D01*
X2484644Y-11496771D01*
X2629370Y-11587709D01*
X2790703Y-11644162D01*
X2790708Y-11644163D01*
X2960549Y-11663299D01*
X2960553Y-11663299D01*
X2960557Y-11663299D01*
X3130397Y-11644163D01*
X3130400Y-11644162D01*
X3130403Y-11644162D01*
X3291736Y-11587709D01*
X3436462Y-11496771D01*
X3557324Y-11375909D01*
X3648262Y-11231183D01*
X3704715Y-11069850D01*
X3706237Y-11056340D01*
X3723852Y-10900003D01*
X3723852Y-10899996D01*
X3704716Y-10730157D01*
X3704714Y-10730149D01*
X3684966Y-10673711D01*
X3679804Y-10653789D01*
X3676717Y-10635857D01*
X3676716Y-10635849D01*
X3613133Y-10439560D01*
X3611202Y-10369721D01*
X3613078Y-10363315D01*
X3676362Y-10167175D01*
X3685566Y-10135121D01*
X3685567Y-10135107D01*
X3686603Y-10129784D01*
X3687012Y-10129863D01*
X3691617Y-10109298D01*
X3704162Y-10073449D01*
X3704711Y-10068584D01*
X3723299Y-9903602D01*
X3723299Y-9903595D01*
X3704163Y-9733754D01*
X3704162Y-9733749D01*
X3670787Y-9638370D01*
X3647709Y-9572416D01*
X3556771Y-9427690D01*
X3435909Y-9306828D01*
X3435908Y-9306827D01*
X3291183Y-9215890D01*
X3129849Y-9159436D01*
X3129844Y-9159435D01*
X2960004Y-9140300D01*
X2959996Y-9140300D01*
X2790155Y-9159435D01*
X2790150Y-9159436D01*
X2628816Y-9215890D01*
X2484091Y-9306827D01*
X2363228Y-9427690D01*
X2272291Y-9572415D01*
X2215837Y-9733749D01*
X2215836Y-9733754D01*
X2196701Y-9903595D01*
X2196701Y-9903602D01*
X-2769501Y-9903602D01*
X-2769501Y-6106255D01*
X-2749816Y-6039216D01*
X-2697012Y-5993461D01*
X-2627854Y-5983517D01*
X-2564298Y-6012542D01*
X-2526524Y-6071320D01*
X-2525461Y-6075168D01*
X-2524071Y-6080537D01*
X-2453435Y-6271264D01*
X-2345851Y-6443866D01*
X-2205736Y-6591267D01*
X-2205734Y-6591268D01*
X-2038805Y-6707455D01*
X-1851908Y-6787658D01*
X-1652690Y-6828599D01*
X-1351000Y-6828599D01*
X-1351000Y-6128599D01*
X-851000Y-6128599D01*
X-851000Y-6828599D01*
X-600287Y-6828599D01*
X-448662Y-6813180D01*
X-254619Y-6752299D01*
X-254609Y-6752294D01*
X-76785Y-6653593D01*
X-76784Y-6653593D01*
X77530Y-6521120D01*
X77531Y-6521119D01*
X202018Y-6360294D01*
X291588Y-6177692D01*
X317246Y-6078599D01*
X1575634Y-6078599D01*
X1575931Y-6080545D01*
X1575933Y-6080551D01*
X1646562Y-6271256D01*
X1646565Y-6271263D01*
X1754149Y-6443866D01*
X1894264Y-6591267D01*
X1894266Y-6591268D01*
X2061196Y-6707456D01*
X2140882Y-6741651D01*
X2194726Y-6786177D01*
X2215950Y-6852745D01*
X2197815Y-6920220D01*
X2193288Y-6927110D01*
X2128028Y-7019562D01*
X2079654Y-7155673D01*
X2079654Y-7155676D01*
X2072081Y-7266399D01*
X2069796Y-7299798D01*
X2099186Y-7441233D01*
X2138799Y-7517683D01*
X2165645Y-7569492D01*
X2165649Y-7569498D01*
X2223703Y-7631658D01*
X2264245Y-7675068D01*
X2387672Y-7750125D01*
X2526772Y-7789099D01*
X2526773Y-7789099D01*
X2634950Y-7789099D01*
X2646502Y-7787510D01*
X2742111Y-7774370D01*
X2874609Y-7716818D01*
X2986665Y-7625653D01*
X3069971Y-7507636D01*
X3107719Y-7401423D01*
X3118345Y-7371524D01*
X3118345Y-7371522D01*
X3118346Y-7371520D01*
X3128204Y-7227400D01*
X3098814Y-7085965D01*
X3032354Y-6957704D01*
X3032351Y-6957701D01*
X3032350Y-6957699D01*
X2933755Y-6852130D01*
X2908571Y-6836815D01*
X2861519Y-6785163D01*
X2849000Y-6730867D01*
X2849000Y-6128599D01*
X3349000Y-6128599D01*
X3349000Y-6828599D01*
X3699713Y-6828599D01*
X3851338Y-6813180D01*
X4045381Y-6752299D01*
X4045391Y-6752294D01*
X4216789Y-6657160D01*
X4284957Y-6641837D01*
X4350589Y-6665800D01*
X4392846Y-6721443D01*
X4394008Y-6724624D01*
X4415585Y-6786287D01*
X4420746Y-6806203D01*
X4423835Y-6824147D01*
X4423835Y-6824149D01*
X4525466Y-7137900D01*
X4531500Y-7176111D01*
X4531500Y-8283888D01*
X4525465Y-8322099D01*
X4423836Y-8635849D01*
X4422691Y-8639825D01*
X4414518Y-8668195D01*
X4413477Y-8673535D01*
X4413090Y-8673459D01*
X4408463Y-8694066D01*
X4395838Y-8730149D01*
X4395836Y-8730156D01*
X4376701Y-8899996D01*
X4376701Y-8900003D01*
X4395836Y-9069844D01*
X4395837Y-9069849D01*
X4452291Y-9231183D01*
X4509742Y-9322616D01*
X4543229Y-9375909D01*
X4664091Y-9496771D01*
X4808817Y-9587709D01*
X4970150Y-9644162D01*
X4970155Y-9644163D01*
X5139996Y-9663299D01*
X5140000Y-9663299D01*
X5140004Y-9663299D01*
X5309844Y-9644163D01*
X5309847Y-9644162D01*
X5309850Y-9644162D01*
X5471183Y-9587709D01*
X5615909Y-9496771D01*
X5736771Y-9375909D01*
X5827709Y-9231183D01*
X5884162Y-9069850D01*
X5886229Y-9051504D01*
X5903299Y-8900003D01*
X5903299Y-8899996D01*
X5884163Y-8730157D01*
X5884161Y-8730149D01*
X5864413Y-8673711D01*
X5859251Y-8653789D01*
X5856164Y-8635855D01*
X5856163Y-8635849D01*
X5754534Y-8322099D01*
X5748500Y-8283889D01*
X5748500Y-7176108D01*
X5754534Y-7137897D01*
X5759297Y-7123193D01*
X5856163Y-6824149D01*
X5865480Y-6791805D01*
X5865480Y-6791798D01*
X5866522Y-6786460D01*
X5866913Y-6786536D01*
X5871534Y-6765933D01*
X5884162Y-6729850D01*
X5886685Y-6707455D01*
X5903299Y-6560003D01*
X5903299Y-6559996D01*
X5884163Y-6390155D01*
X5884162Y-6390150D01*
X5827709Y-6228817D01*
X5736771Y-6084091D01*
X5615909Y-5963229D01*
X5615908Y-5963228D01*
X5471183Y-5872291D01*
X5309849Y-5815837D01*
X5309844Y-5815836D01*
X5140004Y-5796701D01*
X5139996Y-5796701D01*
X4970155Y-5815836D01*
X4970150Y-5815837D01*
X4808816Y-5872291D01*
X4664091Y-5963228D01*
X4585040Y-6042280D01*
X4523717Y-6075765D01*
X4497359Y-6078599D01*
X3865111Y-6078599D01*
X3904610Y-6054142D01*
X3972201Y-5964637D01*
X4002895Y-5856759D01*
X3992546Y-5745078D01*
X3942552Y-5644677D01*
X3870069Y-5578599D01*
X4622366Y-5578599D01*
X4622068Y-5576652D01*
X4622066Y-5576646D01*
X4551437Y-5385941D01*
X4551434Y-5385934D01*
X4443850Y-5213331D01*
X4303735Y-5065930D01*
X4303733Y-5065929D01*
X4136804Y-4949742D01*
X3949907Y-4869539D01*
X3750690Y-4828599D01*
X3349000Y-4828599D01*
X3349000Y-5528599D01*
X2849000Y-5528599D01*
X2849000Y-4828599D01*
X2498287Y-4828599D01*
X2346661Y-4844017D01*
X2152618Y-4904898D01*
X2152608Y-4904903D01*
X1974784Y-5003604D01*
X1974783Y-5003604D01*
X1820469Y-5136077D01*
X1820468Y-5136078D01*
X1695981Y-5296903D01*
X1606411Y-5479505D01*
X1580754Y-5578599D01*
X2332889Y-5578599D01*
X2293390Y-5603056D01*
X2225799Y-5692561D01*
X2195105Y-5800439D01*
X2205454Y-5912120D01*
X2255448Y-6012521D01*
X2327931Y-6078599D01*
X1575634Y-6078599D01*
X317246Y-6078599D01*
X-484889Y-6078599D01*
X-445390Y-6054142D01*
X-377799Y-5964637D01*
X-347105Y-5856759D01*
X-357454Y-5745078D01*
X-407448Y-5644677D01*
X-479931Y-5578599D01*
X322366Y-5578599D01*
X322068Y-5576652D01*
X322066Y-5576646D01*
X251437Y-5385941D01*
X251434Y-5385934D01*
X143850Y-5213331D01*
X3735Y-5065930D01*
X3733Y-5065929D01*
X-163196Y-4949742D01*
X-350093Y-4869539D01*
X-549310Y-4828599D01*
X-851000Y-4828599D01*
X-851000Y-5528599D01*
X-1351000Y-5528599D01*
X-1351000Y-4828599D01*
X-1601713Y-4828599D01*
X-1753339Y-4844017D01*
X-1947382Y-4904898D01*
X-1947392Y-4904903D01*
X-2125216Y-5003604D01*
X-2125217Y-5003604D01*
X-2279531Y-5136077D01*
X-2279532Y-5136078D01*
X-2404019Y-5296903D01*
X-2493589Y-5479505D01*
X-2525460Y-5602597D01*
X-2561320Y-5662562D01*
X-2623907Y-5693620D01*
X-2693350Y-5685911D01*
X-2747601Y-5641882D01*
X-2769437Y-5575512D01*
X-2769501Y-5571515D01*
X-2769501Y-2999579D01*
X-2769306Y-2992627D01*
X-2762987Y-2880102D01*
X-2752603Y-2695196D01*
X-2751049Y-2681397D01*
X-2737220Y-2600003D01*
X-2193249Y-2600003D01*
X-2186321Y-2674776D01*
X-2185933Y-2680313D01*
X-2182209Y-2758470D01*
X-2182208Y-2758475D01*
X-2178445Y-2773986D01*
X-2175479Y-2791774D01*
X-2174294Y-2804559D01*
X-2157799Y-2862535D01*
X-2152800Y-2880102D01*
X-2151562Y-2884802D01*
X-2132299Y-2964201D01*
X-2132298Y-2964206D01*
X-2127109Y-2975568D01*
X-2120641Y-2993134D01*
X-2118078Y-3002141D01*
X-2118072Y-3002157D01*
X-2081524Y-3075554D01*
X-2079730Y-3079314D01*
X-2044359Y-3156765D01*
X-2044353Y-3156776D01*
X-2039121Y-3164123D01*
X-2029132Y-3180771D01*
X-2027982Y-3183079D01*
X-2026502Y-3186052D01*
X-1975011Y-3254236D01*
X-1972958Y-3257035D01*
X-1921557Y-3329218D01*
X-1921555Y-3329219D01*
X-1917541Y-3333047D01*
X-1904163Y-3348057D01*
X-1902708Y-3349983D01*
X-1902705Y-3349987D01*
X-1902702Y-3349989D01*
X-1902701Y-3349991D01*
X-1836960Y-3409922D01*
X-1834967Y-3411780D01*
X-1768346Y-3475303D01*
X-1766602Y-3476424D01*
X-1755481Y-3484970D01*
X-1755456Y-3484938D01*
X-1750881Y-3488393D01*
X-1672315Y-3537039D01*
X-1670598Y-3538122D01*
X-1590254Y-3589756D01*
X-1590252Y-3589757D01*
X-1585000Y-3592465D01*
X-1585034Y-3592529D01*
X-1581512Y-3594308D01*
X-1581350Y-3593984D01*
X-1576227Y-3596534D01*
X-1576218Y-3596540D01*
X-1527667Y-3615348D01*
X-1486840Y-3631164D01*
X-1485612Y-3631647D01*
X-1442246Y-3649009D01*
X-1393722Y-3668436D01*
X-1391753Y-3669013D01*
X-1385660Y-3670465D01*
X-1384661Y-3670749D01*
X-1384660Y-3670749D01*
X-1384655Y-3670751D01*
X-1286828Y-3689037D01*
X-1286717Y-3689058D01*
X-1185849Y-3708500D01*
X-1185844Y-3708500D01*
X-977284Y-3708500D01*
X-977282Y-3708500D01*
X-930603Y-3699773D01*
X-919651Y-3698229D01*
X-869261Y-3693419D01*
X-827349Y-3681112D01*
X-815214Y-3678203D01*
X-775345Y-3670751D01*
X-727873Y-3652360D01*
X-718014Y-3649009D01*
X-687128Y-3639939D01*
X-666138Y-3633777D01*
X-653606Y-3627315D01*
X-630391Y-3615348D01*
X-618366Y-3609937D01*
X-583782Y-3596540D01*
X-537543Y-3567909D01*
X-529081Y-3563118D01*
X-480651Y-3538151D01*
X-477974Y-3536771D01*
X-449078Y-3514046D01*
X-437718Y-3506099D01*
X-409118Y-3488392D01*
X-366367Y-3449417D01*
X-359506Y-3443606D01*
X-311568Y-3405908D01*
X-289769Y-3380749D01*
X-279595Y-3370316D01*
X-273556Y-3364809D01*
X-257299Y-3349991D01*
X-220346Y-3301055D01*
X-215136Y-3294618D01*
X-172935Y-3245918D01*
X-158011Y-3220066D01*
X-149592Y-3207361D01*
X-133497Y-3186050D01*
X-104636Y-3128088D01*
X-101023Y-3121360D01*
X-67087Y-3062582D01*
X-58463Y-3037661D01*
X-52291Y-3022965D01*
X-41926Y-3002152D01*
X-23255Y-2936527D01*
X-21173Y-2929921D01*
X2150Y-2862535D01*
X2153Y-2862527D01*
X5412Y-2839857D01*
X8878Y-2823590D01*
X14294Y-2804559D01*
X20906Y-2733199D01*
X21638Y-2727003D01*
X28352Y-2680313D01*
X32281Y-2652984D01*
X31356Y-2633578D01*
X31743Y-2616238D01*
X33249Y-2600000D01*
X26318Y-2525214D01*
X25930Y-2519679D01*
X24369Y-2486911D01*
X22208Y-2441526D01*
X18441Y-2426002D01*
X15478Y-2408229D01*
X14294Y-2395441D01*
X-7217Y-2319840D01*
X-8444Y-2315182D01*
X-14372Y-2290745D01*
X-27702Y-2235796D01*
X-32893Y-2224430D01*
X-39364Y-2206853D01*
X-41924Y-2197856D01*
X-41926Y-2197848D01*
X-78489Y-2124421D01*
X-80284Y-2120659D01*
X-92146Y-2094685D01*
X-115644Y-2043229D01*
X-120879Y-2035877D01*
X-130871Y-2019224D01*
X-133497Y-2013950D01*
X-156540Y-1983437D01*
X-184990Y-1945763D01*
X-187044Y-1942963D01*
X-238441Y-1870785D01*
X-238446Y-1870780D01*
X-242454Y-1866958D01*
X-255847Y-1851931D01*
X-257292Y-1850018D01*
X-257295Y-1850014D01*
X-257296Y-1850013D01*
X-257299Y-1850009D01*
X-323087Y-1790036D01*
X-324998Y-1788253D01*
X-391654Y-1724697D01*
X-391657Y-1724694D01*
X-393399Y-1723575D01*
X-404520Y-1715029D01*
X-404544Y-1715062D01*
X-409123Y-1711604D01*
X-487673Y-1662967D01*
X-489433Y-1661857D01*
X-569742Y-1610246D01*
X-575001Y-1607535D01*
X-574968Y-1607470D01*
X-578488Y-1605692D01*
X-578649Y-1606016D01*
X-583787Y-1603457D01*
X-673117Y-1568851D01*
X-674409Y-1568343D01*
X-766278Y-1531564D01*
X-768239Y-1530988D01*
X-774320Y-1529540D01*
X-775340Y-1529250D01*
X-872983Y-1510996D01*
X-873663Y-1510867D01*
X-974150Y-1491500D01*
X-974151Y-1491500D01*
X-977282Y-1491500D01*
X-1182718Y-1491500D01*
X-1182724Y-1491500D01*
X-1229386Y-1500222D01*
X-1240378Y-1501771D01*
X-1290735Y-1506580D01*
X-1290739Y-1506580D01*
X-1290739Y-1506581D01*
X-1330914Y-1518377D01*
X-1332654Y-1518888D01*
X-1344800Y-1521798D01*
X-1384649Y-1529247D01*
X-1384662Y-1529251D01*
X-1432134Y-1547641D01*
X-1441989Y-1550991D01*
X-1493860Y-1566222D01*
X-1529611Y-1584652D01*
X-1541629Y-1590059D01*
X-1576219Y-1603460D01*
X-1576220Y-1603460D01*
X-1622460Y-1632091D01*
X-1630915Y-1636878D01*
X-1682023Y-1663226D01*
X-1710918Y-1685949D01*
X-1722286Y-1693901D01*
X-1750885Y-1711609D01*
X-1793625Y-1750571D01*
X-1800506Y-1756400D01*
X-1848435Y-1794093D01*
X-1870237Y-1819253D01*
X-1880402Y-1829678D01*
X-1902699Y-1850006D01*
X-1939634Y-1898915D01*
X-1944873Y-1905387D01*
X-1987064Y-1954079D01*
X-2001986Y-1979925D01*
X-2010413Y-1992641D01*
X-2026503Y-2013950D01*
X-2026504Y-2013951D01*
X-2026504Y-2013952D01*
X-2026509Y-2013960D01*
X-2055368Y-2071914D01*
X-2058978Y-2078637D01*
X-2092912Y-2137414D01*
X-2092913Y-2137418D01*
X-2098532Y-2153653D01*
X-2101536Y-2162331D01*
X-2107712Y-2177036D01*
X-2118072Y-2197842D01*
X-2118077Y-2197856D01*
X-2136744Y-2263459D01*
X-2138828Y-2270077D01*
X-2162154Y-2337475D01*
X-2165413Y-2360137D01*
X-2168881Y-2376409D01*
X-2174294Y-2395437D01*
X-2180907Y-2466796D01*
X-2181640Y-2472999D01*
X-2192281Y-2547010D01*
X-2192281Y-2547015D01*
X-2191357Y-2566434D01*
X-2191745Y-2583766D01*
X-2193249Y-2600003D01*
X-2737220Y-2600003D01*
X-2701732Y-2391140D01*
X-2698638Y-2377588D01*
X-2695989Y-2368396D01*
X-2617134Y-2094681D01*
X-2612542Y-2081561D01*
X-2584536Y-2013947D01*
X-2499878Y-1809562D01*
X-2493856Y-1797056D01*
X-2351429Y-1539356D01*
X-2344051Y-1527613D01*
X-2173662Y-1287473D01*
X-2165024Y-1276641D01*
X-1968822Y-1057090D01*
X-1959010Y-1047278D01*
X-1739459Y-851076D01*
X-1728627Y-842438D01*
X-1488487Y-672049D01*
X-1476744Y-664671D01*
X-1219044Y-522244D01*
X-1206538Y-516222D01*
X-934539Y-403558D01*
X-921419Y-398966D01*
X-638507Y-317460D01*
X-624960Y-314368D01*
X-334703Y-265051D01*
X-320904Y-263497D01*
X-60439Y-248869D01*
X-23472Y-246794D01*
X-16520Y-246599D01*
X24169Y-246599D01*
X221905Y-246599D01*
X288944Y-266284D01*
G37*
%TD.AperFunction*%
%TA.AperFunction,Conductor*%
G36*
X82113471Y-246794D02*
G01*
X82154188Y-249080D01*
X82410900Y-263496D01*
X82424703Y-265052D01*
X82714953Y-314368D01*
X82728510Y-317462D01*
X83011413Y-398965D01*
X83024537Y-403558D01*
X83296528Y-516219D01*
X83309058Y-522253D01*
X83566727Y-664663D01*
X83578500Y-672060D01*
X83598127Y-685986D01*
X83818615Y-842429D01*
X83829479Y-851094D01*
X83937565Y-947686D01*
X84048992Y-1047264D01*
X84058824Y-1057096D01*
X84255010Y-1276627D01*
X84263669Y-1287484D01*
X84434041Y-1527601D01*
X84441434Y-1539366D01*
X84583847Y-1797042D01*
X84589880Y-1809571D01*
X84702541Y-2081561D01*
X84707134Y-2094685D01*
X84788637Y-2377588D01*
X84791731Y-2391145D01*
X84841046Y-2681387D01*
X84842603Y-2695205D01*
X84859305Y-2992608D01*
X84859500Y-2999561D01*
X84859500Y-4872561D01*
X84839815Y-4939600D01*
X84787011Y-4985355D01*
X84722244Y-4995850D01*
X84667844Y-4990000D01*
X84020000Y-4990000D01*
X84020000Y-5904498D01*
X83912315Y-5855320D01*
X83805763Y-5840000D01*
X83734237Y-5840000D01*
X83627685Y-5855320D01*
X83520000Y-5904498D01*
X83520000Y-4990000D01*
X82872155Y-4990000D01*
X82812627Y-4996401D01*
X82812620Y-4996403D01*
X82677913Y-5046645D01*
X82677906Y-5046649D01*
X82562812Y-5132809D01*
X82562809Y-5132812D01*
X82476649Y-5247906D01*
X82476645Y-5247913D01*
X82426403Y-5382620D01*
X82426401Y-5382627D01*
X82420000Y-5442155D01*
X82420000Y-6090000D01*
X83336314Y-6090000D01*
X83310507Y-6130156D01*
X83270000Y-6268111D01*
X83270000Y-6411889D01*
X83310507Y-6549844D01*
X83336314Y-6590000D01*
X82420000Y-6590000D01*
X82420000Y-7237844D01*
X82426401Y-7297372D01*
X82426403Y-7297379D01*
X82476645Y-7432086D01*
X82476649Y-7432093D01*
X82562809Y-7547187D01*
X82562812Y-7547190D01*
X82677906Y-7633350D01*
X82677913Y-7633354D01*
X82797810Y-7678073D01*
X82853744Y-7719944D01*
X82878161Y-7785409D01*
X82863309Y-7853682D01*
X82845706Y-7878238D01*
X82694284Y-8042723D01*
X82694276Y-8042734D01*
X82571140Y-8231207D01*
X82480703Y-8437385D01*
X82425436Y-8655628D01*
X82425434Y-8655640D01*
X82406844Y-8879994D01*
X82406844Y-8880005D01*
X82425434Y-9104359D01*
X82425436Y-9104371D01*
X82480703Y-9322614D01*
X82571140Y-9528792D01*
X82694276Y-9717265D01*
X82694284Y-9717276D01*
X82846756Y-9882902D01*
X82846761Y-9882907D01*
X82873341Y-9903595D01*
X83024424Y-10021189D01*
X83024429Y-10021191D01*
X83024431Y-10021193D01*
X83060930Y-10040946D01*
X83110520Y-10090165D01*
X83125628Y-10158382D01*
X83101457Y-10223937D01*
X83060930Y-10259054D01*
X83024431Y-10278806D01*
X83024422Y-10278812D01*
X82846761Y-10417092D01*
X82846756Y-10417097D01*
X82694284Y-10582723D01*
X82694276Y-10582734D01*
X82571140Y-10771207D01*
X82480703Y-10977385D01*
X82425436Y-11195628D01*
X82425434Y-11195640D01*
X82406844Y-11419994D01*
X82406844Y-11420005D01*
X82425434Y-11644359D01*
X82425436Y-11644371D01*
X82480703Y-11862614D01*
X82571140Y-12068792D01*
X82694276Y-12257265D01*
X82694284Y-12257276D01*
X82846756Y-12422902D01*
X82846761Y-12422907D01*
X82880663Y-12449294D01*
X83024424Y-12561189D01*
X83024429Y-12561191D01*
X83024431Y-12561193D01*
X83060930Y-12580946D01*
X83110520Y-12630165D01*
X83125628Y-12698382D01*
X83101457Y-12763937D01*
X83060930Y-12799054D01*
X83024431Y-12818806D01*
X83024422Y-12818812D01*
X82846761Y-12957092D01*
X82846756Y-12957097D01*
X82694284Y-13122723D01*
X82694276Y-13122734D01*
X82571140Y-13311207D01*
X82480703Y-13517385D01*
X82425436Y-13735628D01*
X82425434Y-13735640D01*
X82406844Y-13959994D01*
X82406844Y-13960005D01*
X82425434Y-14184359D01*
X82425436Y-14184371D01*
X82480703Y-14402614D01*
X82571140Y-14608792D01*
X82694276Y-14797265D01*
X82694284Y-14797276D01*
X82846756Y-14962902D01*
X82846761Y-14962907D01*
X82880663Y-14989294D01*
X83024424Y-15101189D01*
X83024425Y-15101189D01*
X83024427Y-15101191D01*
X83142671Y-15165181D01*
X83222426Y-15208342D01*
X83419567Y-15276020D01*
X83426719Y-15278476D01*
X83435365Y-15281444D01*
X83657431Y-15318500D01*
X83882569Y-15318500D01*
X84104635Y-15281444D01*
X84317574Y-15208342D01*
X84515576Y-15101189D01*
X84659337Y-14989293D01*
X84724331Y-14963651D01*
X84792871Y-14977217D01*
X84843196Y-15025685D01*
X84859500Y-15087147D01*
X84859500Y-17307618D01*
X84859305Y-17314571D01*
X84842602Y-17611993D01*
X84841045Y-17625811D01*
X84791730Y-17916053D01*
X84788636Y-17929610D01*
X84707133Y-18212513D01*
X84702540Y-18225637D01*
X84589879Y-18497627D01*
X84583846Y-18510156D01*
X84441436Y-18767826D01*
X84434038Y-18779600D01*
X84263676Y-19019704D01*
X84255006Y-19030576D01*
X84058830Y-19250097D01*
X84048997Y-19259930D01*
X83829477Y-19456105D01*
X83818605Y-19464775D01*
X83578500Y-19635138D01*
X83566727Y-19642535D01*
X83309058Y-19784945D01*
X83296528Y-19790979D01*
X83024537Y-19903640D01*
X83011413Y-19908233D01*
X82728510Y-19989736D01*
X82714953Y-19992830D01*
X82424711Y-20042145D01*
X82410893Y-20043702D01*
X82113490Y-20060404D01*
X82106537Y-20060599D01*
X81557951Y-20060599D01*
X81490912Y-20040914D01*
X81445157Y-19988110D01*
X81435213Y-19918952D01*
X81464238Y-19855396D01*
X81466756Y-19852691D01*
X81468101Y-19851087D01*
X81603600Y-19657578D01*
X81703429Y-19443492D01*
X81703432Y-19443486D01*
X81760636Y-19230000D01*
X80863686Y-19230000D01*
X80889493Y-19189844D01*
X80930000Y-19051889D01*
X80930000Y-18908111D01*
X80889493Y-18770156D01*
X80863686Y-18730000D01*
X81760636Y-18730000D01*
X81760635Y-18729999D01*
X81703432Y-18516513D01*
X81703429Y-18516507D01*
X81603600Y-18302422D01*
X81603599Y-18302420D01*
X81468113Y-18108926D01*
X81468108Y-18108920D01*
X81301082Y-17941894D01*
X81107578Y-17806399D01*
X80900854Y-17710003D01*
X82106751Y-17710003D01*
X82113679Y-17784776D01*
X82114067Y-17790313D01*
X82117791Y-17868470D01*
X82117792Y-17868475D01*
X82121555Y-17883986D01*
X82124521Y-17901774D01*
X82125706Y-17914559D01*
X82145075Y-17982636D01*
X82147200Y-17990102D01*
X82148438Y-17994802D01*
X82167701Y-18074201D01*
X82167702Y-18074206D01*
X82172891Y-18085568D01*
X82179359Y-18103134D01*
X82181922Y-18112141D01*
X82181928Y-18112157D01*
X82218476Y-18185554D01*
X82220270Y-18189314D01*
X82255641Y-18266765D01*
X82255647Y-18266776D01*
X82260879Y-18274123D01*
X82270868Y-18290771D01*
X82273496Y-18296048D01*
X82273498Y-18296052D01*
X82324989Y-18364236D01*
X82327042Y-18367035D01*
X82378443Y-18439218D01*
X82378445Y-18439219D01*
X82382459Y-18443047D01*
X82395837Y-18458057D01*
X82397292Y-18459983D01*
X82397295Y-18459987D01*
X82397298Y-18459989D01*
X82397299Y-18459991D01*
X82463040Y-18519922D01*
X82465033Y-18521780D01*
X82531654Y-18585303D01*
X82533398Y-18586424D01*
X82544519Y-18594970D01*
X82544544Y-18594938D01*
X82549119Y-18598393D01*
X82627685Y-18647039D01*
X82629402Y-18648122D01*
X82709746Y-18699756D01*
X82709748Y-18699757D01*
X82715000Y-18702465D01*
X82714966Y-18702529D01*
X82718488Y-18704308D01*
X82718650Y-18703984D01*
X82723773Y-18706534D01*
X82723782Y-18706540D01*
X82813160Y-18741164D01*
X82814388Y-18741647D01*
X82849319Y-18755632D01*
X82906278Y-18778436D01*
X82908247Y-18779013D01*
X82914340Y-18780465D01*
X82915339Y-18780749D01*
X82915340Y-18780749D01*
X82915345Y-18780751D01*
X83013172Y-18799037D01*
X83013283Y-18799058D01*
X83114151Y-18818500D01*
X83114156Y-18818500D01*
X83322716Y-18818500D01*
X83322718Y-18818500D01*
X83369397Y-18809773D01*
X83380349Y-18808229D01*
X83430739Y-18803419D01*
X83472651Y-18791112D01*
X83484786Y-18788203D01*
X83524655Y-18780751D01*
X83572127Y-18762360D01*
X83581986Y-18759009D01*
X83612872Y-18749939D01*
X83633862Y-18743777D01*
X83646394Y-18737315D01*
X83669609Y-18725348D01*
X83681634Y-18719937D01*
X83716218Y-18706540D01*
X83762457Y-18677909D01*
X83770919Y-18673118D01*
X83819349Y-18648151D01*
X83822026Y-18646771D01*
X83850922Y-18624046D01*
X83862282Y-18616099D01*
X83890882Y-18598392D01*
X83933633Y-18559417D01*
X83940494Y-18553606D01*
X83988432Y-18515908D01*
X84010231Y-18490749D01*
X84020405Y-18480316D01*
X84026444Y-18474809D01*
X84042701Y-18459991D01*
X84079654Y-18411055D01*
X84084864Y-18404618D01*
X84127065Y-18355918D01*
X84141989Y-18330066D01*
X84150408Y-18317361D01*
X84166503Y-18296050D01*
X84195364Y-18238088D01*
X84198977Y-18231360D01*
X84202281Y-18225637D01*
X84232913Y-18172582D01*
X84241537Y-18147661D01*
X84247709Y-18132965D01*
X84258074Y-18112152D01*
X84276745Y-18046527D01*
X84278827Y-18039921D01*
X84302150Y-17972535D01*
X84302153Y-17972527D01*
X84305412Y-17949857D01*
X84308878Y-17933590D01*
X84314294Y-17914559D01*
X84320906Y-17843199D01*
X84321638Y-17837003D01*
X84324042Y-17820287D01*
X84332281Y-17762984D01*
X84331356Y-17743578D01*
X84331743Y-17726238D01*
X84333249Y-17710000D01*
X84326318Y-17635214D01*
X84325930Y-17629679D01*
X84325540Y-17621500D01*
X84322208Y-17551526D01*
X84318441Y-17536002D01*
X84315478Y-17518229D01*
X84314294Y-17505441D01*
X84292783Y-17429840D01*
X84291556Y-17425182D01*
X84272298Y-17345796D01*
X84267107Y-17334430D01*
X84260636Y-17316853D01*
X84259975Y-17314530D01*
X84258074Y-17307848D01*
X84221510Y-17234419D01*
X84219716Y-17230659D01*
X84206583Y-17201902D01*
X84184356Y-17153229D01*
X84179121Y-17145877D01*
X84169129Y-17129224D01*
X84166503Y-17123950D01*
X84115002Y-17055752D01*
X84112956Y-17052963D01*
X84112867Y-17052838D01*
X84061559Y-16980785D01*
X84061554Y-16980780D01*
X84057546Y-16976958D01*
X84044153Y-16961931D01*
X84042708Y-16960018D01*
X84042705Y-16960014D01*
X84042704Y-16960013D01*
X84042701Y-16960009D01*
X83976913Y-16900036D01*
X83975002Y-16898253D01*
X83908346Y-16834697D01*
X83908343Y-16834694D01*
X83906601Y-16833575D01*
X83895480Y-16825029D01*
X83895456Y-16825062D01*
X83890877Y-16821604D01*
X83812327Y-16772967D01*
X83810567Y-16771857D01*
X83730258Y-16720246D01*
X83724999Y-16717535D01*
X83725032Y-16717470D01*
X83721512Y-16715692D01*
X83721351Y-16716016D01*
X83716213Y-16713457D01*
X83626883Y-16678851D01*
X83625591Y-16678343D01*
X83533722Y-16641564D01*
X83531761Y-16640988D01*
X83525680Y-16639540D01*
X83524660Y-16639250D01*
X83427017Y-16620996D01*
X83426337Y-16620867D01*
X83325850Y-16601500D01*
X83325849Y-16601500D01*
X83322718Y-16601500D01*
X83117282Y-16601500D01*
X83117276Y-16601500D01*
X83070614Y-16610222D01*
X83059622Y-16611771D01*
X83009265Y-16616580D01*
X83009261Y-16616580D01*
X83009261Y-16616581D01*
X82985005Y-16623703D01*
X82967346Y-16628888D01*
X82955200Y-16631798D01*
X82915351Y-16639247D01*
X82915338Y-16639251D01*
X82867866Y-16657641D01*
X82858011Y-16660991D01*
X82806140Y-16676222D01*
X82770389Y-16694652D01*
X82758371Y-16700059D01*
X82723781Y-16713460D01*
X82723780Y-16713460D01*
X82677540Y-16742091D01*
X82669085Y-16746878D01*
X82617977Y-16773226D01*
X82589082Y-16795949D01*
X82577714Y-16803901D01*
X82549115Y-16821609D01*
X82506375Y-16860571D01*
X82499494Y-16866400D01*
X82451565Y-16904093D01*
X82429763Y-16929253D01*
X82419598Y-16939678D01*
X82397301Y-16960006D01*
X82360366Y-17008915D01*
X82355127Y-17015387D01*
X82312936Y-17064079D01*
X82298014Y-17089925D01*
X82289587Y-17102641D01*
X82273497Y-17123950D01*
X82273496Y-17123951D01*
X82273496Y-17123952D01*
X82273491Y-17123960D01*
X82244632Y-17181914D01*
X82241022Y-17188637D01*
X82207088Y-17247414D01*
X82207087Y-17247418D01*
X82200221Y-17267256D01*
X82198464Y-17272331D01*
X82192288Y-17287036D01*
X82181928Y-17307842D01*
X82181923Y-17307856D01*
X82163256Y-17373459D01*
X82161172Y-17380077D01*
X82137846Y-17447475D01*
X82134587Y-17470137D01*
X82131119Y-17486409D01*
X82125706Y-17505437D01*
X82119093Y-17576796D01*
X82118360Y-17582999D01*
X82107719Y-17657010D01*
X82107719Y-17657015D01*
X82108643Y-17676434D01*
X82108254Y-17693766D01*
X82106761Y-17709899D01*
X82106751Y-17710003D01*
X80900854Y-17710003D01*
X80893492Y-17706570D01*
X80893486Y-17706567D01*
X80680000Y-17649364D01*
X80680000Y-18544498D01*
X80572315Y-18495320D01*
X80465763Y-18480000D01*
X80394237Y-18480000D01*
X80287685Y-18495320D01*
X80180000Y-18544498D01*
X80180000Y-17649364D01*
X80179999Y-17649364D01*
X79966513Y-17706567D01*
X79966507Y-17706570D01*
X79752422Y-17806399D01*
X79752420Y-17806400D01*
X79558926Y-17941886D01*
X79558920Y-17941891D01*
X79391891Y-18108920D01*
X79391890Y-18108922D01*
X79265131Y-18289952D01*
X79210554Y-18333577D01*
X79141055Y-18340769D01*
X79078701Y-18309247D01*
X79059752Y-18286656D01*
X78965722Y-18142732D01*
X78965715Y-18142725D01*
X78965715Y-18142723D01*
X78813243Y-17977097D01*
X78813238Y-17977092D01*
X78673688Y-17868475D01*
X78635576Y-17838811D01*
X78635575Y-17838810D01*
X78635572Y-17838808D01*
X78437580Y-17731661D01*
X78437577Y-17731659D01*
X78437574Y-17731658D01*
X78437571Y-17731657D01*
X78437569Y-17731656D01*
X78224637Y-17658556D01*
X78002569Y-17621500D01*
X77777431Y-17621500D01*
X77555362Y-17658556D01*
X77342430Y-17731656D01*
X77342419Y-17731661D01*
X77144427Y-17838808D01*
X77144422Y-17838812D01*
X76966761Y-17977092D01*
X76966756Y-17977097D01*
X76814284Y-18142723D01*
X76814276Y-18142734D01*
X76723808Y-18281206D01*
X76670662Y-18326562D01*
X76601431Y-18335986D01*
X76538095Y-18306484D01*
X76516192Y-18281206D01*
X76445223Y-18172581D01*
X76425722Y-18142732D01*
X76425719Y-18142729D01*
X76425715Y-18142723D01*
X76273243Y-17977097D01*
X76273238Y-17977092D01*
X76133688Y-17868475D01*
X76095576Y-17838811D01*
X76095575Y-17838810D01*
X76095572Y-17838808D01*
X75897580Y-17731661D01*
X75897577Y-17731659D01*
X75897574Y-17731658D01*
X75897571Y-17731657D01*
X75897569Y-17731656D01*
X75684637Y-17658556D01*
X75462569Y-17621500D01*
X75237431Y-17621500D01*
X75015362Y-17658556D01*
X74802430Y-17731656D01*
X74802419Y-17731661D01*
X74604427Y-17838808D01*
X74604422Y-17838812D01*
X74426761Y-17977092D01*
X74426756Y-17977097D01*
X74274284Y-18142723D01*
X74274276Y-18142734D01*
X74183808Y-18281206D01*
X74130662Y-18326562D01*
X74061431Y-18335986D01*
X73998095Y-18306484D01*
X73976192Y-18281206D01*
X73905223Y-18172581D01*
X73885722Y-18142732D01*
X73885719Y-18142729D01*
X73885715Y-18142723D01*
X73733243Y-17977097D01*
X73733238Y-17977092D01*
X73593688Y-17868475D01*
X73555576Y-17838811D01*
X73555575Y-17838810D01*
X73555572Y-17838808D01*
X73357580Y-17731661D01*
X73357577Y-17731659D01*
X73357574Y-17731658D01*
X73357571Y-17731657D01*
X73357569Y-17731656D01*
X73144637Y-17658556D01*
X72922569Y-17621500D01*
X72697431Y-17621500D01*
X72475362Y-17658556D01*
X72262430Y-17731656D01*
X72262419Y-17731661D01*
X72064427Y-17838808D01*
X72064422Y-17838812D01*
X71886761Y-17977092D01*
X71886756Y-17977097D01*
X71734284Y-18142723D01*
X71734276Y-18142734D01*
X71643808Y-18281206D01*
X71590662Y-18326562D01*
X71521431Y-18335986D01*
X71458095Y-18306484D01*
X71436192Y-18281206D01*
X71365223Y-18172581D01*
X71345722Y-18142732D01*
X71345719Y-18142729D01*
X71345715Y-18142723D01*
X71193243Y-17977097D01*
X71193238Y-17977092D01*
X71053688Y-17868475D01*
X71015576Y-17838811D01*
X71015575Y-17838810D01*
X71015572Y-17838808D01*
X70817580Y-17731661D01*
X70817577Y-17731659D01*
X70817574Y-17731658D01*
X70817571Y-17731657D01*
X70817569Y-17731656D01*
X70604637Y-17658556D01*
X70382569Y-17621500D01*
X70157431Y-17621500D01*
X69935362Y-17658556D01*
X69722430Y-17731656D01*
X69722419Y-17731661D01*
X69524427Y-17838808D01*
X69524422Y-17838812D01*
X69346761Y-17977092D01*
X69346756Y-17977097D01*
X69194284Y-18142723D01*
X69194276Y-18142734D01*
X69103808Y-18281206D01*
X69050662Y-18326562D01*
X68981431Y-18335986D01*
X68918095Y-18306484D01*
X68896192Y-18281206D01*
X68825223Y-18172581D01*
X68805722Y-18142732D01*
X68805719Y-18142729D01*
X68805715Y-18142723D01*
X68653243Y-17977097D01*
X68653238Y-17977092D01*
X68513688Y-17868475D01*
X68475576Y-17838811D01*
X68475575Y-17838810D01*
X68475572Y-17838808D01*
X68277580Y-17731661D01*
X68277577Y-17731659D01*
X68277574Y-17731658D01*
X68277571Y-17731657D01*
X68277569Y-17731656D01*
X68064637Y-17658556D01*
X67842569Y-17621500D01*
X67617431Y-17621500D01*
X67395362Y-17658556D01*
X67182430Y-17731656D01*
X67182419Y-17731661D01*
X66984427Y-17838808D01*
X66984422Y-17838812D01*
X66806761Y-17977092D01*
X66806756Y-17977097D01*
X66654284Y-18142723D01*
X66654276Y-18142734D01*
X66563808Y-18281206D01*
X66510662Y-18326562D01*
X66441431Y-18335986D01*
X66378095Y-18306484D01*
X66356192Y-18281206D01*
X66285223Y-18172581D01*
X66265722Y-18142732D01*
X66265719Y-18142729D01*
X66265715Y-18142723D01*
X66113243Y-17977097D01*
X66113238Y-17977092D01*
X65973688Y-17868475D01*
X65935576Y-17838811D01*
X65935575Y-17838810D01*
X65935572Y-17838808D01*
X65737580Y-17731661D01*
X65737577Y-17731659D01*
X65737574Y-17731658D01*
X65737571Y-17731657D01*
X65737569Y-17731656D01*
X65524637Y-17658556D01*
X65302569Y-17621500D01*
X65077431Y-17621500D01*
X64855362Y-17658556D01*
X64642430Y-17731656D01*
X64642419Y-17731661D01*
X64444427Y-17838808D01*
X64444422Y-17838812D01*
X64266761Y-17977092D01*
X64266756Y-17977097D01*
X64114284Y-18142723D01*
X64114276Y-18142734D01*
X64023808Y-18281206D01*
X63970662Y-18326562D01*
X63901431Y-18335986D01*
X63838095Y-18306484D01*
X63816192Y-18281206D01*
X63745223Y-18172581D01*
X63725722Y-18142732D01*
X63725719Y-18142729D01*
X63725715Y-18142723D01*
X63573243Y-17977097D01*
X63573238Y-17977092D01*
X63433688Y-17868475D01*
X63395576Y-17838811D01*
X63395575Y-17838810D01*
X63395572Y-17838808D01*
X63197580Y-17731661D01*
X63197577Y-17731659D01*
X63197574Y-17731658D01*
X63197571Y-17731657D01*
X63197569Y-17731656D01*
X62984637Y-17658556D01*
X62762569Y-17621500D01*
X62537431Y-17621500D01*
X62315362Y-17658556D01*
X62102430Y-17731656D01*
X62102419Y-17731661D01*
X61904427Y-17838808D01*
X61904422Y-17838812D01*
X61726761Y-17977092D01*
X61726756Y-17977097D01*
X61574284Y-18142723D01*
X61574276Y-18142734D01*
X61483808Y-18281206D01*
X61430662Y-18326562D01*
X61361431Y-18335986D01*
X61298095Y-18306484D01*
X61276192Y-18281206D01*
X61205223Y-18172581D01*
X61185722Y-18142732D01*
X61185719Y-18142729D01*
X61185715Y-18142723D01*
X61033243Y-17977097D01*
X61033238Y-17977092D01*
X60893688Y-17868475D01*
X60855576Y-17838811D01*
X60855575Y-17838810D01*
X60855572Y-17838808D01*
X60657580Y-17731661D01*
X60657577Y-17731659D01*
X60657574Y-17731658D01*
X60657571Y-17731657D01*
X60657569Y-17731656D01*
X60444637Y-17658556D01*
X60222569Y-17621500D01*
X59997431Y-17621500D01*
X59775362Y-17658556D01*
X59562430Y-17731656D01*
X59562419Y-17731661D01*
X59364427Y-17838808D01*
X59364422Y-17838812D01*
X59186761Y-17977092D01*
X59186756Y-17977097D01*
X59034284Y-18142723D01*
X59034276Y-18142734D01*
X58943808Y-18281206D01*
X58890662Y-18326562D01*
X58821431Y-18335986D01*
X58758095Y-18306484D01*
X58736192Y-18281206D01*
X58665223Y-18172581D01*
X58645722Y-18142732D01*
X58645719Y-18142729D01*
X58645715Y-18142723D01*
X58493243Y-17977097D01*
X58493238Y-17977092D01*
X58353688Y-17868475D01*
X58315576Y-17838811D01*
X58315575Y-17838810D01*
X58315572Y-17838808D01*
X58117580Y-17731661D01*
X58117577Y-17731659D01*
X58117574Y-17731658D01*
X58117571Y-17731657D01*
X58117569Y-17731656D01*
X57904637Y-17658556D01*
X57682569Y-17621500D01*
X57457431Y-17621500D01*
X57235362Y-17658556D01*
X57022430Y-17731656D01*
X57022419Y-17731661D01*
X56824427Y-17838808D01*
X56824422Y-17838812D01*
X56646761Y-17977092D01*
X56646756Y-17977097D01*
X56494284Y-18142723D01*
X56494276Y-18142734D01*
X56403808Y-18281206D01*
X56350662Y-18326562D01*
X56281431Y-18335986D01*
X56218095Y-18306484D01*
X56196192Y-18281206D01*
X56125223Y-18172581D01*
X56105722Y-18142732D01*
X56105719Y-18142729D01*
X56105715Y-18142723D01*
X55953243Y-17977097D01*
X55953238Y-17977092D01*
X55813688Y-17868475D01*
X55775576Y-17838811D01*
X55775575Y-17838810D01*
X55775572Y-17838808D01*
X55577580Y-17731661D01*
X55577577Y-17731659D01*
X55577574Y-17731658D01*
X55577571Y-17731657D01*
X55577569Y-17731656D01*
X55364637Y-17658556D01*
X55142569Y-17621500D01*
X54917431Y-17621500D01*
X54695362Y-17658556D01*
X54482430Y-17731656D01*
X54482419Y-17731661D01*
X54284427Y-17838808D01*
X54284422Y-17838812D01*
X54106761Y-17977092D01*
X54106756Y-17977097D01*
X53954284Y-18142723D01*
X53954276Y-18142734D01*
X53863808Y-18281206D01*
X53810662Y-18326562D01*
X53741431Y-18335986D01*
X53678095Y-18306484D01*
X53656192Y-18281206D01*
X53585223Y-18172581D01*
X53565722Y-18142732D01*
X53565719Y-18142729D01*
X53565715Y-18142723D01*
X53413243Y-17977097D01*
X53413238Y-17977092D01*
X53273688Y-17868475D01*
X53235576Y-17838811D01*
X53235575Y-17838810D01*
X53235572Y-17838808D01*
X53037580Y-17731661D01*
X53037577Y-17731659D01*
X53037574Y-17731658D01*
X53037571Y-17731657D01*
X53037569Y-17731656D01*
X52824637Y-17658556D01*
X52602569Y-17621500D01*
X52377431Y-17621500D01*
X52155362Y-17658556D01*
X51942430Y-17731656D01*
X51942419Y-17731661D01*
X51744427Y-17838808D01*
X51744422Y-17838812D01*
X51566761Y-17977092D01*
X51566756Y-17977097D01*
X51414284Y-18142723D01*
X51414276Y-18142734D01*
X51323808Y-18281206D01*
X51270662Y-18326562D01*
X51201431Y-18335986D01*
X51138095Y-18306484D01*
X51116192Y-18281206D01*
X51045223Y-18172581D01*
X51025722Y-18142732D01*
X51025719Y-18142729D01*
X51025715Y-18142723D01*
X50873243Y-17977097D01*
X50873238Y-17977092D01*
X50733688Y-17868475D01*
X50695576Y-17838811D01*
X50695575Y-17838810D01*
X50695572Y-17838808D01*
X50497580Y-17731661D01*
X50497577Y-17731659D01*
X50497574Y-17731658D01*
X50497571Y-17731657D01*
X50497569Y-17731656D01*
X50284637Y-17658556D01*
X50062569Y-17621500D01*
X49837431Y-17621500D01*
X49615362Y-17658556D01*
X49402430Y-17731656D01*
X49402419Y-17731661D01*
X49204427Y-17838808D01*
X49204422Y-17838812D01*
X49026761Y-17977092D01*
X49026756Y-17977097D01*
X48874284Y-18142723D01*
X48874276Y-18142734D01*
X48783808Y-18281206D01*
X48730662Y-18326562D01*
X48661431Y-18335986D01*
X48598095Y-18306484D01*
X48576192Y-18281206D01*
X48505223Y-18172581D01*
X48485722Y-18142732D01*
X48485719Y-18142729D01*
X48485715Y-18142723D01*
X48333243Y-17977097D01*
X48333238Y-17977092D01*
X48193688Y-17868475D01*
X48155576Y-17838811D01*
X48155575Y-17838810D01*
X48155572Y-17838808D01*
X47957580Y-17731661D01*
X47957577Y-17731659D01*
X47957574Y-17731658D01*
X47957571Y-17731657D01*
X47957569Y-17731656D01*
X47744637Y-17658556D01*
X47522569Y-17621500D01*
X47297431Y-17621500D01*
X47075362Y-17658556D01*
X46862430Y-17731656D01*
X46862419Y-17731661D01*
X46664427Y-17838808D01*
X46664422Y-17838812D01*
X46486761Y-17977092D01*
X46486756Y-17977097D01*
X46334284Y-18142723D01*
X46334276Y-18142734D01*
X46243808Y-18281206D01*
X46190662Y-18326562D01*
X46121431Y-18335986D01*
X46058095Y-18306484D01*
X46036192Y-18281206D01*
X45965223Y-18172581D01*
X45945722Y-18142732D01*
X45945719Y-18142729D01*
X45945715Y-18142723D01*
X45793243Y-17977097D01*
X45793238Y-17977092D01*
X45653688Y-17868475D01*
X45615576Y-17838811D01*
X45615575Y-17838810D01*
X45615572Y-17838808D01*
X45417580Y-17731661D01*
X45417577Y-17731659D01*
X45417574Y-17731658D01*
X45417571Y-17731657D01*
X45417569Y-17731656D01*
X45204637Y-17658556D01*
X44982569Y-17621500D01*
X44757431Y-17621500D01*
X44535362Y-17658556D01*
X44322430Y-17731656D01*
X44322419Y-17731661D01*
X44124427Y-17838808D01*
X44124422Y-17838812D01*
X43946761Y-17977092D01*
X43946756Y-17977097D01*
X43794284Y-18142723D01*
X43794276Y-18142734D01*
X43703808Y-18281206D01*
X43650662Y-18326562D01*
X43581431Y-18335986D01*
X43518095Y-18306484D01*
X43496192Y-18281206D01*
X43425223Y-18172581D01*
X43405722Y-18142732D01*
X43405719Y-18142729D01*
X43405715Y-18142723D01*
X43253243Y-17977097D01*
X43253238Y-17977092D01*
X43113688Y-17868475D01*
X43075576Y-17838811D01*
X43075575Y-17838810D01*
X43075572Y-17838808D01*
X42877580Y-17731661D01*
X42877577Y-17731659D01*
X42877574Y-17731658D01*
X42877571Y-17731657D01*
X42877569Y-17731656D01*
X42664637Y-17658556D01*
X42442569Y-17621500D01*
X42217431Y-17621500D01*
X41995362Y-17658556D01*
X41782430Y-17731656D01*
X41782419Y-17731661D01*
X41584427Y-17838808D01*
X41584422Y-17838812D01*
X41406761Y-17977092D01*
X41406756Y-17977097D01*
X41254284Y-18142723D01*
X41254276Y-18142734D01*
X41163808Y-18281206D01*
X41110662Y-18326562D01*
X41041431Y-18335986D01*
X40978095Y-18306484D01*
X40956192Y-18281206D01*
X40885223Y-18172581D01*
X40865722Y-18142732D01*
X40865719Y-18142729D01*
X40865715Y-18142723D01*
X40713243Y-17977097D01*
X40713238Y-17977092D01*
X40573688Y-17868475D01*
X40535576Y-17838811D01*
X40535575Y-17838810D01*
X40535572Y-17838808D01*
X40337580Y-17731661D01*
X40337577Y-17731659D01*
X40337574Y-17731658D01*
X40337571Y-17731657D01*
X40337569Y-17731656D01*
X40124637Y-17658556D01*
X39902569Y-17621500D01*
X39677431Y-17621500D01*
X39455362Y-17658556D01*
X39242430Y-17731656D01*
X39242419Y-17731661D01*
X39044427Y-17838808D01*
X39044422Y-17838812D01*
X38866761Y-17977092D01*
X38866756Y-17977097D01*
X38714284Y-18142723D01*
X38714276Y-18142734D01*
X38623808Y-18281206D01*
X38570662Y-18326562D01*
X38501431Y-18335986D01*
X38438095Y-18306484D01*
X38416192Y-18281206D01*
X38345223Y-18172581D01*
X38325722Y-18142732D01*
X38325719Y-18142729D01*
X38325715Y-18142723D01*
X38173243Y-17977097D01*
X38173238Y-17977092D01*
X38033688Y-17868475D01*
X37995576Y-17838811D01*
X37995575Y-17838810D01*
X37995572Y-17838808D01*
X37797580Y-17731661D01*
X37797577Y-17731659D01*
X37797574Y-17731658D01*
X37797571Y-17731657D01*
X37797569Y-17731656D01*
X37584637Y-17658556D01*
X37362569Y-17621500D01*
X37137431Y-17621500D01*
X36915362Y-17658556D01*
X36702430Y-17731656D01*
X36702419Y-17731661D01*
X36504427Y-17838808D01*
X36504422Y-17838812D01*
X36326761Y-17977092D01*
X36326756Y-17977097D01*
X36174284Y-18142723D01*
X36174276Y-18142734D01*
X36083808Y-18281206D01*
X36030662Y-18326562D01*
X35961431Y-18335986D01*
X35898095Y-18306484D01*
X35876192Y-18281206D01*
X35805223Y-18172581D01*
X35785722Y-18142732D01*
X35785719Y-18142729D01*
X35785715Y-18142723D01*
X35633243Y-17977097D01*
X35633238Y-17977092D01*
X35493688Y-17868475D01*
X35455576Y-17838811D01*
X35455575Y-17838810D01*
X35455572Y-17838808D01*
X35257580Y-17731661D01*
X35257577Y-17731659D01*
X35257574Y-17731658D01*
X35257571Y-17731657D01*
X35257569Y-17731656D01*
X35044637Y-17658556D01*
X34822569Y-17621500D01*
X34597431Y-17621500D01*
X34375362Y-17658556D01*
X34162430Y-17731656D01*
X34162419Y-17731661D01*
X33964427Y-17838808D01*
X33964422Y-17838812D01*
X33786761Y-17977092D01*
X33786756Y-17977097D01*
X33634284Y-18142723D01*
X33634276Y-18142734D01*
X33540251Y-18286650D01*
X33487105Y-18332007D01*
X33417873Y-18341430D01*
X33354538Y-18311928D01*
X33334868Y-18289951D01*
X33208113Y-18108926D01*
X33208108Y-18108920D01*
X33041082Y-17941894D01*
X32847578Y-17806399D01*
X32633492Y-17706570D01*
X32633486Y-17706567D01*
X32420000Y-17649364D01*
X32420000Y-18544498D01*
X32312315Y-18495320D01*
X32205763Y-18480000D01*
X32134237Y-18480000D01*
X32027685Y-18495320D01*
X31920000Y-18544498D01*
X31920000Y-17649364D01*
X31919999Y-17649364D01*
X31706513Y-17706567D01*
X31706507Y-17706570D01*
X31492422Y-17806399D01*
X31492420Y-17806400D01*
X31298926Y-17941886D01*
X31298920Y-17941891D01*
X31131891Y-18108920D01*
X31131890Y-18108922D01*
X31005131Y-18289952D01*
X30950554Y-18333577D01*
X30881055Y-18340769D01*
X30818701Y-18309247D01*
X30799752Y-18286656D01*
X30705722Y-18142732D01*
X30705715Y-18142725D01*
X30705715Y-18142723D01*
X30553243Y-17977097D01*
X30553238Y-17977092D01*
X30413688Y-17868475D01*
X30375576Y-17838811D01*
X30375575Y-17838810D01*
X30375572Y-17838808D01*
X30177580Y-17731661D01*
X30177577Y-17731660D01*
X30177574Y-17731658D01*
X30149661Y-17722075D01*
X30130990Y-17713893D01*
X30121147Y-17708575D01*
X29050099Y-17314571D01*
X29034614Y-17308874D01*
X28978494Y-17267256D01*
X28953783Y-17201902D01*
X28968328Y-17133563D01*
X29017510Y-17083936D01*
X29077426Y-17068500D01*
X34791995Y-17068500D01*
X34808180Y-17069561D01*
X34839999Y-17073750D01*
X34840000Y-17073750D01*
X34840001Y-17073750D01*
X34854795Y-17071802D01*
X34875852Y-17069030D01*
X34875873Y-17069028D01*
X34879884Y-17068500D01*
X34879885Y-17068500D01*
X34979456Y-17055391D01*
X34979456Y-17055392D01*
X34979460Y-17055390D01*
X34998851Y-17052838D01*
X35146876Y-16991524D01*
X35242072Y-16918477D01*
X35242073Y-16918475D01*
X35250164Y-16912267D01*
X35250166Y-16912264D01*
X35273987Y-16893987D01*
X35293534Y-16868513D01*
X35304218Y-16856330D01*
X40176331Y-11984216D01*
X40188521Y-11973527D01*
X40213987Y-11953987D01*
X40232261Y-11930171D01*
X40232267Y-11930164D01*
X40238475Y-11922073D01*
X40238477Y-11922072D01*
X40311524Y-11826876D01*
X40372838Y-11678851D01*
X40377377Y-11644371D01*
X40379927Y-11625006D01*
X40390276Y-11589233D01*
X40417680Y-11529849D01*
X40472137Y-11411844D01*
X40475632Y-11404102D01*
X40475802Y-11403717D01*
X40498221Y-11342783D01*
X40498740Y-11339260D01*
X40504366Y-11316421D01*
X40524162Y-11259850D01*
X40524163Y-11259843D01*
X40543299Y-11090003D01*
X40543299Y-11089996D01*
X40524163Y-10920155D01*
X40524162Y-10920150D01*
X40472044Y-10771207D01*
X40467709Y-10758817D01*
X40376771Y-10614091D01*
X40255909Y-10493229D01*
X40255908Y-10493228D01*
X40111183Y-10402291D01*
X39949849Y-10345837D01*
X39949844Y-10345836D01*
X39780004Y-10326701D01*
X39779996Y-10326701D01*
X39610155Y-10345836D01*
X39610150Y-10345837D01*
X39448816Y-10402291D01*
X39304091Y-10493228D01*
X39183228Y-10614091D01*
X39092291Y-10758816D01*
X39035837Y-10920150D01*
X39035836Y-10920155D01*
X39016701Y-11089996D01*
X39016701Y-11090003D01*
X39035837Y-11259848D01*
X39035837Y-11259849D01*
X39047369Y-11292807D01*
X39050930Y-11362586D01*
X39018008Y-11421441D01*
X34624270Y-15815181D01*
X34562947Y-15848666D01*
X34536589Y-15851500D01*
X32768411Y-15851500D01*
X32701372Y-15831815D01*
X32655617Y-15779011D01*
X32645673Y-15709853D01*
X32674698Y-15646297D01*
X32680730Y-15639819D01*
X33523284Y-14797265D01*
X36092313Y-12228234D01*
X36120291Y-12207236D01*
X36404791Y-12050980D01*
X36410706Y-12047937D01*
X36411170Y-12047713D01*
X36411183Y-12047709D01*
X36412770Y-12046711D01*
X36416291Y-12044579D01*
X36436092Y-12033046D01*
X36436100Y-12033039D01*
X36440363Y-12030051D01*
X36440394Y-12030096D01*
X36447954Y-12024603D01*
X36555909Y-11956771D01*
X36676771Y-11835909D01*
X36767709Y-11691183D01*
X36824162Y-11529850D01*
X36829793Y-11479871D01*
X36843299Y-11360003D01*
X36843299Y-11359996D01*
X36824163Y-11190155D01*
X36824162Y-11190150D01*
X36789118Y-11090000D01*
X36767709Y-11028817D01*
X36676771Y-10884091D01*
X36555909Y-10763229D01*
X36555908Y-10763228D01*
X36411183Y-10672291D01*
X36249849Y-10615837D01*
X36249844Y-10615836D01*
X36080004Y-10596701D01*
X36079996Y-10596701D01*
X35910155Y-10615836D01*
X35910150Y-10615837D01*
X35748816Y-10672291D01*
X35604091Y-10763228D01*
X35483228Y-10884091D01*
X35392291Y-11028817D01*
X35392284Y-11028831D01*
X35391400Y-11031359D01*
X35381099Y-11052211D01*
X35381568Y-11052473D01*
X35379404Y-11056340D01*
X35244000Y-11345009D01*
X35219418Y-11380031D01*
X31434270Y-15165181D01*
X31372947Y-15198666D01*
X31346589Y-15201500D01*
X22009613Y-15201500D01*
X21942574Y-15181815D01*
X21896819Y-15129011D01*
X21886210Y-15089654D01*
X21874632Y-14972101D01*
X21859208Y-14921256D01*
X21829179Y-14822266D01*
X21826500Y-14811816D01*
X21824259Y-14801156D01*
X21596022Y-14176087D01*
X21588500Y-14133557D01*
X21588500Y-9926441D01*
X21596022Y-9883910D01*
X21596390Y-9882902D01*
X21818780Y-9273846D01*
X21822820Y-9264095D01*
X21829026Y-9250751D01*
X22096678Y-8675215D01*
X22121429Y-8639828D01*
X22966440Y-7794819D01*
X23027763Y-7761334D01*
X23054121Y-7758500D01*
X28286812Y-7758500D01*
X33880445Y-7758500D01*
X33947484Y-7778185D01*
X33993239Y-7830989D01*
X34003183Y-7900147D01*
X33999009Y-7918811D01*
X33938759Y-8115541D01*
X33930862Y-8144282D01*
X33929895Y-8149532D01*
X33929639Y-8149484D01*
X33925489Y-8169419D01*
X33905635Y-8230523D01*
X33905635Y-8230524D01*
X33886771Y-8410000D01*
X33905635Y-8589476D01*
X33959271Y-8754554D01*
X33961401Y-8761107D01*
X34051633Y-8917393D01*
X34088495Y-8958332D01*
X34172381Y-9051499D01*
X34172384Y-9051501D01*
X34172387Y-9051504D01*
X34294604Y-9140300D01*
X34318385Y-9157578D01*
X34483242Y-9230978D01*
X34483248Y-9230980D01*
X34659768Y-9268500D01*
X34659769Y-9268500D01*
X34840231Y-9268500D01*
X34840232Y-9268500D01*
X35016752Y-9230980D01*
X35016754Y-9230978D01*
X35016757Y-9230978D01*
X35114881Y-9187290D01*
X35181615Y-9157578D01*
X35327613Y-9051504D01*
X35448367Y-8917393D01*
X35538599Y-8761107D01*
X35594365Y-8589475D01*
X35613229Y-8410000D01*
X35594365Y-8230525D01*
X35568202Y-8150003D01*
X35563608Y-8130751D01*
X35561313Y-8116003D01*
X35561243Y-8115553D01*
X35500989Y-7918809D01*
X35500181Y-7848945D01*
X35537272Y-7789734D01*
X35600488Y-7759975D01*
X35619555Y-7758500D01*
X39650737Y-7758500D01*
X39717776Y-7778185D01*
X39763531Y-7830989D01*
X39773475Y-7900147D01*
X39767779Y-7923453D01*
X39759839Y-7946144D01*
X39759836Y-7946155D01*
X39740701Y-8115996D01*
X39740701Y-8116003D01*
X39759836Y-8285844D01*
X39759837Y-8285849D01*
X39816291Y-8447183D01*
X39905699Y-8589475D01*
X39907229Y-8591909D01*
X40028091Y-8712771D01*
X40172817Y-8803709D01*
X40288422Y-8844161D01*
X40334150Y-8860162D01*
X40334155Y-8860163D01*
X40503996Y-8879299D01*
X40504000Y-8879299D01*
X40504004Y-8879299D01*
X40673843Y-8860163D01*
X40673843Y-8860162D01*
X40673850Y-8860162D01*
X40730302Y-8840407D01*
X40750209Y-8835250D01*
X40768149Y-8832163D01*
X41081899Y-8730534D01*
X41120110Y-8724500D01*
X56509889Y-8724500D01*
X56548100Y-8730534D01*
X56861849Y-8832163D01*
X56894194Y-8841480D01*
X56894207Y-8841481D01*
X56899540Y-8842522D01*
X56899463Y-8842913D01*
X56920064Y-8847534D01*
X56956150Y-8860162D01*
X56956154Y-8860162D01*
X56956156Y-8860163D01*
X57076045Y-8873671D01*
X57140459Y-8900737D01*
X57180014Y-8958332D01*
X57182152Y-9028169D01*
X57180726Y-9033202D01*
X57133536Y-9187290D01*
X57124485Y-9209141D01*
X56912200Y-9608851D01*
X56890368Y-9638370D01*
X56475453Y-10053285D01*
X56462785Y-10063435D01*
X56462931Y-10063611D01*
X56456920Y-10068584D01*
X56408378Y-10120274D01*
X56405671Y-10123067D01*
X56385078Y-10143660D01*
X56385072Y-10143667D01*
X56382278Y-10147268D01*
X56374714Y-10156122D01*
X56343029Y-10189865D01*
X56343024Y-10189872D01*
X56332618Y-10208800D01*
X56321942Y-10225054D01*
X56308694Y-10242133D01*
X56290310Y-10284616D01*
X56285173Y-10295102D01*
X56262876Y-10335661D01*
X56257502Y-10356589D01*
X56251203Y-10374987D01*
X56242619Y-10394825D01*
X56235380Y-10440534D01*
X56233012Y-10451973D01*
X56221500Y-10496809D01*
X56221500Y-10518413D01*
X56219974Y-10537808D01*
X56216594Y-10559151D01*
X56220950Y-10605234D01*
X56221500Y-10616903D01*
X56221500Y-13098241D01*
X56216064Y-13134552D01*
X56068759Y-13615541D01*
X56060862Y-13644282D01*
X56059895Y-13649532D01*
X56059639Y-13649484D01*
X56055489Y-13669418D01*
X56035635Y-13730523D01*
X56035635Y-13730524D01*
X56016771Y-13910000D01*
X56035635Y-14089476D01*
X56087234Y-14248284D01*
X56091401Y-14261107D01*
X56181633Y-14417393D01*
X56199925Y-14437708D01*
X56302381Y-14551499D01*
X56302384Y-14551501D01*
X56302387Y-14551504D01*
X56389282Y-14614637D01*
X56448385Y-14657578D01*
X56613242Y-14730978D01*
X56613248Y-14730980D01*
X56789768Y-14768500D01*
X56789769Y-14768500D01*
X56970231Y-14768500D01*
X56970232Y-14768500D01*
X57146752Y-14730980D01*
X57146754Y-14730978D01*
X57146757Y-14730978D01*
X57240555Y-14689216D01*
X57311615Y-14657578D01*
X57457613Y-14551504D01*
X57578367Y-14417393D01*
X57668599Y-14261107D01*
X57724365Y-14089475D01*
X57743229Y-13910000D01*
X57724365Y-13730525D01*
X57698202Y-13650003D01*
X57693608Y-13630751D01*
X57691244Y-13615562D01*
X57691243Y-13615553D01*
X57543936Y-13134554D01*
X57538500Y-13098243D01*
X57538500Y-10904121D01*
X57558185Y-10837082D01*
X57574819Y-10816440D01*
X57697193Y-10694066D01*
X57821634Y-10569624D01*
X57851146Y-10547797D01*
X58295430Y-10311840D01*
X58301050Y-10308642D01*
X58325935Y-10294487D01*
X58326112Y-10294798D01*
X58338316Y-10287950D01*
X58361615Y-10277578D01*
X58507613Y-10171504D01*
X58510406Y-10168403D01*
X58540373Y-10135120D01*
X58628367Y-10037393D01*
X58718599Y-9881107D01*
X58774365Y-9709475D01*
X58793229Y-9530000D01*
X58774365Y-9350525D01*
X58748202Y-9270003D01*
X58743608Y-9250751D01*
X58741244Y-9235562D01*
X58741243Y-9235553D01*
X58593936Y-8754554D01*
X58588500Y-8718243D01*
X58588500Y-7616391D01*
X58590282Y-7600248D01*
X58590055Y-7600227D01*
X58590787Y-7592470D01*
X58590789Y-7592463D01*
X58588561Y-7521578D01*
X58588500Y-7517683D01*
X58588500Y-7488573D01*
X58588500Y-7488568D01*
X58587931Y-7484070D01*
X58587015Y-7472428D01*
X58586035Y-7441233D01*
X58585562Y-7426169D01*
X58579535Y-7405426D01*
X58575590Y-7386377D01*
X58572882Y-7364936D01*
X58555840Y-7321894D01*
X58552060Y-7310855D01*
X58539145Y-7266400D01*
X58528149Y-7247808D01*
X58519589Y-7230335D01*
X58518427Y-7227400D01*
X58511635Y-7210244D01*
X58511631Y-7210238D01*
X58484429Y-7172798D01*
X58478014Y-7163033D01*
X58463150Y-7137900D01*
X58454453Y-7123193D01*
X58454449Y-7123189D01*
X58454446Y-7123185D01*
X58439175Y-7107914D01*
X58426538Y-7093119D01*
X58421340Y-7085965D01*
X58413841Y-7075643D01*
X58413840Y-7075642D01*
X58413654Y-7075386D01*
X58390174Y-7009580D01*
X58405999Y-6941526D01*
X58456104Y-6892831D01*
X58513972Y-6878500D01*
X69462325Y-6878500D01*
X69529364Y-6898185D01*
X69550006Y-6914819D01*
X69585181Y-6949994D01*
X69618666Y-7011317D01*
X69621500Y-7037675D01*
X69621500Y-7483888D01*
X69615465Y-7522099D01*
X69515411Y-7830989D01*
X69513836Y-7835850D01*
X69504518Y-7868195D01*
X69503477Y-7873535D01*
X69503090Y-7873459D01*
X69498463Y-7894066D01*
X69485838Y-7930149D01*
X69485836Y-7930156D01*
X69466701Y-8099996D01*
X69466701Y-8100003D01*
X69485836Y-8269844D01*
X69485837Y-8269849D01*
X69542291Y-8431183D01*
X69552344Y-8447183D01*
X69633229Y-8575909D01*
X69754091Y-8696771D01*
X69898817Y-8787709D01*
X70039685Y-8837001D01*
X70060150Y-8844162D01*
X70060155Y-8844163D01*
X70229996Y-8863299D01*
X70230000Y-8863299D01*
X70230004Y-8863299D01*
X70399844Y-8844163D01*
X70399847Y-8844162D01*
X70399850Y-8844162D01*
X70399851Y-8844161D01*
X70399854Y-8844161D01*
X70444221Y-8828635D01*
X70486545Y-8813825D01*
X70556323Y-8810263D01*
X70616951Y-8844992D01*
X70649178Y-8906985D01*
X70651500Y-8930867D01*
X70651500Y-10836588D01*
X70631815Y-10903627D01*
X70615181Y-10924269D01*
X70245384Y-11294065D01*
X70214098Y-11316818D01*
X69918955Y-11467539D01*
X69915053Y-11469209D01*
X69915084Y-11469273D01*
X69908811Y-11472293D01*
X69899691Y-11478023D01*
X69893743Y-11481533D01*
X69890887Y-11483112D01*
X69886377Y-11486150D01*
X69886321Y-11486067D01*
X69882165Y-11489036D01*
X69764089Y-11563230D01*
X69643228Y-11684091D01*
X69552291Y-11828816D01*
X69495837Y-11990150D01*
X69495836Y-11990155D01*
X69476701Y-12159996D01*
X69476701Y-12160003D01*
X69495836Y-12329844D01*
X69495837Y-12329849D01*
X69552291Y-12491183D01*
X69640853Y-12632129D01*
X69643229Y-12635909D01*
X69764091Y-12756771D01*
X69908817Y-12847709D01*
X70057944Y-12899891D01*
X70070150Y-12904162D01*
X70070155Y-12904163D01*
X70239996Y-12923299D01*
X70240000Y-12923299D01*
X70240004Y-12923299D01*
X70409844Y-12904163D01*
X70409847Y-12904162D01*
X70409850Y-12904162D01*
X70571183Y-12847709D01*
X70715909Y-12756771D01*
X70836771Y-12635909D01*
X70927709Y-12491183D01*
X70927712Y-12491172D01*
X70930735Y-12484899D01*
X70930798Y-12484929D01*
X70932468Y-12481027D01*
X70934065Y-12477900D01*
X71083176Y-12185903D01*
X71105925Y-12154622D01*
X71656331Y-11604216D01*
X71668521Y-11593527D01*
X71674117Y-11589233D01*
X71693987Y-11573987D01*
X71713318Y-11548792D01*
X71713324Y-11548787D01*
X71718476Y-11542072D01*
X71718478Y-11542071D01*
X71791524Y-11446876D01*
X71852838Y-11298851D01*
X71861242Y-11235013D01*
X71868500Y-11179885D01*
X71869030Y-11175860D01*
X71869031Y-11175845D01*
X71873750Y-11140001D01*
X71873750Y-11139998D01*
X71869561Y-11108180D01*
X71868500Y-11091995D01*
X71868500Y-6448004D01*
X71869561Y-6431818D01*
X71871543Y-6416767D01*
X71873750Y-6400000D01*
X71869030Y-6364153D01*
X71869030Y-6364140D01*
X71867094Y-6349436D01*
X71852838Y-6241150D01*
X71836425Y-6201524D01*
X71806863Y-6130156D01*
X71791526Y-6093128D01*
X71791523Y-6093123D01*
X71781865Y-6080537D01*
X71718478Y-5997929D01*
X71716022Y-5994728D01*
X71716001Y-5994702D01*
X71707418Y-5983517D01*
X71693987Y-5966013D01*
X71693985Y-5966011D01*
X71693984Y-5966010D01*
X71668520Y-5946471D01*
X71656325Y-5935776D01*
X70994224Y-5273675D01*
X70983530Y-5261482D01*
X70973118Y-5247913D01*
X70963987Y-5236013D01*
X70963985Y-5236011D01*
X70963984Y-5236010D01*
X70940052Y-5217647D01*
X70932074Y-5211525D01*
X70932072Y-5211523D01*
X70896136Y-5183948D01*
X70836877Y-5138476D01*
X70836871Y-5138473D01*
X70688854Y-5077163D01*
X70688849Y-5077161D01*
X70664840Y-5074001D01*
X70566029Y-5060992D01*
X70565847Y-5060969D01*
X70560062Y-5060207D01*
X70530000Y-5056250D01*
X70529998Y-5056250D01*
X70529997Y-5056250D01*
X70498180Y-5060439D01*
X70481995Y-5061500D01*
X45831981Y-5061500D01*
X45764942Y-5041815D01*
X45721547Y-4993894D01*
X45590214Y-4736712D01*
X45588547Y-4732816D01*
X45588484Y-4732847D01*
X45585461Y-4726571D01*
X45585459Y-4726568D01*
X45585459Y-4726567D01*
X45579727Y-4717446D01*
X45576198Y-4711462D01*
X45574660Y-4708679D01*
X45571621Y-4704166D01*
X45571705Y-4704109D01*
X45568750Y-4699974D01*
X45494521Y-4581841D01*
X45373658Y-4460978D01*
X45228933Y-4370041D01*
X45067599Y-4313587D01*
X45067594Y-4313586D01*
X44897754Y-4294451D01*
X44897746Y-4294451D01*
X44727905Y-4313586D01*
X44727900Y-4313587D01*
X44566566Y-4370041D01*
X44421844Y-4460976D01*
X44344365Y-4538455D01*
X44283041Y-4571939D01*
X44213350Y-4566955D01*
X44169003Y-4538454D01*
X44140930Y-4510381D01*
X44118177Y-4479095D01*
X43967464Y-4183963D01*
X43965797Y-4180066D01*
X43965734Y-4180097D01*
X43962711Y-4173821D01*
X43962709Y-4173818D01*
X43962709Y-4173817D01*
X43956977Y-4164696D01*
X43953448Y-4158712D01*
X43951910Y-4155929D01*
X43948871Y-4151416D01*
X43948955Y-4151359D01*
X43946000Y-4147224D01*
X43871771Y-4029091D01*
X43750908Y-3908228D01*
X43606183Y-3817291D01*
X43444849Y-3760837D01*
X43444844Y-3760836D01*
X43275004Y-3741701D01*
X43274996Y-3741701D01*
X43105155Y-3760836D01*
X43105150Y-3760837D01*
X42943816Y-3817291D01*
X42799091Y-3908228D01*
X42678228Y-4029091D01*
X42587291Y-4173816D01*
X42530837Y-4335150D01*
X42530836Y-4335155D01*
X42511701Y-4504996D01*
X42511701Y-4505003D01*
X42530836Y-4674844D01*
X42530837Y-4674849D01*
X42587291Y-4836183D01*
X42652272Y-4939600D01*
X42678229Y-4980909D01*
X42799091Y-5101771D01*
X42943817Y-5192709D01*
X42943821Y-5192710D01*
X42950089Y-5195729D01*
X42950058Y-5195792D01*
X42953964Y-5197464D01*
X42955374Y-5198184D01*
X42955377Y-5198186D01*
X43103202Y-5273675D01*
X43249096Y-5348178D01*
X43280382Y-5370931D01*
X43781742Y-5872291D01*
X44139271Y-6229819D01*
X44172756Y-6291142D01*
X44167772Y-6360833D01*
X44125900Y-6416767D01*
X44060436Y-6441184D01*
X44051590Y-6441500D01*
X34823970Y-6441500D01*
X34800735Y-6439304D01*
X34791678Y-6437576D01*
X34791673Y-6437576D01*
X34733201Y-6441255D01*
X34725415Y-6441500D01*
X22816391Y-6441500D01*
X22800253Y-6439718D01*
X22800232Y-6439946D01*
X22792465Y-6439211D01*
X22721599Y-6441439D01*
X22717704Y-6441500D01*
X22688567Y-6441500D01*
X22684067Y-6442068D01*
X22672437Y-6442983D01*
X22626169Y-6444437D01*
X22605419Y-6450465D01*
X22586380Y-6454407D01*
X22564944Y-6457116D01*
X22564934Y-6457118D01*
X22521885Y-6474162D01*
X22510836Y-6477944D01*
X22466403Y-6490852D01*
X22466399Y-6490854D01*
X22447803Y-6501852D01*
X22430338Y-6510408D01*
X22410247Y-6518363D01*
X22410242Y-6518366D01*
X22372788Y-6545577D01*
X22363030Y-6551987D01*
X22323191Y-6575548D01*
X22307917Y-6590823D01*
X22293127Y-6603455D01*
X22275644Y-6616157D01*
X22275640Y-6616161D01*
X22246129Y-6651833D01*
X22238268Y-6660471D01*
X21190176Y-7708563D01*
X21154783Y-7733318D01*
X20986886Y-7811398D01*
X20917798Y-7821819D01*
X20881413Y-7810977D01*
X20711926Y-7730504D01*
X20677430Y-7706170D01*
X15393020Y-2421760D01*
X15359535Y-2360437D01*
X15364519Y-2290745D01*
X15389468Y-2250100D01*
X15465722Y-2167268D01*
X15556193Y-2028790D01*
X15609338Y-1983437D01*
X15678569Y-1974013D01*
X15741905Y-2003515D01*
X15763804Y-2028787D01*
X15854278Y-2167268D01*
X15854283Y-2167273D01*
X15854284Y-2167276D01*
X16006756Y-2332902D01*
X16006761Y-2332907D01*
X16012630Y-2337475D01*
X16184424Y-2471189D01*
X16184425Y-2471189D01*
X16184427Y-2471191D01*
X16306378Y-2537187D01*
X16382426Y-2578342D01*
X16595365Y-2651444D01*
X16817431Y-2688500D01*
X17042569Y-2688500D01*
X17264635Y-2651444D01*
X17477574Y-2578342D01*
X17675576Y-2471189D01*
X17853240Y-2332906D01*
X17969281Y-2206853D01*
X18005715Y-2167276D01*
X18005715Y-2167275D01*
X18005722Y-2167268D01*
X18096193Y-2028790D01*
X18149338Y-1983437D01*
X18218569Y-1974013D01*
X18281905Y-2003515D01*
X18303804Y-2028787D01*
X18394278Y-2167268D01*
X18394283Y-2167273D01*
X18394284Y-2167276D01*
X18546756Y-2332902D01*
X18546761Y-2332907D01*
X18552630Y-2337475D01*
X18724424Y-2471189D01*
X18724425Y-2471189D01*
X18724427Y-2471191D01*
X18846378Y-2537187D01*
X18922426Y-2578342D01*
X19135365Y-2651444D01*
X19357431Y-2688500D01*
X19582569Y-2688500D01*
X19804635Y-2651444D01*
X20017574Y-2578342D01*
X20215576Y-2471189D01*
X20393240Y-2332906D01*
X20509281Y-2206853D01*
X20545715Y-2167276D01*
X20545715Y-2167275D01*
X20545722Y-2167268D01*
X20636193Y-2028790D01*
X20689338Y-1983437D01*
X20758569Y-1974013D01*
X20821905Y-2003515D01*
X20843804Y-2028787D01*
X20934278Y-2167268D01*
X20934283Y-2167273D01*
X20934284Y-2167276D01*
X21086756Y-2332902D01*
X21086761Y-2332907D01*
X21092630Y-2337475D01*
X21264424Y-2471189D01*
X21264425Y-2471189D01*
X21264427Y-2471191D01*
X21386378Y-2537187D01*
X21462426Y-2578342D01*
X21675365Y-2651444D01*
X21897431Y-2688500D01*
X22122569Y-2688500D01*
X22344635Y-2651444D01*
X22557574Y-2578342D01*
X22755576Y-2471189D01*
X22933240Y-2332906D01*
X23049281Y-2206853D01*
X23085715Y-2167276D01*
X23085715Y-2167275D01*
X23085722Y-2167268D01*
X23176193Y-2028790D01*
X23229338Y-1983437D01*
X23298569Y-1974013D01*
X23361905Y-2003515D01*
X23383804Y-2028787D01*
X23474278Y-2167268D01*
X23474283Y-2167273D01*
X23474284Y-2167276D01*
X23626756Y-2332902D01*
X23626761Y-2332907D01*
X23632630Y-2337475D01*
X23804424Y-2471189D01*
X23804425Y-2471189D01*
X23804427Y-2471191D01*
X23926378Y-2537187D01*
X24002426Y-2578342D01*
X24215365Y-2651444D01*
X24437431Y-2688500D01*
X24662569Y-2688500D01*
X24884635Y-2651444D01*
X25097574Y-2578342D01*
X25295576Y-2471189D01*
X25473240Y-2332906D01*
X25589281Y-2206853D01*
X25625715Y-2167276D01*
X25625715Y-2167275D01*
X25625722Y-2167268D01*
X25716193Y-2028790D01*
X25769338Y-1983437D01*
X25838569Y-1974013D01*
X25901905Y-2003515D01*
X25923804Y-2028787D01*
X26014278Y-2167268D01*
X26014283Y-2167273D01*
X26014284Y-2167276D01*
X26166756Y-2332902D01*
X26166761Y-2332907D01*
X26172630Y-2337475D01*
X26344424Y-2471189D01*
X26344425Y-2471189D01*
X26344427Y-2471191D01*
X26466378Y-2537187D01*
X26542426Y-2578342D01*
X26755365Y-2651444D01*
X26977431Y-2688500D01*
X27202569Y-2688500D01*
X27424635Y-2651444D01*
X27637574Y-2578342D01*
X27835576Y-2471189D01*
X28013240Y-2332906D01*
X28129281Y-2206853D01*
X28165715Y-2167276D01*
X28165715Y-2167275D01*
X28165722Y-2167268D01*
X28256193Y-2028790D01*
X28309338Y-1983437D01*
X28378569Y-1974013D01*
X28441905Y-2003515D01*
X28463804Y-2028787D01*
X28554278Y-2167268D01*
X28554283Y-2167273D01*
X28554284Y-2167276D01*
X28706756Y-2332902D01*
X28706761Y-2332907D01*
X28712630Y-2337475D01*
X28884424Y-2471189D01*
X28884425Y-2471189D01*
X28884427Y-2471191D01*
X29006378Y-2537187D01*
X29082426Y-2578342D01*
X29295365Y-2651444D01*
X29517431Y-2688500D01*
X29742569Y-2688500D01*
X29964635Y-2651444D01*
X30177574Y-2578342D01*
X30375576Y-2471189D01*
X30553240Y-2332906D01*
X30669281Y-2206853D01*
X30705715Y-2167276D01*
X30705715Y-2167275D01*
X30705722Y-2167268D01*
X30796193Y-2028790D01*
X30849338Y-1983437D01*
X30918569Y-1974013D01*
X30981905Y-2003515D01*
X31003804Y-2028787D01*
X31094278Y-2167268D01*
X31094283Y-2167273D01*
X31094284Y-2167276D01*
X31246756Y-2332902D01*
X31246761Y-2332907D01*
X31252630Y-2337475D01*
X31424424Y-2471189D01*
X31424425Y-2471189D01*
X31424427Y-2471191D01*
X31546378Y-2537187D01*
X31622426Y-2578342D01*
X31835365Y-2651444D01*
X32057431Y-2688500D01*
X32282569Y-2688500D01*
X32504635Y-2651444D01*
X32717574Y-2578342D01*
X32915576Y-2471189D01*
X33093240Y-2332906D01*
X33209281Y-2206853D01*
X33245715Y-2167276D01*
X33245715Y-2167275D01*
X33245722Y-2167268D01*
X33336193Y-2028790D01*
X33389338Y-1983437D01*
X33458569Y-1974013D01*
X33521905Y-2003515D01*
X33543804Y-2028787D01*
X33634278Y-2167268D01*
X33634283Y-2167273D01*
X33634284Y-2167276D01*
X33786756Y-2332902D01*
X33786761Y-2332907D01*
X33792630Y-2337475D01*
X33964424Y-2471189D01*
X33964425Y-2471189D01*
X33964427Y-2471191D01*
X34086378Y-2537187D01*
X34162426Y-2578342D01*
X34375365Y-2651444D01*
X34597431Y-2688500D01*
X34822569Y-2688500D01*
X35044635Y-2651444D01*
X35257574Y-2578342D01*
X35455576Y-2471189D01*
X35633240Y-2332906D01*
X35749281Y-2206853D01*
X35785715Y-2167276D01*
X35785715Y-2167275D01*
X35785722Y-2167268D01*
X35876193Y-2028790D01*
X35929338Y-1983437D01*
X35998569Y-1974013D01*
X36061905Y-2003515D01*
X36083804Y-2028787D01*
X36174278Y-2167268D01*
X36174283Y-2167273D01*
X36174284Y-2167276D01*
X36326756Y-2332902D01*
X36326761Y-2332907D01*
X36332630Y-2337475D01*
X36504424Y-2471189D01*
X36504425Y-2471189D01*
X36504427Y-2471191D01*
X36626378Y-2537187D01*
X36702426Y-2578342D01*
X36915365Y-2651444D01*
X37137431Y-2688500D01*
X37362569Y-2688500D01*
X37584635Y-2651444D01*
X37797574Y-2578342D01*
X37995576Y-2471189D01*
X38173240Y-2332906D01*
X38289281Y-2206853D01*
X38325715Y-2167276D01*
X38325715Y-2167275D01*
X38325722Y-2167268D01*
X38416193Y-2028790D01*
X38469338Y-1983437D01*
X38538569Y-1974013D01*
X38601905Y-2003515D01*
X38623804Y-2028787D01*
X38714278Y-2167268D01*
X38714283Y-2167273D01*
X38714284Y-2167276D01*
X38866756Y-2332902D01*
X38866761Y-2332907D01*
X38872630Y-2337475D01*
X39044424Y-2471189D01*
X39044425Y-2471189D01*
X39044427Y-2471191D01*
X39166378Y-2537187D01*
X39242426Y-2578342D01*
X39455365Y-2651444D01*
X39677431Y-2688500D01*
X39902569Y-2688500D01*
X40124635Y-2651444D01*
X40337574Y-2578342D01*
X40535576Y-2471189D01*
X40713240Y-2332906D01*
X40829281Y-2206853D01*
X40865715Y-2167276D01*
X40865715Y-2167275D01*
X40865722Y-2167268D01*
X40956193Y-2028790D01*
X41009338Y-1983437D01*
X41078569Y-1974013D01*
X41141905Y-2003515D01*
X41163804Y-2028787D01*
X41254278Y-2167268D01*
X41254283Y-2167273D01*
X41254284Y-2167276D01*
X41406756Y-2332902D01*
X41406761Y-2332907D01*
X41412630Y-2337475D01*
X41584424Y-2471189D01*
X41584425Y-2471189D01*
X41584427Y-2471191D01*
X41706378Y-2537187D01*
X41782426Y-2578342D01*
X41995365Y-2651444D01*
X42217431Y-2688500D01*
X42442569Y-2688500D01*
X42664635Y-2651444D01*
X42877574Y-2578342D01*
X43075576Y-2471189D01*
X43253240Y-2332906D01*
X43369281Y-2206853D01*
X43405715Y-2167276D01*
X43405715Y-2167275D01*
X43405722Y-2167268D01*
X43496193Y-2028790D01*
X43549338Y-1983437D01*
X43618569Y-1974013D01*
X43681905Y-2003515D01*
X43703804Y-2028787D01*
X43794278Y-2167268D01*
X43794283Y-2167273D01*
X43794284Y-2167276D01*
X43946756Y-2332902D01*
X43946761Y-2332907D01*
X43952630Y-2337475D01*
X44124424Y-2471189D01*
X44124425Y-2471189D01*
X44124427Y-2471191D01*
X44246378Y-2537187D01*
X44322426Y-2578342D01*
X44535365Y-2651444D01*
X44757431Y-2688500D01*
X44982569Y-2688500D01*
X45204635Y-2651444D01*
X45417574Y-2578342D01*
X45615576Y-2471189D01*
X45793240Y-2332906D01*
X45909281Y-2206853D01*
X45945715Y-2167276D01*
X45945715Y-2167275D01*
X45945722Y-2167268D01*
X46036193Y-2028790D01*
X46089338Y-1983437D01*
X46158569Y-1974013D01*
X46221905Y-2003515D01*
X46243804Y-2028787D01*
X46334278Y-2167268D01*
X46334283Y-2167273D01*
X46334284Y-2167276D01*
X46486756Y-2332902D01*
X46486761Y-2332907D01*
X46492630Y-2337475D01*
X46664424Y-2471189D01*
X46664425Y-2471189D01*
X46664427Y-2471191D01*
X46786378Y-2537187D01*
X46862426Y-2578342D01*
X47075365Y-2651444D01*
X47297431Y-2688500D01*
X47522569Y-2688500D01*
X47744635Y-2651444D01*
X47957574Y-2578342D01*
X48155576Y-2471189D01*
X48333240Y-2332906D01*
X48449281Y-2206853D01*
X48485715Y-2167276D01*
X48485715Y-2167275D01*
X48485722Y-2167268D01*
X48576193Y-2028790D01*
X48629338Y-1983437D01*
X48698569Y-1974013D01*
X48761905Y-2003515D01*
X48783804Y-2028787D01*
X48874278Y-2167268D01*
X48874283Y-2167273D01*
X48874284Y-2167276D01*
X49026756Y-2332902D01*
X49026761Y-2332907D01*
X49032630Y-2337475D01*
X49204424Y-2471189D01*
X49204425Y-2471189D01*
X49204427Y-2471191D01*
X49326378Y-2537187D01*
X49402426Y-2578342D01*
X49615365Y-2651444D01*
X49837431Y-2688500D01*
X50062569Y-2688500D01*
X50284635Y-2651444D01*
X50497574Y-2578342D01*
X50695576Y-2471189D01*
X50873240Y-2332906D01*
X50989281Y-2206853D01*
X51025715Y-2167276D01*
X51025715Y-2167275D01*
X51025722Y-2167268D01*
X51116193Y-2028790D01*
X51169338Y-1983437D01*
X51238569Y-1974013D01*
X51301905Y-2003515D01*
X51323804Y-2028787D01*
X51414278Y-2167268D01*
X51414283Y-2167273D01*
X51414284Y-2167276D01*
X51566756Y-2332902D01*
X51566761Y-2332907D01*
X51572630Y-2337475D01*
X51744424Y-2471189D01*
X51744425Y-2471189D01*
X51744427Y-2471191D01*
X51866378Y-2537187D01*
X51942426Y-2578342D01*
X52155365Y-2651444D01*
X52377431Y-2688500D01*
X52602569Y-2688500D01*
X52824635Y-2651444D01*
X53037574Y-2578342D01*
X53235576Y-2471189D01*
X53413240Y-2332906D01*
X53529281Y-2206853D01*
X53565715Y-2167276D01*
X53565715Y-2167275D01*
X53565722Y-2167268D01*
X53656193Y-2028790D01*
X53709338Y-1983437D01*
X53778569Y-1974013D01*
X53841905Y-2003515D01*
X53863804Y-2028787D01*
X53954278Y-2167268D01*
X53954283Y-2167273D01*
X53954284Y-2167276D01*
X54106756Y-2332902D01*
X54106761Y-2332907D01*
X54112630Y-2337475D01*
X54284424Y-2471189D01*
X54284425Y-2471189D01*
X54284427Y-2471191D01*
X54406378Y-2537187D01*
X54482426Y-2578342D01*
X54695365Y-2651444D01*
X54917431Y-2688500D01*
X55142569Y-2688500D01*
X55364635Y-2651444D01*
X55577574Y-2578342D01*
X55775576Y-2471189D01*
X55953240Y-2332906D01*
X56069281Y-2206853D01*
X56105715Y-2167276D01*
X56105715Y-2167275D01*
X56105722Y-2167268D01*
X56196193Y-2028790D01*
X56249338Y-1983437D01*
X56318569Y-1974013D01*
X56381905Y-2003515D01*
X56403804Y-2028787D01*
X56494278Y-2167268D01*
X56494283Y-2167273D01*
X56494284Y-2167276D01*
X56646756Y-2332902D01*
X56646761Y-2332907D01*
X56652630Y-2337475D01*
X56824424Y-2471189D01*
X56824425Y-2471189D01*
X56824427Y-2471191D01*
X56946378Y-2537187D01*
X57022426Y-2578342D01*
X57235365Y-2651444D01*
X57457431Y-2688500D01*
X57682569Y-2688500D01*
X57904635Y-2651444D01*
X58117574Y-2578342D01*
X58315576Y-2471189D01*
X58493240Y-2332906D01*
X58609281Y-2206853D01*
X58645715Y-2167276D01*
X58645715Y-2167275D01*
X58645722Y-2167268D01*
X58736193Y-2028790D01*
X58789338Y-1983437D01*
X58858569Y-1974013D01*
X58921905Y-2003515D01*
X58943804Y-2028787D01*
X59034278Y-2167268D01*
X59034283Y-2167273D01*
X59034284Y-2167276D01*
X59186756Y-2332902D01*
X59186761Y-2332907D01*
X59192630Y-2337475D01*
X59364424Y-2471189D01*
X59364425Y-2471189D01*
X59364427Y-2471191D01*
X59486378Y-2537187D01*
X59562426Y-2578342D01*
X59775365Y-2651444D01*
X59997431Y-2688500D01*
X60222569Y-2688500D01*
X60444635Y-2651444D01*
X60657574Y-2578342D01*
X60855576Y-2471189D01*
X61033240Y-2332906D01*
X61149281Y-2206853D01*
X61185715Y-2167276D01*
X61185715Y-2167275D01*
X61185722Y-2167268D01*
X61276193Y-2028790D01*
X61329338Y-1983437D01*
X61398569Y-1974013D01*
X61461905Y-2003515D01*
X61483804Y-2028787D01*
X61574278Y-2167268D01*
X61574283Y-2167273D01*
X61574284Y-2167276D01*
X61726756Y-2332902D01*
X61726761Y-2332907D01*
X61732630Y-2337475D01*
X61904424Y-2471189D01*
X61904425Y-2471189D01*
X61904427Y-2471191D01*
X62026378Y-2537187D01*
X62102426Y-2578342D01*
X62315365Y-2651444D01*
X62537431Y-2688500D01*
X62762569Y-2688500D01*
X62984635Y-2651444D01*
X63197574Y-2578342D01*
X63395576Y-2471189D01*
X63573240Y-2332906D01*
X63689281Y-2206853D01*
X63725715Y-2167276D01*
X63725715Y-2167275D01*
X63725722Y-2167268D01*
X63816193Y-2028790D01*
X63869338Y-1983437D01*
X63938569Y-1974013D01*
X64001905Y-2003515D01*
X64023804Y-2028787D01*
X64114278Y-2167268D01*
X64114283Y-2167273D01*
X64114284Y-2167276D01*
X64266756Y-2332902D01*
X64266761Y-2332907D01*
X64272630Y-2337475D01*
X64444424Y-2471189D01*
X64444425Y-2471189D01*
X64444427Y-2471191D01*
X64566378Y-2537187D01*
X64642426Y-2578342D01*
X64855365Y-2651444D01*
X65077431Y-2688500D01*
X65302569Y-2688500D01*
X65524635Y-2651444D01*
X65737574Y-2578342D01*
X65935576Y-2471189D01*
X66113240Y-2332906D01*
X66229281Y-2206853D01*
X66265715Y-2167276D01*
X66265715Y-2167275D01*
X66265722Y-2167268D01*
X66356193Y-2028790D01*
X66409338Y-1983437D01*
X66478569Y-1974013D01*
X66541905Y-2003515D01*
X66563804Y-2028787D01*
X66654278Y-2167268D01*
X66654283Y-2167273D01*
X66654284Y-2167276D01*
X66806756Y-2332902D01*
X66806761Y-2332907D01*
X66812630Y-2337475D01*
X66984424Y-2471189D01*
X66984425Y-2471189D01*
X66984427Y-2471191D01*
X67106378Y-2537187D01*
X67182426Y-2578342D01*
X67395365Y-2651444D01*
X67617431Y-2688500D01*
X67842569Y-2688500D01*
X68064635Y-2651444D01*
X68277574Y-2578342D01*
X68475576Y-2471189D01*
X68653240Y-2332906D01*
X68769281Y-2206853D01*
X68805715Y-2167276D01*
X68805715Y-2167275D01*
X68805722Y-2167268D01*
X68896193Y-2028790D01*
X68949338Y-1983437D01*
X69018569Y-1974013D01*
X69081905Y-2003515D01*
X69103804Y-2028787D01*
X69194278Y-2167268D01*
X69194283Y-2167273D01*
X69194284Y-2167276D01*
X69346756Y-2332902D01*
X69346761Y-2332907D01*
X69352630Y-2337475D01*
X69524424Y-2471189D01*
X69524425Y-2471189D01*
X69524427Y-2471191D01*
X69646378Y-2537187D01*
X69722426Y-2578342D01*
X69935365Y-2651444D01*
X70157431Y-2688500D01*
X70382569Y-2688500D01*
X70604635Y-2651444D01*
X70817574Y-2578342D01*
X71015576Y-2471189D01*
X71193240Y-2332906D01*
X71309281Y-2206853D01*
X71345715Y-2167276D01*
X71345715Y-2167275D01*
X71345722Y-2167268D01*
X71436193Y-2028790D01*
X71489338Y-1983437D01*
X71558569Y-1974013D01*
X71621905Y-2003515D01*
X71643804Y-2028787D01*
X71734278Y-2167268D01*
X71734283Y-2167273D01*
X71734284Y-2167276D01*
X71886756Y-2332902D01*
X71886761Y-2332907D01*
X71892630Y-2337475D01*
X72064424Y-2471189D01*
X72064425Y-2471189D01*
X72064427Y-2471191D01*
X72186378Y-2537187D01*
X72262426Y-2578342D01*
X72475365Y-2651444D01*
X72697431Y-2688500D01*
X72922569Y-2688500D01*
X73144635Y-2651444D01*
X73357574Y-2578342D01*
X73555576Y-2471189D01*
X73733240Y-2332906D01*
X73849281Y-2206853D01*
X73885715Y-2167276D01*
X73885715Y-2167275D01*
X73885722Y-2167268D01*
X73976193Y-2028790D01*
X74029338Y-1983437D01*
X74098569Y-1974013D01*
X74161905Y-2003515D01*
X74183804Y-2028787D01*
X74274278Y-2167268D01*
X74274283Y-2167273D01*
X74274284Y-2167276D01*
X74426756Y-2332902D01*
X74426761Y-2332907D01*
X74432630Y-2337475D01*
X74604424Y-2471189D01*
X74604425Y-2471189D01*
X74604427Y-2471191D01*
X74726378Y-2537187D01*
X74802426Y-2578342D01*
X75015365Y-2651444D01*
X75237431Y-2688500D01*
X75462569Y-2688500D01*
X75684635Y-2651444D01*
X75897574Y-2578342D01*
X76095576Y-2471189D01*
X76273240Y-2332906D01*
X76389281Y-2206853D01*
X76425715Y-2167276D01*
X76425715Y-2167275D01*
X76425722Y-2167268D01*
X76516193Y-2028790D01*
X76569338Y-1983437D01*
X76638569Y-1974013D01*
X76701905Y-2003515D01*
X76723804Y-2028787D01*
X76814278Y-2167268D01*
X76814283Y-2167273D01*
X76814284Y-2167276D01*
X76966756Y-2332902D01*
X76966761Y-2332907D01*
X76972630Y-2337475D01*
X77144424Y-2471189D01*
X77144425Y-2471189D01*
X77144427Y-2471191D01*
X77266378Y-2537187D01*
X77342426Y-2578342D01*
X77555365Y-2651444D01*
X77777431Y-2688500D01*
X78002569Y-2688500D01*
X78224635Y-2651444D01*
X78437574Y-2578342D01*
X78635576Y-2471189D01*
X78813240Y-2332906D01*
X78929281Y-2206853D01*
X78965715Y-2167276D01*
X78965715Y-2167275D01*
X78965722Y-2167268D01*
X79056193Y-2028790D01*
X79109338Y-1983437D01*
X79178569Y-1974013D01*
X79241905Y-2003515D01*
X79263804Y-2028787D01*
X79354278Y-2167268D01*
X79354283Y-2167273D01*
X79354284Y-2167276D01*
X79506756Y-2332902D01*
X79506761Y-2332907D01*
X79512630Y-2337475D01*
X79684424Y-2471189D01*
X79684425Y-2471189D01*
X79684427Y-2471191D01*
X79806378Y-2537187D01*
X79882426Y-2578342D01*
X80095365Y-2651444D01*
X80317431Y-2688500D01*
X80542569Y-2688500D01*
X80764635Y-2651444D01*
X80914478Y-2600003D01*
X82096751Y-2600003D01*
X82103679Y-2674776D01*
X82104067Y-2680313D01*
X82107791Y-2758470D01*
X82107792Y-2758475D01*
X82111555Y-2773986D01*
X82114521Y-2791774D01*
X82115706Y-2804559D01*
X82132201Y-2862535D01*
X82137200Y-2880102D01*
X82138438Y-2884802D01*
X82157701Y-2964201D01*
X82157702Y-2964206D01*
X82162891Y-2975568D01*
X82169359Y-2993134D01*
X82171922Y-3002141D01*
X82171928Y-3002157D01*
X82208476Y-3075554D01*
X82210270Y-3079314D01*
X82245641Y-3156765D01*
X82245647Y-3156776D01*
X82250879Y-3164123D01*
X82260868Y-3180771D01*
X82262018Y-3183079D01*
X82263498Y-3186052D01*
X82314989Y-3254236D01*
X82317042Y-3257035D01*
X82368443Y-3329218D01*
X82368445Y-3329219D01*
X82372459Y-3333047D01*
X82385837Y-3348057D01*
X82387292Y-3349983D01*
X82387295Y-3349987D01*
X82387298Y-3349989D01*
X82387299Y-3349991D01*
X82453040Y-3409922D01*
X82455033Y-3411780D01*
X82521654Y-3475303D01*
X82523398Y-3476424D01*
X82534519Y-3484970D01*
X82534544Y-3484938D01*
X82539119Y-3488393D01*
X82617685Y-3537039D01*
X82619402Y-3538122D01*
X82699746Y-3589756D01*
X82699748Y-3589757D01*
X82705000Y-3592465D01*
X82704966Y-3592529D01*
X82708488Y-3594308D01*
X82708650Y-3593984D01*
X82713773Y-3596534D01*
X82713782Y-3596540D01*
X82762333Y-3615348D01*
X82803160Y-3631164D01*
X82804388Y-3631647D01*
X82847754Y-3649009D01*
X82896278Y-3668436D01*
X82898247Y-3669013D01*
X82904340Y-3670465D01*
X82905339Y-3670749D01*
X82905340Y-3670749D01*
X82905345Y-3670751D01*
X83003172Y-3689037D01*
X83003283Y-3689058D01*
X83104151Y-3708500D01*
X83104156Y-3708500D01*
X83312716Y-3708500D01*
X83312718Y-3708500D01*
X83359397Y-3699773D01*
X83370349Y-3698229D01*
X83420739Y-3693419D01*
X83462651Y-3681112D01*
X83474786Y-3678203D01*
X83514655Y-3670751D01*
X83562127Y-3652360D01*
X83571986Y-3649009D01*
X83602872Y-3639939D01*
X83623862Y-3633777D01*
X83636394Y-3627315D01*
X83659609Y-3615348D01*
X83671634Y-3609937D01*
X83706218Y-3596540D01*
X83752457Y-3567909D01*
X83760919Y-3563118D01*
X83809349Y-3538151D01*
X83812026Y-3536771D01*
X83840922Y-3514046D01*
X83852282Y-3506099D01*
X83880882Y-3488392D01*
X83923633Y-3449417D01*
X83930494Y-3443606D01*
X83978432Y-3405908D01*
X84000231Y-3380749D01*
X84010405Y-3370316D01*
X84016444Y-3364809D01*
X84032701Y-3349991D01*
X84069654Y-3301055D01*
X84074864Y-3294618D01*
X84117065Y-3245918D01*
X84131989Y-3220066D01*
X84140408Y-3207361D01*
X84156503Y-3186050D01*
X84185364Y-3128088D01*
X84188977Y-3121360D01*
X84222913Y-3062582D01*
X84231537Y-3037661D01*
X84237709Y-3022965D01*
X84248074Y-3002152D01*
X84266745Y-2936527D01*
X84268827Y-2929921D01*
X84292150Y-2862535D01*
X84292153Y-2862527D01*
X84295412Y-2839857D01*
X84298878Y-2823590D01*
X84304294Y-2804559D01*
X84310906Y-2733199D01*
X84311638Y-2727003D01*
X84318352Y-2680313D01*
X84322281Y-2652984D01*
X84321356Y-2633578D01*
X84321743Y-2616238D01*
X84323249Y-2600000D01*
X84316318Y-2525214D01*
X84315930Y-2519679D01*
X84314369Y-2486911D01*
X84312208Y-2441526D01*
X84308441Y-2426002D01*
X84305478Y-2408229D01*
X84304294Y-2395441D01*
X84282783Y-2319840D01*
X84281556Y-2315182D01*
X84275628Y-2290745D01*
X84262298Y-2235796D01*
X84257107Y-2224430D01*
X84250636Y-2206853D01*
X84248076Y-2197856D01*
X84248074Y-2197848D01*
X84211511Y-2124421D01*
X84209716Y-2120659D01*
X84197854Y-2094685D01*
X84174356Y-2043229D01*
X84169121Y-2035877D01*
X84159129Y-2019224D01*
X84156503Y-2013950D01*
X84133460Y-1983437D01*
X84105010Y-1945763D01*
X84102956Y-1942963D01*
X84051559Y-1870785D01*
X84051554Y-1870780D01*
X84047546Y-1866958D01*
X84034153Y-1851931D01*
X84032708Y-1850018D01*
X84032705Y-1850014D01*
X84032704Y-1850013D01*
X84032701Y-1850009D01*
X83966913Y-1790036D01*
X83965002Y-1788253D01*
X83898346Y-1724697D01*
X83898343Y-1724694D01*
X83896601Y-1723575D01*
X83885480Y-1715029D01*
X83885456Y-1715062D01*
X83880877Y-1711604D01*
X83802327Y-1662967D01*
X83800567Y-1661857D01*
X83720258Y-1610246D01*
X83714999Y-1607535D01*
X83715032Y-1607470D01*
X83711512Y-1605692D01*
X83711351Y-1606016D01*
X83706213Y-1603457D01*
X83616883Y-1568851D01*
X83615591Y-1568343D01*
X83523722Y-1531564D01*
X83521761Y-1530988D01*
X83515680Y-1529540D01*
X83514660Y-1529250D01*
X83417017Y-1510996D01*
X83416337Y-1510867D01*
X83315850Y-1491500D01*
X83315849Y-1491500D01*
X83312718Y-1491500D01*
X83107282Y-1491500D01*
X83107276Y-1491500D01*
X83060614Y-1500222D01*
X83049622Y-1501771D01*
X82999265Y-1506580D01*
X82999261Y-1506580D01*
X82999261Y-1506581D01*
X82959086Y-1518377D01*
X82957346Y-1518888D01*
X82945200Y-1521798D01*
X82905351Y-1529247D01*
X82905338Y-1529251D01*
X82857866Y-1547641D01*
X82848011Y-1550991D01*
X82796140Y-1566222D01*
X82760389Y-1584652D01*
X82748371Y-1590059D01*
X82713781Y-1603460D01*
X82713780Y-1603460D01*
X82667540Y-1632091D01*
X82659085Y-1636878D01*
X82607977Y-1663226D01*
X82579082Y-1685949D01*
X82567714Y-1693901D01*
X82539115Y-1711609D01*
X82496375Y-1750571D01*
X82489494Y-1756400D01*
X82441565Y-1794093D01*
X82419763Y-1819253D01*
X82409598Y-1829678D01*
X82387301Y-1850006D01*
X82350366Y-1898915D01*
X82345127Y-1905387D01*
X82302936Y-1954079D01*
X82288014Y-1979925D01*
X82279587Y-1992641D01*
X82263497Y-2013950D01*
X82263496Y-2013951D01*
X82263496Y-2013952D01*
X82263491Y-2013960D01*
X82234632Y-2071914D01*
X82231022Y-2078637D01*
X82197088Y-2137414D01*
X82197087Y-2137418D01*
X82191468Y-2153653D01*
X82188464Y-2162331D01*
X82182288Y-2177036D01*
X82171928Y-2197842D01*
X82171923Y-2197856D01*
X82153256Y-2263459D01*
X82151172Y-2270077D01*
X82127846Y-2337475D01*
X82124587Y-2360137D01*
X82121119Y-2376409D01*
X82115706Y-2395437D01*
X82109093Y-2466796D01*
X82108360Y-2472999D01*
X82097719Y-2547010D01*
X82097719Y-2547015D01*
X82098643Y-2566434D01*
X82098255Y-2583766D01*
X82096751Y-2600003D01*
X80914478Y-2600003D01*
X80977574Y-2578342D01*
X81175576Y-2471189D01*
X81353240Y-2332906D01*
X81469281Y-2206853D01*
X81505715Y-2167276D01*
X81505719Y-2167271D01*
X81505722Y-2167268D01*
X81628860Y-1978791D01*
X81719296Y-1772616D01*
X81774564Y-1554368D01*
X81774844Y-1550991D01*
X81793156Y-1330005D01*
X81793156Y-1329994D01*
X81774565Y-1105640D01*
X81774563Y-1105628D01*
X81747612Y-999202D01*
X81719296Y-887384D01*
X81628860Y-681209D01*
X81620250Y-668031D01*
X81525008Y-522252D01*
X81505722Y-492732D01*
X81470601Y-454581D01*
X81439680Y-391928D01*
X81447540Y-322501D01*
X81491687Y-268346D01*
X81558104Y-246655D01*
X81561832Y-246599D01*
X82065830Y-246599D01*
X82106519Y-246599D01*
X82113471Y-246794D01*
G37*
%TD.AperFunction*%
%TA.AperFunction,Conductor*%
G36*
X15858628Y-16438185D02*
G01*
X15904383Y-16490989D01*
X15914327Y-16560147D01*
X15885302Y-16623703D01*
X15879270Y-16630181D01*
X15275030Y-17234419D01*
X15226702Y-17264328D01*
X14523027Y-17499825D01*
X14453206Y-17502434D01*
X14393059Y-17466881D01*
X14361681Y-17404453D01*
X14369035Y-17334972D01*
X14395990Y-17294557D01*
X15235730Y-16454819D01*
X15297053Y-16421334D01*
X15323411Y-16418500D01*
X15791589Y-16418500D01*
X15858628Y-16438185D01*
G37*
%TD.AperFunction*%
%TD*%
%TA.AperFunction,Conductor*%
%TO.N,/VDD_5V*%
G36*
X9148694Y-11657405D02*
G01*
X9151891Y-11663368D01*
X9293849Y-12368375D01*
X9292122Y-12377162D01*
X9286879Y-12381485D01*
X8884500Y-12549125D01*
X8875545Y-12549144D01*
X8875500Y-12549125D01*
X8473605Y-12381687D01*
X8467286Y-12375342D01*
X8466772Y-12367979D01*
X8647744Y-11662770D01*
X8653120Y-11655608D01*
X8659077Y-11653978D01*
X9140421Y-11653978D01*
X9148694Y-11657405D01*
G37*
%TD.AperFunction*%
%TD*%
%TA.AperFunction,Conductor*%
%TO.N,/VDD_5V*%
G36*
X9306649Y-7938418D02*
G01*
X9312968Y-7944763D01*
X9313557Y-7951816D01*
X9152073Y-8660898D01*
X9146895Y-8668204D01*
X9140665Y-8670000D01*
X8659335Y-8670000D01*
X8651062Y-8666573D01*
X8647927Y-8660898D01*
X8486442Y-7951816D01*
X8487946Y-7942988D01*
X8493349Y-7938418D01*
X8895501Y-7770873D01*
X8904452Y-7770855D01*
X9306649Y-7938418D01*
G37*
%TD.AperFunction*%
%TD*%
%TA.AperFunction,Conductor*%
%TO.N,/BOOT0*%
G36*
X40995906Y-8013378D02*
G01*
X41002720Y-8019187D01*
X41004000Y-8024508D01*
X41004000Y-8207491D01*
X41000573Y-8215764D01*
X40995905Y-8218622D01*
X40609912Y-8343652D01*
X40600986Y-8342941D01*
X40595514Y-8337038D01*
X40504889Y-8120515D01*
X40504857Y-8111563D01*
X40595514Y-7894960D01*
X40601870Y-7888652D01*
X40609911Y-7888347D01*
X40995906Y-8013378D01*
G37*
%TD.AperFunction*%
%TD*%
%TA.AperFunction,Conductor*%
%TO.N,/BOOT0*%
G36*
X57029013Y-7889058D02*
G01*
X57034485Y-7894961D01*
X57125109Y-8111483D01*
X57125142Y-8120437D01*
X57125109Y-8120517D01*
X57034485Y-8337038D01*
X57028129Y-8343347D01*
X57020087Y-8343652D01*
X56634095Y-8218622D01*
X56627280Y-8212812D01*
X56626000Y-8207491D01*
X56626000Y-8024508D01*
X56629427Y-8016235D01*
X56634091Y-8013378D01*
X57020088Y-7888347D01*
X57029013Y-7889058D01*
G37*
%TD.AperFunction*%
%TD*%
%TA.AperFunction,Conductor*%
%TO.N,/VDD_3.3V*%
G36*
X28541001Y-17674434D02*
G01*
X29861286Y-18160124D01*
X29943861Y-18190501D01*
X29950443Y-18196574D01*
X29950803Y-18205521D01*
X29950636Y-18205948D01*
X29632562Y-18976214D01*
X29626237Y-18982553D01*
X29626214Y-18982562D01*
X28855948Y-19300636D01*
X28846993Y-19300627D01*
X28840668Y-19294288D01*
X28840501Y-19293861D01*
X28723649Y-18976214D01*
X28324435Y-17891004D01*
X28324795Y-17882059D01*
X28327140Y-17878697D01*
X28528695Y-17677142D01*
X28536967Y-17673716D01*
X28541001Y-17674434D01*
G37*
%TD.AperFunction*%
%TD*%
%TA.AperFunction,Conductor*%
%TO.N,/VDD_3.3V*%
G36*
X20413117Y-8157071D02*
G01*
X21092181Y-8479493D01*
X21098184Y-8486136D01*
X21097981Y-8494516D01*
X20932563Y-8896199D01*
X20926244Y-8902544D01*
X20926199Y-8902563D01*
X20524695Y-9067908D01*
X20515740Y-9067889D01*
X20509586Y-9061925D01*
X20436404Y-8900707D01*
X20196881Y-8373042D01*
X20196583Y-8364093D01*
X20199261Y-8359936D01*
X20399830Y-8159367D01*
X20408102Y-8155941D01*
X20413117Y-8157071D01*
G37*
%TD.AperFunction*%
%TD*%
%TA.AperFunction,Conductor*%
%TO.N,/VDD_3.3V*%
G36*
X58079620Y-8833427D02*
G01*
X58082534Y-8838274D01*
X58250252Y-9385920D01*
X58249398Y-9394834D01*
X58243571Y-9400144D01*
X57934506Y-9529119D01*
X57925551Y-9529142D01*
X57925494Y-9529119D01*
X57616428Y-9400144D01*
X57610113Y-9393795D01*
X57609747Y-9385922D01*
X57777466Y-8838273D01*
X57783165Y-8831367D01*
X57788653Y-8830000D01*
X58071347Y-8830000D01*
X58079620Y-8833427D01*
G37*
%TD.AperFunction*%
%TD*%
%TA.AperFunction,Conductor*%
%TO.N,/VDD_3.3V*%
G36*
X5013006Y-1009372D02*
G01*
X5019331Y-1015711D01*
X5019498Y-1016138D01*
X5535564Y-2418993D01*
X5535204Y-2427940D01*
X5532856Y-2431305D01*
X5331305Y-2632856D01*
X5323032Y-2636283D01*
X5318993Y-2635564D01*
X3916138Y-2119498D01*
X3909556Y-2113425D01*
X3909196Y-2104478D01*
X3909363Y-2104051D01*
X4227438Y-1333783D01*
X4233759Y-1327448D01*
X5004051Y-1009363D01*
X5013006Y-1009372D01*
G37*
%TD.AperFunction*%
%TD*%
%TA.AperFunction,Conductor*%
%TO.N,/VDD_3.3V*%
G36*
X18441726Y-17017466D02*
G01*
X18448633Y-17023165D01*
X18450000Y-17028653D01*
X18450000Y-17311346D01*
X18446573Y-17319619D01*
X18441726Y-17322533D01*
X17894079Y-17490252D01*
X17885165Y-17489398D01*
X17879855Y-17483571D01*
X17750880Y-17174506D01*
X17750857Y-17165551D01*
X17750880Y-17165494D01*
X17811596Y-17020000D01*
X17879855Y-16856427D01*
X17886204Y-16850113D01*
X17894077Y-16849747D01*
X18441726Y-17017466D01*
G37*
%TD.AperFunction*%
%TD*%
%TA.AperFunction,Conductor*%
%TO.N,/VDD_3.3V*%
G36*
X21466116Y-8163324D02*
G01*
X21666675Y-8363883D01*
X21670102Y-8372156D01*
X21669011Y-8377090D01*
X21350464Y-9062062D01*
X21343868Y-9068118D01*
X21335400Y-9067947D01*
X20933800Y-8902563D01*
X20927455Y-8896244D01*
X20762052Y-8494598D01*
X20762071Y-8485644D01*
X20767935Y-8479536D01*
X21452911Y-8160987D01*
X21461856Y-8160607D01*
X21466116Y-8163324D01*
G37*
%TD.AperFunction*%
%TD*%
%TA.AperFunction,Conductor*%
%TO.N,/VDD_3.3V*%
G36*
X34899620Y-7713427D02*
G01*
X34902534Y-7718274D01*
X35070252Y-8265920D01*
X35069398Y-8274834D01*
X35063571Y-8280144D01*
X34754506Y-8409119D01*
X34745551Y-8409142D01*
X34745494Y-8409119D01*
X34436428Y-8280144D01*
X34430113Y-8273795D01*
X34429747Y-8265922D01*
X34597466Y-7718273D01*
X34603165Y-7711367D01*
X34608653Y-7710000D01*
X34891347Y-7710000D01*
X34899620Y-7713427D01*
G37*
%TD.AperFunction*%
%TD*%
%TA.AperFunction,Conductor*%
%TO.N,/VDD_3.3V*%
G36*
X57616449Y-9400092D02*
G01*
X57926191Y-9527436D01*
X57932540Y-9533751D01*
X57932563Y-9533808D01*
X58059906Y-9843549D01*
X58059883Y-9852504D01*
X58054573Y-9858331D01*
X57548734Y-10126981D01*
X57539820Y-10127835D01*
X57534973Y-10124921D01*
X57335078Y-9925026D01*
X57331651Y-9916753D01*
X57333016Y-9911269D01*
X57601668Y-9405425D01*
X57608575Y-9399727D01*
X57616449Y-9400092D01*
G37*
%TD.AperFunction*%
%TD*%
%TA.AperFunction,Conductor*%
%TO.N,/VDD_3.3V*%
G36*
X21080090Y-14263427D02*
G01*
X21082807Y-14267687D01*
X21341908Y-14977281D01*
X21341527Y-14986228D01*
X21335418Y-14992094D01*
X20934500Y-15159125D01*
X20925545Y-15159144D01*
X20925500Y-15159125D01*
X20524581Y-14992094D01*
X20518262Y-14985749D01*
X20518091Y-14977283D01*
X20777193Y-14267686D01*
X20783249Y-14261091D01*
X20788183Y-14260000D01*
X21071817Y-14260000D01*
X21080090Y-14263427D01*
G37*
%TD.AperFunction*%
%TD*%
%TA.AperFunction,Conductor*%
%TO.N,/VDD_3.3V*%
G36*
X21335418Y-9067905D02*
G01*
X21341737Y-9074250D01*
X21341908Y-9082718D01*
X21082807Y-9792313D01*
X21076751Y-9798909D01*
X21071817Y-9800000D01*
X20788183Y-9800000D01*
X20779910Y-9796573D01*
X20777193Y-9792313D01*
X20518091Y-9082716D01*
X20518472Y-9073771D01*
X20524579Y-9067906D01*
X20925501Y-8900873D01*
X20934452Y-8900855D01*
X21335418Y-9067905D01*
G37*
%TD.AperFunction*%
%TD*%
%TA.AperFunction,Conductor*%
%TO.N,/VDD_3.3V*%
G36*
X57029620Y-13213427D02*
G01*
X57032534Y-13218274D01*
X57200252Y-13765920D01*
X57199398Y-13774834D01*
X57193571Y-13780144D01*
X56884506Y-13909119D01*
X56875551Y-13909142D01*
X56875494Y-13909119D01*
X56566428Y-13780144D01*
X56560113Y-13773795D01*
X56559747Y-13765922D01*
X56727466Y-13218273D01*
X56733165Y-13211367D01*
X56738653Y-13210000D01*
X57021347Y-13210000D01*
X57029620Y-13213427D01*
G37*
%TD.AperFunction*%
%TD*%
%TA.AperFunction,Conductor*%
%TO.N,/VBAT*%
G36*
X35859330Y-11268550D02*
G01*
X36076175Y-11357435D01*
X36082531Y-11363744D01*
X36082564Y-11363824D01*
X36171709Y-11581306D01*
X36171676Y-11590260D01*
X36166515Y-11595998D01*
X35816842Y-11788048D01*
X35807941Y-11789027D01*
X35802937Y-11786066D01*
X35673532Y-11656661D01*
X35670105Y-11648388D01*
X35671212Y-11643419D01*
X35844303Y-11274405D01*
X35850917Y-11268374D01*
X35859330Y-11268550D01*
G37*
%TD.AperFunction*%
%TD*%
%TA.AperFunction,Conductor*%
%TO.N,/VBAT*%
G36*
X12983437Y-17710129D02*
G01*
X12986490Y-17712327D01*
X13117672Y-17843509D01*
X13121099Y-17851782D01*
X13120494Y-17855495D01*
X12639275Y-19293396D01*
X12633400Y-19300154D01*
X12624467Y-19300778D01*
X12623714Y-19300497D01*
X11853785Y-18982562D01*
X11847447Y-18976238D01*
X11529502Y-18206284D01*
X11529511Y-18197330D01*
X11535850Y-18191005D01*
X11536581Y-18190731D01*
X12974506Y-17709505D01*
X12983437Y-17710129D01*
G37*
%TD.AperFunction*%
%TD*%
%TA.AperFunction,Conductor*%
%TO.N,/PC13*%
G36*
X39785210Y-11091178D02*
G01*
X39999782Y-11180988D01*
X40006091Y-11187344D01*
X40006058Y-11196298D01*
X40005888Y-11196683D01*
X39808244Y-11624972D01*
X39801666Y-11631048D01*
X39792719Y-11630693D01*
X39789348Y-11628343D01*
X39661665Y-11500660D01*
X39658908Y-11496289D01*
X39552726Y-11196119D01*
X39553197Y-11187176D01*
X39559261Y-11181414D01*
X39776199Y-11091167D01*
X39785154Y-11091155D01*
X39785210Y-11091178D01*
G37*
%TD.AperFunction*%
%TD*%
%TA.AperFunction,Conductor*%
%TO.N,/PC13*%
G36*
X15523437Y-17710129D02*
G01*
X15526490Y-17712327D01*
X15657672Y-17843509D01*
X15661099Y-17851782D01*
X15660494Y-17855495D01*
X15179275Y-19293396D01*
X15173400Y-19300154D01*
X15164467Y-19300778D01*
X15163714Y-19300497D01*
X14393785Y-18982562D01*
X14387447Y-18976238D01*
X14069502Y-18206284D01*
X14069511Y-18197330D01*
X14075850Y-18191005D01*
X14076581Y-18190731D01*
X15514506Y-17709505D01*
X15523437Y-17710129D01*
G37*
%TD.AperFunction*%
%TD*%
%TA.AperFunction,Conductor*%
%TO.N,/PA14{slash}SWCLK*%
G36*
X43504963Y-4413444D02*
G01*
X43510866Y-4418916D01*
X43695394Y-4780265D01*
X43696105Y-4789191D01*
X43693247Y-4793859D01*
X43563859Y-4923247D01*
X43555586Y-4926674D01*
X43550265Y-4925394D01*
X43280908Y-4787843D01*
X43188915Y-4740865D01*
X43183106Y-4734051D01*
X43183410Y-4726011D01*
X43272436Y-4508821D01*
X43278743Y-4502468D01*
X43496011Y-4413411D01*
X43504963Y-4413444D01*
G37*
%TD.AperFunction*%
%TD*%
%TA.AperFunction,Conductor*%
%TO.N,/PA14{slash}SWCLK*%
G36*
X70329764Y-7603427D02*
G01*
X70332622Y-7608095D01*
X70457652Y-7994087D01*
X70456941Y-8003013D01*
X70451038Y-8008485D01*
X70234517Y-8099109D01*
X70225563Y-8099142D01*
X70225483Y-8099109D01*
X70008961Y-8008485D01*
X70002652Y-8002129D01*
X70002347Y-7994088D01*
X70127378Y-7608095D01*
X70133188Y-7601280D01*
X70138509Y-7600000D01*
X70321491Y-7600000D01*
X70329764Y-7603427D01*
G37*
%TD.AperFunction*%
%TD*%
%TA.AperFunction,Conductor*%
%TO.N,/PA13{slash}SWDIO*%
G36*
X70528859Y-11741752D02*
G01*
X70658247Y-11871140D01*
X70661674Y-11879413D01*
X70660394Y-11884734D01*
X70475866Y-12246083D01*
X70469051Y-12251893D01*
X70461009Y-12251588D01*
X70243822Y-12162563D01*
X70237468Y-12156255D01*
X70148411Y-11938988D01*
X70148444Y-11930036D01*
X70153913Y-11924135D01*
X70515266Y-11739604D01*
X70524191Y-11738894D01*
X70528859Y-11741752D01*
G37*
%TD.AperFunction*%
%TD*%
%TA.AperFunction,Conductor*%
%TO.N,/PA13{slash}SWDIO*%
G36*
X45127713Y-4966194D02*
G01*
X45133616Y-4971666D01*
X45318144Y-5333015D01*
X45318855Y-5341941D01*
X45315997Y-5346609D01*
X45186609Y-5475997D01*
X45178336Y-5479424D01*
X45173015Y-5478144D01*
X44903658Y-5340593D01*
X44811665Y-5293615D01*
X44805856Y-5286801D01*
X44806160Y-5278761D01*
X44895186Y-5061571D01*
X44901493Y-5055218D01*
X45118761Y-4966161D01*
X45127713Y-4966194D01*
G37*
%TD.AperFunction*%
%TD*%
%TA.AperFunction,Conductor*%
%TO.N,Net-(USB1-CC1)*%
G36*
X5239764Y-8403427D02*
G01*
X5242622Y-8408095D01*
X5367652Y-8794087D01*
X5366941Y-8803013D01*
X5361038Y-8808485D01*
X5144517Y-8899109D01*
X5135563Y-8899142D01*
X5135483Y-8899109D01*
X4918961Y-8808485D01*
X4912652Y-8802129D01*
X4912347Y-8794088D01*
X5037378Y-8408095D01*
X5043188Y-8401280D01*
X5048509Y-8400000D01*
X5231491Y-8400000D01*
X5239764Y-8403427D01*
G37*
%TD.AperFunction*%
%TD*%
%TA.AperFunction,Conductor*%
%TO.N,Net-(USB1-CC1)*%
G36*
X5361038Y-6651514D02*
G01*
X5367347Y-6657870D01*
X5367652Y-6665912D01*
X5242622Y-7051905D01*
X5236812Y-7058720D01*
X5231491Y-7060000D01*
X5048509Y-7060000D01*
X5040236Y-7056573D01*
X5037378Y-7051905D01*
X4912347Y-6665912D01*
X4913058Y-6656986D01*
X4918960Y-6651514D01*
X5135484Y-6560889D01*
X5144437Y-6560857D01*
X5361038Y-6651514D01*
G37*
%TD.AperFunction*%
%TD*%
%TA.AperFunction,Conductor*%
%TO.N,/USB_Data+*%
G36*
X3060317Y-10403427D02*
G01*
X3063175Y-10408095D01*
X3188205Y-10794087D01*
X3187494Y-10803013D01*
X3181591Y-10808485D01*
X2965070Y-10899109D01*
X2956116Y-10899142D01*
X2956036Y-10899109D01*
X2739514Y-10808485D01*
X2733205Y-10802129D01*
X2732900Y-10794088D01*
X2857931Y-10408095D01*
X2863741Y-10401280D01*
X2869062Y-10400000D01*
X3052044Y-10400000D01*
X3060317Y-10403427D01*
G37*
%TD.AperFunction*%
%TD*%
%TA.AperFunction,Conductor*%
%TO.N,/USB_Data+*%
G36*
X3181024Y-9995107D02*
G01*
X3181050Y-9995118D01*
X3187359Y-10001474D01*
X3187668Y-10009504D01*
X3063169Y-10395382D01*
X3057367Y-10402203D01*
X3052034Y-10403489D01*
X2869050Y-10403489D01*
X2860777Y-10400062D01*
X2857924Y-10395409D01*
X2732365Y-10009520D01*
X2733064Y-10000593D01*
X2738972Y-9995108D01*
X2955484Y-9904488D01*
X2964437Y-9904456D01*
X3181024Y-9995107D01*
G37*
%TD.AperFunction*%
%TD*%
%TA.AperFunction,Conductor*%
%TO.N,Net-(USB1-CC2)*%
G36*
X5249764Y-13253427D02*
G01*
X5252622Y-13258095D01*
X5377652Y-13644087D01*
X5376941Y-13653013D01*
X5371038Y-13658485D01*
X5154517Y-13749109D01*
X5145563Y-13749142D01*
X5145483Y-13749109D01*
X4928961Y-13658485D01*
X4922652Y-13652129D01*
X4922347Y-13644088D01*
X5047378Y-13258095D01*
X5053188Y-13251280D01*
X5058509Y-13250000D01*
X5241491Y-13250000D01*
X5249764Y-13253427D01*
G37*
%TD.AperFunction*%
%TD*%
%TA.AperFunction,Conductor*%
%TO.N,Net-(USB1-CC2)*%
G36*
X5371038Y-11991514D02*
G01*
X5377347Y-11997870D01*
X5377652Y-12005912D01*
X5252622Y-12391905D01*
X5246812Y-12398720D01*
X5241491Y-12400000D01*
X5058509Y-12400000D01*
X5050236Y-12396573D01*
X5047378Y-12391905D01*
X4922347Y-12005912D01*
X4923058Y-11996986D01*
X4928960Y-11991514D01*
X5145484Y-11900889D01*
X5154437Y-11900857D01*
X5371038Y-11991514D01*
G37*
%TD.AperFunction*%
%TD*%
M02*
