%TF.GenerationSoftware,KiCad,Pcbnew,7.0.9*%
%TF.CreationDate,2024-01-12T01:24:11+08:00*%
%TF.ProjectId,UINIO-MCU-GD32F350RBT6,55494e49-4f2d-44d4-9355-2d4744333246,Version 3.0.1*%
%TF.SameCoordinates,PX68576d0PY5926440*%
%TF.FileFunction,Soldermask,Top*%
%TF.FilePolarity,Negative*%
%FSLAX46Y46*%
G04 Gerber Fmt 4.6, Leading zero omitted, Abs format (unit mm)*
G04 Created by KiCad (PCBNEW 7.0.9) date 2024-01-12 01:24:11*
%MOMM*%
%LPD*%
G01*
G04 APERTURE LIST*
G04 Aperture macros list*
%AMRoundRect*
0 Rectangle with rounded corners*
0 $1 Rounding radius*
0 $2 $3 $4 $5 $6 $7 $8 $9 X,Y pos of 4 corners*
0 Add a 4 corners polygon primitive as box body*
4,1,4,$2,$3,$4,$5,$6,$7,$8,$9,$2,$3,0*
0 Add four circle primitives for the rounded corners*
1,1,$1+$1,$2,$3*
1,1,$1+$1,$4,$5*
1,1,$1+$1,$6,$7*
1,1,$1+$1,$8,$9*
0 Add four rect primitives between the rounded corners*
20,1,$1+$1,$2,$3,$4,$5,0*
20,1,$1+$1,$4,$5,$6,$7,0*
20,1,$1+$1,$6,$7,$8,$9,0*
20,1,$1+$1,$8,$9,$2,$3,0*%
%AMHorizOval*
0 Thick line with rounded ends*
0 $1 width*
0 $2 $3 position (X,Y) of the first rounded end (center of the circle)*
0 $4 $5 position (X,Y) of the second rounded end (center of the circle)*
0 Add line between two ends*
20,1,$1,$2,$3,$4,$5,0*
0 Add two circle primitives to create the rounded ends*
1,1,$1,$2,$3*
1,1,$1,$4,$5*%
G04 Aperture macros list end*
%ADD10RoundRect,0.200000X-0.275000X0.200000X-0.275000X-0.200000X0.275000X-0.200000X0.275000X0.200000X0*%
%ADD11RoundRect,0.225000X-0.225000X-0.250000X0.225000X-0.250000X0.225000X0.250000X-0.225000X0.250000X0*%
%ADD12RoundRect,0.225000X-0.250000X0.225000X-0.250000X-0.225000X0.250000X-0.225000X0.250000X0.225000X0*%
%ADD13RoundRect,0.200000X-0.200000X-0.275000X0.200000X-0.275000X0.200000X0.275000X-0.200000X0.275000X0*%
%ADD14RoundRect,0.200000X0.275000X-0.200000X0.275000X0.200000X-0.275000X0.200000X-0.275000X-0.200000X0*%
%ADD15C,1.200000*%
%ADD16RoundRect,0.218750X0.256250X-0.218750X0.256250X0.218750X-0.256250X0.218750X-0.256250X-0.218750X0*%
%ADD17HorizOval,0.300000X-0.601041X-0.601041X0.601041X0.601041X0*%
%ADD18HorizOval,0.300000X0.601041X-0.601041X-0.601041X0.601041X0*%
%ADD19R,1.400000X1.200000*%
%ADD20RoundRect,0.200000X0.200000X0.275000X-0.200000X0.275000X-0.200000X-0.275000X0.200000X-0.275000X0*%
%ADD21R,1.000000X0.600000*%
%ADD22C,0.650000*%
%ADD23O,2.100000X1.000000*%
%ADD24O,1.900000X1.000000*%
%ADD25R,1.150000X0.600000*%
%ADD26R,1.150000X0.300000*%
%ADD27R,1.200000X0.650000*%
%ADD28R,1.700000X1.700000*%
%ADD29O,1.700000X1.700000*%
%ADD30RoundRect,0.225000X0.225000X0.250000X-0.225000X0.250000X-0.225000X-0.250000X0.225000X-0.250000X0*%
%ADD31R,1.800000X1.000000*%
%ADD32RoundRect,0.218750X0.218750X0.256250X-0.218750X0.256250X-0.218750X-0.256250X0.218750X-0.256250X0*%
G04 APERTURE END LIST*
D10*
%TO.C,R5*%
X68950000Y-6450000D03*
X68950000Y-8100000D03*
%TD*%
D11*
%TO.C,C8*%
X26265000Y-8530000D03*
X27815000Y-8530000D03*
%TD*%
D12*
%TO.C,C7*%
X67020000Y-12185000D03*
X67020000Y-13735000D03*
%TD*%
D13*
%TO.C,R11*%
X6010000Y-13750000D03*
X7660000Y-13750000D03*
%TD*%
D14*
%TO.C,R2*%
X55750000Y-8095000D03*
X55750000Y-6445000D03*
%TD*%
D10*
%TO.C,R6*%
X68960000Y-12135000D03*
X68960000Y-13785000D03*
%TD*%
D13*
%TO.C,R10*%
X6010000Y-6560000D03*
X7660000Y-6560000D03*
%TD*%
D15*
%TO.C,HOLE1*%
X83220000Y-17710000D03*
%TD*%
D16*
%TO.C,L1*%
X53830000Y-13852500D03*
X53830000Y-12277500D03*
%TD*%
D12*
%TO.C,C2*%
X67010000Y-6500000D03*
X67010000Y-8050000D03*
%TD*%
D14*
%TO.C,R3*%
X55770000Y-13890000D03*
X55770000Y-12240000D03*
%TD*%
D15*
%TO.C,HOLE3*%
X-1080000Y-17710000D03*
%TD*%
D10*
%TO.C,R4*%
X32210000Y-12475000D03*
X32210000Y-14125000D03*
%TD*%
D17*
%TO.C,U2*%
X36935849Y-11574214D03*
X37289402Y-11927767D03*
X37642955Y-12281320D03*
X37996509Y-12634874D03*
X38350062Y-12988427D03*
X38703616Y-13341981D03*
X39057169Y-13695534D03*
X39410722Y-14049087D03*
X39764276Y-14402641D03*
X40117829Y-14756194D03*
X40471382Y-15109747D03*
X40824936Y-15463301D03*
X41178489Y-15816854D03*
X41532043Y-16170408D03*
X41885596Y-16523961D03*
X42239149Y-16877514D03*
D18*
X45067577Y-16877514D03*
X45421130Y-16523961D03*
X45774683Y-16170408D03*
X46128237Y-15816854D03*
X46481790Y-15463301D03*
X46835344Y-15109747D03*
X47188897Y-14756194D03*
X47542450Y-14402641D03*
X47896004Y-14049087D03*
X48249557Y-13695534D03*
X48603110Y-13341981D03*
X48956664Y-12988427D03*
X49310217Y-12634874D03*
X49663771Y-12281320D03*
X50017324Y-11927767D03*
X50370877Y-11574214D03*
D17*
X50370877Y-8745786D03*
X50017324Y-8392233D03*
X49663771Y-8038680D03*
X49310217Y-7685126D03*
X48956664Y-7331573D03*
X48603110Y-6978019D03*
X48249557Y-6624466D03*
X47896004Y-6270913D03*
X47542450Y-5917359D03*
X47188897Y-5563806D03*
X46835344Y-5210253D03*
X46481790Y-4856699D03*
X46128237Y-4503146D03*
X45774683Y-4149592D03*
X45421130Y-3796039D03*
X45067577Y-3442486D03*
D18*
X42239149Y-3442486D03*
X41885596Y-3796039D03*
X41532043Y-4149592D03*
X41178489Y-4503146D03*
X40824936Y-4856699D03*
X40471382Y-5210253D03*
X40117829Y-5563806D03*
X39764276Y-5917359D03*
X39410722Y-6270913D03*
X39057169Y-6624466D03*
X38703616Y-6978019D03*
X38350062Y-7331573D03*
X37996509Y-7685126D03*
X37642955Y-8038680D03*
X37289402Y-8392233D03*
X36935849Y-8745786D03*
%TD*%
D19*
%TO.C,Y2*%
X28150000Y-14140000D03*
X30350000Y-14140000D03*
X30350000Y-12440000D03*
X28150000Y-12440000D03*
%TD*%
D11*
%TO.C,C9*%
X26265000Y-10500000D03*
X27815000Y-10500000D03*
%TD*%
D20*
%TO.C,R9*%
X19145000Y-11340000D03*
X17495000Y-11340000D03*
%TD*%
D12*
%TO.C,C5*%
X53830000Y-6495000D03*
X53830000Y-8045000D03*
%TD*%
D21*
%TO.C,U1*%
X15360000Y-7080000D03*
X15360000Y-8030000D03*
X15360000Y-8980000D03*
X17960000Y-8980000D03*
X17960000Y-7080000D03*
%TD*%
D12*
%TO.C,C1*%
X13780000Y-7425000D03*
X13780000Y-8975000D03*
%TD*%
%TO.C,C3*%
X19540000Y-7415000D03*
X19540000Y-8965000D03*
%TD*%
D15*
%TO.C,HOLE2*%
X83210000Y-2600000D03*
%TD*%
D20*
%TO.C,R7*%
X16185000Y-11340000D03*
X14535000Y-11340000D03*
%TD*%
D22*
%TO.C,USB1*%
X2599000Y-7263599D03*
X2599000Y-13043599D03*
D23*
X3099000Y-5828599D03*
X3099000Y-14478599D03*
D24*
X-1101000Y-5828599D03*
X-1101000Y-14478599D03*
D25*
X3861000Y-6953599D03*
X3861000Y-7753599D03*
D26*
X3861000Y-8903599D03*
X3861000Y-9903599D03*
X3861000Y-10403599D03*
X3861000Y-11403599D03*
D25*
X3861000Y-13353599D03*
X3861000Y-12553599D03*
D26*
X3861000Y-11903599D03*
X3861000Y-10903599D03*
X3861000Y-9403599D03*
X3861000Y-8403599D03*
%TD*%
D11*
%TO.C,C4*%
X33185000Y-7350000D03*
X34735000Y-7350000D03*
%TD*%
D27*
%TO.C,SW2*%
X59620000Y-11875000D03*
X63920000Y-11875000D03*
X59620000Y-14025000D03*
X63920000Y-14025000D03*
%TD*%
D20*
%TO.C,R1*%
X16185000Y-14260000D03*
X14535000Y-14260000D03*
%TD*%
%TO.C,R8*%
X16185000Y-12800000D03*
X14535000Y-12800000D03*
%TD*%
D28*
%TO.C,J3*%
X83770000Y-6340000D03*
D29*
X83770000Y-8880000D03*
X83770000Y-11420000D03*
X83770000Y-13960000D03*
%TD*%
D27*
%TO.C,SW1*%
X59590000Y-6235000D03*
X63890000Y-6235000D03*
X59590000Y-8385000D03*
X63890000Y-8385000D03*
%TD*%
D30*
%TO.C,C6*%
X26305000Y-12300000D03*
X24755000Y-12300000D03*
%TD*%
D31*
%TO.C,Y1*%
X29700000Y-10770000D03*
X29700000Y-8270000D03*
%TD*%
D15*
%TO.C,HOLE4*%
X-1080000Y-2600000D03*
%TD*%
D32*
%TO.C,D1*%
X19107500Y-14260000D03*
X17532500Y-14260000D03*
%TD*%
D11*
%TO.C,C10*%
X24745000Y-14250000D03*
X26295000Y-14250000D03*
%TD*%
D28*
%TO.C,J2*%
X1690000Y-1330000D03*
D29*
X4230000Y-1330000D03*
X6770000Y-1330000D03*
X9310000Y-1330000D03*
X11850000Y-1330000D03*
X14390000Y-1330000D03*
X16930000Y-1330000D03*
X19470000Y-1330000D03*
X22010000Y-1330000D03*
X24550000Y-1330000D03*
X27090000Y-1330000D03*
X29630000Y-1330000D03*
X32170000Y-1330000D03*
X34710000Y-1330000D03*
X37250000Y-1330000D03*
X39790000Y-1330000D03*
X42330000Y-1330000D03*
X44870000Y-1330000D03*
X47410000Y-1330000D03*
X49950000Y-1330000D03*
X52490000Y-1330000D03*
X55030000Y-1330000D03*
X57570000Y-1330000D03*
X60110000Y-1330000D03*
X62650000Y-1330000D03*
X65190000Y-1330000D03*
X67730000Y-1330000D03*
X70270000Y-1330000D03*
X72810000Y-1330000D03*
X75350000Y-1330000D03*
X77890000Y-1330000D03*
X80430000Y-1330000D03*
%TD*%
D28*
%TO.C,J1*%
X1690000Y-18980000D03*
D29*
X4230000Y-18980000D03*
X6770000Y-18980000D03*
X9310000Y-18980000D03*
X11850000Y-18980000D03*
X14390000Y-18980000D03*
X16930000Y-18980000D03*
X19470000Y-18980000D03*
X22010000Y-18980000D03*
X24550000Y-18980000D03*
X27090000Y-18980000D03*
X29630000Y-18980000D03*
X32170000Y-18980000D03*
X34710000Y-18980000D03*
X37250000Y-18980000D03*
X39790000Y-18980000D03*
X42330000Y-18980000D03*
X44870000Y-18980000D03*
X47410000Y-18980000D03*
X49950000Y-18980000D03*
X52490000Y-18980000D03*
X55030000Y-18980000D03*
X57570000Y-18980000D03*
X60110000Y-18980000D03*
X62650000Y-18980000D03*
X65190000Y-18980000D03*
X67730000Y-18980000D03*
X70270000Y-18980000D03*
X72810000Y-18980000D03*
X75350000Y-18980000D03*
X77890000Y-18980000D03*
X80430000Y-18980000D03*
%TD*%
M02*
