%TF.GenerationSoftware,KiCad,Pcbnew,7.0.10*%
%TF.CreationDate,2024-01-31T14:40:53+08:00*%
%TF.ProjectId,UINIO-MCU-GD32F350RBT6,55494e49-4f2d-44d4-9355-2d4744333246,Version 3.1.1*%
%TF.SameCoordinates,PX68576d0PY5926440*%
%TF.FileFunction,Soldermask,Bot*%
%TF.FilePolarity,Negative*%
%FSLAX46Y46*%
G04 Gerber Fmt 4.6, Leading zero omitted, Abs format (unit mm)*
G04 Created by KiCad (PCBNEW 7.0.10) date 2024-01-31 14:40:53*
%MOMM*%
%LPD*%
G01*
G04 APERTURE LIST*
%ADD10C,1.200000*%
%ADD11C,0.650000*%
%ADD12O,2.100000X1.000000*%
%ADD13O,1.900000X1.000000*%
%ADD14R,1.700000X1.700000*%
%ADD15O,1.700000X1.700000*%
G04 APERTURE END LIST*
D10*
%TO.C,HOLE1*%
X83220000Y-17710000D03*
%TD*%
%TO.C,HOLE3*%
X-1080000Y-17710000D03*
%TD*%
%TO.C,HOLE2*%
X83210000Y-2600000D03*
%TD*%
D11*
%TO.C,USB1*%
X2599000Y-7263599D03*
X2599000Y-13043599D03*
D12*
X3099000Y-5828599D03*
X3099000Y-14478599D03*
D13*
X-1101000Y-5828599D03*
X-1101000Y-14478599D03*
%TD*%
D14*
%TO.C,J3*%
X83770000Y-6340000D03*
D15*
X83770000Y-8880000D03*
X83770000Y-11420000D03*
X83770000Y-13960000D03*
%TD*%
D10*
%TO.C,HOLE4*%
X-1080000Y-2600000D03*
%TD*%
D14*
%TO.C,J2*%
X1690000Y-1330000D03*
D15*
X4230000Y-1330000D03*
X6770000Y-1330000D03*
X9310000Y-1330000D03*
X11850000Y-1330000D03*
X14390000Y-1330000D03*
X16930000Y-1330000D03*
X19470000Y-1330000D03*
X22010000Y-1330000D03*
X24550000Y-1330000D03*
X27090000Y-1330000D03*
X29630000Y-1330000D03*
X32170000Y-1330000D03*
X34710000Y-1330000D03*
X37250000Y-1330000D03*
X39790000Y-1330000D03*
X42330000Y-1330000D03*
X44870000Y-1330000D03*
X47410000Y-1330000D03*
X49950000Y-1330000D03*
X52490000Y-1330000D03*
X55030000Y-1330000D03*
X57570000Y-1330000D03*
X60110000Y-1330000D03*
X62650000Y-1330000D03*
X65190000Y-1330000D03*
X67730000Y-1330000D03*
X70270000Y-1330000D03*
X72810000Y-1330000D03*
X75350000Y-1330000D03*
X77890000Y-1330000D03*
X80430000Y-1330000D03*
%TD*%
D14*
%TO.C,J1*%
X1690000Y-18980000D03*
D15*
X4230000Y-18980000D03*
X6770000Y-18980000D03*
X9310000Y-18980000D03*
X11850000Y-18980000D03*
X14390000Y-18980000D03*
X16930000Y-18980000D03*
X19470000Y-18980000D03*
X22010000Y-18980000D03*
X24550000Y-18980000D03*
X27090000Y-18980000D03*
X29630000Y-18980000D03*
X32170000Y-18980000D03*
X34710000Y-18980000D03*
X37250000Y-18980000D03*
X39790000Y-18980000D03*
X42330000Y-18980000D03*
X44870000Y-18980000D03*
X47410000Y-18980000D03*
X49950000Y-18980000D03*
X52490000Y-18980000D03*
X55030000Y-18980000D03*
X57570000Y-18980000D03*
X60110000Y-18980000D03*
X62650000Y-18980000D03*
X65190000Y-18980000D03*
X67730000Y-18980000D03*
X70270000Y-18980000D03*
X72810000Y-18980000D03*
X75350000Y-18980000D03*
X77890000Y-18980000D03*
X80430000Y-18980000D03*
%TD*%
M02*
