M48
; DRILL file {KiCad 7.0.10} date Wed Jan 31 14:40:56 2024
; FORMAT={-:-/ absolute / metric / decimal}
; #@! TF.CreationDate,2024-01-31T14:40:56+08:00
; #@! TF.GenerationSoftware,Kicad,Pcbnew,7.0.10
; #@! TF.FileFunction,MixedPlating,1,2
FMAT,2
METRIC
; #@! TA.AperFunction,Plated,PTH,ViaDrill
T1C0.300
; #@! TA.AperFunction,Plated,PTH,ViaDrill
T2C0.400
; #@! TA.AperFunction,Plated,PTH,ComponentDrill
T3C0.600
; #@! TA.AperFunction,Plated,PTH,ComponentDrill
T4C1.000
; #@! TA.AperFunction,Plated,PTH,ComponentDrill
T5C1.200
; #@! TA.AperFunction,NonPlated,NPTH,ComponentDrill
T6C0.650
%
G90
G05
T1
X2.96Y-9.904
X2.961Y-10.9
X5.14Y-6.56
X5.14Y-8.9
X5.15Y-11.9
X5.15Y-13.75
X6.18Y-11.42
X6.185Y-8.924
X12.47Y-10.25
X12.89Y-16.42
X15.67Y-16.42
X17.75Y-17.17
X19.107Y-13.442
X20.21Y-10.28
X31.26Y-8.7
X34.75Y-8.41
X35.349Y-15.3
X35.42Y-9.31
X35.42Y-10.51
X36.08Y-11.36
X36.86Y-13.789
X39.78Y-11.09
X40.5Y-9.08
X40.5Y-10.52
X40.504Y-8.116
X43.27Y-5.79
X43.275Y-4.505
X43.65Y-8.89
X43.65Y-11.05
X43.65Y-14.95
X44.898Y-5.058
X52.18Y-11.67
X52.29Y-9.05
X54.7Y-11.05
X56.88Y-13.91
X57.126Y-8.116
X57.93Y-9.53
X63.94Y-10.28
X65.562Y-13.643
X70.23Y-8.1
X70.24Y-12.16
X70.94Y-13.05
X78.78Y-10.14
X78.78Y-12.56
X78.78Y-14.98
T2
X8.88Y-12.55
X8.9Y-7.77
X10.425Y-15.325
X20.93Y-8.9
X20.93Y-15.16
X52.554Y-13.852
T4
X1.69Y-1.33
X1.69Y-18.98
X4.23Y-1.33
X4.23Y-18.98
X6.77Y-1.33
X6.77Y-18.98
X9.31Y-1.33
X9.31Y-18.98
X11.85Y-1.33
X11.85Y-18.98
X14.39Y-1.33
X14.39Y-18.98
X16.93Y-1.33
X16.93Y-18.98
X19.47Y-1.33
X19.47Y-18.98
X22.01Y-1.33
X22.01Y-18.98
X24.55Y-1.33
X24.55Y-18.98
X27.09Y-1.33
X27.09Y-18.98
X29.63Y-1.33
X29.63Y-18.98
X32.17Y-1.33
X32.17Y-18.98
X34.71Y-1.33
X34.71Y-18.98
X37.25Y-1.33
X37.25Y-18.98
X39.79Y-1.33
X39.79Y-18.98
X42.33Y-1.33
X42.33Y-18.98
X44.87Y-1.33
X44.87Y-18.98
X47.41Y-1.33
X47.41Y-18.98
X49.95Y-1.33
X49.95Y-18.98
X52.49Y-1.33
X52.49Y-18.98
X55.03Y-1.33
X55.03Y-18.98
X57.57Y-1.33
X57.57Y-18.98
X60.11Y-1.33
X60.11Y-18.98
X62.65Y-1.33
X62.65Y-18.98
X65.19Y-1.33
X65.19Y-18.98
X67.73Y-1.33
X67.73Y-18.98
X70.27Y-1.33
X70.27Y-18.98
X72.81Y-1.33
X72.81Y-18.98
X75.35Y-1.33
X75.35Y-18.98
X77.89Y-1.33
X77.89Y-18.98
X80.43Y-1.33
X80.43Y-18.98
X83.77Y-6.34
X83.77Y-8.88
X83.77Y-11.42
X83.77Y-13.96
T5
X-1.08Y-2.6
X-1.08Y-17.71
X83.21Y-2.6
X83.22Y-17.71
T6
X2.599Y-7.264
X2.599Y-13.044
T3
G00X-0.651Y-5.829
M15
G01X-1.551Y-5.829
M16
G05
G00X-0.651Y-14.479
M15
G01X-1.551Y-14.479
M16
G05
G00X3.699Y-5.829
M15
G01X2.499Y-5.829
M16
G05
G00X3.699Y-14.479
M15
G01X2.499Y-14.479
M16
G05
M30
