%TF.GenerationSoftware,KiCad,Pcbnew,7.0.11*%
%TF.CreationDate,2024-04-12T14:09:29+08:00*%
%TF.ProjectId,UINIO-MCU-GD32F350RBT6,55494e49-4f2d-44d4-9355-2d4744333246,Version 3.3.0*%
%TF.SameCoordinates,PX6853c38PY56b895f*%
%TF.FileFunction,Legend,Bot*%
%TF.FilePolarity,Positive*%
%FSLAX46Y46*%
G04 Gerber Fmt 4.6, Leading zero omitted, Abs format (unit mm)*
G04 Created by KiCad (PCBNEW 7.0.11) date 2024-04-12 14:09:29*
%MOMM*%
%LPD*%
G01*
G04 APERTURE LIST*
%ADD10C,0.187500*%
%ADD11C,0.300000*%
%ADD12C,0.100000*%
%ADD13C,0.120000*%
%ADD14C,1.200000*%
%ADD15C,0.650000*%
%ADD16O,2.100000X1.000000*%
%ADD17O,1.900000X1.000000*%
%ADD18R,1.700000X1.700000*%
%ADD19O,1.700000X1.700000*%
G04 APERTURE END LIST*
D10*
G36*
X45708213Y-10362946D02*
G01*
X45176838Y-10362946D01*
X45176838Y-11869876D01*
X45177387Y-11907940D01*
X45179034Y-11944681D01*
X45181779Y-11980100D01*
X45185622Y-12014196D01*
X45190563Y-12046970D01*
X45196601Y-12078422D01*
X45203738Y-12108551D01*
X45211973Y-12137359D01*
X45221305Y-12164843D01*
X45231736Y-12191006D01*
X45243264Y-12215846D01*
X45255890Y-12239364D01*
X45269615Y-12261559D01*
X45284437Y-12282432D01*
X45300357Y-12301983D01*
X45317376Y-12320211D01*
X45335544Y-12337229D01*
X45355042Y-12353149D01*
X45375871Y-12367972D01*
X45398031Y-12381696D01*
X45421520Y-12394322D01*
X45446340Y-12405851D01*
X45472491Y-12416281D01*
X45499972Y-12425614D01*
X45528783Y-12433849D01*
X45558924Y-12440985D01*
X45590396Y-12447024D01*
X45623198Y-12451965D01*
X45657331Y-12455808D01*
X45692794Y-12458552D01*
X45729587Y-12460199D01*
X45767711Y-12460748D01*
X46446803Y-12460748D01*
X46484929Y-12460199D01*
X46521728Y-12458552D01*
X46557201Y-12455808D01*
X46591348Y-12451965D01*
X46624168Y-12447024D01*
X46655662Y-12440985D01*
X46685829Y-12433849D01*
X46714671Y-12425614D01*
X46742185Y-12416281D01*
X46768374Y-12405851D01*
X46793236Y-12394322D01*
X46816772Y-12381696D01*
X46838981Y-12367972D01*
X46859864Y-12353149D01*
X46879421Y-12337229D01*
X46897651Y-12320211D01*
X46914607Y-12301983D01*
X46930469Y-12282432D01*
X46945238Y-12261559D01*
X46958912Y-12239364D01*
X46971492Y-12215846D01*
X46982979Y-12191006D01*
X46993371Y-12164843D01*
X47002670Y-12137359D01*
X47010874Y-12108551D01*
X47017985Y-12078422D01*
X47024001Y-12046970D01*
X47028924Y-12014196D01*
X47032753Y-11980100D01*
X47035488Y-11944681D01*
X47037129Y-11907940D01*
X47037676Y-11869876D01*
X47037676Y-10362946D01*
X46506301Y-10362946D01*
X46506301Y-11869876D01*
X46505608Y-11891304D01*
X46501968Y-11920854D01*
X46495209Y-11947293D01*
X46485331Y-11970622D01*
X46472333Y-11990841D01*
X46456215Y-12007948D01*
X46436978Y-12021946D01*
X46414621Y-12032833D01*
X46389145Y-12040609D01*
X46360549Y-12045275D01*
X46339752Y-12046657D01*
X46328834Y-12046830D01*
X45885680Y-12046830D01*
X45864190Y-12046139D01*
X45834554Y-12042510D01*
X45808038Y-12035770D01*
X45784642Y-12025920D01*
X45764365Y-12012960D01*
X45747207Y-11996889D01*
X45733169Y-11977707D01*
X45722251Y-11955415D01*
X45714452Y-11930013D01*
X45709773Y-11901500D01*
X45708386Y-11880763D01*
X45708213Y-11869876D01*
X45708213Y-10362946D01*
G37*
G36*
X43859685Y-12431000D02*
G01*
X44922948Y-12431000D01*
X44922948Y-12017594D01*
X44657260Y-12017594D01*
X44657260Y-10776352D01*
X44922948Y-10776352D01*
X44922948Y-10362946D01*
X43859685Y-10362946D01*
X43859685Y-10776352D01*
X44125373Y-10776352D01*
X44125373Y-12017594D01*
X43859685Y-12017594D01*
X43859685Y-12431000D01*
G37*
G36*
X41799326Y-12431000D02*
G01*
X42360450Y-12431000D01*
X43069804Y-11190270D01*
X43069804Y-12431000D01*
X43601179Y-12431000D01*
X43601179Y-10362946D01*
X43040055Y-10362946D01*
X42331214Y-11603676D01*
X42331214Y-10362946D01*
X41799326Y-10362946D01*
X41799326Y-12431000D01*
G37*
G36*
X40480634Y-12431000D02*
G01*
X41543897Y-12431000D01*
X41543897Y-12017594D01*
X41278209Y-12017594D01*
X41278209Y-10776352D01*
X41543897Y-10776352D01*
X41543897Y-10362946D01*
X40480634Y-10362946D01*
X40480634Y-10776352D01*
X40746322Y-10776352D01*
X40746322Y-12017594D01*
X40480634Y-12017594D01*
X40480634Y-12431000D01*
G37*
G36*
X39728817Y-10333747D02*
G01*
X39765558Y-10335394D01*
X39800977Y-10338138D01*
X39835073Y-10341981D01*
X39867847Y-10346922D01*
X39899299Y-10352961D01*
X39929429Y-10360097D01*
X39958236Y-10368332D01*
X39985720Y-10377665D01*
X40011883Y-10388095D01*
X40036723Y-10399624D01*
X40060241Y-10412250D01*
X40082436Y-10425974D01*
X40103309Y-10440797D01*
X40122860Y-10456717D01*
X40141088Y-10473735D01*
X40158106Y-10491963D01*
X40174027Y-10511514D01*
X40188849Y-10532387D01*
X40202573Y-10554582D01*
X40215200Y-10578100D01*
X40226728Y-10602940D01*
X40237159Y-10629103D01*
X40246491Y-10656587D01*
X40254726Y-10685395D01*
X40261862Y-10715524D01*
X40267901Y-10746976D01*
X40272842Y-10779750D01*
X40276685Y-10813846D01*
X40279430Y-10849265D01*
X40281076Y-10886006D01*
X40281625Y-10924070D01*
X40281625Y-11869876D01*
X40281076Y-11907940D01*
X40279430Y-11944681D01*
X40276685Y-11980100D01*
X40272842Y-12014196D01*
X40267901Y-12046970D01*
X40261862Y-12078422D01*
X40254726Y-12108551D01*
X40246491Y-12137359D01*
X40237159Y-12164843D01*
X40226728Y-12191006D01*
X40215200Y-12215846D01*
X40202573Y-12239364D01*
X40188849Y-12261559D01*
X40174027Y-12282432D01*
X40158106Y-12301983D01*
X40141088Y-12320211D01*
X40122860Y-12337229D01*
X40103309Y-12353149D01*
X40082436Y-12367972D01*
X40060241Y-12381696D01*
X40036723Y-12394322D01*
X40011883Y-12405851D01*
X39985720Y-12416281D01*
X39958236Y-12425614D01*
X39929429Y-12433849D01*
X39899299Y-12440985D01*
X39867847Y-12447024D01*
X39835073Y-12451965D01*
X39800977Y-12455808D01*
X39765558Y-12458552D01*
X39728817Y-12460199D01*
X39690753Y-12460748D01*
X38952163Y-12460748D01*
X38914039Y-12460199D01*
X38877246Y-12458552D01*
X38841783Y-12455808D01*
X38807650Y-12451965D01*
X38774848Y-12447024D01*
X38743376Y-12440985D01*
X38713235Y-12433849D01*
X38684424Y-12425614D01*
X38656943Y-12416281D01*
X38630793Y-12405851D01*
X38605973Y-12394322D01*
X38582483Y-12381696D01*
X38560324Y-12367972D01*
X38539495Y-12353149D01*
X38519996Y-12337229D01*
X38501828Y-12320211D01*
X38484810Y-12301983D01*
X38468889Y-12282432D01*
X38454067Y-12261559D01*
X38440343Y-12239364D01*
X38427716Y-12215846D01*
X38416188Y-12191006D01*
X38405757Y-12164843D01*
X38396425Y-12137359D01*
X38388190Y-12108551D01*
X38381054Y-12078422D01*
X38375015Y-12046970D01*
X38370074Y-12014196D01*
X38366231Y-11980100D01*
X38363486Y-11944681D01*
X38361839Y-11907940D01*
X38361290Y-11869876D01*
X38892665Y-11869876D01*
X38892838Y-11880763D01*
X38894225Y-11901500D01*
X38898904Y-11930013D01*
X38906703Y-11955415D01*
X38917621Y-11977707D01*
X38931659Y-11996889D01*
X38948817Y-12012960D01*
X38969094Y-12025920D01*
X38992490Y-12035770D01*
X39019006Y-12042510D01*
X39048642Y-12046139D01*
X39070132Y-12046830D01*
X39572271Y-12046830D01*
X39583189Y-12046657D01*
X39603986Y-12045275D01*
X39632582Y-12040609D01*
X39658058Y-12032833D01*
X39680415Y-12021946D01*
X39699652Y-12007948D01*
X39715769Y-11990841D01*
X39728768Y-11970622D01*
X39738646Y-11947293D01*
X39745405Y-11920854D01*
X39749045Y-11891304D01*
X39749738Y-11869876D01*
X39749738Y-10924070D01*
X39749564Y-10913183D01*
X39748178Y-10892446D01*
X39743499Y-10863933D01*
X39735700Y-10838531D01*
X39724781Y-10816239D01*
X39710744Y-10797057D01*
X39693586Y-10780986D01*
X39673309Y-10768026D01*
X39649913Y-10758176D01*
X39623397Y-10751436D01*
X39593761Y-10747807D01*
X39572271Y-10747116D01*
X39070132Y-10747116D01*
X39059214Y-10747289D01*
X39038417Y-10748671D01*
X39009821Y-10753337D01*
X38984345Y-10761113D01*
X38961988Y-10772000D01*
X38942751Y-10785998D01*
X38926633Y-10803105D01*
X38913635Y-10823324D01*
X38903757Y-10846653D01*
X38896998Y-10873092D01*
X38893358Y-10902642D01*
X38892665Y-10924070D01*
X38892665Y-11869876D01*
X38361290Y-11869876D01*
X38361290Y-10924070D01*
X38361839Y-10886006D01*
X38363486Y-10849265D01*
X38366231Y-10813846D01*
X38370074Y-10779750D01*
X38375015Y-10746976D01*
X38381054Y-10715524D01*
X38388190Y-10685395D01*
X38396425Y-10656587D01*
X38405757Y-10629103D01*
X38416188Y-10602940D01*
X38427716Y-10578100D01*
X38440343Y-10554582D01*
X38454067Y-10532387D01*
X38468889Y-10511514D01*
X38484810Y-10491963D01*
X38501828Y-10473735D01*
X38519996Y-10456717D01*
X38539495Y-10440797D01*
X38560324Y-10425974D01*
X38582483Y-10412250D01*
X38605973Y-10399624D01*
X38630793Y-10388095D01*
X38656943Y-10377665D01*
X38684424Y-10368332D01*
X38713235Y-10360097D01*
X38743376Y-10352961D01*
X38774848Y-10346922D01*
X38807650Y-10341981D01*
X38841783Y-10338138D01*
X38877246Y-10335394D01*
X38914039Y-10333747D01*
X38952163Y-10333198D01*
X39690753Y-10333198D01*
X39728817Y-10333747D01*
G37*
G36*
X38164846Y-11603676D02*
G01*
X38164846Y-11190270D01*
X36953865Y-11190270D01*
X36953865Y-11603676D01*
X38164846Y-11603676D01*
G37*
G36*
X34922742Y-11279004D02*
G01*
X35336660Y-12017594D01*
X35750066Y-12017594D01*
X36163984Y-11279004D01*
X36163984Y-12431000D01*
X36695359Y-12431000D01*
X36695359Y-10362946D01*
X36134235Y-10362946D01*
X35543363Y-11455958D01*
X34952491Y-10362946D01*
X34391367Y-10362946D01*
X34391367Y-12431000D01*
X34922742Y-12431000D01*
X34922742Y-11279004D01*
G37*
G36*
X32455645Y-12401251D02*
G01*
X32496587Y-12404911D01*
X32537091Y-12408456D01*
X32577158Y-12411884D01*
X32616787Y-12415195D01*
X32655978Y-12418391D01*
X32694731Y-12421471D01*
X32733047Y-12424434D01*
X32770924Y-12427281D01*
X32808364Y-12430012D01*
X32845366Y-12432626D01*
X32881931Y-12435125D01*
X32918057Y-12437507D01*
X32953746Y-12439773D01*
X32988997Y-12441923D01*
X33023810Y-12443956D01*
X33058186Y-12445874D01*
X33092124Y-12447675D01*
X33125624Y-12449360D01*
X33158686Y-12450929D01*
X33191310Y-12452381D01*
X33223497Y-12453718D01*
X33255246Y-12454938D01*
X33286557Y-12456042D01*
X33317430Y-12457030D01*
X33347865Y-12457901D01*
X33377863Y-12458657D01*
X33407423Y-12459296D01*
X33436545Y-12459819D01*
X33465230Y-12460225D01*
X33493476Y-12460516D01*
X33521285Y-12460690D01*
X33548656Y-12460748D01*
X33584279Y-12460217D01*
X33618700Y-12458625D01*
X33651919Y-12455970D01*
X33683936Y-12452253D01*
X33714751Y-12447475D01*
X33744363Y-12441634D01*
X33772774Y-12434732D01*
X33799982Y-12426768D01*
X33825988Y-12417742D01*
X33850792Y-12407654D01*
X33874394Y-12396504D01*
X33896794Y-12384293D01*
X33917991Y-12371019D01*
X33937987Y-12356684D01*
X33956780Y-12341286D01*
X33974371Y-12324827D01*
X33990831Y-12307236D01*
X34006228Y-12288443D01*
X34020563Y-12268447D01*
X34033837Y-12247250D01*
X34046049Y-12224850D01*
X34057198Y-12201248D01*
X34067286Y-12176444D01*
X34076312Y-12150438D01*
X34084276Y-12123229D01*
X34091179Y-12094819D01*
X34097019Y-12065207D01*
X34101797Y-12034392D01*
X34105514Y-12002375D01*
X34108169Y-11969156D01*
X34109762Y-11934735D01*
X34110293Y-11899112D01*
X34110293Y-10953819D01*
X34109744Y-10915695D01*
X34108097Y-10878902D01*
X34105352Y-10843439D01*
X34101509Y-10809306D01*
X34096568Y-10776504D01*
X34090529Y-10745032D01*
X34083393Y-10714891D01*
X34075158Y-10686080D01*
X34065826Y-10658599D01*
X34055395Y-10632449D01*
X34043867Y-10607629D01*
X34031240Y-10584139D01*
X34017516Y-10561980D01*
X34002694Y-10541151D01*
X33986773Y-10521652D01*
X33969755Y-10503484D01*
X33951527Y-10486466D01*
X33931976Y-10470545D01*
X33911103Y-10455723D01*
X33888908Y-10441999D01*
X33865390Y-10429372D01*
X33840550Y-10417844D01*
X33814388Y-10407413D01*
X33786903Y-10398081D01*
X33758096Y-10389846D01*
X33727966Y-10382710D01*
X33696514Y-10376671D01*
X33663740Y-10371730D01*
X33629644Y-10367887D01*
X33594225Y-10365142D01*
X33557484Y-10363495D01*
X33519420Y-10362946D01*
X32455645Y-10362946D01*
X32455645Y-10776352D01*
X33400938Y-10776352D01*
X33422428Y-10777045D01*
X33452064Y-10780685D01*
X33478580Y-10787444D01*
X33501976Y-10797322D01*
X33522253Y-10810320D01*
X33539411Y-10826438D01*
X33553449Y-10845675D01*
X33564367Y-10868032D01*
X33572166Y-10893508D01*
X33576845Y-10922103D01*
X33578232Y-10942900D01*
X33578405Y-10953819D01*
X33578405Y-11899112D01*
X33577428Y-11919741D01*
X33573677Y-11942678D01*
X33567114Y-11963631D01*
X33557737Y-11982600D01*
X33545548Y-11999587D01*
X33538398Y-12007336D01*
X33522620Y-12020758D01*
X33502252Y-12032907D01*
X33483114Y-12040312D01*
X33462426Y-12044940D01*
X33440186Y-12046791D01*
X33436329Y-12046830D01*
X33412641Y-12046776D01*
X33388123Y-12046614D01*
X33367058Y-12046396D01*
X33345418Y-12046103D01*
X33323201Y-12045734D01*
X33300408Y-12045291D01*
X33277189Y-12044785D01*
X33253695Y-12044229D01*
X33229925Y-12043623D01*
X33205880Y-12042967D01*
X33181559Y-12042261D01*
X33156963Y-12041504D01*
X33147048Y-12041188D01*
X33122018Y-12040226D01*
X33096939Y-12039265D01*
X33071809Y-12038303D01*
X33046629Y-12037341D01*
X33021400Y-12036379D01*
X32996120Y-12035418D01*
X32985994Y-12035033D01*
X32964989Y-12034175D01*
X32942493Y-12033142D01*
X32918506Y-12031931D01*
X32893029Y-12030545D01*
X32866061Y-12028982D01*
X32844857Y-12027694D01*
X32822814Y-12026308D01*
X32799933Y-12024821D01*
X32776214Y-12023236D01*
X32751520Y-12021574D01*
X32725718Y-12019858D01*
X32698807Y-12018088D01*
X32670787Y-12016264D01*
X32641657Y-12014385D01*
X32611419Y-12012453D01*
X32590644Y-12011135D01*
X32569377Y-12009792D01*
X32547616Y-12008426D01*
X32525363Y-12007035D01*
X32502616Y-12005621D01*
X32479377Y-12004182D01*
X32455645Y-12002720D01*
X32455645Y-12401251D01*
G37*
G36*
X30899476Y-10362946D02*
G01*
X30368101Y-10362946D01*
X30368101Y-11869876D01*
X30368650Y-11907940D01*
X30370297Y-11944681D01*
X30373042Y-11980100D01*
X30376885Y-12014196D01*
X30381826Y-12046970D01*
X30387864Y-12078422D01*
X30395001Y-12108551D01*
X30403236Y-12137359D01*
X30412568Y-12164843D01*
X30422999Y-12191006D01*
X30434527Y-12215846D01*
X30447154Y-12239364D01*
X30460878Y-12261559D01*
X30475700Y-12282432D01*
X30491620Y-12301983D01*
X30508639Y-12320211D01*
X30526807Y-12337229D01*
X30546305Y-12353149D01*
X30567134Y-12367972D01*
X30589294Y-12381696D01*
X30612783Y-12394322D01*
X30637603Y-12405851D01*
X30663754Y-12416281D01*
X30691235Y-12425614D01*
X30720046Y-12433849D01*
X30750187Y-12440985D01*
X30781659Y-12447024D01*
X30814461Y-12451965D01*
X30848594Y-12455808D01*
X30884057Y-12458552D01*
X30920850Y-12460199D01*
X30958974Y-12460748D01*
X31638066Y-12460748D01*
X31676192Y-12460199D01*
X31712991Y-12458552D01*
X31748464Y-12455808D01*
X31782611Y-12451965D01*
X31815431Y-12447024D01*
X31846925Y-12440985D01*
X31877093Y-12433849D01*
X31905934Y-12425614D01*
X31933448Y-12416281D01*
X31959637Y-12405851D01*
X31984499Y-12394322D01*
X32008035Y-12381696D01*
X32030244Y-12367972D01*
X32051127Y-12353149D01*
X32070684Y-12337229D01*
X32088914Y-12320211D01*
X32105870Y-12301983D01*
X32121733Y-12282432D01*
X32136501Y-12261559D01*
X32150175Y-12239364D01*
X32162755Y-12215846D01*
X32174242Y-12191006D01*
X32184634Y-12164843D01*
X32193933Y-12137359D01*
X32202137Y-12108551D01*
X32209248Y-12078422D01*
X32215264Y-12046970D01*
X32220187Y-12014196D01*
X32224016Y-11980100D01*
X32226751Y-11944681D01*
X32228392Y-11907940D01*
X32228939Y-11869876D01*
X32228939Y-10362946D01*
X31697564Y-10362946D01*
X31697564Y-11869876D01*
X31696871Y-11891304D01*
X31693231Y-11920854D01*
X31686472Y-11947293D01*
X31676594Y-11970622D01*
X31663596Y-11990841D01*
X31647478Y-12007948D01*
X31628241Y-12021946D01*
X31605884Y-12032833D01*
X31580408Y-12040609D01*
X31551812Y-12045275D01*
X31531016Y-12046657D01*
X31520097Y-12046830D01*
X31076943Y-12046830D01*
X31055453Y-12046139D01*
X31025817Y-12042510D01*
X30999301Y-12035770D01*
X30975905Y-12025920D01*
X30955628Y-12012960D01*
X30938470Y-11996889D01*
X30924432Y-11977707D01*
X30913514Y-11955415D01*
X30905715Y-11930013D01*
X30901036Y-11901500D01*
X30899649Y-11880763D01*
X30899476Y-11869876D01*
X30899476Y-10362946D01*
G37*
G36*
X30114211Y-11603676D02*
G01*
X30114211Y-11190270D01*
X28903230Y-11190270D01*
X28903230Y-11603676D01*
X30114211Y-11603676D01*
G37*
G36*
X26872107Y-12386889D02*
G01*
X26915210Y-12391433D01*
X26958093Y-12395833D01*
X27000758Y-12400089D01*
X27043202Y-12404200D01*
X27085428Y-12408167D01*
X27127434Y-12411990D01*
X27169221Y-12415668D01*
X27210788Y-12419203D01*
X27252136Y-12422593D01*
X27293264Y-12425838D01*
X27334173Y-12428940D01*
X27374863Y-12431897D01*
X27415333Y-12434710D01*
X27455584Y-12437379D01*
X27495616Y-12439903D01*
X27535428Y-12442284D01*
X27575020Y-12444519D01*
X27614394Y-12446611D01*
X27653548Y-12448559D01*
X27692482Y-12450362D01*
X27731198Y-12452021D01*
X27769693Y-12453535D01*
X27807970Y-12454906D01*
X27846027Y-12456132D01*
X27883864Y-12457214D01*
X27921483Y-12458152D01*
X27958882Y-12458945D01*
X27996061Y-12459594D01*
X28033021Y-12460099D01*
X28069762Y-12460460D01*
X28106283Y-12460676D01*
X28142585Y-12460748D01*
X28178208Y-12460217D01*
X28212629Y-12458625D01*
X28245848Y-12455970D01*
X28277865Y-12452253D01*
X28308680Y-12447475D01*
X28338292Y-12441634D01*
X28366703Y-12434732D01*
X28393911Y-12426768D01*
X28419917Y-12417742D01*
X28444721Y-12407654D01*
X28468323Y-12396504D01*
X28490723Y-12384293D01*
X28511920Y-12371019D01*
X28531916Y-12356684D01*
X28550709Y-12341286D01*
X28568300Y-12324827D01*
X28584759Y-12307236D01*
X28600157Y-12288443D01*
X28614492Y-12268447D01*
X28627766Y-12247250D01*
X28639977Y-12224850D01*
X28651127Y-12201248D01*
X28661215Y-12176444D01*
X28670241Y-12150438D01*
X28678205Y-12123229D01*
X28685107Y-12094819D01*
X28690948Y-12065207D01*
X28695726Y-12034392D01*
X28699443Y-12002375D01*
X28702098Y-11969156D01*
X28703690Y-11934735D01*
X28704221Y-11899112D01*
X28704221Y-10953819D01*
X28703672Y-10915695D01*
X28702025Y-10878902D01*
X28699281Y-10843439D01*
X28695438Y-10809306D01*
X28690497Y-10776504D01*
X28684458Y-10745032D01*
X28677322Y-10714891D01*
X28669087Y-10686080D01*
X28659754Y-10658599D01*
X28649324Y-10632449D01*
X28637796Y-10607629D01*
X28625169Y-10584139D01*
X28611445Y-10561980D01*
X28596622Y-10541151D01*
X28580702Y-10521652D01*
X28563684Y-10503484D01*
X28545456Y-10486466D01*
X28525905Y-10470545D01*
X28505032Y-10455723D01*
X28482837Y-10441999D01*
X28459319Y-10429372D01*
X28434479Y-10417844D01*
X28408316Y-10407413D01*
X28380832Y-10398081D01*
X28352025Y-10389846D01*
X28321895Y-10382710D01*
X28290443Y-10376671D01*
X28257669Y-10371730D01*
X28223573Y-10367887D01*
X28188154Y-10365142D01*
X28151413Y-10363495D01*
X28113349Y-10362946D01*
X27049574Y-10362946D01*
X27049574Y-10776352D01*
X27994867Y-10776352D01*
X28016357Y-10777045D01*
X28045993Y-10780685D01*
X28072509Y-10787444D01*
X28095905Y-10797322D01*
X28116182Y-10810320D01*
X28133340Y-10826438D01*
X28147377Y-10845675D01*
X28158296Y-10868032D01*
X28166095Y-10893508D01*
X28170774Y-10922103D01*
X28172160Y-10942900D01*
X28172334Y-10953819D01*
X28172334Y-11899112D01*
X28171357Y-11919741D01*
X28167606Y-11942678D01*
X28161043Y-11963631D01*
X28151666Y-11982600D01*
X28139476Y-11999587D01*
X28132327Y-12007336D01*
X28116350Y-12020758D01*
X28098427Y-12031403D01*
X28078555Y-12039271D01*
X28056737Y-12044362D01*
X28032970Y-12046676D01*
X28024616Y-12046830D01*
X28003420Y-12046815D01*
X27982341Y-12046772D01*
X27961377Y-12046699D01*
X27940530Y-12046598D01*
X27919800Y-12046467D01*
X27899185Y-12046307D01*
X27858305Y-12045900D01*
X27817889Y-12045377D01*
X27777938Y-12044738D01*
X27738452Y-12043983D01*
X27699431Y-12043111D01*
X27660874Y-12042124D01*
X27622783Y-12041020D01*
X27585156Y-12039799D01*
X27547994Y-12038463D01*
X27511297Y-12037011D01*
X27475065Y-12035442D01*
X27439297Y-12033757D01*
X27403995Y-12031956D01*
X27403995Y-11603676D01*
X27788164Y-11603676D01*
X27788164Y-11249255D01*
X26872107Y-11249255D01*
X26872107Y-12386889D01*
G37*
G36*
X26586929Y-12431000D02*
G01*
X25434933Y-12431000D01*
X25393824Y-12430324D01*
X25353974Y-12428299D01*
X25315381Y-12424923D01*
X25278047Y-12420196D01*
X25241971Y-12414120D01*
X25207153Y-12406692D01*
X25173593Y-12397915D01*
X25141292Y-12387787D01*
X25110249Y-12376308D01*
X25080464Y-12363480D01*
X25051938Y-12349301D01*
X25024669Y-12333771D01*
X24998659Y-12316891D01*
X24973907Y-12298661D01*
X24950414Y-12279080D01*
X24928178Y-12258149D01*
X24917544Y-12247188D01*
X24897288Y-12224324D01*
X24878382Y-12200201D01*
X24860827Y-12174820D01*
X24844622Y-12148181D01*
X24829768Y-12120283D01*
X24816264Y-12091128D01*
X24804110Y-12060714D01*
X24793307Y-12029041D01*
X24783855Y-11996111D01*
X24775752Y-11961922D01*
X24769000Y-11926475D01*
X24763599Y-11889770D01*
X24759547Y-11851807D01*
X24756847Y-11812585D01*
X24755496Y-11772106D01*
X24755327Y-11751394D01*
X25287215Y-11751394D01*
X25288253Y-11783629D01*
X25291366Y-11813784D01*
X25296556Y-11841860D01*
X25303821Y-11867856D01*
X25313161Y-11891773D01*
X25324577Y-11913610D01*
X25338069Y-11933367D01*
X25353637Y-11951044D01*
X25371280Y-11966642D01*
X25390999Y-11980160D01*
X25412794Y-11991598D01*
X25436664Y-12000957D01*
X25462610Y-12008235D01*
X25490632Y-12013435D01*
X25520729Y-12016554D01*
X25552902Y-12017594D01*
X26055554Y-12017594D01*
X26055554Y-10776352D01*
X25552902Y-10776352D01*
X25520729Y-10777392D01*
X25490632Y-10780511D01*
X25462610Y-10785711D01*
X25436664Y-10792989D01*
X25412794Y-10802348D01*
X25390999Y-10813786D01*
X25371280Y-10827304D01*
X25353637Y-10842902D01*
X25338069Y-10860579D01*
X25324577Y-10880336D01*
X25313161Y-10902173D01*
X25303821Y-10926090D01*
X25296556Y-10952086D01*
X25291366Y-10980161D01*
X25288253Y-11010317D01*
X25287215Y-11042552D01*
X25287215Y-11751394D01*
X24755327Y-11751394D01*
X24755327Y-11042552D01*
X24756003Y-11001443D01*
X24758028Y-10961593D01*
X24761404Y-10923000D01*
X24766131Y-10885666D01*
X24772207Y-10849590D01*
X24779635Y-10814772D01*
X24788412Y-10781213D01*
X24798540Y-10748911D01*
X24810018Y-10717868D01*
X24822847Y-10688083D01*
X24837026Y-10659557D01*
X24852556Y-10632288D01*
X24869436Y-10606278D01*
X24887666Y-10581526D01*
X24907247Y-10558033D01*
X24928178Y-10535797D01*
X24939139Y-10525163D01*
X24962003Y-10504907D01*
X24986126Y-10486001D01*
X25011507Y-10468446D01*
X25038146Y-10452241D01*
X25066044Y-10437387D01*
X25095199Y-10423883D01*
X25125613Y-10411730D01*
X25157286Y-10400926D01*
X25190216Y-10391474D01*
X25224405Y-10383371D01*
X25259852Y-10376619D01*
X25296557Y-10371218D01*
X25334520Y-10367166D01*
X25373742Y-10364466D01*
X25414221Y-10363115D01*
X25434933Y-10362946D01*
X26586929Y-10362946D01*
X26586929Y-12431000D01*
G37*
G36*
X23497159Y-12460748D02*
G01*
X23528102Y-12460690D01*
X23559251Y-12460516D01*
X23590609Y-12460225D01*
X23622173Y-12459819D01*
X23653945Y-12459296D01*
X23685924Y-12458657D01*
X23718111Y-12457901D01*
X23750505Y-12457030D01*
X23783106Y-12456042D01*
X23815915Y-12454938D01*
X23848931Y-12453718D01*
X23882154Y-12452381D01*
X23915585Y-12450929D01*
X23949223Y-12449360D01*
X23983069Y-12447675D01*
X24017122Y-12445874D01*
X24051382Y-12443956D01*
X24085850Y-12441923D01*
X24120525Y-12439773D01*
X24155407Y-12437507D01*
X24190497Y-12435125D01*
X24225794Y-12432626D01*
X24261298Y-12430012D01*
X24297010Y-12427281D01*
X24332930Y-12424434D01*
X24369056Y-12421471D01*
X24405390Y-12418391D01*
X24441931Y-12415195D01*
X24478680Y-12411884D01*
X24515636Y-12408456D01*
X24552800Y-12404911D01*
X24590170Y-12401251D01*
X24590170Y-12002720D01*
X24549685Y-12005433D01*
X24509846Y-12008061D01*
X24470653Y-12010603D01*
X24432106Y-12013058D01*
X24394205Y-12015427D01*
X24356951Y-12017710D01*
X24320342Y-12019907D01*
X24284380Y-12022018D01*
X24249064Y-12024042D01*
X24214394Y-12025981D01*
X24180370Y-12027833D01*
X24146992Y-12029599D01*
X24114261Y-12031279D01*
X24082175Y-12032873D01*
X24050736Y-12034381D01*
X24019943Y-12035802D01*
X23989796Y-12037138D01*
X23960295Y-12038387D01*
X23931440Y-12039550D01*
X23903232Y-12040627D01*
X23875669Y-12041618D01*
X23848753Y-12042522D01*
X23822483Y-12043341D01*
X23796859Y-12044073D01*
X23771881Y-12044719D01*
X23747549Y-12045279D01*
X23723864Y-12045753D01*
X23700825Y-12046141D01*
X23678431Y-12046442D01*
X23656684Y-12046658D01*
X23635583Y-12046787D01*
X23615129Y-12046830D01*
X23590713Y-12045441D01*
X23568245Y-12041276D01*
X23547725Y-12034334D01*
X23529152Y-12024615D01*
X23512527Y-12012118D01*
X23507417Y-12007336D01*
X23493821Y-11991341D01*
X23483038Y-11973364D01*
X23475068Y-11953402D01*
X23469911Y-11931457D01*
X23467567Y-11907529D01*
X23467410Y-11899112D01*
X23467410Y-11781143D01*
X23468104Y-11759652D01*
X23471743Y-11730017D01*
X23478502Y-11703501D01*
X23488381Y-11680104D01*
X23501379Y-11659827D01*
X23517496Y-11642670D01*
X23536733Y-11628632D01*
X23559090Y-11617714D01*
X23584566Y-11609915D01*
X23613162Y-11605235D01*
X23633959Y-11603849D01*
X23644877Y-11603676D01*
X24264985Y-11603676D01*
X24264985Y-11190270D01*
X23703862Y-11190270D01*
X23682372Y-11189577D01*
X23652736Y-11185938D01*
X23626220Y-11179179D01*
X23602824Y-11169300D01*
X23582547Y-11156302D01*
X23565389Y-11140184D01*
X23551351Y-11120947D01*
X23540433Y-11098591D01*
X23532634Y-11073114D01*
X23527955Y-11044519D01*
X23526568Y-11023722D01*
X23526395Y-11012803D01*
X23526395Y-10953819D01*
X23527088Y-10932329D01*
X23530728Y-10902693D01*
X23537487Y-10876177D01*
X23547365Y-10852781D01*
X23560363Y-10832504D01*
X23576481Y-10815346D01*
X23595718Y-10801308D01*
X23618075Y-10790390D01*
X23643551Y-10782591D01*
X23672147Y-10777912D01*
X23692944Y-10776525D01*
X23703862Y-10776352D01*
X24560422Y-10776352D01*
X24560422Y-10362946D01*
X23556144Y-10362946D01*
X23520521Y-10363461D01*
X23486100Y-10365006D01*
X23452881Y-10367581D01*
X23420864Y-10371185D01*
X23390049Y-10375819D01*
X23360437Y-10381483D01*
X23332026Y-10388177D01*
X23304818Y-10395901D01*
X23278812Y-10404654D01*
X23254008Y-10414438D01*
X23230406Y-10425251D01*
X23208006Y-10437094D01*
X23186809Y-10449967D01*
X23166813Y-10463870D01*
X23148020Y-10478802D01*
X23130429Y-10494764D01*
X23113969Y-10511714D01*
X23098572Y-10529738D01*
X23084237Y-10548836D01*
X23070963Y-10569008D01*
X23058751Y-10590254D01*
X23047602Y-10612573D01*
X23037514Y-10635967D01*
X23028488Y-10660434D01*
X23020524Y-10685976D01*
X23013621Y-10712591D01*
X23007781Y-10740280D01*
X23003003Y-10769043D01*
X22999286Y-10798880D01*
X22996631Y-10829791D01*
X22995038Y-10861775D01*
X22994507Y-10894834D01*
X22994826Y-10916695D01*
X22995782Y-10938039D01*
X22997375Y-10958866D01*
X23000958Y-10989137D01*
X23005976Y-11018245D01*
X23012427Y-11046190D01*
X23020311Y-11072972D01*
X23029629Y-11098591D01*
X23040381Y-11123047D01*
X23052566Y-11146340D01*
X23066185Y-11168470D01*
X23076060Y-11182577D01*
X23091710Y-11202768D01*
X23108271Y-11221796D01*
X23125743Y-11239661D01*
X23144125Y-11256364D01*
X23163418Y-11271903D01*
X23183621Y-11286279D01*
X23204735Y-11299492D01*
X23226760Y-11311541D01*
X23249695Y-11322428D01*
X23273541Y-11332152D01*
X23289944Y-11337988D01*
X23260666Y-11346868D01*
X23232586Y-11357222D01*
X23205704Y-11369051D01*
X23180021Y-11382355D01*
X23155535Y-11397133D01*
X23132248Y-11413386D01*
X23110159Y-11431114D01*
X23089268Y-11450316D01*
X23069575Y-11470992D01*
X23051080Y-11493144D01*
X23033783Y-11516770D01*
X23017685Y-11541870D01*
X23002784Y-11568445D01*
X22989082Y-11596495D01*
X22976578Y-11626019D01*
X22965272Y-11657018D01*
X22958299Y-11680316D01*
X22952257Y-11704559D01*
X22947143Y-11729747D01*
X22942960Y-11755882D01*
X22939706Y-11782962D01*
X22937876Y-11803892D01*
X22936569Y-11825355D01*
X22935784Y-11847350D01*
X22935523Y-11869876D01*
X22935523Y-11899112D01*
X22936054Y-11934735D01*
X22937647Y-11969156D01*
X22940301Y-12002375D01*
X22944018Y-12034392D01*
X22948796Y-12065207D01*
X22954637Y-12094819D01*
X22961539Y-12123229D01*
X22969503Y-12150438D01*
X22978529Y-12176444D01*
X22988617Y-12201248D01*
X22999767Y-12224850D01*
X23011978Y-12247250D01*
X23025252Y-12268447D01*
X23039587Y-12288443D01*
X23054985Y-12307236D01*
X23071444Y-12324827D01*
X23089035Y-12341286D01*
X23107829Y-12356684D01*
X23127824Y-12371019D01*
X23149022Y-12384293D01*
X23171421Y-12396504D01*
X23195023Y-12407654D01*
X23219827Y-12417742D01*
X23245833Y-12426768D01*
X23273042Y-12434732D01*
X23301452Y-12441634D01*
X23331065Y-12447475D01*
X23361879Y-12452253D01*
X23393896Y-12455970D01*
X23427115Y-12458625D01*
X23461536Y-12460217D01*
X23497159Y-12460748D01*
G37*
G36*
X21201374Y-11012803D02*
G01*
X21202206Y-11043953D01*
X21204700Y-11074569D01*
X21208857Y-11104652D01*
X21214678Y-11134203D01*
X21222161Y-11163220D01*
X21231307Y-11191705D01*
X21242116Y-11219656D01*
X21254589Y-11247075D01*
X21268724Y-11273961D01*
X21284522Y-11300313D01*
X21301983Y-11326133D01*
X21321107Y-11351420D01*
X21341893Y-11376174D01*
X21364343Y-11400395D01*
X21388456Y-11424083D01*
X21414232Y-11447238D01*
X21430701Y-11461223D01*
X21447539Y-11475224D01*
X21464745Y-11489241D01*
X21482321Y-11503274D01*
X21500264Y-11517323D01*
X21518577Y-11531387D01*
X21537258Y-11545468D01*
X21556308Y-11559565D01*
X22191290Y-12017594D01*
X21201374Y-12017594D01*
X21201374Y-12431000D01*
X22797037Y-12431000D01*
X22797037Y-11869876D01*
X21733262Y-11101537D01*
X21733262Y-10953819D01*
X21733955Y-10932329D01*
X21737595Y-10902693D01*
X21744354Y-10876177D01*
X21754232Y-10852781D01*
X21767230Y-10832504D01*
X21783348Y-10815346D01*
X21802585Y-10801308D01*
X21824941Y-10790390D01*
X21850418Y-10782591D01*
X21879013Y-10777912D01*
X21899810Y-10776525D01*
X21910729Y-10776352D01*
X22738052Y-10776352D01*
X22738052Y-10362946D01*
X21792246Y-10362946D01*
X21754183Y-10363495D01*
X21717442Y-10365142D01*
X21682023Y-10367887D01*
X21647926Y-10371730D01*
X21615152Y-10376671D01*
X21583700Y-10382710D01*
X21553571Y-10389846D01*
X21524764Y-10398081D01*
X21497279Y-10407413D01*
X21471117Y-10417844D01*
X21446277Y-10429372D01*
X21422759Y-10441999D01*
X21400564Y-10455723D01*
X21379691Y-10470545D01*
X21360140Y-10486466D01*
X21341912Y-10503484D01*
X21324893Y-10521652D01*
X21308973Y-10541151D01*
X21294151Y-10561980D01*
X21280426Y-10584139D01*
X21267800Y-10607629D01*
X21256272Y-10632449D01*
X21245841Y-10658599D01*
X21236509Y-10686080D01*
X21228274Y-10714891D01*
X21221137Y-10745032D01*
X21215099Y-10776504D01*
X21210158Y-10809306D01*
X21206315Y-10843439D01*
X21203570Y-10878902D01*
X21201923Y-10915695D01*
X21201374Y-10953819D01*
X21201374Y-11012803D01*
G37*
G36*
X20413544Y-12431000D02*
G01*
X20944919Y-12431000D01*
X20944919Y-10362946D01*
X19305659Y-10362946D01*
X19305659Y-10776352D01*
X20413544Y-10776352D01*
X20413544Y-11264129D01*
X19541597Y-11264129D01*
X19541597Y-11677535D01*
X20413544Y-11677535D01*
X20413544Y-12431000D01*
G37*
G36*
X18134173Y-12460748D02*
G01*
X18165115Y-12460690D01*
X18196265Y-12460516D01*
X18227622Y-12460225D01*
X18259186Y-12459819D01*
X18290958Y-12459296D01*
X18322937Y-12458657D01*
X18355124Y-12457901D01*
X18387518Y-12457030D01*
X18420119Y-12456042D01*
X18452928Y-12454938D01*
X18485944Y-12453718D01*
X18519168Y-12452381D01*
X18552598Y-12450929D01*
X18586237Y-12449360D01*
X18620082Y-12447675D01*
X18654135Y-12445874D01*
X18688395Y-12443956D01*
X18722863Y-12441923D01*
X18757538Y-12439773D01*
X18792420Y-12437507D01*
X18827510Y-12435125D01*
X18862807Y-12432626D01*
X18898312Y-12430012D01*
X18934024Y-12427281D01*
X18969943Y-12424434D01*
X19006069Y-12421471D01*
X19042403Y-12418391D01*
X19078945Y-12415195D01*
X19115693Y-12411884D01*
X19152649Y-12408456D01*
X19189813Y-12404911D01*
X19227184Y-12401251D01*
X19227184Y-12002720D01*
X19186698Y-12005433D01*
X19146859Y-12008061D01*
X19107666Y-12010603D01*
X19069119Y-12013058D01*
X19031219Y-12015427D01*
X18993964Y-12017710D01*
X18957355Y-12019907D01*
X18921393Y-12022018D01*
X18886077Y-12024042D01*
X18851407Y-12025981D01*
X18817383Y-12027833D01*
X18784005Y-12029599D01*
X18751274Y-12031279D01*
X18719188Y-12032873D01*
X18687749Y-12034381D01*
X18656956Y-12035802D01*
X18626809Y-12037138D01*
X18597308Y-12038387D01*
X18568453Y-12039550D01*
X18540245Y-12040627D01*
X18512683Y-12041618D01*
X18485766Y-12042522D01*
X18459496Y-12043341D01*
X18433872Y-12044073D01*
X18408894Y-12044719D01*
X18384563Y-12045279D01*
X18360877Y-12045753D01*
X18337838Y-12046141D01*
X18315445Y-12046442D01*
X18293698Y-12046658D01*
X18272597Y-12046787D01*
X18252142Y-12046830D01*
X18227726Y-12045441D01*
X18205259Y-12041276D01*
X18184738Y-12034334D01*
X18166165Y-12024615D01*
X18149540Y-12012118D01*
X18144431Y-12007336D01*
X18130835Y-11991341D01*
X18120051Y-11973364D01*
X18112081Y-11953402D01*
X18106924Y-11931457D01*
X18104580Y-11907529D01*
X18104424Y-11899112D01*
X18104424Y-11781143D01*
X18105117Y-11759652D01*
X18108756Y-11730017D01*
X18115515Y-11703501D01*
X18125394Y-11680104D01*
X18138392Y-11659827D01*
X18154510Y-11642670D01*
X18173747Y-11628632D01*
X18196103Y-11617714D01*
X18221580Y-11609915D01*
X18250175Y-11605235D01*
X18270972Y-11603849D01*
X18281891Y-11603676D01*
X18901999Y-11603676D01*
X18901999Y-11190270D01*
X18340875Y-11190270D01*
X18319385Y-11189577D01*
X18289750Y-11185938D01*
X18263233Y-11179179D01*
X18239837Y-11169300D01*
X18219560Y-11156302D01*
X18202403Y-11140184D01*
X18188365Y-11120947D01*
X18177446Y-11098591D01*
X18169647Y-11073114D01*
X18164968Y-11044519D01*
X18163582Y-11023722D01*
X18163408Y-11012803D01*
X18163408Y-10953819D01*
X18164102Y-10932329D01*
X18167741Y-10902693D01*
X18174500Y-10876177D01*
X18184379Y-10852781D01*
X18197377Y-10832504D01*
X18213494Y-10815346D01*
X18232731Y-10801308D01*
X18255088Y-10790390D01*
X18280564Y-10782591D01*
X18309160Y-10777912D01*
X18329957Y-10776525D01*
X18340875Y-10776352D01*
X19197435Y-10776352D01*
X19197435Y-10362946D01*
X18193157Y-10362946D01*
X18157534Y-10363461D01*
X18123113Y-10365006D01*
X18089894Y-10367581D01*
X18057877Y-10371185D01*
X18027062Y-10375819D01*
X17997450Y-10381483D01*
X17969040Y-10388177D01*
X17941831Y-10395901D01*
X17915825Y-10404654D01*
X17891021Y-10414438D01*
X17867419Y-10425251D01*
X17845020Y-10437094D01*
X17823822Y-10449967D01*
X17803826Y-10463870D01*
X17785033Y-10478802D01*
X17767442Y-10494764D01*
X17750983Y-10511714D01*
X17735585Y-10529738D01*
X17721250Y-10548836D01*
X17707976Y-10569008D01*
X17695765Y-10590254D01*
X17684615Y-10612573D01*
X17674527Y-10635967D01*
X17665501Y-10660434D01*
X17657537Y-10685976D01*
X17650635Y-10712591D01*
X17644794Y-10740280D01*
X17640016Y-10769043D01*
X17636299Y-10798880D01*
X17633644Y-10829791D01*
X17632052Y-10861775D01*
X17631521Y-10894834D01*
X17631839Y-10916695D01*
X17632795Y-10938039D01*
X17634388Y-10958866D01*
X17637972Y-10989137D01*
X17642989Y-11018245D01*
X17649440Y-11046190D01*
X17657325Y-11072972D01*
X17666643Y-11098591D01*
X17677394Y-11123047D01*
X17689579Y-11146340D01*
X17703198Y-11168470D01*
X17713073Y-11182577D01*
X17728724Y-11202768D01*
X17745285Y-11221796D01*
X17762756Y-11239661D01*
X17781138Y-11256364D01*
X17800431Y-11271903D01*
X17820634Y-11286279D01*
X17841748Y-11299492D01*
X17863773Y-11311541D01*
X17886708Y-11322428D01*
X17910554Y-11332152D01*
X17926957Y-11337988D01*
X17897679Y-11346868D01*
X17869599Y-11357222D01*
X17842717Y-11369051D01*
X17817034Y-11382355D01*
X17792548Y-11397133D01*
X17769261Y-11413386D01*
X17747172Y-11431114D01*
X17726281Y-11450316D01*
X17706588Y-11470992D01*
X17688093Y-11493144D01*
X17670796Y-11516770D01*
X17654698Y-11541870D01*
X17639797Y-11568445D01*
X17626095Y-11596495D01*
X17613591Y-11626019D01*
X17602285Y-11657018D01*
X17595312Y-11680316D01*
X17589270Y-11704559D01*
X17584157Y-11729747D01*
X17579973Y-11755882D01*
X17576720Y-11782962D01*
X17574889Y-11803892D01*
X17573582Y-11825355D01*
X17572798Y-11847350D01*
X17572536Y-11869876D01*
X17572536Y-11899112D01*
X17573067Y-11934735D01*
X17574660Y-11969156D01*
X17577315Y-12002375D01*
X17581031Y-12034392D01*
X17585810Y-12065207D01*
X17591650Y-12094819D01*
X17598552Y-12123229D01*
X17606516Y-12150438D01*
X17615542Y-12176444D01*
X17625630Y-12201248D01*
X17636780Y-12224850D01*
X17648992Y-12247250D01*
X17662265Y-12268447D01*
X17676601Y-12288443D01*
X17691998Y-12307236D01*
X17708457Y-12324827D01*
X17726048Y-12341286D01*
X17744842Y-12356684D01*
X17764837Y-12371019D01*
X17786035Y-12384293D01*
X17808435Y-12396504D01*
X17832036Y-12407654D01*
X17856840Y-12417742D01*
X17882847Y-12426768D01*
X17910055Y-12434732D01*
X17938465Y-12441634D01*
X17968078Y-12447475D01*
X17998893Y-12452253D01*
X18030909Y-12455970D01*
X18064128Y-12458625D01*
X18098549Y-12460217D01*
X18134173Y-12460748D01*
G37*
G36*
X16341039Y-12460748D02*
G01*
X16371982Y-12460690D01*
X16403131Y-12460516D01*
X16434489Y-12460225D01*
X16466053Y-12459819D01*
X16497825Y-12459296D01*
X16529804Y-12458657D01*
X16561991Y-12457901D01*
X16594385Y-12457030D01*
X16626986Y-12456042D01*
X16659795Y-12454938D01*
X16692811Y-12453718D01*
X16726034Y-12452381D01*
X16759465Y-12450929D01*
X16793103Y-12449360D01*
X16826949Y-12447675D01*
X16861002Y-12445874D01*
X16895262Y-12443956D01*
X16929730Y-12441923D01*
X16964405Y-12439773D01*
X16999287Y-12437507D01*
X17034377Y-12435125D01*
X17069674Y-12432626D01*
X17105178Y-12430012D01*
X17140890Y-12427281D01*
X17176810Y-12424434D01*
X17212936Y-12421471D01*
X17249270Y-12418391D01*
X17285811Y-12415195D01*
X17322560Y-12411884D01*
X17359516Y-12408456D01*
X17396680Y-12404911D01*
X17434050Y-12401251D01*
X17434050Y-12002720D01*
X17393565Y-12005433D01*
X17353726Y-12008061D01*
X17314533Y-12010603D01*
X17275986Y-12013058D01*
X17238085Y-12015427D01*
X17200831Y-12017710D01*
X17164222Y-12019907D01*
X17128260Y-12022018D01*
X17092944Y-12024042D01*
X17058274Y-12025981D01*
X17024250Y-12027833D01*
X16990872Y-12029599D01*
X16958141Y-12031279D01*
X16926055Y-12032873D01*
X16894616Y-12034381D01*
X16863823Y-12035802D01*
X16833676Y-12037138D01*
X16804175Y-12038387D01*
X16775320Y-12039550D01*
X16747112Y-12040627D01*
X16719549Y-12041618D01*
X16692633Y-12042522D01*
X16666363Y-12043341D01*
X16640739Y-12044073D01*
X16615761Y-12044719D01*
X16591429Y-12045279D01*
X16567744Y-12045753D01*
X16544705Y-12046141D01*
X16522311Y-12046442D01*
X16500564Y-12046658D01*
X16479463Y-12046787D01*
X16459009Y-12046830D01*
X16434593Y-12045441D01*
X16412125Y-12041276D01*
X16391605Y-12034334D01*
X16373032Y-12024615D01*
X16356406Y-12012118D01*
X16351297Y-12007336D01*
X16337701Y-11991341D01*
X16326918Y-11973364D01*
X16318948Y-11953402D01*
X16313791Y-11931457D01*
X16311447Y-11907529D01*
X16311290Y-11899112D01*
X16311290Y-11751394D01*
X16311984Y-11729966D01*
X16315623Y-11700416D01*
X16322382Y-11673976D01*
X16332261Y-11650648D01*
X16345259Y-11630429D01*
X16361376Y-11613321D01*
X16380613Y-11599324D01*
X16402970Y-11588437D01*
X16428446Y-11580661D01*
X16457042Y-11575995D01*
X16477839Y-11574613D01*
X16488757Y-11574440D01*
X17345317Y-11574440D01*
X17345317Y-10362946D01*
X15927121Y-10362946D01*
X15927121Y-10776352D01*
X16813429Y-10776352D01*
X16813429Y-11160521D01*
X16341039Y-11160521D01*
X16305416Y-11161036D01*
X16270995Y-11162581D01*
X16237776Y-11165156D01*
X16205759Y-11168760D01*
X16174945Y-11173394D01*
X16145332Y-11179058D01*
X16116922Y-11185752D01*
X16089713Y-11193476D01*
X16063707Y-11202229D01*
X16038903Y-11212013D01*
X16015301Y-11222826D01*
X15992902Y-11234669D01*
X15971704Y-11247542D01*
X15951708Y-11261445D01*
X15932915Y-11276377D01*
X15915324Y-11292339D01*
X15898865Y-11309289D01*
X15883467Y-11327313D01*
X15869132Y-11346411D01*
X15855858Y-11366583D01*
X15843647Y-11387829D01*
X15832497Y-11410148D01*
X15822409Y-11433542D01*
X15813383Y-11458009D01*
X15805419Y-11483551D01*
X15798517Y-11510166D01*
X15792676Y-11537855D01*
X15787898Y-11566618D01*
X15784181Y-11596455D01*
X15781527Y-11627366D01*
X15779934Y-11659350D01*
X15779403Y-11692409D01*
X15779403Y-11899112D01*
X15779934Y-11934735D01*
X15781527Y-11969156D01*
X15784181Y-12002375D01*
X15787898Y-12034392D01*
X15792676Y-12065207D01*
X15798517Y-12094819D01*
X15805419Y-12123229D01*
X15813383Y-12150438D01*
X15822409Y-12176444D01*
X15832497Y-12201248D01*
X15843647Y-12224850D01*
X15855858Y-12247250D01*
X15869132Y-12268447D01*
X15883467Y-12288443D01*
X15898865Y-12307236D01*
X15915324Y-12324827D01*
X15932915Y-12341286D01*
X15951708Y-12356684D01*
X15971704Y-12371019D01*
X15992902Y-12384293D01*
X16015301Y-12396504D01*
X16038903Y-12407654D01*
X16063707Y-12417742D01*
X16089713Y-12426768D01*
X16116922Y-12434732D01*
X16145332Y-12441634D01*
X16174945Y-12447475D01*
X16205759Y-12452253D01*
X16237776Y-12455970D01*
X16270995Y-12458625D01*
X16305416Y-12460217D01*
X16341039Y-12460748D01*
G37*
G36*
X15059898Y-10333747D02*
G01*
X15096639Y-10335394D01*
X15132058Y-10338138D01*
X15166155Y-10341981D01*
X15198929Y-10346922D01*
X15230381Y-10352961D01*
X15260510Y-10360097D01*
X15289317Y-10368332D01*
X15316802Y-10377665D01*
X15342964Y-10388095D01*
X15367805Y-10399624D01*
X15391322Y-10412250D01*
X15413518Y-10425974D01*
X15434391Y-10440797D01*
X15453941Y-10456717D01*
X15472170Y-10473735D01*
X15489188Y-10491963D01*
X15505108Y-10511514D01*
X15519930Y-10532387D01*
X15533655Y-10554582D01*
X15546281Y-10578100D01*
X15557810Y-10602940D01*
X15568240Y-10629103D01*
X15577573Y-10656587D01*
X15585807Y-10685395D01*
X15592944Y-10715524D01*
X15598983Y-10746976D01*
X15603923Y-10779750D01*
X15607766Y-10813846D01*
X15610511Y-10849265D01*
X15612158Y-10886006D01*
X15612707Y-10924070D01*
X15612707Y-11869876D01*
X15612158Y-11907940D01*
X15610511Y-11944681D01*
X15607766Y-11980100D01*
X15603923Y-12014196D01*
X15598983Y-12046970D01*
X15592944Y-12078422D01*
X15585807Y-12108551D01*
X15577573Y-12137359D01*
X15568240Y-12164843D01*
X15557810Y-12191006D01*
X15546281Y-12215846D01*
X15533655Y-12239364D01*
X15519930Y-12261559D01*
X15505108Y-12282432D01*
X15489188Y-12301983D01*
X15472170Y-12320211D01*
X15453941Y-12337229D01*
X15434391Y-12353149D01*
X15413518Y-12367972D01*
X15391322Y-12381696D01*
X15367805Y-12394322D01*
X15342964Y-12405851D01*
X15316802Y-12416281D01*
X15289317Y-12425614D01*
X15260510Y-12433849D01*
X15230381Y-12440985D01*
X15198929Y-12447024D01*
X15166155Y-12451965D01*
X15132058Y-12455808D01*
X15096639Y-12458552D01*
X15059898Y-12460199D01*
X15021835Y-12460748D01*
X14460198Y-12460748D01*
X14422075Y-12460199D01*
X14385281Y-12458552D01*
X14349818Y-12455808D01*
X14315686Y-12451965D01*
X14282884Y-12447024D01*
X14251412Y-12440985D01*
X14221270Y-12433849D01*
X14192459Y-12425614D01*
X14164979Y-12416281D01*
X14138828Y-12405851D01*
X14114008Y-12394322D01*
X14090518Y-12381696D01*
X14068359Y-12367972D01*
X14047530Y-12353149D01*
X14028032Y-12337229D01*
X14009863Y-12320211D01*
X13992845Y-12301983D01*
X13976925Y-12282432D01*
X13962103Y-12261559D01*
X13948378Y-12239364D01*
X13935752Y-12215846D01*
X13924223Y-12191006D01*
X13913793Y-12164843D01*
X13904460Y-12137359D01*
X13896226Y-12108551D01*
X13889089Y-12078422D01*
X13883050Y-12046970D01*
X13878110Y-12014196D01*
X13874267Y-11980100D01*
X13871522Y-11944681D01*
X13869875Y-11907940D01*
X13869326Y-11869876D01*
X14401214Y-11869876D01*
X14401387Y-11880763D01*
X14402773Y-11901500D01*
X14407453Y-11930013D01*
X14415252Y-11955415D01*
X14426170Y-11977707D01*
X14440208Y-11996889D01*
X14457365Y-12012960D01*
X14477642Y-12025920D01*
X14501039Y-12035770D01*
X14527555Y-12042510D01*
X14557190Y-12046139D01*
X14578681Y-12046830D01*
X14903353Y-12046830D01*
X14914271Y-12046657D01*
X14935068Y-12045275D01*
X14963664Y-12040609D01*
X14989140Y-12032833D01*
X15011496Y-12021946D01*
X15030734Y-12007948D01*
X15046851Y-11990841D01*
X15059849Y-11970622D01*
X15069728Y-11947293D01*
X15076487Y-11920854D01*
X15080126Y-11891304D01*
X15080819Y-11869876D01*
X15080819Y-10924070D01*
X15080646Y-10913183D01*
X15079260Y-10892446D01*
X15074580Y-10863933D01*
X15066781Y-10838531D01*
X15055863Y-10816239D01*
X15041825Y-10797057D01*
X15024668Y-10780986D01*
X15004391Y-10768026D01*
X14980994Y-10758176D01*
X14954478Y-10751436D01*
X14924843Y-10747807D01*
X14903353Y-10747116D01*
X14578681Y-10747116D01*
X14567762Y-10747289D01*
X14546965Y-10748671D01*
X14518370Y-10753337D01*
X14492893Y-10761113D01*
X14470537Y-10772000D01*
X14451300Y-10785998D01*
X14435182Y-10803105D01*
X14422184Y-10823324D01*
X14412305Y-10846653D01*
X14405546Y-10873092D01*
X14401907Y-10902642D01*
X14401214Y-10924070D01*
X14401214Y-11869876D01*
X13869326Y-11869876D01*
X13869326Y-10924070D01*
X13869875Y-10886006D01*
X13871522Y-10849265D01*
X13874267Y-10813846D01*
X13878110Y-10779750D01*
X13883050Y-10746976D01*
X13889089Y-10715524D01*
X13896226Y-10685395D01*
X13904460Y-10656587D01*
X13913793Y-10629103D01*
X13924223Y-10602940D01*
X13935752Y-10578100D01*
X13948378Y-10554582D01*
X13962103Y-10532387D01*
X13976925Y-10511514D01*
X13992845Y-10491963D01*
X14009863Y-10473735D01*
X14028032Y-10456717D01*
X14047530Y-10440797D01*
X14068359Y-10425974D01*
X14090518Y-10412250D01*
X14114008Y-10399624D01*
X14138828Y-10388095D01*
X14164979Y-10377665D01*
X14192459Y-10368332D01*
X14221270Y-10360097D01*
X14251412Y-10352961D01*
X14282884Y-10346922D01*
X14315686Y-10341981D01*
X14349818Y-10338138D01*
X14385281Y-10335394D01*
X14422075Y-10333747D01*
X14460198Y-10333198D01*
X15021835Y-10333198D01*
X15059898Y-10333747D01*
G37*
G36*
X13583635Y-12431000D02*
G01*
X13052260Y-12431000D01*
X13052260Y-11810378D01*
X12638342Y-11810378D01*
X12298796Y-12431000D01*
X11722798Y-12431000D01*
X12092093Y-11781143D01*
X12081095Y-11778264D01*
X12059665Y-11771973D01*
X12038989Y-11764969D01*
X12019065Y-11757251D01*
X11999895Y-11748820D01*
X11981479Y-11739676D01*
X11955266Y-11724622D01*
X11930749Y-11707964D01*
X11907926Y-11689700D01*
X11886799Y-11669832D01*
X11867366Y-11648359D01*
X11849629Y-11625281D01*
X11833586Y-11600598D01*
X11828569Y-11591996D01*
X11814472Y-11564911D01*
X11805871Y-11545787D01*
X11797907Y-11525810D01*
X11790580Y-11504979D01*
X11783890Y-11483294D01*
X11777837Y-11460756D01*
X11772422Y-11437365D01*
X11767643Y-11413120D01*
X11763502Y-11388021D01*
X11759998Y-11362069D01*
X11757131Y-11335264D01*
X11754901Y-11307604D01*
X11753308Y-11279092D01*
X11752352Y-11249726D01*
X11752034Y-11219506D01*
X12283921Y-11219506D01*
X12284095Y-11230425D01*
X12285481Y-11251221D01*
X12290160Y-11279817D01*
X12297959Y-11305293D01*
X12308878Y-11327650D01*
X12322915Y-11346887D01*
X12340073Y-11363005D01*
X12360350Y-11376003D01*
X12383746Y-11385881D01*
X12410262Y-11392640D01*
X12439898Y-11396280D01*
X12461388Y-11396973D01*
X13052260Y-11396973D01*
X13052260Y-10776352D01*
X12461388Y-10776352D01*
X12450470Y-10776525D01*
X12429673Y-10777912D01*
X12401077Y-10782591D01*
X12375601Y-10790390D01*
X12353244Y-10801308D01*
X12334007Y-10815346D01*
X12317890Y-10832504D01*
X12304891Y-10852781D01*
X12295013Y-10876177D01*
X12288254Y-10902693D01*
X12284615Y-10932329D01*
X12283921Y-10953819D01*
X12283921Y-11219506D01*
X11752034Y-11219506D01*
X11752034Y-10953819D01*
X11752583Y-10915695D01*
X11754230Y-10878902D01*
X11756974Y-10843439D01*
X11760817Y-10809306D01*
X11765758Y-10776504D01*
X11771797Y-10745032D01*
X11778933Y-10714891D01*
X11787168Y-10686080D01*
X11796501Y-10658599D01*
X11806931Y-10632449D01*
X11818459Y-10607629D01*
X11831086Y-10584139D01*
X11844810Y-10561980D01*
X11859633Y-10541151D01*
X11875553Y-10521652D01*
X11892571Y-10503484D01*
X11910739Y-10486466D01*
X11930238Y-10470545D01*
X11951067Y-10455723D01*
X11973226Y-10441999D01*
X11996716Y-10429372D01*
X12021536Y-10417844D01*
X12047686Y-10407413D01*
X12075167Y-10398081D01*
X12103978Y-10389846D01*
X12134120Y-10382710D01*
X12165591Y-10376671D01*
X12198394Y-10371730D01*
X12232526Y-10367887D01*
X12267989Y-10365142D01*
X12304782Y-10363495D01*
X12342906Y-10362946D01*
X13583635Y-10362946D01*
X13583635Y-12431000D01*
G37*
G36*
X11468394Y-12431000D02*
G01*
X10198429Y-12431000D01*
X10162806Y-12430469D01*
X10128385Y-12428876D01*
X10095166Y-12426221D01*
X10063149Y-12422504D01*
X10032335Y-12417726D01*
X10002722Y-12411886D01*
X9974312Y-12404983D01*
X9947103Y-12397019D01*
X9921097Y-12387993D01*
X9896293Y-12377905D01*
X9872691Y-12366756D01*
X9850292Y-12354544D01*
X9829094Y-12341270D01*
X9809099Y-12326935D01*
X9790305Y-12311538D01*
X9772714Y-12295078D01*
X9756255Y-12277489D01*
X9740858Y-12258702D01*
X9726522Y-12238716D01*
X9713249Y-12217533D01*
X9701037Y-12195151D01*
X9689887Y-12171571D01*
X9679799Y-12146793D01*
X9670773Y-12120817D01*
X9662809Y-12093643D01*
X9655907Y-12065271D01*
X9650066Y-12035700D01*
X9645288Y-12004932D01*
X9641571Y-11972965D01*
X9638917Y-11939800D01*
X9637324Y-11905437D01*
X9636793Y-11869876D01*
X9637054Y-11847350D01*
X9637312Y-11840127D01*
X10168681Y-11840127D01*
X10168854Y-11851046D01*
X10170240Y-11871842D01*
X10174920Y-11900438D01*
X10182718Y-11925914D01*
X10193637Y-11948271D01*
X10207675Y-11967508D01*
X10224832Y-11983626D01*
X10245109Y-11996624D01*
X10268506Y-12006502D01*
X10295022Y-12013261D01*
X10324657Y-12016901D01*
X10346147Y-12017594D01*
X10937020Y-12017594D01*
X10937020Y-11603676D01*
X10346147Y-11603676D01*
X10335229Y-11603849D01*
X10314432Y-11605235D01*
X10285836Y-11609915D01*
X10260360Y-11617714D01*
X10238004Y-11628632D01*
X10218766Y-11642670D01*
X10202649Y-11659827D01*
X10189651Y-11680104D01*
X10179772Y-11703501D01*
X10173013Y-11730017D01*
X10169374Y-11759652D01*
X10168681Y-11781143D01*
X10168681Y-11840127D01*
X9637312Y-11840127D01*
X9637839Y-11825355D01*
X9639146Y-11803892D01*
X9640976Y-11782962D01*
X9644230Y-11755882D01*
X9648414Y-11729747D01*
X9653527Y-11704559D01*
X9659569Y-11680316D01*
X9666542Y-11657018D01*
X9677848Y-11626019D01*
X9690352Y-11596495D01*
X9704054Y-11568445D01*
X9718955Y-11541870D01*
X9735053Y-11516770D01*
X9752350Y-11493144D01*
X9770845Y-11470992D01*
X9790538Y-11450316D01*
X9811429Y-11431114D01*
X9833518Y-11413386D01*
X9856805Y-11397133D01*
X9881291Y-11382355D01*
X9906974Y-11369051D01*
X9933856Y-11357222D01*
X9961936Y-11346868D01*
X9991214Y-11337988D01*
X9977373Y-11332152D01*
X9957123Y-11322428D01*
X9937486Y-11311541D01*
X9918463Y-11299492D01*
X9900052Y-11286279D01*
X9882254Y-11271903D01*
X9865070Y-11256364D01*
X9848498Y-11239661D01*
X9832540Y-11221796D01*
X9817195Y-11202768D01*
X9802463Y-11182577D01*
X9793146Y-11168470D01*
X9780298Y-11146340D01*
X9768803Y-11123047D01*
X9758660Y-11098591D01*
X9749869Y-11072972D01*
X9742431Y-11046190D01*
X9736346Y-11018245D01*
X9735461Y-11012803D01*
X10257414Y-11012803D01*
X10257587Y-11023722D01*
X10258969Y-11044519D01*
X10263635Y-11073114D01*
X10271411Y-11098591D01*
X10282298Y-11120947D01*
X10296295Y-11140184D01*
X10313403Y-11156302D01*
X10333622Y-11169300D01*
X10356951Y-11179179D01*
X10383390Y-11185938D01*
X10412940Y-11189577D01*
X10434368Y-11190270D01*
X10937020Y-11190270D01*
X10937020Y-10776352D01*
X10434368Y-10776352D01*
X10423481Y-10776525D01*
X10402744Y-10777912D01*
X10374231Y-10782591D01*
X10348829Y-10790390D01*
X10326537Y-10801308D01*
X10307355Y-10815346D01*
X10291284Y-10832504D01*
X10278324Y-10852781D01*
X10268474Y-10876177D01*
X10261734Y-10902693D01*
X10258105Y-10932329D01*
X10257414Y-10953819D01*
X10257414Y-11012803D01*
X9735461Y-11012803D01*
X9731612Y-10989137D01*
X9728231Y-10958866D01*
X9726728Y-10938039D01*
X9725827Y-10916695D01*
X9725526Y-10894834D01*
X9726057Y-10861775D01*
X9727650Y-10829791D01*
X9730305Y-10798880D01*
X9734021Y-10769043D01*
X9738800Y-10740280D01*
X9744640Y-10712591D01*
X9751542Y-10685976D01*
X9759507Y-10660434D01*
X9768533Y-10635967D01*
X9778621Y-10612573D01*
X9789770Y-10590254D01*
X9801982Y-10569008D01*
X9815256Y-10548836D01*
X9829591Y-10529738D01*
X9844988Y-10511714D01*
X9861447Y-10494764D01*
X9879037Y-10478802D01*
X9897824Y-10463870D01*
X9917809Y-10449967D01*
X9938993Y-10437094D01*
X9961375Y-10425251D01*
X9984955Y-10414438D01*
X10009733Y-10404654D01*
X10035709Y-10395901D01*
X10062883Y-10388177D01*
X10091255Y-10381483D01*
X10120826Y-10375819D01*
X10151594Y-10371185D01*
X10183561Y-10367581D01*
X10216726Y-10365006D01*
X10251089Y-10363461D01*
X10286650Y-10362946D01*
X11468394Y-10362946D01*
X11468394Y-12431000D01*
G37*
G36*
X8437096Y-12431000D02*
G01*
X8968984Y-12431000D01*
X8968984Y-10776352D01*
X9589092Y-10776352D01*
X9589092Y-10362946D01*
X7816475Y-10362946D01*
X7816475Y-10776352D01*
X8437096Y-10776352D01*
X8437096Y-12431000D01*
G37*
G36*
X7153002Y-10333729D02*
G01*
X7187423Y-10335321D01*
X7220642Y-10337976D01*
X7252659Y-10341693D01*
X7283474Y-10346471D01*
X7313086Y-10352312D01*
X7341497Y-10359214D01*
X7368705Y-10367178D01*
X7394711Y-10376204D01*
X7419515Y-10386292D01*
X7443117Y-10397442D01*
X7465517Y-10409653D01*
X7486714Y-10422927D01*
X7506710Y-10437262D01*
X7525503Y-10452660D01*
X7543094Y-10469119D01*
X7559554Y-10486710D01*
X7574951Y-10505503D01*
X7589286Y-10525499D01*
X7602560Y-10546696D01*
X7614772Y-10569096D01*
X7625921Y-10592698D01*
X7636009Y-10617502D01*
X7645035Y-10643508D01*
X7652999Y-10670716D01*
X7659902Y-10699127D01*
X7665742Y-10728739D01*
X7670520Y-10759554D01*
X7674237Y-10791571D01*
X7676892Y-10824790D01*
X7678485Y-10859211D01*
X7679015Y-10894834D01*
X7679015Y-11928861D01*
X7678485Y-11961921D01*
X7676892Y-11993912D01*
X7674237Y-12024833D01*
X7670520Y-12054684D01*
X7665742Y-12083465D01*
X7659902Y-12111176D01*
X7652999Y-12137817D01*
X7645035Y-12163389D01*
X7636009Y-12187890D01*
X7625921Y-12211322D01*
X7614772Y-12233683D01*
X7602560Y-12254975D01*
X7589286Y-12275197D01*
X7574951Y-12294349D01*
X7559554Y-12312431D01*
X7543094Y-12329443D01*
X7525503Y-12345344D01*
X7506710Y-12360218D01*
X7486714Y-12374066D01*
X7465517Y-12386889D01*
X7443117Y-12398686D01*
X7419515Y-12409457D01*
X7394711Y-12419203D01*
X7368705Y-12427922D01*
X7341497Y-12435616D01*
X7313086Y-12442284D01*
X7283474Y-12447926D01*
X7252659Y-12452542D01*
X7220642Y-12456132D01*
X7187423Y-12458697D01*
X7153002Y-12460235D01*
X7117379Y-12460748D01*
X6556256Y-12460748D01*
X6520632Y-12460235D01*
X6486211Y-12458697D01*
X6452992Y-12456132D01*
X6420976Y-12452542D01*
X6390161Y-12447926D01*
X6360548Y-12442284D01*
X6332138Y-12435616D01*
X6304930Y-12427922D01*
X6278924Y-12419203D01*
X6254120Y-12409457D01*
X6230518Y-12398686D01*
X6208118Y-12386889D01*
X6186920Y-12374066D01*
X6166925Y-12360218D01*
X6148131Y-12345344D01*
X6130540Y-12329443D01*
X6114081Y-12312431D01*
X6098684Y-12294349D01*
X6084348Y-12275197D01*
X6071075Y-12254975D01*
X6058863Y-12233683D01*
X6047713Y-12211322D01*
X6037625Y-12187890D01*
X6028599Y-12163389D01*
X6020635Y-12137817D01*
X6013733Y-12111176D01*
X6007893Y-12083465D01*
X6003114Y-12054684D01*
X5999398Y-12024833D01*
X5996743Y-11993912D01*
X5995150Y-11961921D01*
X5994619Y-11928861D01*
X5994619Y-11869876D01*
X6526507Y-11869876D01*
X6526680Y-11880763D01*
X6528067Y-11901500D01*
X6532746Y-11930013D01*
X6540545Y-11955415D01*
X6551463Y-11977707D01*
X6565501Y-11996889D01*
X6582658Y-12012960D01*
X6602935Y-12025920D01*
X6626332Y-12035770D01*
X6652848Y-12042510D01*
X6682483Y-12046139D01*
X6703974Y-12046830D01*
X6969661Y-12046830D01*
X6980579Y-12046657D01*
X7001376Y-12045275D01*
X7029972Y-12040609D01*
X7055448Y-12032833D01*
X7077805Y-12021946D01*
X7097042Y-12007948D01*
X7113160Y-11990841D01*
X7126158Y-11970622D01*
X7136036Y-11947293D01*
X7142795Y-11920854D01*
X7146435Y-11891304D01*
X7147128Y-11869876D01*
X7147128Y-11544691D01*
X7132454Y-11543064D01*
X7108309Y-11540293D01*
X7086232Y-11537681D01*
X7062377Y-11534793D01*
X7042013Y-11532285D01*
X7020511Y-11529600D01*
X6997871Y-11526739D01*
X6992019Y-11526013D01*
X6968248Y-11523341D01*
X6943901Y-11521037D01*
X6918977Y-11519101D01*
X6893476Y-11517534D01*
X6867398Y-11516336D01*
X6840742Y-11515507D01*
X6813510Y-11515046D01*
X6792707Y-11514942D01*
X6630115Y-11514942D01*
X6616546Y-11515669D01*
X6594015Y-11520636D01*
X6573918Y-11530311D01*
X6556256Y-11544691D01*
X6546146Y-11556352D01*
X6534903Y-11575736D01*
X6528366Y-11597393D01*
X6526507Y-11618550D01*
X6526507Y-11869876D01*
X5994619Y-11869876D01*
X5994619Y-11544691D01*
X5995094Y-11519871D01*
X5996518Y-11495676D01*
X5998893Y-11472106D01*
X6002217Y-11449162D01*
X6006490Y-11426842D01*
X6011713Y-11405147D01*
X6017886Y-11384078D01*
X6025009Y-11363634D01*
X6033081Y-11343815D01*
X6042103Y-11324621D01*
X6052075Y-11306052D01*
X6062996Y-11288108D01*
X6074867Y-11270789D01*
X6087688Y-11254095D01*
X6101459Y-11238027D01*
X6116179Y-11222584D01*
X6131620Y-11207926D01*
X6147683Y-11194213D01*
X6164366Y-11181447D01*
X6181671Y-11169626D01*
X6199597Y-11158750D01*
X6218144Y-11148821D01*
X6237312Y-11139837D01*
X6257101Y-11131799D01*
X6277511Y-11124706D01*
X6298542Y-11118559D01*
X6320195Y-11113358D01*
X6342468Y-11109102D01*
X6365363Y-11105792D01*
X6388879Y-11103428D01*
X6413015Y-11102010D01*
X6437773Y-11101537D01*
X6644989Y-11101537D01*
X6672195Y-11101767D01*
X6699959Y-11102458D01*
X6728279Y-11103611D01*
X6757156Y-11105223D01*
X6786590Y-11107297D01*
X6816581Y-11109832D01*
X6847130Y-11112827D01*
X6878235Y-11116283D01*
X6909897Y-11120200D01*
X6942116Y-11124578D01*
X6974892Y-11129416D01*
X7008225Y-11134716D01*
X7042116Y-11140476D01*
X7076563Y-11146697D01*
X7111567Y-11153379D01*
X7147128Y-11160521D01*
X7147128Y-10894834D01*
X7146952Y-10885746D01*
X7144307Y-10860213D01*
X7138489Y-10837276D01*
X7129497Y-10816936D01*
X7117331Y-10799192D01*
X7101992Y-10784046D01*
X7083479Y-10771495D01*
X7061792Y-10761542D01*
X7036932Y-10754185D01*
X7008899Y-10749424D01*
X6988446Y-10747693D01*
X6966584Y-10747116D01*
X6960314Y-10747122D01*
X6934877Y-10747254D01*
X6908863Y-10747562D01*
X6882272Y-10748047D01*
X6855104Y-10748708D01*
X6834349Y-10749320D01*
X6813270Y-10750031D01*
X6791866Y-10750841D01*
X6770137Y-10751750D01*
X6748084Y-10752758D01*
X6739230Y-10753521D01*
X6717043Y-10755377D01*
X6694781Y-10757158D01*
X6672444Y-10758863D01*
X6650032Y-10760494D01*
X6627545Y-10762049D01*
X6604982Y-10763529D01*
X6586253Y-10764611D01*
X6561015Y-10766121D01*
X6539365Y-10767456D01*
X6516416Y-10768902D01*
X6492169Y-10770461D01*
X6466624Y-10772132D01*
X6439780Y-10773915D01*
X6418796Y-10775326D01*
X6404372Y-10776230D01*
X6382023Y-10777608D01*
X6358817Y-10779013D01*
X6334755Y-10780445D01*
X6309836Y-10781904D01*
X6284061Y-10783390D01*
X6257429Y-10784903D01*
X6229941Y-10786443D01*
X6201596Y-10788011D01*
X6172395Y-10789605D01*
X6142337Y-10791226D01*
X6142337Y-10392695D01*
X6177823Y-10389035D01*
X6212985Y-10385490D01*
X6247823Y-10382062D01*
X6282338Y-10378751D01*
X6316529Y-10375555D01*
X6350396Y-10372475D01*
X6383940Y-10369512D01*
X6417161Y-10366665D01*
X6450058Y-10363934D01*
X6482631Y-10361320D01*
X6514881Y-10358821D01*
X6546807Y-10356439D01*
X6578409Y-10354173D01*
X6609688Y-10352023D01*
X6640644Y-10349989D01*
X6671276Y-10348072D01*
X6701584Y-10346271D01*
X6731569Y-10344586D01*
X6761230Y-10343017D01*
X6790567Y-10341565D01*
X6819581Y-10340228D01*
X6848272Y-10339008D01*
X6876638Y-10337904D01*
X6904682Y-10336916D01*
X6932401Y-10336045D01*
X6959797Y-10335289D01*
X6986870Y-10334650D01*
X7013619Y-10334127D01*
X7040044Y-10333721D01*
X7066146Y-10333430D01*
X7091924Y-10333256D01*
X7117379Y-10333198D01*
X7153002Y-10333729D01*
G37*
D11*
G36*
X56019110Y-12395976D02*
G01*
X56056627Y-12404633D01*
X56095406Y-12423572D01*
X56125167Y-12451529D01*
X56145909Y-12488504D01*
X56156009Y-12524578D01*
X56160338Y-12566423D01*
X56160519Y-12577786D01*
X56160519Y-13646984D01*
X56157633Y-13690055D01*
X56148975Y-13727383D01*
X56130036Y-13765967D01*
X56102079Y-13795578D01*
X56065104Y-13816216D01*
X56029031Y-13826266D01*
X55987185Y-13830573D01*
X55975822Y-13830752D01*
X55334489Y-13830752D01*
X55291419Y-13827881D01*
X55254091Y-13819267D01*
X55215506Y-13800423D01*
X55185895Y-13772607D01*
X55165257Y-13735817D01*
X55155207Y-13699925D01*
X55150900Y-13658290D01*
X55150721Y-13646984D01*
X55150721Y-12577786D01*
X55153592Y-12534498D01*
X55162206Y-12496982D01*
X55181050Y-12458203D01*
X55208866Y-12428442D01*
X55245656Y-12407700D01*
X55281548Y-12397599D01*
X55323183Y-12393270D01*
X55334489Y-12393090D01*
X55975822Y-12393090D01*
X56019110Y-12395976D01*
G37*
G36*
X63980060Y-11513927D02*
G01*
X64027019Y-11521586D01*
X64068856Y-11534352D01*
X64105569Y-11552225D01*
X64137160Y-11575204D01*
X64163627Y-11603290D01*
X64184972Y-11636482D01*
X64201195Y-11674781D01*
X64212294Y-11718186D01*
X64218271Y-11766698D01*
X64219409Y-11801876D01*
X64219409Y-13513334D01*
X64216848Y-13565250D01*
X64209163Y-13612060D01*
X64196356Y-13653763D01*
X64178427Y-13690359D01*
X64155374Y-13721849D01*
X64127199Y-13748233D01*
X64093900Y-13769510D01*
X64055479Y-13785680D01*
X64011935Y-13796744D01*
X63963269Y-13802702D01*
X63927978Y-13803837D01*
X63019346Y-13803837D01*
X62967264Y-13801283D01*
X62920305Y-13793624D01*
X62878469Y-13780857D01*
X62841756Y-13762985D01*
X62810165Y-13740006D01*
X62783697Y-13711920D01*
X62762352Y-13678728D01*
X62746130Y-13640429D01*
X62735031Y-13597024D01*
X62729054Y-13548512D01*
X62727916Y-13513334D01*
X62727916Y-11801876D01*
X62730477Y-11749960D01*
X62738161Y-11703150D01*
X62750968Y-11661447D01*
X62768898Y-11624851D01*
X62791951Y-11593361D01*
X62820126Y-11566977D01*
X62853424Y-11545700D01*
X62891845Y-11529530D01*
X62935389Y-11518466D01*
X62984056Y-11512508D01*
X63019346Y-11511373D01*
X63927978Y-11511373D01*
X63980060Y-11513927D01*
G37*
G36*
X76943878Y-15155089D02*
G01*
X48686440Y-15155089D01*
X48686440Y-14558401D01*
X49229297Y-14558401D01*
X50224245Y-14558401D01*
X50224245Y-12603774D01*
X50228686Y-12563694D01*
X50242010Y-12528146D01*
X50264216Y-12497130D01*
X50269723Y-12491471D01*
X50299833Y-12467978D01*
X50334474Y-12453186D01*
X50373647Y-12447095D01*
X50382026Y-12446921D01*
X50408941Y-12446921D01*
X50454296Y-12447794D01*
X50501609Y-12450412D01*
X50550879Y-12454777D01*
X50602107Y-12460886D01*
X50655293Y-12468742D01*
X50710436Y-12478343D01*
X50748286Y-12485714D01*
X50787006Y-12493860D01*
X50826597Y-12502782D01*
X50867057Y-12512481D01*
X50908388Y-12522955D01*
X50950588Y-12534205D01*
X50993659Y-12546230D01*
X50993659Y-14558401D01*
X51988606Y-14558401D01*
X51988606Y-12603774D01*
X51992957Y-12563694D01*
X52006009Y-12528146D01*
X52027762Y-12497130D01*
X52033156Y-12491471D01*
X52063357Y-12467978D01*
X52098270Y-12453186D01*
X52137896Y-12447095D01*
X52146387Y-12446921D01*
X52173303Y-12446921D01*
X52218658Y-12447794D01*
X52265970Y-12450412D01*
X52315240Y-12454777D01*
X52366468Y-12460886D01*
X52419654Y-12468742D01*
X52474798Y-12478343D01*
X52512648Y-12485714D01*
X52551368Y-12493860D01*
X52590958Y-12502782D01*
X52631419Y-12512481D01*
X52672749Y-12522955D01*
X52714950Y-12534205D01*
X52758020Y-12546230D01*
X52758020Y-14558401D01*
X53752968Y-14558401D01*
X53752968Y-13726802D01*
X54155773Y-13726802D01*
X54156694Y-13777740D01*
X54159457Y-13827301D01*
X54164061Y-13875483D01*
X54170507Y-13922288D01*
X54178795Y-13967716D01*
X54188925Y-14011765D01*
X54200896Y-14054437D01*
X54214709Y-14095731D01*
X54230364Y-14135648D01*
X54247860Y-14174187D01*
X54267199Y-14211348D01*
X54288379Y-14247131D01*
X54311401Y-14281537D01*
X54336264Y-14314565D01*
X54362969Y-14346216D01*
X54391516Y-14376488D01*
X54421677Y-14405035D01*
X54453222Y-14431741D01*
X54486152Y-14456604D01*
X54520468Y-14479626D01*
X54556168Y-14500806D01*
X54593253Y-14520144D01*
X54631723Y-14537641D01*
X54671578Y-14553296D01*
X54712817Y-14567109D01*
X54755442Y-14579080D01*
X54799452Y-14589210D01*
X54844846Y-14597498D01*
X54891626Y-14603944D01*
X54939791Y-14608548D01*
X54989340Y-14611311D01*
X55040274Y-14612232D01*
X56270037Y-14612232D01*
X56320975Y-14611311D01*
X56370535Y-14608548D01*
X56418718Y-14603944D01*
X56465523Y-14597498D01*
X56510950Y-14589210D01*
X56555000Y-14579080D01*
X56597672Y-14567109D01*
X56638966Y-14553296D01*
X56678882Y-14537641D01*
X56717421Y-14520144D01*
X56754582Y-14500806D01*
X56790366Y-14479626D01*
X56824772Y-14456604D01*
X56857800Y-14431741D01*
X56889450Y-14405035D01*
X56919723Y-14376488D01*
X56948270Y-14346216D01*
X56974975Y-14314565D01*
X56999839Y-14281537D01*
X57022861Y-14247131D01*
X57044041Y-14211348D01*
X57063379Y-14174187D01*
X57080876Y-14135648D01*
X57096530Y-14095731D01*
X57110344Y-14054437D01*
X57122315Y-14011765D01*
X57132444Y-13967716D01*
X57140732Y-13922288D01*
X57147178Y-13875483D01*
X57151783Y-13827301D01*
X57154545Y-13777740D01*
X57155466Y-13726802D01*
X57155466Y-12497040D01*
X57154545Y-12446105D01*
X57151783Y-12396556D01*
X57147178Y-12348391D01*
X57140732Y-12301612D01*
X57132444Y-12256217D01*
X57122315Y-12212208D01*
X57110344Y-12169583D01*
X57096530Y-12128343D01*
X57080876Y-12088488D01*
X57063379Y-12050018D01*
X57044041Y-12012933D01*
X57022861Y-11977233D01*
X56999839Y-11942918D01*
X56974975Y-11909988D01*
X56948270Y-11878442D01*
X56919723Y-11848282D01*
X56889450Y-11819735D01*
X56857800Y-11793030D01*
X56824772Y-11768166D01*
X56790366Y-11745144D01*
X56754582Y-11723964D01*
X56717421Y-11704626D01*
X56678882Y-11687129D01*
X56638966Y-11671474D01*
X56620933Y-11665442D01*
X57455250Y-11665442D01*
X57455250Y-12446921D01*
X58901265Y-12446921D01*
X58944553Y-12449792D01*
X58982070Y-12458407D01*
X59020849Y-12477250D01*
X59050610Y-12505067D01*
X59071352Y-12541856D01*
X59081452Y-12577748D01*
X59085781Y-12619383D01*
X59085962Y-12630689D01*
X59085962Y-13672971D01*
X59081611Y-13713540D01*
X59068559Y-13749396D01*
X59046807Y-13780539D01*
X59041412Y-13786202D01*
X59010813Y-13809695D01*
X58975863Y-13824487D01*
X58936563Y-13830578D01*
X58928181Y-13830752D01*
X58866196Y-13830430D01*
X58800201Y-13829462D01*
X58730197Y-13827848D01*
X58656183Y-13825590D01*
X58617672Y-13824218D01*
X58578159Y-13822686D01*
X58537643Y-13820992D01*
X58496125Y-13819136D01*
X58453605Y-13817119D01*
X58410082Y-13814941D01*
X58365556Y-13812602D01*
X58320028Y-13810101D01*
X58273498Y-13807439D01*
X58225965Y-13804616D01*
X58177430Y-13801631D01*
X58127892Y-13798485D01*
X58077352Y-13795178D01*
X58025810Y-13791709D01*
X57973265Y-13788079D01*
X57919717Y-13784288D01*
X57865167Y-13780335D01*
X57809615Y-13776221D01*
X57753060Y-13771946D01*
X57695503Y-13767509D01*
X57636944Y-13762911D01*
X57577381Y-13758152D01*
X57516817Y-13753231D01*
X57455250Y-13748149D01*
X57455250Y-14501785D01*
X57519210Y-14508580D01*
X57582660Y-14515159D01*
X57645601Y-14521523D01*
X57708033Y-14527671D01*
X57769955Y-14533603D01*
X57831368Y-14539320D01*
X57892272Y-14544820D01*
X57952666Y-14550105D01*
X58012550Y-14555175D01*
X58071926Y-14560028D01*
X58130792Y-14564666D01*
X58189149Y-14569088D01*
X58246996Y-14573295D01*
X58304334Y-14577286D01*
X58361162Y-14581061D01*
X58417481Y-14584620D01*
X58473291Y-14587964D01*
X58528591Y-14591091D01*
X58583382Y-14594004D01*
X58637664Y-14596700D01*
X58691436Y-14599181D01*
X58744699Y-14601446D01*
X58797452Y-14603495D01*
X58849696Y-14605329D01*
X58901431Y-14606947D01*
X58952656Y-14608349D01*
X59003372Y-14609535D01*
X59053579Y-14610506D01*
X59103276Y-14611261D01*
X59152464Y-14611800D01*
X59201142Y-14612124D01*
X59249311Y-14612232D01*
X59295609Y-14611340D01*
X59340760Y-14608664D01*
X59384766Y-14604205D01*
X59427627Y-14597962D01*
X59469342Y-14589935D01*
X59509911Y-14580124D01*
X59549334Y-14568530D01*
X59587612Y-14555152D01*
X59624744Y-14539990D01*
X59660731Y-14523045D01*
X59695572Y-14504316D01*
X59729267Y-14483803D01*
X59761816Y-14461506D01*
X59793220Y-14437425D01*
X59823479Y-14411561D01*
X59852591Y-14383913D01*
X59880239Y-14354801D01*
X59906103Y-14324543D01*
X59930184Y-14293139D01*
X59952480Y-14260589D01*
X59972993Y-14226894D01*
X59991723Y-14192053D01*
X60008668Y-14156067D01*
X60023830Y-14118934D01*
X60037208Y-14080657D01*
X60048802Y-14041233D01*
X60058613Y-14000664D01*
X60066639Y-13958949D01*
X60072883Y-13916089D01*
X60077342Y-13872083D01*
X60080017Y-13826931D01*
X60080909Y-13780634D01*
X60080909Y-13697103D01*
X60389046Y-13697103D01*
X60389046Y-14558401D01*
X61410909Y-14558401D01*
X61410909Y-13697103D01*
X60389046Y-13697103D01*
X60080909Y-13697103D01*
X60080909Y-13513334D01*
X61706981Y-13513334D01*
X61708007Y-13583708D01*
X61711085Y-13651668D01*
X61716215Y-13717213D01*
X61723397Y-13780344D01*
X61732631Y-13841059D01*
X61743917Y-13899361D01*
X61757255Y-13955248D01*
X61772645Y-14008720D01*
X61790087Y-14059777D01*
X61809582Y-14108420D01*
X61831128Y-14154649D01*
X61854726Y-14198463D01*
X61880376Y-14239862D01*
X61908079Y-14278847D01*
X61937833Y-14315417D01*
X61969639Y-14349573D01*
X62003686Y-14381379D01*
X62040162Y-14411134D01*
X62079067Y-14438836D01*
X62120401Y-14464486D01*
X62164164Y-14488084D01*
X62210357Y-14509631D01*
X62258978Y-14529125D01*
X62310028Y-14546567D01*
X62363508Y-14561957D01*
X62419416Y-14575295D01*
X62477754Y-14586581D01*
X62538521Y-14595815D01*
X62601716Y-14602998D01*
X62667341Y-14608128D01*
X62735395Y-14611206D01*
X62805878Y-14612232D01*
X64142375Y-14612232D01*
X64212749Y-14611206D01*
X64280709Y-14608128D01*
X64346254Y-14602998D01*
X64409384Y-14595815D01*
X64470100Y-14586581D01*
X64528401Y-14575295D01*
X64584288Y-14561957D01*
X64637760Y-14546567D01*
X64688818Y-14529125D01*
X64737461Y-14509631D01*
X64783690Y-14488084D01*
X64827503Y-14464486D01*
X64868903Y-14438836D01*
X64907888Y-14411134D01*
X64944458Y-14381379D01*
X64978613Y-14349573D01*
X65010420Y-14315417D01*
X65040174Y-14278847D01*
X65067876Y-14239862D01*
X65093527Y-14198463D01*
X65117125Y-14154649D01*
X65138671Y-14108420D01*
X65158165Y-14059777D01*
X65175608Y-14008720D01*
X65190998Y-13955248D01*
X65204336Y-13899361D01*
X65215622Y-13841059D01*
X65224856Y-13780344D01*
X65232038Y-13717213D01*
X65237168Y-13651668D01*
X65240246Y-13583708D01*
X65241272Y-13513334D01*
X65241272Y-11801876D01*
X65240246Y-11731505D01*
X65237168Y-11663556D01*
X65232038Y-11598030D01*
X65224856Y-11534924D01*
X65215622Y-11474241D01*
X65204336Y-11415980D01*
X65190998Y-11360140D01*
X65175608Y-11306722D01*
X65158165Y-11255726D01*
X65138671Y-11207152D01*
X65117125Y-11161000D01*
X65093527Y-11117269D01*
X65067876Y-11075960D01*
X65040174Y-11037074D01*
X65010420Y-11000608D01*
X64978613Y-10966565D01*
X64944458Y-10934646D01*
X64907888Y-10904787D01*
X64868903Y-10876987D01*
X64827503Y-10851246D01*
X64783690Y-10827564D01*
X64737461Y-10805942D01*
X64688818Y-10786379D01*
X64637760Y-10768875D01*
X64595986Y-10756809D01*
X65541984Y-10756809D01*
X65541984Y-11564276D01*
X66022752Y-11564276D01*
X66022752Y-13750934D01*
X65541984Y-13750934D01*
X65541984Y-14558401D01*
X67525382Y-14558401D01*
X67821454Y-14558401D01*
X68816401Y-14558401D01*
X68816401Y-12603774D01*
X68820752Y-12563694D01*
X68833804Y-12528146D01*
X68855557Y-12497130D01*
X68860951Y-12491471D01*
X68891061Y-12467978D01*
X68925702Y-12453186D01*
X68964876Y-12447095D01*
X68973254Y-12446921D01*
X69160735Y-12446921D01*
X69213423Y-12447794D01*
X69267074Y-12450412D01*
X69321687Y-12454777D01*
X69358631Y-12458656D01*
X69396002Y-12463311D01*
X69433801Y-12468742D01*
X69472029Y-12474949D01*
X69510683Y-12481931D01*
X69549766Y-12489690D01*
X69589277Y-12498224D01*
X69629215Y-12507535D01*
X69669581Y-12517621D01*
X69710375Y-12528483D01*
X69751597Y-12540120D01*
X69772368Y-12546230D01*
X69772368Y-14558401D01*
X70767315Y-14558401D01*
X70767315Y-11772176D01*
X71232305Y-11772176D01*
X71232305Y-14558401D01*
X72227253Y-14558401D01*
X72227253Y-12553655D01*
X72628202Y-12553655D01*
X72628202Y-11772176D01*
X71232305Y-11772176D01*
X70767315Y-11772176D01*
X70767315Y-11665442D01*
X69884671Y-11665442D01*
X69835480Y-11913250D01*
X69794144Y-11887014D01*
X69751927Y-11861903D01*
X69708829Y-11837918D01*
X69664851Y-11815058D01*
X69619991Y-11793324D01*
X69574250Y-11772716D01*
X69527628Y-11753234D01*
X69480125Y-11734877D01*
X69431741Y-11717646D01*
X69382476Y-11701541D01*
X69349144Y-11691429D01*
X69299403Y-11677331D01*
X69251114Y-11664619D01*
X69204278Y-11653294D01*
X69158893Y-11643355D01*
X69114960Y-11634804D01*
X69072480Y-11627639D01*
X69031451Y-11621861D01*
X68991875Y-11617469D01*
X68953750Y-11614465D01*
X68905176Y-11612616D01*
X68893436Y-11612539D01*
X68653052Y-11612539D01*
X68606646Y-11613431D01*
X68561400Y-11616106D01*
X68517314Y-11620565D01*
X68474388Y-11626809D01*
X68432623Y-11634835D01*
X68392017Y-11644646D01*
X68352572Y-11656240D01*
X68314287Y-11669618D01*
X68277162Y-11684780D01*
X68241197Y-11701725D01*
X68206393Y-11720455D01*
X68172748Y-11740968D01*
X68140264Y-11763264D01*
X68108940Y-11787345D01*
X68078776Y-11813209D01*
X68049772Y-11840857D01*
X68022124Y-11869861D01*
X67996260Y-11900025D01*
X67972179Y-11931349D01*
X67949883Y-11963833D01*
X67929370Y-11997478D01*
X67910640Y-12032282D01*
X67893695Y-12068247D01*
X67878533Y-12105372D01*
X67865155Y-12143657D01*
X67853561Y-12183102D01*
X67843750Y-12223708D01*
X67835724Y-12265473D01*
X67829480Y-12308399D01*
X67825021Y-12352485D01*
X67822346Y-12397731D01*
X67821454Y-12444137D01*
X67821454Y-14558401D01*
X67525382Y-14558401D01*
X67525382Y-13750934D01*
X67044615Y-13750934D01*
X67044615Y-11564276D01*
X67525382Y-11564276D01*
X67525382Y-10756809D01*
X65541984Y-10756809D01*
X64595986Y-10756809D01*
X64584288Y-10753430D01*
X64528401Y-10740045D01*
X64470100Y-10728719D01*
X64409384Y-10719452D01*
X64346254Y-10712245D01*
X64280709Y-10707097D01*
X64212749Y-10704008D01*
X64142375Y-10702978D01*
X71232305Y-10702978D01*
X71232305Y-11511373D01*
X72227253Y-11511373D01*
X72227253Y-10756809D01*
X72974392Y-10756809D01*
X72974392Y-13513334D01*
X72975418Y-13583708D01*
X72978496Y-13651668D01*
X72983626Y-13717213D01*
X72990808Y-13780344D01*
X73000042Y-13841059D01*
X73011328Y-13899361D01*
X73024666Y-13955248D01*
X73040056Y-14008720D01*
X73057498Y-14059777D01*
X73076993Y-14108420D01*
X73098539Y-14154649D01*
X73122137Y-14198463D01*
X73147787Y-14239862D01*
X73175490Y-14278847D01*
X73205244Y-14315417D01*
X73237050Y-14349573D01*
X73271097Y-14381379D01*
X73307573Y-14411134D01*
X73346478Y-14438836D01*
X73387812Y-14464486D01*
X73431575Y-14488084D01*
X73477768Y-14509631D01*
X73526389Y-14529125D01*
X73577439Y-14546567D01*
X73630919Y-14561957D01*
X73686827Y-14575295D01*
X73745165Y-14586581D01*
X73805932Y-14595815D01*
X73869127Y-14602998D01*
X73934752Y-14608128D01*
X74002806Y-14611206D01*
X74073289Y-14612232D01*
X75302124Y-14612232D01*
X75372607Y-14611206D01*
X75440660Y-14608128D01*
X75506285Y-14602998D01*
X75569481Y-14595815D01*
X75630248Y-14586581D01*
X75688585Y-14575295D01*
X75744494Y-14561957D01*
X75797973Y-14546567D01*
X75849024Y-14529125D01*
X75897645Y-14509631D01*
X75943837Y-14488084D01*
X75987600Y-14464486D01*
X76028934Y-14438836D01*
X76067839Y-14411134D01*
X76104315Y-14381379D01*
X76138362Y-14349573D01*
X76170169Y-14315417D01*
X76199923Y-14278847D01*
X76227625Y-14239862D01*
X76253275Y-14198463D01*
X76276874Y-14154649D01*
X76298420Y-14108420D01*
X76317914Y-14059777D01*
X76335356Y-14008720D01*
X76350746Y-13955248D01*
X76364085Y-13899361D01*
X76375371Y-13841059D01*
X76384605Y-13780344D01*
X76391787Y-13717213D01*
X76396917Y-13651668D01*
X76399995Y-13583708D01*
X76401021Y-13513334D01*
X76401021Y-10756809D01*
X75380086Y-10756809D01*
X75380086Y-13513334D01*
X75377525Y-13565250D01*
X75369840Y-13612060D01*
X75357033Y-13653763D01*
X75339103Y-13690359D01*
X75316051Y-13721849D01*
X75287875Y-13748233D01*
X75254577Y-13769510D01*
X75216156Y-13785680D01*
X75172612Y-13796744D01*
X75123946Y-13802702D01*
X75088655Y-13803837D01*
X74286757Y-13803837D01*
X74234675Y-13801283D01*
X74187716Y-13793624D01*
X74145880Y-13780857D01*
X74109167Y-13762985D01*
X74077576Y-13740006D01*
X74051108Y-13711920D01*
X74029763Y-13678728D01*
X74013541Y-13640429D01*
X74002442Y-13597024D01*
X73996465Y-13548512D01*
X73995327Y-13513334D01*
X73995327Y-10756809D01*
X72974392Y-10756809D01*
X72227253Y-10756809D01*
X72227253Y-10702978D01*
X71232305Y-10702978D01*
X64142375Y-10702978D01*
X62805878Y-10702978D01*
X62735395Y-10704008D01*
X62667341Y-10707097D01*
X62601716Y-10712245D01*
X62538521Y-10719452D01*
X62477754Y-10728719D01*
X62419416Y-10740045D01*
X62363508Y-10753430D01*
X62310028Y-10768875D01*
X62258978Y-10786379D01*
X62210357Y-10805942D01*
X62164164Y-10827564D01*
X62120401Y-10851246D01*
X62079067Y-10876987D01*
X62040162Y-10904787D01*
X62003686Y-10934646D01*
X61969639Y-10966565D01*
X61937833Y-11000608D01*
X61908079Y-11037074D01*
X61880376Y-11075960D01*
X61854726Y-11117269D01*
X61831128Y-11161000D01*
X61809582Y-11207152D01*
X61790087Y-11255726D01*
X61772645Y-11306722D01*
X61757255Y-11360140D01*
X61743917Y-11415980D01*
X61732631Y-11474241D01*
X61723397Y-11534924D01*
X61716215Y-11598030D01*
X61711085Y-11663556D01*
X61708007Y-11731505D01*
X61706981Y-11801876D01*
X61706981Y-13513334D01*
X60080909Y-13513334D01*
X60080909Y-12550871D01*
X60079988Y-12499936D01*
X60077226Y-12450387D01*
X60072622Y-12402223D01*
X60066175Y-12355443D01*
X60057888Y-12310048D01*
X60047758Y-12266039D01*
X60035787Y-12223414D01*
X60021974Y-12182174D01*
X60006319Y-12142319D01*
X59988822Y-12103849D01*
X59969484Y-12066764D01*
X59948304Y-12031064D01*
X59925282Y-11996749D01*
X59900418Y-11963819D01*
X59873713Y-11932273D01*
X59845166Y-11902113D01*
X59814893Y-11873454D01*
X59783243Y-11846643D01*
X59750215Y-11821682D01*
X59715809Y-11798569D01*
X59680026Y-11777306D01*
X59642864Y-11757891D01*
X59604326Y-11740326D01*
X59564409Y-11724610D01*
X59523115Y-11710742D01*
X59480443Y-11698724D01*
X59436393Y-11688554D01*
X59390966Y-11680234D01*
X59344161Y-11673762D01*
X59295978Y-11669140D01*
X59246418Y-11666366D01*
X59195480Y-11665442D01*
X57455250Y-11665442D01*
X56620933Y-11665442D01*
X56597672Y-11657661D01*
X56555000Y-11645690D01*
X56510950Y-11635560D01*
X56465523Y-11627273D01*
X56418718Y-11620827D01*
X56370535Y-11616222D01*
X56320975Y-11613460D01*
X56270037Y-11612539D01*
X55040274Y-11612539D01*
X54989340Y-11613460D01*
X54939791Y-11616222D01*
X54891626Y-11620827D01*
X54844846Y-11627273D01*
X54799452Y-11635560D01*
X54755442Y-11645690D01*
X54712817Y-11657661D01*
X54671578Y-11671474D01*
X54631723Y-11687129D01*
X54593253Y-11704626D01*
X54556168Y-11723964D01*
X54520468Y-11745144D01*
X54486152Y-11768166D01*
X54453222Y-11793030D01*
X54421677Y-11819735D01*
X54391516Y-11848282D01*
X54362969Y-11878442D01*
X54336264Y-11909988D01*
X54311401Y-11942918D01*
X54288379Y-11977233D01*
X54267199Y-12012933D01*
X54247860Y-12050018D01*
X54230364Y-12088488D01*
X54214709Y-12128343D01*
X54200896Y-12169583D01*
X54188925Y-12212208D01*
X54178795Y-12256217D01*
X54170507Y-12301612D01*
X54164061Y-12348391D01*
X54159457Y-12396556D01*
X54156694Y-12446105D01*
X54155773Y-12497040D01*
X54155773Y-13646984D01*
X54155773Y-13726802D01*
X53752968Y-13726802D01*
X53752968Y-11665442D01*
X52870323Y-11665442D01*
X52821133Y-11913250D01*
X52779797Y-11887014D01*
X52737580Y-11861903D01*
X52694482Y-11837918D01*
X52650503Y-11815058D01*
X52605643Y-11793324D01*
X52559902Y-11772716D01*
X52513280Y-11753234D01*
X52465778Y-11734877D01*
X52417394Y-11717646D01*
X52368129Y-11701541D01*
X52334796Y-11691429D01*
X52285056Y-11677331D01*
X52236767Y-11664619D01*
X52189930Y-11653294D01*
X52144546Y-11643355D01*
X52100613Y-11634804D01*
X52058132Y-11627639D01*
X52017104Y-11621861D01*
X51977527Y-11617469D01*
X51939402Y-11614465D01*
X51890828Y-11612616D01*
X51879088Y-11612539D01*
X51825257Y-11612539D01*
X51770193Y-11613746D01*
X51716841Y-11617368D01*
X51665199Y-11623404D01*
X51615269Y-11631855D01*
X51567050Y-11642721D01*
X51520543Y-11656001D01*
X51475746Y-11671696D01*
X51432661Y-11689805D01*
X51391287Y-11710329D01*
X51351624Y-11733267D01*
X51313673Y-11758620D01*
X51277432Y-11786388D01*
X51242903Y-11816570D01*
X51210085Y-11849166D01*
X51178979Y-11884178D01*
X51149583Y-11921604D01*
X51106567Y-11893716D01*
X51062441Y-11867134D01*
X51017206Y-11841858D01*
X50970862Y-11817886D01*
X50923408Y-11795219D01*
X50874845Y-11773858D01*
X50825172Y-11753802D01*
X50774390Y-11735051D01*
X50722498Y-11717605D01*
X50669497Y-11701464D01*
X50633547Y-11691429D01*
X50597477Y-11681876D01*
X50544283Y-11668702D01*
X50492182Y-11656915D01*
X50441175Y-11646514D01*
X50391260Y-11637500D01*
X50342438Y-11629873D01*
X50294710Y-11623633D01*
X50248074Y-11618779D01*
X50202532Y-11615312D01*
X50158083Y-11613232D01*
X50114727Y-11612539D01*
X50060895Y-11612539D01*
X50014598Y-11613431D01*
X49969446Y-11616106D01*
X49925440Y-11620565D01*
X49882580Y-11626809D01*
X49840865Y-11634835D01*
X49800296Y-11644646D01*
X49760872Y-11656240D01*
X49722595Y-11669618D01*
X49685462Y-11684780D01*
X49649476Y-11701725D01*
X49614635Y-11720455D01*
X49580940Y-11740968D01*
X49548390Y-11763264D01*
X49516986Y-11787345D01*
X49486728Y-11813209D01*
X49457616Y-11840857D01*
X49429968Y-11869861D01*
X49404103Y-11900025D01*
X49380023Y-11931349D01*
X49357726Y-11963833D01*
X49337213Y-11997478D01*
X49318484Y-12032282D01*
X49301539Y-12068247D01*
X49286377Y-12105372D01*
X49272999Y-12143657D01*
X49261405Y-12183102D01*
X49251594Y-12223708D01*
X49243567Y-12265473D01*
X49237324Y-12308399D01*
X49232865Y-12352485D01*
X49230189Y-12397731D01*
X49229297Y-12444137D01*
X49229297Y-14558401D01*
X48686440Y-14558401D01*
X48686440Y-10160121D01*
X76943878Y-10160121D01*
X76943878Y-15155089D01*
G37*
D10*
G36*
X32120837Y-14595145D02*
G01*
X31738255Y-13492340D01*
X31299399Y-13492340D01*
X31895743Y-15068000D01*
X32345931Y-15068000D01*
X32942665Y-13492340D01*
X32503419Y-13492340D01*
X32120837Y-14595145D01*
G37*
G36*
X30968116Y-13853021D02*
G01*
X30988362Y-13854143D01*
X31008037Y-13856013D01*
X31027142Y-13858631D01*
X31045675Y-13861997D01*
X31063638Y-13866111D01*
X31081029Y-13870973D01*
X31097850Y-13876583D01*
X31114100Y-13882941D01*
X31129779Y-13890047D01*
X31144887Y-13897901D01*
X31159424Y-13906503D01*
X31173390Y-13915853D01*
X31186785Y-13925950D01*
X31199609Y-13936796D01*
X31211863Y-13948390D01*
X31223457Y-13960596D01*
X31234303Y-13973376D01*
X31244400Y-13986730D01*
X31253750Y-14000658D01*
X31262352Y-14015160D01*
X31270206Y-14030236D01*
X31277312Y-14045886D01*
X31283670Y-14062110D01*
X31289280Y-14078908D01*
X31294142Y-14096279D01*
X31298256Y-14114225D01*
X31301622Y-14132745D01*
X31304240Y-14151838D01*
X31306110Y-14171506D01*
X31307232Y-14191748D01*
X31307606Y-14212563D01*
X31307606Y-14753024D01*
X31307246Y-14771889D01*
X31306165Y-14790283D01*
X31304364Y-14808208D01*
X31301842Y-14825662D01*
X31298599Y-14842646D01*
X31294637Y-14859160D01*
X31289953Y-14875203D01*
X31284549Y-14890777D01*
X31278425Y-14905880D01*
X31271580Y-14920513D01*
X31264015Y-14934676D01*
X31255729Y-14948369D01*
X31246722Y-14961592D01*
X31236995Y-14974345D01*
X31226548Y-14986627D01*
X31215380Y-14998439D01*
X31203568Y-15009607D01*
X31191285Y-15020055D01*
X31178533Y-15029782D01*
X31165310Y-15038788D01*
X31151617Y-15047074D01*
X31137454Y-15054639D01*
X31122821Y-15061484D01*
X31107718Y-15067609D01*
X31092144Y-15073013D01*
X31076100Y-15077696D01*
X31059586Y-15081659D01*
X31042602Y-15084901D01*
X31025148Y-15087423D01*
X31007224Y-15089224D01*
X30988829Y-15090305D01*
X30969965Y-15090665D01*
X30947782Y-15090621D01*
X30925442Y-15090488D01*
X30902945Y-15090267D01*
X30880291Y-15089957D01*
X30857479Y-15089559D01*
X30834511Y-15089072D01*
X30811385Y-15088496D01*
X30788101Y-15087832D01*
X30764661Y-15087079D01*
X30741063Y-15086238D01*
X30717308Y-15085309D01*
X30693396Y-15084290D01*
X30669327Y-15083184D01*
X30645100Y-15081989D01*
X30620716Y-15080705D01*
X30596175Y-15079332D01*
X30571477Y-15077871D01*
X30546622Y-15076322D01*
X30521609Y-15074684D01*
X30496439Y-15072958D01*
X30471112Y-15071143D01*
X30445627Y-15069239D01*
X30419985Y-15067247D01*
X30394187Y-15065166D01*
X30368230Y-15062997D01*
X30342117Y-15060739D01*
X30315846Y-15058393D01*
X30289419Y-15055958D01*
X30262833Y-15053435D01*
X30236091Y-15050823D01*
X30209192Y-15048123D01*
X30182135Y-15045334D01*
X30182135Y-14763966D01*
X30208799Y-14766058D01*
X30235059Y-14768083D01*
X30260915Y-14770042D01*
X30286366Y-14771934D01*
X30311412Y-14773761D01*
X30336054Y-14775520D01*
X30360291Y-14777214D01*
X30384124Y-14778840D01*
X30407552Y-14780401D01*
X30430576Y-14781895D01*
X30453195Y-14783323D01*
X30475409Y-14784684D01*
X30497220Y-14785979D01*
X30518625Y-14787207D01*
X30539626Y-14788369D01*
X30560223Y-14789465D01*
X30580415Y-14790494D01*
X30600202Y-14791457D01*
X30619585Y-14792354D01*
X30638564Y-14793184D01*
X30657138Y-14793947D01*
X30675307Y-14794644D01*
X30693072Y-14795275D01*
X30710432Y-14795840D01*
X30727388Y-14796338D01*
X30743939Y-14796769D01*
X30760086Y-14797135D01*
X30775828Y-14797433D01*
X30806099Y-14797832D01*
X30834752Y-14797965D01*
X30844987Y-14797421D01*
X30862064Y-14793701D01*
X30877410Y-14786457D01*
X30891025Y-14775690D01*
X30898728Y-14766792D01*
X30907294Y-14751950D01*
X30912274Y-14735316D01*
X30913691Y-14719025D01*
X30913691Y-14629144D01*
X30136803Y-14629144D01*
X30136803Y-14347776D01*
X30530718Y-14347776D01*
X30913691Y-14347776D01*
X30913691Y-14223896D01*
X30913603Y-14218366D01*
X30911487Y-14198003D01*
X30906550Y-14180448D01*
X30898793Y-14165702D01*
X30888214Y-14153764D01*
X30874814Y-14144636D01*
X30858593Y-14138316D01*
X30839552Y-14134805D01*
X30823419Y-14134015D01*
X30620990Y-14134015D01*
X30615437Y-14134103D01*
X30594984Y-14136209D01*
X30577353Y-14141125D01*
X30562543Y-14148849D01*
X30550553Y-14159382D01*
X30541385Y-14172724D01*
X30535038Y-14188874D01*
X30531512Y-14207833D01*
X30530718Y-14223896D01*
X30530718Y-14347776D01*
X30136803Y-14347776D01*
X30136803Y-14212563D01*
X30137177Y-14191748D01*
X30138299Y-14171506D01*
X30140169Y-14151838D01*
X30142787Y-14132745D01*
X30146153Y-14114225D01*
X30150267Y-14096279D01*
X30155129Y-14078908D01*
X30160739Y-14062110D01*
X30167097Y-14045886D01*
X30174203Y-14030236D01*
X30182057Y-14015160D01*
X30190659Y-14000658D01*
X30200009Y-13986730D01*
X30210107Y-13973376D01*
X30220953Y-13960596D01*
X30232547Y-13948390D01*
X30244800Y-13936796D01*
X30257624Y-13925950D01*
X30271019Y-13915853D01*
X30284986Y-13906503D01*
X30299523Y-13897901D01*
X30314631Y-13890047D01*
X30330309Y-13882941D01*
X30346559Y-13876583D01*
X30363380Y-13870973D01*
X30380771Y-13866111D01*
X30398734Y-13861997D01*
X30417267Y-13858631D01*
X30436372Y-13856013D01*
X30456047Y-13854143D01*
X30476293Y-13853021D01*
X30497110Y-13852647D01*
X30947299Y-13852647D01*
X30968116Y-13853021D01*
G37*
G36*
X29255575Y-14201230D02*
G01*
X29273342Y-14201495D01*
X29291180Y-14202287D01*
X29309087Y-14203607D01*
X29327065Y-14205456D01*
X29345113Y-14207833D01*
X29363231Y-14210738D01*
X29381420Y-14214171D01*
X29399678Y-14218132D01*
X29418007Y-14222622D01*
X29436407Y-14227639D01*
X29454876Y-14233185D01*
X29473415Y-14239259D01*
X29492025Y-14245861D01*
X29510705Y-14252992D01*
X29529455Y-14260650D01*
X29548276Y-14268837D01*
X29548276Y-15068000D01*
X29942191Y-15068000D01*
X29942191Y-13874922D01*
X29593217Y-13874922D01*
X29570942Y-14021468D01*
X29558810Y-14011081D01*
X29546644Y-14001025D01*
X29522209Y-13981900D01*
X29497637Y-13964095D01*
X29472927Y-13947609D01*
X29448080Y-13932441D01*
X29423095Y-13918593D01*
X29397973Y-13906063D01*
X29372714Y-13894852D01*
X29347317Y-13884960D01*
X29321783Y-13876387D01*
X29296112Y-13869133D01*
X29270303Y-13863198D01*
X29244357Y-13858582D01*
X29218273Y-13855285D01*
X29192052Y-13853307D01*
X29165694Y-13852647D01*
X29064480Y-13852647D01*
X29064480Y-14201230D01*
X29255575Y-14201230D01*
G37*
G36*
X28957013Y-14753024D02*
G01*
X28928650Y-14755092D01*
X28900664Y-14757094D01*
X28873057Y-14759030D01*
X28845827Y-14760901D01*
X28818975Y-14762706D01*
X28792501Y-14764445D01*
X28766405Y-14766119D01*
X28740687Y-14767727D01*
X28715346Y-14769270D01*
X28690384Y-14770747D01*
X28665799Y-14772158D01*
X28641591Y-14773504D01*
X28617762Y-14774784D01*
X28594311Y-14775998D01*
X28571237Y-14777147D01*
X28548541Y-14778230D01*
X28526223Y-14779247D01*
X28504283Y-14780199D01*
X28482720Y-14781085D01*
X28461536Y-14781906D01*
X28440729Y-14782661D01*
X28420300Y-14783350D01*
X28400249Y-14783973D01*
X28380575Y-14784531D01*
X28361280Y-14785024D01*
X28342362Y-14785450D01*
X28323822Y-14785811D01*
X28305660Y-14786107D01*
X28287876Y-14786336D01*
X28270469Y-14786500D01*
X28253440Y-14786599D01*
X28236789Y-14786632D01*
X28220669Y-14785240D01*
X28204169Y-14780345D01*
X28189400Y-14771927D01*
X28180516Y-14764357D01*
X28169559Y-14750711D01*
X28162189Y-14735272D01*
X28158647Y-14720044D01*
X28157850Y-14707692D01*
X28157850Y-14629144D01*
X28642037Y-14629144D01*
X28660902Y-14628784D01*
X28679296Y-14627703D01*
X28697221Y-14625902D01*
X28714675Y-14623380D01*
X28731659Y-14620137D01*
X28748173Y-14616175D01*
X28764217Y-14611491D01*
X28779790Y-14606087D01*
X28794894Y-14599963D01*
X28809527Y-14593118D01*
X28823690Y-14585553D01*
X28837383Y-14577267D01*
X28850605Y-14568260D01*
X28863358Y-14558533D01*
X28875640Y-14548086D01*
X28887452Y-14536918D01*
X28898620Y-14525106D01*
X28909068Y-14512823D01*
X28918795Y-14500071D01*
X28927801Y-14486848D01*
X28936087Y-14473155D01*
X28943653Y-14458992D01*
X28950498Y-14444359D01*
X28956622Y-14429256D01*
X28962026Y-14413682D01*
X28966709Y-14397638D01*
X28970672Y-14381125D01*
X28973914Y-14364140D01*
X28976436Y-14346686D01*
X28978237Y-14328762D01*
X28979318Y-14310367D01*
X28979678Y-14291503D01*
X28979678Y-14212563D01*
X28979318Y-14193700D01*
X28978237Y-14175310D01*
X28976436Y-14157393D01*
X28973914Y-14139950D01*
X28970672Y-14122980D01*
X28966709Y-14106483D01*
X28962026Y-14090459D01*
X28956622Y-14074908D01*
X28950498Y-14059831D01*
X28943653Y-14045226D01*
X28936087Y-14031095D01*
X28927801Y-14017438D01*
X28918795Y-14004253D01*
X28909068Y-13991542D01*
X28898620Y-13979304D01*
X28887452Y-13967539D01*
X28875640Y-13956324D01*
X28863358Y-13945832D01*
X28850605Y-13936064D01*
X28837383Y-13927019D01*
X28823690Y-13918698D01*
X28809527Y-13911101D01*
X28794894Y-13904227D01*
X28779790Y-13898076D01*
X28764217Y-13892649D01*
X28748173Y-13887946D01*
X28731659Y-13883967D01*
X28714675Y-13880711D01*
X28697221Y-13878178D01*
X28679296Y-13876369D01*
X28660902Y-13875284D01*
X28642037Y-13874922D01*
X27876482Y-13874922D01*
X27876482Y-14167623D01*
X28506824Y-14167623D01*
X28523115Y-14169039D01*
X28539749Y-14174020D01*
X28554591Y-14182586D01*
X28563489Y-14190288D01*
X28574256Y-14203745D01*
X28581500Y-14219057D01*
X28585220Y-14236224D01*
X28585764Y-14246562D01*
X28584371Y-14262682D01*
X28579477Y-14279182D01*
X28571059Y-14293951D01*
X28563489Y-14302836D01*
X28549843Y-14313603D01*
X28534404Y-14320847D01*
X28517172Y-14324567D01*
X28506824Y-14325110D01*
X28101577Y-14325110D01*
X28082713Y-14325472D01*
X28064323Y-14326558D01*
X28046407Y-14328367D01*
X28028963Y-14330899D01*
X28011993Y-14334155D01*
X27995496Y-14338135D01*
X27979472Y-14342838D01*
X27963921Y-14348265D01*
X27948844Y-14354415D01*
X27934240Y-14361289D01*
X27920109Y-14368886D01*
X27906451Y-14377207D01*
X27893266Y-14386252D01*
X27880555Y-14396020D01*
X27868317Y-14406512D01*
X27856552Y-14417727D01*
X27845337Y-14429492D01*
X27834845Y-14441730D01*
X27825077Y-14454442D01*
X27816032Y-14467626D01*
X27807711Y-14481284D01*
X27800114Y-14495415D01*
X27793240Y-14510019D01*
X27787090Y-14525096D01*
X27781663Y-14540647D01*
X27776960Y-14556671D01*
X27772980Y-14573168D01*
X27769724Y-14590138D01*
X27767191Y-14607582D01*
X27765382Y-14625499D01*
X27764297Y-14643889D01*
X27763935Y-14662752D01*
X27763935Y-14753024D01*
X27764297Y-14771889D01*
X27765382Y-14790283D01*
X27767191Y-14808208D01*
X27769724Y-14825662D01*
X27772980Y-14842646D01*
X27776960Y-14859160D01*
X27781663Y-14875203D01*
X27787090Y-14890777D01*
X27793240Y-14905880D01*
X27800114Y-14920513D01*
X27807711Y-14934676D01*
X27816032Y-14948369D01*
X27825077Y-14961592D01*
X27834845Y-14974345D01*
X27845337Y-14986627D01*
X27856552Y-14998439D01*
X27868317Y-15009607D01*
X27880555Y-15020055D01*
X27893266Y-15029782D01*
X27906451Y-15038788D01*
X27920109Y-15047074D01*
X27934240Y-15054639D01*
X27948844Y-15061484D01*
X27963921Y-15067609D01*
X27979472Y-15073013D01*
X27995496Y-15077696D01*
X28011993Y-15081659D01*
X28028963Y-15084901D01*
X28046407Y-15087423D01*
X28064323Y-15089224D01*
X28082713Y-15090305D01*
X28101577Y-15090665D01*
X28126546Y-15090621D01*
X28151630Y-15090488D01*
X28176827Y-15090267D01*
X28202137Y-15089957D01*
X28227562Y-15089559D01*
X28253100Y-15089072D01*
X28278752Y-15088496D01*
X28304518Y-15087832D01*
X28330397Y-15087079D01*
X28356391Y-15086238D01*
X28382497Y-15085309D01*
X28408718Y-15084290D01*
X28435052Y-15083184D01*
X28461501Y-15081989D01*
X28488062Y-15080705D01*
X28514738Y-15079332D01*
X28541527Y-15077871D01*
X28568430Y-15076322D01*
X28595447Y-15074684D01*
X28622577Y-15072958D01*
X28649821Y-15071143D01*
X28677179Y-15069239D01*
X28704651Y-15067247D01*
X28732236Y-15065166D01*
X28759935Y-15062997D01*
X28787748Y-15060739D01*
X28815674Y-15058393D01*
X28843715Y-15055958D01*
X28871869Y-15053435D01*
X28900136Y-15050823D01*
X28928518Y-15048123D01*
X28957013Y-15045334D01*
X28957013Y-14753024D01*
G37*
G36*
X27139846Y-13919863D02*
G01*
X27139846Y-15068000D01*
X27533761Y-15068000D01*
X27533761Y-14223896D01*
X27702581Y-14223896D01*
X27702581Y-13919863D01*
X27139846Y-13919863D01*
G37*
G36*
X27533761Y-13469674D02*
G01*
X27139846Y-13469674D01*
X27139846Y-13785041D01*
X27533761Y-13785041D01*
X27533761Y-13469674D01*
G37*
G36*
X26602226Y-13853021D02*
G01*
X26622472Y-13854143D01*
X26642148Y-13856013D01*
X26661252Y-13858631D01*
X26679786Y-13861997D01*
X26697748Y-13866111D01*
X26715140Y-13870973D01*
X26731960Y-13876583D01*
X26748210Y-13882941D01*
X26763889Y-13890047D01*
X26778997Y-13897901D01*
X26793534Y-13906503D01*
X26807500Y-13915853D01*
X26820895Y-13925950D01*
X26833720Y-13936796D01*
X26845973Y-13948390D01*
X26857567Y-13960596D01*
X26868413Y-13973376D01*
X26878511Y-13986730D01*
X26887861Y-14000658D01*
X26896463Y-14015160D01*
X26904316Y-14030236D01*
X26911422Y-14045886D01*
X26917780Y-14062110D01*
X26923390Y-14078908D01*
X26928252Y-14096279D01*
X26932366Y-14114225D01*
X26935732Y-14132745D01*
X26938350Y-14151838D01*
X26940220Y-14171506D01*
X26941342Y-14191748D01*
X26941716Y-14212563D01*
X26941716Y-14730358D01*
X26941342Y-14751175D01*
X26940220Y-14771422D01*
X26938350Y-14791097D01*
X26935732Y-14810201D01*
X26932366Y-14828735D01*
X26928252Y-14846697D01*
X26923390Y-14864089D01*
X26917780Y-14880909D01*
X26911422Y-14897159D01*
X26904316Y-14912838D01*
X26896463Y-14927946D01*
X26887861Y-14942483D01*
X26878511Y-14956449D01*
X26868413Y-14969844D01*
X26857567Y-14982669D01*
X26845973Y-14994922D01*
X26833720Y-15006516D01*
X26820895Y-15017362D01*
X26807500Y-15027460D01*
X26793534Y-15036810D01*
X26778997Y-15045412D01*
X26763889Y-15053266D01*
X26748210Y-15060371D01*
X26731960Y-15066729D01*
X26715140Y-15072339D01*
X26697748Y-15077201D01*
X26679786Y-15081315D01*
X26661252Y-15084681D01*
X26642148Y-15087299D01*
X26622472Y-15089169D01*
X26602226Y-15090291D01*
X26581409Y-15090665D01*
X26063614Y-15090665D01*
X26042799Y-15090291D01*
X26022557Y-15089169D01*
X26002889Y-15087299D01*
X25983796Y-15084681D01*
X25965276Y-15081315D01*
X25947330Y-15077201D01*
X25929959Y-15072339D01*
X25913161Y-15066729D01*
X25896937Y-15060371D01*
X25881287Y-15053266D01*
X25866211Y-15045412D01*
X25851709Y-15036810D01*
X25837781Y-15027460D01*
X25824427Y-15017362D01*
X25811647Y-15006516D01*
X25799441Y-14994922D01*
X25787847Y-14982669D01*
X25777001Y-14969844D01*
X25766904Y-14956449D01*
X25757554Y-14942483D01*
X25748952Y-14927946D01*
X25741098Y-14912838D01*
X25733992Y-14897159D01*
X25727634Y-14880909D01*
X25722024Y-14864089D01*
X25717162Y-14846697D01*
X25713048Y-14828735D01*
X25709682Y-14810201D01*
X25707064Y-14791097D01*
X25705194Y-14771422D01*
X25704072Y-14751175D01*
X25703698Y-14730358D01*
X25703698Y-14696750D01*
X26097613Y-14696750D01*
X26097701Y-14702280D01*
X26099807Y-14722644D01*
X26104723Y-14740199D01*
X26112447Y-14754945D01*
X26122980Y-14766882D01*
X26136322Y-14776011D01*
X26152472Y-14782331D01*
X26171431Y-14785842D01*
X26187494Y-14786632D01*
X26457529Y-14786632D01*
X26463083Y-14786544D01*
X26483535Y-14784437D01*
X26501167Y-14779522D01*
X26515977Y-14771798D01*
X26527966Y-14761265D01*
X26537134Y-14747923D01*
X26543482Y-14731773D01*
X26547008Y-14712813D01*
X26547801Y-14696750D01*
X26547801Y-14246562D01*
X26547713Y-14241008D01*
X26545597Y-14220556D01*
X26540661Y-14202925D01*
X26532903Y-14188114D01*
X26522324Y-14176125D01*
X26508924Y-14166957D01*
X26492704Y-14160609D01*
X26473662Y-14157083D01*
X26457529Y-14156290D01*
X26187494Y-14156290D01*
X26181964Y-14156378D01*
X26161601Y-14158494D01*
X26144046Y-14163430D01*
X26129300Y-14171188D01*
X26117362Y-14181767D01*
X26108234Y-14195167D01*
X26101914Y-14211388D01*
X26098403Y-14230429D01*
X26097613Y-14246562D01*
X26097613Y-14696750D01*
X25703698Y-14696750D01*
X25703698Y-14212563D01*
X25704072Y-14191748D01*
X25705194Y-14171506D01*
X25707064Y-14151838D01*
X25709682Y-14132745D01*
X25713048Y-14114225D01*
X25717162Y-14096279D01*
X25722024Y-14078908D01*
X25727634Y-14062110D01*
X25733992Y-14045886D01*
X25741098Y-14030236D01*
X25748952Y-14015160D01*
X25757554Y-14000658D01*
X25766904Y-13986730D01*
X25777001Y-13973376D01*
X25787847Y-13960596D01*
X25799441Y-13948390D01*
X25811647Y-13936796D01*
X25824427Y-13925950D01*
X25837781Y-13915853D01*
X25851709Y-13906503D01*
X25866211Y-13897901D01*
X25881287Y-13890047D01*
X25896937Y-13882941D01*
X25913161Y-13876583D01*
X25929959Y-13870973D01*
X25947330Y-13866111D01*
X25965276Y-13861997D01*
X25983796Y-13858631D01*
X26002889Y-13856013D01*
X26022557Y-13854143D01*
X26042799Y-13853021D01*
X26063614Y-13852647D01*
X26581409Y-13852647D01*
X26602226Y-13853021D01*
G37*
G36*
X24845136Y-14178956D02*
G01*
X24867762Y-14179351D01*
X24890945Y-14180535D01*
X24906709Y-14181764D01*
X24922721Y-14183344D01*
X24938980Y-14185275D01*
X24955486Y-14187557D01*
X24972240Y-14190191D01*
X24989240Y-14193175D01*
X25006489Y-14196510D01*
X25023984Y-14200197D01*
X25041727Y-14204235D01*
X25059717Y-14208623D01*
X25077954Y-14213363D01*
X25096439Y-14218454D01*
X25115170Y-14223896D01*
X25115170Y-15068000D01*
X25509085Y-15068000D01*
X25509085Y-13874922D01*
X25160111Y-13874922D01*
X25137836Y-13987469D01*
X25124577Y-13978919D01*
X25111275Y-13970659D01*
X25091242Y-13958813D01*
X25071112Y-13947619D01*
X25050887Y-13937078D01*
X25030565Y-13927190D01*
X25010147Y-13917954D01*
X24989633Y-13909371D01*
X24969022Y-13901440D01*
X24948316Y-13894162D01*
X24927513Y-13887537D01*
X24920558Y-13885473D01*
X24899981Y-13879607D01*
X24880015Y-13874318D01*
X24860661Y-13869605D01*
X24841918Y-13865470D01*
X24823786Y-13861912D01*
X24806266Y-13858930D01*
X24789357Y-13856526D01*
X24773060Y-13854699D01*
X24757373Y-13853449D01*
X24737410Y-13852679D01*
X24732588Y-13852647D01*
X24631374Y-13852647D01*
X24612464Y-13853007D01*
X24594030Y-13854088D01*
X24576072Y-13855889D01*
X24558590Y-13858411D01*
X24541584Y-13861654D01*
X24525055Y-13865616D01*
X24509002Y-13870300D01*
X24493426Y-13875704D01*
X24478326Y-13881828D01*
X24463702Y-13888673D01*
X24449554Y-13896238D01*
X24435882Y-13904524D01*
X24422687Y-13913531D01*
X24409968Y-13923258D01*
X24397725Y-13933705D01*
X24385959Y-13944873D01*
X24374791Y-13956640D01*
X24364344Y-13968882D01*
X24354617Y-13981601D01*
X24345610Y-13994796D01*
X24337324Y-14008468D01*
X24329759Y-14022616D01*
X24322914Y-14037240D01*
X24316789Y-14052340D01*
X24311386Y-14067917D01*
X24306702Y-14083969D01*
X24302739Y-14100499D01*
X24299497Y-14117504D01*
X24296975Y-14134986D01*
X24295174Y-14152944D01*
X24294093Y-14171378D01*
X24293733Y-14190288D01*
X24293733Y-15068000D01*
X24687648Y-15068000D01*
X24687648Y-14257504D01*
X24689064Y-14241408D01*
X24694045Y-14224994D01*
X24702611Y-14210373D01*
X24710314Y-14201621D01*
X24723740Y-14190665D01*
X24738959Y-14183294D01*
X24755971Y-14179509D01*
X24766196Y-14178956D01*
X24845136Y-14178956D01*
G37*
G36*
X22661800Y-15090665D02*
G01*
X22685375Y-15090621D01*
X22709108Y-15090488D01*
X22732999Y-15090267D01*
X22757049Y-15089957D01*
X22781256Y-15089559D01*
X22805621Y-15089072D01*
X22830144Y-15088496D01*
X22854825Y-15087832D01*
X22879664Y-15087079D01*
X22904661Y-15086238D01*
X22929816Y-15085309D01*
X22955129Y-15084290D01*
X22980601Y-15083184D01*
X23006230Y-15081989D01*
X23032017Y-15080705D01*
X23057962Y-15079332D01*
X23084065Y-15077871D01*
X23110326Y-15076322D01*
X23136745Y-15074684D01*
X23163322Y-15072958D01*
X23190057Y-15071143D01*
X23216950Y-15069239D01*
X23244001Y-15067247D01*
X23271210Y-15065166D01*
X23298577Y-15062997D01*
X23326102Y-15060739D01*
X23353785Y-15058393D01*
X23381626Y-15055958D01*
X23409625Y-15053435D01*
X23437782Y-15050823D01*
X23466097Y-15048123D01*
X23494570Y-15045334D01*
X23494570Y-14741691D01*
X23463724Y-14743759D01*
X23433371Y-14745761D01*
X23403509Y-14747697D01*
X23374140Y-14749568D01*
X23345264Y-14751373D01*
X23316879Y-14753112D01*
X23288987Y-14754786D01*
X23261587Y-14756394D01*
X23234680Y-14757937D01*
X23208264Y-14759414D01*
X23182341Y-14760825D01*
X23156911Y-14762171D01*
X23131972Y-14763451D01*
X23107526Y-14764665D01*
X23083573Y-14765814D01*
X23060111Y-14766897D01*
X23037142Y-14767914D01*
X23014665Y-14768866D01*
X22992681Y-14769752D01*
X22971188Y-14770573D01*
X22950189Y-14771328D01*
X22929681Y-14772017D01*
X22909666Y-14772640D01*
X22890143Y-14773198D01*
X22871112Y-14773691D01*
X22852573Y-14774117D01*
X22834527Y-14774478D01*
X22816974Y-14774774D01*
X22799912Y-14775003D01*
X22783343Y-14775168D01*
X22767266Y-14775266D01*
X22751681Y-14775299D01*
X22733079Y-14774241D01*
X22715961Y-14771067D01*
X22700326Y-14765778D01*
X22686175Y-14758373D01*
X22673508Y-14748852D01*
X22669616Y-14745208D01*
X22659257Y-14733022D01*
X22651041Y-14719325D01*
X22644969Y-14704116D01*
X22641039Y-14687396D01*
X22639253Y-14669165D01*
X22639134Y-14662752D01*
X22639134Y-14572870D01*
X22639662Y-14556497D01*
X22642435Y-14533917D01*
X22647585Y-14513715D01*
X22655111Y-14495889D01*
X22665015Y-14480440D01*
X22677295Y-14467367D01*
X22691952Y-14456672D01*
X22708985Y-14448353D01*
X22728396Y-14442411D01*
X22750183Y-14438846D01*
X22766028Y-14437790D01*
X22774347Y-14437658D01*
X23246810Y-14437658D01*
X23246810Y-14122682D01*
X22819288Y-14122682D01*
X22802914Y-14122154D01*
X22780335Y-14119381D01*
X22760132Y-14114231D01*
X22742306Y-14106705D01*
X22726857Y-14096801D01*
X22713785Y-14084521D01*
X22703089Y-14069864D01*
X22694770Y-14052831D01*
X22688828Y-14033420D01*
X22685263Y-14011633D01*
X22684207Y-13995788D01*
X22684075Y-13987469D01*
X22684075Y-13942528D01*
X22684603Y-13926155D01*
X22687376Y-13903576D01*
X22692526Y-13883373D01*
X22700052Y-13865547D01*
X22709955Y-13850098D01*
X22722236Y-13837025D01*
X22736892Y-13826330D01*
X22753926Y-13818011D01*
X22773336Y-13812069D01*
X22795124Y-13808504D01*
X22810969Y-13807448D01*
X22819288Y-13807316D01*
X23471905Y-13807316D01*
X23471905Y-13492340D01*
X22706741Y-13492340D01*
X22679599Y-13492732D01*
X22653374Y-13493909D01*
X22628064Y-13495871D01*
X22603670Y-13498617D01*
X22580192Y-13502148D01*
X22557630Y-13506463D01*
X22535984Y-13511563D01*
X22515254Y-13517448D01*
X22495440Y-13524118D01*
X22476542Y-13531572D01*
X22458559Y-13539810D01*
X22441493Y-13548833D01*
X22425342Y-13558641D01*
X22410108Y-13569234D01*
X22395789Y-13580611D01*
X22382386Y-13592773D01*
X22369846Y-13605687D01*
X22358114Y-13619420D01*
X22347192Y-13633970D01*
X22337079Y-13649339D01*
X22327775Y-13665527D01*
X22319280Y-13682532D01*
X22311594Y-13700356D01*
X22304717Y-13718997D01*
X22298649Y-13738457D01*
X22293390Y-13758736D01*
X22288940Y-13779832D01*
X22285300Y-13801747D01*
X22282468Y-13824480D01*
X22280445Y-13848031D01*
X22279232Y-13872400D01*
X22278827Y-13897588D01*
X22279070Y-13914244D01*
X22279798Y-13930506D01*
X22281012Y-13946374D01*
X22283742Y-13969438D01*
X22287565Y-13991615D01*
X22292480Y-14012907D01*
X22298487Y-14033312D01*
X22305587Y-14052831D01*
X22313778Y-14071464D01*
X22323062Y-14089211D01*
X22333438Y-14106072D01*
X22340963Y-14116820D01*
X22352887Y-14132204D01*
X22365504Y-14146702D01*
X22378816Y-14160313D01*
X22392821Y-14173039D01*
X22407521Y-14184878D01*
X22422914Y-14195831D01*
X22439000Y-14205898D01*
X22455781Y-14215079D01*
X22473256Y-14223374D01*
X22491424Y-14230782D01*
X22503921Y-14235229D01*
X22481614Y-14241995D01*
X22460220Y-14249884D01*
X22439739Y-14258896D01*
X22420170Y-14269032D01*
X22401515Y-14280292D01*
X22383772Y-14292675D01*
X22366942Y-14306182D01*
X22351025Y-14320812D01*
X22336021Y-14336565D01*
X22321930Y-14353443D01*
X22308751Y-14371443D01*
X22296486Y-14390568D01*
X22285133Y-14410815D01*
X22274693Y-14432187D01*
X22265166Y-14454681D01*
X22256552Y-14478300D01*
X22251240Y-14496050D01*
X22246636Y-14514521D01*
X22242740Y-14533712D01*
X22239553Y-14553624D01*
X22237074Y-14574256D01*
X22235679Y-14590204D01*
X22234683Y-14606556D01*
X22234086Y-14623314D01*
X22233886Y-14640477D01*
X22233886Y-14662752D01*
X22234291Y-14689893D01*
X22235505Y-14716119D01*
X22237527Y-14741428D01*
X22240359Y-14765822D01*
X22244000Y-14789300D01*
X22248449Y-14811862D01*
X22253708Y-14833508D01*
X22259776Y-14854238D01*
X22266653Y-14874052D01*
X22274339Y-14892951D01*
X22282834Y-14910933D01*
X22292138Y-14928000D01*
X22302252Y-14944150D01*
X22313174Y-14959385D01*
X22324905Y-14973703D01*
X22337445Y-14987106D01*
X22350848Y-14999647D01*
X22365167Y-15011378D01*
X22380402Y-15022300D01*
X22396552Y-15032413D01*
X22413619Y-15041717D01*
X22431601Y-15050213D01*
X22450499Y-15057899D01*
X22470314Y-15064775D01*
X22491044Y-15070843D01*
X22512690Y-15076102D01*
X22535252Y-15080552D01*
X22558729Y-15084193D01*
X22583123Y-15087024D01*
X22608433Y-15089047D01*
X22634658Y-15090261D01*
X22661800Y-15090665D01*
G37*
G36*
X22105708Y-14730358D02*
G01*
X21700460Y-14730358D01*
X21700460Y-15068000D01*
X22105708Y-15068000D01*
X22105708Y-14730358D01*
G37*
G36*
X20757878Y-15090665D02*
G01*
X20781453Y-15090621D01*
X20805186Y-15090488D01*
X20829078Y-15090267D01*
X20853127Y-15089957D01*
X20877334Y-15089559D01*
X20901699Y-15089072D01*
X20926222Y-15088496D01*
X20950903Y-15087832D01*
X20975742Y-15087079D01*
X21000739Y-15086238D01*
X21025895Y-15085309D01*
X21051208Y-15084290D01*
X21076679Y-15083184D01*
X21102308Y-15081989D01*
X21128095Y-15080705D01*
X21154040Y-15079332D01*
X21180143Y-15077871D01*
X21206404Y-15076322D01*
X21232823Y-15074684D01*
X21259400Y-15072958D01*
X21286135Y-15071143D01*
X21313028Y-15069239D01*
X21340079Y-15067247D01*
X21367288Y-15065166D01*
X21394655Y-15062997D01*
X21422180Y-15060739D01*
X21449863Y-15058393D01*
X21477704Y-15055958D01*
X21505703Y-15053435D01*
X21533860Y-15050823D01*
X21562175Y-15048123D01*
X21590648Y-15045334D01*
X21590648Y-14741691D01*
X21559803Y-14743759D01*
X21529449Y-14745761D01*
X21499588Y-14747697D01*
X21470218Y-14749568D01*
X21441342Y-14751373D01*
X21412957Y-14753112D01*
X21385065Y-14754786D01*
X21357665Y-14756394D01*
X21330758Y-14757937D01*
X21304342Y-14759414D01*
X21278419Y-14760825D01*
X21252989Y-14762171D01*
X21228051Y-14763451D01*
X21203604Y-14764665D01*
X21179651Y-14765814D01*
X21156189Y-14766897D01*
X21133220Y-14767914D01*
X21110743Y-14768866D01*
X21088759Y-14769752D01*
X21067267Y-14770573D01*
X21046267Y-14771328D01*
X21025759Y-14772017D01*
X21005744Y-14772640D01*
X20986221Y-14773198D01*
X20967190Y-14773691D01*
X20948652Y-14774117D01*
X20930605Y-14774478D01*
X20913052Y-14774774D01*
X20895990Y-14775003D01*
X20879421Y-14775168D01*
X20863344Y-14775266D01*
X20847759Y-14775299D01*
X20829157Y-14774241D01*
X20812039Y-14771067D01*
X20796404Y-14765778D01*
X20782254Y-14758373D01*
X20769586Y-14748852D01*
X20765694Y-14745208D01*
X20755335Y-14733022D01*
X20747119Y-14719325D01*
X20741047Y-14704116D01*
X20737117Y-14687396D01*
X20735331Y-14669165D01*
X20735212Y-14662752D01*
X20735212Y-14572870D01*
X20735741Y-14556497D01*
X20738513Y-14533917D01*
X20743663Y-14513715D01*
X20751190Y-14495889D01*
X20761093Y-14480440D01*
X20773373Y-14467367D01*
X20788030Y-14456672D01*
X20805064Y-14448353D01*
X20824474Y-14442411D01*
X20846261Y-14438846D01*
X20862106Y-14437790D01*
X20870425Y-14437658D01*
X21342889Y-14437658D01*
X21342889Y-14122682D01*
X20915366Y-14122682D01*
X20898992Y-14122154D01*
X20876413Y-14119381D01*
X20856210Y-14114231D01*
X20838384Y-14106705D01*
X20822935Y-14096801D01*
X20809863Y-14084521D01*
X20799167Y-14069864D01*
X20790849Y-14052831D01*
X20784907Y-14033420D01*
X20781341Y-14011633D01*
X20780285Y-13995788D01*
X20780153Y-13987469D01*
X20780153Y-13942528D01*
X20780681Y-13926155D01*
X20783454Y-13903576D01*
X20788604Y-13883373D01*
X20796130Y-13865547D01*
X20806034Y-13850098D01*
X20818314Y-13837025D01*
X20832971Y-13826330D01*
X20850004Y-13818011D01*
X20869415Y-13812069D01*
X20891202Y-13808504D01*
X20907047Y-13807448D01*
X20915366Y-13807316D01*
X21567983Y-13807316D01*
X21567983Y-13492340D01*
X20802819Y-13492340D01*
X20775677Y-13492732D01*
X20749452Y-13493909D01*
X20724142Y-13495871D01*
X20699748Y-13498617D01*
X20676270Y-13502148D01*
X20653709Y-13506463D01*
X20632062Y-13511563D01*
X20611332Y-13517448D01*
X20591518Y-13524118D01*
X20572620Y-13531572D01*
X20554637Y-13539810D01*
X20537571Y-13548833D01*
X20521420Y-13558641D01*
X20506186Y-13569234D01*
X20491867Y-13580611D01*
X20478464Y-13592773D01*
X20465924Y-13605687D01*
X20454193Y-13619420D01*
X20443270Y-13633970D01*
X20433157Y-13649339D01*
X20423853Y-13665527D01*
X20415358Y-13682532D01*
X20407672Y-13700356D01*
X20400795Y-13718997D01*
X20394727Y-13738457D01*
X20389468Y-13758736D01*
X20385018Y-13779832D01*
X20381378Y-13801747D01*
X20378546Y-13824480D01*
X20376523Y-13848031D01*
X20375310Y-13872400D01*
X20374905Y-13897588D01*
X20375148Y-13914244D01*
X20375876Y-13930506D01*
X20377090Y-13946374D01*
X20379820Y-13969438D01*
X20383643Y-13991615D01*
X20388558Y-14012907D01*
X20394565Y-14033312D01*
X20401665Y-14052831D01*
X20409856Y-14071464D01*
X20419140Y-14089211D01*
X20429516Y-14106072D01*
X20437041Y-14116820D01*
X20448965Y-14132204D01*
X20461582Y-14146702D01*
X20474894Y-14160313D01*
X20488900Y-14173039D01*
X20503599Y-14184878D01*
X20518992Y-14195831D01*
X20535079Y-14205898D01*
X20551859Y-14215079D01*
X20569334Y-14223374D01*
X20587502Y-14230782D01*
X20600000Y-14235229D01*
X20577692Y-14241995D01*
X20556298Y-14249884D01*
X20535817Y-14258896D01*
X20516249Y-14269032D01*
X20497593Y-14280292D01*
X20479850Y-14292675D01*
X20463020Y-14306182D01*
X20447103Y-14320812D01*
X20432099Y-14336565D01*
X20418008Y-14353443D01*
X20404830Y-14371443D01*
X20392564Y-14390568D01*
X20381211Y-14410815D01*
X20370771Y-14432187D01*
X20361244Y-14454681D01*
X20352630Y-14478300D01*
X20347318Y-14496050D01*
X20342714Y-14514521D01*
X20338818Y-14533712D01*
X20335631Y-14553624D01*
X20333152Y-14574256D01*
X20331758Y-14590204D01*
X20330761Y-14606556D01*
X20330164Y-14623314D01*
X20329965Y-14640477D01*
X20329965Y-14662752D01*
X20330369Y-14689893D01*
X20331583Y-14716119D01*
X20333605Y-14741428D01*
X20336437Y-14765822D01*
X20340078Y-14789300D01*
X20344528Y-14811862D01*
X20349786Y-14833508D01*
X20355854Y-14854238D01*
X20362731Y-14874052D01*
X20370417Y-14892951D01*
X20378912Y-14910933D01*
X20388217Y-14928000D01*
X20398330Y-14944150D01*
X20409252Y-14959385D01*
X20420983Y-14973703D01*
X20433524Y-14987106D01*
X20446926Y-14999647D01*
X20461245Y-15011378D01*
X20476480Y-15022300D01*
X20492630Y-15032413D01*
X20509697Y-15041717D01*
X20527679Y-15050213D01*
X20546577Y-15057899D01*
X20566392Y-15064775D01*
X20587122Y-15070843D01*
X20608768Y-15076102D01*
X20631330Y-15080552D01*
X20654808Y-15084193D01*
X20679201Y-15087024D01*
X20704511Y-15089047D01*
X20730737Y-15090261D01*
X20757878Y-15090665D01*
G37*
G36*
X20201786Y-14730358D02*
G01*
X19796538Y-14730358D01*
X19796538Y-15068000D01*
X20201786Y-15068000D01*
X20201786Y-14730358D01*
G37*
G36*
X19220598Y-13470093D02*
G01*
X19248592Y-13471347D01*
X19275577Y-13473439D01*
X19301556Y-13476367D01*
X19326526Y-13480131D01*
X19350490Y-13484732D01*
X19373446Y-13490169D01*
X19395394Y-13496443D01*
X19416335Y-13503554D01*
X19436268Y-13511501D01*
X19455194Y-13520284D01*
X19473112Y-13529905D01*
X19490023Y-13540361D01*
X19505926Y-13551654D01*
X19520822Y-13563784D01*
X19534710Y-13576750D01*
X19547676Y-13590639D01*
X19559806Y-13605534D01*
X19571099Y-13621438D01*
X19581556Y-13638348D01*
X19591176Y-13656267D01*
X19599959Y-13675192D01*
X19607906Y-13695126D01*
X19615017Y-13716066D01*
X19621291Y-13738015D01*
X19626728Y-13760971D01*
X19631329Y-13784934D01*
X19635094Y-13809905D01*
X19638022Y-13835883D01*
X19640113Y-13862869D01*
X19641368Y-13890862D01*
X19641786Y-13919863D01*
X19641786Y-14640477D01*
X19641368Y-14669478D01*
X19640113Y-14697471D01*
X19638022Y-14724457D01*
X19635094Y-14750435D01*
X19631329Y-14775406D01*
X19626728Y-14799369D01*
X19621291Y-14822325D01*
X19615017Y-14844273D01*
X19607906Y-14865214D01*
X19599959Y-14885147D01*
X19591176Y-14904073D01*
X19581556Y-14921991D01*
X19571099Y-14938902D01*
X19559806Y-14954805D01*
X19547676Y-14969701D01*
X19534710Y-14983589D01*
X19520822Y-14996555D01*
X19505926Y-15008685D01*
X19490023Y-15019978D01*
X19473112Y-15030435D01*
X19455194Y-15040055D01*
X19436268Y-15048839D01*
X19416335Y-15056786D01*
X19395394Y-15063896D01*
X19373446Y-15070170D01*
X19350490Y-15075608D01*
X19326526Y-15080209D01*
X19301556Y-15083973D01*
X19275577Y-15086901D01*
X19248592Y-15088992D01*
X19220598Y-15090247D01*
X19191598Y-15090665D01*
X18763684Y-15090665D01*
X18734637Y-15090247D01*
X18706605Y-15088992D01*
X18679585Y-15086901D01*
X18653579Y-15083973D01*
X18628587Y-15080209D01*
X18604609Y-15075608D01*
X18581644Y-15070170D01*
X18559692Y-15063896D01*
X18538755Y-15056786D01*
X18518831Y-15048839D01*
X18499920Y-15040055D01*
X18482023Y-15030435D01*
X18465140Y-15019978D01*
X18449270Y-15008685D01*
X18434414Y-14996555D01*
X18420572Y-14983589D01*
X18407605Y-14969701D01*
X18395476Y-14954805D01*
X18384183Y-14938902D01*
X18373726Y-14921991D01*
X18364106Y-14904073D01*
X18355322Y-14885147D01*
X18347375Y-14865214D01*
X18340265Y-14844273D01*
X18333991Y-14822325D01*
X18328553Y-14799369D01*
X18323952Y-14775406D01*
X18320188Y-14750435D01*
X18317260Y-14724457D01*
X18315169Y-14697471D01*
X18313914Y-14669478D01*
X18313496Y-14640477D01*
X18718743Y-14640477D01*
X18718875Y-14648772D01*
X18719932Y-14664571D01*
X18723497Y-14686295D01*
X18729439Y-14705650D01*
X18737758Y-14722634D01*
X18748453Y-14737249D01*
X18761526Y-14749493D01*
X18776975Y-14759368D01*
X18794801Y-14766872D01*
X18815003Y-14772007D01*
X18837583Y-14774772D01*
X18853956Y-14775299D01*
X19101325Y-14775299D01*
X19109644Y-14775167D01*
X19125489Y-14774114D01*
X19147277Y-14770559D01*
X19166687Y-14764634D01*
X19183721Y-14756340D01*
X19198378Y-14745675D01*
X19210658Y-14732640D01*
X19220561Y-14717236D01*
X19228087Y-14699461D01*
X19233237Y-14679317D01*
X19236010Y-14656803D01*
X19236538Y-14640477D01*
X19236538Y-13919863D01*
X19236406Y-13911568D01*
X19235350Y-13895769D01*
X19231785Y-13874044D01*
X19225843Y-13854690D01*
X19217524Y-13837706D01*
X19206828Y-13823091D01*
X19193756Y-13810846D01*
X19178307Y-13800972D01*
X19160481Y-13793467D01*
X19140278Y-13788332D01*
X19117699Y-13785567D01*
X19101325Y-13785041D01*
X18853956Y-13785041D01*
X18845637Y-13785172D01*
X18829792Y-13786226D01*
X18808005Y-13789781D01*
X18788595Y-13795705D01*
X18771561Y-13804000D01*
X18756904Y-13814665D01*
X18744624Y-13827699D01*
X18734721Y-13843104D01*
X18727194Y-13860878D01*
X18722044Y-13881022D01*
X18719272Y-13903537D01*
X18718743Y-13919863D01*
X18718743Y-14640477D01*
X18313496Y-14640477D01*
X18313496Y-13919863D01*
X18313914Y-13890862D01*
X18315169Y-13862869D01*
X18317260Y-13835883D01*
X18320188Y-13809905D01*
X18323952Y-13784934D01*
X18328553Y-13760971D01*
X18333991Y-13738015D01*
X18340265Y-13716066D01*
X18347375Y-13695126D01*
X18355322Y-13675192D01*
X18364106Y-13656267D01*
X18373726Y-13638348D01*
X18384183Y-13621438D01*
X18395476Y-13605534D01*
X18407605Y-13590639D01*
X18420572Y-13576750D01*
X18434414Y-13563784D01*
X18449270Y-13551654D01*
X18465140Y-13540361D01*
X18482023Y-13529905D01*
X18499920Y-13520284D01*
X18518831Y-13511501D01*
X18538755Y-13503554D01*
X18559692Y-13496443D01*
X18581644Y-13490169D01*
X18604609Y-13484732D01*
X18628587Y-13480131D01*
X18653579Y-13476367D01*
X18679585Y-13473439D01*
X18706605Y-13471347D01*
X18734637Y-13470093D01*
X18763684Y-13469674D01*
X19191598Y-13469674D01*
X19220598Y-13470093D01*
G37*
D12*
%TO.C,HOLE1*%
X84135000Y-20256401D02*
G75*
G03*
X82335000Y-20256401I-900000J0D01*
G01*
X82335000Y-20256401D02*
G75*
G03*
X84135000Y-20256401I900000J0D01*
G01*
%TO.C,HOLE3*%
X-165000Y-20256401D02*
G75*
G03*
X-1965000Y-20256401I-900000J0D01*
G01*
X-1965000Y-20256401D02*
G75*
G03*
X-165000Y-20256401I900000J0D01*
G01*
%TO.C,HOLE2*%
X84125000Y-5146401D02*
G75*
G03*
X82325000Y-5146401I-900000J0D01*
G01*
X82325000Y-5146401D02*
G75*
G03*
X84125000Y-5146401I900000J0D01*
G01*
%TO.C,HOLE4*%
X-165000Y-5146401D02*
G75*
G03*
X-1965000Y-5146401I-900000J0D01*
G01*
X-1965000Y-5146401D02*
G75*
G03*
X-165000Y-5146401I900000J0D01*
G01*
D13*
%TO.C,J2*%
X81775000Y-16401D02*
X81775000Y-2676401D01*
X2975000Y-16401D02*
X81775000Y-16401D01*
X2975000Y-16401D02*
X2975000Y-2676401D01*
X1705000Y-16401D02*
X375000Y-16401D01*
X375000Y-16401D02*
X375000Y-1346401D01*
X2975000Y-2676401D02*
X81775000Y-2676401D01*
%TO.C,J1*%
X81775000Y-22726401D02*
X81775000Y-25386401D01*
X2975000Y-22726401D02*
X81775000Y-22726401D01*
X2975000Y-22726401D02*
X2975000Y-25386401D01*
X1705000Y-22726401D02*
X375000Y-22726401D01*
X375000Y-22726401D02*
X375000Y-24056401D01*
X2975000Y-25386401D02*
X81775000Y-25386401D01*
%TD*%
%LPC*%
D14*
%TO.C,HOLE1*%
X83235000Y-20256401D03*
%TD*%
%TO.C,HOLE3*%
X-1065000Y-20256401D03*
%TD*%
%TO.C,HOLE2*%
X83225000Y-5146401D03*
%TD*%
D15*
%TO.C,USB1*%
X2614000Y-9810000D03*
X2614000Y-15590000D03*
D16*
X3114000Y-8375000D03*
X3114000Y-17025000D03*
D17*
X-1086000Y-8375000D03*
X-1086000Y-17025000D03*
%TD*%
D18*
%TO.C,J3*%
X83785000Y-8886401D03*
D19*
X83785000Y-11426401D03*
X83785000Y-13966401D03*
X83785000Y-16506401D03*
%TD*%
D14*
%TO.C,HOLE4*%
X-1065000Y-5146401D03*
%TD*%
D18*
%TO.C,J2*%
X1705000Y-1346401D03*
D19*
X4245000Y-1346401D03*
X6785000Y-1346401D03*
X9325000Y-1346401D03*
X11865000Y-1346401D03*
X14405000Y-1346401D03*
X16945000Y-1346401D03*
X19485000Y-1346401D03*
X22025000Y-1346401D03*
X24565000Y-1346401D03*
X27105000Y-1346401D03*
X29645000Y-1346401D03*
X32185000Y-1346401D03*
X34725000Y-1346401D03*
X37265000Y-1346401D03*
X39805000Y-1346401D03*
X42345000Y-1346401D03*
X44885000Y-1346401D03*
X47425000Y-1346401D03*
X49965000Y-1346401D03*
X52505000Y-1346401D03*
X55045000Y-1346401D03*
X57585000Y-1346401D03*
X60125000Y-1346401D03*
X62665000Y-1346401D03*
X65205000Y-1346401D03*
X67745000Y-1346401D03*
X70285000Y-1346401D03*
X72825000Y-1346401D03*
X75365000Y-1346401D03*
X77905000Y-1346401D03*
X80445000Y-1346401D03*
%TD*%
D18*
%TO.C,J1*%
X1705000Y-24056401D03*
D19*
X4245000Y-24056401D03*
X6785000Y-24056401D03*
X9325000Y-24056401D03*
X11865000Y-24056401D03*
X14405000Y-24056401D03*
X16945000Y-24056401D03*
X19485000Y-24056401D03*
X22025000Y-24056401D03*
X24565000Y-24056401D03*
X27105000Y-24056401D03*
X29645000Y-24056401D03*
X32185000Y-24056401D03*
X34725000Y-24056401D03*
X37265000Y-24056401D03*
X39805000Y-24056401D03*
X42345000Y-24056401D03*
X44885000Y-24056401D03*
X47425000Y-24056401D03*
X49965000Y-24056401D03*
X52505000Y-24056401D03*
X55045000Y-24056401D03*
X57585000Y-24056401D03*
X60125000Y-24056401D03*
X62665000Y-24056401D03*
X65205000Y-24056401D03*
X67745000Y-24056401D03*
X70285000Y-24056401D03*
X72825000Y-24056401D03*
X75365000Y-24056401D03*
X77905000Y-24056401D03*
X80445000Y-24056401D03*
%TD*%
%LPD*%
M02*
