%TF.GenerationSoftware,KiCad,Pcbnew,7.0.7*%
%TF.CreationDate,2023-08-30T18:59:36+08:00*%
%TF.ProjectId,UINIO-MCU-GD32F350RBT6,55494e49-4f2d-44d4-9355-2d4744333246,Version 3.0.0*%
%TF.SameCoordinates,PX6a581f0PY5923d30*%
%TF.FileFunction,Soldermask,Top*%
%TF.FilePolarity,Negative*%
%FSLAX46Y46*%
G04 Gerber Fmt 4.6, Leading zero omitted, Abs format (unit mm)*
G04 Created by KiCad (PCBNEW 7.0.7) date 2023-08-30 18:59:36*
%MOMM*%
%LPD*%
G01*
G04 APERTURE LIST*
G04 Aperture macros list*
%AMRoundRect*
0 Rectangle with rounded corners*
0 $1 Rounding radius*
0 $2 $3 $4 $5 $6 $7 $8 $9 X,Y pos of 4 corners*
0 Add a 4 corners polygon primitive as box body*
4,1,4,$2,$3,$4,$5,$6,$7,$8,$9,$2,$3,0*
0 Add four circle primitives for the rounded corners*
1,1,$1+$1,$2,$3*
1,1,$1+$1,$4,$5*
1,1,$1+$1,$6,$7*
1,1,$1+$1,$8,$9*
0 Add four rect primitives between the rounded corners*
20,1,$1+$1,$2,$3,$4,$5,0*
20,1,$1+$1,$4,$5,$6,$7,0*
20,1,$1+$1,$6,$7,$8,$9,0*
20,1,$1+$1,$8,$9,$2,$3,0*%
%AMHorizOval*
0 Thick line with rounded ends*
0 $1 width*
0 $2 $3 position (X,Y) of the first rounded end (center of the circle)*
0 $4 $5 position (X,Y) of the second rounded end (center of the circle)*
0 Add line between two ends*
20,1,$1,$2,$3,$4,$5,0*
0 Add two circle primitives to create the rounded ends*
1,1,$1,$2,$3*
1,1,$1,$4,$5*%
G04 Aperture macros list end*
%ADD10RoundRect,0.200000X-0.275000X0.200000X-0.275000X-0.200000X0.275000X-0.200000X0.275000X0.200000X0*%
%ADD11RoundRect,0.225000X-0.225000X-0.250000X0.225000X-0.250000X0.225000X0.250000X-0.225000X0.250000X0*%
%ADD12RoundRect,0.225000X-0.250000X0.225000X-0.250000X-0.225000X0.250000X-0.225000X0.250000X0.225000X0*%
%ADD13RoundRect,0.200000X-0.200000X-0.275000X0.200000X-0.275000X0.200000X0.275000X-0.200000X0.275000X0*%
%ADD14RoundRect,0.200000X0.275000X-0.200000X0.275000X0.200000X-0.275000X0.200000X-0.275000X-0.200000X0*%
%ADD15C,1.200000*%
%ADD16RoundRect,0.218750X0.256250X-0.218750X0.256250X0.218750X-0.256250X0.218750X-0.256250X-0.218750X0*%
%ADD17HorizOval,0.300000X-0.601041X-0.601041X0.601041X0.601041X0*%
%ADD18HorizOval,0.300000X0.601041X-0.601041X-0.601041X0.601041X0*%
%ADD19R,1.400000X1.200000*%
%ADD20RoundRect,0.200000X0.200000X0.275000X-0.200000X0.275000X-0.200000X-0.275000X0.200000X-0.275000X0*%
%ADD21R,1.000000X0.600000*%
%ADD22C,0.650000*%
%ADD23O,2.100000X1.000000*%
%ADD24O,1.900000X1.000000*%
%ADD25R,1.150000X0.600000*%
%ADD26R,1.150000X0.300000*%
%ADD27R,1.200000X0.650000*%
%ADD28R,1.700000X1.700000*%
%ADD29O,1.700000X1.700000*%
%ADD30RoundRect,0.225000X0.225000X0.250000X-0.225000X0.250000X-0.225000X-0.250000X0.225000X-0.250000X0*%
%ADD31R,1.800000X1.000000*%
%ADD32RoundRect,0.218750X0.218750X0.256250X-0.218750X0.256250X-0.218750X-0.256250X0.218750X-0.256250X0*%
G04 APERTURE END LIST*
D10*
%TO.C,R5*%
X66850000Y-6460000D03*
X66850000Y-8110000D03*
%TD*%
D11*
%TO.C,C8*%
X24165000Y-8540000D03*
X25715000Y-8540000D03*
%TD*%
D12*
%TO.C,C7*%
X64920000Y-12195000D03*
X64920000Y-13745000D03*
%TD*%
D13*
%TO.C,R11*%
X3910000Y-13760000D03*
X5560000Y-13760000D03*
%TD*%
D14*
%TO.C,R2*%
X53650000Y-8105000D03*
X53650000Y-6455000D03*
%TD*%
D10*
%TO.C,R6*%
X66860000Y-12145000D03*
X66860000Y-13795000D03*
%TD*%
D13*
%TO.C,R10*%
X3910000Y-6570000D03*
X5560000Y-6570000D03*
%TD*%
D15*
%TO.C,HOLE1*%
X81120000Y-17720000D03*
%TD*%
D16*
%TO.C,L1*%
X51730000Y-13862500D03*
X51730000Y-12287500D03*
%TD*%
D12*
%TO.C,C2*%
X64910000Y-6510000D03*
X64910000Y-8060000D03*
%TD*%
D14*
%TO.C,R3*%
X53670000Y-13900000D03*
X53670000Y-12250000D03*
%TD*%
D15*
%TO.C,HOLE3*%
X-3180000Y-17720000D03*
%TD*%
D10*
%TO.C,R4*%
X30110000Y-12485000D03*
X30110000Y-14135000D03*
%TD*%
D17*
%TO.C,U2*%
X34835849Y-11584214D03*
X35189402Y-11937767D03*
X35542955Y-12291320D03*
X35896509Y-12644874D03*
X36250062Y-12998427D03*
X36603616Y-13351981D03*
X36957169Y-13705534D03*
X37310722Y-14059087D03*
X37664276Y-14412641D03*
X38017829Y-14766194D03*
X38371382Y-15119747D03*
X38724936Y-15473301D03*
X39078489Y-15826854D03*
X39432043Y-16180408D03*
X39785596Y-16533961D03*
X40139149Y-16887514D03*
D18*
X42967577Y-16887514D03*
X43321130Y-16533961D03*
X43674683Y-16180408D03*
X44028237Y-15826854D03*
X44381790Y-15473301D03*
X44735344Y-15119747D03*
X45088897Y-14766194D03*
X45442450Y-14412641D03*
X45796004Y-14059087D03*
X46149557Y-13705534D03*
X46503110Y-13351981D03*
X46856664Y-12998427D03*
X47210217Y-12644874D03*
X47563771Y-12291320D03*
X47917324Y-11937767D03*
X48270877Y-11584214D03*
D17*
X48270877Y-8755786D03*
X47917324Y-8402233D03*
X47563771Y-8048680D03*
X47210217Y-7695126D03*
X46856664Y-7341573D03*
X46503110Y-6988019D03*
X46149557Y-6634466D03*
X45796004Y-6280913D03*
X45442450Y-5927359D03*
X45088897Y-5573806D03*
X44735344Y-5220253D03*
X44381790Y-4866699D03*
X44028237Y-4513146D03*
X43674683Y-4159592D03*
X43321130Y-3806039D03*
X42967577Y-3452486D03*
D18*
X40139149Y-3452486D03*
X39785596Y-3806039D03*
X39432043Y-4159592D03*
X39078489Y-4513146D03*
X38724936Y-4866699D03*
X38371382Y-5220253D03*
X38017829Y-5573806D03*
X37664276Y-5927359D03*
X37310722Y-6280913D03*
X36957169Y-6634466D03*
X36603616Y-6988019D03*
X36250062Y-7341573D03*
X35896509Y-7695126D03*
X35542955Y-8048680D03*
X35189402Y-8402233D03*
X34835849Y-8755786D03*
%TD*%
D19*
%TO.C,Y2*%
X26050000Y-14150000D03*
X28250000Y-14150000D03*
X28250000Y-12450000D03*
X26050000Y-12450000D03*
%TD*%
D11*
%TO.C,C9*%
X24165000Y-10510000D03*
X25715000Y-10510000D03*
%TD*%
D20*
%TO.C,R9*%
X17045000Y-11350000D03*
X15395000Y-11350000D03*
%TD*%
D12*
%TO.C,C5*%
X51730000Y-6505000D03*
X51730000Y-8055000D03*
%TD*%
D21*
%TO.C,U1*%
X13260000Y-7090000D03*
X13260000Y-8040000D03*
X13260000Y-8990000D03*
X15860000Y-8990000D03*
X15860000Y-7090000D03*
%TD*%
D12*
%TO.C,C1*%
X11680000Y-7435000D03*
X11680000Y-8985000D03*
%TD*%
%TO.C,C3*%
X17440000Y-7425000D03*
X17440000Y-8975000D03*
%TD*%
D15*
%TO.C,HOLE2*%
X81110000Y-2610000D03*
%TD*%
D20*
%TO.C,R7*%
X14085000Y-11350000D03*
X12435000Y-11350000D03*
%TD*%
D22*
%TO.C,USB1*%
X499000Y-7273599D03*
X499000Y-13053599D03*
D23*
X999000Y-5838599D03*
X999000Y-14488599D03*
D24*
X-3201000Y-5838599D03*
X-3201000Y-14488599D03*
D25*
X1761000Y-6963599D03*
X1761000Y-7763599D03*
D26*
X1761000Y-8913599D03*
X1761000Y-9913599D03*
X1761000Y-10413599D03*
X1761000Y-11413599D03*
D25*
X1761000Y-13363599D03*
X1761000Y-12563599D03*
D26*
X1761000Y-11913599D03*
X1761000Y-10913599D03*
X1761000Y-9413599D03*
X1761000Y-8413599D03*
%TD*%
D11*
%TO.C,C4*%
X31085000Y-7360000D03*
X32635000Y-7360000D03*
%TD*%
D27*
%TO.C,SW2*%
X57520000Y-11885000D03*
X61820000Y-11885000D03*
X57520000Y-14035000D03*
X61820000Y-14035000D03*
%TD*%
D20*
%TO.C,R1*%
X14085000Y-14270000D03*
X12435000Y-14270000D03*
%TD*%
%TO.C,R8*%
X14085000Y-12810000D03*
X12435000Y-12810000D03*
%TD*%
D28*
%TO.C,J3*%
X81670000Y-6350000D03*
D29*
X81670000Y-8890000D03*
X81670000Y-11430000D03*
X81670000Y-13970000D03*
%TD*%
D27*
%TO.C,SW1*%
X57490000Y-6245000D03*
X61790000Y-6245000D03*
X57490000Y-8395000D03*
X61790000Y-8395000D03*
%TD*%
D30*
%TO.C,C6*%
X24205000Y-12310000D03*
X22655000Y-12310000D03*
%TD*%
D31*
%TO.C,Y1*%
X27600000Y-10780000D03*
X27600000Y-8280000D03*
%TD*%
D15*
%TO.C,HOLE4*%
X-3180000Y-2610000D03*
%TD*%
D32*
%TO.C,D1*%
X17007500Y-14270000D03*
X15432500Y-14270000D03*
%TD*%
D11*
%TO.C,C10*%
X22645000Y-14260000D03*
X24195000Y-14260000D03*
%TD*%
D28*
%TO.C,J2*%
X-410000Y-1340000D03*
D29*
X2130000Y-1340000D03*
X4670000Y-1340000D03*
X7210000Y-1340000D03*
X9750000Y-1340000D03*
X12290000Y-1340000D03*
X14830000Y-1340000D03*
X17370000Y-1340000D03*
X19910000Y-1340000D03*
X22450000Y-1340000D03*
X24990000Y-1340000D03*
X27530000Y-1340000D03*
X30070000Y-1340000D03*
X32610000Y-1340000D03*
X35150000Y-1340000D03*
X37690000Y-1340000D03*
X40230000Y-1340000D03*
X42770000Y-1340000D03*
X45310000Y-1340000D03*
X47850000Y-1340000D03*
X50390000Y-1340000D03*
X52930000Y-1340000D03*
X55470000Y-1340000D03*
X58010000Y-1340000D03*
X60550000Y-1340000D03*
X63090000Y-1340000D03*
X65630000Y-1340000D03*
X68170000Y-1340000D03*
X70710000Y-1340000D03*
X73250000Y-1340000D03*
X75790000Y-1340000D03*
X78330000Y-1340000D03*
%TD*%
D28*
%TO.C,J1*%
X-410000Y-18990000D03*
D29*
X2130000Y-18990000D03*
X4670000Y-18990000D03*
X7210000Y-18990000D03*
X9750000Y-18990000D03*
X12290000Y-18990000D03*
X14830000Y-18990000D03*
X17370000Y-18990000D03*
X19910000Y-18990000D03*
X22450000Y-18990000D03*
X24990000Y-18990000D03*
X27530000Y-18990000D03*
X30070000Y-18990000D03*
X32610000Y-18990000D03*
X35150000Y-18990000D03*
X37690000Y-18990000D03*
X40230000Y-18990000D03*
X42770000Y-18990000D03*
X45310000Y-18990000D03*
X47850000Y-18990000D03*
X50390000Y-18990000D03*
X52930000Y-18990000D03*
X55470000Y-18990000D03*
X58010000Y-18990000D03*
X60550000Y-18990000D03*
X63090000Y-18990000D03*
X65630000Y-18990000D03*
X68170000Y-18990000D03*
X70710000Y-18990000D03*
X73250000Y-18990000D03*
X75790000Y-18990000D03*
X78330000Y-18990000D03*
%TD*%
M02*
