%TF.GenerationSoftware,KiCad,Pcbnew,7.0.5*%
%TF.CreationDate,2023-06-29T01:51:06+08:00*%
%TF.ProjectId,UINIO-MCU-GD32F350RBT6,55494e49-4f2d-44d4-9355-2d4744333246,Version 2.0.0*%
%TF.SameCoordinates,PX6a581f0PY5923d30*%
%TF.FileFunction,Soldermask,Bot*%
%TF.FilePolarity,Negative*%
%FSLAX46Y46*%
G04 Gerber Fmt 4.6, Leading zero omitted, Abs format (unit mm)*
G04 Created by KiCad (PCBNEW 7.0.5) date 2023-06-29 01:51:06*
%MOMM*%
%LPD*%
G01*
G04 APERTURE LIST*
%ADD10C,1.200000*%
%ADD11C,0.650000*%
%ADD12O,2.100000X1.000000*%
%ADD13O,1.900000X1.000000*%
%ADD14R,1.700000X1.700000*%
%ADD15O,1.700000X1.700000*%
G04 APERTURE END LIST*
D10*
%TO.C,HOLE1*%
X-1460000Y-2600000D03*
%TD*%
%TO.C,HOLE3*%
X82840000Y-2600000D03*
%TD*%
%TO.C,HOLE2*%
X-1450000Y-17710000D03*
%TD*%
D11*
%TO.C,USB1*%
X79161000Y-13046401D03*
X79161000Y-7266401D03*
D12*
X78661000Y-14481401D03*
X78661000Y-5831401D03*
D13*
X82861000Y-14481401D03*
X82861000Y-5831401D03*
%TD*%
D14*
%TO.C,J3*%
X-2010000Y-13970000D03*
D15*
X-2010000Y-11430000D03*
X-2010000Y-8890000D03*
X-2010000Y-6350000D03*
%TD*%
D10*
%TO.C,HOLE4*%
X82840000Y-17710000D03*
%TD*%
D14*
%TO.C,J2*%
X80070000Y-18980000D03*
D15*
X77530000Y-18980000D03*
X74990000Y-18980000D03*
X72450000Y-18980000D03*
X69910000Y-18980000D03*
X67370000Y-18980000D03*
X64830000Y-18980000D03*
X62290000Y-18980000D03*
X59750000Y-18980000D03*
X57210000Y-18980000D03*
X54670000Y-18980000D03*
X52130000Y-18980000D03*
X49590000Y-18980000D03*
X47050000Y-18980000D03*
X44510000Y-18980000D03*
X41970000Y-18980000D03*
X39430000Y-18980000D03*
X36890000Y-18980000D03*
X34350000Y-18980000D03*
X31810000Y-18980000D03*
X29270000Y-18980000D03*
X26730000Y-18980000D03*
X24190000Y-18980000D03*
X21650000Y-18980000D03*
X19110000Y-18980000D03*
X16570000Y-18980000D03*
X14030000Y-18980000D03*
X11490000Y-18980000D03*
X8950000Y-18980000D03*
X6410000Y-18980000D03*
X3870000Y-18980000D03*
X1330000Y-18980000D03*
%TD*%
D14*
%TO.C,J1*%
X80070000Y-1330000D03*
D15*
X77530000Y-1330000D03*
X74990000Y-1330000D03*
X72450000Y-1330000D03*
X69910000Y-1330000D03*
X67370000Y-1330000D03*
X64830000Y-1330000D03*
X62290000Y-1330000D03*
X59750000Y-1330000D03*
X57210000Y-1330000D03*
X54670000Y-1330000D03*
X52130000Y-1330000D03*
X49590000Y-1330000D03*
X47050000Y-1330000D03*
X44510000Y-1330000D03*
X41970000Y-1330000D03*
X39430000Y-1330000D03*
X36890000Y-1330000D03*
X34350000Y-1330000D03*
X31810000Y-1330000D03*
X29270000Y-1330000D03*
X26730000Y-1330000D03*
X24190000Y-1330000D03*
X21650000Y-1330000D03*
X19110000Y-1330000D03*
X16570000Y-1330000D03*
X14030000Y-1330000D03*
X11490000Y-1330000D03*
X8950000Y-1330000D03*
X6410000Y-1330000D03*
X3870000Y-1330000D03*
X1330000Y-1330000D03*
%TD*%
M02*
