%TF.GenerationSoftware,KiCad,Pcbnew,7.0.11*%
%TF.CreationDate,2024-04-13T18:05:42+08:00*%
%TF.ProjectId,UINIO-MCU-GD32F350RBT6,55494e49-4f2d-44d4-9355-2d4744333246,Version 3.3.0*%
%TF.SameCoordinates,PX6853c38PY56b895f*%
%TF.FileFunction,Soldermask,Top*%
%TF.FilePolarity,Negative*%
%FSLAX46Y46*%
G04 Gerber Fmt 4.6, Leading zero omitted, Abs format (unit mm)*
G04 Created by KiCad (PCBNEW 7.0.11) date 2024-04-13 18:05:42*
%MOMM*%
%LPD*%
G01*
G04 APERTURE LIST*
G04 Aperture macros list*
%AMRoundRect*
0 Rectangle with rounded corners*
0 $1 Rounding radius*
0 $2 $3 $4 $5 $6 $7 $8 $9 X,Y pos of 4 corners*
0 Add a 4 corners polygon primitive as box body*
4,1,4,$2,$3,$4,$5,$6,$7,$8,$9,$2,$3,0*
0 Add four circle primitives for the rounded corners*
1,1,$1+$1,$2,$3*
1,1,$1+$1,$4,$5*
1,1,$1+$1,$6,$7*
1,1,$1+$1,$8,$9*
0 Add four rect primitives between the rounded corners*
20,1,$1+$1,$2,$3,$4,$5,0*
20,1,$1+$1,$4,$5,$6,$7,0*
20,1,$1+$1,$6,$7,$8,$9,0*
20,1,$1+$1,$8,$9,$2,$3,0*%
%AMHorizOval*
0 Thick line with rounded ends*
0 $1 width*
0 $2 $3 position (X,Y) of the first rounded end (center of the circle)*
0 $4 $5 position (X,Y) of the second rounded end (center of the circle)*
0 Add line between two ends*
20,1,$1,$2,$3,$4,$5,0*
0 Add two circle primitives to create the rounded ends*
1,1,$1,$2,$3*
1,1,$1,$4,$5*%
G04 Aperture macros list end*
%ADD10RoundRect,0.200000X-0.275000X0.200000X-0.275000X-0.200000X0.275000X-0.200000X0.275000X0.200000X0*%
%ADD11RoundRect,0.225000X-0.225000X-0.250000X0.225000X-0.250000X0.225000X0.250000X-0.225000X0.250000X0*%
%ADD12RoundRect,0.225000X-0.250000X0.225000X-0.250000X-0.225000X0.250000X-0.225000X0.250000X0.225000X0*%
%ADD13RoundRect,0.200000X-0.200000X-0.275000X0.200000X-0.275000X0.200000X0.275000X-0.200000X0.275000X0*%
%ADD14RoundRect,0.225000X0.225000X0.250000X-0.225000X0.250000X-0.225000X-0.250000X0.225000X-0.250000X0*%
%ADD15RoundRect,0.200000X0.275000X-0.200000X0.275000X0.200000X-0.275000X0.200000X-0.275000X-0.200000X0*%
%ADD16C,1.200000*%
%ADD17RoundRect,0.218750X0.256250X-0.218750X0.256250X0.218750X-0.256250X0.218750X-0.256250X-0.218750X0*%
%ADD18HorizOval,0.300000X-0.601041X-0.601041X0.601041X0.601041X0*%
%ADD19HorizOval,0.300000X0.601041X-0.601041X-0.601041X0.601041X0*%
%ADD20R,1.200000X1.400000*%
%ADD21R,1.000000X0.600000*%
%ADD22RoundRect,0.225000X0.250000X-0.225000X0.250000X0.225000X-0.250000X0.225000X-0.250000X-0.225000X0*%
%ADD23RoundRect,0.200000X0.200000X0.275000X-0.200000X0.275000X-0.200000X-0.275000X0.200000X-0.275000X0*%
%ADD24C,0.650000*%
%ADD25O,2.100000X1.000000*%
%ADD26O,1.900000X1.000000*%
%ADD27R,1.150000X0.600000*%
%ADD28R,1.150000X0.300000*%
%ADD29R,1.200000X0.650000*%
%ADD30R,1.700000X1.700000*%
%ADD31O,1.700000X1.700000*%
%ADD32R,1.800000X1.000000*%
%ADD33RoundRect,0.218750X-0.256250X0.218750X-0.256250X-0.218750X0.256250X-0.218750X0.256250X0.218750X0*%
G04 APERTURE END LIST*
D10*
%TO.C,R5*%
X68965000Y-8681401D03*
X68965000Y-10331401D03*
%TD*%
D11*
%TO.C,C8*%
X24775000Y-9506401D03*
X26325000Y-9506401D03*
%TD*%
D12*
%TO.C,C7*%
X67035000Y-15161401D03*
X67035000Y-16711401D03*
%TD*%
D13*
%TO.C,R11*%
X15275000Y-16276401D03*
X16925000Y-16276401D03*
%TD*%
D14*
%TO.C,C11*%
X34890000Y-14706401D03*
X33340000Y-14706401D03*
%TD*%
D15*
%TO.C,R2*%
X55765000Y-10331401D03*
X55765000Y-8681401D03*
%TD*%
D10*
%TO.C,R6*%
X68975000Y-15111401D03*
X68975000Y-16761401D03*
%TD*%
D13*
%TO.C,R10*%
X15275000Y-11896401D03*
X16925000Y-11896401D03*
%TD*%
D16*
%TO.C,HOLE1*%
X83235000Y-20256401D03*
%TD*%
D17*
%TO.C,L1*%
X53845000Y-16723901D03*
X53845000Y-15148901D03*
%TD*%
D12*
%TO.C,C2*%
X67025000Y-8731401D03*
X67025000Y-10281401D03*
%TD*%
D15*
%TO.C,R3*%
X55785000Y-16761401D03*
X55785000Y-15111401D03*
%TD*%
D16*
%TO.C,HOLE3*%
X-1065000Y-20256401D03*
%TD*%
D18*
%TO.C,U2*%
X36950849Y-14114214D03*
X37304402Y-14467767D03*
X37657955Y-14821320D03*
X38011509Y-15174874D03*
X38365062Y-15528427D03*
X38718616Y-15881981D03*
X39072169Y-16235534D03*
X39425722Y-16589087D03*
X39779276Y-16942641D03*
X40132829Y-17296194D03*
X40486382Y-17649747D03*
X40839936Y-18003301D03*
X41193489Y-18356854D03*
X41547043Y-18710408D03*
X41900596Y-19063961D03*
X42254149Y-19417514D03*
D19*
X45082577Y-19417514D03*
X45436130Y-19063961D03*
X45789683Y-18710408D03*
X46143237Y-18356854D03*
X46496790Y-18003301D03*
X46850344Y-17649747D03*
X47203897Y-17296194D03*
X47557450Y-16942641D03*
X47911004Y-16589087D03*
X48264557Y-16235534D03*
X48618110Y-15881981D03*
X48971664Y-15528427D03*
X49325217Y-15174874D03*
X49678771Y-14821320D03*
X50032324Y-14467767D03*
X50385877Y-14114214D03*
D18*
X50385877Y-11285786D03*
X50032324Y-10932233D03*
X49678771Y-10578680D03*
X49325217Y-10225126D03*
X48971664Y-9871573D03*
X48618110Y-9518019D03*
X48264557Y-9164466D03*
X47911004Y-8810913D03*
X47557450Y-8457359D03*
X47203897Y-8103806D03*
X46850344Y-7750253D03*
X46496790Y-7396699D03*
X46143237Y-7043146D03*
X45789683Y-6689592D03*
X45436130Y-6336039D03*
X45082577Y-5982486D03*
D19*
X42254149Y-5982486D03*
X41900596Y-6336039D03*
X41547043Y-6689592D03*
X41193489Y-7043146D03*
X40839936Y-7396699D03*
X40486382Y-7750253D03*
X40132829Y-8103806D03*
X39779276Y-8457359D03*
X39425722Y-8810913D03*
X39072169Y-9164466D03*
X38718616Y-9518019D03*
X38365062Y-9871573D03*
X38011509Y-10225126D03*
X37657955Y-10578680D03*
X37304402Y-10932233D03*
X36950849Y-11285786D03*
%TD*%
D20*
%TO.C,Y2*%
X29565000Y-18076401D03*
X29565000Y-15876401D03*
X27865000Y-15876401D03*
X27865000Y-18076401D03*
%TD*%
D11*
%TO.C,C9*%
X24775000Y-11716401D03*
X26325000Y-11716401D03*
%TD*%
D12*
%TO.C,C5*%
X53845000Y-8731401D03*
X53845000Y-10281401D03*
%TD*%
D21*
%TO.C,U1*%
X15375000Y-7451401D03*
X15375000Y-8401401D03*
X15375000Y-9351401D03*
X17975000Y-9351401D03*
X17975000Y-7451401D03*
%TD*%
D12*
%TO.C,C1*%
X13795000Y-7796401D03*
X13795000Y-9346401D03*
%TD*%
D22*
%TO.C,C3*%
X19555000Y-8981401D03*
X19555000Y-7431401D03*
%TD*%
D16*
%TO.C,HOLE2*%
X83225000Y-5146401D03*
%TD*%
D23*
%TO.C,R7*%
X16925000Y-13356401D03*
X15275000Y-13356401D03*
%TD*%
D24*
%TO.C,USB1*%
X2614000Y-9810000D03*
X2614000Y-15590000D03*
D25*
X3114000Y-8375000D03*
X3114000Y-17025000D03*
D26*
X-1086000Y-8375000D03*
X-1086000Y-17025000D03*
D27*
X3876000Y-9500000D03*
X3876000Y-10300000D03*
D28*
X3876000Y-11450000D03*
X3876000Y-12450000D03*
X3876000Y-12950000D03*
X3876000Y-13950000D03*
D27*
X3876000Y-15900000D03*
X3876000Y-15100000D03*
D28*
X3876000Y-14450000D03*
X3876000Y-13450000D03*
X3876000Y-11950000D03*
X3876000Y-10950000D03*
%TD*%
D11*
%TO.C,C4*%
X33340000Y-10656401D03*
X34890000Y-10656401D03*
%TD*%
D29*
%TO.C,SW2*%
X60035000Y-15106401D03*
X64335000Y-15106401D03*
X60035000Y-17256401D03*
X64335000Y-17256401D03*
%TD*%
D23*
%TO.C,R1*%
X16925000Y-17736401D03*
X15275000Y-17736401D03*
%TD*%
%TO.C,R8*%
X16925000Y-14816401D03*
X15275000Y-14816401D03*
%TD*%
D30*
%TO.C,J3*%
X83785000Y-8886401D03*
D31*
X83785000Y-11426401D03*
X83785000Y-13966401D03*
X83785000Y-16506401D03*
%TD*%
D29*
%TO.C,SW1*%
X60035000Y-8136401D03*
X64335000Y-8136401D03*
X60035000Y-10286401D03*
X64335000Y-10286401D03*
%TD*%
D11*
%TO.C,C6*%
X24775000Y-18076401D03*
X26325000Y-18076401D03*
%TD*%
D32*
%TO.C,Y1*%
X28210000Y-11856401D03*
X28210000Y-9356401D03*
%TD*%
D16*
%TO.C,HOLE4*%
X-1065000Y-5146401D03*
%TD*%
D33*
%TO.C,D1*%
X18910000Y-16166401D03*
X18910000Y-17741401D03*
%TD*%
D11*
%TO.C,C10*%
X24775000Y-15876401D03*
X26325000Y-15876401D03*
%TD*%
D30*
%TO.C,J2*%
X1705000Y-1346401D03*
D31*
X4245000Y-1346401D03*
X6785000Y-1346401D03*
X9325000Y-1346401D03*
X11865000Y-1346401D03*
X14405000Y-1346401D03*
X16945000Y-1346401D03*
X19485000Y-1346401D03*
X22025000Y-1346401D03*
X24565000Y-1346401D03*
X27105000Y-1346401D03*
X29645000Y-1346401D03*
X32185000Y-1346401D03*
X34725000Y-1346401D03*
X37265000Y-1346401D03*
X39805000Y-1346401D03*
X42345000Y-1346401D03*
X44885000Y-1346401D03*
X47425000Y-1346401D03*
X49965000Y-1346401D03*
X52505000Y-1346401D03*
X55045000Y-1346401D03*
X57585000Y-1346401D03*
X60125000Y-1346401D03*
X62665000Y-1346401D03*
X65205000Y-1346401D03*
X67745000Y-1346401D03*
X70285000Y-1346401D03*
X72825000Y-1346401D03*
X75365000Y-1346401D03*
X77905000Y-1346401D03*
X80445000Y-1346401D03*
%TD*%
D30*
%TO.C,J1*%
X1705000Y-24056401D03*
D31*
X4245000Y-24056401D03*
X6785000Y-24056401D03*
X9325000Y-24056401D03*
X11865000Y-24056401D03*
X14405000Y-24056401D03*
X16945000Y-24056401D03*
X19485000Y-24056401D03*
X22025000Y-24056401D03*
X24565000Y-24056401D03*
X27105000Y-24056401D03*
X29645000Y-24056401D03*
X32185000Y-24056401D03*
X34725000Y-24056401D03*
X37265000Y-24056401D03*
X39805000Y-24056401D03*
X42345000Y-24056401D03*
X44885000Y-24056401D03*
X47425000Y-24056401D03*
X49965000Y-24056401D03*
X52505000Y-24056401D03*
X55045000Y-24056401D03*
X57585000Y-24056401D03*
X60125000Y-24056401D03*
X62665000Y-24056401D03*
X65205000Y-24056401D03*
X67745000Y-24056401D03*
X70285000Y-24056401D03*
X72825000Y-24056401D03*
X75365000Y-24056401D03*
X77905000Y-24056401D03*
X80445000Y-24056401D03*
%TD*%
M02*
