%TF.GenerationSoftware,KiCad,Pcbnew,7.0.11*%
%TF.CreationDate,2024-04-12T14:09:29+08:00*%
%TF.ProjectId,UINIO-MCU-GD32F350RBT6,55494e49-4f2d-44d4-9355-2d4744333246,Version 3.3.0*%
%TF.SameCoordinates,PX6853c38PY56b895f*%
%TF.FileFunction,Soldermask,Bot*%
%TF.FilePolarity,Negative*%
%FSLAX46Y46*%
G04 Gerber Fmt 4.6, Leading zero omitted, Abs format (unit mm)*
G04 Created by KiCad (PCBNEW 7.0.11) date 2024-04-12 14:09:29*
%MOMM*%
%LPD*%
G01*
G04 APERTURE LIST*
%ADD10C,1.200000*%
%ADD11C,0.650000*%
%ADD12O,2.100000X1.000000*%
%ADD13O,1.900000X1.000000*%
%ADD14R,1.700000X1.700000*%
%ADD15O,1.700000X1.700000*%
G04 APERTURE END LIST*
D10*
%TO.C,HOLE1*%
X83235000Y-20256401D03*
%TD*%
%TO.C,HOLE3*%
X-1065000Y-20256401D03*
%TD*%
%TO.C,HOLE2*%
X83225000Y-5146401D03*
%TD*%
D11*
%TO.C,USB1*%
X2614000Y-9810000D03*
X2614000Y-15590000D03*
D12*
X3114000Y-8375000D03*
X3114000Y-17025000D03*
D13*
X-1086000Y-8375000D03*
X-1086000Y-17025000D03*
%TD*%
D14*
%TO.C,J3*%
X83785000Y-8886401D03*
D15*
X83785000Y-11426401D03*
X83785000Y-13966401D03*
X83785000Y-16506401D03*
%TD*%
D10*
%TO.C,HOLE4*%
X-1065000Y-5146401D03*
%TD*%
D14*
%TO.C,J2*%
X1705000Y-1346401D03*
D15*
X4245000Y-1346401D03*
X6785000Y-1346401D03*
X9325000Y-1346401D03*
X11865000Y-1346401D03*
X14405000Y-1346401D03*
X16945000Y-1346401D03*
X19485000Y-1346401D03*
X22025000Y-1346401D03*
X24565000Y-1346401D03*
X27105000Y-1346401D03*
X29645000Y-1346401D03*
X32185000Y-1346401D03*
X34725000Y-1346401D03*
X37265000Y-1346401D03*
X39805000Y-1346401D03*
X42345000Y-1346401D03*
X44885000Y-1346401D03*
X47425000Y-1346401D03*
X49965000Y-1346401D03*
X52505000Y-1346401D03*
X55045000Y-1346401D03*
X57585000Y-1346401D03*
X60125000Y-1346401D03*
X62665000Y-1346401D03*
X65205000Y-1346401D03*
X67745000Y-1346401D03*
X70285000Y-1346401D03*
X72825000Y-1346401D03*
X75365000Y-1346401D03*
X77905000Y-1346401D03*
X80445000Y-1346401D03*
%TD*%
D14*
%TO.C,J1*%
X1705000Y-24056401D03*
D15*
X4245000Y-24056401D03*
X6785000Y-24056401D03*
X9325000Y-24056401D03*
X11865000Y-24056401D03*
X14405000Y-24056401D03*
X16945000Y-24056401D03*
X19485000Y-24056401D03*
X22025000Y-24056401D03*
X24565000Y-24056401D03*
X27105000Y-24056401D03*
X29645000Y-24056401D03*
X32185000Y-24056401D03*
X34725000Y-24056401D03*
X37265000Y-24056401D03*
X39805000Y-24056401D03*
X42345000Y-24056401D03*
X44885000Y-24056401D03*
X47425000Y-24056401D03*
X49965000Y-24056401D03*
X52505000Y-24056401D03*
X55045000Y-24056401D03*
X57585000Y-24056401D03*
X60125000Y-24056401D03*
X62665000Y-24056401D03*
X65205000Y-24056401D03*
X67745000Y-24056401D03*
X70285000Y-24056401D03*
X72825000Y-24056401D03*
X75365000Y-24056401D03*
X77905000Y-24056401D03*
X80445000Y-24056401D03*
%TD*%
M02*
