%TF.GenerationSoftware,KiCad,Pcbnew,(6.0.9)*%
%TF.CreationDate,2022-12-12T19:53:13+08:00*%
%TF.ProjectId,UINIO-MCU-GD32F350RBT6,55494e49-4f2d-44d4-9355-2d4744333246,Version 1.0.0*%
%TF.SameCoordinates,PX6a581f0PY5923d30*%
%TF.FileFunction,Copper,L1,Top*%
%TF.FilePolarity,Positive*%
%FSLAX46Y46*%
G04 Gerber Fmt 4.6, Leading zero omitted, Abs format (unit mm)*
G04 Created by KiCad (PCBNEW (6.0.9)) date 2022-12-12 19:53:13*
%MOMM*%
%LPD*%
G01*
G04 APERTURE LIST*
G04 Aperture macros list*
%AMRoundRect*
0 Rectangle with rounded corners*
0 $1 Rounding radius*
0 $2 $3 $4 $5 $6 $7 $8 $9 X,Y pos of 4 corners*
0 Add a 4 corners polygon primitive as box body*
4,1,4,$2,$3,$4,$5,$6,$7,$8,$9,$2,$3,0*
0 Add four circle primitives for the rounded corners*
1,1,$1+$1,$2,$3*
1,1,$1+$1,$4,$5*
1,1,$1+$1,$6,$7*
1,1,$1+$1,$8,$9*
0 Add four rect primitives between the rounded corners*
20,1,$1+$1,$2,$3,$4,$5,0*
20,1,$1+$1,$4,$5,$6,$7,0*
20,1,$1+$1,$6,$7,$8,$9,0*
20,1,$1+$1,$8,$9,$2,$3,0*%
%AMHorizOval*
0 Thick line with rounded ends*
0 $1 width*
0 $2 $3 position (X,Y) of the first rounded end (center of the circle)*
0 $4 $5 position (X,Y) of the second rounded end (center of the circle)*
0 Add line between two ends*
20,1,$1,$2,$3,$4,$5,0*
0 Add two circle primitives to create the rounded ends*
1,1,$1,$2,$3*
1,1,$1,$4,$5*%
G04 Aperture macros list end*
%TA.AperFunction,SMDPad,CuDef*%
%ADD10RoundRect,0.200000X0.275000X-0.200000X0.275000X0.200000X-0.275000X0.200000X-0.275000X-0.200000X0*%
%TD*%
%TA.AperFunction,SMDPad,CuDef*%
%ADD11RoundRect,0.225000X0.225000X0.250000X-0.225000X0.250000X-0.225000X-0.250000X0.225000X-0.250000X0*%
%TD*%
%TA.AperFunction,SMDPad,CuDef*%
%ADD12RoundRect,0.225000X0.250000X-0.225000X0.250000X0.225000X-0.250000X0.225000X-0.250000X-0.225000X0*%
%TD*%
%TA.AperFunction,SMDPad,CuDef*%
%ADD13RoundRect,0.200000X-0.275000X0.200000X-0.275000X-0.200000X0.275000X-0.200000X0.275000X0.200000X0*%
%TD*%
%TA.AperFunction,ComponentPad*%
%ADD14C,1.200000*%
%TD*%
%TA.AperFunction,SMDPad,CuDef*%
%ADD15RoundRect,0.218750X-0.256250X0.218750X-0.256250X-0.218750X0.256250X-0.218750X0.256250X0.218750X0*%
%TD*%
%TA.AperFunction,SMDPad,CuDef*%
%ADD16HorizOval,0.300000X0.601041X0.601041X-0.601041X-0.601041X0*%
%TD*%
%TA.AperFunction,SMDPad,CuDef*%
%ADD17HorizOval,0.300000X-0.601041X0.601041X0.601041X-0.601041X0*%
%TD*%
%TA.AperFunction,SMDPad,CuDef*%
%ADD18R,1.400000X1.200000*%
%TD*%
%TA.AperFunction,SMDPad,CuDef*%
%ADD19RoundRect,0.200000X-0.200000X-0.275000X0.200000X-0.275000X0.200000X0.275000X-0.200000X0.275000X0*%
%TD*%
%TA.AperFunction,SMDPad,CuDef*%
%ADD20R,1.000000X0.600000*%
%TD*%
%TA.AperFunction,ComponentPad*%
%ADD21O,2.100000X1.000000*%
%TD*%
%TA.AperFunction,ComponentPad*%
%ADD22O,1.900000X1.000000*%
%TD*%
%TA.AperFunction,SMDPad,CuDef*%
%ADD23R,1.150000X0.600000*%
%TD*%
%TA.AperFunction,SMDPad,CuDef*%
%ADD24R,1.150000X0.300000*%
%TD*%
%TA.AperFunction,SMDPad,CuDef*%
%ADD25R,1.200000X0.650000*%
%TD*%
%TA.AperFunction,ComponentPad*%
%ADD26R,1.700000X1.700000*%
%TD*%
%TA.AperFunction,ComponentPad*%
%ADD27O,1.700000X1.700000*%
%TD*%
%TA.AperFunction,SMDPad,CuDef*%
%ADD28RoundRect,0.225000X-0.225000X-0.250000X0.225000X-0.250000X0.225000X0.250000X-0.225000X0.250000X0*%
%TD*%
%TA.AperFunction,SMDPad,CuDef*%
%ADD29R,1.800000X1.000000*%
%TD*%
%TA.AperFunction,SMDPad,CuDef*%
%ADD30RoundRect,0.218750X-0.218750X-0.256250X0.218750X-0.256250X0.218750X0.256250X-0.218750X0.256250X0*%
%TD*%
%TA.AperFunction,ViaPad*%
%ADD31C,0.500000*%
%TD*%
%TA.AperFunction,ViaPad*%
%ADD32C,0.900000*%
%TD*%
%TA.AperFunction,ViaPad*%
%ADD33C,0.700000*%
%TD*%
%TA.AperFunction,ViaPad*%
%ADD34C,1.100000*%
%TD*%
%TA.AperFunction,Conductor*%
%ADD35C,0.300000*%
%TD*%
%TA.AperFunction,Conductor*%
%ADD36C,0.500000*%
%TD*%
%TA.AperFunction,Conductor*%
%ADD37C,0.200000*%
%TD*%
G04 APERTURE END LIST*
D10*
%TO.P,R5,1*%
%TO.N,GND*%
X12810000Y-13860000D03*
%TO.P,R5,2*%
%TO.N,/PA14{slash}SWCLK*%
X12810000Y-12210000D03*
%TD*%
D11*
%TO.P,C8,1*%
%TO.N,GND*%
X55495000Y-11780000D03*
%TO.P,C8,2*%
%TO.N,Net-(C8-Pad2)*%
X53945000Y-11780000D03*
%TD*%
D12*
%TO.P,C7,1*%
%TO.N,/NRST*%
X14740000Y-8125000D03*
%TO.P,C7,2*%
%TO.N,GND*%
X14740000Y-6575000D03*
%TD*%
D13*
%TO.P,R2,1*%
%TO.N,/BOOT0*%
X26010000Y-12215000D03*
%TO.P,R2,2*%
%TO.N,GND*%
X26010000Y-13865000D03*
%TD*%
D10*
%TO.P,R6,1*%
%TO.N,/PA13{slash}SWDIO*%
X12800000Y-8175000D03*
%TO.P,R6,2*%
%TO.N,/VDD_3.3V*%
X12800000Y-6525000D03*
%TD*%
D14*
%TO.P,HOLE1,*%
%TO.N,*%
X8850000Y-7590000D03*
%TD*%
D15*
%TO.P,L1,1,1*%
%TO.N,GND*%
X27930000Y-6457500D03*
%TO.P,L1,2,2*%
%TO.N,/VSSA*%
X27930000Y-8032500D03*
%TD*%
D12*
%TO.P,C2,1*%
%TO.N,GND*%
X14750000Y-13810000D03*
%TO.P,C2,2*%
%TO.N,/BOOT0*%
X14750000Y-12260000D03*
%TD*%
D13*
%TO.P,R3,1*%
%TO.N,/VDD_3.3V*%
X25990000Y-6420000D03*
%TO.P,R3,2*%
%TO.N,/NRST*%
X25990000Y-8070000D03*
%TD*%
D14*
%TO.P,HOLE3,*%
%TO.N,*%
X70860000Y-7580000D03*
%TD*%
D10*
%TO.P,R4,1*%
%TO.N,/PF0*%
X49550000Y-7835000D03*
%TO.P,R4,2*%
%TO.N,/PF1*%
X49550000Y-6185000D03*
%TD*%
D16*
%TO.P,U2,1,VBAT*%
%TO.N,/VBAT*%
X44824151Y-8735786D03*
%TO.P,U2,2,PC13*%
%TO.N,/PC13*%
X44470598Y-8382233D03*
%TO.P,U2,3,PC14-OSC32IN*%
%TO.N,Net-(C8-Pad2)*%
X44117045Y-8028680D03*
%TO.P,U2,4,PC15-OSC32OUT*%
%TO.N,Net-(C9-Pad2)*%
X43763491Y-7675126D03*
%TO.P,U2,5,PF0-OSCIN*%
%TO.N,/PF0*%
X43409938Y-7321573D03*
%TO.P,U2,6,PF1-OSCOUT*%
%TO.N,/PF1*%
X43056384Y-6968019D03*
%TO.P,U2,7,NRST*%
%TO.N,/NRST*%
X42702831Y-6614466D03*
%TO.P,U2,8,PC0*%
%TO.N,/PC0*%
X42349278Y-6260913D03*
%TO.P,U2,9,PC1*%
%TO.N,/PC1*%
X41995724Y-5907359D03*
%TO.P,U2,10,PC2*%
%TO.N,/PC2*%
X41642171Y-5553806D03*
%TO.P,U2,11,PC3*%
%TO.N,/PC3*%
X41288618Y-5200253D03*
%TO.P,U2,12,VSSA*%
%TO.N,/VSSA*%
X40935064Y-4846699D03*
%TO.P,U2,13,VDDA*%
%TO.N,/VDD_3.3V*%
X40581511Y-4493146D03*
%TO.P,U2,14,PA0*%
%TO.N,/PA0*%
X40227957Y-4139592D03*
%TO.P,U2,15,PA1*%
%TO.N,/PA1*%
X39874404Y-3786039D03*
%TO.P,U2,16,PA2*%
%TO.N,/PA2*%
X39520851Y-3432486D03*
D17*
%TO.P,U2,17,PA3*%
%TO.N,/PA3*%
X36692423Y-3432486D03*
%TO.P,U2,18,PF4*%
%TO.N,/PF4*%
X36338870Y-3786039D03*
%TO.P,U2,19,PF5*%
%TO.N,/PF5*%
X35985317Y-4139592D03*
%TO.P,U2,20,PA4*%
%TO.N,/PA4*%
X35631763Y-4493146D03*
%TO.P,U2,21,PA5*%
%TO.N,/PA5*%
X35278210Y-4846699D03*
%TO.P,U2,22,PA6*%
%TO.N,/PA6*%
X34924656Y-5200253D03*
%TO.P,U2,23,PA7*%
%TO.N,/PA7*%
X34571103Y-5553806D03*
%TO.P,U2,24,PC4*%
%TO.N,/PC4*%
X34217550Y-5907359D03*
%TO.P,U2,25,PC5*%
%TO.N,/PC5*%
X33863996Y-6260913D03*
%TO.P,U2,26,PB0*%
%TO.N,/PB0*%
X33510443Y-6614466D03*
%TO.P,U2,27,PB1*%
%TO.N,/PB1*%
X33156890Y-6968019D03*
%TO.P,U2,28,PB2*%
%TO.N,/PB2*%
X32803336Y-7321573D03*
%TO.P,U2,29,PB10*%
%TO.N,/PB10*%
X32449783Y-7675126D03*
%TO.P,U2,30,PB11*%
%TO.N,/PB11*%
X32096229Y-8028680D03*
%TO.P,U2,31,VSS*%
%TO.N,GND*%
X31742676Y-8382233D03*
%TO.P,U2,32,VDD*%
%TO.N,/VDD_3.3V*%
X31389123Y-8735786D03*
D16*
%TO.P,U2,33,PB12*%
%TO.N,/PB12*%
X31389123Y-11564214D03*
%TO.P,U2,34,PB13*%
%TO.N,/PB13*%
X31742676Y-11917767D03*
%TO.P,U2,35,PB14*%
%TO.N,/PB14*%
X32096229Y-12271320D03*
%TO.P,U2,36,PB15*%
%TO.N,/PB15*%
X32449783Y-12624874D03*
%TO.P,U2,37,PC6*%
%TO.N,/PC6*%
X32803336Y-12978427D03*
%TO.P,U2,38,PC7*%
%TO.N,/PC7*%
X33156890Y-13331981D03*
%TO.P,U2,39,PC8*%
%TO.N,/PC8*%
X33510443Y-13685534D03*
%TO.P,U2,40,PC9*%
%TO.N,/PC9*%
X33863996Y-14039087D03*
%TO.P,U2,41,PA8*%
%TO.N,/PA8*%
X34217550Y-14392641D03*
%TO.P,U2,42,PA9*%
%TO.N,/PA9*%
X34571103Y-14746194D03*
%TO.P,U2,43,PA10*%
%TO.N,/PA10*%
X34924656Y-15099747D03*
%TO.P,U2,44,PA11*%
%TO.N,/PA11*%
X35278210Y-15453301D03*
%TO.P,U2,45,PA12*%
%TO.N,/PA12*%
X35631763Y-15806854D03*
%TO.P,U2,46,PA13*%
%TO.N,/PA13{slash}SWDIO*%
X35985317Y-16160408D03*
%TO.P,U2,47,PF6*%
%TO.N,/PF6*%
X36338870Y-16513961D03*
%TO.P,U2,48,PF7*%
%TO.N,/PF7*%
X36692423Y-16867514D03*
D17*
%TO.P,U2,49,PA14*%
%TO.N,/PA14{slash}SWCLK*%
X39520851Y-16867514D03*
%TO.P,U2,50,PA15*%
%TO.N,/PA15*%
X39874404Y-16513961D03*
%TO.P,U2,51,PC10*%
%TO.N,/PC10*%
X40227957Y-16160408D03*
%TO.P,U2,52,PC11*%
%TO.N,/PC11*%
X40581511Y-15806854D03*
%TO.P,U2,53,PC12*%
%TO.N,/PC12*%
X40935064Y-15453301D03*
%TO.P,U2,54,PD2*%
%TO.N,/PD2*%
X41288618Y-15099747D03*
%TO.P,U2,55,PB3*%
%TO.N,/PB3*%
X41642171Y-14746194D03*
%TO.P,U2,56,PB4*%
%TO.N,/PB4*%
X41995724Y-14392641D03*
%TO.P,U2,57,PB5*%
%TO.N,/PB5*%
X42349278Y-14039087D03*
%TO.P,U2,58,PB6*%
%TO.N,/PB6*%
X42702831Y-13685534D03*
%TO.P,U2,59,PB7*%
%TO.N,/PB7*%
X43056384Y-13331981D03*
%TO.P,U2,60,BOOT0*%
%TO.N,/BOOT0*%
X43409938Y-12978427D03*
%TO.P,U2,61,PB8*%
%TO.N,/PB8*%
X43763491Y-12624874D03*
%TO.P,U2,62,PB9*%
%TO.N,/PB9*%
X44117045Y-12271320D03*
%TO.P,U2,63,VSS*%
%TO.N,GND*%
X44470598Y-11917767D03*
%TO.P,U2,64,VDD*%
%TO.N,/VDD_3.3V*%
X44824151Y-11564214D03*
%TD*%
D18*
%TO.P,Y2,1,1*%
%TO.N,/PF1*%
X53610000Y-6170000D03*
%TO.P,Y2,2,2*%
%TO.N,Net-(C10-Pad2)*%
X51410000Y-6170000D03*
%TO.P,Y2,3,3*%
%TO.N,/PF0*%
X51410000Y-7870000D03*
%TO.P,Y2,4,4*%
%TO.N,Net-(C6-Pad2)*%
X53610000Y-7870000D03*
%TD*%
D11*
%TO.P,C9,1*%
%TO.N,GND*%
X55495000Y-9810000D03*
%TO.P,C9,2*%
%TO.N,Net-(C9-Pad2)*%
X53945000Y-9810000D03*
%TD*%
D19*
%TO.P,R9,1*%
%TO.N,/VDD_3.3V*%
X62615000Y-8970000D03*
%TO.P,R9,2*%
%TO.N,/PA12*%
X64265000Y-8970000D03*
%TD*%
D12*
%TO.P,C5,1*%
%TO.N,GND*%
X27930000Y-13815000D03*
%TO.P,C5,2*%
%TO.N,/VDD_3.3V*%
X27930000Y-12265000D03*
%TD*%
D20*
%TO.P,U1,1,Vin*%
%TO.N,/VDD_5V*%
X66400000Y-13230000D03*
%TO.P,U1,2,Vss*%
%TO.N,GND*%
X66400000Y-12280000D03*
%TO.P,U1,3,CE*%
%TO.N,/VDD_5V*%
X66400000Y-11330000D03*
%TO.P,U1,4,NC*%
%TO.N,unconnected-(U1-Pad4)*%
X63800000Y-11330000D03*
%TO.P,U1,5,Vout*%
%TO.N,/VDD_3.3V*%
X63800000Y-13230000D03*
%TD*%
D12*
%TO.P,C1,1*%
%TO.N,GND*%
X67980000Y-12885000D03*
%TO.P,C1,2*%
%TO.N,/VDD_5V*%
X67980000Y-11335000D03*
%TD*%
%TO.P,C3,1*%
%TO.N,GND*%
X62220000Y-12895000D03*
%TO.P,C3,2*%
%TO.N,/VDD_3.3V*%
X62220000Y-11345000D03*
%TD*%
D14*
%TO.P,HOLE2,*%
%TO.N,*%
X8850000Y-12710000D03*
%TD*%
D19*
%TO.P,R7,1*%
%TO.N,/PA12*%
X65575000Y-8970000D03*
%TO.P,R7,2*%
%TO.N,/USB_Data+*%
X67225000Y-8970000D03*
%TD*%
D21*
%TO.P,USB1,13,GND*%
%TO.N,GND*%
X75140000Y-14615000D03*
%TO.P,USB1,14,GND*%
X75140000Y-5965000D03*
D22*
%TO.P,USB1,15,GND*%
X79340000Y-14615000D03*
%TO.P,USB1,16,GND*%
X79340000Y-5965000D03*
D23*
%TO.P,USB1,A1B12,GND*%
X74378000Y-13490000D03*
%TO.P,USB1,A4B9,VBUS*%
%TO.N,/VDD_5V*%
X74378000Y-12690000D03*
D24*
%TO.P,USB1,A5,CC1*%
%TO.N,unconnected-(USB1-PadA5)*%
X74378000Y-11540000D03*
%TO.P,USB1,A6,DP1*%
%TO.N,/USB_Data+*%
X74378000Y-10540000D03*
%TO.P,USB1,A7,DN1*%
%TO.N,/USB_Data-*%
X74378000Y-10040000D03*
%TO.P,USB1,A8,SBU1*%
%TO.N,unconnected-(USB1-PadA8)*%
X74378000Y-9040000D03*
D23*
%TO.P,USB1,B1A12,GND*%
%TO.N,GND*%
X74378000Y-7090000D03*
%TO.P,USB1,B4A9,VBUS*%
%TO.N,/VDD_5V*%
X74378000Y-7890000D03*
D24*
%TO.P,USB1,B5,CC2*%
%TO.N,unconnected-(USB1-PadB5)*%
X74378000Y-8540000D03*
%TO.P,USB1,B6,DP2*%
%TO.N,/USB_Data+*%
X74378000Y-9540000D03*
%TO.P,USB1,B7,DN2*%
%TO.N,/USB_Data-*%
X74378000Y-11040000D03*
%TO.P,USB1,B8,SBU2*%
%TO.N,unconnected-(USB1-PadB8)*%
X74378000Y-12040000D03*
%TD*%
D11*
%TO.P,C4,1*%
%TO.N,GND*%
X48575000Y-12960000D03*
%TO.P,C4,2*%
%TO.N,/VDD_3.3V*%
X47025000Y-12960000D03*
%TD*%
D25*
%TO.P,SW2,1,1*%
%TO.N,/NRST*%
X22140000Y-8435000D03*
%TO.P,SW2,2,2*%
X17840000Y-8435000D03*
%TO.P,SW2,3,3*%
%TO.N,GND*%
X22140000Y-6285000D03*
%TO.P,SW2,4,4*%
X17840000Y-6285000D03*
%TD*%
D19*
%TO.P,R1,1*%
%TO.N,Net-(D1-Pad2)*%
X65575000Y-6050000D03*
%TO.P,R1,2*%
%TO.N,/VDD_5V*%
X67225000Y-6050000D03*
%TD*%
%TO.P,R8,1*%
%TO.N,/PA11*%
X65575000Y-7510000D03*
%TO.P,R8,2*%
%TO.N,/USB_Data-*%
X67225000Y-7510000D03*
%TD*%
D26*
%TO.P,J3,1,Pin_1*%
%TO.N,GND*%
X1325000Y-13970000D03*
D27*
%TO.P,J3,2,Pin_2*%
%TO.N,/PA14{slash}SWCLK*%
X1325000Y-11430000D03*
%TO.P,J3,3,Pin_3*%
%TO.N,/PA13{slash}SWDIO*%
X1325000Y-8890000D03*
%TO.P,J3,4,Pin_4*%
%TO.N,/VDD_3.3V*%
X1325000Y-6350000D03*
%TD*%
D25*
%TO.P,SW1,1,1*%
%TO.N,GND*%
X22170000Y-14075000D03*
%TO.P,SW1,2,2*%
X17870000Y-14075000D03*
%TO.P,SW1,3,3*%
%TO.N,/VDD_3.3V*%
X22170000Y-11925000D03*
%TO.P,SW1,4,4*%
X17870000Y-11925000D03*
%TD*%
D28*
%TO.P,C6,1*%
%TO.N,GND*%
X55455000Y-8010000D03*
%TO.P,C6,2*%
%TO.N,Net-(C6-Pad2)*%
X57005000Y-8010000D03*
%TD*%
D29*
%TO.P,Y1,1,1*%
%TO.N,Net-(C9-Pad2)*%
X52060000Y-9540000D03*
%TO.P,Y1,2,GND*%
%TO.N,Net-(C8-Pad2)*%
X52060000Y-12040000D03*
%TD*%
D14*
%TO.P,HOLE4,*%
%TO.N,*%
X70860000Y-12990000D03*
%TD*%
D30*
%TO.P,D1,1,K*%
%TO.N,GND*%
X62652500Y-6050000D03*
%TO.P,D1,2,A*%
%TO.N,Net-(D1-Pad2)*%
X64227500Y-6050000D03*
%TD*%
D11*
%TO.P,C10,1*%
%TO.N,GND*%
X57015000Y-6060000D03*
%TO.P,C10,2*%
%TO.N,Net-(C10-Pad2)*%
X55465000Y-6060000D03*
%TD*%
D26*
%TO.P,J2,1,Pin_1*%
%TO.N,/VDD_3.3V*%
X80070000Y-18980000D03*
D27*
%TO.P,J2,2,Pin_2*%
%TO.N,GND*%
X77530000Y-18980000D03*
%TO.P,J2,3,Pin_3*%
%TO.N,/PB9*%
X74990000Y-18980000D03*
%TO.P,J2,4,Pin_4*%
%TO.N,/PB8*%
X72450000Y-18980000D03*
%TO.P,J2,5,Pin_5*%
%TO.N,/BOOT0*%
X69910000Y-18980000D03*
%TO.P,J2,6,Pin_6*%
%TO.N,/PB7*%
X67370000Y-18980000D03*
%TO.P,J2,7,Pin_7*%
%TO.N,/PB6*%
X64830000Y-18980000D03*
%TO.P,J2,8,Pin_8*%
%TO.N,/PB5*%
X62290000Y-18980000D03*
%TO.P,J2,9,Pin_9*%
%TO.N,/PB4*%
X59750000Y-18980000D03*
%TO.P,J2,10,Pin_10*%
%TO.N,/PB3*%
X57210000Y-18980000D03*
%TO.P,J2,11,Pin_11*%
%TO.N,/PD2*%
X54670000Y-18980000D03*
%TO.P,J2,12,Pin_12*%
%TO.N,/PC12*%
X52130000Y-18980000D03*
%TO.P,J2,13,Pin_13*%
%TO.N,/PC11*%
X49590000Y-18980000D03*
%TO.P,J2,14,Pin_14*%
%TO.N,/PC10*%
X47050000Y-18980000D03*
%TO.P,J2,15,Pin_15*%
%TO.N,/PA15*%
X44510000Y-18980000D03*
%TO.P,J2,16,Pin_16*%
%TO.N,/PA14{slash}SWCLK*%
X41970000Y-18980000D03*
%TO.P,J2,17,Pin_17*%
%TO.N,/PF7*%
X39430000Y-18980000D03*
%TO.P,J2,18,Pin_18*%
%TO.N,/PF6*%
X36890000Y-18980000D03*
%TO.P,J2,19,Pin_19*%
%TO.N,/PA13{slash}SWDIO*%
X34350000Y-18980000D03*
%TO.P,J2,20,Pin_20*%
%TO.N,/PA12*%
X31810000Y-18980000D03*
%TO.P,J2,21,Pin_21*%
%TO.N,/PA11*%
X29270000Y-18980000D03*
%TO.P,J2,22,Pin_22*%
%TO.N,/PA10*%
X26730000Y-18980000D03*
%TO.P,J2,23,Pin_23*%
%TO.N,/PA9*%
X24190000Y-18980000D03*
%TO.P,J2,24,Pin_24*%
%TO.N,/PA8*%
X21650000Y-18980000D03*
%TO.P,J2,25,Pin_25*%
%TO.N,/PC9*%
X19110000Y-18980000D03*
%TO.P,J2,26,Pin_26*%
%TO.N,/PC8*%
X16570000Y-18980000D03*
%TO.P,J2,27,Pin_27*%
%TO.N,/PC7*%
X14030000Y-18980000D03*
%TO.P,J2,28,Pin_28*%
%TO.N,/PC6*%
X11490000Y-18980000D03*
%TO.P,J2,29,Pin_29*%
%TO.N,/PB15*%
X8950000Y-18980000D03*
%TO.P,J2,30,Pin_30*%
%TO.N,/PB14*%
X6410000Y-18980000D03*
%TO.P,J2,31,Pin_31*%
%TO.N,/PB13*%
X3870000Y-18980000D03*
%TO.P,J2,32,Pin_32*%
%TO.N,/PB12*%
X1330000Y-18980000D03*
%TD*%
D26*
%TO.P,J1,1,Pin_1*%
%TO.N,/VBAT*%
X80070000Y-1330000D03*
D27*
%TO.P,J1,2,Pin_2*%
%TO.N,/PC13*%
X77530000Y-1330000D03*
%TO.P,J1,3,Pin_3*%
%TO.N,GND*%
X74990000Y-1330000D03*
%TO.P,J1,4,Pin_4*%
%TO.N,/VDD_5V*%
X72450000Y-1330000D03*
%TO.P,J1,5,Pin_5*%
%TO.N,GND*%
X69910000Y-1330000D03*
%TO.P,J1,6,Pin_6*%
%TO.N,/VDD_3.3V*%
X67370000Y-1330000D03*
%TO.P,J1,7,Pin_7*%
%TO.N,/NRST*%
X64830000Y-1330000D03*
%TO.P,J1,8,Pin_8*%
%TO.N,/PC0*%
X62290000Y-1330000D03*
%TO.P,J1,9,Pin_9*%
%TO.N,/PC1*%
X59750000Y-1330000D03*
%TO.P,J1,10,Pin_10*%
%TO.N,/PC2*%
X57210000Y-1330000D03*
%TO.P,J1,11,Pin_11*%
%TO.N,/PC3*%
X54670000Y-1330000D03*
%TO.P,J1,12,Pin_12*%
%TO.N,/VDD_3.3V*%
X52130000Y-1330000D03*
%TO.P,J1,13,Pin_13*%
%TO.N,GND*%
X49590000Y-1330000D03*
%TO.P,J1,14,Pin_14*%
%TO.N,/PA0*%
X47050000Y-1330000D03*
%TO.P,J1,15,Pin_15*%
%TO.N,/PA1*%
X44510000Y-1330000D03*
%TO.P,J1,16,Pin_16*%
%TO.N,/PA2*%
X41970000Y-1330000D03*
%TO.P,J1,17,Pin_17*%
%TO.N,/PA3*%
X39430000Y-1330000D03*
%TO.P,J1,18,Pin_18*%
%TO.N,/PF4*%
X36890000Y-1330000D03*
%TO.P,J1,19,Pin_19*%
%TO.N,/PF5*%
X34350000Y-1330000D03*
%TO.P,J1,20,Pin_20*%
%TO.N,/PA4*%
X31810000Y-1330000D03*
%TO.P,J1,21,Pin_21*%
%TO.N,/PA5*%
X29270000Y-1330000D03*
%TO.P,J1,22,Pin_22*%
%TO.N,/PA6*%
X26730000Y-1330000D03*
%TO.P,J1,23,Pin_23*%
%TO.N,/PA7*%
X24190000Y-1330000D03*
%TO.P,J1,24,Pin_24*%
%TO.N,/PC4*%
X21650000Y-1330000D03*
%TO.P,J1,25,Pin_25*%
%TO.N,/PC5*%
X19110000Y-1330000D03*
%TO.P,J1,26,Pin_26*%
%TO.N,/PB0*%
X16570000Y-1330000D03*
%TO.P,J1,27,Pin_27*%
%TO.N,/PB1*%
X14030000Y-1330000D03*
%TO.P,J1,28,Pin_28*%
%TO.N,/PB2*%
X11490000Y-1330000D03*
%TO.P,J1,29,Pin_29*%
%TO.N,/PB10*%
X8950000Y-1330000D03*
%TO.P,J1,30,Pin_30*%
%TO.N,/PB11*%
X6410000Y-1330000D03*
%TO.P,J1,31,Pin_31*%
%TO.N,/VDD_3.3V*%
X3870000Y-1330000D03*
%TO.P,J1,32,Pin_32*%
%TO.N,GND*%
X1330000Y-1330000D03*
%TD*%
D31*
%TO.N,GND*%
X41260000Y-9790000D03*
X39250000Y-8330000D03*
X46340000Y-10999500D03*
X46340000Y-9800000D03*
D32*
X29206000Y-6457500D03*
D31*
X71750000Y-9220000D03*
D33*
X16197910Y-6666850D03*
D31*
X36590000Y-7400000D03*
X6720000Y-5260000D03*
X62652500Y-6867500D03*
X29580000Y-8640000D03*
X29470000Y-11260000D03*
X17820000Y-10030000D03*
X6710000Y-7600000D03*
X44900000Y-6520500D03*
X69290000Y-10060000D03*
X6710000Y-10100000D03*
X41260000Y-11230000D03*
D32*
X69930000Y-5110000D03*
D31*
X35980000Y-11280000D03*
X61550000Y-10030000D03*
X46350500Y-5070000D03*
X10820000Y-7260000D03*
D34*
%TO.N,/VDD_5V*%
X72870000Y-12680000D03*
X72880000Y-7890000D03*
D31*
%TO.N,/BOOT0*%
X41652000Y-12194000D03*
X24634000Y-12194000D03*
D32*
%TO.N,/VDD_3.3V*%
X60830000Y-5150000D03*
D33*
X47010000Y-11900000D03*
X24880000Y-6400000D03*
X23830000Y-10780000D03*
D32*
X60830000Y-11410000D03*
D31*
%TO.N,/VBAT*%
X45680000Y-8950000D03*
%TO.N,/PC13*%
X41980000Y-9220000D03*
%TO.N,/PA14{slash}SWCLK*%
X38485000Y-15805000D03*
X11530000Y-12210000D03*
%TO.N,/PA13{slash}SWDIO*%
X11520000Y-8150000D03*
X36862250Y-15252250D03*
%TO.N,/USB_Data-*%
X75330000Y-10040000D03*
X75330000Y-11040000D03*
%TD*%
D35*
%TO.N,GND*%
X55495000Y-9810000D02*
X55495000Y-11780000D01*
X55455000Y-8835000D02*
X59867500Y-8835000D01*
X17870000Y-14075000D02*
X17865000Y-14080000D01*
X25805000Y-14070000D02*
X22175000Y-14070000D01*
X67385000Y-12566000D02*
X67990000Y-13171000D01*
X44470598Y-11930598D02*
X46500000Y-13960000D01*
X57913750Y-11607722D02*
X57913750Y-11606250D01*
X12860000Y-13810000D02*
X12810000Y-13860000D01*
X48575000Y-12199974D02*
X48575000Y-12960000D01*
X28525000Y-13815000D02*
X31790000Y-10550000D01*
X41270000Y-9800000D02*
X41260000Y-9790000D01*
X74378000Y-13753000D02*
X75140000Y-14515000D01*
X72410000Y-13960000D02*
X77530000Y-19080000D01*
X29100500Y-6457500D02*
X27930000Y-6457500D01*
X55455000Y-8835000D02*
X48745000Y-8835000D01*
X22175000Y-14070000D02*
X22170000Y-14075000D01*
D36*
X79340000Y-14515000D02*
X79340000Y-5865000D01*
D35*
X57015000Y-5235000D02*
X57015000Y-6060000D01*
D36*
X69910000Y-5090000D02*
X69910000Y-1230000D01*
D35*
X74378000Y-6990000D02*
X75140000Y-6228000D01*
X47374526Y-10999500D02*
X48575000Y-12199974D01*
X46340000Y-9800000D02*
X47650000Y-9800000D01*
X14750000Y-13810000D02*
X12860000Y-13810000D01*
X26010000Y-13865000D02*
X25805000Y-14070000D01*
X62652500Y-6050000D02*
X57025000Y-6050000D01*
X46430500Y-6520500D02*
X44900000Y-6520500D01*
X57913750Y-11606250D02*
X62652500Y-6867500D01*
X27930000Y-13815000D02*
X26060000Y-13815000D01*
X55455000Y-8835000D02*
X55455000Y-9770000D01*
D36*
X69930000Y-5110000D02*
X69910000Y-5090000D01*
D37*
X57740000Y-11780000D02*
X57830000Y-11690000D01*
D35*
X22170000Y-14075000D02*
X17870000Y-14075000D01*
X47650000Y-9800000D02*
X50810000Y-12960000D01*
X66410000Y-12566000D02*
X67385000Y-12566000D01*
X56561472Y-12960000D02*
X57913750Y-11607722D01*
D36*
X79340000Y-5865000D02*
X75140000Y-5865000D01*
D35*
X40340000Y-9790000D02*
X41260000Y-9790000D01*
X59867500Y-8835000D02*
X62652500Y-6050000D01*
X55455000Y-8010000D02*
X55455000Y-8835000D01*
X17865000Y-14080000D02*
X15020000Y-14080000D01*
X50810000Y-12960000D02*
X56561472Y-12960000D01*
X31790000Y-10550000D02*
X39580000Y-10550000D01*
X55495000Y-11780000D02*
X57740000Y-11780000D01*
X46410500Y-5010000D02*
X56790000Y-5010000D01*
X48745000Y-8835000D02*
X48460000Y-8550000D01*
X29817943Y-6457500D02*
X29100500Y-6457500D01*
X12700000Y-13970000D02*
X1325000Y-13970000D01*
X39580000Y-10550000D02*
X40340000Y-9790000D01*
X43782831Y-11230000D02*
X44470598Y-11917767D01*
X62250000Y-13960000D02*
X68040000Y-13960000D01*
X27930000Y-13815000D02*
X28525000Y-13815000D01*
X68000000Y-13920000D02*
X68000000Y-12905000D01*
X74378000Y-13390000D02*
X74378000Y-13753000D01*
X48460000Y-8550000D02*
X46430500Y-6520500D01*
X46340000Y-10999500D02*
X47374526Y-10999500D01*
X26060000Y-13815000D02*
X26010000Y-13865000D01*
X62250000Y-13960000D02*
X62230000Y-13940000D01*
X62230000Y-13940000D02*
X62230000Y-12905000D01*
X46340000Y-9800000D02*
X41270000Y-9800000D01*
X31742676Y-8382233D02*
X29817943Y-6457500D01*
X68040000Y-13960000D02*
X72410000Y-13960000D01*
X56790000Y-5010000D02*
X57015000Y-5235000D01*
X46350500Y-5070000D02*
X46410500Y-5010000D01*
D36*
X74990000Y-5715000D02*
X74990000Y-1230000D01*
D35*
X15020000Y-14080000D02*
X14750000Y-13810000D01*
X41260000Y-11230000D02*
X43782831Y-11230000D01*
X68040000Y-13960000D02*
X68000000Y-13920000D01*
D36*
X75140000Y-14515000D02*
X79340000Y-14515000D01*
D35*
X44470598Y-11917767D02*
X44470598Y-11930598D01*
X62652500Y-6867500D02*
X62652500Y-6050000D01*
X46500000Y-13960000D02*
X62250000Y-13960000D01*
D36*
%TO.N,/VDD_5V*%
X66400000Y-11330000D02*
X65460000Y-11330000D01*
X72340000Y-6050000D02*
X72450000Y-5940000D01*
X65460000Y-11330000D02*
X65100000Y-11690000D01*
X65100000Y-12930000D02*
X65400000Y-13230000D01*
X71525000Y-11335000D02*
X66405000Y-11335000D01*
X65400000Y-13230000D02*
X66400000Y-13230000D01*
X65100000Y-11690000D02*
X65100000Y-12930000D01*
X72880000Y-7890000D02*
X74378000Y-7890000D01*
X72340000Y-6050000D02*
X67225000Y-6050000D01*
X72450000Y-5940000D02*
X72450000Y-1230000D01*
X72870000Y-12680000D02*
X71525000Y-11335000D01*
X72520000Y-6050000D02*
X72340000Y-6050000D01*
X72880000Y-7890000D02*
X72880000Y-6410000D01*
X72880000Y-6410000D02*
X72520000Y-6050000D01*
D35*
X72880000Y-12690000D02*
X74378000Y-12690000D01*
D37*
%TO.N,/BOOT0*%
X45341511Y-14910000D02*
X65740000Y-14910000D01*
X24196000Y-12194000D02*
X23370000Y-13020000D01*
X23370000Y-13020000D02*
X16340000Y-13020000D01*
X41652000Y-12194000D02*
X42625511Y-12194000D01*
X24634000Y-12194000D02*
X25989000Y-12194000D01*
X43409938Y-12978427D02*
X45341511Y-14910000D01*
X15580000Y-12260000D02*
X14750000Y-12260000D01*
X16340000Y-13020000D02*
X15580000Y-12260000D01*
X42625511Y-12194000D02*
X43409938Y-12978427D01*
X65740000Y-14910000D02*
X69910000Y-19080000D01*
X24634000Y-12194000D02*
X24196000Y-12194000D01*
D35*
%TO.N,/VDD_3.3V*%
X62230000Y-11631000D02*
X62230000Y-10480000D01*
D37*
X40581511Y-4488489D02*
X42070000Y-3000000D01*
D35*
X62365000Y-11345000D02*
X62365000Y-11415000D01*
X13770000Y-9200000D02*
X16500000Y-11930000D01*
X47010000Y-11900000D02*
X47010000Y-12945000D01*
X11765000Y-5490000D02*
X8130000Y-5490000D01*
X12825000Y-6525000D02*
X13770000Y-7470000D01*
D37*
X29923337Y-7270000D02*
X26840000Y-7270000D01*
D35*
X8130000Y-5490000D02*
X3870000Y-1230000D01*
X22170000Y-11925000D02*
X22170000Y-11301000D01*
X60830000Y-5150000D02*
X63450000Y-5150000D01*
X16500000Y-11930000D02*
X17865000Y-11930000D01*
X63450000Y-5150000D02*
X67370000Y-1230000D01*
X60895000Y-11345000D02*
X62220000Y-11345000D01*
X27940000Y-11436000D02*
X27940000Y-11960000D01*
D37*
X31389123Y-8735786D02*
X29923337Y-7270000D01*
D35*
X13770000Y-7470000D02*
X13770000Y-9200000D01*
X62615000Y-10095000D02*
X62615000Y-8970000D01*
X24900000Y-6420000D02*
X24880000Y-6400000D01*
X22691000Y-10780000D02*
X23830000Y-10780000D01*
X12625000Y-6350000D02*
X1325000Y-6350000D01*
X47010000Y-11900000D02*
X45159937Y-11900000D01*
X25990000Y-6420000D02*
X24900000Y-6420000D01*
X62230000Y-10480000D02*
X62615000Y-10095000D01*
X22170000Y-11301000D02*
X22691000Y-10780000D01*
X47010000Y-12945000D02*
X47025000Y-12960000D01*
D37*
X42070000Y-3000000D02*
X50360000Y-3000000D01*
D35*
X60830000Y-11410000D02*
X60895000Y-11345000D01*
X63800000Y-12850000D02*
X63800000Y-13230000D01*
D37*
X50360000Y-3000000D02*
X52130000Y-1230000D01*
D35*
X23830000Y-10780000D02*
X27284000Y-10780000D01*
X27284000Y-10780000D02*
X27940000Y-11436000D01*
X62365000Y-11415000D02*
X63800000Y-12850000D01*
D37*
X26840000Y-7270000D02*
X25990000Y-6420000D01*
D35*
X12800000Y-6525000D02*
X11765000Y-5490000D01*
X17870000Y-11925000D02*
X22170000Y-11925000D01*
D37*
%TO.N,Net-(C6-Pad2)*%
X54360000Y-7870000D02*
X55110000Y-7120000D01*
X56710000Y-7120000D02*
X57005000Y-7415000D01*
X53610000Y-7870000D02*
X54360000Y-7870000D01*
X57005000Y-7415000D02*
X57005000Y-8010000D01*
X55110000Y-7120000D02*
X56710000Y-7120000D01*
%TO.N,/NRST*%
X28120000Y-10200000D02*
X39117297Y-10200000D01*
X39117297Y-10200000D02*
X42702831Y-6614466D01*
X42702831Y-6607169D02*
X44810000Y-4500000D01*
X61550000Y-4500000D02*
X64820000Y-1230000D01*
X23955000Y-8635000D02*
X22150000Y-8635000D01*
X24520000Y-8070000D02*
X23955000Y-8635000D01*
X64820000Y-1230000D02*
X64830000Y-1230000D01*
X15050000Y-8435000D02*
X17840000Y-8435000D01*
X44810000Y-4500000D02*
X61550000Y-4500000D01*
X25990000Y-8070000D02*
X24520000Y-8070000D01*
X25990000Y-8070000D02*
X28120000Y-10200000D01*
X17840000Y-8435000D02*
X22140000Y-8435000D01*
%TO.N,Net-(C8-Pad2)*%
X49395736Y-10950000D02*
X45745736Y-7300000D01*
X44845725Y-7300000D02*
X44117045Y-8028680D01*
X45745736Y-7300000D02*
X44845725Y-7300000D01*
X52060000Y-12000000D02*
X51010000Y-10950000D01*
X52060000Y-12040000D02*
X53685000Y-12040000D01*
X51010000Y-10950000D02*
X49395736Y-10950000D01*
%TO.N,Net-(C9-Pad2)*%
X44468617Y-6970000D02*
X43763491Y-7675126D01*
X50980000Y-10650000D02*
X49520000Y-10650000D01*
X52060000Y-9570000D02*
X50980000Y-10650000D01*
X49520000Y-10650000D02*
X45840000Y-6970000D01*
X52060000Y-9540000D02*
X53675000Y-9540000D01*
X45840000Y-6970000D02*
X44468617Y-6970000D01*
%TO.N,Net-(C10-Pad2)*%
X51410000Y-6870000D02*
X51550000Y-7010000D01*
X51410000Y-6170000D02*
X51410000Y-6870000D01*
X54515000Y-7010000D02*
X55465000Y-6060000D01*
X51550000Y-7010000D02*
X54515000Y-7010000D01*
%TO.N,Net-(D1-Pad2)*%
X64227500Y-6050000D02*
X65575000Y-6050000D01*
%TO.N,/VBAT*%
X45038365Y-8950000D02*
X44824151Y-8735786D01*
X45680000Y-8950000D02*
X45038365Y-8950000D01*
%TO.N,/PC13*%
X41980000Y-9220000D02*
X43630000Y-9220000D01*
X43630000Y-9220000D02*
X44467767Y-8382233D01*
%TO.N,/PC0*%
X44410191Y-4200000D02*
X59320000Y-4200000D01*
X59320000Y-4200000D02*
X62290000Y-1230000D01*
X42349278Y-6260913D02*
X44410191Y-4200000D01*
%TO.N,/PC1*%
X41995724Y-5904276D02*
X44000000Y-3900000D01*
X57080000Y-3900000D02*
X59750000Y-1230000D01*
X44000000Y-3900000D02*
X57080000Y-3900000D01*
%TO.N,/PC2*%
X41646194Y-5553806D02*
X43600000Y-3600000D01*
X43600000Y-3600000D02*
X54840000Y-3600000D01*
X54840000Y-3600000D02*
X57210000Y-1230000D01*
%TO.N,/PC3*%
X41886106Y-4593894D02*
X43180000Y-3300000D01*
X52600000Y-3300000D02*
X54670000Y-1230000D01*
X43180000Y-3300000D02*
X52600000Y-3300000D01*
%TO.N,/PA0*%
X41660000Y-2700000D02*
X45580000Y-2700000D01*
X45580000Y-2700000D02*
X47050000Y-1230000D01*
X40227957Y-4132043D02*
X41660000Y-2700000D01*
%TO.N,/PA1*%
X39903961Y-3786039D02*
X41290000Y-2400000D01*
X41290000Y-2400000D02*
X43500000Y-2400000D01*
X43500000Y-2400000D02*
X44510000Y-1390000D01*
%TO.N,/PA2*%
X39520851Y-3429149D02*
X41620000Y-1330000D01*
%TO.N,/PA3*%
X36707514Y-3432486D02*
X38910000Y-1230000D01*
%TO.N,/PF4*%
X35530000Y-2977169D02*
X35530000Y-2590000D01*
X35741382Y-3188551D02*
X35530000Y-2977169D01*
X35530000Y-2590000D02*
X36890000Y-1230000D01*
%TO.N,/PF5*%
X35985317Y-4139592D02*
X34350000Y-2504275D01*
X34350000Y-2504275D02*
X34350000Y-1230000D01*
%TO.N,/PA4*%
X35631763Y-4493146D02*
X32468617Y-1330000D01*
%TO.N,/PA5*%
X35278210Y-4846699D02*
X32841511Y-2410000D01*
X30450000Y-2410000D02*
X29270000Y-1230000D01*
X32841511Y-2410000D02*
X30450000Y-2410000D01*
%TO.N,/PA6*%
X28210000Y-2710000D02*
X26730000Y-1230000D01*
X32440000Y-2710000D02*
X28210000Y-2710000D01*
X34924656Y-5194656D02*
X32440000Y-2710000D01*
%TO.N,/PA7*%
X34571103Y-5553806D02*
X32027297Y-3010000D01*
X25970000Y-3010000D02*
X24190000Y-1230000D01*
X32027297Y-3010000D02*
X25970000Y-3010000D01*
%TO.N,/PC4*%
X31650000Y-3340000D02*
X23760000Y-3340000D01*
X34217359Y-5907359D02*
X31650000Y-3340000D01*
X23760000Y-3340000D02*
X21650000Y-1230000D01*
%TO.N,/PC5*%
X33860913Y-6260913D02*
X31240000Y-3640000D01*
X31240000Y-3640000D02*
X21520000Y-3640000D01*
X21520000Y-3640000D02*
X19110000Y-1230000D01*
%TO.N,/PB0*%
X32700000Y-5810000D02*
X30830000Y-3940000D01*
X32705977Y-5810000D02*
X32700000Y-5810000D01*
X33510443Y-6614466D02*
X32705977Y-5810000D01*
X19280000Y-3940000D02*
X16570000Y-1230000D01*
X30830000Y-3940000D02*
X19280000Y-3940000D01*
%TO.N,/PB1*%
X33148019Y-6968019D02*
X30420000Y-4240000D01*
X17040000Y-4240000D02*
X14030000Y-1230000D01*
X30420000Y-4240000D02*
X17040000Y-4240000D01*
%TO.N,/PB2*%
X30021763Y-4540000D02*
X14800000Y-4540000D01*
X14800000Y-4540000D02*
X11490000Y-1230000D01*
X32803336Y-7321573D02*
X30021763Y-4540000D01*
%TO.N,/PB10*%
X12560000Y-4840000D02*
X8950000Y-1230000D01*
X29620000Y-4840000D02*
X12560000Y-4840000D01*
X32449783Y-7669783D02*
X29620000Y-4840000D01*
%TO.N,/PB11*%
X29210000Y-5140000D02*
X10320000Y-5140000D01*
X10320000Y-5140000D02*
X6410000Y-1230000D01*
X32096229Y-8026229D02*
X29210000Y-5140000D01*
%TO.N,/PB9*%
X70210000Y-14310000D02*
X74980000Y-19080000D01*
X44117045Y-12271320D02*
X46155725Y-14310000D01*
X74980000Y-19080000D02*
X74990000Y-19080000D01*
X46155725Y-14310000D02*
X70210000Y-14310000D01*
%TO.N,/PB8*%
X67980000Y-14610000D02*
X72450000Y-19080000D01*
X45748617Y-14610000D02*
X67980000Y-14610000D01*
X43763491Y-12624874D02*
X45748617Y-14610000D01*
%TO.N,/PB7*%
X63500000Y-15210000D02*
X67370000Y-19080000D01*
X44934403Y-15210000D02*
X63500000Y-15210000D01*
X43056384Y-13331981D02*
X44934403Y-15210000D01*
%TO.N,/PB6*%
X44527297Y-15510000D02*
X61260000Y-15510000D01*
X61260000Y-15510000D02*
X64830000Y-19080000D01*
X42702831Y-13685534D02*
X44527297Y-15510000D01*
%TO.N,/PB5*%
X44120000Y-15810000D02*
X59020000Y-15810000D01*
X42349278Y-14039278D02*
X44120000Y-15810000D01*
X59020000Y-15810000D02*
X62290000Y-19080000D01*
%TO.N,/PB4*%
X56780000Y-16110000D02*
X59750000Y-19080000D01*
X41995724Y-14395724D02*
X43710000Y-16110000D01*
X43710000Y-16110000D02*
X56780000Y-16110000D01*
%TO.N,/PB3*%
X43300000Y-16410000D02*
X54540000Y-16410000D01*
X41642171Y-14752171D02*
X43300000Y-16410000D01*
X54540000Y-16410000D02*
X57210000Y-19080000D01*
%TO.N,/PD2*%
X42898871Y-16710000D02*
X52300000Y-16710000D01*
X41288618Y-15099747D02*
X42898871Y-16710000D01*
X52300000Y-16710000D02*
X54670000Y-19080000D01*
%TO.N,/PC12*%
X42491763Y-17010000D02*
X50060000Y-17010000D01*
X50060000Y-17010000D02*
X52130000Y-19080000D01*
X40935064Y-15453301D02*
X42491763Y-17010000D01*
%TO.N,/PC11*%
X47820000Y-17310000D02*
X49590000Y-19080000D01*
X40581511Y-15806854D02*
X42084657Y-17310000D01*
X42084657Y-17310000D02*
X47820000Y-17310000D01*
%TO.N,/PC10*%
X40227957Y-16160408D02*
X41677549Y-17610000D01*
X45580000Y-17610000D02*
X47050000Y-19080000D01*
X41677549Y-17610000D02*
X45580000Y-17610000D01*
%TO.N,/PA15*%
X39874404Y-16513961D02*
X41270443Y-17910000D01*
X41270443Y-17910000D02*
X43340000Y-17910000D01*
X43340000Y-17910000D02*
X44510000Y-19080000D01*
%TO.N,/PA14{slash}SWCLK*%
X39527514Y-16867514D02*
X41740000Y-19080000D01*
X1325000Y-11430000D02*
X10750000Y-11430000D01*
X38485000Y-15805000D02*
X39520851Y-16840851D01*
X10750000Y-11430000D02*
X11530000Y-12210000D01*
X12810000Y-12210000D02*
X11530000Y-12210000D01*
%TO.N,/PF7*%
X36707514Y-16867514D02*
X38920000Y-19080000D01*
%TO.N,/PF6*%
X35520000Y-17710000D02*
X36890000Y-19080000D01*
X36336039Y-16513961D02*
X35520000Y-17330000D01*
X35520000Y-17330000D02*
X35520000Y-17710000D01*
%TO.N,/PA13{slash}SWDIO*%
X10780000Y-8890000D02*
X11520000Y-8150000D01*
X36862250Y-15252250D02*
X36862250Y-15283475D01*
X34350000Y-17790000D02*
X34350000Y-19080000D01*
X11520000Y-8150000D02*
X12775000Y-8150000D01*
X36862250Y-15283475D02*
X35985317Y-16160408D01*
X35979592Y-16160408D02*
X34350000Y-17790000D01*
X1325000Y-8890000D02*
X10780000Y-8890000D01*
%TO.N,/PA12*%
X35631763Y-15806854D02*
X40888617Y-10550000D01*
X40888617Y-10550000D02*
X47480762Y-10550000D01*
X64265000Y-8125000D02*
X64265000Y-8970000D01*
X35623146Y-15806854D02*
X32350000Y-19080000D01*
X64265000Y-8970000D02*
X65575000Y-8970000D01*
X58563750Y-11876960D02*
X58563750Y-11875488D01*
X47480762Y-10550000D02*
X50540762Y-13610000D01*
X62629238Y-7810000D02*
X63950000Y-7810000D01*
X50540762Y-13610000D02*
X56830710Y-13610000D01*
X63950000Y-7810000D02*
X64265000Y-8125000D01*
X56830710Y-13610000D02*
X58563750Y-11876960D01*
X58563750Y-11875488D02*
X62629238Y-7810000D01*
%TO.N,/PA11*%
X32821511Y-17910000D02*
X30440000Y-17910000D01*
X58263750Y-11752696D02*
X56706446Y-13310000D01*
X62504974Y-7510000D02*
X58263750Y-11751224D01*
X47605026Y-10250000D02*
X40481511Y-10250000D01*
X35278210Y-15453301D02*
X32821511Y-17910000D01*
X58263750Y-11751224D02*
X58263750Y-11752696D01*
X56706446Y-13310000D02*
X50665026Y-13310000D01*
X40481511Y-10250000D02*
X35278210Y-15453301D01*
X30440000Y-17910000D02*
X29270000Y-19080000D01*
X65575000Y-7510000D02*
X62504974Y-7510000D01*
X50665026Y-13310000D02*
X47605026Y-10250000D01*
%TO.N,/PA10*%
X28200000Y-17610000D02*
X26730000Y-19080000D01*
X34924656Y-15099747D02*
X32414403Y-17610000D01*
X32414403Y-17610000D02*
X28200000Y-17610000D01*
%TO.N,/PA9*%
X34571103Y-14746194D02*
X32007297Y-17310000D01*
X25960000Y-17310000D02*
X24190000Y-19080000D01*
X32007297Y-17310000D02*
X25960000Y-17310000D01*
%TO.N,/PA8*%
X23720000Y-17010000D02*
X21650000Y-19080000D01*
X31600191Y-17010000D02*
X23720000Y-17010000D01*
X34217550Y-14392641D02*
X31600191Y-17010000D01*
%TO.N,/PC9*%
X21480000Y-16710000D02*
X19110000Y-19080000D01*
X33863996Y-14039087D02*
X31193083Y-16710000D01*
X31193083Y-16710000D02*
X21480000Y-16710000D01*
%TO.N,/PC8*%
X19240000Y-16410000D02*
X16570000Y-19080000D01*
X30785977Y-16410000D02*
X19240000Y-16410000D01*
X33510443Y-13685534D02*
X30785977Y-16410000D01*
%TO.N,/PC7*%
X33156890Y-13331981D02*
X30378871Y-16110000D01*
X30378871Y-16110000D02*
X17000000Y-16110000D01*
X17000000Y-16110000D02*
X14030000Y-19080000D01*
%TO.N,/PC6*%
X14760000Y-15810000D02*
X11490000Y-19080000D01*
X29971763Y-15810000D02*
X14760000Y-15810000D01*
X32803336Y-12978427D02*
X29971763Y-15810000D01*
%TO.N,/PB15*%
X32449783Y-12624874D02*
X29564657Y-15510000D01*
X29564657Y-15510000D02*
X12520000Y-15510000D01*
X12520000Y-15510000D02*
X8950000Y-19080000D01*
%TO.N,/PB14*%
X32096229Y-12273771D02*
X29160000Y-15210000D01*
X10280000Y-15210000D02*
X6410000Y-19080000D01*
X29160000Y-15210000D02*
X10280000Y-15210000D01*
%TO.N,/PB13*%
X8040000Y-14910000D02*
X3870000Y-19080000D01*
X28750000Y-14910000D02*
X8040000Y-14910000D01*
X31742233Y-11917767D02*
X28750000Y-14910000D01*
%TO.N,/PB12*%
X28461041Y-14610000D02*
X5800000Y-14610000D01*
X5800000Y-14610000D02*
X1330000Y-19080000D01*
X31389123Y-11681918D02*
X28461041Y-14610000D01*
X31389123Y-11564214D02*
X31389123Y-11681918D01*
D35*
%TO.N,/VSSA*%
X27930000Y-9170000D02*
X28580000Y-9820000D01*
X35961763Y-9820000D02*
X40935064Y-4846699D01*
X27930000Y-8032500D02*
X27930000Y-9170000D01*
X28580000Y-9820000D02*
X35961763Y-9820000D01*
D37*
%TO.N,/PF0*%
X44670000Y-6060000D02*
X48104264Y-6060000D01*
X49550000Y-7505736D02*
X49550000Y-7835000D01*
X51410000Y-7870000D02*
X49585000Y-7870000D01*
X48104264Y-6060000D02*
X49550000Y-7505736D01*
X43409938Y-7320062D02*
X44670000Y-6060000D01*
%TO.N,/PF1*%
X49515000Y-6220000D02*
X48688528Y-6220000D01*
X48228528Y-5760000D02*
X44264403Y-5760000D01*
X49850000Y-5370000D02*
X49550000Y-5670000D01*
X53610000Y-6170000D02*
X53610000Y-5530000D01*
X53450000Y-5370000D02*
X49850000Y-5370000D01*
X48688528Y-6220000D02*
X48228528Y-5760000D01*
X53610000Y-5530000D02*
X53450000Y-5370000D01*
X49550000Y-5670000D02*
X49550000Y-6185000D01*
X44264403Y-5760000D02*
X43056384Y-6968019D01*
%TO.N,/USB_Data+*%
X73515499Y-10540000D02*
X73490499Y-10515000D01*
X75540000Y-10540000D02*
X74378000Y-10540000D01*
X75780000Y-9780000D02*
X75780000Y-10300000D01*
X74378000Y-10540000D02*
X73515499Y-10540000D01*
X73490499Y-10515000D02*
X71206800Y-10515000D01*
X67729999Y-8465001D02*
X67225000Y-8970000D01*
X75780000Y-10300000D02*
X75540000Y-10540000D01*
X71206800Y-10515000D02*
X69156801Y-8465001D01*
X75540000Y-9540000D02*
X75780000Y-9780000D01*
X69156801Y-8465001D02*
X67729999Y-8465001D01*
X74378000Y-9540000D02*
X75540000Y-9540000D01*
%TO.N,/USB_Data-*%
X73490499Y-10065000D02*
X71393200Y-10065000D01*
X71393200Y-10065000D02*
X69343199Y-8014999D01*
X67729999Y-8014999D02*
X67225000Y-7510000D01*
X75330000Y-10040000D02*
X74378000Y-10040000D01*
X74378000Y-10040000D02*
X73515499Y-10040000D01*
X74378000Y-11040000D02*
X75330000Y-11040000D01*
X73515499Y-10040000D02*
X73490499Y-10065000D01*
X69343199Y-8014999D02*
X67729999Y-8014999D01*
%TD*%
%TA.AperFunction,Conductor*%
%TO.N,GND*%
G36*
X75186121Y-1096002D02*
G01*
X75232614Y-1149658D01*
X75244000Y-1202000D01*
X75244000Y-2648517D01*
X75248064Y-2662359D01*
X75261478Y-2664393D01*
X75268184Y-2663534D01*
X75278262Y-2661392D01*
X75482255Y-2600191D01*
X75491842Y-2596433D01*
X75683095Y-2502739D01*
X75691945Y-2497464D01*
X75865328Y-2373792D01*
X75873200Y-2367139D01*
X76024052Y-2216812D01*
X76030730Y-2208965D01*
X76158022Y-2031819D01*
X76159279Y-2032722D01*
X76206373Y-1989362D01*
X76276311Y-1977145D01*
X76341751Y-2004678D01*
X76369579Y-2036511D01*
X76429987Y-2135088D01*
X76576250Y-2303938D01*
X76748126Y-2446632D01*
X76941000Y-2559338D01*
X77149692Y-2639030D01*
X77154760Y-2640061D01*
X77154763Y-2640062D01*
X77249862Y-2659410D01*
X77368597Y-2683567D01*
X77373772Y-2683757D01*
X77373774Y-2683757D01*
X77586673Y-2691564D01*
X77586677Y-2691564D01*
X77591837Y-2691753D01*
X77596957Y-2691097D01*
X77596959Y-2691097D01*
X77808288Y-2664025D01*
X77808289Y-2664025D01*
X77813416Y-2663368D01*
X77818376Y-2661880D01*
X78022429Y-2600661D01*
X78022434Y-2600659D01*
X78027384Y-2599174D01*
X78227994Y-2500896D01*
X78409860Y-2371173D01*
X78518091Y-2263319D01*
X78580462Y-2229404D01*
X78651268Y-2234592D01*
X78708030Y-2277238D01*
X78725012Y-2308341D01*
X78749549Y-2373792D01*
X78769385Y-2426705D01*
X78856739Y-2543261D01*
X78973295Y-2630615D01*
X79109684Y-2681745D01*
X79171866Y-2688500D01*
X80810500Y-2688500D01*
X80878621Y-2708502D01*
X80925114Y-2762158D01*
X80936500Y-2814500D01*
X80936500Y-5469265D01*
X80916498Y-5537386D01*
X80862842Y-5583879D01*
X80792568Y-5593983D01*
X80727988Y-5564489D01*
X80698838Y-5527640D01*
X80640393Y-5415846D01*
X80633679Y-5405585D01*
X80517532Y-5261127D01*
X80508954Y-5252368D01*
X80366961Y-5133222D01*
X80356841Y-5126292D01*
X80194415Y-5036998D01*
X80183142Y-5032166D01*
X80006462Y-4976120D01*
X79994468Y-4973570D01*
X79850239Y-4957393D01*
X79843215Y-4957000D01*
X79612115Y-4957000D01*
X79596876Y-4961475D01*
X79595671Y-4962865D01*
X79594000Y-4970548D01*
X79594000Y-6954885D01*
X79598475Y-6970124D01*
X79599865Y-6971329D01*
X79607548Y-6973000D01*
X79836657Y-6973000D01*
X79842805Y-6972699D01*
X79980603Y-6959188D01*
X79992638Y-6956805D01*
X80170076Y-6903233D01*
X80181416Y-6898559D01*
X80345077Y-6811540D01*
X80355294Y-6804751D01*
X80498933Y-6687603D01*
X80507637Y-6678959D01*
X80625784Y-6536144D01*
X80632644Y-6525973D01*
X80699664Y-6402022D01*
X80749659Y-6351614D01*
X80818970Y-6336236D01*
X80885592Y-6360772D01*
X80928373Y-6417432D01*
X80936500Y-6461951D01*
X80936500Y-14119265D01*
X80916498Y-14187386D01*
X80862842Y-14233879D01*
X80792568Y-14243983D01*
X80727988Y-14214489D01*
X80698838Y-14177640D01*
X80640393Y-14065846D01*
X80633679Y-14055585D01*
X80517532Y-13911127D01*
X80508954Y-13902368D01*
X80366961Y-13783222D01*
X80356841Y-13776292D01*
X80194415Y-13686998D01*
X80183142Y-13682166D01*
X80006462Y-13626120D01*
X79994468Y-13623570D01*
X79850239Y-13607393D01*
X79843215Y-13607000D01*
X79612115Y-13607000D01*
X79596876Y-13611475D01*
X79595671Y-13612865D01*
X79594000Y-13620548D01*
X79594000Y-15604885D01*
X79598475Y-15620124D01*
X79599865Y-15621329D01*
X79607548Y-15623000D01*
X79836657Y-15623000D01*
X79842805Y-15622699D01*
X79980603Y-15609188D01*
X79992638Y-15606805D01*
X80170076Y-15553233D01*
X80181416Y-15548559D01*
X80345077Y-15461540D01*
X80355294Y-15454751D01*
X80498933Y-15337603D01*
X80507637Y-15328959D01*
X80625784Y-15186144D01*
X80632644Y-15175973D01*
X80699664Y-15052022D01*
X80749659Y-15001614D01*
X80818970Y-14986236D01*
X80885592Y-15010772D01*
X80928373Y-15067432D01*
X80936500Y-15111951D01*
X80936500Y-17495500D01*
X80916498Y-17563621D01*
X80862842Y-17610114D01*
X80810500Y-17621500D01*
X79171866Y-17621500D01*
X79109684Y-17628255D01*
X78973295Y-17679385D01*
X78856739Y-17766739D01*
X78769385Y-17883295D01*
X78766233Y-17891704D01*
X78766232Y-17891705D01*
X78724722Y-18002433D01*
X78682081Y-18059198D01*
X78615519Y-18083898D01*
X78546170Y-18068691D01*
X78513546Y-18043004D01*
X78462799Y-17987234D01*
X78455273Y-17980215D01*
X78288139Y-17848222D01*
X78279552Y-17842517D01*
X78093117Y-17739599D01*
X78083705Y-17735369D01*
X77882959Y-17664280D01*
X77872988Y-17661646D01*
X77801837Y-17648972D01*
X77788540Y-17650432D01*
X77784000Y-17664989D01*
X77784000Y-19108000D01*
X77763998Y-19176121D01*
X77710342Y-19222614D01*
X77658000Y-19234000D01*
X77402000Y-19234000D01*
X77333879Y-19213998D01*
X77287386Y-19160342D01*
X77276000Y-19108000D01*
X77276000Y-17663102D01*
X77272082Y-17649758D01*
X77257806Y-17647771D01*
X77219324Y-17653660D01*
X77209288Y-17656051D01*
X77006868Y-17722212D01*
X76997359Y-17726209D01*
X76808463Y-17824542D01*
X76799738Y-17830036D01*
X76629433Y-17957905D01*
X76621726Y-17964748D01*
X76474590Y-18118717D01*
X76468109Y-18126722D01*
X76363498Y-18280074D01*
X76308587Y-18325076D01*
X76238062Y-18333247D01*
X76174315Y-18301993D01*
X76153618Y-18277509D01*
X76072822Y-18152617D01*
X76072820Y-18152614D01*
X76070014Y-18148277D01*
X75919670Y-17983051D01*
X75915619Y-17979852D01*
X75915615Y-17979848D01*
X75748414Y-17847800D01*
X75748410Y-17847798D01*
X75744359Y-17844598D01*
X75708028Y-17824542D01*
X75639661Y-17786802D01*
X75548789Y-17736638D01*
X75543920Y-17734914D01*
X75543916Y-17734912D01*
X75343087Y-17663795D01*
X75343083Y-17663794D01*
X75338212Y-17662069D01*
X75333119Y-17661162D01*
X75333116Y-17661161D01*
X75123373Y-17623800D01*
X75123367Y-17623799D01*
X75118284Y-17622894D01*
X75044452Y-17621992D01*
X74900081Y-17620228D01*
X74900079Y-17620228D01*
X74894911Y-17620165D01*
X74747885Y-17642663D01*
X74679200Y-17653173D01*
X74679197Y-17653174D01*
X74674091Y-17653955D01*
X74551984Y-17693866D01*
X74481022Y-17696017D01*
X74423745Y-17663196D01*
X71641317Y-14880768D01*
X73617425Y-14880768D01*
X73649138Y-14988521D01*
X73653731Y-14999889D01*
X73739607Y-15164154D01*
X73746321Y-15174415D01*
X73862468Y-15318873D01*
X73871046Y-15327632D01*
X74013039Y-15446778D01*
X74023159Y-15453708D01*
X74185585Y-15543002D01*
X74196858Y-15547834D01*
X74373538Y-15603880D01*
X74385532Y-15606430D01*
X74529761Y-15622607D01*
X74536785Y-15623000D01*
X74867885Y-15623000D01*
X74883124Y-15618525D01*
X74884329Y-15617135D01*
X74886000Y-15609452D01*
X74886000Y-15604885D01*
X75394000Y-15604885D01*
X75398475Y-15620124D01*
X75399865Y-15621329D01*
X75407548Y-15623000D01*
X75736657Y-15623000D01*
X75742805Y-15622699D01*
X75880603Y-15609188D01*
X75892638Y-15606805D01*
X76070076Y-15553233D01*
X76081416Y-15548559D01*
X76245077Y-15461540D01*
X76255294Y-15454751D01*
X76398933Y-15337603D01*
X76407637Y-15328959D01*
X76525784Y-15186144D01*
X76532644Y-15175973D01*
X76620804Y-15012924D01*
X76625558Y-15001614D01*
X76661250Y-14886308D01*
X76661331Y-14880768D01*
X77917425Y-14880768D01*
X77949138Y-14988521D01*
X77953731Y-14999889D01*
X78039607Y-15164154D01*
X78046321Y-15174415D01*
X78162468Y-15318873D01*
X78171046Y-15327632D01*
X78313039Y-15446778D01*
X78323159Y-15453708D01*
X78485585Y-15543002D01*
X78496858Y-15547834D01*
X78673538Y-15603880D01*
X78685532Y-15606430D01*
X78829761Y-15622607D01*
X78836785Y-15623000D01*
X79067885Y-15623000D01*
X79083124Y-15618525D01*
X79084329Y-15617135D01*
X79086000Y-15609452D01*
X79086000Y-14887115D01*
X79081525Y-14871876D01*
X79080135Y-14870671D01*
X79072452Y-14869000D01*
X77932076Y-14869000D01*
X77918545Y-14872973D01*
X77917425Y-14880768D01*
X76661331Y-14880768D01*
X76661456Y-14872205D01*
X76654701Y-14869000D01*
X75412115Y-14869000D01*
X75396876Y-14873475D01*
X75395671Y-14874865D01*
X75394000Y-14882548D01*
X75394000Y-15604885D01*
X74886000Y-15604885D01*
X74886000Y-14887115D01*
X74881525Y-14871876D01*
X74880135Y-14870671D01*
X74872452Y-14869000D01*
X73632076Y-14869000D01*
X73618545Y-14872973D01*
X73617425Y-14880768D01*
X71641317Y-14880768D01*
X71047088Y-14286539D01*
X71013062Y-14224227D01*
X71018127Y-14153412D01*
X71060674Y-14096576D01*
X71108995Y-14076528D01*
X71108548Y-14074668D01*
X71114170Y-14073318D01*
X71119883Y-14072490D01*
X71125347Y-14070635D01*
X71125352Y-14070634D01*
X71307327Y-14008862D01*
X71307332Y-14008860D01*
X71312799Y-14007004D01*
X71331779Y-13996375D01*
X71425977Y-13943621D01*
X71490551Y-13907458D01*
X71647186Y-13777186D01*
X71777458Y-13620551D01*
X71850419Y-13490270D01*
X71874180Y-13447842D01*
X71874181Y-13447840D01*
X71877004Y-13442799D01*
X71878861Y-13437327D01*
X71880808Y-13432955D01*
X71926788Y-13378860D01*
X71994715Y-13358211D01*
X72063023Y-13377564D01*
X72094657Y-13405938D01*
X72104894Y-13418854D01*
X72109581Y-13422843D01*
X72109584Y-13422846D01*
X72255448Y-13546985D01*
X72262976Y-13553392D01*
X72444180Y-13654664D01*
X72641603Y-13718810D01*
X72847725Y-13743389D01*
X72853860Y-13742917D01*
X72853862Y-13742917D01*
X73048555Y-13727936D01*
X73048560Y-13727935D01*
X73054696Y-13727463D01*
X73060630Y-13725806D01*
X73060637Y-13725805D01*
X73135117Y-13705010D01*
X73206107Y-13705956D01*
X73265317Y-13745132D01*
X73293946Y-13810100D01*
X73295001Y-13826368D01*
X73295001Y-13834669D01*
X73295371Y-13841490D01*
X73300895Y-13892352D01*
X73304521Y-13907604D01*
X73349676Y-14028054D01*
X73358214Y-14043649D01*
X73434715Y-14145724D01*
X73447276Y-14158285D01*
X73549354Y-14234788D01*
X73553190Y-14236888D01*
X73556255Y-14239960D01*
X73556538Y-14240172D01*
X73556507Y-14240213D01*
X73603336Y-14287146D01*
X73618668Y-14349248D01*
X73618543Y-14357795D01*
X73625298Y-14361000D01*
X74867885Y-14361000D01*
X74883124Y-14356525D01*
X74884329Y-14355135D01*
X74886000Y-14347452D01*
X74886000Y-13907679D01*
X74906002Y-13839558D01*
X74959658Y-13793065D01*
X75029932Y-13782961D01*
X75088529Y-13807583D01*
X75200257Y-13893006D01*
X75200261Y-13893009D01*
X75205678Y-13897150D01*
X75321250Y-13951042D01*
X75374535Y-13997959D01*
X75394000Y-14065237D01*
X75394000Y-14342885D01*
X75398475Y-14358124D01*
X75399865Y-14359329D01*
X75407548Y-14361000D01*
X76647924Y-14361000D01*
X76658839Y-14357795D01*
X77918544Y-14357795D01*
X77925299Y-14361000D01*
X79067885Y-14361000D01*
X79083124Y-14356525D01*
X79084329Y-14355135D01*
X79086000Y-14347452D01*
X79086000Y-13625115D01*
X79081525Y-13609876D01*
X79080135Y-13608671D01*
X79072452Y-13607000D01*
X78843343Y-13607000D01*
X78837195Y-13607301D01*
X78699397Y-13620812D01*
X78687362Y-13623195D01*
X78509924Y-13676767D01*
X78498584Y-13681441D01*
X78334923Y-13768460D01*
X78324706Y-13775249D01*
X78181067Y-13892397D01*
X78172363Y-13901041D01*
X78054216Y-14043856D01*
X78047356Y-14054027D01*
X77959196Y-14217076D01*
X77954444Y-14228381D01*
X77918750Y-14343692D01*
X77918544Y-14357795D01*
X76658839Y-14357795D01*
X76661455Y-14357027D01*
X76662575Y-14349232D01*
X76630862Y-14241479D01*
X76626269Y-14230111D01*
X76540393Y-14065846D01*
X76533679Y-14055585D01*
X76417532Y-13911127D01*
X76408954Y-13902368D01*
X76335621Y-13840834D01*
X76296294Y-13781724D01*
X76295168Y-13710737D01*
X76312400Y-13673489D01*
X76326170Y-13653228D01*
X76380277Y-13573612D01*
X76447530Y-13405466D01*
X76448644Y-13398738D01*
X76448645Y-13398734D01*
X76475993Y-13233539D01*
X76475993Y-13233536D01*
X76477108Y-13226802D01*
X76476729Y-13219558D01*
X76467987Y-13052766D01*
X76467630Y-13045953D01*
X76463644Y-13031479D01*
X76421352Y-12877941D01*
X76419539Y-12871359D01*
X76335078Y-12711164D01*
X76330673Y-12705951D01*
X76330670Y-12705947D01*
X76222594Y-12578057D01*
X76222590Y-12578053D01*
X76218187Y-12572843D01*
X76212762Y-12568695D01*
X76079743Y-12466994D01*
X76079739Y-12466991D01*
X76074322Y-12462850D01*
X75969186Y-12413825D01*
X75916369Y-12389195D01*
X75916366Y-12389194D01*
X75910192Y-12386315D01*
X75903544Y-12384829D01*
X75903541Y-12384828D01*
X75753987Y-12351399D01*
X75733457Y-12346810D01*
X75727912Y-12346500D01*
X75594756Y-12346500D01*
X75593847Y-12346599D01*
X75525212Y-12330420D01*
X75475885Y-12279357D01*
X75461500Y-12220893D01*
X75461500Y-11886396D01*
X75481502Y-11818275D01*
X75535158Y-11771782D01*
X75548563Y-11766563D01*
X75638625Y-11737300D01*
X75645322Y-11735124D01*
X75791490Y-11647990D01*
X75796584Y-11643139D01*
X75796588Y-11643136D01*
X75890598Y-11553611D01*
X75914721Y-11530639D01*
X75918914Y-11524329D01*
X75966064Y-11453361D01*
X76008891Y-11388902D01*
X76069319Y-11229825D01*
X76093001Y-11061313D01*
X76093299Y-11040000D01*
X76088206Y-10994595D01*
X76080619Y-10926949D01*
X76092904Y-10857024D01*
X76116739Y-10823810D01*
X76176234Y-10764315D01*
X76188625Y-10753448D01*
X76207437Y-10739013D01*
X76213987Y-10733987D01*
X76238474Y-10702075D01*
X76238480Y-10702069D01*
X76306496Y-10613429D01*
X76306497Y-10613427D01*
X76311524Y-10606876D01*
X76339225Y-10540000D01*
X76344447Y-10527394D01*
X76369678Y-10466480D01*
X76369679Y-10466477D01*
X76372838Y-10458850D01*
X76376235Y-10433051D01*
X76388500Y-10339885D01*
X76388500Y-10339878D01*
X76392672Y-10308188D01*
X76393750Y-10300000D01*
X76389578Y-10268307D01*
X76388500Y-10251864D01*
X76388500Y-9828136D01*
X76389578Y-9811690D01*
X76392672Y-9788188D01*
X76393750Y-9780000D01*
X76388500Y-9740122D01*
X76388500Y-9740115D01*
X76380438Y-9678880D01*
X76373916Y-9629338D01*
X76372838Y-9621150D01*
X76369222Y-9612418D01*
X76327580Y-9511887D01*
X76325989Y-9508047D01*
X76311524Y-9473124D01*
X76292069Y-9447769D01*
X76241176Y-9381446D01*
X76238477Y-9377928D01*
X76238474Y-9377925D01*
X76213987Y-9346013D01*
X76198260Y-9333945D01*
X76188621Y-9326548D01*
X76176230Y-9315681D01*
X76004315Y-9143766D01*
X75993448Y-9131375D01*
X75979013Y-9112563D01*
X75973987Y-9106013D01*
X75942075Y-9081526D01*
X75942072Y-9081523D01*
X75933248Y-9074752D01*
X75853429Y-9013504D01*
X75853427Y-9013503D01*
X75846876Y-9008476D01*
X75698851Y-8947162D01*
X75690664Y-8946084D01*
X75690663Y-8946084D01*
X75679458Y-8944609D01*
X75598327Y-8933928D01*
X75579885Y-8931500D01*
X75579881Y-8931500D01*
X75579872Y-8931499D01*
X75567788Y-8929908D01*
X75502861Y-8901185D01*
X75463770Y-8841919D01*
X75458972Y-8818594D01*
X75457344Y-8803608D01*
X75457344Y-8776393D01*
X75461131Y-8741533D01*
X75461131Y-8741529D01*
X75461500Y-8738134D01*
X75461500Y-8359500D01*
X75481502Y-8291379D01*
X75535158Y-8244886D01*
X75587500Y-8233500D01*
X75685244Y-8233500D01*
X75820037Y-8218857D01*
X75977585Y-8165836D01*
X75985204Y-8163272D01*
X75985206Y-8163271D01*
X75991675Y-8161094D01*
X76146905Y-8067823D01*
X76151862Y-8063135D01*
X76151865Y-8063133D01*
X76273527Y-7948082D01*
X76273529Y-7948080D01*
X76278485Y-7943393D01*
X76282317Y-7937755D01*
X76282320Y-7937751D01*
X76376442Y-7799255D01*
X76380277Y-7793612D01*
X76447530Y-7625466D01*
X76448644Y-7618738D01*
X76448645Y-7618734D01*
X76475993Y-7453539D01*
X76475993Y-7453536D01*
X76477108Y-7446802D01*
X76476705Y-7439095D01*
X76467987Y-7272766D01*
X76467630Y-7265953D01*
X76463556Y-7251160D01*
X76421352Y-7097941D01*
X76419539Y-7091359D01*
X76335078Y-6931164D01*
X76322046Y-6915743D01*
X76293353Y-6850803D01*
X76304325Y-6780659D01*
X76338647Y-6736771D01*
X76398932Y-6687603D01*
X76407637Y-6678959D01*
X76525784Y-6536144D01*
X76532644Y-6525973D01*
X76620804Y-6362924D01*
X76625558Y-6351614D01*
X76661250Y-6236308D01*
X76661331Y-6230768D01*
X77917425Y-6230768D01*
X77949138Y-6338521D01*
X77953731Y-6349889D01*
X78039607Y-6514154D01*
X78046321Y-6524415D01*
X78162468Y-6668873D01*
X78171046Y-6677632D01*
X78313039Y-6796778D01*
X78323159Y-6803708D01*
X78485585Y-6893002D01*
X78496858Y-6897834D01*
X78673538Y-6953880D01*
X78685532Y-6956430D01*
X78829761Y-6972607D01*
X78836785Y-6973000D01*
X79067885Y-6973000D01*
X79083124Y-6968525D01*
X79084329Y-6967135D01*
X79086000Y-6959452D01*
X79086000Y-6237115D01*
X79081525Y-6221876D01*
X79080135Y-6220671D01*
X79072452Y-6219000D01*
X77932076Y-6219000D01*
X77918545Y-6222973D01*
X77917425Y-6230768D01*
X76661331Y-6230768D01*
X76661456Y-6222205D01*
X76654701Y-6219000D01*
X75412115Y-6219000D01*
X75396876Y-6223475D01*
X75395671Y-6224865D01*
X75394000Y-6232548D01*
X75394000Y-6512802D01*
X75373998Y-6580923D01*
X75320342Y-6627416D01*
X75308189Y-6632221D01*
X75294796Y-6636728D01*
X75294794Y-6636729D01*
X75288325Y-6638906D01*
X75133095Y-6732177D01*
X75128138Y-6736865D01*
X75128135Y-6736867D01*
X75098573Y-6764823D01*
X75035335Y-6797095D01*
X74964689Y-6790055D01*
X74909063Y-6745938D01*
X74886000Y-6673275D01*
X74886000Y-5692885D01*
X75394000Y-5692885D01*
X75398475Y-5708124D01*
X75399865Y-5709329D01*
X75407548Y-5711000D01*
X76647924Y-5711000D01*
X76658839Y-5707795D01*
X77918544Y-5707795D01*
X77925299Y-5711000D01*
X79067885Y-5711000D01*
X79083124Y-5706525D01*
X79084329Y-5705135D01*
X79086000Y-5697452D01*
X79086000Y-4975115D01*
X79081525Y-4959876D01*
X79080135Y-4958671D01*
X79072452Y-4957000D01*
X78843343Y-4957000D01*
X78837195Y-4957301D01*
X78699397Y-4970812D01*
X78687362Y-4973195D01*
X78509924Y-5026767D01*
X78498584Y-5031441D01*
X78334923Y-5118460D01*
X78324706Y-5125249D01*
X78181067Y-5242397D01*
X78172363Y-5251041D01*
X78054216Y-5393856D01*
X78047356Y-5404027D01*
X77959196Y-5567076D01*
X77954444Y-5578381D01*
X77918750Y-5693692D01*
X77918544Y-5707795D01*
X76658839Y-5707795D01*
X76661455Y-5707027D01*
X76662575Y-5699232D01*
X76630862Y-5591479D01*
X76626269Y-5580111D01*
X76540393Y-5415846D01*
X76533679Y-5405585D01*
X76417532Y-5261127D01*
X76408954Y-5252368D01*
X76266961Y-5133222D01*
X76256841Y-5126292D01*
X76094415Y-5036998D01*
X76083142Y-5032166D01*
X75906462Y-4976120D01*
X75894468Y-4973570D01*
X75750239Y-4957393D01*
X75743215Y-4957000D01*
X75412115Y-4957000D01*
X75396876Y-4961475D01*
X75395671Y-4962865D01*
X75394000Y-4970548D01*
X75394000Y-5692885D01*
X74886000Y-5692885D01*
X74886000Y-4975115D01*
X74881525Y-4959876D01*
X74880135Y-4958671D01*
X74872452Y-4957000D01*
X74543343Y-4957000D01*
X74537195Y-4957301D01*
X74399397Y-4970812D01*
X74387362Y-4973195D01*
X74209924Y-5026767D01*
X74198584Y-5031441D01*
X74034923Y-5118460D01*
X74024706Y-5125249D01*
X73881067Y-5242397D01*
X73872363Y-5251041D01*
X73754216Y-5393856D01*
X73747356Y-5404027D01*
X73659196Y-5567076D01*
X73654444Y-5578381D01*
X73599633Y-5755446D01*
X73595927Y-5773500D01*
X73593936Y-5773091D01*
X73570463Y-5830133D01*
X73512239Y-5870759D01*
X73441294Y-5873458D01*
X73383076Y-5840395D01*
X73245405Y-5702724D01*
X73211379Y-5640412D01*
X73208500Y-5613629D01*
X73208500Y-2522632D01*
X73228502Y-2454511D01*
X73261331Y-2420054D01*
X73329860Y-2371173D01*
X73488096Y-2213489D01*
X73618453Y-2032077D01*
X73619640Y-2032930D01*
X73666960Y-1989362D01*
X73736897Y-1977145D01*
X73802338Y-2004678D01*
X73830166Y-2036511D01*
X73887694Y-2130388D01*
X73893777Y-2138699D01*
X74033213Y-2299667D01*
X74040580Y-2306883D01*
X74204434Y-2442916D01*
X74212881Y-2448831D01*
X74396756Y-2556279D01*
X74406042Y-2560729D01*
X74605001Y-2636703D01*
X74614899Y-2639579D01*
X74718250Y-2660606D01*
X74732299Y-2659410D01*
X74736000Y-2649065D01*
X74736000Y-1202000D01*
X74756002Y-1133879D01*
X74809658Y-1087386D01*
X74862000Y-1076000D01*
X75118000Y-1076000D01*
X75186121Y-1096002D01*
G37*
%TD.AperFunction*%
%TA.AperFunction,Conductor*%
G36*
X7810099Y-12058502D02*
G01*
X7856592Y-12112158D01*
X7866696Y-12182432D01*
X7853486Y-12223167D01*
X7821492Y-12283978D01*
X7761078Y-12478543D01*
X7737132Y-12680859D01*
X7750457Y-12884151D01*
X7800605Y-13081610D01*
X7885898Y-13266624D01*
X8003479Y-13432997D01*
X8050159Y-13478471D01*
X8132020Y-13558216D01*
X8149410Y-13575157D01*
X8154206Y-13578362D01*
X8154209Y-13578364D01*
X8266251Y-13653228D01*
X8318803Y-13688342D01*
X8324106Y-13690620D01*
X8324109Y-13690622D01*
X8484967Y-13759732D01*
X8539660Y-13805000D01*
X8561197Y-13872652D01*
X8542740Y-13941207D01*
X8490149Y-13988901D01*
X8435229Y-14001500D01*
X5848144Y-14001500D01*
X5831698Y-14000422D01*
X5808188Y-13997327D01*
X5800000Y-13996249D01*
X5739758Y-14004180D01*
X5671320Y-14013190D01*
X5641149Y-14017162D01*
X5493124Y-14078476D01*
X5462828Y-14101723D01*
X5397937Y-14151515D01*
X5397921Y-14151529D01*
X5372566Y-14170984D01*
X5372563Y-14170987D01*
X5366013Y-14176013D01*
X5360983Y-14182568D01*
X5346548Y-14201379D01*
X5335681Y-14213770D01*
X1888897Y-17660554D01*
X1826585Y-17694580D01*
X1757743Y-17690232D01*
X1683084Y-17663794D01*
X1683081Y-17663793D01*
X1678212Y-17662069D01*
X1673123Y-17661162D01*
X1673121Y-17661162D01*
X1463373Y-17623800D01*
X1463367Y-17623799D01*
X1458284Y-17622894D01*
X1384452Y-17621992D01*
X1240081Y-17620228D01*
X1240079Y-17620228D01*
X1234911Y-17620165D01*
X1014091Y-17653955D01*
X801756Y-17723357D01*
X797168Y-17725745D01*
X797164Y-17725747D01*
X679879Y-17786802D01*
X610219Y-17800515D01*
X544204Y-17774390D01*
X502793Y-17716721D01*
X495699Y-17675039D01*
X495699Y-15454000D01*
X515701Y-15385879D01*
X569357Y-15339386D01*
X621699Y-15328000D01*
X1052885Y-15328000D01*
X1068124Y-15323525D01*
X1069329Y-15322135D01*
X1071000Y-15314452D01*
X1071000Y-15309884D01*
X1579000Y-15309884D01*
X1583475Y-15325123D01*
X1584865Y-15326328D01*
X1592548Y-15327999D01*
X2219669Y-15327999D01*
X2226490Y-15327629D01*
X2277352Y-15322105D01*
X2292604Y-15318479D01*
X2413054Y-15273324D01*
X2428649Y-15264786D01*
X2530724Y-15188285D01*
X2543285Y-15175724D01*
X2619786Y-15073649D01*
X2628324Y-15058054D01*
X2673478Y-14937606D01*
X2677105Y-14922351D01*
X2682631Y-14871486D01*
X2683000Y-14864672D01*
X2683000Y-14242115D01*
X2678525Y-14226876D01*
X2677135Y-14225671D01*
X2669452Y-14224000D01*
X1597115Y-14224000D01*
X1581876Y-14228475D01*
X1580671Y-14229865D01*
X1579000Y-14237548D01*
X1579000Y-15309884D01*
X1071000Y-15309884D01*
X1071000Y-13842000D01*
X1091002Y-13773879D01*
X1144658Y-13727386D01*
X1197000Y-13716000D01*
X2664884Y-13716000D01*
X2680123Y-13711525D01*
X2681328Y-13710135D01*
X2682999Y-13702452D01*
X2682999Y-13075331D01*
X2682629Y-13068510D01*
X2677105Y-13017648D01*
X2673479Y-13002396D01*
X2628324Y-12881946D01*
X2619786Y-12866351D01*
X2543285Y-12764276D01*
X2530724Y-12751715D01*
X2428649Y-12675214D01*
X2413054Y-12666676D01*
X2302813Y-12625348D01*
X2246049Y-12582706D01*
X2221349Y-12516145D01*
X2236557Y-12446796D01*
X2258104Y-12418115D01*
X2359430Y-12317144D01*
X2359440Y-12317132D01*
X2363096Y-12313489D01*
X2377460Y-12293500D01*
X2490435Y-12136277D01*
X2493453Y-12132077D01*
X2502633Y-12113502D01*
X2505019Y-12108675D01*
X2553132Y-12056467D01*
X2617977Y-12038500D01*
X7741978Y-12038500D01*
X7810099Y-12058502D01*
G37*
%TD.AperFunction*%
%TA.AperFunction,Conductor*%
G36*
X42900224Y-11178502D02*
G01*
X42946717Y-11232158D01*
X42956821Y-11302432D01*
X42944370Y-11341703D01*
X42930488Y-11368949D01*
X42928935Y-11371996D01*
X42880187Y-11423611D01*
X42873870Y-11427060D01*
X42868579Y-11429756D01*
X42861121Y-11432441D01*
X42723515Y-11525959D01*
X42718272Y-11531907D01*
X42718271Y-11531907D01*
X42712325Y-11538652D01*
X42652273Y-11576523D01*
X42625527Y-11580252D01*
X42625511Y-11580250D01*
X42593818Y-11584422D01*
X42577375Y-11585500D01*
X42145411Y-11585500D01*
X42077897Y-11565885D01*
X41992562Y-11511729D01*
X41992558Y-11511727D01*
X41986608Y-11507951D01*
X41826300Y-11450868D01*
X41657329Y-11430720D01*
X41650326Y-11431456D01*
X41650325Y-11431456D01*
X41495101Y-11447770D01*
X41495097Y-11447771D01*
X41488093Y-11448507D01*
X41481422Y-11450778D01*
X41333673Y-11501075D01*
X41333670Y-11501076D01*
X41327003Y-11503346D01*
X41321005Y-11507036D01*
X41321003Y-11507037D01*
X41188065Y-11588821D01*
X41188063Y-11588823D01*
X41182066Y-11592512D01*
X41121734Y-11651594D01*
X41066021Y-11706153D01*
X41060486Y-11711573D01*
X41056675Y-11717487D01*
X41056673Y-11717489D01*
X40989885Y-11821123D01*
X40968304Y-11854610D01*
X40940231Y-11931740D01*
X40918565Y-11991268D01*
X40910103Y-12014516D01*
X40888775Y-12183343D01*
X40905381Y-12352699D01*
X40907605Y-12359384D01*
X40907605Y-12359385D01*
X40919666Y-12395643D01*
X40959094Y-12514167D01*
X40962741Y-12520189D01*
X40962742Y-12520191D01*
X41042640Y-12652117D01*
X41047246Y-12659723D01*
X41165455Y-12782132D01*
X41215643Y-12814974D01*
X41223319Y-12819997D01*
X41269367Y-12874035D01*
X41278890Y-12944390D01*
X41248839Y-13008754D01*
X41244592Y-13013571D01*
X41216044Y-13045953D01*
X41199276Y-13064972D01*
X41195679Y-13072032D01*
X41195678Y-13072033D01*
X41172002Y-13118500D01*
X41162721Y-13136716D01*
X41161168Y-13139763D01*
X41112420Y-13191378D01*
X41106103Y-13194827D01*
X41100812Y-13197523D01*
X41093354Y-13200208D01*
X40955748Y-13293726D01*
X40950504Y-13299674D01*
X40950503Y-13299675D01*
X40908410Y-13347420D01*
X40845722Y-13418526D01*
X40842125Y-13425586D01*
X40842122Y-13425590D01*
X40807615Y-13493315D01*
X40758867Y-13544931D01*
X40752550Y-13548380D01*
X40747259Y-13551076D01*
X40739801Y-13553761D01*
X40602195Y-13647279D01*
X40596951Y-13653227D01*
X40596950Y-13653228D01*
X40532965Y-13725805D01*
X40492169Y-13772079D01*
X40488572Y-13779139D01*
X40488569Y-13779143D01*
X40454062Y-13846868D01*
X40405314Y-13898484D01*
X40398997Y-13901933D01*
X40393706Y-13904629D01*
X40386248Y-13907314D01*
X40248642Y-14000832D01*
X40243398Y-14006780D01*
X40243397Y-14006781D01*
X40144229Y-14119265D01*
X40138616Y-14125632D01*
X40135019Y-14132692D01*
X40135018Y-14132693D01*
X40100508Y-14200423D01*
X40051760Y-14252038D01*
X40045443Y-14255487D01*
X40040152Y-14258183D01*
X40032694Y-14260868D01*
X39895088Y-14354386D01*
X39785062Y-14479186D01*
X39781465Y-14486246D01*
X39781462Y-14486250D01*
X39746955Y-14553975D01*
X39698207Y-14605591D01*
X39691890Y-14609040D01*
X39686599Y-14611736D01*
X39679141Y-14614421D01*
X39541535Y-14707939D01*
X39431509Y-14832739D01*
X39427912Y-14839799D01*
X39427911Y-14839800D01*
X39393401Y-14907530D01*
X39344653Y-14959145D01*
X39338336Y-14962594D01*
X39333045Y-14965290D01*
X39325587Y-14967975D01*
X39187981Y-15061493D01*
X39124415Y-15133595D01*
X39094505Y-15167521D01*
X39034452Y-15205391D01*
X38963458Y-15204782D01*
X38932477Y-15190580D01*
X38842683Y-15133595D01*
X38819608Y-15118951D01*
X38659300Y-15061868D01*
X38490329Y-15041720D01*
X38483326Y-15042456D01*
X38483325Y-15042456D01*
X38328101Y-15058770D01*
X38328097Y-15058771D01*
X38321093Y-15059507D01*
X38314422Y-15061778D01*
X38166673Y-15112075D01*
X38166670Y-15112076D01*
X38160003Y-15114346D01*
X38154005Y-15118036D01*
X38154003Y-15118037D01*
X38021065Y-15199821D01*
X38021063Y-15199823D01*
X38015066Y-15203512D01*
X38010033Y-15208441D01*
X37915475Y-15301040D01*
X37893486Y-15322573D01*
X37889674Y-15328488D01*
X37889670Y-15328493D01*
X37852075Y-15386829D01*
X37798361Y-15433254D01*
X37728074Y-15443269D01*
X37663531Y-15413693D01*
X37625223Y-15353919D01*
X37621390Y-15301040D01*
X37624701Y-15277476D01*
X37625251Y-15273563D01*
X37625549Y-15252250D01*
X37606581Y-15083142D01*
X37598351Y-15059507D01*
X37566475Y-14967975D01*
X37550618Y-14922439D01*
X37536857Y-14900416D01*
X37517720Y-14832049D01*
X37538584Y-14764187D01*
X37554615Y-14744551D01*
X41103761Y-11195405D01*
X41166073Y-11161379D01*
X41192856Y-11158500D01*
X42832103Y-11158500D01*
X42900224Y-11178502D01*
G37*
%TD.AperFunction*%
%TA.AperFunction,Conductor*%
G36*
X10513882Y-12058502D02*
G01*
X10534856Y-12075405D01*
X10746612Y-12287161D01*
X10780638Y-12349473D01*
X10782177Y-12359259D01*
X10782694Y-12361690D01*
X10783381Y-12368699D01*
X10785605Y-12375384D01*
X10785605Y-12375385D01*
X10788365Y-12383681D01*
X10837094Y-12530167D01*
X10840741Y-12536189D01*
X10840742Y-12536191D01*
X10918507Y-12664595D01*
X10925246Y-12675723D01*
X11043455Y-12798132D01*
X11072874Y-12817383D01*
X11176992Y-12885516D01*
X11185846Y-12891310D01*
X11192450Y-12893766D01*
X11192452Y-12893767D01*
X11225932Y-12906218D01*
X11345341Y-12950626D01*
X11514015Y-12973132D01*
X11521026Y-12972494D01*
X11521030Y-12972494D01*
X11676462Y-12958348D01*
X11683483Y-12957709D01*
X11690185Y-12955531D01*
X11690187Y-12955531D01*
X11838623Y-12907301D01*
X11838626Y-12907300D01*
X11845322Y-12905124D01*
X11851373Y-12901517D01*
X11875587Y-12887083D01*
X11944342Y-12869384D01*
X12011751Y-12891667D01*
X12029198Y-12906218D01*
X12069239Y-12946259D01*
X12103265Y-13008571D01*
X12098200Y-13079386D01*
X12069239Y-13124449D01*
X11979131Y-13214557D01*
X11969824Y-13226426D01*
X11888921Y-13360012D01*
X11882715Y-13373757D01*
X11835744Y-13523644D01*
X11833131Y-13536694D01*
X11828087Y-13591586D01*
X11831475Y-13603124D01*
X11832865Y-13604329D01*
X11840548Y-13606000D01*
X13708885Y-13606000D01*
X13724124Y-13601526D01*
X13725889Y-13599488D01*
X13785615Y-13561104D01*
X13821114Y-13556000D01*
X15714885Y-13556000D01*
X15730124Y-13551525D01*
X15731329Y-13550135D01*
X15732014Y-13546985D01*
X15766038Y-13484672D01*
X15828350Y-13450646D01*
X15899166Y-13455710D01*
X15931836Y-13473802D01*
X15937925Y-13478474D01*
X15937928Y-13478477D01*
X15983449Y-13513406D01*
X16033125Y-13551524D01*
X16157698Y-13603124D01*
X16172679Y-13609329D01*
X16181150Y-13612838D01*
X16300115Y-13628500D01*
X16300120Y-13628500D01*
X16300129Y-13628501D01*
X16331812Y-13632672D01*
X16340000Y-13633750D01*
X16371693Y-13629578D01*
X16388136Y-13628500D01*
X16636000Y-13628500D01*
X16704121Y-13648502D01*
X16750614Y-13702158D01*
X16762000Y-13754500D01*
X16762000Y-13875500D01*
X16741998Y-13943621D01*
X16688342Y-13990114D01*
X16636000Y-14001500D01*
X9257329Y-14001500D01*
X9189208Y-13981498D01*
X9142715Y-13927842D01*
X9132611Y-13857568D01*
X9162105Y-13792988D01*
X9216828Y-13756187D01*
X9297327Y-13728862D01*
X9297332Y-13728860D01*
X9302799Y-13727004D01*
X9317431Y-13718810D01*
X9384056Y-13681498D01*
X9480551Y-13627458D01*
X9637186Y-13497186D01*
X9767458Y-13340551D01*
X9841607Y-13208149D01*
X9864180Y-13167842D01*
X9864181Y-13167840D01*
X9867004Y-13162799D01*
X9868860Y-13157332D01*
X9868862Y-13157327D01*
X9930634Y-12975352D01*
X9930635Y-12975347D01*
X9932490Y-12969883D01*
X9961723Y-12768263D01*
X9963249Y-12710000D01*
X9951553Y-12582706D01*
X9945137Y-12512880D01*
X9945136Y-12512877D01*
X9944608Y-12507126D01*
X9934468Y-12471173D01*
X9890875Y-12316606D01*
X9890874Y-12316604D01*
X9889307Y-12311047D01*
X9885586Y-12303500D01*
X9853926Y-12239302D01*
X9844520Y-12220227D01*
X9832330Y-12150286D01*
X9859889Y-12084857D01*
X9918447Y-12044713D01*
X9957526Y-12038500D01*
X10445761Y-12038500D01*
X10513882Y-12058502D01*
G37*
%TD.AperFunction*%
%TA.AperFunction,Conductor*%
G36*
X25162739Y-12847655D02*
G01*
X25180187Y-12862207D01*
X25269239Y-12951259D01*
X25303265Y-13013571D01*
X25298200Y-13084386D01*
X25269239Y-13129449D01*
X25179131Y-13219557D01*
X25169824Y-13231426D01*
X25088921Y-13365012D01*
X25082715Y-13378757D01*
X25035744Y-13528644D01*
X25033131Y-13541694D01*
X25028087Y-13596586D01*
X25031475Y-13608124D01*
X25032865Y-13609329D01*
X25040548Y-13611000D01*
X26888885Y-13611000D01*
X26904124Y-13606526D01*
X26905889Y-13604488D01*
X26965615Y-13566104D01*
X27001114Y-13561000D01*
X28058000Y-13561000D01*
X28126121Y-13581002D01*
X28172614Y-13634658D01*
X28184000Y-13687000D01*
X28184000Y-13875500D01*
X28163998Y-13943621D01*
X28110342Y-13990114D01*
X28058000Y-14001500D01*
X23403999Y-14001500D01*
X23335878Y-13981498D01*
X23289385Y-13927842D01*
X23277999Y-13875500D01*
X23277999Y-13756361D01*
X23298001Y-13688240D01*
X23351657Y-13641747D01*
X23387555Y-13631439D01*
X23409875Y-13628501D01*
X23409888Y-13628500D01*
X23517988Y-13614268D01*
X23520664Y-13613916D01*
X23520666Y-13613915D01*
X23528851Y-13612838D01*
X23676876Y-13551524D01*
X23685469Y-13544931D01*
X23772072Y-13478477D01*
X23772075Y-13478474D01*
X23797434Y-13459015D01*
X23803987Y-13453987D01*
X23815268Y-13439286D01*
X23823452Y-13428621D01*
X23834319Y-13416230D01*
X24294891Y-12955658D01*
X24357203Y-12921632D01*
X24427903Y-12926654D01*
X24442739Y-12932171D01*
X24442741Y-12932171D01*
X24449341Y-12934626D01*
X24456322Y-12935557D01*
X24456324Y-12935558D01*
X24502425Y-12941709D01*
X24618015Y-12957132D01*
X24625026Y-12956494D01*
X24625030Y-12956494D01*
X24780462Y-12942348D01*
X24787483Y-12941709D01*
X24794185Y-12939531D01*
X24794187Y-12939531D01*
X24942623Y-12891301D01*
X24942626Y-12891300D01*
X24949322Y-12889124D01*
X24955373Y-12885517D01*
X24955375Y-12885516D01*
X25026575Y-12843073D01*
X25095330Y-12825373D01*
X25162739Y-12847655D01*
G37*
%TD.AperFunction*%
%TA.AperFunction,Conductor*%
G36*
X38826393Y-10828502D02*
G01*
X38872886Y-10882158D01*
X38882990Y-10952432D01*
X38853496Y-11017012D01*
X38847367Y-11023595D01*
X35978372Y-13892590D01*
X35916060Y-13926616D01*
X35845245Y-13921551D01*
X35832080Y-13915765D01*
X35823976Y-13911635D01*
X35768916Y-13856571D01*
X35766222Y-13851283D01*
X35763536Y-13843823D01*
X35670018Y-13706218D01*
X35648220Y-13687000D01*
X35551164Y-13601434D01*
X35551163Y-13601434D01*
X35545218Y-13596192D01*
X35538158Y-13592595D01*
X35538154Y-13592592D01*
X35470429Y-13558085D01*
X35418813Y-13509337D01*
X35415363Y-13503018D01*
X35412669Y-13497730D01*
X35409983Y-13490270D01*
X35316465Y-13352665D01*
X35307768Y-13344997D01*
X35197610Y-13247880D01*
X35197609Y-13247879D01*
X35191665Y-13242639D01*
X35116877Y-13204533D01*
X35061813Y-13149470D01*
X35059112Y-13144170D01*
X35056429Y-13136716D01*
X35047895Y-13124158D01*
X35025442Y-13091121D01*
X34962911Y-12999111D01*
X34932387Y-12972200D01*
X34844057Y-12894327D01*
X34844056Y-12894327D01*
X34838111Y-12889085D01*
X34831051Y-12885488D01*
X34831047Y-12885485D01*
X34763322Y-12850978D01*
X34711706Y-12802230D01*
X34708256Y-12795911D01*
X34705562Y-12790623D01*
X34702876Y-12783163D01*
X34609358Y-12645558D01*
X34600660Y-12637889D01*
X34490504Y-12540774D01*
X34490503Y-12540774D01*
X34484558Y-12535532D01*
X34477498Y-12531935D01*
X34477494Y-12531932D01*
X34409769Y-12497425D01*
X34358153Y-12448677D01*
X34354703Y-12442358D01*
X34352009Y-12437070D01*
X34349323Y-12429610D01*
X34255805Y-12292005D01*
X34241347Y-12279258D01*
X34136950Y-12187220D01*
X34136949Y-12187219D01*
X34131005Y-12181979D01*
X34056217Y-12143873D01*
X34001153Y-12088810D01*
X33998452Y-12083510D01*
X33995769Y-12076056D01*
X33902251Y-11938451D01*
X33888427Y-11926263D01*
X33783397Y-11833667D01*
X33783396Y-11833667D01*
X33777451Y-11828425D01*
X33770391Y-11824828D01*
X33770387Y-11824825D01*
X33702662Y-11790318D01*
X33651046Y-11741570D01*
X33647596Y-11735251D01*
X33644902Y-11729963D01*
X33642216Y-11722503D01*
X33548698Y-11584898D01*
X33540078Y-11577298D01*
X33429843Y-11480113D01*
X33429842Y-11480112D01*
X33423898Y-11474872D01*
X33349110Y-11436766D01*
X33294046Y-11381703D01*
X33291345Y-11376403D01*
X33288662Y-11368949D01*
X33282260Y-11359528D01*
X33250102Y-11312211D01*
X33195144Y-11231344D01*
X33186693Y-11223893D01*
X33076290Y-11126560D01*
X33076289Y-11126560D01*
X33070344Y-11121318D01*
X33063284Y-11117721D01*
X33063280Y-11117718D01*
X32995555Y-11083211D01*
X32943939Y-11034463D01*
X32940489Y-11028144D01*
X32937794Y-11022855D01*
X32935109Y-11015396D01*
X32930656Y-11008843D01*
X32930653Y-11008838D01*
X32928265Y-11005325D01*
X32927240Y-11002140D01*
X32927053Y-11001773D01*
X32927112Y-11001743D01*
X32906517Y-10937742D01*
X32924760Y-10869129D01*
X32977201Y-10821271D01*
X33032475Y-10808500D01*
X38758272Y-10808500D01*
X38826393Y-10828502D01*
G37*
%TD.AperFunction*%
%TA.AperFunction,Conductor*%
G36*
X59827396Y-11576557D02*
G01*
X59884232Y-11619104D01*
X59904483Y-11659882D01*
X59905227Y-11662477D01*
X59925643Y-11733676D01*
X59934497Y-11764555D01*
X59937312Y-11770032D01*
X59937313Y-11770035D01*
X59984182Y-11861232D01*
X60020418Y-11931740D01*
X60024241Y-11936564D01*
X60024244Y-11936568D01*
X60109960Y-12044713D01*
X60137177Y-12079052D01*
X60141871Y-12083047D01*
X60264274Y-12187220D01*
X60280324Y-12200880D01*
X60285702Y-12203886D01*
X60285704Y-12203887D01*
X60326987Y-12226959D01*
X60444409Y-12292584D01*
X60623180Y-12350670D01*
X60809830Y-12372927D01*
X60815965Y-12372455D01*
X60815967Y-12372455D01*
X60991105Y-12358979D01*
X60991109Y-12358978D01*
X60997247Y-12358506D01*
X61081653Y-12334939D01*
X61104024Y-12328693D01*
X61175014Y-12329639D01*
X61234223Y-12368815D01*
X61262853Y-12433783D01*
X61257501Y-12489718D01*
X61249510Y-12513810D01*
X61246642Y-12527190D01*
X61237328Y-12618097D01*
X61237071Y-12623126D01*
X61241475Y-12638124D01*
X61242865Y-12639329D01*
X61250548Y-12641000D01*
X62348000Y-12641000D01*
X62416121Y-12661002D01*
X62462614Y-12714658D01*
X62474000Y-12767000D01*
X62474000Y-13023000D01*
X62453998Y-13091121D01*
X62400342Y-13137614D01*
X62348000Y-13149000D01*
X61255115Y-13149000D01*
X61239876Y-13153475D01*
X61238671Y-13154865D01*
X61237000Y-13162548D01*
X61237000Y-13165438D01*
X61237337Y-13171953D01*
X61246894Y-13264057D01*
X61249788Y-13277456D01*
X61299381Y-13426107D01*
X61305555Y-13439286D01*
X61348817Y-13509197D01*
X61367655Y-13577649D01*
X61346494Y-13645419D01*
X61292053Y-13690990D01*
X61241673Y-13701500D01*
X57903949Y-13701500D01*
X57835828Y-13681498D01*
X57789335Y-13627842D01*
X57779231Y-13557568D01*
X57808725Y-13492988D01*
X57814854Y-13486405D01*
X58959984Y-12341275D01*
X58972375Y-12330408D01*
X58991187Y-12315973D01*
X58997737Y-12310947D01*
X59008051Y-12297506D01*
X59022053Y-12279258D01*
X59032920Y-12266867D01*
X59694269Y-11605518D01*
X59756581Y-11571492D01*
X59827396Y-11576557D01*
G37*
%TD.AperFunction*%
%TA.AperFunction,Conductor*%
G36*
X69963457Y-12113502D02*
G01*
X70009950Y-12167158D01*
X70020054Y-12237432D01*
X69994286Y-12297506D01*
X69926351Y-12383681D01*
X69923662Y-12388792D01*
X69923660Y-12388795D01*
X69892155Y-12448677D01*
X69831492Y-12563978D01*
X69771078Y-12758543D01*
X69747132Y-12960859D01*
X69760457Y-13164151D01*
X69810605Y-13361610D01*
X69813024Y-13366857D01*
X69884891Y-13522749D01*
X69895246Y-13592986D01*
X69865983Y-13657672D01*
X69806395Y-13696269D01*
X69770465Y-13701500D01*
X68952173Y-13701500D01*
X68884052Y-13681498D01*
X68837559Y-13627842D01*
X68827455Y-13557568D01*
X68844913Y-13509384D01*
X68895004Y-13428120D01*
X68901151Y-13414939D01*
X68950491Y-13266186D01*
X68953358Y-13252810D01*
X68962672Y-13161903D01*
X68962929Y-13156874D01*
X68958525Y-13141876D01*
X68957135Y-13140671D01*
X68949452Y-13139000D01*
X67852000Y-13139000D01*
X67783879Y-13118998D01*
X67737386Y-13065342D01*
X67726000Y-13013000D01*
X67726000Y-12757000D01*
X67746002Y-12688879D01*
X67799658Y-12642386D01*
X67852000Y-12631000D01*
X68944885Y-12631000D01*
X68960124Y-12626525D01*
X68961329Y-12625135D01*
X68963000Y-12617452D01*
X68963000Y-12614562D01*
X68962663Y-12608047D01*
X68953106Y-12515943D01*
X68950212Y-12502544D01*
X68900619Y-12353893D01*
X68894445Y-12340715D01*
X68860465Y-12285803D01*
X68841627Y-12217351D01*
X68862788Y-12149582D01*
X68917229Y-12104010D01*
X68967609Y-12093500D01*
X69895336Y-12093500D01*
X69963457Y-12113502D01*
G37*
%TD.AperFunction*%
%TA.AperFunction,Conductor*%
G36*
X30977508Y-10828502D02*
G01*
X31024001Y-10882158D01*
X31034105Y-10952432D01*
X31004611Y-11017012D01*
X30998482Y-11023595D01*
X30293155Y-11728922D01*
X30216778Y-11827387D01*
X30150702Y-11980079D01*
X30149462Y-11987907D01*
X30149462Y-11987908D01*
X30142106Y-12034355D01*
X30111694Y-12098508D01*
X30106752Y-12103740D01*
X28993399Y-13217093D01*
X28931087Y-13251119D01*
X28860272Y-13246054D01*
X28803436Y-13203507D01*
X28797160Y-13194302D01*
X28762210Y-13137824D01*
X28748629Y-13120689D01*
X28750559Y-13119159D01*
X28722097Y-13067120D01*
X28727113Y-12996301D01*
X28750799Y-12959383D01*
X28749843Y-12958628D01*
X28754381Y-12952882D01*
X28759552Y-12947702D01*
X28767612Y-12934626D01*
X28845462Y-12808331D01*
X28845463Y-12808329D01*
X28849302Y-12802101D01*
X28903149Y-12639757D01*
X28904047Y-12631000D01*
X28911437Y-12558862D01*
X28913500Y-12538732D01*
X28913500Y-11991268D01*
X28913152Y-11987908D01*
X28907476Y-11933206D01*
X28902887Y-11888981D01*
X28882684Y-11828425D01*
X28851073Y-11733676D01*
X28851072Y-11733674D01*
X28848756Y-11726732D01*
X28802985Y-11652766D01*
X28762606Y-11587515D01*
X28758752Y-11581287D01*
X28637702Y-11460448D01*
X28639044Y-11459104D01*
X28603596Y-11409096D01*
X28596817Y-11372101D01*
X28595811Y-11340094D01*
X28595562Y-11332169D01*
X28589580Y-11311579D01*
X28585570Y-11292216D01*
X28583875Y-11278796D01*
X28583875Y-11278795D01*
X28582882Y-11270936D01*
X28579966Y-11263571D01*
X28579965Y-11263567D01*
X28565874Y-11227979D01*
X28562035Y-11216769D01*
X28549145Y-11172400D01*
X28538225Y-11153935D01*
X28529534Y-11136195D01*
X28521635Y-11116244D01*
X28494482Y-11078871D01*
X28487967Y-11068952D01*
X28468493Y-11036023D01*
X28468490Y-11036019D01*
X28464453Y-11029193D01*
X28458843Y-11023583D01*
X28453990Y-11017327D01*
X28455003Y-11016541D01*
X28424829Y-10961283D01*
X28429894Y-10890468D01*
X28472441Y-10833632D01*
X28538961Y-10808821D01*
X28547950Y-10808500D01*
X30909387Y-10808500D01*
X30977508Y-10828502D01*
G37*
%TD.AperFunction*%
%TA.AperFunction,Conductor*%
G36*
X59816859Y-5128502D02*
G01*
X59863352Y-5182158D01*
X59874295Y-5223954D01*
X59875844Y-5242397D01*
X59882110Y-5317012D01*
X59882685Y-5323865D01*
X59900072Y-5384499D01*
X59932254Y-5496732D01*
X59934497Y-5504555D01*
X59937312Y-5510032D01*
X59937313Y-5510035D01*
X60013861Y-5658981D01*
X60020418Y-5671740D01*
X60024241Y-5676564D01*
X60024244Y-5676568D01*
X60116094Y-5792452D01*
X60137177Y-5819052D01*
X60141871Y-5823047D01*
X60272828Y-5934500D01*
X60280324Y-5940880D01*
X60285702Y-5943886D01*
X60285704Y-5943887D01*
X60362366Y-5986732D01*
X60444409Y-6032584D01*
X60623180Y-6090670D01*
X60809830Y-6112927D01*
X60815965Y-6112455D01*
X60815967Y-6112455D01*
X60991105Y-6098979D01*
X60991109Y-6098978D01*
X60997247Y-6098506D01*
X61106280Y-6068063D01*
X61172350Y-6049616D01*
X61172353Y-6049615D01*
X61178294Y-6047956D01*
X61183798Y-6045176D01*
X61183800Y-6045175D01*
X61340574Y-5965983D01*
X61340576Y-5965982D01*
X61346075Y-5963204D01*
X61494199Y-5847477D01*
X61497911Y-5843176D01*
X61560888Y-5810761D01*
X61584653Y-5808500D01*
X62780500Y-5808500D01*
X62848621Y-5828502D01*
X62895114Y-5882158D01*
X62906500Y-5934500D01*
X62906500Y-6178000D01*
X62886498Y-6246121D01*
X62832842Y-6292614D01*
X62780500Y-6304000D01*
X61725115Y-6304000D01*
X61709876Y-6308475D01*
X61708671Y-6309865D01*
X61707000Y-6317548D01*
X61707000Y-6351266D01*
X61707337Y-6357782D01*
X61716804Y-6449021D01*
X61719697Y-6462417D01*
X61768830Y-6609687D01*
X61775004Y-6622866D01*
X61856470Y-6754514D01*
X61865506Y-6765915D01*
X61975080Y-6875298D01*
X61986494Y-6884312D01*
X62024907Y-6907990D01*
X62072401Y-6960761D01*
X62083825Y-7030833D01*
X62058755Y-7091954D01*
X62051523Y-7101379D01*
X62040655Y-7113770D01*
X57867516Y-11286909D01*
X57855125Y-11297776D01*
X57829763Y-11317237D01*
X57824737Y-11323787D01*
X57805447Y-11348926D01*
X57794580Y-11361317D01*
X56491302Y-12664595D01*
X56428990Y-12698621D01*
X56402207Y-12701500D01*
X56389048Y-12701500D01*
X56320927Y-12681498D01*
X56274434Y-12627842D01*
X56264330Y-12557568D01*
X56290166Y-12497408D01*
X56302998Y-12481160D01*
X56385004Y-12348120D01*
X56391151Y-12334939D01*
X56440491Y-12186186D01*
X56443358Y-12172810D01*
X56452672Y-12081903D01*
X56453000Y-12075487D01*
X56453000Y-12052115D01*
X56448525Y-12036876D01*
X56447135Y-12035671D01*
X56439452Y-12034000D01*
X55367000Y-12034000D01*
X55298879Y-12013998D01*
X55252386Y-11960342D01*
X55241000Y-11908000D01*
X55241000Y-10797000D01*
X55244400Y-10797000D01*
X55244257Y-10793000D01*
X55745600Y-10793000D01*
X55745743Y-10797000D01*
X55749000Y-10797000D01*
X55749000Y-11507885D01*
X55753475Y-11523124D01*
X55754865Y-11524329D01*
X55762548Y-11526000D01*
X56434885Y-11526000D01*
X56450124Y-11521525D01*
X56451329Y-11520135D01*
X56453000Y-11512452D01*
X56453000Y-11484562D01*
X56452663Y-11478047D01*
X56443106Y-11385943D01*
X56440212Y-11372544D01*
X56390619Y-11223893D01*
X56384445Y-11210714D01*
X56302212Y-11077827D01*
X56293176Y-11066426D01*
X56182571Y-10956014D01*
X56171157Y-10947000D01*
X56098588Y-10902268D01*
X56051094Y-10849496D01*
X56039670Y-10779425D01*
X56067944Y-10714301D01*
X56098400Y-10687864D01*
X56172173Y-10642212D01*
X56183574Y-10633176D01*
X56293986Y-10522571D01*
X56302998Y-10511160D01*
X56385004Y-10378120D01*
X56391151Y-10364939D01*
X56440491Y-10216186D01*
X56443358Y-10202810D01*
X56452672Y-10111903D01*
X56453000Y-10105487D01*
X56453000Y-10082115D01*
X56448525Y-10066876D01*
X56447135Y-10065671D01*
X56439452Y-10064000D01*
X55767115Y-10064000D01*
X55751876Y-10068475D01*
X55750671Y-10069865D01*
X55749000Y-10077548D01*
X55749000Y-10793000D01*
X55745600Y-10793000D01*
X55244257Y-10793000D01*
X55241000Y-10793000D01*
X55241000Y-9051115D01*
X55233557Y-9025766D01*
X55206104Y-8983051D01*
X55201000Y-8947551D01*
X55201000Y-7941739D01*
X55221002Y-7873618D01*
X55237905Y-7852644D01*
X55297644Y-7792905D01*
X55359956Y-7758879D01*
X55386739Y-7756000D01*
X55583000Y-7756000D01*
X55651121Y-7776002D01*
X55697614Y-7829658D01*
X55709000Y-7882000D01*
X55709000Y-8768885D01*
X55716443Y-8794234D01*
X55743896Y-8836949D01*
X55749000Y-8872449D01*
X55749000Y-9537885D01*
X55753475Y-9553124D01*
X55754865Y-9554329D01*
X55762548Y-9556000D01*
X56434885Y-9556000D01*
X56450124Y-9551525D01*
X56451329Y-9550135D01*
X56453000Y-9542452D01*
X56453000Y-9514562D01*
X56452663Y-9508047D01*
X56443106Y-9415943D01*
X56440212Y-9402544D01*
X56390619Y-9253893D01*
X56384445Y-9240714D01*
X56300968Y-9105816D01*
X56282130Y-9037364D01*
X56303291Y-8969594D01*
X56357732Y-8924023D01*
X56428168Y-8915120D01*
X56461361Y-8925318D01*
X56461668Y-8925461D01*
X56467899Y-8929302D01*
X56474844Y-8931605D01*
X56474847Y-8931607D01*
X56562006Y-8960516D01*
X56630243Y-8983149D01*
X56637080Y-8983849D01*
X56637082Y-8983850D01*
X56678401Y-8988083D01*
X56731268Y-8993500D01*
X57278732Y-8993500D01*
X57281978Y-8993163D01*
X57281982Y-8993163D01*
X57316083Y-8989625D01*
X57381019Y-8982887D01*
X57420863Y-8969594D01*
X57536324Y-8931073D01*
X57536326Y-8931072D01*
X57543268Y-8928756D01*
X57550917Y-8924023D01*
X57682485Y-8842606D01*
X57688713Y-8838752D01*
X57809552Y-8717702D01*
X57828017Y-8687746D01*
X57895462Y-8578331D01*
X57895463Y-8578329D01*
X57899302Y-8572101D01*
X57953149Y-8409757D01*
X57954177Y-8399731D01*
X57960105Y-8341866D01*
X57963500Y-8308732D01*
X57963500Y-7711268D01*
X57952887Y-7608981D01*
X57931042Y-7543505D01*
X57901073Y-7453676D01*
X57901072Y-7453674D01*
X57898756Y-7446732D01*
X57894579Y-7439981D01*
X57812606Y-7307515D01*
X57808752Y-7301287D01*
X57768300Y-7260905D01*
X57703888Y-7196606D01*
X57687702Y-7180448D01*
X57681468Y-7176605D01*
X57630263Y-7145041D01*
X57582770Y-7092269D01*
X57571348Y-7022197D01*
X57599622Y-6957073D01*
X57630077Y-6930637D01*
X57692179Y-6892207D01*
X57703574Y-6883176D01*
X57813986Y-6772571D01*
X57822998Y-6761160D01*
X57905004Y-6628120D01*
X57911151Y-6614939D01*
X57960491Y-6466186D01*
X57963358Y-6452810D01*
X57972672Y-6361903D01*
X57973000Y-6355487D01*
X57973000Y-6332115D01*
X57968525Y-6316876D01*
X57967135Y-6315671D01*
X57959452Y-6314000D01*
X56887000Y-6314000D01*
X56818879Y-6293998D01*
X56772386Y-6240342D01*
X56761000Y-6188000D01*
X56761000Y-5932000D01*
X56781002Y-5863879D01*
X56834658Y-5817386D01*
X56887000Y-5806000D01*
X57954885Y-5806000D01*
X57970124Y-5801525D01*
X57971329Y-5800135D01*
X57973000Y-5792452D01*
X57973000Y-5764562D01*
X57972663Y-5758047D01*
X57963106Y-5665943D01*
X57960212Y-5652544D01*
X57910619Y-5503893D01*
X57904445Y-5490714D01*
X57822212Y-5357827D01*
X57813176Y-5346426D01*
X57790384Y-5323674D01*
X57756304Y-5261391D01*
X57761307Y-5190571D01*
X57803804Y-5133698D01*
X57870302Y-5108829D01*
X57879401Y-5108500D01*
X59748738Y-5108500D01*
X59816859Y-5128502D01*
G37*
%TD.AperFunction*%
%TA.AperFunction,Conductor*%
G36*
X11986089Y-8841004D02*
G01*
X12003535Y-8855555D01*
X12084619Y-8936639D01*
X12231301Y-9025472D01*
X12238548Y-9027743D01*
X12238550Y-9027744D01*
X12269248Y-9037364D01*
X12394938Y-9076753D01*
X12468365Y-9083500D01*
X12482815Y-9083500D01*
X12985412Y-9083499D01*
X13053532Y-9103501D01*
X13100025Y-9157156D01*
X13111349Y-9205536D01*
X13111438Y-9208364D01*
X13111500Y-9212327D01*
X13111500Y-9241432D01*
X13112056Y-9245832D01*
X13112988Y-9257664D01*
X13114438Y-9303831D01*
X13118390Y-9317432D01*
X13120419Y-9324416D01*
X13124430Y-9343782D01*
X13127118Y-9365064D01*
X13130034Y-9372429D01*
X13130035Y-9372433D01*
X13144126Y-9408021D01*
X13147965Y-9419231D01*
X13160855Y-9463600D01*
X13171775Y-9482065D01*
X13180466Y-9499805D01*
X13188365Y-9519756D01*
X13212608Y-9553124D01*
X13215516Y-9557126D01*
X13222033Y-9567048D01*
X13241507Y-9599977D01*
X13241510Y-9599981D01*
X13245547Y-9606807D01*
X13260711Y-9621971D01*
X13273551Y-9637004D01*
X13286159Y-9654357D01*
X13315802Y-9678880D01*
X13321752Y-9683802D01*
X13330532Y-9691792D01*
X14725145Y-11086405D01*
X14759171Y-11148717D01*
X14754106Y-11219532D01*
X14711559Y-11276368D01*
X14645039Y-11301179D01*
X14636050Y-11301500D01*
X14451268Y-11301500D01*
X14448022Y-11301837D01*
X14448018Y-11301837D01*
X14413917Y-11305375D01*
X14348981Y-11312113D01*
X14342440Y-11314295D01*
X14342441Y-11314295D01*
X14193676Y-11363927D01*
X14193674Y-11363928D01*
X14186732Y-11366244D01*
X14180508Y-11370096D01*
X14180507Y-11370096D01*
X14069967Y-11438500D01*
X14041287Y-11456248D01*
X14036114Y-11461430D01*
X14028328Y-11469230D01*
X13920448Y-11577298D01*
X13916606Y-11583530D01*
X13916605Y-11583532D01*
X13892890Y-11622005D01*
X13840119Y-11669499D01*
X13770047Y-11680923D01*
X13704923Y-11652649D01*
X13677854Y-11621161D01*
X13655267Y-11583865D01*
X13646639Y-11569619D01*
X13525381Y-11448361D01*
X13378699Y-11359528D01*
X13371452Y-11357257D01*
X13371450Y-11357256D01*
X13291397Y-11332169D01*
X13215062Y-11308247D01*
X13141635Y-11301500D01*
X13138737Y-11301500D01*
X12809140Y-11301501D01*
X12478366Y-11301501D01*
X12475508Y-11301764D01*
X12475499Y-11301764D01*
X12439996Y-11305026D01*
X12404938Y-11308247D01*
X12398560Y-11310246D01*
X12398559Y-11310246D01*
X12248550Y-11357256D01*
X12248548Y-11357257D01*
X12241301Y-11359528D01*
X12094619Y-11448361D01*
X12030456Y-11512524D01*
X11968144Y-11546550D01*
X11897329Y-11541485D01*
X11873853Y-11529818D01*
X11864608Y-11523951D01*
X11819675Y-11507951D01*
X11710935Y-11469230D01*
X11710930Y-11469229D01*
X11704300Y-11466868D01*
X11697312Y-11466035D01*
X11697309Y-11466034D01*
X11683040Y-11464333D01*
X11617767Y-11436406D01*
X11608863Y-11428314D01*
X11214315Y-11033766D01*
X11203448Y-11021375D01*
X11189013Y-11002563D01*
X11183987Y-10996013D01*
X11152075Y-10971526D01*
X11152072Y-10971523D01*
X11132403Y-10956430D01*
X11063429Y-10903504D01*
X11063427Y-10903503D01*
X11056876Y-10898476D01*
X10908851Y-10837162D01*
X10900664Y-10836084D01*
X10900663Y-10836084D01*
X10881672Y-10833584D01*
X10789885Y-10821500D01*
X10789876Y-10821499D01*
X10758190Y-10817328D01*
X10758189Y-10817328D01*
X10750000Y-10816250D01*
X10718307Y-10820422D01*
X10701864Y-10821500D01*
X2617978Y-10821500D01*
X2549857Y-10801498D01*
X2512186Y-10763940D01*
X2505399Y-10753448D01*
X2439239Y-10651180D01*
X2407822Y-10602617D01*
X2407820Y-10602614D01*
X2405014Y-10598277D01*
X2254670Y-10433051D01*
X2250619Y-10429852D01*
X2250615Y-10429848D01*
X2083414Y-10297800D01*
X2083410Y-10297798D01*
X2079359Y-10294598D01*
X2038053Y-10271796D01*
X1988084Y-10221364D01*
X1973312Y-10151921D01*
X1998428Y-10085516D01*
X2025780Y-10058909D01*
X2099070Y-10006632D01*
X2204860Y-9931173D01*
X2241687Y-9894475D01*
X2348012Y-9788520D01*
X2363096Y-9773489D01*
X2387073Y-9740122D01*
X2490435Y-9596277D01*
X2493453Y-9592077D01*
X2505019Y-9568675D01*
X2553132Y-9516467D01*
X2617977Y-9498500D01*
X10731864Y-9498500D01*
X10748307Y-9499578D01*
X10780000Y-9503750D01*
X10788189Y-9502672D01*
X10819874Y-9498501D01*
X10819884Y-9498500D01*
X10819885Y-9498500D01*
X10826965Y-9497568D01*
X10919457Y-9485391D01*
X10930664Y-9483916D01*
X10930666Y-9483915D01*
X10938851Y-9482838D01*
X11086876Y-9421524D01*
X11094150Y-9415943D01*
X11182072Y-9348477D01*
X11182075Y-9348474D01*
X11191837Y-9340983D01*
X11213987Y-9323987D01*
X11219017Y-9317432D01*
X11233452Y-9298621D01*
X11244319Y-9286230D01*
X11596621Y-8933928D01*
X11660382Y-8899596D01*
X11666463Y-8898348D01*
X11673483Y-8897709D01*
X11739093Y-8876391D01*
X11828623Y-8847301D01*
X11828626Y-8847300D01*
X11835322Y-8845124D01*
X11841373Y-8841517D01*
X11849924Y-8836420D01*
X11918680Y-8818721D01*
X11986089Y-8841004D01*
G37*
%TD.AperFunction*%
%TA.AperFunction,Conductor*%
G36*
X25137411Y-8698502D02*
G01*
X25158385Y-8715405D01*
X25274619Y-8831639D01*
X25421301Y-8920472D01*
X25428548Y-8922743D01*
X25428550Y-8922744D01*
X25494836Y-8943517D01*
X25584938Y-8971753D01*
X25658365Y-8978500D01*
X25678334Y-8978500D01*
X25985760Y-8978499D01*
X26053880Y-8998501D01*
X26074855Y-9015404D01*
X26965856Y-9906405D01*
X26999882Y-9968717D01*
X26994817Y-10039532D01*
X26952270Y-10096368D01*
X26885750Y-10121179D01*
X26876761Y-10121500D01*
X24425160Y-10121500D01*
X24357039Y-10101498D01*
X24351099Y-10097436D01*
X24266957Y-10036303D01*
X24266956Y-10036302D01*
X24261615Y-10032422D01*
X24255587Y-10029738D01*
X24255585Y-10029737D01*
X24102783Y-9961705D01*
X24102781Y-9961705D01*
X24096752Y-9959020D01*
X24008492Y-9940260D01*
X23926689Y-9922872D01*
X23926685Y-9922872D01*
X23920232Y-9921500D01*
X23739768Y-9921500D01*
X23733315Y-9922872D01*
X23733311Y-9922872D01*
X23651508Y-9940260D01*
X23563248Y-9959020D01*
X23557219Y-9961704D01*
X23557217Y-9961705D01*
X23404416Y-10029737D01*
X23404414Y-10029738D01*
X23398386Y-10032422D01*
X23393044Y-10036303D01*
X23393039Y-10036306D01*
X23308900Y-10097436D01*
X23234840Y-10121500D01*
X22773056Y-10121500D01*
X22761200Y-10120941D01*
X22761197Y-10120941D01*
X22753463Y-10119212D01*
X22682631Y-10121438D01*
X22678673Y-10121500D01*
X22649568Y-10121500D01*
X22645168Y-10122056D01*
X22633336Y-10122988D01*
X22587169Y-10124438D01*
X22566579Y-10130420D01*
X22547218Y-10134430D01*
X22540230Y-10135312D01*
X22533796Y-10136125D01*
X22533795Y-10136125D01*
X22525936Y-10137118D01*
X22518571Y-10140034D01*
X22518567Y-10140035D01*
X22482979Y-10154126D01*
X22471769Y-10157965D01*
X22427400Y-10170855D01*
X22408943Y-10181771D01*
X22391193Y-10190466D01*
X22371244Y-10198365D01*
X22364833Y-10203023D01*
X22364831Y-10203024D01*
X22333864Y-10225523D01*
X22323946Y-10232038D01*
X22284193Y-10255548D01*
X22269032Y-10270709D01*
X22254000Y-10283548D01*
X22236643Y-10296159D01*
X22218100Y-10318574D01*
X22207198Y-10331752D01*
X22199208Y-10340533D01*
X21762391Y-10777349D01*
X21753612Y-10785337D01*
X21746920Y-10789584D01*
X21741495Y-10795361D01*
X21698395Y-10841258D01*
X21695640Y-10844100D01*
X21675073Y-10864667D01*
X21672356Y-10868170D01*
X21664648Y-10877195D01*
X21633028Y-10910867D01*
X21629207Y-10917818D01*
X21629206Y-10917819D01*
X21622697Y-10929658D01*
X21611843Y-10946182D01*
X21607914Y-10951248D01*
X21598696Y-10963132D01*
X21595549Y-10970404D01*
X21595548Y-10970406D01*
X21580346Y-11005535D01*
X21575125Y-11016193D01*
X21568676Y-11027925D01*
X21566078Y-11032650D01*
X21515733Y-11082710D01*
X21475173Y-11095371D01*
X21475222Y-11095575D01*
X21472271Y-11096277D01*
X21469269Y-11097214D01*
X21459684Y-11098255D01*
X21323295Y-11149385D01*
X21206739Y-11236739D01*
X21205537Y-11235135D01*
X21153370Y-11263621D01*
X21126587Y-11266500D01*
X18913413Y-11266500D01*
X18845292Y-11246498D01*
X18833380Y-11236898D01*
X18833261Y-11236739D01*
X18828158Y-11232914D01*
X18757562Y-11180006D01*
X18716705Y-11149385D01*
X18580316Y-11098255D01*
X18518134Y-11091500D01*
X17221866Y-11091500D01*
X17159684Y-11098255D01*
X17023295Y-11149385D01*
X16906739Y-11236739D01*
X16906338Y-11236203D01*
X16850060Y-11266938D01*
X16779244Y-11261877D01*
X16734174Y-11232914D01*
X14799855Y-9298595D01*
X14765829Y-9236283D01*
X14770894Y-9165468D01*
X14813441Y-9108632D01*
X14879961Y-9083821D01*
X14888950Y-9083500D01*
X15038732Y-9083500D01*
X15041978Y-9083163D01*
X15041982Y-9083163D01*
X15134161Y-9073599D01*
X15134165Y-9073598D01*
X15141019Y-9072887D01*
X15147561Y-9070704D01*
X15147563Y-9070704D01*
X15209690Y-9049977D01*
X15249567Y-9043500D01*
X16753934Y-9043500D01*
X16822055Y-9063502D01*
X16854758Y-9093932D01*
X16876739Y-9123261D01*
X16993295Y-9210615D01*
X17129684Y-9261745D01*
X17191866Y-9268500D01*
X18488134Y-9268500D01*
X18550316Y-9261745D01*
X18686705Y-9210615D01*
X18803261Y-9123261D01*
X18825241Y-9093933D01*
X18882100Y-9051420D01*
X18926066Y-9043500D01*
X21053934Y-9043500D01*
X21122055Y-9063502D01*
X21154758Y-9093932D01*
X21176739Y-9123261D01*
X21293295Y-9210615D01*
X21429684Y-9261745D01*
X21491866Y-9268500D01*
X22788134Y-9268500D01*
X22850316Y-9261745D01*
X22877596Y-9251518D01*
X22921826Y-9243500D01*
X23906864Y-9243500D01*
X23923307Y-9244578D01*
X23955000Y-9248750D01*
X23963189Y-9247672D01*
X23994874Y-9243501D01*
X23994884Y-9243500D01*
X23994885Y-9243500D01*
X24040642Y-9237476D01*
X24094457Y-9230391D01*
X24105664Y-9228916D01*
X24105666Y-9228915D01*
X24113851Y-9227838D01*
X24261876Y-9166524D01*
X24272176Y-9158621D01*
X24357072Y-9093477D01*
X24357075Y-9093474D01*
X24370073Y-9083500D01*
X24388987Y-9068987D01*
X24402701Y-9051115D01*
X24408452Y-9043621D01*
X24419319Y-9031230D01*
X24735144Y-8715405D01*
X24797456Y-8681379D01*
X24824239Y-8678500D01*
X25069290Y-8678500D01*
X25137411Y-8698502D01*
G37*
%TD.AperFunction*%
%TA.AperFunction,Conductor*%
G36*
X68920683Y-9093503D02*
G01*
X68941657Y-9110406D01*
X70192656Y-10361405D01*
X70226682Y-10423717D01*
X70221617Y-10494532D01*
X70179070Y-10551368D01*
X70112550Y-10576179D01*
X70103561Y-10576500D01*
X68785961Y-10576500D01*
X68717840Y-10556498D01*
X68696943Y-10539673D01*
X68692882Y-10535619D01*
X68687702Y-10530448D01*
X68674190Y-10522119D01*
X68548331Y-10444538D01*
X68548329Y-10444537D01*
X68542101Y-10440698D01*
X68379757Y-10386851D01*
X68372920Y-10386151D01*
X68372918Y-10386150D01*
X68331599Y-10381917D01*
X68278732Y-10376500D01*
X67681268Y-10376500D01*
X67678022Y-10376837D01*
X67678018Y-10376837D01*
X67643917Y-10380375D01*
X67578981Y-10387113D01*
X67572440Y-10389295D01*
X67572441Y-10389295D01*
X67423676Y-10438927D01*
X67423674Y-10438928D01*
X67416732Y-10441244D01*
X67410508Y-10445096D01*
X67410507Y-10445096D01*
X67314708Y-10504378D01*
X67271287Y-10531248D01*
X67266113Y-10536431D01*
X67263029Y-10539520D01*
X67260401Y-10540958D01*
X67260377Y-10540977D01*
X67260374Y-10540973D01*
X67200746Y-10573598D01*
X67173858Y-10576500D01*
X67161851Y-10576500D01*
X67117621Y-10568482D01*
X67113137Y-10566801D01*
X67010316Y-10528255D01*
X66948134Y-10521500D01*
X65851866Y-10521500D01*
X65848469Y-10521869D01*
X65797534Y-10527402D01*
X65797532Y-10527402D01*
X65789684Y-10528255D01*
X65782291Y-10531027D01*
X65782289Y-10531027D01*
X65695716Y-10563482D01*
X65651487Y-10571500D01*
X65527070Y-10571500D01*
X65508120Y-10570067D01*
X65493885Y-10567901D01*
X65493881Y-10567901D01*
X65486651Y-10566801D01*
X65479359Y-10567394D01*
X65479356Y-10567394D01*
X65433982Y-10571085D01*
X65423767Y-10571500D01*
X65415707Y-10571500D01*
X65412073Y-10571924D01*
X65412067Y-10571924D01*
X65399042Y-10573443D01*
X65387480Y-10574791D01*
X65383132Y-10575221D01*
X65310364Y-10581140D01*
X65303403Y-10583395D01*
X65297463Y-10584582D01*
X65291588Y-10585971D01*
X65284319Y-10586818D01*
X65215670Y-10611736D01*
X65211542Y-10613153D01*
X65149064Y-10633393D01*
X65149062Y-10633394D01*
X65142101Y-10635649D01*
X65135846Y-10639445D01*
X65130372Y-10641951D01*
X65124942Y-10644670D01*
X65118063Y-10647167D01*
X65111943Y-10651180D01*
X65111942Y-10651180D01*
X65057024Y-10687186D01*
X65053320Y-10689523D01*
X64990893Y-10727405D01*
X64982516Y-10734803D01*
X64982492Y-10734776D01*
X64979500Y-10737429D01*
X64976267Y-10740132D01*
X64970148Y-10744144D01*
X64938693Y-10777349D01*
X64933922Y-10782385D01*
X64872553Y-10818083D01*
X64801626Y-10814936D01*
X64741623Y-10771297D01*
X64680344Y-10689533D01*
X64663261Y-10666739D01*
X64546705Y-10579385D01*
X64410316Y-10528255D01*
X64348134Y-10521500D01*
X63344335Y-10521500D01*
X63276214Y-10501498D01*
X63229721Y-10447842D01*
X63219617Y-10377568D01*
X63227184Y-10349114D01*
X63228303Y-10346287D01*
X63232124Y-10339337D01*
X63237455Y-10318574D01*
X63243861Y-10299862D01*
X63252380Y-10280177D01*
X63253880Y-10270709D01*
X63259607Y-10234544D01*
X63262012Y-10222930D01*
X63269981Y-10191893D01*
X63271529Y-10185865D01*
X63271529Y-10185864D01*
X63273500Y-10178188D01*
X63273500Y-10156742D01*
X63275051Y-10137032D01*
X63277166Y-10123678D01*
X63277166Y-10123677D01*
X63278406Y-10115848D01*
X63274059Y-10069859D01*
X63273500Y-10058004D01*
X63273500Y-9840710D01*
X63293502Y-9772589D01*
X63310405Y-9751615D01*
X63350905Y-9711115D01*
X63413217Y-9677089D01*
X63484032Y-9682154D01*
X63529095Y-9711115D01*
X63624619Y-9806639D01*
X63771301Y-9895472D01*
X63778548Y-9897743D01*
X63778550Y-9897744D01*
X63806188Y-9906405D01*
X63934938Y-9946753D01*
X64008365Y-9953500D01*
X64011263Y-9953500D01*
X64265665Y-9953499D01*
X64521634Y-9953499D01*
X64524492Y-9953236D01*
X64524501Y-9953236D01*
X64560004Y-9949974D01*
X64595062Y-9946753D01*
X64656406Y-9927529D01*
X64751450Y-9897744D01*
X64751452Y-9897743D01*
X64758699Y-9895472D01*
X64849123Y-9840710D01*
X64854729Y-9837315D01*
X64923359Y-9819136D01*
X64985271Y-9837315D01*
X64990877Y-9840710D01*
X65081301Y-9895472D01*
X65088548Y-9897743D01*
X65088550Y-9897744D01*
X65116188Y-9906405D01*
X65244938Y-9946753D01*
X65318365Y-9953500D01*
X65321263Y-9953500D01*
X65575665Y-9953499D01*
X65831634Y-9953499D01*
X65834492Y-9953236D01*
X65834501Y-9953236D01*
X65870004Y-9949974D01*
X65905062Y-9946753D01*
X65966406Y-9927529D01*
X66061450Y-9897744D01*
X66061452Y-9897743D01*
X66068699Y-9895472D01*
X66215381Y-9806639D01*
X66310905Y-9711115D01*
X66373217Y-9677089D01*
X66444032Y-9682154D01*
X66489095Y-9711115D01*
X66584619Y-9806639D01*
X66731301Y-9895472D01*
X66738548Y-9897743D01*
X66738550Y-9897744D01*
X66766188Y-9906405D01*
X66894938Y-9946753D01*
X66968365Y-9953500D01*
X66971263Y-9953500D01*
X67225665Y-9953499D01*
X67481634Y-9953499D01*
X67484492Y-9953236D01*
X67484501Y-9953236D01*
X67520004Y-9949974D01*
X67555062Y-9946753D01*
X67616406Y-9927529D01*
X67711450Y-9897744D01*
X67711452Y-9897743D01*
X67718699Y-9895472D01*
X67865381Y-9806639D01*
X67986639Y-9685381D01*
X68075472Y-9538699D01*
X68081409Y-9519756D01*
X68111202Y-9424684D01*
X68126753Y-9375062D01*
X68133500Y-9301635D01*
X68133500Y-9199501D01*
X68153502Y-9131380D01*
X68207158Y-9084887D01*
X68259500Y-9073501D01*
X68852562Y-9073501D01*
X68920683Y-9093503D01*
G37*
%TD.AperFunction*%
%TA.AperFunction,Conductor*%
G36*
X61782730Y-9621223D02*
G01*
X61839566Y-9663770D01*
X61846471Y-9674004D01*
X61853361Y-9685381D01*
X61884265Y-9716285D01*
X61918291Y-9778597D01*
X61913226Y-9849412D01*
X61884265Y-9894475D01*
X61822397Y-9956343D01*
X61813618Y-9964332D01*
X61813612Y-9964337D01*
X61806920Y-9968584D01*
X61801495Y-9974361D01*
X61758395Y-10020258D01*
X61755640Y-10023100D01*
X61735073Y-10043667D01*
X61732356Y-10047170D01*
X61724648Y-10056195D01*
X61693028Y-10089867D01*
X61689207Y-10096818D01*
X61689206Y-10096819D01*
X61682697Y-10108658D01*
X61671843Y-10125182D01*
X61664670Y-10134430D01*
X61658696Y-10142132D01*
X61655549Y-10149404D01*
X61655548Y-10149406D01*
X61640346Y-10184535D01*
X61635124Y-10195195D01*
X61616716Y-10228679D01*
X61612876Y-10235663D01*
X61607541Y-10256441D01*
X61601142Y-10275131D01*
X61592620Y-10294824D01*
X61586787Y-10331656D01*
X61585394Y-10340448D01*
X61582987Y-10352071D01*
X61577845Y-10372101D01*
X61571500Y-10396812D01*
X61571500Y-10418259D01*
X61569949Y-10437967D01*
X61568988Y-10444037D01*
X61567153Y-10455623D01*
X61536740Y-10519776D01*
X61520967Y-10534657D01*
X61517509Y-10537398D01*
X61511287Y-10541248D01*
X61484101Y-10568482D01*
X61482113Y-10570473D01*
X61419831Y-10604552D01*
X61349011Y-10599549D01*
X61333016Y-10592293D01*
X61266814Y-10556498D01*
X61208651Y-10525049D01*
X61208646Y-10525047D01*
X61203231Y-10522119D01*
X61114112Y-10494532D01*
X61077793Y-10483289D01*
X61018634Y-10444037D01*
X60990087Y-10379033D01*
X61001216Y-10308914D01*
X61025958Y-10273829D01*
X61649603Y-9650184D01*
X61711915Y-9616158D01*
X61782730Y-9621223D01*
G37*
%TD.AperFunction*%
%TA.AperFunction,Conductor*%
G36*
X47868146Y-6688502D02*
G01*
X47889120Y-6705405D01*
X48546825Y-7363110D01*
X48580851Y-7425422D01*
X48577965Y-7489882D01*
X48575247Y-7498554D01*
X48575246Y-7498560D01*
X48573247Y-7504938D01*
X48566500Y-7578365D01*
X48566501Y-8091634D01*
X48573247Y-8165062D01*
X48575246Y-8171440D01*
X48575246Y-8171441D01*
X48618271Y-8308732D01*
X48624528Y-8328699D01*
X48713361Y-8475381D01*
X48834619Y-8596639D01*
X48981301Y-8685472D01*
X48988548Y-8687743D01*
X48988550Y-8687744D01*
X49043784Y-8705053D01*
X49144938Y-8736753D01*
X49218365Y-8743500D01*
X49221263Y-8743500D01*
X49550860Y-8743499D01*
X49881634Y-8743499D01*
X49884492Y-8743236D01*
X49884501Y-8743236D01*
X49920004Y-8739974D01*
X49955062Y-8736753D01*
X50118699Y-8685472D01*
X50118869Y-8686013D01*
X50183994Y-8676933D01*
X50248448Y-8706701D01*
X50266357Y-8726008D01*
X50317490Y-8794234D01*
X50346739Y-8833261D01*
X50463295Y-8920615D01*
X50471703Y-8923767D01*
X50569730Y-8960516D01*
X50626494Y-9003158D01*
X50651194Y-9069719D01*
X50651500Y-9078498D01*
X50651500Y-9915500D01*
X50631498Y-9983621D01*
X50577842Y-10030114D01*
X50525500Y-10041500D01*
X49824238Y-10041500D01*
X49756117Y-10021498D01*
X49735143Y-10004595D01*
X46614144Y-6883595D01*
X46580118Y-6821283D01*
X46585183Y-6750467D01*
X46627730Y-6693632D01*
X46694250Y-6668821D01*
X46703239Y-6668500D01*
X47800025Y-6668500D01*
X47868146Y-6688502D01*
G37*
%TD.AperFunction*%
%TA.AperFunction,Conductor*%
G36*
X41139250Y-9142762D02*
G01*
X41196086Y-9185309D01*
X41220617Y-9248522D01*
X41233381Y-9378699D01*
X41235606Y-9385387D01*
X41235606Y-9385388D01*
X41265658Y-9475729D01*
X41268181Y-9546680D01*
X41231944Y-9607733D01*
X41168452Y-9639502D01*
X41146100Y-9641500D01*
X40840536Y-9641500D01*
X40772415Y-9621498D01*
X40725922Y-9567842D01*
X40715818Y-9497568D01*
X40745312Y-9432988D01*
X40751441Y-9426405D01*
X41006123Y-9171723D01*
X41068435Y-9137697D01*
X41139250Y-9142762D01*
G37*
%TD.AperFunction*%
%TA.AperFunction,Conductor*%
G36*
X46635685Y-9050498D02*
G01*
X47011592Y-9426405D01*
X47045618Y-9488717D01*
X47040553Y-9559532D01*
X46998006Y-9616368D01*
X46931486Y-9641179D01*
X46922497Y-9641500D01*
X46365361Y-9641500D01*
X46297240Y-9621498D01*
X46250747Y-9567842D01*
X46240643Y-9497568D01*
X46265783Y-9441345D01*
X46264721Y-9440639D01*
X46278703Y-9419595D01*
X46358891Y-9298902D01*
X46419319Y-9139825D01*
X46421816Y-9122057D01*
X46451104Y-9057383D01*
X46510708Y-9018810D01*
X46581705Y-9018585D01*
X46635685Y-9050498D01*
G37*
%TD.AperFunction*%
%TA.AperFunction,Conductor*%
G36*
X40397120Y-6420069D02*
G01*
X40457299Y-6467301D01*
X40543256Y-6593782D01*
X40549204Y-6599026D01*
X40549205Y-6599027D01*
X40662110Y-6698566D01*
X40668056Y-6703808D01*
X40675116Y-6707405D01*
X40675120Y-6707408D01*
X40742845Y-6741915D01*
X40794461Y-6790663D01*
X40797910Y-6796980D01*
X40800606Y-6802271D01*
X40803291Y-6809729D01*
X40896809Y-6947335D01*
X40902757Y-6952579D01*
X40902758Y-6952580D01*
X40979231Y-7020000D01*
X41021609Y-7057361D01*
X41028669Y-7060958D01*
X41028670Y-7060959D01*
X41096400Y-7095469D01*
X41151463Y-7150531D01*
X41154159Y-7155821D01*
X41156845Y-7163283D01*
X41161304Y-7169843D01*
X41162138Y-7171481D01*
X41175243Y-7241258D01*
X41148544Y-7307043D01*
X41138967Y-7317781D01*
X38902153Y-9554595D01*
X38839841Y-9588621D01*
X38813058Y-9591500D01*
X37425713Y-9591500D01*
X37357592Y-9571498D01*
X37311099Y-9517842D01*
X37300995Y-9447568D01*
X37330489Y-9382988D01*
X37336618Y-9376405D01*
X40263993Y-6449030D01*
X40326305Y-6415004D01*
X40397120Y-6420069D01*
G37*
%TD.AperFunction*%
%TA.AperFunction,Conductor*%
G36*
X71893695Y-8295883D02*
G01*
X71912225Y-8322710D01*
X71960316Y-8416284D01*
X71985955Y-8466173D01*
X71989786Y-8471007D01*
X71989787Y-8471008D01*
X71992560Y-8474507D01*
X72114894Y-8628854D01*
X72119581Y-8632843D01*
X72119584Y-8632846D01*
X72249603Y-8743500D01*
X72272976Y-8763392D01*
X72454180Y-8864664D01*
X72651603Y-8928810D01*
X72857725Y-8953389D01*
X72863860Y-8952917D01*
X72863862Y-8952917D01*
X73058555Y-8937936D01*
X73058560Y-8937935D01*
X73064696Y-8937463D01*
X73070630Y-8935806D01*
X73070637Y-8935805D01*
X73134616Y-8917942D01*
X73205606Y-8918888D01*
X73264816Y-8958064D01*
X73293445Y-9023032D01*
X73294500Y-9039300D01*
X73294500Y-9238134D01*
X73294869Y-9241529D01*
X73294869Y-9241533D01*
X73298656Y-9276393D01*
X73298656Y-9303606D01*
X73294500Y-9341866D01*
X73293361Y-9341742D01*
X73271287Y-9404237D01*
X73215203Y-9447769D01*
X73169116Y-9456500D01*
X71697439Y-9456500D01*
X71629318Y-9436498D01*
X71608344Y-9419595D01*
X71061901Y-8873152D01*
X71027875Y-8810840D01*
X71032940Y-8740025D01*
X71075487Y-8683189D01*
X71119409Y-8662559D01*
X71119883Y-8662490D01*
X71125354Y-8660633D01*
X71307327Y-8598862D01*
X71307332Y-8598860D01*
X71312799Y-8597004D01*
X71323051Y-8591263D01*
X71401805Y-8547158D01*
X71490551Y-8497458D01*
X71647186Y-8367186D01*
X71703286Y-8299734D01*
X71762223Y-8260151D01*
X71833205Y-8258715D01*
X71893695Y-8295883D01*
G37*
%TD.AperFunction*%
%TA.AperFunction,Conductor*%
G36*
X38653054Y-2451661D02*
G01*
X38672592Y-2460929D01*
X38841000Y-2559338D01*
X39049692Y-2639030D01*
X39096905Y-2648636D01*
X39159667Y-2681816D01*
X39194530Y-2743663D01*
X39190421Y-2814541D01*
X39160877Y-2861200D01*
X38424883Y-3597194D01*
X38348506Y-3695659D01*
X38282430Y-3848351D01*
X38281190Y-3856180D01*
X38268292Y-3937621D01*
X38256404Y-4012679D01*
X38272061Y-4178316D01*
X38274746Y-4185774D01*
X38325731Y-4327394D01*
X38325733Y-4327398D01*
X38328418Y-4334856D01*
X38421936Y-4472462D01*
X38427884Y-4477706D01*
X38427885Y-4477707D01*
X38540790Y-4577246D01*
X38546736Y-4582488D01*
X38553796Y-4586085D01*
X38553800Y-4586088D01*
X38621525Y-4620595D01*
X38673141Y-4669343D01*
X38676590Y-4675660D01*
X38679286Y-4680951D01*
X38681971Y-4688409D01*
X38775489Y-4826015D01*
X38781437Y-4831259D01*
X38781438Y-4831260D01*
X38856499Y-4897435D01*
X38900289Y-4936041D01*
X38907349Y-4939638D01*
X38907353Y-4939641D01*
X38975078Y-4974148D01*
X39026694Y-5022896D01*
X39030143Y-5029213D01*
X39032839Y-5034504D01*
X39035524Y-5041962D01*
X39129042Y-5179568D01*
X39134990Y-5184812D01*
X39134991Y-5184813D01*
X39221729Y-5261283D01*
X39253842Y-5289594D01*
X39277254Y-5301523D01*
X39302740Y-5314509D01*
X39354355Y-5363258D01*
X39371421Y-5432173D01*
X39348520Y-5499374D01*
X39334632Y-5515871D01*
X35725908Y-9124595D01*
X35663596Y-9158621D01*
X35636813Y-9161500D01*
X33370980Y-9161500D01*
X33302859Y-9141498D01*
X33256366Y-9087842D01*
X33246262Y-9017568D01*
X33258713Y-8978298D01*
X33284337Y-8928007D01*
X33333084Y-8876391D01*
X33339400Y-8872943D01*
X33344700Y-8870242D01*
X33352154Y-8867559D01*
X33385166Y-8845124D01*
X33414672Y-8825071D01*
X33489759Y-8774041D01*
X33499148Y-8763392D01*
X33594543Y-8655187D01*
X33594543Y-8655186D01*
X33599785Y-8649241D01*
X33603382Y-8642181D01*
X33603385Y-8642177D01*
X33637892Y-8574452D01*
X33686640Y-8522836D01*
X33692959Y-8519386D01*
X33698247Y-8516692D01*
X33705707Y-8514006D01*
X33843312Y-8420488D01*
X33867647Y-8392886D01*
X33948097Y-8301633D01*
X33948098Y-8301632D01*
X33953338Y-8295688D01*
X33989161Y-8225381D01*
X33991444Y-8220900D01*
X34046507Y-8165836D01*
X34051807Y-8163135D01*
X34059261Y-8160452D01*
X34196866Y-8066934D01*
X34232514Y-8026500D01*
X34301650Y-7948080D01*
X34301650Y-7948079D01*
X34306892Y-7942134D01*
X34310489Y-7935074D01*
X34310492Y-7935070D01*
X34344999Y-7867345D01*
X34393747Y-7815729D01*
X34400066Y-7812279D01*
X34405354Y-7809585D01*
X34412814Y-7806899D01*
X34550419Y-7713381D01*
X34593275Y-7664771D01*
X34655203Y-7594527D01*
X34655203Y-7594526D01*
X34660445Y-7588581D01*
X34664042Y-7581521D01*
X34664045Y-7581517D01*
X34698552Y-7513792D01*
X34747300Y-7462176D01*
X34753619Y-7458726D01*
X34758907Y-7456032D01*
X34766367Y-7453346D01*
X34903972Y-7359828D01*
X34941042Y-7317781D01*
X35008757Y-7240973D01*
X35008758Y-7240972D01*
X35013998Y-7235028D01*
X35048914Y-7166500D01*
X35052104Y-7160240D01*
X35107167Y-7105176D01*
X35112467Y-7102475D01*
X35119921Y-7099792D01*
X35257526Y-7006274D01*
X35264531Y-6998329D01*
X35362310Y-6887420D01*
X35362310Y-6887419D01*
X35367552Y-6881474D01*
X35371149Y-6874414D01*
X35371152Y-6874410D01*
X35405659Y-6806685D01*
X35454407Y-6755069D01*
X35460726Y-6751619D01*
X35466014Y-6748925D01*
X35473474Y-6746239D01*
X35611079Y-6652721D01*
X35620974Y-6641498D01*
X35715863Y-6533867D01*
X35715863Y-6533866D01*
X35721105Y-6527921D01*
X35724702Y-6520861D01*
X35724705Y-6520857D01*
X35759212Y-6453132D01*
X35807960Y-6401516D01*
X35814279Y-6398066D01*
X35819567Y-6395372D01*
X35827027Y-6392686D01*
X35964632Y-6299168D01*
X35997948Y-6261379D01*
X36069417Y-6180313D01*
X36069418Y-6180312D01*
X36074658Y-6174368D01*
X36112764Y-6099580D01*
X36167827Y-6044516D01*
X36173127Y-6041815D01*
X36180581Y-6039132D01*
X36187415Y-6034488D01*
X36288214Y-5965983D01*
X36318186Y-5945614D01*
X36325340Y-5937500D01*
X36422970Y-5826760D01*
X36422970Y-5826759D01*
X36428212Y-5820814D01*
X36431809Y-5813754D01*
X36431812Y-5813750D01*
X36466319Y-5746025D01*
X36515067Y-5694409D01*
X36521386Y-5690959D01*
X36526674Y-5688265D01*
X36534134Y-5685579D01*
X36671739Y-5592061D01*
X36678953Y-5583879D01*
X36776524Y-5473206D01*
X36776525Y-5473205D01*
X36781765Y-5467261D01*
X36816266Y-5399549D01*
X36819871Y-5392473D01*
X36874934Y-5337409D01*
X36880234Y-5334708D01*
X36887688Y-5332025D01*
X37025293Y-5238507D01*
X37074972Y-5182158D01*
X37130077Y-5119653D01*
X37130077Y-5119652D01*
X37135319Y-5113707D01*
X37138916Y-5106647D01*
X37138919Y-5106643D01*
X37173426Y-5038918D01*
X37222174Y-4987302D01*
X37228493Y-4983852D01*
X37233781Y-4981158D01*
X37241241Y-4978472D01*
X37378846Y-4884954D01*
X37488872Y-4760154D01*
X37492469Y-4753094D01*
X37492472Y-4753090D01*
X37526979Y-4685365D01*
X37575727Y-4633749D01*
X37582046Y-4630299D01*
X37587334Y-4627605D01*
X37594794Y-4624919D01*
X37732399Y-4531401D01*
X37767577Y-4491500D01*
X37837183Y-4412547D01*
X37837183Y-4412546D01*
X37842425Y-4406601D01*
X37917958Y-4258359D01*
X37932212Y-4194595D01*
X37952523Y-4103731D01*
X37952523Y-4103728D01*
X37954253Y-4095990D01*
X37949026Y-3929696D01*
X37938829Y-3894595D01*
X37904821Y-3777540D01*
X37904820Y-3777538D01*
X37902609Y-3769927D01*
X37847301Y-3676405D01*
X37821951Y-3633541D01*
X37817917Y-3626720D01*
X37684968Y-3493771D01*
X37650942Y-3431459D01*
X37656007Y-3360644D01*
X37684968Y-3315581D01*
X38519927Y-2480622D01*
X38582239Y-2446596D01*
X38653054Y-2451661D01*
G37*
%TD.AperFunction*%
%TA.AperFunction,Conductor*%
G36*
X29687219Y-7898502D02*
G01*
X29708193Y-7915405D01*
X30154544Y-8361756D01*
X30178584Y-8397129D01*
X30178937Y-8398345D01*
X30194668Y-8424945D01*
X30258078Y-8532165D01*
X30263629Y-8541552D01*
X30668482Y-8946405D01*
X30702508Y-9008717D01*
X30697443Y-9079532D01*
X30654896Y-9136368D01*
X30588376Y-9161179D01*
X30579387Y-9161500D01*
X28904950Y-9161500D01*
X28836829Y-9141498D01*
X28815855Y-9124595D01*
X28667765Y-8976505D01*
X28633739Y-8914193D01*
X28638804Y-8843378D01*
X28667686Y-8798394D01*
X28760864Y-8705053D01*
X28849849Y-8560692D01*
X28860246Y-8529346D01*
X28901072Y-8406262D01*
X28901072Y-8406260D01*
X28903238Y-8399731D01*
X28913500Y-8299572D01*
X28913500Y-8004500D01*
X28933502Y-7936379D01*
X28987158Y-7889886D01*
X29039500Y-7878500D01*
X29619098Y-7878500D01*
X29687219Y-7898502D01*
G37*
%TD.AperFunction*%
%TA.AperFunction,Conductor*%
G36*
X11865475Y-7028502D02*
G01*
X11905129Y-7069228D01*
X11963361Y-7165381D01*
X12058885Y-7260905D01*
X12092911Y-7323217D01*
X12087846Y-7394032D01*
X12058885Y-7439095D01*
X12035750Y-7462230D01*
X11973438Y-7496256D01*
X11902623Y-7491191D01*
X11879147Y-7479524D01*
X11854608Y-7463951D01*
X11694300Y-7406868D01*
X11525329Y-7386720D01*
X11518326Y-7387456D01*
X11518325Y-7387456D01*
X11363101Y-7403770D01*
X11363097Y-7403771D01*
X11356093Y-7404507D01*
X11349422Y-7406778D01*
X11201673Y-7457075D01*
X11201670Y-7457076D01*
X11195003Y-7459346D01*
X11189005Y-7463036D01*
X11189003Y-7463037D01*
X11056065Y-7544821D01*
X11056063Y-7544823D01*
X11050066Y-7548512D01*
X10995957Y-7601500D01*
X10948205Y-7648263D01*
X10928486Y-7667573D01*
X10924675Y-7673487D01*
X10924673Y-7673489D01*
X10843622Y-7799255D01*
X10836304Y-7810610D01*
X10833894Y-7817232D01*
X10781345Y-7961610D01*
X10778103Y-7970516D01*
X10774713Y-7997348D01*
X10746333Y-8062421D01*
X10738803Y-8070648D01*
X10564856Y-8244595D01*
X10502544Y-8278621D01*
X10475761Y-8281500D01*
X9948301Y-8281500D01*
X9880180Y-8261498D01*
X9833687Y-8207842D01*
X9823583Y-8137568D01*
X9838367Y-8093934D01*
X9864180Y-8047842D01*
X9864181Y-8047840D01*
X9867004Y-8042799D01*
X9868860Y-8037332D01*
X9868862Y-8037327D01*
X9930634Y-7855352D01*
X9930635Y-7855347D01*
X9932490Y-7849883D01*
X9961723Y-7648263D01*
X9963249Y-7590000D01*
X9948582Y-7430377D01*
X9945137Y-7392880D01*
X9945136Y-7392877D01*
X9944608Y-7387126D01*
X9929298Y-7332841D01*
X9890875Y-7196606D01*
X9890874Y-7196604D01*
X9889307Y-7191047D01*
X9886753Y-7185868D01*
X9884682Y-7180473D01*
X9887047Y-7179565D01*
X9876712Y-7120300D01*
X9904263Y-7054867D01*
X9962817Y-7014718D01*
X10001909Y-7008500D01*
X11797354Y-7008500D01*
X11865475Y-7028502D01*
G37*
%TD.AperFunction*%
%TA.AperFunction,Conductor*%
G36*
X7766831Y-7028502D02*
G01*
X7813324Y-7082158D01*
X7823428Y-7152432D01*
X7819043Y-7171864D01*
X7776660Y-7308361D01*
X7761078Y-7358543D01*
X7737132Y-7560859D01*
X7750457Y-7764151D01*
X7800605Y-7961610D01*
X7803024Y-7966857D01*
X7865671Y-8102749D01*
X7876026Y-8172986D01*
X7846763Y-8237672D01*
X7787175Y-8276269D01*
X7751245Y-8281500D01*
X2617978Y-8281500D01*
X2549857Y-8261498D01*
X2512186Y-8223940D01*
X2510220Y-8220900D01*
X2456310Y-8137568D01*
X2407822Y-8062617D01*
X2407820Y-8062614D01*
X2405014Y-8058277D01*
X2254670Y-7893051D01*
X2250619Y-7889852D01*
X2250615Y-7889848D01*
X2083414Y-7757800D01*
X2083410Y-7757798D01*
X2079359Y-7754598D01*
X2038053Y-7731796D01*
X1988084Y-7681364D01*
X1973312Y-7611921D01*
X1998428Y-7545516D01*
X2025780Y-7518909D01*
X2106144Y-7461586D01*
X2204860Y-7391173D01*
X2209553Y-7386497D01*
X2315921Y-7280499D01*
X2363096Y-7233489D01*
X2382965Y-7205839D01*
X2487060Y-7060974D01*
X2543055Y-7017326D01*
X2589383Y-7008500D01*
X7698710Y-7008500D01*
X7766831Y-7028502D01*
G37*
%TD.AperFunction*%
%TA.AperFunction,Conductor*%
G36*
X16677444Y-5768502D02*
G01*
X16723937Y-5822158D01*
X16734586Y-5888109D01*
X16732369Y-5908517D01*
X16732000Y-5915328D01*
X16732000Y-6012885D01*
X16736475Y-6028124D01*
X16737865Y-6029329D01*
X16745548Y-6031000D01*
X18929884Y-6031000D01*
X18945123Y-6026525D01*
X18946328Y-6025135D01*
X18947999Y-6017452D01*
X18947999Y-5915331D01*
X18947630Y-5908514D01*
X18945413Y-5888107D01*
X18957942Y-5818224D01*
X19006263Y-5766209D01*
X19070676Y-5748500D01*
X20909323Y-5748500D01*
X20977444Y-5768502D01*
X21023937Y-5822158D01*
X21034586Y-5888109D01*
X21032369Y-5908517D01*
X21032000Y-5915328D01*
X21032000Y-6012885D01*
X21036475Y-6028124D01*
X21037865Y-6029329D01*
X21045548Y-6031000D01*
X23229884Y-6031000D01*
X23245123Y-6026525D01*
X23246328Y-6025135D01*
X23247999Y-6017452D01*
X23247999Y-5915331D01*
X23247630Y-5908514D01*
X23245413Y-5888107D01*
X23257942Y-5818224D01*
X23306263Y-5766209D01*
X23370676Y-5748500D01*
X24046595Y-5748500D01*
X24114716Y-5768502D01*
X24161209Y-5822158D01*
X24171313Y-5892432D01*
X24155714Y-5937500D01*
X24153755Y-5940893D01*
X24097037Y-6039132D01*
X24091401Y-6048893D01*
X24089359Y-6055178D01*
X24048701Y-6180313D01*
X24035635Y-6220525D01*
X24034945Y-6227088D01*
X24034945Y-6227089D01*
X24025545Y-6316525D01*
X24016771Y-6400000D01*
X24017461Y-6406565D01*
X24030137Y-6527162D01*
X24035635Y-6579475D01*
X24037675Y-6585753D01*
X24037675Y-6585754D01*
X24052773Y-6632221D01*
X24091401Y-6751107D01*
X24094704Y-6756829D01*
X24094705Y-6756830D01*
X24099320Y-6764823D01*
X24181633Y-6907393D01*
X24186051Y-6912300D01*
X24186052Y-6912301D01*
X24290680Y-7028502D01*
X24302387Y-7041504D01*
X24307729Y-7045385D01*
X24307731Y-7045387D01*
X24410840Y-7120300D01*
X24448385Y-7147578D01*
X24454413Y-7150262D01*
X24454415Y-7150263D01*
X24608796Y-7218998D01*
X24662892Y-7264978D01*
X24683541Y-7332906D01*
X24664188Y-7401214D01*
X24610978Y-7448215D01*
X24541101Y-7459027D01*
X24528188Y-7457327D01*
X24520000Y-7456249D01*
X24361149Y-7477162D01*
X24213124Y-7538476D01*
X24183954Y-7560859D01*
X24117937Y-7611515D01*
X24117921Y-7611529D01*
X24092566Y-7630984D01*
X24092563Y-7630987D01*
X24086013Y-7636013D01*
X24080983Y-7642568D01*
X24066548Y-7661379D01*
X24055681Y-7673770D01*
X23739856Y-7989595D01*
X23677544Y-8023621D01*
X23650761Y-8026500D01*
X23339126Y-8026500D01*
X23271005Y-8006498D01*
X23224512Y-7952842D01*
X23221144Y-7944730D01*
X23193767Y-7871703D01*
X23190615Y-7863295D01*
X23103261Y-7746739D01*
X22986705Y-7659385D01*
X22850316Y-7608255D01*
X22788134Y-7601500D01*
X21491866Y-7601500D01*
X21429684Y-7608255D01*
X21293295Y-7659385D01*
X21176739Y-7746739D01*
X21154759Y-7776067D01*
X21097900Y-7818580D01*
X21053934Y-7826500D01*
X18926066Y-7826500D01*
X18857945Y-7806498D01*
X18825242Y-7776068D01*
X18803261Y-7746739D01*
X18686705Y-7659385D01*
X18550316Y-7608255D01*
X18488134Y-7601500D01*
X17191866Y-7601500D01*
X17129684Y-7608255D01*
X16993295Y-7659385D01*
X16876739Y-7746739D01*
X16854759Y-7776067D01*
X16797900Y-7818580D01*
X16753934Y-7826500D01*
X15829539Y-7826500D01*
X15761418Y-7806498D01*
X15714925Y-7752842D01*
X15710022Y-7740395D01*
X15658756Y-7586732D01*
X15654181Y-7579338D01*
X15572606Y-7447515D01*
X15568752Y-7441287D01*
X15563570Y-7436114D01*
X15559023Y-7430377D01*
X15560830Y-7428945D01*
X15532098Y-7376425D01*
X15537108Y-7305605D01*
X15560499Y-7269147D01*
X15559448Y-7268317D01*
X15572998Y-7251160D01*
X15655004Y-7118120D01*
X15661151Y-7104938D01*
X15710491Y-6956186D01*
X15713358Y-6942810D01*
X15722672Y-6851903D01*
X15722929Y-6846874D01*
X15718525Y-6831876D01*
X15717135Y-6830671D01*
X15709452Y-6829000D01*
X14612000Y-6829000D01*
X14543879Y-6808998D01*
X14497386Y-6755342D01*
X14486000Y-6703000D01*
X14486000Y-6654669D01*
X16732001Y-6654669D01*
X16732371Y-6661490D01*
X16737895Y-6712352D01*
X16741521Y-6727604D01*
X16786676Y-6848054D01*
X16795214Y-6863649D01*
X16871715Y-6965724D01*
X16884276Y-6978285D01*
X16986351Y-7054786D01*
X17001946Y-7063324D01*
X17122394Y-7108478D01*
X17137649Y-7112105D01*
X17188514Y-7117631D01*
X17195328Y-7118000D01*
X17567885Y-7118000D01*
X17583124Y-7113525D01*
X17584329Y-7112135D01*
X17586000Y-7104452D01*
X17586000Y-7099884D01*
X18094000Y-7099884D01*
X18098475Y-7115123D01*
X18099865Y-7116328D01*
X18107548Y-7117999D01*
X18484669Y-7117999D01*
X18491490Y-7117629D01*
X18542352Y-7112105D01*
X18557604Y-7108479D01*
X18678054Y-7063324D01*
X18693649Y-7054786D01*
X18795724Y-6978285D01*
X18808285Y-6965724D01*
X18884786Y-6863649D01*
X18893324Y-6848054D01*
X18938478Y-6727606D01*
X18942105Y-6712351D01*
X18947631Y-6661486D01*
X18948000Y-6654672D01*
X18948000Y-6654669D01*
X21032001Y-6654669D01*
X21032371Y-6661490D01*
X21037895Y-6712352D01*
X21041521Y-6727604D01*
X21086676Y-6848054D01*
X21095214Y-6863649D01*
X21171715Y-6965724D01*
X21184276Y-6978285D01*
X21286351Y-7054786D01*
X21301946Y-7063324D01*
X21422394Y-7108478D01*
X21437649Y-7112105D01*
X21488514Y-7117631D01*
X21495328Y-7118000D01*
X21867885Y-7118000D01*
X21883124Y-7113525D01*
X21884329Y-7112135D01*
X21886000Y-7104452D01*
X21886000Y-7099884D01*
X22394000Y-7099884D01*
X22398475Y-7115123D01*
X22399865Y-7116328D01*
X22407548Y-7117999D01*
X22784669Y-7117999D01*
X22791490Y-7117629D01*
X22842352Y-7112105D01*
X22857604Y-7108479D01*
X22978054Y-7063324D01*
X22993649Y-7054786D01*
X23095724Y-6978285D01*
X23108285Y-6965724D01*
X23184786Y-6863649D01*
X23193324Y-6848054D01*
X23238478Y-6727606D01*
X23242105Y-6712351D01*
X23247631Y-6661486D01*
X23248000Y-6654672D01*
X23248000Y-6557115D01*
X23243525Y-6541876D01*
X23242135Y-6540671D01*
X23234452Y-6539000D01*
X22412115Y-6539000D01*
X22396876Y-6543475D01*
X22395671Y-6544865D01*
X22394000Y-6552548D01*
X22394000Y-7099884D01*
X21886000Y-7099884D01*
X21886000Y-6557115D01*
X21881525Y-6541876D01*
X21880135Y-6540671D01*
X21872452Y-6539000D01*
X21050116Y-6539000D01*
X21034877Y-6543475D01*
X21033672Y-6544865D01*
X21032001Y-6552548D01*
X21032001Y-6654669D01*
X18948000Y-6654669D01*
X18948000Y-6557115D01*
X18943525Y-6541876D01*
X18942135Y-6540671D01*
X18934452Y-6539000D01*
X18112115Y-6539000D01*
X18096876Y-6543475D01*
X18095671Y-6544865D01*
X18094000Y-6552548D01*
X18094000Y-7099884D01*
X17586000Y-7099884D01*
X17586000Y-6557115D01*
X17581525Y-6541876D01*
X17580135Y-6540671D01*
X17572452Y-6539000D01*
X16750116Y-6539000D01*
X16734877Y-6543475D01*
X16733672Y-6544865D01*
X16732001Y-6552548D01*
X16732001Y-6654669D01*
X14486000Y-6654669D01*
X14486000Y-6447000D01*
X14506002Y-6378879D01*
X14559658Y-6332386D01*
X14612000Y-6321000D01*
X15704885Y-6321000D01*
X15720124Y-6316525D01*
X15721329Y-6315135D01*
X15723000Y-6307452D01*
X15723000Y-6304562D01*
X15722663Y-6298047D01*
X15713106Y-6205943D01*
X15710212Y-6192544D01*
X15660619Y-6043893D01*
X15654446Y-6030715D01*
X15598806Y-5940803D01*
X15579968Y-5872351D01*
X15601129Y-5804582D01*
X15655570Y-5759010D01*
X15705950Y-5748500D01*
X16609323Y-5748500D01*
X16677444Y-5768502D01*
G37*
%TD.AperFunction*%
%TA.AperFunction,Conductor*%
G36*
X29040856Y-5845017D02*
G01*
X29081816Y-5872365D01*
X29655856Y-6446405D01*
X29689882Y-6508717D01*
X29684817Y-6579532D01*
X29642270Y-6636368D01*
X29575750Y-6661179D01*
X29566761Y-6661500D01*
X27802000Y-6661500D01*
X27733879Y-6641498D01*
X27687386Y-6587842D01*
X27676000Y-6535500D01*
X27676000Y-6329500D01*
X27696002Y-6261379D01*
X27749658Y-6214886D01*
X27802000Y-6203500D01*
X28894885Y-6203500D01*
X28910124Y-6199025D01*
X28911329Y-6197635D01*
X28912842Y-6190679D01*
X28912663Y-6187218D01*
X28903196Y-6095979D01*
X28900303Y-6082582D01*
X28873197Y-6001336D01*
X28870613Y-5930386D01*
X28906797Y-5869302D01*
X28970261Y-5837478D01*
X29040856Y-5845017D01*
G37*
%TD.AperFunction*%
%TA.AperFunction,Conductor*%
G36*
X1526121Y-1096002D02*
G01*
X1572614Y-1149658D01*
X1584000Y-1202000D01*
X1584000Y-2648517D01*
X1588064Y-2662359D01*
X1601478Y-2664393D01*
X1608184Y-2663534D01*
X1618262Y-2661392D01*
X1822255Y-2600191D01*
X1831842Y-2596433D01*
X2023095Y-2502739D01*
X2031945Y-2497464D01*
X2205328Y-2373792D01*
X2213200Y-2367139D01*
X2364052Y-2216812D01*
X2370730Y-2208965D01*
X2498022Y-2031819D01*
X2499279Y-2032722D01*
X2546373Y-1989362D01*
X2616311Y-1977145D01*
X2681751Y-2004678D01*
X2709579Y-2036511D01*
X2769987Y-2135088D01*
X2916250Y-2303938D01*
X3088126Y-2446632D01*
X3281000Y-2559338D01*
X3489692Y-2639030D01*
X3494760Y-2640061D01*
X3494763Y-2640062D01*
X3589862Y-2659410D01*
X3708597Y-2683567D01*
X3713772Y-2683757D01*
X3713774Y-2683757D01*
X3926673Y-2691564D01*
X3926677Y-2691564D01*
X3931837Y-2691753D01*
X3936957Y-2691097D01*
X3936959Y-2691097D01*
X4029500Y-2679242D01*
X4153416Y-2663368D01*
X4249553Y-2634525D01*
X4320547Y-2634107D01*
X4374855Y-2666115D01*
X7185145Y-5476405D01*
X7219171Y-5538717D01*
X7214106Y-5609532D01*
X7171559Y-5666368D01*
X7105039Y-5691179D01*
X7096050Y-5691500D01*
X2585632Y-5691500D01*
X2517511Y-5671498D01*
X2479840Y-5633940D01*
X2407822Y-5522617D01*
X2407820Y-5522614D01*
X2405014Y-5518277D01*
X2254670Y-5353051D01*
X2250619Y-5349852D01*
X2250615Y-5349848D01*
X2083414Y-5217800D01*
X2083410Y-5217798D01*
X2079359Y-5214598D01*
X2069987Y-5209424D01*
X1990418Y-5165500D01*
X1883789Y-5106638D01*
X1878920Y-5104914D01*
X1878916Y-5104912D01*
X1678087Y-5033795D01*
X1678083Y-5033794D01*
X1673212Y-5032069D01*
X1668119Y-5031162D01*
X1668116Y-5031161D01*
X1458373Y-4993800D01*
X1458367Y-4993799D01*
X1453284Y-4992894D01*
X1379452Y-4991992D01*
X1235081Y-4990228D01*
X1235079Y-4990228D01*
X1229911Y-4990165D01*
X1009091Y-5023955D01*
X796756Y-5093357D01*
X792168Y-5095745D01*
X792164Y-5095747D01*
X679879Y-5154199D01*
X610219Y-5167912D01*
X544204Y-5141787D01*
X502793Y-5084118D01*
X495699Y-5042436D01*
X495699Y-2634981D01*
X515701Y-2566860D01*
X569357Y-2520367D01*
X639631Y-2510263D01*
X685269Y-2526193D01*
X736755Y-2556279D01*
X746042Y-2560729D01*
X945001Y-2636703D01*
X954899Y-2639579D01*
X1058250Y-2660606D01*
X1072299Y-2659410D01*
X1076000Y-2649065D01*
X1076000Y-1202000D01*
X1096002Y-1133879D01*
X1149658Y-1087386D01*
X1202000Y-1076000D01*
X1458000Y-1076000D01*
X1526121Y-1096002D01*
G37*
%TD.AperFunction*%
%TA.AperFunction,Conductor*%
G36*
X70106121Y-1096002D02*
G01*
X70152614Y-1149658D01*
X70164000Y-1202000D01*
X70164000Y-2648517D01*
X70168064Y-2662359D01*
X70181478Y-2664393D01*
X70188184Y-2663534D01*
X70198262Y-2661392D01*
X70402255Y-2600191D01*
X70411842Y-2596433D01*
X70603095Y-2502739D01*
X70611945Y-2497464D01*
X70785328Y-2373792D01*
X70793200Y-2367139D01*
X70944052Y-2216812D01*
X70950730Y-2208965D01*
X71078022Y-2031819D01*
X71079279Y-2032722D01*
X71126373Y-1989362D01*
X71196311Y-1977145D01*
X71261751Y-2004678D01*
X71289579Y-2036511D01*
X71349987Y-2135088D01*
X71496250Y-2303938D01*
X71644124Y-2426705D01*
X71645985Y-2428250D01*
X71685620Y-2487152D01*
X71691500Y-2525194D01*
X71691500Y-5165500D01*
X71671498Y-5233621D01*
X71617842Y-5280114D01*
X71565500Y-5291500D01*
X67995710Y-5291500D01*
X67927589Y-5271498D01*
X67906615Y-5254595D01*
X67865381Y-5213361D01*
X67718699Y-5124528D01*
X67711452Y-5122257D01*
X67711450Y-5122256D01*
X67626859Y-5095747D01*
X67555062Y-5073247D01*
X67481635Y-5066500D01*
X67478737Y-5066500D01*
X67224335Y-5066501D01*
X66968366Y-5066501D01*
X66965508Y-5066764D01*
X66965499Y-5066764D01*
X66929996Y-5070026D01*
X66894938Y-5073247D01*
X66888560Y-5075246D01*
X66888559Y-5075246D01*
X66738550Y-5122256D01*
X66738548Y-5122257D01*
X66731301Y-5124528D01*
X66584619Y-5213361D01*
X66489095Y-5308885D01*
X66426783Y-5342911D01*
X66355968Y-5337846D01*
X66310905Y-5308885D01*
X66215381Y-5213361D01*
X66068699Y-5124528D01*
X66061452Y-5122257D01*
X66061450Y-5122256D01*
X65976859Y-5095747D01*
X65905062Y-5073247D01*
X65831635Y-5066500D01*
X65828737Y-5066500D01*
X65574335Y-5066501D01*
X65318366Y-5066501D01*
X65315508Y-5066764D01*
X65315499Y-5066764D01*
X65279996Y-5070026D01*
X65244938Y-5073247D01*
X65238560Y-5075246D01*
X65238559Y-5075246D01*
X65088550Y-5122256D01*
X65088548Y-5122257D01*
X65081301Y-5124528D01*
X64978308Y-5186902D01*
X64909680Y-5205081D01*
X64846922Y-5186386D01*
X64755692Y-5130151D01*
X64744058Y-5126292D01*
X64683252Y-5106123D01*
X64624892Y-5065691D01*
X64597656Y-5000127D01*
X64610190Y-4930246D01*
X64633825Y-4897435D01*
X66861822Y-2669438D01*
X66924134Y-2635412D01*
X66985751Y-2637525D01*
X66989692Y-2639030D01*
X66994762Y-2640061D01*
X66994767Y-2640063D01*
X67114354Y-2664393D01*
X67208597Y-2683567D01*
X67213772Y-2683757D01*
X67213774Y-2683757D01*
X67426673Y-2691564D01*
X67426677Y-2691564D01*
X67431837Y-2691753D01*
X67436957Y-2691097D01*
X67436959Y-2691097D01*
X67648288Y-2664025D01*
X67648289Y-2664025D01*
X67653416Y-2663368D01*
X67658376Y-2661880D01*
X67862429Y-2600661D01*
X67862434Y-2600659D01*
X67867384Y-2599174D01*
X68067994Y-2500896D01*
X68249860Y-2371173D01*
X68408096Y-2213489D01*
X68538453Y-2032077D01*
X68539640Y-2032930D01*
X68586960Y-1989362D01*
X68656897Y-1977145D01*
X68722338Y-2004678D01*
X68750166Y-2036511D01*
X68807694Y-2130388D01*
X68813777Y-2138699D01*
X68953213Y-2299667D01*
X68960580Y-2306883D01*
X69124434Y-2442916D01*
X69132881Y-2448831D01*
X69316756Y-2556279D01*
X69326042Y-2560729D01*
X69525001Y-2636703D01*
X69534899Y-2639579D01*
X69638250Y-2660606D01*
X69652299Y-2659410D01*
X69656000Y-2649065D01*
X69656000Y-1202000D01*
X69676002Y-1133879D01*
X69729658Y-1087386D01*
X69782000Y-1076000D01*
X70038000Y-1076000D01*
X70106121Y-1096002D01*
G37*
%TD.AperFunction*%
%TD*%
M02*
