M48
; DRILL file {KiCad 7.0.10} date Wed Feb  7 16:19:55 2024
; FORMAT={-:-/ absolute / metric / decimal}
; #@! TF.CreationDate,2024-02-07T16:19:55+08:00
; #@! TF.GenerationSoftware,Kicad,Pcbnew,7.0.10
; #@! TF.FileFunction,MixedPlating,1,2
FMAT,2
METRIC
; #@! TA.AperFunction,Plated,PTH,ViaDrill
T1C0.300
; #@! TA.AperFunction,Plated,PTH,ViaDrill
T2C0.400
; #@! TA.AperFunction,Plated,PTH,ComponentDrill
T3C0.600
; #@! TA.AperFunction,Plated,PTH,ComponentDrill
T4C1.000
; #@! TA.AperFunction,Plated,PTH,ComponentDrill
T5C1.200
; #@! TA.AperFunction,NonPlated,NPTH,ComponentDrill
T6C0.650
%
G90
G05
T1
X2.975Y-12.45
X2.976Y-13.446
X10.845Y-6.566
X11.225Y-17.016
X11.64Y-6.566
X12.435Y-6.566
X13.085Y-21.546
X13.088Y-12.846
X13.088Y-15.316
X13.095Y-17.546
X15.175Y-10.636
X15.705Y-21.526
X16.09Y-10.636
X17.005Y-10.636
X18.215Y-21.526
X20.565Y-17.176
X20.565Y-20.266
X20.59Y-7.431
X20.635Y-21.526
X22.895Y-6.566
X23.665Y-6.566
X24.405Y-6.566
X29.965Y-12.886
X29.965Y-13.506
X29.965Y-14.256
X32.055Y-16.356
X32.415Y-12.886
X32.415Y-13.506
X34.145Y-11.776
X34.89Y-13.786
X34.895Y-9.336
X36.725Y-16.336
X39.795Y-13.636
X40.519Y-10.662
X41.227Y-3.554
X43.12Y-6.881
X43.455Y-8.456
X43.665Y-11.436
X43.665Y-13.596
X43.665Y-17.496
X44.021Y-3.554
X44.021Y-21.842
X44.913Y-7.604
X47.485Y-13.596
X48.339Y-21.842
X48.593Y-3.554
X52.295Y-13.866
X52.305Y-11.596
X54.825Y-13.866
X56.705Y-10.331
X58.245Y-12.076
X58.245Y-16.746
X60.44Y-19.056
X61.335Y-19.056
X62.23Y-19.056
X62.265Y-12.826
X63.125Y-19.056
X64.02Y-19.056
X70.245Y-10.646
X70.255Y-14.706
X70.955Y-15.596
X78.795Y-12.686
X78.795Y-15.106
X78.795Y-17.526
T2
X8.895Y-15.096
X8.915Y-10.316
T4
X1.705Y-1.346
X1.705Y-24.056
X4.245Y-1.346
X4.245Y-24.056
X6.785Y-1.346
X6.785Y-24.056
X9.325Y-1.346
X9.325Y-24.056
X11.865Y-1.346
X11.865Y-24.056
X14.405Y-1.346
X14.405Y-24.056
X16.945Y-1.346
X16.945Y-24.056
X19.485Y-1.346
X19.485Y-24.056
X22.025Y-1.346
X22.025Y-24.056
X24.565Y-1.346
X24.565Y-24.056
X27.105Y-1.346
X27.105Y-24.056
X29.645Y-1.346
X29.645Y-24.056
X32.185Y-1.346
X32.185Y-24.056
X34.725Y-1.346
X34.725Y-24.056
X37.265Y-1.346
X37.265Y-24.056
X39.805Y-1.346
X39.805Y-24.056
X42.345Y-1.346
X42.345Y-24.056
X44.885Y-1.346
X44.885Y-24.056
X47.425Y-1.346
X47.425Y-24.056
X49.965Y-1.346
X49.965Y-24.056
X52.505Y-1.346
X52.505Y-24.056
X55.045Y-1.346
X55.045Y-24.056
X57.585Y-1.346
X57.585Y-24.056
X60.125Y-1.346
X60.125Y-24.056
X62.665Y-1.346
X62.665Y-24.056
X65.205Y-1.346
X65.205Y-24.056
X67.745Y-1.346
X67.745Y-24.056
X70.285Y-1.346
X70.285Y-24.056
X72.825Y-1.346
X72.825Y-24.056
X75.365Y-1.346
X75.365Y-24.056
X77.905Y-1.346
X77.905Y-24.056
X80.445Y-1.346
X80.445Y-24.056
X83.785Y-8.886
X83.785Y-11.426
X83.785Y-13.966
X83.785Y-16.506
T5
X-1.065Y-5.146
X-1.065Y-20.256
X83.225Y-5.146
X83.235Y-20.256
T6
X2.614Y-9.81
X2.614Y-15.59
T3
G00X-0.636Y-8.375
M15
G01X-1.536Y-8.375
M16
G05
G00X-0.636Y-17.025
M15
G01X-1.536Y-17.025
M16
G05
G00X3.714Y-8.375
M15
G01X2.514Y-8.375
M16
G05
G00X3.714Y-17.025
M15
G01X2.514Y-17.025
M16
G05
M30
