M48
; DRILL file {KiCad 7.0.7} date Wed Aug 30 18:59:39 2023
; FORMAT={-:-/ absolute / metric / decimal}
; #@! TF.CreationDate,2023-08-30T18:59:39+08:00
; #@! TF.GenerationSoftware,Kicad,Pcbnew,7.0.7
; #@! TF.FileFunction,MixedPlating,1,2
FMAT,2
METRIC
; #@! TA.AperFunction,Plated,PTH,ViaDrill
T1C0.300
; #@! TA.AperFunction,Plated,PTH,ViaDrill
T2C0.400
; #@! TA.AperFunction,Plated,PTH,ComponentDrill
T3C0.600
; #@! TA.AperFunction,Plated,PTH,ComponentDrill
T4C1.000
; #@! TA.AperFunction,Plated,PTH,ComponentDrill
T5C1.200
; #@! TA.AperFunction,NonPlated,NPTH,ComponentDrill
T6C0.650
%
G90
G05
T1
X0.86Y-9.914
X0.861Y-10.91
X3.04Y-6.57
X3.04Y-8.91
X3.05Y-11.91
X3.05Y-13.76
X4.08Y-11.43
X4.085Y-8.934
X10.37Y-10.26
X10.79Y-16.43
X13.57Y-16.43
X15.65Y-17.18
X17.008Y-13.452
X18.11Y-10.29
X29.16Y-8.71
X32.65Y-8.42
X33.249Y-15.31
X33.32Y-9.32
X33.32Y-10.52
X33.98Y-11.37
X34.76Y-13.8
X37.68Y-11.1
X38.4Y-9.09
X38.4Y-10.53
X38.404Y-8.126
X41.17Y-5.8
X41.175Y-4.515
X41.55Y-8.9
X41.55Y-11.06
X41.55Y-14.96
X42.798Y-5.068
X50.08Y-11.68
X50.19Y-9.06
X52.6Y-11.06
X54.78Y-13.92
X55.026Y-8.126
X55.83Y-9.54
X61.84Y-10.29
X63.462Y-13.653
X68.13Y-8.11
X68.14Y-12.17
X68.84Y-13.06
X76.68Y-10.15
X76.68Y-12.57
X76.68Y-14.99
T2
X6.78Y-12.56
X6.8Y-7.78
X8.325Y-15.335
X18.83Y-8.91
X18.83Y-15.17
X50.454Y-13.862
T4
X-0.41Y-1.34
X-0.41Y-18.99
X2.13Y-1.34
X2.13Y-18.99
X4.67Y-1.34
X4.67Y-18.99
X7.21Y-1.34
X7.21Y-18.99
X9.75Y-1.34
X9.75Y-18.99
X12.29Y-1.34
X12.29Y-18.99
X14.83Y-1.34
X14.83Y-18.99
X17.37Y-1.34
X17.37Y-18.99
X19.91Y-1.34
X19.91Y-18.99
X22.45Y-1.34
X22.45Y-18.99
X24.99Y-1.34
X24.99Y-18.99
X27.53Y-1.34
X27.53Y-18.99
X30.07Y-1.34
X30.07Y-18.99
X32.61Y-1.34
X32.61Y-18.99
X35.15Y-1.34
X35.15Y-18.99
X37.69Y-1.34
X37.69Y-18.99
X40.23Y-1.34
X40.23Y-18.99
X42.77Y-1.34
X42.77Y-18.99
X45.31Y-1.34
X45.31Y-18.99
X47.85Y-1.34
X47.85Y-18.99
X50.39Y-1.34
X50.39Y-18.99
X52.93Y-1.34
X52.93Y-18.99
X55.47Y-1.34
X55.47Y-18.99
X58.01Y-1.34
X58.01Y-18.99
X60.55Y-1.34
X60.55Y-18.99
X63.09Y-1.34
X63.09Y-18.99
X65.63Y-1.34
X65.63Y-18.99
X68.17Y-1.34
X68.17Y-18.99
X70.71Y-1.34
X70.71Y-18.99
X73.25Y-1.34
X73.25Y-18.99
X75.79Y-1.34
X75.79Y-18.99
X78.33Y-1.34
X78.33Y-18.99
X81.67Y-6.35
X81.67Y-8.89
X81.67Y-11.43
X81.67Y-13.97
T5
X-3.18Y-2.61
X-3.18Y-17.72
X81.11Y-2.61
X81.12Y-17.72
T6
X0.499Y-7.274
X0.499Y-13.054
T3
G00X-2.751Y-5.839
M15
G01X-3.651Y-5.839
M16
G05
G00X-2.751Y-14.489
M15
G01X-3.651Y-14.489
M16
G05
G00X1.599Y-5.839
M15
G01X0.399Y-5.839
M16
G05
G00X1.599Y-14.489
M15
G01X0.399Y-14.489
M16
G05
T0
M30
