%TF.GenerationSoftware,KiCad,Pcbnew,(6.0.9)*%
%TF.CreationDate,2022-12-12T19:53:13+08:00*%
%TF.ProjectId,UINIO-MCU-GD32F350RBT6,55494e49-4f2d-44d4-9355-2d4744333246,Version 1.0.0*%
%TF.SameCoordinates,PX6a581f0PY5923d30*%
%TF.FileFunction,Copper,L2,Bot*%
%TF.FilePolarity,Positive*%
%FSLAX46Y46*%
G04 Gerber Fmt 4.6, Leading zero omitted, Abs format (unit mm)*
G04 Created by KiCad (PCBNEW (6.0.9)) date 2022-12-12 19:53:13*
%MOMM*%
%LPD*%
G01*
G04 APERTURE LIST*
%TA.AperFunction,ComponentPad*%
%ADD10C,1.200000*%
%TD*%
%TA.AperFunction,ComponentPad*%
%ADD11O,2.100000X1.000000*%
%TD*%
%TA.AperFunction,ComponentPad*%
%ADD12O,1.900000X1.000000*%
%TD*%
%TA.AperFunction,ComponentPad*%
%ADD13R,1.700000X1.700000*%
%TD*%
%TA.AperFunction,ComponentPad*%
%ADD14O,1.700000X1.700000*%
%TD*%
%TA.AperFunction,ViaPad*%
%ADD15C,0.500000*%
%TD*%
%TA.AperFunction,ViaPad*%
%ADD16C,0.900000*%
%TD*%
%TA.AperFunction,ViaPad*%
%ADD17C,0.700000*%
%TD*%
%TA.AperFunction,ViaPad*%
%ADD18C,1.100000*%
%TD*%
%TA.AperFunction,Conductor*%
%ADD19C,0.300000*%
%TD*%
%TA.AperFunction,Conductor*%
%ADD20C,0.500000*%
%TD*%
%TA.AperFunction,Conductor*%
%ADD21C,0.200000*%
%TD*%
G04 APERTURE END LIST*
D10*
%TO.P,HOLE1,*%
%TO.N,*%
X8850000Y-7590000D03*
%TD*%
%TO.P,HOLE3,*%
%TO.N,*%
X70860000Y-7580000D03*
%TD*%
%TO.P,HOLE2,*%
%TO.N,*%
X8850000Y-12710000D03*
%TD*%
D11*
%TO.P,USB1,13,GND*%
%TO.N,GND*%
X75140000Y-14615000D03*
%TO.P,USB1,14,GND*%
X75140000Y-5965000D03*
D12*
%TO.P,USB1,15,GND*%
X79340000Y-14615000D03*
%TO.P,USB1,16,GND*%
X79340000Y-5965000D03*
%TD*%
D13*
%TO.P,J3,1,Pin_1*%
%TO.N,GND*%
X1325000Y-13970000D03*
D14*
%TO.P,J3,2,Pin_2*%
%TO.N,/PA14{slash}SWCLK*%
X1325000Y-11430000D03*
%TO.P,J3,3,Pin_3*%
%TO.N,/PA13{slash}SWDIO*%
X1325000Y-8890000D03*
%TO.P,J3,4,Pin_4*%
%TO.N,/VDD_3.3V*%
X1325000Y-6350000D03*
%TD*%
D10*
%TO.P,HOLE4,*%
%TO.N,*%
X70860000Y-12990000D03*
%TD*%
D13*
%TO.P,J2,1,Pin_1*%
%TO.N,/VDD_3.3V*%
X80070000Y-18980000D03*
D14*
%TO.P,J2,2,Pin_2*%
%TO.N,GND*%
X77530000Y-18980000D03*
%TO.P,J2,3,Pin_3*%
%TO.N,/PB9*%
X74990000Y-18980000D03*
%TO.P,J2,4,Pin_4*%
%TO.N,/PB8*%
X72450000Y-18980000D03*
%TO.P,J2,5,Pin_5*%
%TO.N,/BOOT0*%
X69910000Y-18980000D03*
%TO.P,J2,6,Pin_6*%
%TO.N,/PB7*%
X67370000Y-18980000D03*
%TO.P,J2,7,Pin_7*%
%TO.N,/PB6*%
X64830000Y-18980000D03*
%TO.P,J2,8,Pin_8*%
%TO.N,/PB5*%
X62290000Y-18980000D03*
%TO.P,J2,9,Pin_9*%
%TO.N,/PB4*%
X59750000Y-18980000D03*
%TO.P,J2,10,Pin_10*%
%TO.N,/PB3*%
X57210000Y-18980000D03*
%TO.P,J2,11,Pin_11*%
%TO.N,/PD2*%
X54670000Y-18980000D03*
%TO.P,J2,12,Pin_12*%
%TO.N,/PC12*%
X52130000Y-18980000D03*
%TO.P,J2,13,Pin_13*%
%TO.N,/PC11*%
X49590000Y-18980000D03*
%TO.P,J2,14,Pin_14*%
%TO.N,/PC10*%
X47050000Y-18980000D03*
%TO.P,J2,15,Pin_15*%
%TO.N,/PA15*%
X44510000Y-18980000D03*
%TO.P,J2,16,Pin_16*%
%TO.N,/PA14{slash}SWCLK*%
X41970000Y-18980000D03*
%TO.P,J2,17,Pin_17*%
%TO.N,/PF7*%
X39430000Y-18980000D03*
%TO.P,J2,18,Pin_18*%
%TO.N,/PF6*%
X36890000Y-18980000D03*
%TO.P,J2,19,Pin_19*%
%TO.N,/PA13{slash}SWDIO*%
X34350000Y-18980000D03*
%TO.P,J2,20,Pin_20*%
%TO.N,/PA12*%
X31810000Y-18980000D03*
%TO.P,J2,21,Pin_21*%
%TO.N,/PA11*%
X29270000Y-18980000D03*
%TO.P,J2,22,Pin_22*%
%TO.N,/PA10*%
X26730000Y-18980000D03*
%TO.P,J2,23,Pin_23*%
%TO.N,/PA9*%
X24190000Y-18980000D03*
%TO.P,J2,24,Pin_24*%
%TO.N,/PA8*%
X21650000Y-18980000D03*
%TO.P,J2,25,Pin_25*%
%TO.N,/PC9*%
X19110000Y-18980000D03*
%TO.P,J2,26,Pin_26*%
%TO.N,/PC8*%
X16570000Y-18980000D03*
%TO.P,J2,27,Pin_27*%
%TO.N,/PC7*%
X14030000Y-18980000D03*
%TO.P,J2,28,Pin_28*%
%TO.N,/PC6*%
X11490000Y-18980000D03*
%TO.P,J2,29,Pin_29*%
%TO.N,/PB15*%
X8950000Y-18980000D03*
%TO.P,J2,30,Pin_30*%
%TO.N,/PB14*%
X6410000Y-18980000D03*
%TO.P,J2,31,Pin_31*%
%TO.N,/PB13*%
X3870000Y-18980000D03*
%TO.P,J2,32,Pin_32*%
%TO.N,/PB12*%
X1330000Y-18980000D03*
%TD*%
D13*
%TO.P,J1,1,Pin_1*%
%TO.N,/VBAT*%
X80070000Y-1330000D03*
D14*
%TO.P,J1,2,Pin_2*%
%TO.N,/PC13*%
X77530000Y-1330000D03*
%TO.P,J1,3,Pin_3*%
%TO.N,GND*%
X74990000Y-1330000D03*
%TO.P,J1,4,Pin_4*%
%TO.N,/VDD_5V*%
X72450000Y-1330000D03*
%TO.P,J1,5,Pin_5*%
%TO.N,GND*%
X69910000Y-1330000D03*
%TO.P,J1,6,Pin_6*%
%TO.N,/VDD_3.3V*%
X67370000Y-1330000D03*
%TO.P,J1,7,Pin_7*%
%TO.N,/NRST*%
X64830000Y-1330000D03*
%TO.P,J1,8,Pin_8*%
%TO.N,/PC0*%
X62290000Y-1330000D03*
%TO.P,J1,9,Pin_9*%
%TO.N,/PC1*%
X59750000Y-1330000D03*
%TO.P,J1,10,Pin_10*%
%TO.N,/PC2*%
X57210000Y-1330000D03*
%TO.P,J1,11,Pin_11*%
%TO.N,/PC3*%
X54670000Y-1330000D03*
%TO.P,J1,12,Pin_12*%
%TO.N,/VDD_3.3V*%
X52130000Y-1330000D03*
%TO.P,J1,13,Pin_13*%
%TO.N,GND*%
X49590000Y-1330000D03*
%TO.P,J1,14,Pin_14*%
%TO.N,/PA0*%
X47050000Y-1330000D03*
%TO.P,J1,15,Pin_15*%
%TO.N,/PA1*%
X44510000Y-1330000D03*
%TO.P,J1,16,Pin_16*%
%TO.N,/PA2*%
X41970000Y-1330000D03*
%TO.P,J1,17,Pin_17*%
%TO.N,/PA3*%
X39430000Y-1330000D03*
%TO.P,J1,18,Pin_18*%
%TO.N,/PF4*%
X36890000Y-1330000D03*
%TO.P,J1,19,Pin_19*%
%TO.N,/PF5*%
X34350000Y-1330000D03*
%TO.P,J1,20,Pin_20*%
%TO.N,/PA4*%
X31810000Y-1330000D03*
%TO.P,J1,21,Pin_21*%
%TO.N,/PA5*%
X29270000Y-1330000D03*
%TO.P,J1,22,Pin_22*%
%TO.N,/PA6*%
X26730000Y-1330000D03*
%TO.P,J1,23,Pin_23*%
%TO.N,/PA7*%
X24190000Y-1330000D03*
%TO.P,J1,24,Pin_24*%
%TO.N,/PC4*%
X21650000Y-1330000D03*
%TO.P,J1,25,Pin_25*%
%TO.N,/PC5*%
X19110000Y-1330000D03*
%TO.P,J1,26,Pin_26*%
%TO.N,/PB0*%
X16570000Y-1330000D03*
%TO.P,J1,27,Pin_27*%
%TO.N,/PB1*%
X14030000Y-1330000D03*
%TO.P,J1,28,Pin_28*%
%TO.N,/PB2*%
X11490000Y-1330000D03*
%TO.P,J1,29,Pin_29*%
%TO.N,/PB10*%
X8950000Y-1330000D03*
%TO.P,J1,30,Pin_30*%
%TO.N,/PB11*%
X6410000Y-1330000D03*
%TO.P,J1,31,Pin_31*%
%TO.N,/VDD_3.3V*%
X3870000Y-1330000D03*
%TO.P,J1,32,Pin_32*%
%TO.N,GND*%
X1330000Y-1330000D03*
%TD*%
D15*
%TO.N,GND*%
X41260000Y-9790000D03*
X39250000Y-8330000D03*
X46340000Y-10999500D03*
X46340000Y-9800000D03*
D16*
X29206000Y-6457500D03*
D15*
X71750000Y-9220000D03*
D17*
X16197910Y-6666850D03*
D15*
X36590000Y-7400000D03*
X6720000Y-5260000D03*
X62652500Y-6867500D03*
X29580000Y-8640000D03*
X29470000Y-11260000D03*
X17820000Y-10030000D03*
X6710000Y-7600000D03*
X44900000Y-6520500D03*
X69290000Y-10060000D03*
X6710000Y-10100000D03*
X41260000Y-11230000D03*
D16*
X69930000Y-5110000D03*
D15*
X35980000Y-11280000D03*
X61550000Y-10030000D03*
X46350500Y-5070000D03*
X10820000Y-7260000D03*
D18*
%TO.N,/VDD_5V*%
X72870000Y-12680000D03*
X72880000Y-7890000D03*
D15*
%TO.N,/BOOT0*%
X41652000Y-12194000D03*
X24634000Y-12194000D03*
D16*
%TO.N,/VDD_3.3V*%
X60830000Y-5150000D03*
D17*
X47010000Y-11900000D03*
X24880000Y-6400000D03*
X23830000Y-10780000D03*
D16*
X60830000Y-11410000D03*
D15*
%TO.N,/VBAT*%
X45680000Y-8950000D03*
%TO.N,/PC13*%
X41980000Y-9220000D03*
%TO.N,/PA14{slash}SWCLK*%
X38485000Y-15805000D03*
X11530000Y-12210000D03*
%TO.N,/PA13{slash}SWDIO*%
X11520000Y-8150000D03*
X36862250Y-15252250D03*
%TO.N,/USB_Data-*%
X75330000Y-10040000D03*
X75330000Y-11040000D03*
%TD*%
D19*
%TO.N,GND*%
X46340000Y-10999500D02*
X46340000Y-9800000D01*
X71750000Y-9220000D02*
X70130000Y-9220000D01*
D20*
X75140000Y-5965000D02*
X70785000Y-5965000D01*
D19*
X41270000Y-11230000D02*
X44900000Y-7600000D01*
X70130000Y-9220000D02*
X69290000Y-10060000D01*
D21*
X49590000Y-1230000D02*
X51120000Y-2760000D01*
D19*
X69290000Y-13790000D02*
X70115000Y-14615000D01*
X41260000Y-11230000D02*
X41270000Y-11230000D01*
D21*
X68380000Y-2760000D02*
X69910000Y-1230000D01*
D19*
X44900000Y-7600000D02*
X44900000Y-6520500D01*
X70115000Y-14615000D02*
X75140000Y-14615000D01*
D20*
X70785000Y-5965000D02*
X69930000Y-5110000D01*
D19*
X41260000Y-11230000D02*
X41260000Y-9790000D01*
X61550000Y-10030000D02*
X61550000Y-7970000D01*
X46350500Y-5070000D02*
X44900000Y-6520500D01*
X69260000Y-10030000D02*
X61550000Y-10030000D01*
X69290000Y-10060000D02*
X69260000Y-10030000D01*
D21*
X51120000Y-2760000D02*
X68380000Y-2760000D01*
D19*
X69290000Y-10060000D02*
X69290000Y-13790000D01*
X61550000Y-7970000D02*
X62652500Y-6867500D01*
D20*
%TO.N,/VDD_5V*%
X72880000Y-12670000D02*
X72870000Y-12680000D01*
X72880000Y-7890000D02*
X72880000Y-12670000D01*
D21*
%TO.N,/BOOT0*%
X24634000Y-12194000D02*
X41652000Y-12194000D01*
D19*
%TO.N,/VDD_3.3V*%
X60830000Y-11410000D02*
X60830000Y-11420000D01*
X53390000Y-13210000D02*
X24260000Y-13210000D01*
X47010000Y-11900000D02*
X47010000Y-13210000D01*
X24260000Y-13210000D02*
X23450000Y-12400000D01*
D21*
X66140000Y-2460000D02*
X67370000Y-1230000D01*
D19*
X60830000Y-11420000D02*
X66960000Y-17550000D01*
X23450000Y-12400000D02*
X23450000Y-11160000D01*
X66960000Y-17550000D02*
X78540000Y-17550000D01*
X60830000Y-11410000D02*
X59030000Y-13210000D01*
X23450000Y-11160000D02*
X23830000Y-10780000D01*
X24880000Y-9730000D02*
X23830000Y-10780000D01*
X78540000Y-17550000D02*
X80070000Y-19080000D01*
X60830000Y-11410000D02*
X60830000Y-5150000D01*
X59030000Y-13210000D02*
X53390000Y-13210000D01*
D21*
X52130000Y-1230000D02*
X53360000Y-2460000D01*
X53360000Y-2460000D02*
X66140000Y-2460000D01*
D19*
X24880000Y-6400000D02*
X24880000Y-9730000D01*
X47010000Y-13210000D02*
X53390000Y-13210000D01*
D21*
%TO.N,/VBAT*%
X77940000Y-3360000D02*
X80070000Y-1230000D01*
X45680000Y-8930000D02*
X51250000Y-3360000D01*
X51250000Y-3360000D02*
X77940000Y-3360000D01*
X45680000Y-8950000D02*
X45680000Y-8930000D01*
%TO.N,/PC13*%
X47540000Y-3060000D02*
X75700000Y-3060000D01*
X41980000Y-8620000D02*
X47540000Y-3060000D01*
X75700000Y-3060000D02*
X77530000Y-1230000D01*
X41980000Y-9220000D02*
X41980000Y-8620000D01*
%TO.N,/PA14{slash}SWCLK*%
X38485000Y-15805000D02*
X36720000Y-14040000D01*
X11994264Y-14040000D02*
X11530000Y-13575736D01*
X36720000Y-14040000D02*
X11994264Y-14040000D01*
X11530000Y-13575736D02*
X11530000Y-12210000D01*
%TO.N,/PA13{slash}SWDIO*%
X11520000Y-8150000D02*
X10500000Y-9170000D01*
X36250000Y-14640000D02*
X36862250Y-15252250D01*
X11715736Y-14640000D02*
X36250000Y-14640000D01*
X10500000Y-13424264D02*
X11715736Y-14640000D01*
X10500000Y-9170000D02*
X10500000Y-13424264D01*
%TO.N,/USB_Data-*%
X75330000Y-11040000D02*
X75330000Y-10040000D01*
%TD*%
%TA.AperFunction,Conductor*%
%TO.N,GND*%
G36*
X1526121Y-1096002D02*
G01*
X1572614Y-1149658D01*
X1584000Y-1202000D01*
X1584000Y-2648517D01*
X1588064Y-2662359D01*
X1601478Y-2664393D01*
X1608184Y-2663534D01*
X1618262Y-2661392D01*
X1822255Y-2600191D01*
X1831842Y-2596433D01*
X2023095Y-2502739D01*
X2031945Y-2497464D01*
X2205328Y-2373792D01*
X2213200Y-2367139D01*
X2364052Y-2216812D01*
X2370730Y-2208965D01*
X2498022Y-2031819D01*
X2499279Y-2032722D01*
X2546373Y-1989362D01*
X2616311Y-1977145D01*
X2681751Y-2004678D01*
X2709579Y-2036511D01*
X2769987Y-2135088D01*
X2916250Y-2303938D01*
X3088126Y-2446632D01*
X3281000Y-2559338D01*
X3489692Y-2639030D01*
X3494760Y-2640061D01*
X3494763Y-2640062D01*
X3589862Y-2659410D01*
X3708597Y-2683567D01*
X3713772Y-2683757D01*
X3713774Y-2683757D01*
X3926673Y-2691564D01*
X3926677Y-2691564D01*
X3931837Y-2691753D01*
X3936957Y-2691097D01*
X3936959Y-2691097D01*
X4148288Y-2664025D01*
X4148289Y-2664025D01*
X4153416Y-2663368D01*
X4158366Y-2661883D01*
X4362429Y-2600661D01*
X4362434Y-2600659D01*
X4367384Y-2599174D01*
X4567994Y-2500896D01*
X4749860Y-2371173D01*
X4908096Y-2213489D01*
X5038453Y-2032077D01*
X5039776Y-2033028D01*
X5086645Y-1989857D01*
X5156580Y-1977625D01*
X5222026Y-2005144D01*
X5249875Y-2036994D01*
X5309987Y-2135088D01*
X5456250Y-2303938D01*
X5628126Y-2446632D01*
X5821000Y-2559338D01*
X6029692Y-2639030D01*
X6034760Y-2640061D01*
X6034763Y-2640062D01*
X6129862Y-2659410D01*
X6248597Y-2683567D01*
X6253772Y-2683757D01*
X6253774Y-2683757D01*
X6466673Y-2691564D01*
X6466677Y-2691564D01*
X6471837Y-2691753D01*
X6476957Y-2691097D01*
X6476959Y-2691097D01*
X6688288Y-2664025D01*
X6688289Y-2664025D01*
X6693416Y-2663368D01*
X6698366Y-2661883D01*
X6902429Y-2600661D01*
X6902434Y-2600659D01*
X6907384Y-2599174D01*
X7107994Y-2500896D01*
X7289860Y-2371173D01*
X7448096Y-2213489D01*
X7578453Y-2032077D01*
X7579776Y-2033028D01*
X7626645Y-1989857D01*
X7696580Y-1977625D01*
X7762026Y-2005144D01*
X7789875Y-2036994D01*
X7849987Y-2135088D01*
X7996250Y-2303938D01*
X8168126Y-2446632D01*
X8361000Y-2559338D01*
X8569692Y-2639030D01*
X8574760Y-2640061D01*
X8574763Y-2640062D01*
X8669862Y-2659410D01*
X8788597Y-2683567D01*
X8793772Y-2683757D01*
X8793774Y-2683757D01*
X9006673Y-2691564D01*
X9006677Y-2691564D01*
X9011837Y-2691753D01*
X9016957Y-2691097D01*
X9016959Y-2691097D01*
X9228288Y-2664025D01*
X9228289Y-2664025D01*
X9233416Y-2663368D01*
X9238366Y-2661883D01*
X9442429Y-2600661D01*
X9442434Y-2600659D01*
X9447384Y-2599174D01*
X9647994Y-2500896D01*
X9829860Y-2371173D01*
X9988096Y-2213489D01*
X10118453Y-2032077D01*
X10119776Y-2033028D01*
X10166645Y-1989857D01*
X10236580Y-1977625D01*
X10302026Y-2005144D01*
X10329875Y-2036994D01*
X10389987Y-2135088D01*
X10536250Y-2303938D01*
X10708126Y-2446632D01*
X10901000Y-2559338D01*
X11109692Y-2639030D01*
X11114760Y-2640061D01*
X11114763Y-2640062D01*
X11209862Y-2659410D01*
X11328597Y-2683567D01*
X11333772Y-2683757D01*
X11333774Y-2683757D01*
X11546673Y-2691564D01*
X11546677Y-2691564D01*
X11551837Y-2691753D01*
X11556957Y-2691097D01*
X11556959Y-2691097D01*
X11768288Y-2664025D01*
X11768289Y-2664025D01*
X11773416Y-2663368D01*
X11778366Y-2661883D01*
X11982429Y-2600661D01*
X11982434Y-2600659D01*
X11987384Y-2599174D01*
X12187994Y-2500896D01*
X12369860Y-2371173D01*
X12528096Y-2213489D01*
X12658453Y-2032077D01*
X12659776Y-2033028D01*
X12706645Y-1989857D01*
X12776580Y-1977625D01*
X12842026Y-2005144D01*
X12869875Y-2036994D01*
X12929987Y-2135088D01*
X13076250Y-2303938D01*
X13248126Y-2446632D01*
X13441000Y-2559338D01*
X13649692Y-2639030D01*
X13654760Y-2640061D01*
X13654763Y-2640062D01*
X13749862Y-2659410D01*
X13868597Y-2683567D01*
X13873772Y-2683757D01*
X13873774Y-2683757D01*
X14086673Y-2691564D01*
X14086677Y-2691564D01*
X14091837Y-2691753D01*
X14096957Y-2691097D01*
X14096959Y-2691097D01*
X14308288Y-2664025D01*
X14308289Y-2664025D01*
X14313416Y-2663368D01*
X14318366Y-2661883D01*
X14522429Y-2600661D01*
X14522434Y-2600659D01*
X14527384Y-2599174D01*
X14727994Y-2500896D01*
X14909860Y-2371173D01*
X15068096Y-2213489D01*
X15198453Y-2032077D01*
X15199776Y-2033028D01*
X15246645Y-1989857D01*
X15316580Y-1977625D01*
X15382026Y-2005144D01*
X15409875Y-2036994D01*
X15469987Y-2135088D01*
X15616250Y-2303938D01*
X15788126Y-2446632D01*
X15981000Y-2559338D01*
X16189692Y-2639030D01*
X16194760Y-2640061D01*
X16194763Y-2640062D01*
X16289862Y-2659410D01*
X16408597Y-2683567D01*
X16413772Y-2683757D01*
X16413774Y-2683757D01*
X16626673Y-2691564D01*
X16626677Y-2691564D01*
X16631837Y-2691753D01*
X16636957Y-2691097D01*
X16636959Y-2691097D01*
X16848288Y-2664025D01*
X16848289Y-2664025D01*
X16853416Y-2663368D01*
X16858366Y-2661883D01*
X17062429Y-2600661D01*
X17062434Y-2600659D01*
X17067384Y-2599174D01*
X17267994Y-2500896D01*
X17449860Y-2371173D01*
X17608096Y-2213489D01*
X17738453Y-2032077D01*
X17739776Y-2033028D01*
X17786645Y-1989857D01*
X17856580Y-1977625D01*
X17922026Y-2005144D01*
X17949875Y-2036994D01*
X18009987Y-2135088D01*
X18156250Y-2303938D01*
X18328126Y-2446632D01*
X18521000Y-2559338D01*
X18729692Y-2639030D01*
X18734760Y-2640061D01*
X18734763Y-2640062D01*
X18829862Y-2659410D01*
X18948597Y-2683567D01*
X18953772Y-2683757D01*
X18953774Y-2683757D01*
X19166673Y-2691564D01*
X19166677Y-2691564D01*
X19171837Y-2691753D01*
X19176957Y-2691097D01*
X19176959Y-2691097D01*
X19388288Y-2664025D01*
X19388289Y-2664025D01*
X19393416Y-2663368D01*
X19398366Y-2661883D01*
X19602429Y-2600661D01*
X19602434Y-2600659D01*
X19607384Y-2599174D01*
X19807994Y-2500896D01*
X19989860Y-2371173D01*
X20148096Y-2213489D01*
X20278453Y-2032077D01*
X20279776Y-2033028D01*
X20326645Y-1989857D01*
X20396580Y-1977625D01*
X20462026Y-2005144D01*
X20489875Y-2036994D01*
X20549987Y-2135088D01*
X20696250Y-2303938D01*
X20868126Y-2446632D01*
X21061000Y-2559338D01*
X21269692Y-2639030D01*
X21274760Y-2640061D01*
X21274763Y-2640062D01*
X21369862Y-2659410D01*
X21488597Y-2683567D01*
X21493772Y-2683757D01*
X21493774Y-2683757D01*
X21706673Y-2691564D01*
X21706677Y-2691564D01*
X21711837Y-2691753D01*
X21716957Y-2691097D01*
X21716959Y-2691097D01*
X21928288Y-2664025D01*
X21928289Y-2664025D01*
X21933416Y-2663368D01*
X21938366Y-2661883D01*
X22142429Y-2600661D01*
X22142434Y-2600659D01*
X22147384Y-2599174D01*
X22347994Y-2500896D01*
X22529860Y-2371173D01*
X22688096Y-2213489D01*
X22818453Y-2032077D01*
X22819776Y-2033028D01*
X22866645Y-1989857D01*
X22936580Y-1977625D01*
X23002026Y-2005144D01*
X23029875Y-2036994D01*
X23089987Y-2135088D01*
X23236250Y-2303938D01*
X23408126Y-2446632D01*
X23601000Y-2559338D01*
X23809692Y-2639030D01*
X23814760Y-2640061D01*
X23814763Y-2640062D01*
X23909862Y-2659410D01*
X24028597Y-2683567D01*
X24033772Y-2683757D01*
X24033774Y-2683757D01*
X24246673Y-2691564D01*
X24246677Y-2691564D01*
X24251837Y-2691753D01*
X24256957Y-2691097D01*
X24256959Y-2691097D01*
X24468288Y-2664025D01*
X24468289Y-2664025D01*
X24473416Y-2663368D01*
X24478366Y-2661883D01*
X24682429Y-2600661D01*
X24682434Y-2600659D01*
X24687384Y-2599174D01*
X24887994Y-2500896D01*
X25069860Y-2371173D01*
X25228096Y-2213489D01*
X25358453Y-2032077D01*
X25359776Y-2033028D01*
X25406645Y-1989857D01*
X25476580Y-1977625D01*
X25542026Y-2005144D01*
X25569875Y-2036994D01*
X25629987Y-2135088D01*
X25776250Y-2303938D01*
X25948126Y-2446632D01*
X26141000Y-2559338D01*
X26349692Y-2639030D01*
X26354760Y-2640061D01*
X26354763Y-2640062D01*
X26449862Y-2659410D01*
X26568597Y-2683567D01*
X26573772Y-2683757D01*
X26573774Y-2683757D01*
X26786673Y-2691564D01*
X26786677Y-2691564D01*
X26791837Y-2691753D01*
X26796957Y-2691097D01*
X26796959Y-2691097D01*
X27008288Y-2664025D01*
X27008289Y-2664025D01*
X27013416Y-2663368D01*
X27018366Y-2661883D01*
X27222429Y-2600661D01*
X27222434Y-2600659D01*
X27227384Y-2599174D01*
X27427994Y-2500896D01*
X27609860Y-2371173D01*
X27768096Y-2213489D01*
X27898453Y-2032077D01*
X27899776Y-2033028D01*
X27946645Y-1989857D01*
X28016580Y-1977625D01*
X28082026Y-2005144D01*
X28109875Y-2036994D01*
X28169987Y-2135088D01*
X28316250Y-2303938D01*
X28488126Y-2446632D01*
X28681000Y-2559338D01*
X28889692Y-2639030D01*
X28894760Y-2640061D01*
X28894763Y-2640062D01*
X28989862Y-2659410D01*
X29108597Y-2683567D01*
X29113772Y-2683757D01*
X29113774Y-2683757D01*
X29326673Y-2691564D01*
X29326677Y-2691564D01*
X29331837Y-2691753D01*
X29336957Y-2691097D01*
X29336959Y-2691097D01*
X29548288Y-2664025D01*
X29548289Y-2664025D01*
X29553416Y-2663368D01*
X29558366Y-2661883D01*
X29762429Y-2600661D01*
X29762434Y-2600659D01*
X29767384Y-2599174D01*
X29967994Y-2500896D01*
X30149860Y-2371173D01*
X30308096Y-2213489D01*
X30438453Y-2032077D01*
X30439776Y-2033028D01*
X30486645Y-1989857D01*
X30556580Y-1977625D01*
X30622026Y-2005144D01*
X30649875Y-2036994D01*
X30709987Y-2135088D01*
X30856250Y-2303938D01*
X31028126Y-2446632D01*
X31221000Y-2559338D01*
X31429692Y-2639030D01*
X31434760Y-2640061D01*
X31434763Y-2640062D01*
X31529862Y-2659410D01*
X31648597Y-2683567D01*
X31653772Y-2683757D01*
X31653774Y-2683757D01*
X31866673Y-2691564D01*
X31866677Y-2691564D01*
X31871837Y-2691753D01*
X31876957Y-2691097D01*
X31876959Y-2691097D01*
X32088288Y-2664025D01*
X32088289Y-2664025D01*
X32093416Y-2663368D01*
X32098366Y-2661883D01*
X32302429Y-2600661D01*
X32302434Y-2600659D01*
X32307384Y-2599174D01*
X32507994Y-2500896D01*
X32689860Y-2371173D01*
X32848096Y-2213489D01*
X32978453Y-2032077D01*
X32979776Y-2033028D01*
X33026645Y-1989857D01*
X33096580Y-1977625D01*
X33162026Y-2005144D01*
X33189875Y-2036994D01*
X33249987Y-2135088D01*
X33396250Y-2303938D01*
X33568126Y-2446632D01*
X33761000Y-2559338D01*
X33969692Y-2639030D01*
X33974760Y-2640061D01*
X33974763Y-2640062D01*
X34069862Y-2659410D01*
X34188597Y-2683567D01*
X34193772Y-2683757D01*
X34193774Y-2683757D01*
X34406673Y-2691564D01*
X34406677Y-2691564D01*
X34411837Y-2691753D01*
X34416957Y-2691097D01*
X34416959Y-2691097D01*
X34628288Y-2664025D01*
X34628289Y-2664025D01*
X34633416Y-2663368D01*
X34638366Y-2661883D01*
X34842429Y-2600661D01*
X34842434Y-2600659D01*
X34847384Y-2599174D01*
X35047994Y-2500896D01*
X35229860Y-2371173D01*
X35388096Y-2213489D01*
X35518453Y-2032077D01*
X35519776Y-2033028D01*
X35566645Y-1989857D01*
X35636580Y-1977625D01*
X35702026Y-2005144D01*
X35729875Y-2036994D01*
X35789987Y-2135088D01*
X35936250Y-2303938D01*
X36108126Y-2446632D01*
X36301000Y-2559338D01*
X36509692Y-2639030D01*
X36514760Y-2640061D01*
X36514763Y-2640062D01*
X36609862Y-2659410D01*
X36728597Y-2683567D01*
X36733772Y-2683757D01*
X36733774Y-2683757D01*
X36946673Y-2691564D01*
X36946677Y-2691564D01*
X36951837Y-2691753D01*
X36956957Y-2691097D01*
X36956959Y-2691097D01*
X37168288Y-2664025D01*
X37168289Y-2664025D01*
X37173416Y-2663368D01*
X37178366Y-2661883D01*
X37382429Y-2600661D01*
X37382434Y-2600659D01*
X37387384Y-2599174D01*
X37587994Y-2500896D01*
X37769860Y-2371173D01*
X37928096Y-2213489D01*
X38058453Y-2032077D01*
X38059776Y-2033028D01*
X38106645Y-1989857D01*
X38176580Y-1977625D01*
X38242026Y-2005144D01*
X38269875Y-2036994D01*
X38329987Y-2135088D01*
X38476250Y-2303938D01*
X38648126Y-2446632D01*
X38841000Y-2559338D01*
X39049692Y-2639030D01*
X39054760Y-2640061D01*
X39054763Y-2640062D01*
X39149862Y-2659410D01*
X39268597Y-2683567D01*
X39273772Y-2683757D01*
X39273774Y-2683757D01*
X39486673Y-2691564D01*
X39486677Y-2691564D01*
X39491837Y-2691753D01*
X39496957Y-2691097D01*
X39496959Y-2691097D01*
X39708288Y-2664025D01*
X39708289Y-2664025D01*
X39713416Y-2663368D01*
X39718366Y-2661883D01*
X39922429Y-2600661D01*
X39922434Y-2600659D01*
X39927384Y-2599174D01*
X40127994Y-2500896D01*
X40309860Y-2371173D01*
X40468096Y-2213489D01*
X40598453Y-2032077D01*
X40599776Y-2033028D01*
X40646645Y-1989857D01*
X40716580Y-1977625D01*
X40782026Y-2005144D01*
X40809875Y-2036994D01*
X40869987Y-2135088D01*
X41016250Y-2303938D01*
X41188126Y-2446632D01*
X41381000Y-2559338D01*
X41589692Y-2639030D01*
X41594760Y-2640061D01*
X41594763Y-2640062D01*
X41689862Y-2659410D01*
X41808597Y-2683567D01*
X41813772Y-2683757D01*
X41813774Y-2683757D01*
X42026673Y-2691564D01*
X42026677Y-2691564D01*
X42031837Y-2691753D01*
X42036957Y-2691097D01*
X42036959Y-2691097D01*
X42248288Y-2664025D01*
X42248289Y-2664025D01*
X42253416Y-2663368D01*
X42258366Y-2661883D01*
X42462429Y-2600661D01*
X42462434Y-2600659D01*
X42467384Y-2599174D01*
X42667994Y-2500896D01*
X42849860Y-2371173D01*
X43008096Y-2213489D01*
X43138453Y-2032077D01*
X43139776Y-2033028D01*
X43186645Y-1989857D01*
X43256580Y-1977625D01*
X43322026Y-2005144D01*
X43349875Y-2036994D01*
X43409987Y-2135088D01*
X43556250Y-2303938D01*
X43728126Y-2446632D01*
X43921000Y-2559338D01*
X44129692Y-2639030D01*
X44134760Y-2640061D01*
X44134763Y-2640062D01*
X44229862Y-2659410D01*
X44348597Y-2683567D01*
X44353772Y-2683757D01*
X44353774Y-2683757D01*
X44566673Y-2691564D01*
X44566677Y-2691564D01*
X44571837Y-2691753D01*
X44576957Y-2691097D01*
X44576959Y-2691097D01*
X44788288Y-2664025D01*
X44788289Y-2664025D01*
X44793416Y-2663368D01*
X44798366Y-2661883D01*
X45002429Y-2600661D01*
X45002434Y-2600659D01*
X45007384Y-2599174D01*
X45207994Y-2500896D01*
X45389860Y-2371173D01*
X45548096Y-2213489D01*
X45678453Y-2032077D01*
X45679776Y-2033028D01*
X45726645Y-1989857D01*
X45796580Y-1977625D01*
X45862026Y-2005144D01*
X45889875Y-2036994D01*
X45949987Y-2135088D01*
X46096250Y-2303938D01*
X46268126Y-2446632D01*
X46461000Y-2559338D01*
X46669692Y-2639030D01*
X46716322Y-2648517D01*
X46797814Y-2665097D01*
X46860580Y-2698278D01*
X46895442Y-2760126D01*
X46891333Y-2831003D01*
X46861789Y-2877662D01*
X41583766Y-8155685D01*
X41571375Y-8166552D01*
X41546013Y-8186013D01*
X41521526Y-8217925D01*
X41521523Y-8217928D01*
X41521517Y-8217936D01*
X41456247Y-8302997D01*
X41448476Y-8313124D01*
X41387162Y-8461149D01*
X41385223Y-8475879D01*
X41371500Y-8580115D01*
X41371500Y-8580120D01*
X41366250Y-8620000D01*
X41370205Y-8650038D01*
X41370422Y-8651690D01*
X41371500Y-8668136D01*
X41371500Y-8726846D01*
X41351411Y-8795101D01*
X41296304Y-8880610D01*
X41277473Y-8932349D01*
X41251570Y-9003517D01*
X41238103Y-9040516D01*
X41216775Y-9209343D01*
X41233381Y-9378699D01*
X41235605Y-9385384D01*
X41235605Y-9385385D01*
X41252033Y-9434768D01*
X41287094Y-9540167D01*
X41290741Y-9546189D01*
X41290742Y-9546191D01*
X41351977Y-9647301D01*
X41375246Y-9685723D01*
X41493455Y-9808132D01*
X41512913Y-9820865D01*
X41619162Y-9890392D01*
X41635846Y-9901310D01*
X41642450Y-9903766D01*
X41642452Y-9903767D01*
X41673133Y-9915177D01*
X41795341Y-9960626D01*
X41964015Y-9983132D01*
X41971026Y-9982494D01*
X41971030Y-9982494D01*
X42126462Y-9968348D01*
X42133483Y-9967709D01*
X42140185Y-9965531D01*
X42140187Y-9965531D01*
X42288623Y-9917301D01*
X42288626Y-9917300D01*
X42295322Y-9915124D01*
X42441490Y-9827990D01*
X42446584Y-9823139D01*
X42446588Y-9823136D01*
X42522496Y-9750849D01*
X42564721Y-9710639D01*
X42568991Y-9704213D01*
X42640703Y-9596277D01*
X42658891Y-9568902D01*
X42719319Y-9409825D01*
X42743001Y-9241313D01*
X42743299Y-9220000D01*
X42724331Y-9050892D01*
X42711420Y-9013816D01*
X42669047Y-8892138D01*
X42665533Y-8821229D01*
X42698943Y-8761606D01*
X47755144Y-3705405D01*
X47817456Y-3671379D01*
X47844239Y-3668500D01*
X49776761Y-3668500D01*
X49844882Y-3688502D01*
X49891375Y-3742158D01*
X49901479Y-3812432D01*
X49871985Y-3877012D01*
X49865856Y-3883595D01*
X45578098Y-8171353D01*
X45517885Y-8204319D01*
X45516093Y-8204507D01*
X45509419Y-8206779D01*
X45361673Y-8257075D01*
X45361670Y-8257076D01*
X45355003Y-8259346D01*
X45349005Y-8263036D01*
X45349003Y-8263037D01*
X45216065Y-8344821D01*
X45216063Y-8344823D01*
X45210066Y-8348512D01*
X45088486Y-8467573D01*
X45084675Y-8473487D01*
X45084673Y-8473489D01*
X45003875Y-8598862D01*
X44996304Y-8610610D01*
X44938103Y-8770516D01*
X44916775Y-8939343D01*
X44933381Y-9108699D01*
X44987094Y-9270167D01*
X44990741Y-9276189D01*
X44990742Y-9276191D01*
X45067447Y-9402845D01*
X45075246Y-9415723D01*
X45193455Y-9538132D01*
X45215638Y-9552648D01*
X45268803Y-9587438D01*
X45335846Y-9631310D01*
X45342450Y-9633766D01*
X45342452Y-9633767D01*
X45378844Y-9647301D01*
X45495341Y-9690626D01*
X45664015Y-9713132D01*
X45671026Y-9712494D01*
X45671030Y-9712494D01*
X45826462Y-9698348D01*
X45833483Y-9697709D01*
X45840185Y-9695531D01*
X45840187Y-9695531D01*
X45988623Y-9647301D01*
X45988626Y-9647300D01*
X45995322Y-9645124D01*
X46141490Y-9557990D01*
X46146584Y-9553139D01*
X46146588Y-9553136D01*
X46254755Y-9450129D01*
X46264721Y-9440639D01*
X46358891Y-9298902D01*
X46419319Y-9139825D01*
X46423694Y-9108699D01*
X46427939Y-9078490D01*
X46457227Y-9013816D01*
X46463618Y-9006931D01*
X51465144Y-4005405D01*
X51527456Y-3971379D01*
X51554239Y-3968500D01*
X60575040Y-3968500D01*
X60643161Y-3988502D01*
X60689654Y-4042158D01*
X60699758Y-4112432D01*
X60670264Y-4177012D01*
X60610615Y-4215374D01*
X60469202Y-4256994D01*
X60302621Y-4344080D01*
X60156128Y-4461864D01*
X60152170Y-4466582D01*
X60152167Y-4466584D01*
X60064797Y-4570708D01*
X60035302Y-4605859D01*
X60032338Y-4611251D01*
X60032335Y-4611255D01*
X60026176Y-4622459D01*
X59944746Y-4770580D01*
X59887909Y-4949752D01*
X59866956Y-5136552D01*
X59867472Y-5142696D01*
X59878479Y-5273772D01*
X59882685Y-5323865D01*
X59934497Y-5504555D01*
X59937312Y-5510032D01*
X59937313Y-5510035D01*
X60009110Y-5649737D01*
X60020418Y-5671740D01*
X60024241Y-5676564D01*
X60024244Y-5676568D01*
X60093073Y-5763407D01*
X60137109Y-5818966D01*
X60137177Y-5819052D01*
X60137161Y-5819065D01*
X60169069Y-5880005D01*
X60171500Y-5904636D01*
X60171500Y-10657684D01*
X60151498Y-10725805D01*
X60142023Y-10738674D01*
X60035302Y-10865859D01*
X60032338Y-10871251D01*
X60032335Y-10871255D01*
X59996504Y-10936432D01*
X59944746Y-11030580D01*
X59942885Y-11036447D01*
X59942884Y-11036449D01*
X59930080Y-11076812D01*
X59887909Y-11209752D01*
X59881891Y-11263407D01*
X59870362Y-11366191D01*
X59866956Y-11396552D01*
X59865856Y-11396429D01*
X59846691Y-11458489D01*
X59830747Y-11477994D01*
X59310652Y-11998088D01*
X58794145Y-12514595D01*
X58731833Y-12548621D01*
X58705050Y-12551500D01*
X47843405Y-12551500D01*
X47775284Y-12531498D01*
X47728791Y-12477842D01*
X47718687Y-12407568D01*
X47734286Y-12362500D01*
X47735070Y-12361143D01*
X47798599Y-12251107D01*
X47844213Y-12110719D01*
X47852325Y-12085754D01*
X47852325Y-12085753D01*
X47854365Y-12079475D01*
X47862596Y-12001169D01*
X47872539Y-11906565D01*
X47873229Y-11900000D01*
X47864103Y-11813173D01*
X47855055Y-11727089D01*
X47855055Y-11727088D01*
X47854365Y-11720525D01*
X47798599Y-11548893D01*
X47790866Y-11535498D01*
X47749453Y-11463770D01*
X47708367Y-11392607D01*
X47587613Y-11258496D01*
X47567140Y-11243621D01*
X47446957Y-11156303D01*
X47446956Y-11156302D01*
X47441615Y-11152422D01*
X47435587Y-11149738D01*
X47435585Y-11149737D01*
X47282783Y-11081705D01*
X47282781Y-11081705D01*
X47276752Y-11079020D01*
X47174877Y-11057366D01*
X47106689Y-11042872D01*
X47106685Y-11042872D01*
X47100232Y-11041500D01*
X46919768Y-11041500D01*
X46913315Y-11042872D01*
X46913311Y-11042872D01*
X46845123Y-11057366D01*
X46743248Y-11079020D01*
X46737219Y-11081704D01*
X46737217Y-11081705D01*
X46584416Y-11149737D01*
X46584414Y-11149738D01*
X46578386Y-11152422D01*
X46573045Y-11156302D01*
X46573044Y-11156303D01*
X46437731Y-11254613D01*
X46437729Y-11254615D01*
X46432387Y-11258496D01*
X46311633Y-11392607D01*
X46270547Y-11463770D01*
X46229135Y-11535498D01*
X46221401Y-11548893D01*
X46165635Y-11720525D01*
X46164945Y-11727088D01*
X46164945Y-11727089D01*
X46155897Y-11813173D01*
X46146771Y-11900000D01*
X46147461Y-11906565D01*
X46157405Y-12001169D01*
X46165635Y-12079475D01*
X46167675Y-12085753D01*
X46167675Y-12085754D01*
X46175787Y-12110719D01*
X46221401Y-12251107D01*
X46284931Y-12361143D01*
X46285714Y-12362500D01*
X46302452Y-12431495D01*
X46279232Y-12498587D01*
X46223425Y-12542474D01*
X46176595Y-12551500D01*
X42509895Y-12551500D01*
X42441774Y-12531498D01*
X42395281Y-12477842D01*
X42385177Y-12407568D01*
X42387853Y-12394166D01*
X42388817Y-12390411D01*
X42391319Y-12383825D01*
X42398912Y-12329800D01*
X42402611Y-12303475D01*
X42415001Y-12215313D01*
X42415299Y-12194000D01*
X42396331Y-12024892D01*
X42340368Y-11864189D01*
X42317005Y-11826800D01*
X42301632Y-11802200D01*
X42250192Y-11719879D01*
X42243301Y-11712939D01*
X42175573Y-11644737D01*
X42130286Y-11599132D01*
X42108806Y-11585500D01*
X42030015Y-11535498D01*
X41986608Y-11507951D01*
X41826300Y-11450868D01*
X41657329Y-11430720D01*
X41650326Y-11431456D01*
X41650325Y-11431456D01*
X41495101Y-11447770D01*
X41495097Y-11447771D01*
X41488093Y-11448507D01*
X41481422Y-11450778D01*
X41333673Y-11501075D01*
X41333670Y-11501076D01*
X41327003Y-11503346D01*
X41321005Y-11507036D01*
X41321003Y-11507037D01*
X41223831Y-11566818D01*
X41157809Y-11585500D01*
X25127411Y-11585500D01*
X25059897Y-11565885D01*
X24974562Y-11511729D01*
X24974558Y-11511727D01*
X24968608Y-11507951D01*
X24808300Y-11450868D01*
X24647840Y-11431735D01*
X24582566Y-11403808D01*
X24542753Y-11345025D01*
X24541041Y-11274049D01*
X24553639Y-11243621D01*
X24615295Y-11136830D01*
X24615296Y-11136829D01*
X24618599Y-11131107D01*
X24654554Y-11020448D01*
X24672325Y-10965754D01*
X24672325Y-10965753D01*
X24674365Y-10959475D01*
X24675778Y-10946037D01*
X24680575Y-10900394D01*
X24707589Y-10834738D01*
X24716789Y-10824471D01*
X25287604Y-10253655D01*
X25296385Y-10245665D01*
X25296387Y-10245664D01*
X25303080Y-10241416D01*
X25351620Y-10189726D01*
X25354374Y-10186885D01*
X25374926Y-10166333D01*
X25377638Y-10162837D01*
X25385349Y-10153808D01*
X25411544Y-10125913D01*
X25416972Y-10120133D01*
X25427301Y-10101345D01*
X25438158Y-10084816D01*
X25446444Y-10074134D01*
X25451304Y-10067869D01*
X25469659Y-10025455D01*
X25474873Y-10014812D01*
X25493304Y-9981286D01*
X25493304Y-9981285D01*
X25497124Y-9974337D01*
X25499095Y-9966660D01*
X25499097Y-9966655D01*
X25502455Y-9953574D01*
X25508861Y-9934862D01*
X25509160Y-9934171D01*
X25517380Y-9915177D01*
X25524608Y-9869541D01*
X25527012Y-9857930D01*
X25538500Y-9813188D01*
X25538500Y-9791742D01*
X25540051Y-9772032D01*
X25542166Y-9758678D01*
X25543406Y-9750849D01*
X25539059Y-9704860D01*
X25538500Y-9693005D01*
X25538500Y-7000036D01*
X25558502Y-6931915D01*
X25570858Y-6915733D01*
X25578367Y-6907393D01*
X25668599Y-6751107D01*
X25719013Y-6595948D01*
X25722325Y-6585754D01*
X25722325Y-6585753D01*
X25724365Y-6579475D01*
X25730344Y-6522595D01*
X25742539Y-6406565D01*
X25743229Y-6400000D01*
X25724365Y-6220525D01*
X25668599Y-6048893D01*
X25578367Y-5892607D01*
X25512061Y-5818966D01*
X25462035Y-5763407D01*
X25462034Y-5763406D01*
X25457613Y-5758496D01*
X25391677Y-5710590D01*
X25316957Y-5656303D01*
X25316956Y-5656302D01*
X25311615Y-5652422D01*
X25305587Y-5649738D01*
X25305585Y-5649737D01*
X25152783Y-5581705D01*
X25152781Y-5581705D01*
X25146752Y-5579020D01*
X25058492Y-5560260D01*
X24976689Y-5542872D01*
X24976685Y-5542872D01*
X24970232Y-5541500D01*
X24789768Y-5541500D01*
X24783315Y-5542872D01*
X24783311Y-5542872D01*
X24701508Y-5560260D01*
X24613248Y-5579020D01*
X24607219Y-5581704D01*
X24607217Y-5581705D01*
X24454416Y-5649737D01*
X24454414Y-5649738D01*
X24448386Y-5652422D01*
X24443045Y-5656302D01*
X24443044Y-5656303D01*
X24307731Y-5754613D01*
X24307729Y-5754615D01*
X24302387Y-5758496D01*
X24297966Y-5763406D01*
X24297965Y-5763407D01*
X24247940Y-5818966D01*
X24181633Y-5892607D01*
X24091401Y-6048893D01*
X24035635Y-6220525D01*
X24016771Y-6400000D01*
X24017461Y-6406565D01*
X24029657Y-6522595D01*
X24035635Y-6579475D01*
X24037675Y-6585753D01*
X24037675Y-6585754D01*
X24040987Y-6595948D01*
X24091401Y-6751107D01*
X24181633Y-6907393D01*
X24189138Y-6915728D01*
X24219854Y-6979734D01*
X24221500Y-7000036D01*
X24221500Y-9405050D01*
X24201498Y-9473171D01*
X24184595Y-9494146D01*
X23985735Y-9693005D01*
X23788348Y-9890392D01*
X23725450Y-9924543D01*
X23658640Y-9938744D01*
X23563248Y-9959020D01*
X23557219Y-9961704D01*
X23557217Y-9961705D01*
X23404416Y-10029737D01*
X23404414Y-10029738D01*
X23398386Y-10032422D01*
X23393045Y-10036302D01*
X23393044Y-10036303D01*
X23257731Y-10134613D01*
X23257729Y-10134615D01*
X23252387Y-10138496D01*
X23247966Y-10143406D01*
X23247965Y-10143407D01*
X23155892Y-10245665D01*
X23131633Y-10272607D01*
X23041401Y-10428893D01*
X22985635Y-10600525D01*
X22984945Y-10607086D01*
X22984945Y-10607088D01*
X22979205Y-10661699D01*
X22953467Y-10725737D01*
X22952369Y-10727153D01*
X22944648Y-10736195D01*
X22913028Y-10769867D01*
X22909207Y-10776818D01*
X22909206Y-10776819D01*
X22902697Y-10788658D01*
X22891843Y-10805182D01*
X22884018Y-10815271D01*
X22878696Y-10822132D01*
X22875549Y-10829404D01*
X22875548Y-10829406D01*
X22860346Y-10864535D01*
X22855124Y-10875195D01*
X22851131Y-10882459D01*
X22832876Y-10915663D01*
X22827541Y-10936441D01*
X22821142Y-10955131D01*
X22812620Y-10974824D01*
X22805687Y-11018596D01*
X22805394Y-11020448D01*
X22802987Y-11032071D01*
X22798672Y-11048877D01*
X22791500Y-11076812D01*
X22791500Y-11098259D01*
X22789949Y-11117969D01*
X22786594Y-11139152D01*
X22787340Y-11147043D01*
X22790941Y-11185138D01*
X22791500Y-11196996D01*
X22791500Y-12317944D01*
X22790941Y-12329800D01*
X22789212Y-12337537D01*
X22790022Y-12363320D01*
X22791438Y-12408369D01*
X22791500Y-12412327D01*
X22791500Y-12441432D01*
X22792056Y-12445832D01*
X22792988Y-12457664D01*
X22794438Y-12503831D01*
X22796650Y-12511444D01*
X22796650Y-12511445D01*
X22800419Y-12524416D01*
X22804430Y-12543782D01*
X22807118Y-12565064D01*
X22810034Y-12572429D01*
X22810035Y-12572433D01*
X22824126Y-12608021D01*
X22827965Y-12619231D01*
X22840855Y-12663600D01*
X22851775Y-12682065D01*
X22860466Y-12699805D01*
X22868365Y-12719756D01*
X22892537Y-12753026D01*
X22895516Y-12757126D01*
X22902033Y-12767048D01*
X22921507Y-12799977D01*
X22921510Y-12799981D01*
X22925547Y-12806807D01*
X22940711Y-12821971D01*
X22953551Y-12837004D01*
X22966159Y-12854357D01*
X23001752Y-12883802D01*
X23010532Y-12891792D01*
X23335145Y-13216405D01*
X23369171Y-13278717D01*
X23364106Y-13349532D01*
X23321559Y-13406368D01*
X23255039Y-13431179D01*
X23246050Y-13431500D01*
X12298503Y-13431500D01*
X12230382Y-13411498D01*
X12209408Y-13394595D01*
X12175405Y-13360592D01*
X12141379Y-13298280D01*
X12138500Y-13271497D01*
X12138500Y-12702890D01*
X12159552Y-12633163D01*
X12164744Y-12625348D01*
X12208891Y-12558902D01*
X12269319Y-12399825D01*
X12293001Y-12231313D01*
X12293299Y-12210000D01*
X12274331Y-12040892D01*
X12218368Y-11880189D01*
X12128192Y-11735879D01*
X12116165Y-11723767D01*
X12040915Y-11647990D01*
X12008286Y-11615132D01*
X11988812Y-11602773D01*
X11930685Y-11565885D01*
X11864608Y-11523951D01*
X11704300Y-11466868D01*
X11535329Y-11446720D01*
X11528326Y-11447456D01*
X11528325Y-11447456D01*
X11373101Y-11463770D01*
X11373097Y-11463771D01*
X11366093Y-11464507D01*
X11275103Y-11495482D01*
X11204173Y-11498500D01*
X11142869Y-11462690D01*
X11110658Y-11399421D01*
X11108500Y-11376204D01*
X11108500Y-9474239D01*
X11128502Y-9406118D01*
X11145405Y-9385144D01*
X11596621Y-8933928D01*
X11660382Y-8899596D01*
X11666463Y-8898348D01*
X11673483Y-8897709D01*
X11744337Y-8874687D01*
X11828623Y-8847301D01*
X11828626Y-8847300D01*
X11835322Y-8845124D01*
X11981490Y-8757990D01*
X11986584Y-8753139D01*
X11986588Y-8753136D01*
X12065345Y-8678136D01*
X12104721Y-8640639D01*
X12112994Y-8628188D01*
X12194990Y-8504773D01*
X12198891Y-8498902D01*
X12259319Y-8339825D01*
X12283001Y-8171313D01*
X12283299Y-8150000D01*
X12264331Y-7980892D01*
X12208368Y-7820189D01*
X12202383Y-7810610D01*
X12169747Y-7758383D01*
X12118192Y-7675879D01*
X11998286Y-7555132D01*
X11982039Y-7544821D01*
X11878696Y-7479238D01*
X11854608Y-7463951D01*
X11694300Y-7406868D01*
X11525329Y-7386720D01*
X11518326Y-7387456D01*
X11518325Y-7387456D01*
X11363101Y-7403770D01*
X11363097Y-7403771D01*
X11356093Y-7404507D01*
X11349422Y-7406778D01*
X11201673Y-7457075D01*
X11201670Y-7457076D01*
X11195003Y-7459346D01*
X11189005Y-7463036D01*
X11189003Y-7463037D01*
X11056065Y-7544821D01*
X11056063Y-7544823D01*
X11050066Y-7548512D01*
X11007700Y-7590000D01*
X10948205Y-7648263D01*
X10928486Y-7667573D01*
X10924675Y-7673487D01*
X10924673Y-7673489D01*
X10843622Y-7799255D01*
X10836304Y-7810610D01*
X10813213Y-7874053D01*
X10781345Y-7961610D01*
X10778103Y-7970516D01*
X10774713Y-7997348D01*
X10746333Y-8062421D01*
X10738803Y-8070648D01*
X10103766Y-8705685D01*
X10091375Y-8716552D01*
X10066013Y-8736013D01*
X10041526Y-8767925D01*
X10041523Y-8767928D01*
X10021434Y-8794108D01*
X9980618Y-8847301D01*
X9968476Y-8863124D01*
X9915970Y-8989885D01*
X9907162Y-9011150D01*
X9891500Y-9130115D01*
X9891500Y-9130120D01*
X9886250Y-9170000D01*
X9887965Y-9183023D01*
X9890422Y-9201690D01*
X9891500Y-9218136D01*
X9891500Y-11875527D01*
X9871498Y-11943648D01*
X9817842Y-11990141D01*
X9747568Y-12000245D01*
X9682988Y-11970751D01*
X9677541Y-11965408D01*
X9677305Y-11965091D01*
X9675808Y-11963707D01*
X9531943Y-11830719D01*
X9531940Y-11830717D01*
X9527703Y-11826800D01*
X9462295Y-11785531D01*
X9360288Y-11721169D01*
X9360283Y-11721167D01*
X9355404Y-11718088D01*
X9166180Y-11642595D01*
X8966366Y-11602849D01*
X8960592Y-11602773D01*
X8960588Y-11602773D01*
X8857452Y-11601424D01*
X8762655Y-11600183D01*
X8756958Y-11601162D01*
X8756957Y-11601162D01*
X8577548Y-11631990D01*
X8561870Y-11634684D01*
X8370734Y-11705198D01*
X8365773Y-11708150D01*
X8365772Y-11708150D01*
X8327567Y-11730880D01*
X8195649Y-11809363D01*
X8042478Y-11943690D01*
X8038911Y-11948215D01*
X8038906Y-11948220D01*
X7965850Y-12040892D01*
X7916351Y-12103681D01*
X7821492Y-12283978D01*
X7788821Y-12389195D01*
X7764504Y-12467511D01*
X7761078Y-12478543D01*
X7737132Y-12680859D01*
X7750457Y-12884151D01*
X7800605Y-13081610D01*
X7885898Y-13266624D01*
X8003479Y-13432997D01*
X8149410Y-13575157D01*
X8154206Y-13578362D01*
X8154209Y-13578364D01*
X8266919Y-13653674D01*
X8318803Y-13688342D01*
X8324106Y-13690620D01*
X8324109Y-13690622D01*
X8480859Y-13757967D01*
X8505987Y-13768763D01*
X8539261Y-13776292D01*
X8699055Y-13812450D01*
X8699060Y-13812451D01*
X8704692Y-13813725D01*
X8710463Y-13813952D01*
X8710465Y-13813952D01*
X8773470Y-13816427D01*
X8908263Y-13821723D01*
X9109883Y-13792490D01*
X9115347Y-13790635D01*
X9115352Y-13790634D01*
X9297327Y-13728862D01*
X9297332Y-13728860D01*
X9302799Y-13727004D01*
X9317431Y-13718810D01*
X9382863Y-13682166D01*
X9480551Y-13627458D01*
X9637186Y-13497186D01*
X9676303Y-13450153D01*
X9735241Y-13410569D01*
X9806223Y-13409133D01*
X9866713Y-13446300D01*
X9898099Y-13514272D01*
X9901896Y-13543112D01*
X9907162Y-13583115D01*
X9968476Y-13731140D01*
X9973503Y-13737691D01*
X9973504Y-13737693D01*
X10041520Y-13826333D01*
X10041526Y-13826339D01*
X10066013Y-13858251D01*
X10072568Y-13863281D01*
X10091379Y-13877716D01*
X10103770Y-13888583D01*
X11251421Y-15036234D01*
X11262288Y-15048625D01*
X11272450Y-15061868D01*
X11281749Y-15073987D01*
X11288299Y-15079013D01*
X11313657Y-15098471D01*
X11313664Y-15098477D01*
X11375676Y-15146060D01*
X11408861Y-15171524D01*
X11556886Y-15232838D01*
X11675851Y-15248500D01*
X11675856Y-15248500D01*
X11675865Y-15248501D01*
X11707548Y-15252672D01*
X11715736Y-15253750D01*
X11747429Y-15249578D01*
X11763872Y-15248500D01*
X35945761Y-15248500D01*
X36013882Y-15268502D01*
X36034856Y-15285405D01*
X36078862Y-15329411D01*
X36112888Y-15391723D01*
X36114427Y-15401509D01*
X36114944Y-15403940D01*
X36115631Y-15410949D01*
X36169344Y-15572417D01*
X36172991Y-15578439D01*
X36172992Y-15578441D01*
X36212025Y-15642891D01*
X36257496Y-15717973D01*
X36375705Y-15840382D01*
X36518096Y-15933560D01*
X36524700Y-15936016D01*
X36524702Y-15936017D01*
X36561094Y-15949551D01*
X36677591Y-15992876D01*
X36846265Y-16015382D01*
X36853276Y-16014744D01*
X36853280Y-16014744D01*
X37008712Y-16000598D01*
X37015733Y-15999959D01*
X37022435Y-15997781D01*
X37022437Y-15997781D01*
X37170873Y-15949551D01*
X37170876Y-15949550D01*
X37177572Y-15947374D01*
X37323740Y-15860240D01*
X37328835Y-15855388D01*
X37328843Y-15855382D01*
X37417025Y-15771408D01*
X37480150Y-15738916D01*
X37550820Y-15745710D01*
X37593011Y-15773559D01*
X37701612Y-15882160D01*
X37735638Y-15944472D01*
X37737177Y-15954258D01*
X37737694Y-15956688D01*
X37738381Y-15963699D01*
X37740605Y-15970384D01*
X37740605Y-15970385D01*
X37755361Y-16014744D01*
X37792094Y-16125167D01*
X37795741Y-16131189D01*
X37795742Y-16131191D01*
X37809497Y-16153902D01*
X37880246Y-16270723D01*
X37998455Y-16393132D01*
X38140846Y-16486310D01*
X38147450Y-16488766D01*
X38147452Y-16488767D01*
X38183844Y-16502301D01*
X38300341Y-16545626D01*
X38469015Y-16568132D01*
X38476026Y-16567494D01*
X38476030Y-16567494D01*
X38631462Y-16553348D01*
X38638483Y-16552709D01*
X38645185Y-16550531D01*
X38645187Y-16550531D01*
X38793623Y-16502301D01*
X38793626Y-16502300D01*
X38800322Y-16500124D01*
X38946490Y-16412990D01*
X38951584Y-16408139D01*
X38951588Y-16408136D01*
X39018833Y-16344099D01*
X39069721Y-16295639D01*
X39163891Y-16153902D01*
X39224319Y-15994825D01*
X39248001Y-15826313D01*
X39248299Y-15805000D01*
X39229331Y-15635892D01*
X39173368Y-15475189D01*
X39160128Y-15454000D01*
X39117560Y-15385879D01*
X39083192Y-15330879D01*
X39070879Y-15318479D01*
X38968248Y-15215129D01*
X38963286Y-15210132D01*
X38819608Y-15118951D01*
X38659300Y-15061868D01*
X38638039Y-15059333D01*
X38572766Y-15031406D01*
X38563872Y-15023324D01*
X37624142Y-14083593D01*
X37590118Y-14021283D01*
X37595183Y-13950467D01*
X37637730Y-13893632D01*
X37704250Y-13868821D01*
X37713239Y-13868500D01*
X46935845Y-13868500D01*
X46959454Y-13870732D01*
X46960538Y-13870939D01*
X46960540Y-13870939D01*
X46968324Y-13872424D01*
X47026736Y-13868749D01*
X47034647Y-13868500D01*
X58947944Y-13868500D01*
X58959800Y-13869059D01*
X58959803Y-13869059D01*
X58967537Y-13870788D01*
X59038369Y-13868562D01*
X59042327Y-13868500D01*
X59071432Y-13868500D01*
X59075832Y-13867944D01*
X59087664Y-13867012D01*
X59133831Y-13865562D01*
X59154421Y-13859580D01*
X59173782Y-13855570D01*
X59180770Y-13854688D01*
X59187204Y-13853875D01*
X59187205Y-13853875D01*
X59195064Y-13852882D01*
X59202429Y-13849966D01*
X59202433Y-13849965D01*
X59238021Y-13835874D01*
X59249231Y-13832035D01*
X59293600Y-13819145D01*
X59312065Y-13808225D01*
X59329805Y-13799534D01*
X59349756Y-13791635D01*
X59387129Y-13764482D01*
X59397048Y-13757967D01*
X59429977Y-13738493D01*
X59429981Y-13738490D01*
X59436807Y-13734453D01*
X59451971Y-13719289D01*
X59467005Y-13706448D01*
X59477943Y-13698501D01*
X59484357Y-13693841D01*
X59513803Y-13658247D01*
X59521792Y-13649468D01*
X60735905Y-12435355D01*
X60798217Y-12401329D01*
X60869032Y-12406394D01*
X60914095Y-12435355D01*
X66365364Y-17886624D01*
X66399390Y-17948936D01*
X66394325Y-18019751D01*
X66367363Y-18062770D01*
X66310629Y-18122138D01*
X66203201Y-18279621D01*
X66148293Y-18324621D01*
X66077768Y-18332792D01*
X66014021Y-18301538D01*
X65993324Y-18277054D01*
X65912822Y-18152617D01*
X65912820Y-18152614D01*
X65910014Y-18148277D01*
X65759670Y-17983051D01*
X65755619Y-17979852D01*
X65755615Y-17979848D01*
X65588414Y-17847800D01*
X65588410Y-17847798D01*
X65584359Y-17844598D01*
X65388789Y-17736638D01*
X65383920Y-17734914D01*
X65383916Y-17734912D01*
X65183087Y-17663795D01*
X65183083Y-17663794D01*
X65178212Y-17662069D01*
X65173119Y-17661162D01*
X65173116Y-17661161D01*
X64963373Y-17623800D01*
X64963367Y-17623799D01*
X64958284Y-17622894D01*
X64884452Y-17621992D01*
X64740081Y-17620228D01*
X64740079Y-17620228D01*
X64734911Y-17620165D01*
X64514091Y-17653955D01*
X64301756Y-17723357D01*
X64103607Y-17826507D01*
X64099474Y-17829610D01*
X64099471Y-17829612D01*
X63929100Y-17957530D01*
X63924965Y-17960635D01*
X63770629Y-18122138D01*
X63663201Y-18279621D01*
X63608293Y-18324621D01*
X63537768Y-18332792D01*
X63474021Y-18301538D01*
X63453324Y-18277054D01*
X63372822Y-18152617D01*
X63372820Y-18152614D01*
X63370014Y-18148277D01*
X63219670Y-17983051D01*
X63215619Y-17979852D01*
X63215615Y-17979848D01*
X63048414Y-17847800D01*
X63048410Y-17847798D01*
X63044359Y-17844598D01*
X62848789Y-17736638D01*
X62843920Y-17734914D01*
X62843916Y-17734912D01*
X62643087Y-17663795D01*
X62643083Y-17663794D01*
X62638212Y-17662069D01*
X62633119Y-17661162D01*
X62633116Y-17661161D01*
X62423373Y-17623800D01*
X62423367Y-17623799D01*
X62418284Y-17622894D01*
X62344452Y-17621992D01*
X62200081Y-17620228D01*
X62200079Y-17620228D01*
X62194911Y-17620165D01*
X61974091Y-17653955D01*
X61761756Y-17723357D01*
X61563607Y-17826507D01*
X61559474Y-17829610D01*
X61559471Y-17829612D01*
X61389100Y-17957530D01*
X61384965Y-17960635D01*
X61230629Y-18122138D01*
X61123201Y-18279621D01*
X61068293Y-18324621D01*
X60997768Y-18332792D01*
X60934021Y-18301538D01*
X60913324Y-18277054D01*
X60832822Y-18152617D01*
X60832820Y-18152614D01*
X60830014Y-18148277D01*
X60679670Y-17983051D01*
X60675619Y-17979852D01*
X60675615Y-17979848D01*
X60508414Y-17847800D01*
X60508410Y-17847798D01*
X60504359Y-17844598D01*
X60308789Y-17736638D01*
X60303920Y-17734914D01*
X60303916Y-17734912D01*
X60103087Y-17663795D01*
X60103083Y-17663794D01*
X60098212Y-17662069D01*
X60093119Y-17661162D01*
X60093116Y-17661161D01*
X59883373Y-17623800D01*
X59883367Y-17623799D01*
X59878284Y-17622894D01*
X59804452Y-17621992D01*
X59660081Y-17620228D01*
X59660079Y-17620228D01*
X59654911Y-17620165D01*
X59434091Y-17653955D01*
X59221756Y-17723357D01*
X59023607Y-17826507D01*
X59019474Y-17829610D01*
X59019471Y-17829612D01*
X58849100Y-17957530D01*
X58844965Y-17960635D01*
X58690629Y-18122138D01*
X58583201Y-18279621D01*
X58528293Y-18324621D01*
X58457768Y-18332792D01*
X58394021Y-18301538D01*
X58373324Y-18277054D01*
X58292822Y-18152617D01*
X58292820Y-18152614D01*
X58290014Y-18148277D01*
X58139670Y-17983051D01*
X58135619Y-17979852D01*
X58135615Y-17979848D01*
X57968414Y-17847800D01*
X57968410Y-17847798D01*
X57964359Y-17844598D01*
X57768789Y-17736638D01*
X57763920Y-17734914D01*
X57763916Y-17734912D01*
X57563087Y-17663795D01*
X57563083Y-17663794D01*
X57558212Y-17662069D01*
X57553119Y-17661162D01*
X57553116Y-17661161D01*
X57343373Y-17623800D01*
X57343367Y-17623799D01*
X57338284Y-17622894D01*
X57264452Y-17621992D01*
X57120081Y-17620228D01*
X57120079Y-17620228D01*
X57114911Y-17620165D01*
X56894091Y-17653955D01*
X56681756Y-17723357D01*
X56483607Y-17826507D01*
X56479474Y-17829610D01*
X56479471Y-17829612D01*
X56309100Y-17957530D01*
X56304965Y-17960635D01*
X56150629Y-18122138D01*
X56043201Y-18279621D01*
X55988293Y-18324621D01*
X55917768Y-18332792D01*
X55854021Y-18301538D01*
X55833324Y-18277054D01*
X55752822Y-18152617D01*
X55752820Y-18152614D01*
X55750014Y-18148277D01*
X55599670Y-17983051D01*
X55595619Y-17979852D01*
X55595615Y-17979848D01*
X55428414Y-17847800D01*
X55428410Y-17847798D01*
X55424359Y-17844598D01*
X55228789Y-17736638D01*
X55223920Y-17734914D01*
X55223916Y-17734912D01*
X55023087Y-17663795D01*
X55023083Y-17663794D01*
X55018212Y-17662069D01*
X55013119Y-17661162D01*
X55013116Y-17661161D01*
X54803373Y-17623800D01*
X54803367Y-17623799D01*
X54798284Y-17622894D01*
X54724452Y-17621992D01*
X54580081Y-17620228D01*
X54580079Y-17620228D01*
X54574911Y-17620165D01*
X54354091Y-17653955D01*
X54141756Y-17723357D01*
X53943607Y-17826507D01*
X53939474Y-17829610D01*
X53939471Y-17829612D01*
X53769100Y-17957530D01*
X53764965Y-17960635D01*
X53610629Y-18122138D01*
X53503201Y-18279621D01*
X53448293Y-18324621D01*
X53377768Y-18332792D01*
X53314021Y-18301538D01*
X53293324Y-18277054D01*
X53212822Y-18152617D01*
X53212820Y-18152614D01*
X53210014Y-18148277D01*
X53059670Y-17983051D01*
X53055619Y-17979852D01*
X53055615Y-17979848D01*
X52888414Y-17847800D01*
X52888410Y-17847798D01*
X52884359Y-17844598D01*
X52688789Y-17736638D01*
X52683920Y-17734914D01*
X52683916Y-17734912D01*
X52483087Y-17663795D01*
X52483083Y-17663794D01*
X52478212Y-17662069D01*
X52473119Y-17661162D01*
X52473116Y-17661161D01*
X52263373Y-17623800D01*
X52263367Y-17623799D01*
X52258284Y-17622894D01*
X52184452Y-17621992D01*
X52040081Y-17620228D01*
X52040079Y-17620228D01*
X52034911Y-17620165D01*
X51814091Y-17653955D01*
X51601756Y-17723357D01*
X51403607Y-17826507D01*
X51399474Y-17829610D01*
X51399471Y-17829612D01*
X51229100Y-17957530D01*
X51224965Y-17960635D01*
X51070629Y-18122138D01*
X50963201Y-18279621D01*
X50908293Y-18324621D01*
X50837768Y-18332792D01*
X50774021Y-18301538D01*
X50753324Y-18277054D01*
X50672822Y-18152617D01*
X50672820Y-18152614D01*
X50670014Y-18148277D01*
X50519670Y-17983051D01*
X50515619Y-17979852D01*
X50515615Y-17979848D01*
X50348414Y-17847800D01*
X50348410Y-17847798D01*
X50344359Y-17844598D01*
X50148789Y-17736638D01*
X50143920Y-17734914D01*
X50143916Y-17734912D01*
X49943087Y-17663795D01*
X49943083Y-17663794D01*
X49938212Y-17662069D01*
X49933119Y-17661162D01*
X49933116Y-17661161D01*
X49723373Y-17623800D01*
X49723367Y-17623799D01*
X49718284Y-17622894D01*
X49644452Y-17621992D01*
X49500081Y-17620228D01*
X49500079Y-17620228D01*
X49494911Y-17620165D01*
X49274091Y-17653955D01*
X49061756Y-17723357D01*
X48863607Y-17826507D01*
X48859474Y-17829610D01*
X48859471Y-17829612D01*
X48689100Y-17957530D01*
X48684965Y-17960635D01*
X48530629Y-18122138D01*
X48423201Y-18279621D01*
X48368293Y-18324621D01*
X48297768Y-18332792D01*
X48234021Y-18301538D01*
X48213324Y-18277054D01*
X48132822Y-18152617D01*
X48132820Y-18152614D01*
X48130014Y-18148277D01*
X47979670Y-17983051D01*
X47975619Y-17979852D01*
X47975615Y-17979848D01*
X47808414Y-17847800D01*
X47808410Y-17847798D01*
X47804359Y-17844598D01*
X47608789Y-17736638D01*
X47603920Y-17734914D01*
X47603916Y-17734912D01*
X47403087Y-17663795D01*
X47403083Y-17663794D01*
X47398212Y-17662069D01*
X47393119Y-17661162D01*
X47393116Y-17661161D01*
X47183373Y-17623800D01*
X47183367Y-17623799D01*
X47178284Y-17622894D01*
X47104452Y-17621992D01*
X46960081Y-17620228D01*
X46960079Y-17620228D01*
X46954911Y-17620165D01*
X46734091Y-17653955D01*
X46521756Y-17723357D01*
X46323607Y-17826507D01*
X46319474Y-17829610D01*
X46319471Y-17829612D01*
X46149100Y-17957530D01*
X46144965Y-17960635D01*
X45990629Y-18122138D01*
X45883201Y-18279621D01*
X45828293Y-18324621D01*
X45757768Y-18332792D01*
X45694021Y-18301538D01*
X45673324Y-18277054D01*
X45592822Y-18152617D01*
X45592820Y-18152614D01*
X45590014Y-18148277D01*
X45439670Y-17983051D01*
X45435619Y-17979852D01*
X45435615Y-17979848D01*
X45268414Y-17847800D01*
X45268410Y-17847798D01*
X45264359Y-17844598D01*
X45068789Y-17736638D01*
X45063920Y-17734914D01*
X45063916Y-17734912D01*
X44863087Y-17663795D01*
X44863083Y-17663794D01*
X44858212Y-17662069D01*
X44853119Y-17661162D01*
X44853116Y-17661161D01*
X44643373Y-17623800D01*
X44643367Y-17623799D01*
X44638284Y-17622894D01*
X44564452Y-17621992D01*
X44420081Y-17620228D01*
X44420079Y-17620228D01*
X44414911Y-17620165D01*
X44194091Y-17653955D01*
X43981756Y-17723357D01*
X43783607Y-17826507D01*
X43779474Y-17829610D01*
X43779471Y-17829612D01*
X43609100Y-17957530D01*
X43604965Y-17960635D01*
X43450629Y-18122138D01*
X43343201Y-18279621D01*
X43288293Y-18324621D01*
X43217768Y-18332792D01*
X43154021Y-18301538D01*
X43133324Y-18277054D01*
X43052822Y-18152617D01*
X43052820Y-18152614D01*
X43050014Y-18148277D01*
X42899670Y-17983051D01*
X42895619Y-17979852D01*
X42895615Y-17979848D01*
X42728414Y-17847800D01*
X42728410Y-17847798D01*
X42724359Y-17844598D01*
X42528789Y-17736638D01*
X42523920Y-17734914D01*
X42523916Y-17734912D01*
X42323087Y-17663795D01*
X42323083Y-17663794D01*
X42318212Y-17662069D01*
X42313119Y-17661162D01*
X42313116Y-17661161D01*
X42103373Y-17623800D01*
X42103367Y-17623799D01*
X42098284Y-17622894D01*
X42024452Y-17621992D01*
X41880081Y-17620228D01*
X41880079Y-17620228D01*
X41874911Y-17620165D01*
X41654091Y-17653955D01*
X41441756Y-17723357D01*
X41243607Y-17826507D01*
X41239474Y-17829610D01*
X41239471Y-17829612D01*
X41069100Y-17957530D01*
X41064965Y-17960635D01*
X40910629Y-18122138D01*
X40803201Y-18279621D01*
X40748293Y-18324621D01*
X40677768Y-18332792D01*
X40614021Y-18301538D01*
X40593324Y-18277054D01*
X40512822Y-18152617D01*
X40512820Y-18152614D01*
X40510014Y-18148277D01*
X40359670Y-17983051D01*
X40355619Y-17979852D01*
X40355615Y-17979848D01*
X40188414Y-17847800D01*
X40188410Y-17847798D01*
X40184359Y-17844598D01*
X39988789Y-17736638D01*
X39983920Y-17734914D01*
X39983916Y-17734912D01*
X39783087Y-17663795D01*
X39783083Y-17663794D01*
X39778212Y-17662069D01*
X39773119Y-17661162D01*
X39773116Y-17661161D01*
X39563373Y-17623800D01*
X39563367Y-17623799D01*
X39558284Y-17622894D01*
X39484452Y-17621992D01*
X39340081Y-17620228D01*
X39340079Y-17620228D01*
X39334911Y-17620165D01*
X39114091Y-17653955D01*
X38901756Y-17723357D01*
X38703607Y-17826507D01*
X38699474Y-17829610D01*
X38699471Y-17829612D01*
X38529100Y-17957530D01*
X38524965Y-17960635D01*
X38370629Y-18122138D01*
X38263201Y-18279621D01*
X38208293Y-18324621D01*
X38137768Y-18332792D01*
X38074021Y-18301538D01*
X38053324Y-18277054D01*
X37972822Y-18152617D01*
X37972820Y-18152614D01*
X37970014Y-18148277D01*
X37819670Y-17983051D01*
X37815619Y-17979852D01*
X37815615Y-17979848D01*
X37648414Y-17847800D01*
X37648410Y-17847798D01*
X37644359Y-17844598D01*
X37448789Y-17736638D01*
X37443920Y-17734914D01*
X37443916Y-17734912D01*
X37243087Y-17663795D01*
X37243083Y-17663794D01*
X37238212Y-17662069D01*
X37233119Y-17661162D01*
X37233116Y-17661161D01*
X37023373Y-17623800D01*
X37023367Y-17623799D01*
X37018284Y-17622894D01*
X36944452Y-17621992D01*
X36800081Y-17620228D01*
X36800079Y-17620228D01*
X36794911Y-17620165D01*
X36574091Y-17653955D01*
X36361756Y-17723357D01*
X36163607Y-17826507D01*
X36159474Y-17829610D01*
X36159471Y-17829612D01*
X35989100Y-17957530D01*
X35984965Y-17960635D01*
X35830629Y-18122138D01*
X35723201Y-18279621D01*
X35668293Y-18324621D01*
X35597768Y-18332792D01*
X35534021Y-18301538D01*
X35513324Y-18277054D01*
X35432822Y-18152617D01*
X35432820Y-18152614D01*
X35430014Y-18148277D01*
X35279670Y-17983051D01*
X35275619Y-17979852D01*
X35275615Y-17979848D01*
X35108414Y-17847800D01*
X35108410Y-17847798D01*
X35104359Y-17844598D01*
X34908789Y-17736638D01*
X34903920Y-17734914D01*
X34903916Y-17734912D01*
X34703087Y-17663795D01*
X34703083Y-17663794D01*
X34698212Y-17662069D01*
X34693119Y-17661162D01*
X34693116Y-17661161D01*
X34483373Y-17623800D01*
X34483367Y-17623799D01*
X34478284Y-17622894D01*
X34404452Y-17621992D01*
X34260081Y-17620228D01*
X34260079Y-17620228D01*
X34254911Y-17620165D01*
X34034091Y-17653955D01*
X33821756Y-17723357D01*
X33623607Y-17826507D01*
X33619474Y-17829610D01*
X33619471Y-17829612D01*
X33449100Y-17957530D01*
X33444965Y-17960635D01*
X33290629Y-18122138D01*
X33183201Y-18279621D01*
X33128293Y-18324621D01*
X33057768Y-18332792D01*
X32994021Y-18301538D01*
X32973324Y-18277054D01*
X32892822Y-18152617D01*
X32892820Y-18152614D01*
X32890014Y-18148277D01*
X32739670Y-17983051D01*
X32735619Y-17979852D01*
X32735615Y-17979848D01*
X32568414Y-17847800D01*
X32568410Y-17847798D01*
X32564359Y-17844598D01*
X32368789Y-17736638D01*
X32363920Y-17734914D01*
X32363916Y-17734912D01*
X32163087Y-17663795D01*
X32163083Y-17663794D01*
X32158212Y-17662069D01*
X32153119Y-17661162D01*
X32153116Y-17661161D01*
X31943373Y-17623800D01*
X31943367Y-17623799D01*
X31938284Y-17622894D01*
X31864452Y-17621992D01*
X31720081Y-17620228D01*
X31720079Y-17620228D01*
X31714911Y-17620165D01*
X31494091Y-17653955D01*
X31281756Y-17723357D01*
X31083607Y-17826507D01*
X31079474Y-17829610D01*
X31079471Y-17829612D01*
X30909100Y-17957530D01*
X30904965Y-17960635D01*
X30750629Y-18122138D01*
X30643201Y-18279621D01*
X30588293Y-18324621D01*
X30517768Y-18332792D01*
X30454021Y-18301538D01*
X30433324Y-18277054D01*
X30352822Y-18152617D01*
X30352820Y-18152614D01*
X30350014Y-18148277D01*
X30199670Y-17983051D01*
X30195619Y-17979852D01*
X30195615Y-17979848D01*
X30028414Y-17847800D01*
X30028410Y-17847798D01*
X30024359Y-17844598D01*
X29828789Y-17736638D01*
X29823920Y-17734914D01*
X29823916Y-17734912D01*
X29623087Y-17663795D01*
X29623083Y-17663794D01*
X29618212Y-17662069D01*
X29613119Y-17661162D01*
X29613116Y-17661161D01*
X29403373Y-17623800D01*
X29403367Y-17623799D01*
X29398284Y-17622894D01*
X29324452Y-17621992D01*
X29180081Y-17620228D01*
X29180079Y-17620228D01*
X29174911Y-17620165D01*
X28954091Y-17653955D01*
X28741756Y-17723357D01*
X28543607Y-17826507D01*
X28539474Y-17829610D01*
X28539471Y-17829612D01*
X28369100Y-17957530D01*
X28364965Y-17960635D01*
X28210629Y-18122138D01*
X28103201Y-18279621D01*
X28048293Y-18324621D01*
X27977768Y-18332792D01*
X27914021Y-18301538D01*
X27893324Y-18277054D01*
X27812822Y-18152617D01*
X27812820Y-18152614D01*
X27810014Y-18148277D01*
X27659670Y-17983051D01*
X27655619Y-17979852D01*
X27655615Y-17979848D01*
X27488414Y-17847800D01*
X27488410Y-17847798D01*
X27484359Y-17844598D01*
X27288789Y-17736638D01*
X27283920Y-17734914D01*
X27283916Y-17734912D01*
X27083087Y-17663795D01*
X27083083Y-17663794D01*
X27078212Y-17662069D01*
X27073119Y-17661162D01*
X27073116Y-17661161D01*
X26863373Y-17623800D01*
X26863367Y-17623799D01*
X26858284Y-17622894D01*
X26784452Y-17621992D01*
X26640081Y-17620228D01*
X26640079Y-17620228D01*
X26634911Y-17620165D01*
X26414091Y-17653955D01*
X26201756Y-17723357D01*
X26003607Y-17826507D01*
X25999474Y-17829610D01*
X25999471Y-17829612D01*
X25829100Y-17957530D01*
X25824965Y-17960635D01*
X25670629Y-18122138D01*
X25563201Y-18279621D01*
X25508293Y-18324621D01*
X25437768Y-18332792D01*
X25374021Y-18301538D01*
X25353324Y-18277054D01*
X25272822Y-18152617D01*
X25272820Y-18152614D01*
X25270014Y-18148277D01*
X25119670Y-17983051D01*
X25115619Y-17979852D01*
X25115615Y-17979848D01*
X24948414Y-17847800D01*
X24948410Y-17847798D01*
X24944359Y-17844598D01*
X24748789Y-17736638D01*
X24743920Y-17734914D01*
X24743916Y-17734912D01*
X24543087Y-17663795D01*
X24543083Y-17663794D01*
X24538212Y-17662069D01*
X24533119Y-17661162D01*
X24533116Y-17661161D01*
X24323373Y-17623800D01*
X24323367Y-17623799D01*
X24318284Y-17622894D01*
X24244452Y-17621992D01*
X24100081Y-17620228D01*
X24100079Y-17620228D01*
X24094911Y-17620165D01*
X23874091Y-17653955D01*
X23661756Y-17723357D01*
X23463607Y-17826507D01*
X23459474Y-17829610D01*
X23459471Y-17829612D01*
X23289100Y-17957530D01*
X23284965Y-17960635D01*
X23130629Y-18122138D01*
X23023201Y-18279621D01*
X22968293Y-18324621D01*
X22897768Y-18332792D01*
X22834021Y-18301538D01*
X22813324Y-18277054D01*
X22732822Y-18152617D01*
X22732820Y-18152614D01*
X22730014Y-18148277D01*
X22579670Y-17983051D01*
X22575619Y-17979852D01*
X22575615Y-17979848D01*
X22408414Y-17847800D01*
X22408410Y-17847798D01*
X22404359Y-17844598D01*
X22208789Y-17736638D01*
X22203920Y-17734914D01*
X22203916Y-17734912D01*
X22003087Y-17663795D01*
X22003083Y-17663794D01*
X21998212Y-17662069D01*
X21993119Y-17661162D01*
X21993116Y-17661161D01*
X21783373Y-17623800D01*
X21783367Y-17623799D01*
X21778284Y-17622894D01*
X21704452Y-17621992D01*
X21560081Y-17620228D01*
X21560079Y-17620228D01*
X21554911Y-17620165D01*
X21334091Y-17653955D01*
X21121756Y-17723357D01*
X20923607Y-17826507D01*
X20919474Y-17829610D01*
X20919471Y-17829612D01*
X20749100Y-17957530D01*
X20744965Y-17960635D01*
X20590629Y-18122138D01*
X20483201Y-18279621D01*
X20428293Y-18324621D01*
X20357768Y-18332792D01*
X20294021Y-18301538D01*
X20273324Y-18277054D01*
X20192822Y-18152617D01*
X20192820Y-18152614D01*
X20190014Y-18148277D01*
X20039670Y-17983051D01*
X20035619Y-17979852D01*
X20035615Y-17979848D01*
X19868414Y-17847800D01*
X19868410Y-17847798D01*
X19864359Y-17844598D01*
X19668789Y-17736638D01*
X19663920Y-17734914D01*
X19663916Y-17734912D01*
X19463087Y-17663795D01*
X19463083Y-17663794D01*
X19458212Y-17662069D01*
X19453119Y-17661162D01*
X19453116Y-17661161D01*
X19243373Y-17623800D01*
X19243367Y-17623799D01*
X19238284Y-17622894D01*
X19164452Y-17621992D01*
X19020081Y-17620228D01*
X19020079Y-17620228D01*
X19014911Y-17620165D01*
X18794091Y-17653955D01*
X18581756Y-17723357D01*
X18383607Y-17826507D01*
X18379474Y-17829610D01*
X18379471Y-17829612D01*
X18209100Y-17957530D01*
X18204965Y-17960635D01*
X18050629Y-18122138D01*
X17943201Y-18279621D01*
X17888293Y-18324621D01*
X17817768Y-18332792D01*
X17754021Y-18301538D01*
X17733324Y-18277054D01*
X17652822Y-18152617D01*
X17652820Y-18152614D01*
X17650014Y-18148277D01*
X17499670Y-17983051D01*
X17495619Y-17979852D01*
X17495615Y-17979848D01*
X17328414Y-17847800D01*
X17328410Y-17847798D01*
X17324359Y-17844598D01*
X17128789Y-17736638D01*
X17123920Y-17734914D01*
X17123916Y-17734912D01*
X16923087Y-17663795D01*
X16923083Y-17663794D01*
X16918212Y-17662069D01*
X16913119Y-17661162D01*
X16913116Y-17661161D01*
X16703373Y-17623800D01*
X16703367Y-17623799D01*
X16698284Y-17622894D01*
X16624452Y-17621992D01*
X16480081Y-17620228D01*
X16480079Y-17620228D01*
X16474911Y-17620165D01*
X16254091Y-17653955D01*
X16041756Y-17723357D01*
X15843607Y-17826507D01*
X15839474Y-17829610D01*
X15839471Y-17829612D01*
X15669100Y-17957530D01*
X15664965Y-17960635D01*
X15510629Y-18122138D01*
X15403201Y-18279621D01*
X15348293Y-18324621D01*
X15277768Y-18332792D01*
X15214021Y-18301538D01*
X15193324Y-18277054D01*
X15112822Y-18152617D01*
X15112820Y-18152614D01*
X15110014Y-18148277D01*
X14959670Y-17983051D01*
X14955619Y-17979852D01*
X14955615Y-17979848D01*
X14788414Y-17847800D01*
X14788410Y-17847798D01*
X14784359Y-17844598D01*
X14588789Y-17736638D01*
X14583920Y-17734914D01*
X14583916Y-17734912D01*
X14383087Y-17663795D01*
X14383083Y-17663794D01*
X14378212Y-17662069D01*
X14373119Y-17661162D01*
X14373116Y-17661161D01*
X14163373Y-17623800D01*
X14163367Y-17623799D01*
X14158284Y-17622894D01*
X14084452Y-17621992D01*
X13940081Y-17620228D01*
X13940079Y-17620228D01*
X13934911Y-17620165D01*
X13714091Y-17653955D01*
X13501756Y-17723357D01*
X13303607Y-17826507D01*
X13299474Y-17829610D01*
X13299471Y-17829612D01*
X13129100Y-17957530D01*
X13124965Y-17960635D01*
X12970629Y-18122138D01*
X12863201Y-18279621D01*
X12808293Y-18324621D01*
X12737768Y-18332792D01*
X12674021Y-18301538D01*
X12653324Y-18277054D01*
X12572822Y-18152617D01*
X12572820Y-18152614D01*
X12570014Y-18148277D01*
X12419670Y-17983051D01*
X12415619Y-17979852D01*
X12415615Y-17979848D01*
X12248414Y-17847800D01*
X12248410Y-17847798D01*
X12244359Y-17844598D01*
X12048789Y-17736638D01*
X12043920Y-17734914D01*
X12043916Y-17734912D01*
X11843087Y-17663795D01*
X11843083Y-17663794D01*
X11838212Y-17662069D01*
X11833119Y-17661162D01*
X11833116Y-17661161D01*
X11623373Y-17623800D01*
X11623367Y-17623799D01*
X11618284Y-17622894D01*
X11544452Y-17621992D01*
X11400081Y-17620228D01*
X11400079Y-17620228D01*
X11394911Y-17620165D01*
X11174091Y-17653955D01*
X10961756Y-17723357D01*
X10763607Y-17826507D01*
X10759474Y-17829610D01*
X10759471Y-17829612D01*
X10589100Y-17957530D01*
X10584965Y-17960635D01*
X10430629Y-18122138D01*
X10323201Y-18279621D01*
X10268293Y-18324621D01*
X10197768Y-18332792D01*
X10134021Y-18301538D01*
X10113324Y-18277054D01*
X10032822Y-18152617D01*
X10032820Y-18152614D01*
X10030014Y-18148277D01*
X9879670Y-17983051D01*
X9875619Y-17979852D01*
X9875615Y-17979848D01*
X9708414Y-17847800D01*
X9708410Y-17847798D01*
X9704359Y-17844598D01*
X9508789Y-17736638D01*
X9503920Y-17734914D01*
X9503916Y-17734912D01*
X9303087Y-17663795D01*
X9303083Y-17663794D01*
X9298212Y-17662069D01*
X9293119Y-17661162D01*
X9293116Y-17661161D01*
X9083373Y-17623800D01*
X9083367Y-17623799D01*
X9078284Y-17622894D01*
X9004452Y-17621992D01*
X8860081Y-17620228D01*
X8860079Y-17620228D01*
X8854911Y-17620165D01*
X8634091Y-17653955D01*
X8421756Y-17723357D01*
X8223607Y-17826507D01*
X8219474Y-17829610D01*
X8219471Y-17829612D01*
X8049100Y-17957530D01*
X8044965Y-17960635D01*
X7890629Y-18122138D01*
X7783201Y-18279621D01*
X7728293Y-18324621D01*
X7657768Y-18332792D01*
X7594021Y-18301538D01*
X7573324Y-18277054D01*
X7492822Y-18152617D01*
X7492820Y-18152614D01*
X7490014Y-18148277D01*
X7339670Y-17983051D01*
X7335619Y-17979852D01*
X7335615Y-17979848D01*
X7168414Y-17847800D01*
X7168410Y-17847798D01*
X7164359Y-17844598D01*
X6968789Y-17736638D01*
X6963920Y-17734914D01*
X6963916Y-17734912D01*
X6763087Y-17663795D01*
X6763083Y-17663794D01*
X6758212Y-17662069D01*
X6753119Y-17661162D01*
X6753116Y-17661161D01*
X6543373Y-17623800D01*
X6543367Y-17623799D01*
X6538284Y-17622894D01*
X6464452Y-17621992D01*
X6320081Y-17620228D01*
X6320079Y-17620228D01*
X6314911Y-17620165D01*
X6094091Y-17653955D01*
X5881756Y-17723357D01*
X5683607Y-17826507D01*
X5679474Y-17829610D01*
X5679471Y-17829612D01*
X5509100Y-17957530D01*
X5504965Y-17960635D01*
X5350629Y-18122138D01*
X5243201Y-18279621D01*
X5188293Y-18324621D01*
X5117768Y-18332792D01*
X5054021Y-18301538D01*
X5033324Y-18277054D01*
X4952822Y-18152617D01*
X4952820Y-18152614D01*
X4950014Y-18148277D01*
X4799670Y-17983051D01*
X4795619Y-17979852D01*
X4795615Y-17979848D01*
X4628414Y-17847800D01*
X4628410Y-17847798D01*
X4624359Y-17844598D01*
X4428789Y-17736638D01*
X4423920Y-17734914D01*
X4423916Y-17734912D01*
X4223087Y-17663795D01*
X4223083Y-17663794D01*
X4218212Y-17662069D01*
X4213119Y-17661162D01*
X4213116Y-17661161D01*
X4003373Y-17623800D01*
X4003367Y-17623799D01*
X3998284Y-17622894D01*
X3924452Y-17621992D01*
X3780081Y-17620228D01*
X3780079Y-17620228D01*
X3774911Y-17620165D01*
X3554091Y-17653955D01*
X3341756Y-17723357D01*
X3143607Y-17826507D01*
X3139474Y-17829610D01*
X3139471Y-17829612D01*
X2969100Y-17957530D01*
X2964965Y-17960635D01*
X2810629Y-18122138D01*
X2703201Y-18279621D01*
X2648293Y-18324621D01*
X2577768Y-18332792D01*
X2514021Y-18301538D01*
X2493324Y-18277054D01*
X2412822Y-18152617D01*
X2412820Y-18152614D01*
X2410014Y-18148277D01*
X2259670Y-17983051D01*
X2255619Y-17979852D01*
X2255615Y-17979848D01*
X2088414Y-17847800D01*
X2088410Y-17847798D01*
X2084359Y-17844598D01*
X1888789Y-17736638D01*
X1883920Y-17734914D01*
X1883916Y-17734912D01*
X1683087Y-17663795D01*
X1683083Y-17663794D01*
X1678212Y-17662069D01*
X1673119Y-17661162D01*
X1673116Y-17661161D01*
X1463373Y-17623800D01*
X1463367Y-17623799D01*
X1458284Y-17622894D01*
X1384452Y-17621992D01*
X1240081Y-17620228D01*
X1240079Y-17620228D01*
X1234911Y-17620165D01*
X1014091Y-17653955D01*
X801756Y-17723357D01*
X797168Y-17725745D01*
X797164Y-17725747D01*
X679879Y-17786802D01*
X610219Y-17800515D01*
X544204Y-17774390D01*
X502793Y-17716721D01*
X495699Y-17675039D01*
X495699Y-15454000D01*
X515701Y-15385879D01*
X569357Y-15339386D01*
X621699Y-15328000D01*
X1052885Y-15328000D01*
X1068124Y-15323525D01*
X1069329Y-15322135D01*
X1071000Y-15314452D01*
X1071000Y-15309884D01*
X1579000Y-15309884D01*
X1583475Y-15325123D01*
X1584865Y-15326328D01*
X1592548Y-15327999D01*
X2219669Y-15327999D01*
X2226490Y-15327629D01*
X2277352Y-15322105D01*
X2292604Y-15318479D01*
X2413054Y-15273324D01*
X2428649Y-15264786D01*
X2530724Y-15188285D01*
X2543285Y-15175724D01*
X2619786Y-15073649D01*
X2628324Y-15058054D01*
X2673478Y-14937606D01*
X2677105Y-14922351D01*
X2682631Y-14871486D01*
X2683000Y-14864672D01*
X2683000Y-14242115D01*
X2678525Y-14226876D01*
X2677135Y-14225671D01*
X2669452Y-14224000D01*
X1597115Y-14224000D01*
X1581876Y-14228475D01*
X1580671Y-14229865D01*
X1579000Y-14237548D01*
X1579000Y-15309884D01*
X1071000Y-15309884D01*
X1071000Y-13842000D01*
X1091002Y-13773879D01*
X1144658Y-13727386D01*
X1197000Y-13716000D01*
X2664884Y-13716000D01*
X2680123Y-13711525D01*
X2681328Y-13710135D01*
X2682999Y-13702452D01*
X2682999Y-13075331D01*
X2682629Y-13068510D01*
X2677105Y-13017648D01*
X2673479Y-13002396D01*
X2628324Y-12881946D01*
X2619786Y-12866351D01*
X2543285Y-12764276D01*
X2530724Y-12751715D01*
X2428649Y-12675214D01*
X2413054Y-12666676D01*
X2302813Y-12625348D01*
X2246049Y-12582706D01*
X2221349Y-12516145D01*
X2236557Y-12446796D01*
X2258104Y-12418115D01*
X2359430Y-12317144D01*
X2359440Y-12317132D01*
X2363096Y-12313489D01*
X2380994Y-12288582D01*
X2490435Y-12136277D01*
X2493453Y-12132077D01*
X2509730Y-12099144D01*
X2590136Y-11936453D01*
X2590137Y-11936451D01*
X2592430Y-11931811D01*
X2657370Y-11718069D01*
X2686529Y-11496590D01*
X2686733Y-11488242D01*
X2688074Y-11433365D01*
X2688074Y-11433361D01*
X2688156Y-11430000D01*
X2669852Y-11207361D01*
X2615431Y-10990702D01*
X2526354Y-10785840D01*
X2481720Y-10716846D01*
X2407822Y-10602617D01*
X2407820Y-10602614D01*
X2405014Y-10598277D01*
X2254670Y-10433051D01*
X2250619Y-10429852D01*
X2250615Y-10429848D01*
X2083414Y-10297800D01*
X2083410Y-10297798D01*
X2079359Y-10294598D01*
X2038053Y-10271796D01*
X1988084Y-10221364D01*
X1973312Y-10151921D01*
X1998428Y-10085516D01*
X2025780Y-10058909D01*
X2099070Y-10006632D01*
X2204860Y-9931173D01*
X2228768Y-9907349D01*
X2359435Y-9777137D01*
X2363096Y-9773489D01*
X2379365Y-9750849D01*
X2490435Y-9596277D01*
X2493453Y-9592077D01*
X2508872Y-9560880D01*
X2590136Y-9396453D01*
X2590137Y-9396451D01*
X2592430Y-9391811D01*
X2657370Y-9178069D01*
X2686529Y-8956590D01*
X2686779Y-8946355D01*
X2688074Y-8893365D01*
X2688074Y-8893361D01*
X2688156Y-8890000D01*
X2669852Y-8667361D01*
X2615431Y-8450702D01*
X2526354Y-8245840D01*
X2471529Y-8161094D01*
X2407822Y-8062617D01*
X2407820Y-8062614D01*
X2405014Y-8058277D01*
X2254670Y-7893051D01*
X2250619Y-7889852D01*
X2250615Y-7889848D01*
X2083414Y-7757800D01*
X2083410Y-7757798D01*
X2079359Y-7754598D01*
X2038053Y-7731796D01*
X1988084Y-7681364D01*
X1973312Y-7611921D01*
X1992625Y-7560859D01*
X7737132Y-7560859D01*
X7750457Y-7764151D01*
X7800605Y-7961610D01*
X7885898Y-8146624D01*
X8003479Y-8312997D01*
X8149410Y-8455157D01*
X8154206Y-8458362D01*
X8154209Y-8458364D01*
X8231913Y-8510284D01*
X8318803Y-8568342D01*
X8324106Y-8570620D01*
X8324109Y-8570622D01*
X8500680Y-8646483D01*
X8505987Y-8648763D01*
X8578817Y-8665243D01*
X8699055Y-8692450D01*
X8699060Y-8692451D01*
X8704692Y-8693725D01*
X8710463Y-8693952D01*
X8710465Y-8693952D01*
X8773470Y-8696427D01*
X8908263Y-8701723D01*
X9109883Y-8672490D01*
X9115347Y-8670635D01*
X9115352Y-8670634D01*
X9297327Y-8608862D01*
X9297332Y-8608860D01*
X9302799Y-8607004D01*
X9320656Y-8597004D01*
X9395423Y-8555132D01*
X9480551Y-8507458D01*
X9637186Y-8377186D01*
X9767458Y-8220551D01*
X9852990Y-8067823D01*
X9864180Y-8047842D01*
X9864181Y-8047840D01*
X9867004Y-8042799D01*
X9868860Y-8037332D01*
X9868862Y-8037327D01*
X9930634Y-7855352D01*
X9930635Y-7855347D01*
X9932490Y-7849883D01*
X9961723Y-7648263D01*
X9963249Y-7590000D01*
X9949465Y-7439981D01*
X9945137Y-7392880D01*
X9945136Y-7392877D01*
X9944608Y-7387126D01*
X9910433Y-7265953D01*
X9890875Y-7196606D01*
X9890874Y-7196604D01*
X9889307Y-7191047D01*
X9878680Y-7169496D01*
X9801756Y-7013510D01*
X9799201Y-7008329D01*
X9795603Y-7003510D01*
X9680758Y-6849715D01*
X9680758Y-6849714D01*
X9677305Y-6845091D01*
X9568835Y-6744822D01*
X9531943Y-6710719D01*
X9531940Y-6710717D01*
X9527703Y-6706800D01*
X9420097Y-6638906D01*
X9360288Y-6601169D01*
X9360283Y-6601167D01*
X9355404Y-6598088D01*
X9166180Y-6522595D01*
X8966366Y-6482849D01*
X8960592Y-6482773D01*
X8960588Y-6482773D01*
X8857452Y-6481424D01*
X8762655Y-6480183D01*
X8756958Y-6481162D01*
X8756957Y-6481162D01*
X8580586Y-6511468D01*
X8561870Y-6514684D01*
X8370734Y-6585198D01*
X8365773Y-6588150D01*
X8365772Y-6588150D01*
X8217423Y-6676409D01*
X8195649Y-6689363D01*
X8042478Y-6823690D01*
X8038911Y-6828215D01*
X8038906Y-6828220D01*
X7969909Y-6915743D01*
X7916351Y-6983681D01*
X7913662Y-6988792D01*
X7913660Y-6988795D01*
X7904984Y-7005286D01*
X7821492Y-7163978D01*
X7761078Y-7358543D01*
X7737132Y-7560859D01*
X1992625Y-7560859D01*
X1998428Y-7545516D01*
X2025780Y-7518909D01*
X2112468Y-7457075D01*
X2204860Y-7391173D01*
X2363096Y-7233489D01*
X2393594Y-7191047D01*
X2490435Y-7056277D01*
X2493453Y-7052077D01*
X2513189Y-7012145D01*
X2590136Y-6856453D01*
X2590137Y-6856451D01*
X2592430Y-6851811D01*
X2639526Y-6696800D01*
X2655865Y-6643023D01*
X2655865Y-6643021D01*
X2657370Y-6638069D01*
X2686529Y-6416590D01*
X2686885Y-6402022D01*
X2688074Y-6353365D01*
X2688074Y-6353361D01*
X2688156Y-6350000D01*
X2669852Y-6127361D01*
X2615431Y-5910702D01*
X2526354Y-5705840D01*
X2486906Y-5644862D01*
X2407822Y-5522617D01*
X2407820Y-5522614D01*
X2405014Y-5518277D01*
X2254670Y-5353051D01*
X2250619Y-5349852D01*
X2250615Y-5349848D01*
X2083414Y-5217800D01*
X2083410Y-5217798D01*
X2079359Y-5214598D01*
X1883789Y-5106638D01*
X1878920Y-5104914D01*
X1878916Y-5104912D01*
X1678087Y-5033795D01*
X1678083Y-5033794D01*
X1673212Y-5032069D01*
X1668119Y-5031162D01*
X1668116Y-5031161D01*
X1458373Y-4993800D01*
X1458367Y-4993799D01*
X1453284Y-4992894D01*
X1379452Y-4991992D01*
X1235081Y-4990228D01*
X1235079Y-4990228D01*
X1229911Y-4990165D01*
X1009091Y-5023955D01*
X796756Y-5093357D01*
X792168Y-5095745D01*
X792164Y-5095747D01*
X679879Y-5154199D01*
X610219Y-5167912D01*
X544204Y-5141787D01*
X502793Y-5084118D01*
X495699Y-5042436D01*
X495699Y-2634981D01*
X515701Y-2566860D01*
X569357Y-2520367D01*
X639631Y-2510263D01*
X685269Y-2526193D01*
X736755Y-2556279D01*
X746042Y-2560729D01*
X945001Y-2636703D01*
X954899Y-2639579D01*
X1058250Y-2660606D01*
X1072299Y-2659410D01*
X1076000Y-2649065D01*
X1076000Y-1202000D01*
X1096002Y-1133879D01*
X1149658Y-1087386D01*
X1202000Y-1076000D01*
X1458000Y-1076000D01*
X1526121Y-1096002D01*
G37*
%TD.AperFunction*%
%TA.AperFunction,Conductor*%
G36*
X80878621Y-2708502D02*
G01*
X80925114Y-2762158D01*
X80936500Y-2814500D01*
X80936500Y-5469265D01*
X80916498Y-5537386D01*
X80862842Y-5583879D01*
X80792568Y-5593983D01*
X80727988Y-5564489D01*
X80698838Y-5527640D01*
X80640393Y-5415846D01*
X80633679Y-5405585D01*
X80517532Y-5261127D01*
X80508954Y-5252368D01*
X80366961Y-5133222D01*
X80356841Y-5126292D01*
X80194415Y-5036998D01*
X80183142Y-5032166D01*
X80006462Y-4976120D01*
X79994468Y-4973570D01*
X79850239Y-4957393D01*
X79843215Y-4957000D01*
X79612115Y-4957000D01*
X79596876Y-4961475D01*
X79595671Y-4962865D01*
X79594000Y-4970548D01*
X79594000Y-6954885D01*
X79598475Y-6970124D01*
X79599865Y-6971329D01*
X79607548Y-6973000D01*
X79836657Y-6973000D01*
X79842805Y-6972699D01*
X79980603Y-6959188D01*
X79992638Y-6956805D01*
X80170076Y-6903233D01*
X80181416Y-6898559D01*
X80345077Y-6811540D01*
X80355294Y-6804751D01*
X80498933Y-6687603D01*
X80507637Y-6678959D01*
X80625784Y-6536144D01*
X80632644Y-6525973D01*
X80699664Y-6402022D01*
X80749659Y-6351614D01*
X80818970Y-6336236D01*
X80885592Y-6360772D01*
X80928373Y-6417432D01*
X80936500Y-6461951D01*
X80936500Y-14119265D01*
X80916498Y-14187386D01*
X80862842Y-14233879D01*
X80792568Y-14243983D01*
X80727988Y-14214489D01*
X80698838Y-14177640D01*
X80640393Y-14065846D01*
X80633679Y-14055585D01*
X80517532Y-13911127D01*
X80508954Y-13902368D01*
X80366961Y-13783222D01*
X80356841Y-13776292D01*
X80194415Y-13686998D01*
X80183142Y-13682166D01*
X80006462Y-13626120D01*
X79994468Y-13623570D01*
X79850239Y-13607393D01*
X79843215Y-13607000D01*
X79612115Y-13607000D01*
X79596876Y-13611475D01*
X79595671Y-13612865D01*
X79594000Y-13620548D01*
X79594000Y-15604885D01*
X79598475Y-15620124D01*
X79599865Y-15621329D01*
X79607548Y-15623000D01*
X79836657Y-15623000D01*
X79842805Y-15622699D01*
X79980603Y-15609188D01*
X79992638Y-15606805D01*
X80170076Y-15553233D01*
X80181416Y-15548559D01*
X80345077Y-15461540D01*
X80355294Y-15454751D01*
X80498933Y-15337603D01*
X80507637Y-15328959D01*
X80625784Y-15186144D01*
X80632644Y-15175973D01*
X80699664Y-15052022D01*
X80749659Y-15001614D01*
X80818970Y-14986236D01*
X80885592Y-15010772D01*
X80928373Y-15067432D01*
X80936500Y-15111951D01*
X80936500Y-17495500D01*
X80916498Y-17563621D01*
X80862842Y-17610114D01*
X80810500Y-17621500D01*
X79594950Y-17621500D01*
X79526829Y-17601498D01*
X79505855Y-17584595D01*
X79063655Y-17142395D01*
X79055665Y-17133615D01*
X79055663Y-17133613D01*
X79051416Y-17126920D01*
X78999742Y-17078395D01*
X78996901Y-17075641D01*
X78976333Y-17055073D01*
X78972826Y-17052353D01*
X78963804Y-17044647D01*
X78935913Y-17018456D01*
X78930133Y-17013028D01*
X78923181Y-17009206D01*
X78911342Y-17002697D01*
X78894818Y-16991843D01*
X78884132Y-16983555D01*
X78877868Y-16978696D01*
X78870596Y-16975549D01*
X78870594Y-16975548D01*
X78835465Y-16960346D01*
X78824805Y-16955124D01*
X78791284Y-16936695D01*
X78791282Y-16936694D01*
X78784337Y-16932876D01*
X78763559Y-16927541D01*
X78744869Y-16921142D01*
X78725176Y-16912620D01*
X78679552Y-16905394D01*
X78667929Y-16902987D01*
X78639928Y-16895798D01*
X78623188Y-16891500D01*
X78601741Y-16891500D01*
X78582031Y-16889949D01*
X78568677Y-16887834D01*
X78560848Y-16886594D01*
X78514859Y-16890941D01*
X78503004Y-16891500D01*
X67284950Y-16891500D01*
X67216829Y-16871498D01*
X67195855Y-16854595D01*
X65222028Y-14880768D01*
X73617425Y-14880768D01*
X73649138Y-14988521D01*
X73653731Y-14999889D01*
X73739607Y-15164154D01*
X73746321Y-15174415D01*
X73862468Y-15318873D01*
X73871046Y-15327632D01*
X74013039Y-15446778D01*
X74023159Y-15453708D01*
X74185585Y-15543002D01*
X74196858Y-15547834D01*
X74373538Y-15603880D01*
X74385532Y-15606430D01*
X74529761Y-15622607D01*
X74536785Y-15623000D01*
X74867885Y-15623000D01*
X74883124Y-15618525D01*
X74884329Y-15617135D01*
X74886000Y-15609452D01*
X74886000Y-15604885D01*
X75394000Y-15604885D01*
X75398475Y-15620124D01*
X75399865Y-15621329D01*
X75407548Y-15623000D01*
X75736657Y-15623000D01*
X75742805Y-15622699D01*
X75880603Y-15609188D01*
X75892638Y-15606805D01*
X76070076Y-15553233D01*
X76081416Y-15548559D01*
X76245077Y-15461540D01*
X76255294Y-15454751D01*
X76398933Y-15337603D01*
X76407637Y-15328959D01*
X76525784Y-15186144D01*
X76532644Y-15175973D01*
X76620804Y-15012924D01*
X76625558Y-15001614D01*
X76661250Y-14886308D01*
X76661331Y-14880768D01*
X77917425Y-14880768D01*
X77949138Y-14988521D01*
X77953731Y-14999889D01*
X78039607Y-15164154D01*
X78046321Y-15174415D01*
X78162468Y-15318873D01*
X78171046Y-15327632D01*
X78313039Y-15446778D01*
X78323159Y-15453708D01*
X78485585Y-15543002D01*
X78496858Y-15547834D01*
X78673538Y-15603880D01*
X78685532Y-15606430D01*
X78829761Y-15622607D01*
X78836785Y-15623000D01*
X79067885Y-15623000D01*
X79083124Y-15618525D01*
X79084329Y-15617135D01*
X79086000Y-15609452D01*
X79086000Y-14887115D01*
X79081525Y-14871876D01*
X79080135Y-14870671D01*
X79072452Y-14869000D01*
X77932076Y-14869000D01*
X77918545Y-14872973D01*
X77917425Y-14880768D01*
X76661331Y-14880768D01*
X76661456Y-14872205D01*
X76654701Y-14869000D01*
X75412115Y-14869000D01*
X75396876Y-14873475D01*
X75395671Y-14874865D01*
X75394000Y-14882548D01*
X75394000Y-15604885D01*
X74886000Y-15604885D01*
X74886000Y-14887115D01*
X74881525Y-14871876D01*
X74880135Y-14870671D01*
X74872452Y-14869000D01*
X73632076Y-14869000D01*
X73618545Y-14872973D01*
X73617425Y-14880768D01*
X65222028Y-14880768D01*
X64699055Y-14357795D01*
X73618544Y-14357795D01*
X73625299Y-14361000D01*
X76647924Y-14361000D01*
X76658839Y-14357795D01*
X77918544Y-14357795D01*
X77925299Y-14361000D01*
X79067885Y-14361000D01*
X79083124Y-14356525D01*
X79084329Y-14355135D01*
X79086000Y-14347452D01*
X79086000Y-13625115D01*
X79081525Y-13609876D01*
X79080135Y-13608671D01*
X79072452Y-13607000D01*
X78843343Y-13607000D01*
X78837195Y-13607301D01*
X78699397Y-13620812D01*
X78687362Y-13623195D01*
X78509924Y-13676767D01*
X78498584Y-13681441D01*
X78334923Y-13768460D01*
X78324706Y-13775249D01*
X78181067Y-13892397D01*
X78172363Y-13901041D01*
X78054216Y-14043856D01*
X78047356Y-14054027D01*
X77959196Y-14217076D01*
X77954444Y-14228381D01*
X77918750Y-14343692D01*
X77918544Y-14357795D01*
X76658839Y-14357795D01*
X76661455Y-14357027D01*
X76662575Y-14349232D01*
X76630862Y-14241479D01*
X76626269Y-14230111D01*
X76540393Y-14065846D01*
X76533679Y-14055585D01*
X76417532Y-13911127D01*
X76408954Y-13902368D01*
X76335621Y-13840834D01*
X76296294Y-13781724D01*
X76295168Y-13710737D01*
X76312400Y-13673489D01*
X76327237Y-13651658D01*
X76380277Y-13573612D01*
X76447530Y-13405466D01*
X76448644Y-13398738D01*
X76448645Y-13398734D01*
X76475993Y-13233539D01*
X76475993Y-13233536D01*
X76477108Y-13226802D01*
X76476564Y-13216405D01*
X76467987Y-13052766D01*
X76467630Y-13045953D01*
X76455633Y-13002396D01*
X76421352Y-12877941D01*
X76419539Y-12871359D01*
X76335078Y-12711164D01*
X76330673Y-12705951D01*
X76330670Y-12705947D01*
X76222594Y-12578057D01*
X76222590Y-12578053D01*
X76218187Y-12572843D01*
X76212762Y-12568695D01*
X76079743Y-12466994D01*
X76079739Y-12466991D01*
X76074322Y-12462850D01*
X75955394Y-12407393D01*
X75916369Y-12389195D01*
X75916366Y-12389194D01*
X75910192Y-12386315D01*
X75903544Y-12384829D01*
X75903541Y-12384828D01*
X75738494Y-12347936D01*
X75738495Y-12347936D01*
X75733457Y-12346810D01*
X75727912Y-12346500D01*
X75594756Y-12346500D01*
X75459963Y-12361143D01*
X75376609Y-12389195D01*
X75294796Y-12416728D01*
X75294794Y-12416729D01*
X75288325Y-12418906D01*
X75133095Y-12512177D01*
X75128138Y-12516865D01*
X75128135Y-12516867D01*
X75025905Y-12613542D01*
X75001515Y-12636607D01*
X74997683Y-12642245D01*
X74997680Y-12642249D01*
X74903558Y-12780745D01*
X74899723Y-12786388D01*
X74832470Y-12954534D01*
X74831356Y-12961262D01*
X74831355Y-12961266D01*
X74805412Y-13117977D01*
X74802892Y-13133198D01*
X74803249Y-13140015D01*
X74803249Y-13140019D01*
X74808151Y-13233539D01*
X74812370Y-13314047D01*
X74814181Y-13320620D01*
X74814181Y-13320623D01*
X74849140Y-13447540D01*
X74847946Y-13518527D01*
X74808563Y-13577599D01*
X74743496Y-13606001D01*
X74727664Y-13607000D01*
X74543343Y-13607000D01*
X74537195Y-13607301D01*
X74399397Y-13620812D01*
X74387362Y-13623195D01*
X74209924Y-13676767D01*
X74198584Y-13681441D01*
X74034923Y-13768460D01*
X74024706Y-13775249D01*
X73881067Y-13892397D01*
X73872363Y-13901041D01*
X73754216Y-14043856D01*
X73747356Y-14054027D01*
X73659196Y-14217076D01*
X73654444Y-14228381D01*
X73618750Y-14343692D01*
X73618544Y-14357795D01*
X64699055Y-14357795D01*
X63302119Y-12960859D01*
X69747132Y-12960859D01*
X69760457Y-13164151D01*
X69810605Y-13361610D01*
X69895898Y-13546624D01*
X70013479Y-13712997D01*
X70017613Y-13717024D01*
X70137372Y-13833688D01*
X70159410Y-13855157D01*
X70164206Y-13858362D01*
X70164209Y-13858364D01*
X70228080Y-13901041D01*
X70328803Y-13968342D01*
X70334106Y-13970620D01*
X70334109Y-13970622D01*
X70504566Y-14043856D01*
X70515987Y-14048763D01*
X70588817Y-14065243D01*
X70709055Y-14092450D01*
X70709060Y-14092451D01*
X70714692Y-14093725D01*
X70720463Y-14093952D01*
X70720465Y-14093952D01*
X70783470Y-14096427D01*
X70918263Y-14101723D01*
X71119883Y-14072490D01*
X71125347Y-14070635D01*
X71125352Y-14070634D01*
X71307327Y-14008862D01*
X71307332Y-14008860D01*
X71312799Y-14007004D01*
X71490551Y-13907458D01*
X71647186Y-13777186D01*
X71777458Y-13620551D01*
X71851331Y-13488641D01*
X71874180Y-13447842D01*
X71874181Y-13447840D01*
X71877004Y-13442799D01*
X71878861Y-13437327D01*
X71880808Y-13432955D01*
X71926788Y-13378860D01*
X71994715Y-13358211D01*
X72063023Y-13377564D01*
X72094657Y-13405938D01*
X72104894Y-13418854D01*
X72109581Y-13422843D01*
X72109584Y-13422846D01*
X72258284Y-13549399D01*
X72262976Y-13553392D01*
X72444180Y-13654664D01*
X72641603Y-13718810D01*
X72847725Y-13743389D01*
X72853860Y-13742917D01*
X72853862Y-13742917D01*
X73048555Y-13727936D01*
X73048560Y-13727935D01*
X73054696Y-13727463D01*
X73060626Y-13725807D01*
X73060628Y-13725807D01*
X73194812Y-13688342D01*
X73254632Y-13671640D01*
X73294190Y-13651658D01*
X73434416Y-13580825D01*
X73434418Y-13580824D01*
X73439917Y-13578046D01*
X73603495Y-13450245D01*
X73739133Y-13293106D01*
X73757157Y-13261379D01*
X73813158Y-13162799D01*
X73841667Y-13112614D01*
X73907190Y-12915644D01*
X73933207Y-12709698D01*
X73933474Y-12690593D01*
X73933573Y-12683522D01*
X73933573Y-12683518D01*
X73933622Y-12680000D01*
X73921744Y-12558862D01*
X73913966Y-12479534D01*
X73913965Y-12479531D01*
X73913365Y-12473408D01*
X73870008Y-12329800D01*
X73855152Y-12280593D01*
X73855151Y-12280590D01*
X73853368Y-12274685D01*
X73840090Y-12249713D01*
X73758809Y-12096847D01*
X73758808Y-12096845D01*
X73755913Y-12091401D01*
X73752019Y-12086626D01*
X73752012Y-12086616D01*
X73666857Y-11982206D01*
X73639303Y-11916775D01*
X73638500Y-11902571D01*
X73638500Y-11029343D01*
X74566775Y-11029343D01*
X74583381Y-11198699D01*
X74585605Y-11205384D01*
X74585605Y-11205385D01*
X74591413Y-11222845D01*
X74637094Y-11360167D01*
X74640741Y-11366189D01*
X74640742Y-11366191D01*
X74720872Y-11498500D01*
X74725246Y-11505723D01*
X74843455Y-11628132D01*
X74863835Y-11641468D01*
X74973054Y-11712939D01*
X74985846Y-11721310D01*
X74992450Y-11723766D01*
X74992452Y-11723767D01*
X75028844Y-11737301D01*
X75145341Y-11780626D01*
X75314015Y-11803132D01*
X75321026Y-11802494D01*
X75321030Y-11802494D01*
X75476462Y-11788348D01*
X75483483Y-11787709D01*
X75490185Y-11785531D01*
X75490187Y-11785531D01*
X75638623Y-11737301D01*
X75638626Y-11737300D01*
X75645322Y-11735124D01*
X75791490Y-11647990D01*
X75796584Y-11643139D01*
X75796588Y-11643136D01*
X75901562Y-11543170D01*
X75914721Y-11530639D01*
X75932855Y-11503346D01*
X75962657Y-11458489D01*
X76008891Y-11388902D01*
X76069319Y-11229825D01*
X76093001Y-11061313D01*
X76093299Y-11040000D01*
X76074331Y-10870892D01*
X76069153Y-10856021D01*
X76028288Y-10738675D01*
X76018368Y-10710189D01*
X75957645Y-10613013D01*
X75938500Y-10546245D01*
X75938500Y-10532890D01*
X75959552Y-10463163D01*
X75979558Y-10433051D01*
X76008891Y-10388902D01*
X76069319Y-10229825D01*
X76093001Y-10061313D01*
X76093299Y-10040000D01*
X76074331Y-9870892D01*
X76018368Y-9710189D01*
X76012383Y-9700610D01*
X75975457Y-9641518D01*
X75928192Y-9565879D01*
X75904470Y-9541990D01*
X75836130Y-9473171D01*
X75808286Y-9445132D01*
X75801207Y-9440639D01*
X75731580Y-9396453D01*
X75664608Y-9353951D01*
X75504300Y-9296868D01*
X75335329Y-9276720D01*
X75328326Y-9277456D01*
X75328325Y-9277456D01*
X75173101Y-9293770D01*
X75173097Y-9293771D01*
X75166093Y-9294507D01*
X75159422Y-9296778D01*
X75011673Y-9347075D01*
X75011670Y-9347076D01*
X75005003Y-9349346D01*
X74999005Y-9353036D01*
X74999003Y-9353037D01*
X74866065Y-9434821D01*
X74866063Y-9434823D01*
X74860066Y-9438512D01*
X74855033Y-9443441D01*
X74763514Y-9533064D01*
X74738486Y-9557573D01*
X74734675Y-9563487D01*
X74734673Y-9563489D01*
X74652138Y-9691558D01*
X74646304Y-9700610D01*
X74588103Y-9860516D01*
X74566775Y-10029343D01*
X74583381Y-10198699D01*
X74637094Y-10360167D01*
X74640741Y-10366189D01*
X74640742Y-10366191D01*
X74703276Y-10469447D01*
X74721500Y-10534718D01*
X74721500Y-10546846D01*
X74701411Y-10615102D01*
X74665949Y-10670128D01*
X74646304Y-10700610D01*
X74588103Y-10860516D01*
X74566775Y-11029343D01*
X73638500Y-11029343D01*
X73638500Y-8678136D01*
X73658502Y-8610015D01*
X73669118Y-8595805D01*
X73745109Y-8507768D01*
X73745110Y-8507767D01*
X73749133Y-8503106D01*
X73772117Y-8462648D01*
X73818569Y-8380877D01*
X73851667Y-8322614D01*
X73917190Y-8125644D01*
X73943207Y-7919698D01*
X73943622Y-7890000D01*
X73930659Y-7757800D01*
X73923966Y-7689534D01*
X73923965Y-7689531D01*
X73923365Y-7683408D01*
X73863368Y-7484685D01*
X73853769Y-7466632D01*
X73768809Y-7306847D01*
X73768808Y-7306845D01*
X73765913Y-7301401D01*
X73710525Y-7233489D01*
X73638610Y-7145311D01*
X73638607Y-7145308D01*
X73634715Y-7140536D01*
X73627776Y-7134795D01*
X73479518Y-7012145D01*
X73479519Y-7012145D01*
X73474770Y-7008217D01*
X73469353Y-7005288D01*
X73469350Y-7005286D01*
X73297590Y-6912416D01*
X73297585Y-6912414D01*
X73292170Y-6909486D01*
X73093871Y-6848102D01*
X73087746Y-6847458D01*
X73087745Y-6847458D01*
X72893554Y-6827048D01*
X72893552Y-6827048D01*
X72887425Y-6826404D01*
X72801515Y-6834223D01*
X72686836Y-6844659D01*
X72686833Y-6844660D01*
X72680697Y-6845218D01*
X72674791Y-6846956D01*
X72674787Y-6846957D01*
X72526932Y-6890473D01*
X72481560Y-6903827D01*
X72297600Y-6999999D01*
X72292800Y-7003859D01*
X72292799Y-7003859D01*
X72282493Y-7012145D01*
X72135823Y-7130071D01*
X72131864Y-7134789D01*
X72131858Y-7134795D01*
X72095144Y-7178549D01*
X72036035Y-7217876D01*
X71965047Y-7219002D01*
X71904720Y-7181571D01*
X71885617Y-7153286D01*
X71811756Y-7003510D01*
X71809201Y-6998329D01*
X71795316Y-6979734D01*
X71690758Y-6839715D01*
X71690758Y-6839714D01*
X71687305Y-6835091D01*
X71575974Y-6732177D01*
X71541943Y-6700719D01*
X71541940Y-6700717D01*
X71537703Y-6696800D01*
X71436489Y-6632939D01*
X71370288Y-6591169D01*
X71370283Y-6591167D01*
X71365404Y-6588088D01*
X71176180Y-6512595D01*
X70976366Y-6472849D01*
X70970592Y-6472773D01*
X70970588Y-6472773D01*
X70867452Y-6471424D01*
X70772655Y-6470183D01*
X70766958Y-6471162D01*
X70766957Y-6471162D01*
X70692384Y-6483976D01*
X70571870Y-6504684D01*
X70380734Y-6575198D01*
X70375773Y-6578150D01*
X70375772Y-6578150D01*
X70342260Y-6598088D01*
X70205649Y-6679363D01*
X70052478Y-6813690D01*
X70048911Y-6818215D01*
X70048906Y-6818220D01*
X69972039Y-6915726D01*
X69926351Y-6973681D01*
X69923662Y-6978792D01*
X69923660Y-6978795D01*
X69908122Y-7008329D01*
X69831492Y-7153978D01*
X69771078Y-7348543D01*
X69747132Y-7550859D01*
X69760457Y-7754151D01*
X69810605Y-7951610D01*
X69895898Y-8136624D01*
X70013479Y-8302997D01*
X70159410Y-8445157D01*
X70164206Y-8448362D01*
X70164209Y-8448364D01*
X70247115Y-8503760D01*
X70328803Y-8558342D01*
X70334106Y-8560620D01*
X70334109Y-8560622D01*
X70506009Y-8634476D01*
X70515987Y-8638763D01*
X70565816Y-8650038D01*
X70709055Y-8682450D01*
X70709060Y-8682451D01*
X70714692Y-8683725D01*
X70720463Y-8683952D01*
X70720465Y-8683952D01*
X70783470Y-8686427D01*
X70918263Y-8691723D01*
X71119883Y-8662490D01*
X71125347Y-8660635D01*
X71125352Y-8660634D01*
X71307327Y-8598862D01*
X71307332Y-8598860D01*
X71312799Y-8597004D01*
X71342957Y-8580115D01*
X71387567Y-8555132D01*
X71490551Y-8497458D01*
X71647186Y-8367186D01*
X71703286Y-8299734D01*
X71762223Y-8260151D01*
X71833205Y-8258715D01*
X71893695Y-8295883D01*
X71912225Y-8322710D01*
X71924407Y-8346414D01*
X71980294Y-8455157D01*
X71985955Y-8466173D01*
X72094246Y-8602803D01*
X72120883Y-8668610D01*
X72121500Y-8681065D01*
X72121500Y-11879362D01*
X72101498Y-11947483D01*
X72092022Y-11960353D01*
X72043451Y-12018238D01*
X71992391Y-12079089D01*
X71989427Y-12084481D01*
X71989424Y-12084485D01*
X71904741Y-12238523D01*
X71854395Y-12288582D01*
X71784978Y-12303475D01*
X71718529Y-12278474D01*
X71693367Y-12253209D01*
X71687305Y-12245091D01*
X71569591Y-12136277D01*
X71541943Y-12110719D01*
X71541940Y-12110717D01*
X71537703Y-12106800D01*
X71483992Y-12072911D01*
X71370288Y-12001169D01*
X71370283Y-12001167D01*
X71365404Y-11998088D01*
X71176180Y-11922595D01*
X70976366Y-11882849D01*
X70970592Y-11882773D01*
X70970588Y-11882773D01*
X70867452Y-11881424D01*
X70772655Y-11880183D01*
X70766958Y-11881162D01*
X70766957Y-11881162D01*
X70619120Y-11906565D01*
X70571870Y-11914684D01*
X70380734Y-11985198D01*
X70375773Y-11988150D01*
X70375772Y-11988150D01*
X70314015Y-12024892D01*
X70205649Y-12089363D01*
X70052478Y-12223690D01*
X70048911Y-12228215D01*
X70048906Y-12228220D01*
X69968827Y-12329800D01*
X69926351Y-12383681D01*
X69923662Y-12388792D01*
X69923660Y-12388795D01*
X69890580Y-12451670D01*
X69831492Y-12563978D01*
X69771078Y-12758543D01*
X69747132Y-12960859D01*
X63302119Y-12960859D01*
X61829502Y-11488242D01*
X61795476Y-11425930D01*
X61793425Y-11409972D01*
X61793138Y-11410000D01*
X61781116Y-11287393D01*
X61774795Y-11222926D01*
X61767481Y-11198699D01*
X61747073Y-11131107D01*
X61720465Y-11042977D01*
X61632218Y-10877008D01*
X61554318Y-10781492D01*
X61516857Y-10735560D01*
X61489303Y-10670128D01*
X61488500Y-10655925D01*
X61488500Y-6230768D01*
X73617425Y-6230768D01*
X73649138Y-6338521D01*
X73653731Y-6349889D01*
X73739607Y-6514154D01*
X73746321Y-6524415D01*
X73862468Y-6668873D01*
X73871046Y-6677632D01*
X74013039Y-6796778D01*
X74023159Y-6803708D01*
X74185585Y-6893002D01*
X74196858Y-6897834D01*
X74373538Y-6953880D01*
X74385532Y-6956430D01*
X74529761Y-6972607D01*
X74536785Y-6973000D01*
X74726977Y-6973000D01*
X74795098Y-6993002D01*
X74841591Y-7046658D01*
X74851695Y-7116932D01*
X74843966Y-7145792D01*
X74835004Y-7168197D01*
X74835003Y-7168202D01*
X74832470Y-7174534D01*
X74831356Y-7181262D01*
X74831355Y-7181266D01*
X74813505Y-7289089D01*
X74802892Y-7353198D01*
X74803249Y-7360015D01*
X74803249Y-7360019D01*
X74809783Y-7484685D01*
X74812370Y-7534047D01*
X74814181Y-7540620D01*
X74814181Y-7540623D01*
X74851437Y-7675879D01*
X74860461Y-7708641D01*
X74944922Y-7868836D01*
X74949327Y-7874049D01*
X74949330Y-7874053D01*
X75057406Y-8001943D01*
X75057410Y-8001947D01*
X75061813Y-8007157D01*
X75067237Y-8011304D01*
X75067238Y-8011305D01*
X75200257Y-8113006D01*
X75200261Y-8113009D01*
X75205678Y-8117150D01*
X75278999Y-8151340D01*
X75363631Y-8190805D01*
X75363634Y-8190806D01*
X75369808Y-8193685D01*
X75376456Y-8195171D01*
X75376459Y-8195172D01*
X75482421Y-8218857D01*
X75546543Y-8233190D01*
X75552088Y-8233500D01*
X75685244Y-8233500D01*
X75820037Y-8218857D01*
X75949692Y-8175223D01*
X75985204Y-8163272D01*
X75985206Y-8163271D01*
X75991675Y-8161094D01*
X76146905Y-8067823D01*
X76151862Y-8063135D01*
X76151865Y-8063133D01*
X76273527Y-7948082D01*
X76273529Y-7948080D01*
X76278485Y-7943393D01*
X76282317Y-7937755D01*
X76282320Y-7937751D01*
X76376442Y-7799255D01*
X76380277Y-7793612D01*
X76447530Y-7625466D01*
X76448644Y-7618738D01*
X76448645Y-7618734D01*
X76475993Y-7453539D01*
X76475993Y-7453536D01*
X76477108Y-7446802D01*
X76475011Y-7406778D01*
X76467987Y-7272766D01*
X76467630Y-7265953D01*
X76454388Y-7217876D01*
X76421352Y-7097941D01*
X76419539Y-7091359D01*
X76335078Y-6931164D01*
X76322046Y-6915743D01*
X76293353Y-6850803D01*
X76304325Y-6780659D01*
X76338647Y-6736771D01*
X76398932Y-6687603D01*
X76407637Y-6678959D01*
X76525784Y-6536144D01*
X76532644Y-6525973D01*
X76620804Y-6362924D01*
X76625558Y-6351614D01*
X76661250Y-6236308D01*
X76661331Y-6230768D01*
X77917425Y-6230768D01*
X77949138Y-6338521D01*
X77953731Y-6349889D01*
X78039607Y-6514154D01*
X78046321Y-6524415D01*
X78162468Y-6668873D01*
X78171046Y-6677632D01*
X78313039Y-6796778D01*
X78323159Y-6803708D01*
X78485585Y-6893002D01*
X78496858Y-6897834D01*
X78673538Y-6953880D01*
X78685532Y-6956430D01*
X78829761Y-6972607D01*
X78836785Y-6973000D01*
X79067885Y-6973000D01*
X79083124Y-6968525D01*
X79084329Y-6967135D01*
X79086000Y-6959452D01*
X79086000Y-6237115D01*
X79081525Y-6221876D01*
X79080135Y-6220671D01*
X79072452Y-6219000D01*
X77932076Y-6219000D01*
X77918545Y-6222973D01*
X77917425Y-6230768D01*
X76661331Y-6230768D01*
X76661456Y-6222205D01*
X76654701Y-6219000D01*
X73632076Y-6219000D01*
X73618545Y-6222973D01*
X73617425Y-6230768D01*
X61488500Y-6230768D01*
X61488500Y-5900938D01*
X61508502Y-5832817D01*
X61519119Y-5818607D01*
X61612994Y-5709852D01*
X61612995Y-5709850D01*
X61614769Y-5707795D01*
X73618544Y-5707795D01*
X73625299Y-5711000D01*
X74867885Y-5711000D01*
X74883124Y-5706525D01*
X74884329Y-5705135D01*
X74886000Y-5697452D01*
X74886000Y-5692885D01*
X75394000Y-5692885D01*
X75398475Y-5708124D01*
X75399865Y-5709329D01*
X75407548Y-5711000D01*
X76647924Y-5711000D01*
X76658839Y-5707795D01*
X77918544Y-5707795D01*
X77925299Y-5711000D01*
X79067885Y-5711000D01*
X79083124Y-5706525D01*
X79084329Y-5705135D01*
X79086000Y-5697452D01*
X79086000Y-4975115D01*
X79081525Y-4959876D01*
X79080135Y-4958671D01*
X79072452Y-4957000D01*
X78843343Y-4957000D01*
X78837195Y-4957301D01*
X78699397Y-4970812D01*
X78687362Y-4973195D01*
X78509924Y-5026767D01*
X78498584Y-5031441D01*
X78334923Y-5118460D01*
X78324706Y-5125249D01*
X78181067Y-5242397D01*
X78172363Y-5251041D01*
X78054216Y-5393856D01*
X78047356Y-5404027D01*
X77959196Y-5567076D01*
X77954444Y-5578381D01*
X77918750Y-5693692D01*
X77918544Y-5707795D01*
X76658839Y-5707795D01*
X76661455Y-5707027D01*
X76662575Y-5699232D01*
X76630862Y-5591479D01*
X76626269Y-5580111D01*
X76540393Y-5415846D01*
X76533679Y-5405585D01*
X76417532Y-5261127D01*
X76408954Y-5252368D01*
X76266961Y-5133222D01*
X76256841Y-5126292D01*
X76094415Y-5036998D01*
X76083142Y-5032166D01*
X75906462Y-4976120D01*
X75894468Y-4973570D01*
X75750239Y-4957393D01*
X75743215Y-4957000D01*
X75412115Y-4957000D01*
X75396876Y-4961475D01*
X75395671Y-4962865D01*
X75394000Y-4970548D01*
X75394000Y-5692885D01*
X74886000Y-5692885D01*
X74886000Y-4975115D01*
X74881525Y-4959876D01*
X74880135Y-4958671D01*
X74872452Y-4957000D01*
X74543343Y-4957000D01*
X74537195Y-4957301D01*
X74399397Y-4970812D01*
X74387362Y-4973195D01*
X74209924Y-5026767D01*
X74198584Y-5031441D01*
X74034923Y-5118460D01*
X74024706Y-5125249D01*
X73881067Y-5242397D01*
X73872363Y-5251041D01*
X73754216Y-5393856D01*
X73747356Y-5404027D01*
X73659196Y-5567076D01*
X73654444Y-5578381D01*
X73618750Y-5693692D01*
X73618544Y-5707795D01*
X61614769Y-5707795D01*
X61617023Y-5705184D01*
X61709870Y-5541744D01*
X61769203Y-5363382D01*
X61792762Y-5176892D01*
X61792888Y-5167912D01*
X61793089Y-5153522D01*
X61793089Y-5153518D01*
X61793138Y-5150000D01*
X61774795Y-4962926D01*
X61720465Y-4782977D01*
X61632218Y-4617008D01*
X61513415Y-4471340D01*
X61459603Y-4426823D01*
X61373329Y-4355450D01*
X61373324Y-4355447D01*
X61368580Y-4351522D01*
X61363161Y-4348592D01*
X61363158Y-4348590D01*
X61293671Y-4311019D01*
X61203231Y-4262119D01*
X61050579Y-4214865D01*
X60991419Y-4175614D01*
X60962872Y-4110609D01*
X60974001Y-4040490D01*
X61021272Y-3987519D01*
X61087838Y-3968500D01*
X77891864Y-3968500D01*
X77908307Y-3969578D01*
X77940000Y-3973750D01*
X77948189Y-3972672D01*
X77979874Y-3968501D01*
X77979884Y-3968500D01*
X77979885Y-3968500D01*
X78079457Y-3955391D01*
X78090664Y-3953916D01*
X78090666Y-3953915D01*
X78098851Y-3952838D01*
X78246876Y-3891524D01*
X78257210Y-3883595D01*
X78342072Y-3818477D01*
X78342075Y-3818474D01*
X78367434Y-3799015D01*
X78373987Y-3793987D01*
X78379017Y-3787432D01*
X78393452Y-3768621D01*
X78404319Y-3756230D01*
X79435144Y-2725405D01*
X79497456Y-2691379D01*
X79524239Y-2688500D01*
X80810500Y-2688500D01*
X80878621Y-2708502D01*
G37*
%TD.AperFunction*%
%TD*%
M02*
