%TF.GenerationSoftware,KiCad,Pcbnew,7.0.7*%
%TF.CreationDate,2023-08-30T18:59:36+08:00*%
%TF.ProjectId,UINIO-MCU-GD32F350RBT6,55494e49-4f2d-44d4-9355-2d4744333246,Version 3.0.0*%
%TF.SameCoordinates,PX6a581f0PY5923d30*%
%TF.FileFunction,Soldermask,Bot*%
%TF.FilePolarity,Negative*%
%FSLAX46Y46*%
G04 Gerber Fmt 4.6, Leading zero omitted, Abs format (unit mm)*
G04 Created by KiCad (PCBNEW 7.0.7) date 2023-08-30 18:59:36*
%MOMM*%
%LPD*%
G01*
G04 APERTURE LIST*
%ADD10C,1.200000*%
%ADD11C,0.650000*%
%ADD12O,2.100000X1.000000*%
%ADD13O,1.900000X1.000000*%
%ADD14R,1.700000X1.700000*%
%ADD15O,1.700000X1.700000*%
G04 APERTURE END LIST*
D10*
%TO.C,HOLE1*%
X81120000Y-17720000D03*
%TD*%
%TO.C,HOLE3*%
X-3180000Y-17720000D03*
%TD*%
%TO.C,HOLE2*%
X81110000Y-2610000D03*
%TD*%
D11*
%TO.C,USB1*%
X499000Y-7273599D03*
X499000Y-13053599D03*
D12*
X999000Y-5838599D03*
X999000Y-14488599D03*
D13*
X-3201000Y-5838599D03*
X-3201000Y-14488599D03*
%TD*%
D14*
%TO.C,J3*%
X81670000Y-6350000D03*
D15*
X81670000Y-8890000D03*
X81670000Y-11430000D03*
X81670000Y-13970000D03*
%TD*%
D10*
%TO.C,HOLE4*%
X-3180000Y-2610000D03*
%TD*%
D14*
%TO.C,J2*%
X-410000Y-1340000D03*
D15*
X2130000Y-1340000D03*
X4670000Y-1340000D03*
X7210000Y-1340000D03*
X9750000Y-1340000D03*
X12290000Y-1340000D03*
X14830000Y-1340000D03*
X17370000Y-1340000D03*
X19910000Y-1340000D03*
X22450000Y-1340000D03*
X24990000Y-1340000D03*
X27530000Y-1340000D03*
X30070000Y-1340000D03*
X32610000Y-1340000D03*
X35150000Y-1340000D03*
X37690000Y-1340000D03*
X40230000Y-1340000D03*
X42770000Y-1340000D03*
X45310000Y-1340000D03*
X47850000Y-1340000D03*
X50390000Y-1340000D03*
X52930000Y-1340000D03*
X55470000Y-1340000D03*
X58010000Y-1340000D03*
X60550000Y-1340000D03*
X63090000Y-1340000D03*
X65630000Y-1340000D03*
X68170000Y-1340000D03*
X70710000Y-1340000D03*
X73250000Y-1340000D03*
X75790000Y-1340000D03*
X78330000Y-1340000D03*
%TD*%
D14*
%TO.C,J1*%
X-410000Y-18990000D03*
D15*
X2130000Y-18990000D03*
X4670000Y-18990000D03*
X7210000Y-18990000D03*
X9750000Y-18990000D03*
X12290000Y-18990000D03*
X14830000Y-18990000D03*
X17370000Y-18990000D03*
X19910000Y-18990000D03*
X22450000Y-18990000D03*
X24990000Y-18990000D03*
X27530000Y-18990000D03*
X30070000Y-18990000D03*
X32610000Y-18990000D03*
X35150000Y-18990000D03*
X37690000Y-18990000D03*
X40230000Y-18990000D03*
X42770000Y-18990000D03*
X45310000Y-18990000D03*
X47850000Y-18990000D03*
X50390000Y-18990000D03*
X52930000Y-18990000D03*
X55470000Y-18990000D03*
X58010000Y-18990000D03*
X60550000Y-18990000D03*
X63090000Y-18990000D03*
X65630000Y-18990000D03*
X68170000Y-18990000D03*
X70710000Y-18990000D03*
X73250000Y-18990000D03*
X75790000Y-18990000D03*
X78330000Y-18990000D03*
%TD*%
M02*
