%TF.GenerationSoftware,KiCad,Pcbnew,7.0.9*%
%TF.CreationDate,2024-01-12T01:24:11+08:00*%
%TF.ProjectId,UINIO-MCU-GD32F350RBT6,55494e49-4f2d-44d4-9355-2d4744333246,Version 3.0.1*%
%TF.SameCoordinates,PX68576d0PY5926440*%
%TF.FileFunction,Legend,Bot*%
%TF.FilePolarity,Positive*%
%FSLAX46Y46*%
G04 Gerber Fmt 4.6, Leading zero omitted, Abs format (unit mm)*
G04 Created by KiCad (PCBNEW 7.0.9) date 2024-01-12 01:24:11*
%MOMM*%
%LPD*%
G01*
G04 APERTURE LIST*
%ADD10C,0.300000*%
%ADD11C,0.187500*%
%ADD12C,0.100000*%
%ADD13C,0.120000*%
%ADD14C,1.200000*%
%ADD15C,0.650000*%
%ADD16O,2.100000X1.000000*%
%ADD17O,1.900000X1.000000*%
%ADD18R,1.700000X1.700000*%
%ADD19O,1.700000X1.700000*%
G04 APERTURE END LIST*
D10*
G36*
X54608601Y-9959387D02*
G01*
X54644143Y-9967589D01*
X54680881Y-9985530D01*
X54709075Y-10012016D01*
X54728726Y-10047045D01*
X54738295Y-10081220D01*
X54742396Y-10120863D01*
X54742567Y-10131628D01*
X54742567Y-11144552D01*
X54739833Y-11185356D01*
X54731631Y-11220719D01*
X54713689Y-11257273D01*
X54687203Y-11285325D01*
X54652174Y-11304877D01*
X54617999Y-11314398D01*
X54578356Y-11318478D01*
X54567591Y-11318648D01*
X53960013Y-11318648D01*
X53919209Y-11315928D01*
X53883846Y-11307767D01*
X53847292Y-11289916D01*
X53819240Y-11263563D01*
X53799688Y-11228710D01*
X53790167Y-11194707D01*
X53786086Y-11155263D01*
X53785916Y-11144552D01*
X53785916Y-10131628D01*
X53788637Y-10090618D01*
X53796797Y-10055076D01*
X53814649Y-10018338D01*
X53841002Y-9990144D01*
X53875855Y-9970494D01*
X53909858Y-9960925D01*
X53949302Y-9956824D01*
X53960013Y-9956653D01*
X54567591Y-9956653D01*
X54608601Y-9959387D01*
G37*
G36*
X62150554Y-9123761D02*
G01*
X62195041Y-9131018D01*
X62234675Y-9143112D01*
X62269457Y-9160044D01*
X62299385Y-9181814D01*
X62324459Y-9208421D01*
X62344681Y-9239866D01*
X62360049Y-9276149D01*
X62370565Y-9317270D01*
X62376227Y-9363228D01*
X62377305Y-9396555D01*
X62377305Y-11017937D01*
X62374878Y-11067120D01*
X62367599Y-11111466D01*
X62355466Y-11150974D01*
X62338480Y-11185645D01*
X62316640Y-11215477D01*
X62289948Y-11240472D01*
X62258402Y-11260629D01*
X62222003Y-11275949D01*
X62180751Y-11286430D01*
X62134646Y-11292074D01*
X62101213Y-11293150D01*
X61240403Y-11293150D01*
X61191063Y-11290731D01*
X61146575Y-11283474D01*
X61106941Y-11271380D01*
X61072160Y-11254448D01*
X61042232Y-11232678D01*
X61017157Y-11206070D01*
X60996936Y-11174625D01*
X60981567Y-11138342D01*
X60971052Y-11097222D01*
X60965390Y-11051263D01*
X60964311Y-11017937D01*
X60964311Y-9396555D01*
X60966738Y-9347371D01*
X60974018Y-9303026D01*
X60986151Y-9263518D01*
X61003137Y-9228847D01*
X61024976Y-9199015D01*
X61051669Y-9174020D01*
X61083214Y-9153862D01*
X61119613Y-9138543D01*
X61160865Y-9128061D01*
X61206970Y-9122417D01*
X61240403Y-9121342D01*
X62101213Y-9121342D01*
X62150554Y-9123761D01*
G37*
G36*
X74432066Y-12573283D02*
G01*
X47661861Y-12573283D01*
X47661861Y-12008000D01*
X48176147Y-12008000D01*
X49118729Y-12008000D01*
X49118729Y-10156248D01*
X49122936Y-10118278D01*
X49135559Y-10084601D01*
X49156596Y-10055217D01*
X49161813Y-10049856D01*
X49190338Y-10027599D01*
X49223156Y-10013586D01*
X49260268Y-10007815D01*
X49268205Y-10007651D01*
X49293704Y-10007651D01*
X49336672Y-10008477D01*
X49381494Y-10010958D01*
X49428171Y-10015093D01*
X49476703Y-10020881D01*
X49527090Y-10028323D01*
X49579331Y-10037419D01*
X49615189Y-10044401D01*
X49651871Y-10052119D01*
X49689378Y-10060572D01*
X49727709Y-10069760D01*
X49766864Y-10079682D01*
X49806843Y-10090340D01*
X49847647Y-10101733D01*
X49847647Y-12008000D01*
X50790229Y-12008000D01*
X50790229Y-10156248D01*
X50794351Y-10118278D01*
X50806715Y-10084601D01*
X50827323Y-10055217D01*
X50832434Y-10049856D01*
X50861045Y-10027599D01*
X50894121Y-10013586D01*
X50931662Y-10007815D01*
X50939706Y-10007651D01*
X50965205Y-10007651D01*
X51008172Y-10008477D01*
X51052995Y-10010958D01*
X51099672Y-10015093D01*
X51148204Y-10020881D01*
X51198590Y-10028323D01*
X51250831Y-10037419D01*
X51286689Y-10044401D01*
X51323371Y-10052119D01*
X51360878Y-10060572D01*
X51399209Y-10069760D01*
X51438364Y-10079682D01*
X51478344Y-10090340D01*
X51519147Y-10101733D01*
X51519147Y-12008000D01*
X52461729Y-12008000D01*
X52461729Y-11220170D01*
X52843334Y-11220170D01*
X52844207Y-11268427D01*
X52846824Y-11315379D01*
X52851186Y-11361025D01*
X52857293Y-11405367D01*
X52865145Y-11448403D01*
X52874741Y-11490134D01*
X52886082Y-11530560D01*
X52899168Y-11569681D01*
X52913999Y-11607497D01*
X52930575Y-11644007D01*
X52948895Y-11679213D01*
X52968961Y-11713113D01*
X52990771Y-11745708D01*
X53014326Y-11776998D01*
X53039625Y-11806982D01*
X53066670Y-11835662D01*
X53095243Y-11862706D01*
X53125128Y-11888006D01*
X53156325Y-11911561D01*
X53188834Y-11933371D01*
X53222655Y-11953436D01*
X53257789Y-11971757D01*
X53294234Y-11988333D01*
X53331991Y-12003163D01*
X53371060Y-12016250D01*
X53411442Y-12027591D01*
X53453135Y-12037187D01*
X53496141Y-12045039D01*
X53540458Y-12051146D01*
X53586088Y-12055508D01*
X53633029Y-12058125D01*
X53681283Y-12058997D01*
X54846321Y-12058997D01*
X54894578Y-12058125D01*
X54941530Y-12055508D01*
X54987177Y-12051146D01*
X55031518Y-12045039D01*
X55074555Y-12037187D01*
X55116286Y-12027591D01*
X55156712Y-12016250D01*
X55195833Y-12003163D01*
X55233648Y-11988333D01*
X55270159Y-11971757D01*
X55305364Y-11953436D01*
X55339264Y-11933371D01*
X55371859Y-11911561D01*
X55403149Y-11888006D01*
X55433134Y-11862706D01*
X55461813Y-11835662D01*
X55488858Y-11806982D01*
X55514157Y-11776998D01*
X55537712Y-11745708D01*
X55559522Y-11713113D01*
X55579588Y-11679213D01*
X55597908Y-11644007D01*
X55614484Y-11607497D01*
X55629315Y-11569681D01*
X55642401Y-11530560D01*
X55653742Y-11490134D01*
X55663339Y-11448403D01*
X55671190Y-11405367D01*
X55677297Y-11361025D01*
X55681659Y-11315379D01*
X55684276Y-11268427D01*
X55685149Y-11220170D01*
X55685149Y-10055131D01*
X55684276Y-10006878D01*
X55681659Y-9959936D01*
X55677297Y-9914307D01*
X55671190Y-9869989D01*
X55663339Y-9826984D01*
X55653742Y-9785290D01*
X55642401Y-9744909D01*
X55629315Y-9705840D01*
X55614484Y-9668082D01*
X55597908Y-9631637D01*
X55579588Y-9596504D01*
X55559522Y-9562683D01*
X55537712Y-9530174D01*
X55514157Y-9498977D01*
X55488858Y-9469092D01*
X55461813Y-9440519D01*
X55433134Y-9413474D01*
X55403149Y-9388174D01*
X55371859Y-9364619D01*
X55339264Y-9342809D01*
X55305364Y-9322744D01*
X55270159Y-9304424D01*
X55233648Y-9287848D01*
X55195833Y-9273017D01*
X55178748Y-9267302D01*
X55969154Y-9267302D01*
X55969154Y-10007651D01*
X57339064Y-10007651D01*
X57380074Y-10010371D01*
X57415615Y-10018532D01*
X57452353Y-10036383D01*
X57480548Y-10062736D01*
X57500198Y-10097589D01*
X57509767Y-10131592D01*
X57513868Y-10171036D01*
X57514039Y-10181747D01*
X57514039Y-11169172D01*
X57509918Y-11207606D01*
X57497553Y-11241575D01*
X57476945Y-11271078D01*
X57471834Y-11276443D01*
X57442845Y-11298700D01*
X57409735Y-11312713D01*
X57372504Y-11318484D01*
X57364563Y-11318648D01*
X57305840Y-11318343D01*
X57243319Y-11317426D01*
X57176999Y-11315897D01*
X57106880Y-11313758D01*
X57070396Y-11312458D01*
X57032963Y-11311006D01*
X56994580Y-11309402D01*
X56955247Y-11307644D01*
X56914964Y-11305733D01*
X56873732Y-11303670D01*
X56831550Y-11301454D01*
X56788418Y-11299085D01*
X56744337Y-11296563D01*
X56699306Y-11293888D01*
X56653325Y-11291060D01*
X56606395Y-11288080D01*
X56558515Y-11284947D01*
X56509685Y-11281661D01*
X56459905Y-11278222D01*
X56409176Y-11274630D01*
X56357497Y-11270885D01*
X56304869Y-11266988D01*
X56251291Y-11262937D01*
X56196763Y-11258734D01*
X56141285Y-11254378D01*
X56084858Y-11249869D01*
X56027481Y-11245208D01*
X55969154Y-11240393D01*
X55969154Y-11954364D01*
X56029748Y-11960801D01*
X56089859Y-11967034D01*
X56149487Y-11973063D01*
X56208633Y-11978887D01*
X56267296Y-11984507D01*
X56325477Y-11989923D01*
X56383175Y-11995134D01*
X56440390Y-12000141D01*
X56497123Y-12004944D01*
X56553374Y-12009542D01*
X56609141Y-12013935D01*
X56664427Y-12018125D01*
X56719229Y-12022110D01*
X56773549Y-12025891D01*
X56827387Y-12029467D01*
X56880742Y-12032839D01*
X56933614Y-12036007D01*
X56986004Y-12038970D01*
X57037911Y-12041729D01*
X57089336Y-12044283D01*
X57140278Y-12046633D01*
X57190738Y-12048779D01*
X57240715Y-12050721D01*
X57290209Y-12052458D01*
X57339221Y-12053991D01*
X57387750Y-12055319D01*
X57435797Y-12056443D01*
X57483361Y-12057363D01*
X57530442Y-12058078D01*
X57577041Y-12058589D01*
X57623158Y-12058895D01*
X57668791Y-12058997D01*
X57712652Y-12058152D01*
X57755427Y-12055618D01*
X57797117Y-12051393D01*
X57837722Y-12045479D01*
X57877241Y-12037874D01*
X57915675Y-12028580D01*
X57953024Y-12017596D01*
X57989287Y-12004922D01*
X58024465Y-11990558D01*
X58058557Y-11974505D01*
X58091564Y-11956761D01*
X58123486Y-11937328D01*
X58154323Y-11916205D01*
X58184074Y-11893392D01*
X58212739Y-11868889D01*
X58240320Y-11842696D01*
X58266512Y-11815116D01*
X58291015Y-11786450D01*
X58313828Y-11756699D01*
X58334952Y-11725862D01*
X58354385Y-11693941D01*
X58372128Y-11660933D01*
X58388182Y-11626841D01*
X58402546Y-11591663D01*
X58415220Y-11555400D01*
X58426204Y-11518051D01*
X58435498Y-11479617D01*
X58443102Y-11440098D01*
X58449017Y-11399494D01*
X58453241Y-11357804D01*
X58455776Y-11315028D01*
X58456621Y-11271168D01*
X58456621Y-11192033D01*
X58748540Y-11192033D01*
X58748540Y-12008000D01*
X59716621Y-12008000D01*
X59716621Y-11192033D01*
X58748540Y-11192033D01*
X58456621Y-11192033D01*
X58456621Y-11017937D01*
X59997110Y-11017937D01*
X59998082Y-11084607D01*
X60000998Y-11148990D01*
X60005858Y-11211085D01*
X60012662Y-11270893D01*
X60021410Y-11328413D01*
X60032102Y-11383646D01*
X60044738Y-11436591D01*
X60059318Y-11487249D01*
X60075843Y-11535620D01*
X60094311Y-11581703D01*
X60114723Y-11625498D01*
X60137079Y-11667006D01*
X60161379Y-11706226D01*
X60187624Y-11743159D01*
X60215812Y-11777805D01*
X60245944Y-11810163D01*
X60278199Y-11840295D01*
X60312755Y-11868483D01*
X60349613Y-11894728D01*
X60388771Y-11919028D01*
X60430231Y-11941384D01*
X60473992Y-11961796D01*
X60520055Y-11980265D01*
X60568418Y-11996789D01*
X60619083Y-12011369D01*
X60672049Y-12024005D01*
X60727316Y-12034697D01*
X60784884Y-12043445D01*
X60844754Y-12050249D01*
X60906925Y-12055109D01*
X60971397Y-12058025D01*
X61038170Y-12058997D01*
X62304325Y-12058997D01*
X62370996Y-12058025D01*
X62435378Y-12055109D01*
X62497474Y-12050249D01*
X62557282Y-12043445D01*
X62614802Y-12034697D01*
X62670035Y-12024005D01*
X62722980Y-12011369D01*
X62773638Y-11996789D01*
X62822008Y-11980265D01*
X62868091Y-11961796D01*
X62911887Y-11941384D01*
X62953395Y-11919028D01*
X62992615Y-11894728D01*
X63029548Y-11868483D01*
X63064193Y-11840295D01*
X63096551Y-11810163D01*
X63126684Y-11777805D01*
X63154872Y-11743159D01*
X63181116Y-11706226D01*
X63205417Y-11667006D01*
X63227773Y-11625498D01*
X63248185Y-11581703D01*
X63266653Y-11535620D01*
X63283177Y-11487249D01*
X63297758Y-11436591D01*
X63310394Y-11383646D01*
X63321086Y-11328413D01*
X63329834Y-11270893D01*
X63336638Y-11211085D01*
X63341498Y-11148990D01*
X63344414Y-11084607D01*
X63345386Y-11017937D01*
X63345386Y-9396555D01*
X63344414Y-9329888D01*
X63341498Y-9265516D01*
X63336638Y-9203438D01*
X63329834Y-9143654D01*
X63321086Y-9086164D01*
X63310394Y-9030969D01*
X63297758Y-8978069D01*
X63283177Y-8927462D01*
X63266653Y-8879150D01*
X63248185Y-8833133D01*
X63227773Y-8789409D01*
X63205417Y-8747980D01*
X63181116Y-8708846D01*
X63154872Y-8672006D01*
X63126684Y-8637460D01*
X63096551Y-8605208D01*
X63064193Y-8574969D01*
X63029548Y-8546681D01*
X62992615Y-8520344D01*
X62953395Y-8495958D01*
X62911887Y-8473523D01*
X62868091Y-8453039D01*
X62822008Y-8434505D01*
X62773638Y-8417923D01*
X62734062Y-8406492D01*
X63630271Y-8406492D01*
X63630271Y-9171461D01*
X64085735Y-9171461D01*
X64085735Y-11243031D01*
X63630271Y-11243031D01*
X63630271Y-12008000D01*
X65509280Y-12008000D01*
X65789768Y-12008000D01*
X66732350Y-12008000D01*
X66732350Y-10156248D01*
X66736472Y-10118278D01*
X66748837Y-10084601D01*
X66769445Y-10055217D01*
X66774556Y-10049856D01*
X66803080Y-10027599D01*
X66835899Y-10013586D01*
X66873010Y-10007815D01*
X66880948Y-10007651D01*
X67058561Y-10007651D01*
X67108476Y-10008477D01*
X67159303Y-10010958D01*
X67211042Y-10015093D01*
X67246042Y-10018768D01*
X67281446Y-10023178D01*
X67317256Y-10028323D01*
X67353471Y-10034203D01*
X67390091Y-10040818D01*
X67427117Y-10048168D01*
X67464548Y-10056254D01*
X67502384Y-10065074D01*
X67540626Y-10074629D01*
X67579273Y-10084919D01*
X67618325Y-10095945D01*
X67638003Y-10101733D01*
X67638003Y-12008000D01*
X68580585Y-12008000D01*
X68580585Y-9368418D01*
X69021101Y-9368418D01*
X69021101Y-12008000D01*
X69963683Y-12008000D01*
X69963683Y-10108767D01*
X70343530Y-10108767D01*
X70343530Y-9368418D01*
X69021101Y-9368418D01*
X68580585Y-9368418D01*
X68580585Y-9267302D01*
X67744395Y-9267302D01*
X67697794Y-9502068D01*
X67658633Y-9477212D01*
X67618638Y-9453423D01*
X67577809Y-9430700D01*
X67536144Y-9409043D01*
X67493646Y-9388453D01*
X67450312Y-9368930D01*
X67406144Y-9350473D01*
X67361141Y-9333082D01*
X67315304Y-9316758D01*
X67268632Y-9301501D01*
X67237054Y-9291921D01*
X67189931Y-9278565D01*
X67144184Y-9266522D01*
X67099812Y-9255793D01*
X67056816Y-9246378D01*
X67015196Y-9238276D01*
X66974951Y-9231488D01*
X66936082Y-9226014D01*
X66898588Y-9221854D01*
X66862470Y-9219008D01*
X66816453Y-9217256D01*
X66805330Y-9217183D01*
X66577598Y-9217183D01*
X66533634Y-9218028D01*
X66490770Y-9220563D01*
X66449004Y-9224787D01*
X66408338Y-9230702D01*
X66368771Y-9238306D01*
X66330302Y-9247600D01*
X66292933Y-9258584D01*
X66256663Y-9271258D01*
X66221492Y-9285622D01*
X66187420Y-9301676D01*
X66154447Y-9319419D01*
X66122574Y-9338853D01*
X66091799Y-9359976D01*
X66062124Y-9382789D01*
X66033547Y-9407292D01*
X66006070Y-9433484D01*
X65979877Y-9460962D01*
X65955374Y-9489538D01*
X65932561Y-9519214D01*
X65911438Y-9549988D01*
X65892005Y-9581862D01*
X65874261Y-9614835D01*
X65858208Y-9648907D01*
X65843844Y-9684078D01*
X65831170Y-9720348D01*
X65820186Y-9757717D01*
X65810892Y-9796185D01*
X65803287Y-9835752D01*
X65797373Y-9876419D01*
X65793148Y-9918184D01*
X65790613Y-9961049D01*
X65789768Y-10005013D01*
X65789768Y-12008000D01*
X65509280Y-12008000D01*
X65509280Y-11243031D01*
X65053816Y-11243031D01*
X65053816Y-9171461D01*
X65509280Y-9171461D01*
X65509280Y-8406492D01*
X63630271Y-8406492D01*
X62734062Y-8406492D01*
X62722980Y-8403291D01*
X62670035Y-8390610D01*
X62614802Y-8379880D01*
X62557282Y-8371101D01*
X62497474Y-8364273D01*
X62435378Y-8359396D01*
X62370996Y-8356470D01*
X62304325Y-8355494D01*
X69021101Y-8355494D01*
X69021101Y-9121342D01*
X69963683Y-9121342D01*
X69963683Y-8406492D01*
X70671499Y-8406492D01*
X70671499Y-11017937D01*
X70672471Y-11084607D01*
X70675387Y-11148990D01*
X70680247Y-11211085D01*
X70687051Y-11270893D01*
X70695799Y-11328413D01*
X70706491Y-11383646D01*
X70719128Y-11436591D01*
X70733708Y-11487249D01*
X70750232Y-11535620D01*
X70768700Y-11581703D01*
X70789112Y-11625498D01*
X70811469Y-11667006D01*
X70835769Y-11706226D01*
X70862013Y-11743159D01*
X70890201Y-11777805D01*
X70920334Y-11810163D01*
X70952589Y-11840295D01*
X70987145Y-11868483D01*
X71024002Y-11894728D01*
X71063161Y-11919028D01*
X71104621Y-11941384D01*
X71148382Y-11961796D01*
X71194444Y-11980265D01*
X71242808Y-11996789D01*
X71293472Y-12011369D01*
X71346438Y-12024005D01*
X71401705Y-12034697D01*
X71459274Y-12043445D01*
X71519143Y-12050249D01*
X71581314Y-12055109D01*
X71645786Y-12058025D01*
X71712560Y-12058997D01*
X72876719Y-12058997D01*
X72943492Y-12058025D01*
X73007964Y-12055109D01*
X73070135Y-12050249D01*
X73130005Y-12043445D01*
X73187573Y-12034697D01*
X73242840Y-12024005D01*
X73295806Y-12011369D01*
X73346471Y-11996789D01*
X73394835Y-11980265D01*
X73440897Y-11961796D01*
X73484658Y-11941384D01*
X73526118Y-11919028D01*
X73565277Y-11894728D01*
X73602134Y-11868483D01*
X73636690Y-11840295D01*
X73668945Y-11810163D01*
X73699077Y-11777805D01*
X73727266Y-11743159D01*
X73753510Y-11706226D01*
X73777810Y-11667006D01*
X73800166Y-11625498D01*
X73820579Y-11581703D01*
X73839047Y-11535620D01*
X73855571Y-11487249D01*
X73870151Y-11436591D01*
X73882787Y-11383646D01*
X73893479Y-11328413D01*
X73902227Y-11270893D01*
X73909032Y-11211085D01*
X73913892Y-11148990D01*
X73916808Y-11084607D01*
X73917780Y-11017937D01*
X73917780Y-8406492D01*
X72950578Y-8406492D01*
X72950578Y-11017937D01*
X72948151Y-11067120D01*
X72940872Y-11111466D01*
X72928739Y-11150974D01*
X72911752Y-11185645D01*
X72889913Y-11215477D01*
X72863221Y-11240472D01*
X72831675Y-11260629D01*
X72795276Y-11275949D01*
X72754024Y-11286430D01*
X72707919Y-11292074D01*
X72674486Y-11293150D01*
X71914793Y-11293150D01*
X71865452Y-11290731D01*
X71820965Y-11283474D01*
X71781330Y-11271380D01*
X71746549Y-11254448D01*
X71716621Y-11232678D01*
X71691547Y-11206070D01*
X71671325Y-11174625D01*
X71655957Y-11138342D01*
X71645441Y-11097222D01*
X71639779Y-11051263D01*
X71638701Y-11017937D01*
X71638701Y-8406492D01*
X70671499Y-8406492D01*
X69963683Y-8406492D01*
X69963683Y-8355494D01*
X69021101Y-8355494D01*
X62304325Y-8355494D01*
X61038170Y-8355494D01*
X60971397Y-8356470D01*
X60906925Y-8359396D01*
X60844754Y-8364273D01*
X60784884Y-8371101D01*
X60727316Y-8379880D01*
X60672049Y-8390610D01*
X60619083Y-8403291D01*
X60568418Y-8417923D01*
X60520055Y-8434505D01*
X60473992Y-8453039D01*
X60430231Y-8473523D01*
X60388771Y-8495958D01*
X60349613Y-8520344D01*
X60312755Y-8546681D01*
X60278199Y-8574969D01*
X60245944Y-8605208D01*
X60215812Y-8637460D01*
X60187624Y-8672006D01*
X60161379Y-8708846D01*
X60137079Y-8747980D01*
X60114723Y-8789409D01*
X60094311Y-8833133D01*
X60075843Y-8879150D01*
X60059318Y-8927462D01*
X60044738Y-8978069D01*
X60032102Y-9030969D01*
X60021410Y-9086164D01*
X60012662Y-9143654D01*
X60005858Y-9203438D01*
X60000998Y-9265516D01*
X59998082Y-9329888D01*
X59997110Y-9396555D01*
X59997110Y-11017937D01*
X58456621Y-11017937D01*
X58456621Y-10106129D01*
X58455749Y-10057876D01*
X58453132Y-10010934D01*
X58448770Y-9965305D01*
X58442663Y-9920987D01*
X58434811Y-9877982D01*
X58425215Y-9836288D01*
X58413873Y-9795907D01*
X58400787Y-9756838D01*
X58385956Y-9719080D01*
X58369381Y-9682635D01*
X58351060Y-9647502D01*
X58330995Y-9613681D01*
X58309185Y-9581172D01*
X58285630Y-9549975D01*
X58260330Y-9520090D01*
X58233286Y-9491517D01*
X58204606Y-9464366D01*
X58174621Y-9438966D01*
X58143332Y-9415319D01*
X58110737Y-9393423D01*
X58076837Y-9373278D01*
X58041631Y-9354886D01*
X58005121Y-9338245D01*
X57967305Y-9323355D01*
X57928184Y-9310218D01*
X57887758Y-9298832D01*
X57846027Y-9289198D01*
X57802991Y-9281315D01*
X57758649Y-9275184D01*
X57713002Y-9270805D01*
X57666051Y-9268178D01*
X57617794Y-9267302D01*
X55969154Y-9267302D01*
X55178748Y-9267302D01*
X55156712Y-9259931D01*
X55116286Y-9248590D01*
X55074555Y-9238993D01*
X55031518Y-9231142D01*
X54987177Y-9225035D01*
X54941530Y-9220673D01*
X54894578Y-9218055D01*
X54846321Y-9217183D01*
X53681283Y-9217183D01*
X53633029Y-9218055D01*
X53586088Y-9220673D01*
X53540458Y-9225035D01*
X53496141Y-9231142D01*
X53453135Y-9238993D01*
X53411442Y-9248590D01*
X53371060Y-9259931D01*
X53331991Y-9273017D01*
X53294234Y-9287848D01*
X53257789Y-9304424D01*
X53222655Y-9322744D01*
X53188834Y-9342809D01*
X53156325Y-9364619D01*
X53125128Y-9388174D01*
X53095243Y-9413474D01*
X53066670Y-9440519D01*
X53039625Y-9469092D01*
X53014326Y-9498977D01*
X52990771Y-9530174D01*
X52968961Y-9562683D01*
X52948895Y-9596504D01*
X52930575Y-9631637D01*
X52913999Y-9668082D01*
X52899168Y-9705840D01*
X52886082Y-9744909D01*
X52874741Y-9785290D01*
X52865145Y-9826984D01*
X52857293Y-9869989D01*
X52851186Y-9914307D01*
X52846824Y-9959936D01*
X52844207Y-10006878D01*
X52843334Y-10055131D01*
X52843334Y-11144552D01*
X52843334Y-11220170D01*
X52461729Y-11220170D01*
X52461729Y-9267302D01*
X51625540Y-9267302D01*
X51578938Y-9502068D01*
X51539778Y-9477212D01*
X51499783Y-9453423D01*
X51458953Y-9430700D01*
X51417289Y-9409043D01*
X51374790Y-9388453D01*
X51331457Y-9368930D01*
X51287289Y-9350473D01*
X51242286Y-9333082D01*
X51196449Y-9316758D01*
X51149777Y-9301501D01*
X51118198Y-9291921D01*
X51071076Y-9278565D01*
X51025328Y-9266522D01*
X50980957Y-9255793D01*
X50937961Y-9246378D01*
X50896340Y-9238276D01*
X50856096Y-9231488D01*
X50817226Y-9226014D01*
X50779733Y-9221854D01*
X50743615Y-9219008D01*
X50697597Y-9217256D01*
X50686475Y-9217183D01*
X50635477Y-9217183D01*
X50583311Y-9218327D01*
X50532767Y-9221758D01*
X50483843Y-9227477D01*
X50436541Y-9235483D01*
X50390860Y-9245777D01*
X50346800Y-9258358D01*
X50304361Y-9273226D01*
X50263544Y-9290383D01*
X50224347Y-9309826D01*
X50186772Y-9331557D01*
X50150818Y-9355576D01*
X50116485Y-9381882D01*
X50083773Y-9410476D01*
X50052683Y-9441357D01*
X50023213Y-9474525D01*
X49995365Y-9509981D01*
X49954613Y-9483562D01*
X49912809Y-9458379D01*
X49869955Y-9434432D01*
X49826050Y-9411722D01*
X49781094Y-9390249D01*
X49735086Y-9370012D01*
X49688028Y-9351011D01*
X49639918Y-9333247D01*
X49590758Y-9316720D01*
X49540547Y-9301428D01*
X49506489Y-9291921D01*
X49472317Y-9282871D01*
X49421923Y-9270390D01*
X49372564Y-9259223D01*
X49324241Y-9249370D01*
X49276953Y-9240831D01*
X49230701Y-9233605D01*
X49185485Y-9227693D01*
X49141304Y-9223095D01*
X49098158Y-9219811D01*
X49056049Y-9217840D01*
X49014974Y-9217183D01*
X48963976Y-9217183D01*
X48920116Y-9218028D01*
X48877340Y-9220563D01*
X48835650Y-9224787D01*
X48795046Y-9230702D01*
X48755527Y-9238306D01*
X48717093Y-9247600D01*
X48679744Y-9258584D01*
X48643481Y-9271258D01*
X48608303Y-9285622D01*
X48574211Y-9301676D01*
X48541203Y-9319419D01*
X48509282Y-9338853D01*
X48478445Y-9359976D01*
X48448694Y-9382789D01*
X48420028Y-9407292D01*
X48392448Y-9433484D01*
X48366255Y-9460962D01*
X48341752Y-9489538D01*
X48318939Y-9519214D01*
X48297816Y-9549988D01*
X48278383Y-9581862D01*
X48260639Y-9614835D01*
X48244586Y-9648907D01*
X48230222Y-9684078D01*
X48217548Y-9720348D01*
X48206564Y-9757717D01*
X48197270Y-9796185D01*
X48189666Y-9835752D01*
X48183751Y-9876419D01*
X48179526Y-9918184D01*
X48176992Y-9961049D01*
X48176147Y-10005013D01*
X48176147Y-12008000D01*
X47661861Y-12008000D01*
X47661861Y-7841208D01*
X74432066Y-7841208D01*
X74432066Y-12573283D01*
G37*
D11*
G36*
X32399034Y-11981699D02*
G01*
X32040363Y-10947819D01*
X31628936Y-10947819D01*
X32188008Y-12425000D01*
X32610059Y-12425000D01*
X33169498Y-10947819D01*
X32757704Y-10947819D01*
X32399034Y-11981699D01*
G37*
G36*
X31318358Y-11285957D02*
G01*
X31337339Y-11287009D01*
X31355784Y-11288762D01*
X31373694Y-11291217D01*
X31391070Y-11294372D01*
X31407909Y-11298229D01*
X31424214Y-11302787D01*
X31439983Y-11308046D01*
X31455218Y-11314007D01*
X31469917Y-11320669D01*
X31484080Y-11328032D01*
X31497709Y-11336096D01*
X31510802Y-11344862D01*
X31523360Y-11354329D01*
X31535383Y-11364497D01*
X31546870Y-11375366D01*
X31557740Y-11386809D01*
X31567908Y-11398790D01*
X31577374Y-11411310D01*
X31586140Y-11424367D01*
X31594204Y-11437963D01*
X31601567Y-11452096D01*
X31608229Y-11466768D01*
X31614190Y-11481978D01*
X31619449Y-11497726D01*
X31624007Y-11514012D01*
X31627864Y-11530836D01*
X31631020Y-11548198D01*
X31633474Y-11566099D01*
X31635227Y-11584537D01*
X31636279Y-11603513D01*
X31636630Y-11623028D01*
X31636630Y-12129710D01*
X31636292Y-12147396D01*
X31635279Y-12164640D01*
X31633590Y-12181445D01*
X31631226Y-12197808D01*
X31628186Y-12213730D01*
X31624471Y-12229212D01*
X31620080Y-12244253D01*
X31615014Y-12258853D01*
X31609272Y-12273013D01*
X31602855Y-12286731D01*
X31595763Y-12300009D01*
X31587995Y-12312846D01*
X31579551Y-12325243D01*
X31570432Y-12337198D01*
X31560638Y-12348713D01*
X31550168Y-12359787D01*
X31539094Y-12370257D01*
X31527579Y-12380051D01*
X31515623Y-12389170D01*
X31503227Y-12397614D01*
X31490390Y-12405382D01*
X31477112Y-12412474D01*
X31463394Y-12418892D01*
X31449234Y-12424633D01*
X31434634Y-12429699D01*
X31419593Y-12434090D01*
X31404111Y-12437805D01*
X31388189Y-12440845D01*
X31371825Y-12443209D01*
X31355021Y-12444898D01*
X31337776Y-12445911D01*
X31320091Y-12446249D01*
X31299295Y-12446207D01*
X31278351Y-12446083D01*
X31257260Y-12445875D01*
X31236022Y-12445585D01*
X31214636Y-12445211D01*
X31193103Y-12444755D01*
X31171422Y-12444215D01*
X31149594Y-12443592D01*
X31127619Y-12442887D01*
X31105496Y-12442098D01*
X31083226Y-12441227D01*
X31060808Y-12440272D01*
X31038243Y-12439235D01*
X31015530Y-12438114D01*
X30992671Y-12436911D01*
X30969663Y-12435624D01*
X30946509Y-12434254D01*
X30923207Y-12432802D01*
X30899757Y-12431266D01*
X30876160Y-12429648D01*
X30852416Y-12427946D01*
X30828524Y-12426162D01*
X30804485Y-12424294D01*
X30780299Y-12422343D01*
X30755965Y-12420310D01*
X30731484Y-12418193D01*
X30706855Y-12415994D01*
X30682079Y-12413711D01*
X30657155Y-12411345D01*
X30632084Y-12408897D01*
X30606866Y-12406365D01*
X30581500Y-12403750D01*
X30581500Y-12139968D01*
X30606498Y-12141929D01*
X30631117Y-12143828D01*
X30655356Y-12145664D01*
X30679217Y-12147438D01*
X30702698Y-12149150D01*
X30725799Y-12150800D01*
X30748522Y-12152388D01*
X30770865Y-12153913D01*
X30792829Y-12155376D01*
X30814414Y-12156776D01*
X30835619Y-12158115D01*
X30856445Y-12159391D01*
X30876892Y-12160605D01*
X30896960Y-12161757D01*
X30916649Y-12162846D01*
X30935958Y-12163873D01*
X30954888Y-12164838D01*
X30973439Y-12165741D01*
X30991610Y-12166581D01*
X31009402Y-12167360D01*
X31026815Y-12168075D01*
X31043849Y-12168729D01*
X31060504Y-12169321D01*
X31076779Y-12169850D01*
X31092675Y-12170317D01*
X31108192Y-12170721D01*
X31123330Y-12171064D01*
X31138088Y-12171344D01*
X31166467Y-12171717D01*
X31193329Y-12171842D01*
X31202924Y-12171332D01*
X31218934Y-12167845D01*
X31233321Y-12161054D01*
X31246085Y-12150959D01*
X31253307Y-12142617D01*
X31261337Y-12128703D01*
X31266006Y-12113109D01*
X31267334Y-12097836D01*
X31267334Y-12013572D01*
X30539002Y-12013572D01*
X30539002Y-11749790D01*
X30908297Y-11749790D01*
X31267334Y-11749790D01*
X31267334Y-11633653D01*
X31267252Y-11628468D01*
X31265268Y-11609377D01*
X31260640Y-11592920D01*
X31253367Y-11579095D01*
X31243449Y-11567904D01*
X31230887Y-11559346D01*
X31215680Y-11553421D01*
X31197829Y-11550129D01*
X31182704Y-11549389D01*
X30992927Y-11549389D01*
X30987721Y-11549471D01*
X30968547Y-11551446D01*
X30952017Y-11556054D01*
X30938133Y-11563296D01*
X30926893Y-11573170D01*
X30918298Y-11585678D01*
X30912347Y-11600819D01*
X30909041Y-11618594D01*
X30908297Y-11633653D01*
X30908297Y-11749790D01*
X30539002Y-11749790D01*
X30539002Y-11623028D01*
X30539353Y-11603513D01*
X30540405Y-11584537D01*
X30542158Y-11566099D01*
X30544612Y-11548198D01*
X30547768Y-11530836D01*
X30551625Y-11514012D01*
X30556183Y-11497726D01*
X30561442Y-11481978D01*
X30567403Y-11466768D01*
X30574064Y-11452096D01*
X30581427Y-11437963D01*
X30589492Y-11424367D01*
X30598257Y-11411310D01*
X30607724Y-11398790D01*
X30617892Y-11386809D01*
X30628761Y-11375366D01*
X30640249Y-11364497D01*
X30652272Y-11354329D01*
X30664830Y-11344862D01*
X30677923Y-11336096D01*
X30691551Y-11328032D01*
X30705715Y-11320669D01*
X30720414Y-11314007D01*
X30735648Y-11308046D01*
X30751418Y-11302787D01*
X30767722Y-11298229D01*
X30784562Y-11294372D01*
X30801937Y-11291217D01*
X30819848Y-11288762D01*
X30838293Y-11287009D01*
X30857274Y-11285957D01*
X30876790Y-11285607D01*
X31298842Y-11285607D01*
X31318358Y-11285957D01*
G37*
G36*
X29712851Y-11612404D02*
G01*
X29729507Y-11612651D01*
X29746230Y-11613394D01*
X29763018Y-11614632D01*
X29779872Y-11616365D01*
X29796793Y-11618593D01*
X29813778Y-11621317D01*
X29830830Y-11624535D01*
X29847948Y-11628249D01*
X29865131Y-11632458D01*
X29882380Y-11637162D01*
X29899695Y-11642361D01*
X29917076Y-11648055D01*
X29934523Y-11654245D01*
X29952035Y-11660930D01*
X29969613Y-11668110D01*
X29987258Y-11675785D01*
X29987258Y-12425000D01*
X30356553Y-12425000D01*
X30356553Y-11306489D01*
X30029389Y-11306489D01*
X30008507Y-11443876D01*
X29997133Y-11434139D01*
X29985728Y-11424711D01*
X29962820Y-11406782D01*
X29939783Y-11390089D01*
X29916618Y-11374633D01*
X29893324Y-11360414D01*
X29869901Y-11347431D01*
X29846349Y-11335684D01*
X29822668Y-11325174D01*
X29798859Y-11315900D01*
X29774921Y-11307863D01*
X29750854Y-11301063D01*
X29726658Y-11295498D01*
X29702334Y-11291171D01*
X29677880Y-11288080D01*
X29653298Y-11286225D01*
X29628587Y-11285607D01*
X29533699Y-11285607D01*
X29533699Y-11612404D01*
X29712851Y-11612404D01*
G37*
G36*
X29432948Y-12129710D02*
G01*
X29406358Y-12131648D01*
X29380122Y-12133525D01*
X29354240Y-12135341D01*
X29328712Y-12137094D01*
X29303538Y-12138787D01*
X29278719Y-12140417D01*
X29254254Y-12141987D01*
X29230143Y-12143494D01*
X29206386Y-12144940D01*
X29182984Y-12146325D01*
X29159935Y-12147648D01*
X29137241Y-12148910D01*
X29114901Y-12150110D01*
X29092915Y-12151248D01*
X29071284Y-12152325D01*
X29050006Y-12153340D01*
X29029083Y-12154294D01*
X29008514Y-12155187D01*
X28988299Y-12156017D01*
X28968439Y-12156787D01*
X28948932Y-12157494D01*
X28929780Y-12158140D01*
X28910982Y-12158725D01*
X28892538Y-12159248D01*
X28874449Y-12159710D01*
X28856713Y-12160110D01*
X28839332Y-12160448D01*
X28822305Y-12160725D01*
X28805632Y-12160940D01*
X28789314Y-12161094D01*
X28773349Y-12161186D01*
X28757739Y-12161217D01*
X28742627Y-12159912D01*
X28727158Y-12155324D01*
X28713312Y-12147431D01*
X28704983Y-12140334D01*
X28694711Y-12127541D01*
X28687801Y-12113068D01*
X28684481Y-12098791D01*
X28683733Y-12087212D01*
X28683733Y-12013572D01*
X29137659Y-12013572D01*
X29155344Y-12013235D01*
X29172589Y-12012221D01*
X29189393Y-12010533D01*
X29205757Y-12008169D01*
X29221679Y-12005129D01*
X29237161Y-12001414D01*
X29252202Y-11997023D01*
X29266802Y-11991957D01*
X29280962Y-11986215D01*
X29294680Y-11979798D01*
X29307958Y-11972706D01*
X29320795Y-11964938D01*
X29333191Y-11956494D01*
X29345147Y-11947375D01*
X29356662Y-11937580D01*
X29367736Y-11927110D01*
X29378206Y-11916037D01*
X29388000Y-11904522D01*
X29397119Y-11892566D01*
X29405563Y-11880170D01*
X29413331Y-11867333D01*
X29420423Y-11854055D01*
X29426840Y-11840337D01*
X29432582Y-11826177D01*
X29437648Y-11811577D01*
X29442039Y-11796536D01*
X29445754Y-11781054D01*
X29448794Y-11765132D01*
X29451158Y-11748768D01*
X29452847Y-11731964D01*
X29453860Y-11714719D01*
X29454198Y-11697034D01*
X29454198Y-11623028D01*
X29453860Y-11605344D01*
X29452847Y-11588103D01*
X29451158Y-11571306D01*
X29448794Y-11554953D01*
X29445754Y-11539043D01*
X29442039Y-11523577D01*
X29437648Y-11508555D01*
X29432582Y-11493976D01*
X29426840Y-11479841D01*
X29420423Y-11466150D01*
X29413331Y-11452902D01*
X29405563Y-11440098D01*
X29397119Y-11427737D01*
X29388000Y-11415820D01*
X29378206Y-11404347D01*
X29367736Y-11393318D01*
X29356662Y-11382803D01*
X29345147Y-11372967D01*
X29333191Y-11363810D01*
X29320795Y-11355330D01*
X29307958Y-11347529D01*
X29294680Y-11340407D01*
X29280962Y-11333962D01*
X29266802Y-11328196D01*
X29252202Y-11323109D01*
X29237161Y-11318700D01*
X29221679Y-11314969D01*
X29205757Y-11311916D01*
X29189393Y-11309542D01*
X29172589Y-11307846D01*
X29155344Y-11306829D01*
X29137659Y-11306489D01*
X28419951Y-11306489D01*
X28419951Y-11580896D01*
X29010897Y-11580896D01*
X29026170Y-11582224D01*
X29041764Y-11586893D01*
X29055678Y-11594924D01*
X29064020Y-11602145D01*
X29074114Y-11614761D01*
X29080905Y-11629116D01*
X29084393Y-11645210D01*
X29084902Y-11654902D01*
X29083597Y-11670014D01*
X29079009Y-11685483D01*
X29071116Y-11699329D01*
X29064020Y-11707658D01*
X29051227Y-11717753D01*
X29036753Y-11724544D01*
X29020598Y-11728031D01*
X29010897Y-11728541D01*
X28630977Y-11728541D01*
X28613293Y-11728880D01*
X28596052Y-11729898D01*
X28579255Y-11731594D01*
X28562902Y-11733968D01*
X28546992Y-11737020D01*
X28531526Y-11740751D01*
X28516504Y-11745161D01*
X28501925Y-11750248D01*
X28487790Y-11756014D01*
X28474099Y-11762458D01*
X28460851Y-11769581D01*
X28448047Y-11777382D01*
X28435686Y-11785861D01*
X28423769Y-11795019D01*
X28412296Y-11804855D01*
X28401267Y-11815369D01*
X28390752Y-11826399D01*
X28380916Y-11837872D01*
X28371759Y-11849789D01*
X28363279Y-11862149D01*
X28355478Y-11874954D01*
X28348356Y-11888201D01*
X28341911Y-11901893D01*
X28336145Y-11916028D01*
X28331058Y-11930607D01*
X28326649Y-11945629D01*
X28322918Y-11961095D01*
X28319865Y-11977005D01*
X28317491Y-11993358D01*
X28315795Y-12010155D01*
X28314777Y-12027396D01*
X28314438Y-12045080D01*
X28314438Y-12129710D01*
X28314777Y-12147396D01*
X28315795Y-12164640D01*
X28317491Y-12181445D01*
X28319865Y-12197808D01*
X28322918Y-12213730D01*
X28326649Y-12229212D01*
X28331058Y-12244253D01*
X28336145Y-12258853D01*
X28341911Y-12273013D01*
X28348356Y-12286731D01*
X28355478Y-12300009D01*
X28363279Y-12312846D01*
X28371759Y-12325243D01*
X28380916Y-12337198D01*
X28390752Y-12348713D01*
X28401267Y-12359787D01*
X28412296Y-12370257D01*
X28423769Y-12380051D01*
X28435686Y-12389170D01*
X28448047Y-12397614D01*
X28460851Y-12405382D01*
X28474099Y-12412474D01*
X28487790Y-12418892D01*
X28501925Y-12424633D01*
X28516504Y-12429699D01*
X28531526Y-12434090D01*
X28546992Y-12437805D01*
X28562902Y-12440845D01*
X28579255Y-12443209D01*
X28596052Y-12444898D01*
X28613293Y-12445911D01*
X28630977Y-12446249D01*
X28654386Y-12446207D01*
X28677902Y-12446083D01*
X28701524Y-12445875D01*
X28725253Y-12445585D01*
X28749088Y-12445211D01*
X28773030Y-12444755D01*
X28797079Y-12444215D01*
X28821235Y-12443592D01*
X28845497Y-12442887D01*
X28869865Y-12442098D01*
X28894340Y-12441227D01*
X28918922Y-12440272D01*
X28943611Y-12439235D01*
X28968406Y-12438114D01*
X28993307Y-12436911D01*
X29018316Y-12435624D01*
X29043431Y-12434254D01*
X29068652Y-12432802D01*
X29093980Y-12431266D01*
X29119415Y-12429648D01*
X29144956Y-12427946D01*
X29170604Y-12426162D01*
X29196359Y-12424294D01*
X29222220Y-12422343D01*
X29248188Y-12420310D01*
X29274263Y-12418193D01*
X29300444Y-12415994D01*
X29326731Y-12413711D01*
X29353126Y-12411345D01*
X29379627Y-12408897D01*
X29406234Y-12406365D01*
X29432948Y-12403750D01*
X29432948Y-12129710D01*
G37*
G36*
X27729355Y-11348621D02*
G01*
X27729355Y-12425000D01*
X28098650Y-12425000D01*
X28098650Y-11633653D01*
X28256919Y-11633653D01*
X28256919Y-11348621D01*
X27729355Y-11348621D01*
G37*
G36*
X28098650Y-10926570D02*
G01*
X27729355Y-10926570D01*
X27729355Y-11222226D01*
X28098650Y-11222226D01*
X28098650Y-10926570D01*
G37*
G36*
X27225336Y-11285957D02*
G01*
X27244317Y-11287009D01*
X27262762Y-11288762D01*
X27280673Y-11291217D01*
X27298048Y-11294372D01*
X27314888Y-11298229D01*
X27331192Y-11302787D01*
X27346962Y-11308046D01*
X27362196Y-11314007D01*
X27376895Y-11320669D01*
X27391059Y-11328032D01*
X27404687Y-11336096D01*
X27417780Y-11344862D01*
X27430338Y-11354329D01*
X27442361Y-11364497D01*
X27453849Y-11375366D01*
X27464718Y-11386809D01*
X27474886Y-11398790D01*
X27484353Y-11411310D01*
X27493118Y-11424367D01*
X27501183Y-11437963D01*
X27508546Y-11452096D01*
X27515207Y-11466768D01*
X27521168Y-11481978D01*
X27526427Y-11497726D01*
X27530985Y-11514012D01*
X27534842Y-11530836D01*
X27537998Y-11548198D01*
X27540452Y-11566099D01*
X27542205Y-11584537D01*
X27543257Y-11603513D01*
X27543608Y-11623028D01*
X27543608Y-12108461D01*
X27543257Y-12127977D01*
X27542205Y-12146958D01*
X27540452Y-12165403D01*
X27537998Y-12183314D01*
X27534842Y-12200689D01*
X27530985Y-12217529D01*
X27526427Y-12233833D01*
X27521168Y-12249603D01*
X27515207Y-12264837D01*
X27508546Y-12279536D01*
X27501183Y-12293699D01*
X27493118Y-12307328D01*
X27484353Y-12320421D01*
X27474886Y-12332979D01*
X27464718Y-12345002D01*
X27453849Y-12356489D01*
X27442361Y-12367359D01*
X27430338Y-12377527D01*
X27417780Y-12386994D01*
X27404687Y-12395759D01*
X27391059Y-12403823D01*
X27376895Y-12411186D01*
X27362196Y-12417848D01*
X27346962Y-12423809D01*
X27331192Y-12429068D01*
X27314888Y-12433626D01*
X27298048Y-12437483D01*
X27280673Y-12440639D01*
X27262762Y-12443093D01*
X27244317Y-12444846D01*
X27225336Y-12445898D01*
X27205820Y-12446249D01*
X26720387Y-12446249D01*
X26700873Y-12445898D01*
X26681896Y-12444846D01*
X26663458Y-12443093D01*
X26645557Y-12440639D01*
X26628195Y-12437483D01*
X26611371Y-12433626D01*
X26595085Y-12429068D01*
X26579337Y-12423809D01*
X26564127Y-12417848D01*
X26549456Y-12411186D01*
X26535322Y-12403823D01*
X26521726Y-12395759D01*
X26508669Y-12386994D01*
X26496150Y-12377527D01*
X26484168Y-12367359D01*
X26472725Y-12356489D01*
X26461856Y-12345002D01*
X26451688Y-12332979D01*
X26442221Y-12320421D01*
X26433455Y-12307328D01*
X26425391Y-12293699D01*
X26418028Y-12279536D01*
X26411366Y-12264837D01*
X26405406Y-12249603D01*
X26400146Y-12233833D01*
X26395588Y-12217529D01*
X26391731Y-12200689D01*
X26388576Y-12183314D01*
X26386121Y-12165403D01*
X26384368Y-12146958D01*
X26383316Y-12127977D01*
X26382966Y-12108461D01*
X26382966Y-12076953D01*
X26752261Y-12076953D01*
X26752343Y-12082138D01*
X26754318Y-12101229D01*
X26758926Y-12117686D01*
X26766168Y-12131511D01*
X26776043Y-12142702D01*
X26788550Y-12151260D01*
X26803692Y-12157185D01*
X26821466Y-12160477D01*
X26836525Y-12161217D01*
X27089683Y-12161217D01*
X27094889Y-12161135D01*
X27114063Y-12159160D01*
X27130593Y-12154552D01*
X27144477Y-12147310D01*
X27155717Y-12137436D01*
X27164312Y-12124928D01*
X27170263Y-12109787D01*
X27173569Y-12092012D01*
X27174313Y-12076953D01*
X27174313Y-11654902D01*
X27174230Y-11649695D01*
X27172247Y-11630521D01*
X27167618Y-11613992D01*
X27160345Y-11600107D01*
X27150428Y-11588867D01*
X27137866Y-11580272D01*
X27122659Y-11574321D01*
X27104807Y-11571015D01*
X27089683Y-11570272D01*
X26836525Y-11570272D01*
X26831341Y-11570354D01*
X26812250Y-11572338D01*
X26795792Y-11576966D01*
X26781967Y-11584239D01*
X26770776Y-11594157D01*
X26762218Y-11606719D01*
X26756293Y-11621926D01*
X26753002Y-11639777D01*
X26752261Y-11654902D01*
X26752261Y-12076953D01*
X26382966Y-12076953D01*
X26382966Y-11623028D01*
X26383316Y-11603513D01*
X26384368Y-11584537D01*
X26386121Y-11566099D01*
X26388576Y-11548198D01*
X26391731Y-11530836D01*
X26395588Y-11514012D01*
X26400146Y-11497726D01*
X26405406Y-11481978D01*
X26411366Y-11466768D01*
X26418028Y-11452096D01*
X26425391Y-11437963D01*
X26433455Y-11424367D01*
X26442221Y-11411310D01*
X26451688Y-11398790D01*
X26461856Y-11386809D01*
X26472725Y-11375366D01*
X26484168Y-11364497D01*
X26496150Y-11354329D01*
X26508669Y-11344862D01*
X26521726Y-11336096D01*
X26535322Y-11328032D01*
X26549456Y-11320669D01*
X26564127Y-11314007D01*
X26579337Y-11308046D01*
X26595085Y-11302787D01*
X26611371Y-11298229D01*
X26628195Y-11294372D01*
X26645557Y-11291217D01*
X26663458Y-11288762D01*
X26681896Y-11287009D01*
X26700873Y-11285957D01*
X26720387Y-11285607D01*
X27205820Y-11285607D01*
X27225336Y-11285957D01*
G37*
G36*
X25578064Y-11591521D02*
G01*
X25599276Y-11591891D01*
X25621010Y-11593002D01*
X25635789Y-11594154D01*
X25650800Y-11595635D01*
X25666043Y-11597446D01*
X25681517Y-11599585D01*
X25697224Y-11602054D01*
X25713162Y-11604852D01*
X25729332Y-11607979D01*
X25745734Y-11611435D01*
X25762368Y-11615220D01*
X25779233Y-11619334D01*
X25796331Y-11623778D01*
X25813660Y-11628551D01*
X25831221Y-11633653D01*
X25831221Y-12425000D01*
X26200516Y-12425000D01*
X26200516Y-11306489D01*
X25873353Y-11306489D01*
X25852470Y-11412002D01*
X25840040Y-11403987D01*
X25827569Y-11396243D01*
X25808788Y-11385137D01*
X25789917Y-11374643D01*
X25770955Y-11364761D01*
X25751903Y-11355491D01*
X25732762Y-11346832D01*
X25713530Y-11338785D01*
X25694207Y-11331350D01*
X25674795Y-11324527D01*
X25655293Y-11318316D01*
X25648772Y-11316381D01*
X25629481Y-11310881D01*
X25610763Y-11305923D01*
X25592618Y-11301505D01*
X25575047Y-11297628D01*
X25558048Y-11294292D01*
X25541623Y-11291497D01*
X25525771Y-11289243D01*
X25510492Y-11287530D01*
X25495787Y-11286358D01*
X25477070Y-11285637D01*
X25472551Y-11285607D01*
X25377662Y-11285607D01*
X25359934Y-11285944D01*
X25342652Y-11286958D01*
X25325816Y-11288646D01*
X25309427Y-11291010D01*
X25293484Y-11294050D01*
X25277988Y-11297765D01*
X25262939Y-11302156D01*
X25248336Y-11307222D01*
X25234179Y-11312964D01*
X25220469Y-11319381D01*
X25207206Y-11326473D01*
X25194389Y-11334241D01*
X25182018Y-11342685D01*
X25170094Y-11351804D01*
X25158617Y-11361599D01*
X25147586Y-11372069D01*
X25137116Y-11383100D01*
X25127321Y-11394577D01*
X25118202Y-11406501D01*
X25109758Y-11418872D01*
X25101990Y-11431689D01*
X25094898Y-11444952D01*
X25088481Y-11458662D01*
X25082739Y-11472819D01*
X25077673Y-11487422D01*
X25073282Y-11502471D01*
X25069567Y-11517967D01*
X25066527Y-11533910D01*
X25064163Y-11550299D01*
X25062475Y-11567135D01*
X25061461Y-11584417D01*
X25061124Y-11602145D01*
X25061124Y-12425000D01*
X25430419Y-12425000D01*
X25430419Y-11665160D01*
X25431747Y-11650070D01*
X25436416Y-11634682D01*
X25444447Y-11620974D01*
X25451668Y-11612770D01*
X25464255Y-11602498D01*
X25478523Y-11595588D01*
X25494471Y-11592040D01*
X25504058Y-11591521D01*
X25578064Y-11591521D01*
G37*
G36*
X23531186Y-12446249D02*
G01*
X23553288Y-12446207D01*
X23575538Y-12446083D01*
X23597936Y-12445875D01*
X23620482Y-12445585D01*
X23643176Y-12445211D01*
X23666018Y-12444755D01*
X23689009Y-12444215D01*
X23712147Y-12443592D01*
X23735434Y-12442887D01*
X23758869Y-12442098D01*
X23782452Y-12441227D01*
X23806183Y-12440272D01*
X23830062Y-12439235D01*
X23854089Y-12438114D01*
X23878265Y-12436911D01*
X23902588Y-12435624D01*
X23927060Y-12434254D01*
X23951680Y-12432802D01*
X23976447Y-12431266D01*
X24001363Y-12429648D01*
X24026428Y-12427946D01*
X24051640Y-12426162D01*
X24077000Y-12424294D01*
X24102509Y-12422343D01*
X24128165Y-12420310D01*
X24153970Y-12418193D01*
X24179923Y-12415994D01*
X24206024Y-12413711D01*
X24232273Y-12411345D01*
X24258670Y-12408897D01*
X24285215Y-12406365D01*
X24311909Y-12403750D01*
X24311909Y-12119085D01*
X24282991Y-12121024D01*
X24254534Y-12122901D01*
X24226539Y-12124716D01*
X24199005Y-12126470D01*
X24171934Y-12128162D01*
X24145323Y-12129793D01*
X24119174Y-12131362D01*
X24093487Y-12132870D01*
X24068261Y-12134316D01*
X24043497Y-12135701D01*
X24019194Y-12137024D01*
X23995353Y-12138285D01*
X23971973Y-12139485D01*
X23949055Y-12140624D01*
X23926598Y-12141700D01*
X23904603Y-12142716D01*
X23883070Y-12143670D01*
X23861998Y-12144562D01*
X23841387Y-12145393D01*
X23821238Y-12146162D01*
X23801551Y-12146870D01*
X23782325Y-12147516D01*
X23763560Y-12148100D01*
X23745258Y-12148623D01*
X23727416Y-12149085D01*
X23710037Y-12149485D01*
X23693118Y-12149823D01*
X23676662Y-12150100D01*
X23660666Y-12150316D01*
X23645133Y-12150470D01*
X23630061Y-12150562D01*
X23615450Y-12150593D01*
X23598011Y-12149601D01*
X23581962Y-12146626D01*
X23567305Y-12141667D01*
X23554038Y-12134725D01*
X23542163Y-12125799D01*
X23538514Y-12122383D01*
X23528802Y-12110958D01*
X23521100Y-12098117D01*
X23515407Y-12083859D01*
X23511723Y-12068184D01*
X23510049Y-12051092D01*
X23509937Y-12045080D01*
X23509937Y-11960816D01*
X23510432Y-11945466D01*
X23513032Y-11924298D01*
X23517860Y-11905358D01*
X23524916Y-11888646D01*
X23534200Y-11874162D01*
X23545713Y-11861907D01*
X23559454Y-11851880D01*
X23575423Y-11844081D01*
X23593620Y-11838510D01*
X23614046Y-11835168D01*
X23628900Y-11834178D01*
X23636699Y-11834054D01*
X24079634Y-11834054D01*
X24079634Y-11538764D01*
X23678831Y-11538764D01*
X23663481Y-11538269D01*
X23642313Y-11535670D01*
X23623373Y-11530842D01*
X23606661Y-11523786D01*
X23592177Y-11514501D01*
X23579922Y-11502989D01*
X23569895Y-11489248D01*
X23562096Y-11473279D01*
X23556526Y-11455082D01*
X23553183Y-11434656D01*
X23552193Y-11419801D01*
X23552069Y-11412002D01*
X23552069Y-11369870D01*
X23552564Y-11354520D01*
X23555164Y-11333352D01*
X23559992Y-11314412D01*
X23567048Y-11297700D01*
X23576332Y-11283217D01*
X23587845Y-11270961D01*
X23601586Y-11260934D01*
X23617555Y-11253135D01*
X23635752Y-11247565D01*
X23656177Y-11244222D01*
X23671032Y-11243232D01*
X23678831Y-11243108D01*
X24290660Y-11243108D01*
X24290660Y-10947819D01*
X23573318Y-10947819D01*
X23547873Y-10948187D01*
X23523287Y-10949290D01*
X23499559Y-10951129D01*
X23476690Y-10953703D01*
X23454679Y-10957014D01*
X23433527Y-10961059D01*
X23413234Y-10965841D01*
X23393800Y-10971358D01*
X23375224Y-10977610D01*
X23357507Y-10984598D01*
X23340648Y-10992322D01*
X23324649Y-11000781D01*
X23309507Y-11009976D01*
X23295225Y-11019907D01*
X23281801Y-11030573D01*
X23269236Y-11041974D01*
X23257479Y-11054082D01*
X23246481Y-11066956D01*
X23236242Y-11080597D01*
X23226761Y-11095006D01*
X23218038Y-11110181D01*
X23210074Y-11126124D01*
X23202868Y-11142833D01*
X23196421Y-11160310D01*
X23190732Y-11178554D01*
X23185802Y-11197565D01*
X23181631Y-11217343D01*
X23178217Y-11237888D01*
X23175563Y-11259200D01*
X23173666Y-11281279D01*
X23172529Y-11304125D01*
X23172149Y-11327739D01*
X23172377Y-11343353D01*
X23173060Y-11358599D01*
X23174197Y-11373475D01*
X23176757Y-11395098D01*
X23180341Y-11415889D01*
X23184949Y-11435850D01*
X23190581Y-11454980D01*
X23197236Y-11473279D01*
X23204916Y-11490748D01*
X23213620Y-11507385D01*
X23223347Y-11523192D01*
X23230401Y-11533269D01*
X23241580Y-11547691D01*
X23253409Y-11561283D01*
X23265889Y-11574044D01*
X23279019Y-11585974D01*
X23292800Y-11597073D01*
X23307230Y-11607342D01*
X23322312Y-11616780D01*
X23338044Y-11625387D01*
X23354426Y-11633163D01*
X23371459Y-11640108D01*
X23383175Y-11644277D01*
X23362262Y-11650620D01*
X23342205Y-11658016D01*
X23323004Y-11666465D01*
X23304659Y-11675968D01*
X23287169Y-11686524D01*
X23270535Y-11698133D01*
X23254757Y-11710795D01*
X23239835Y-11724511D01*
X23225769Y-11739280D01*
X23212558Y-11755102D01*
X23200203Y-11771978D01*
X23188704Y-11789907D01*
X23178061Y-11808889D01*
X23168274Y-11828925D01*
X23159342Y-11850014D01*
X23151267Y-11872156D01*
X23146286Y-11888797D01*
X23141970Y-11906113D01*
X23138318Y-11924105D01*
X23135330Y-11942773D01*
X23133006Y-11962115D01*
X23131698Y-11977066D01*
X23130765Y-11992396D01*
X23130204Y-12008107D01*
X23130018Y-12024197D01*
X23130018Y-12045080D01*
X23130397Y-12070525D01*
X23131534Y-12095111D01*
X23133431Y-12118839D01*
X23136085Y-12141708D01*
X23139499Y-12163719D01*
X23143670Y-12184871D01*
X23148600Y-12205164D01*
X23154289Y-12224598D01*
X23160736Y-12243174D01*
X23167942Y-12260891D01*
X23175906Y-12277750D01*
X23184629Y-12293750D01*
X23194110Y-12308891D01*
X23204349Y-12323173D01*
X23215347Y-12336597D01*
X23227104Y-12349162D01*
X23239669Y-12360919D01*
X23253093Y-12371917D01*
X23267375Y-12382156D01*
X23282517Y-12391637D01*
X23298516Y-12400360D01*
X23315375Y-12408324D01*
X23333092Y-12415530D01*
X23351668Y-12421977D01*
X23371102Y-12427666D01*
X23391396Y-12432596D01*
X23412547Y-12436768D01*
X23434558Y-12440181D01*
X23457427Y-12442835D01*
X23481155Y-12444732D01*
X23505741Y-12445869D01*
X23531186Y-12446249D01*
G37*
G36*
X23009850Y-12108461D02*
G01*
X22629930Y-12108461D01*
X22629930Y-12425000D01*
X23009850Y-12425000D01*
X23009850Y-12108461D01*
G37*
G36*
X22089987Y-10926962D02*
G01*
X22116230Y-10928138D01*
X22141530Y-10930099D01*
X22165884Y-10932844D01*
X22189294Y-10936373D01*
X22211760Y-10940686D01*
X22233281Y-10945784D01*
X22253857Y-10951666D01*
X22273489Y-10958332D01*
X22292177Y-10965782D01*
X22309920Y-10974017D01*
X22326718Y-10983036D01*
X22342572Y-10992839D01*
X22357481Y-11003426D01*
X22371446Y-11014798D01*
X22384466Y-11026953D01*
X22396622Y-11039974D01*
X22407994Y-11053938D01*
X22418581Y-11068848D01*
X22428384Y-11084702D01*
X22437403Y-11101500D01*
X22445638Y-11119243D01*
X22453088Y-11137930D01*
X22459754Y-11157562D01*
X22465636Y-11178139D01*
X22470734Y-11199660D01*
X22475047Y-11222125D01*
X22478576Y-11245536D01*
X22481321Y-11269890D01*
X22483282Y-11295189D01*
X22484458Y-11321433D01*
X22484850Y-11348621D01*
X22484850Y-12024197D01*
X22484458Y-12051385D01*
X22483282Y-12077629D01*
X22481321Y-12102928D01*
X22478576Y-12127283D01*
X22475047Y-12150693D01*
X22470734Y-12173158D01*
X22465636Y-12194679D01*
X22459754Y-12215256D01*
X22453088Y-12234888D01*
X22445638Y-12253575D01*
X22437403Y-12271318D01*
X22428384Y-12288117D01*
X22418581Y-12303970D01*
X22407994Y-12318880D01*
X22396622Y-12332845D01*
X22384466Y-12345865D01*
X22371446Y-12358021D01*
X22357481Y-12369392D01*
X22342572Y-12379980D01*
X22326718Y-12389783D01*
X22309920Y-12398802D01*
X22292177Y-12407036D01*
X22273489Y-12414487D01*
X22253857Y-12421153D01*
X22233281Y-12427035D01*
X22211760Y-12432132D01*
X22189294Y-12436446D01*
X22165884Y-12439975D01*
X22141530Y-12442720D01*
X22116230Y-12444680D01*
X22089987Y-12445857D01*
X22062798Y-12446249D01*
X21661630Y-12446249D01*
X21634398Y-12445857D01*
X21608117Y-12444680D01*
X21582787Y-12442720D01*
X21558406Y-12439975D01*
X21534976Y-12436446D01*
X21512496Y-12432132D01*
X21490967Y-12427035D01*
X21470387Y-12421153D01*
X21450758Y-12414487D01*
X21432079Y-12407036D01*
X21414351Y-12398802D01*
X21397572Y-12389783D01*
X21381744Y-12379980D01*
X21366867Y-12369392D01*
X21352939Y-12358021D01*
X21339962Y-12345865D01*
X21327806Y-12332845D01*
X21316434Y-12318880D01*
X21305847Y-12303970D01*
X21296044Y-12288117D01*
X21287025Y-12271318D01*
X21278790Y-12253575D01*
X21271340Y-12234888D01*
X21264674Y-12215256D01*
X21258792Y-12194679D01*
X21253694Y-12173158D01*
X21249381Y-12150693D01*
X21245852Y-12127283D01*
X21243107Y-12102928D01*
X21241146Y-12077629D01*
X21239970Y-12051385D01*
X21239578Y-12024197D01*
X21619498Y-12024197D01*
X21619621Y-12031973D01*
X21620612Y-12046785D01*
X21623954Y-12067152D01*
X21629525Y-12085296D01*
X21637324Y-12101219D01*
X21647351Y-12114920D01*
X21659606Y-12126400D01*
X21674089Y-12135657D01*
X21690801Y-12142693D01*
X21709741Y-12147507D01*
X21730910Y-12150099D01*
X21746260Y-12150593D01*
X21978168Y-12150593D01*
X21985967Y-12150469D01*
X22000822Y-12149482D01*
X22021248Y-12146149D01*
X22039445Y-12140595D01*
X22055414Y-12132818D01*
X22069155Y-12122820D01*
X22080667Y-12110600D01*
X22089952Y-12096159D01*
X22097008Y-12079495D01*
X22101836Y-12060610D01*
X22104435Y-12039503D01*
X22104930Y-12024197D01*
X22104930Y-11348621D01*
X22104806Y-11340845D01*
X22103816Y-11326033D01*
X22100474Y-11305666D01*
X22094903Y-11287522D01*
X22087104Y-11271599D01*
X22077077Y-11257898D01*
X22064822Y-11246419D01*
X22050338Y-11237161D01*
X22033627Y-11230125D01*
X22014687Y-11225311D01*
X21993518Y-11222719D01*
X21978168Y-11222226D01*
X21746260Y-11222226D01*
X21738461Y-11222349D01*
X21723606Y-11223336D01*
X21703180Y-11226669D01*
X21684983Y-11232224D01*
X21669014Y-11240000D01*
X21655273Y-11249998D01*
X21643761Y-11262218D01*
X21634476Y-11276660D01*
X21627420Y-11293323D01*
X21622592Y-11312208D01*
X21619993Y-11333316D01*
X21619498Y-11348621D01*
X21619498Y-12024197D01*
X21239578Y-12024197D01*
X21239578Y-11348621D01*
X21239970Y-11321433D01*
X21241146Y-11295189D01*
X21243107Y-11269890D01*
X21245852Y-11245536D01*
X21249381Y-11222125D01*
X21253694Y-11199660D01*
X21258792Y-11178139D01*
X21264674Y-11157562D01*
X21271340Y-11137930D01*
X21278790Y-11119243D01*
X21287025Y-11101500D01*
X21296044Y-11084702D01*
X21305847Y-11068848D01*
X21316434Y-11053938D01*
X21327806Y-11039974D01*
X21339962Y-11026953D01*
X21352939Y-11014798D01*
X21366867Y-11003426D01*
X21381744Y-10992839D01*
X21397572Y-10983036D01*
X21414351Y-10974017D01*
X21432079Y-10965782D01*
X21450758Y-10958332D01*
X21470387Y-10951666D01*
X21490967Y-10945784D01*
X21512496Y-10940686D01*
X21534976Y-10936373D01*
X21558406Y-10932844D01*
X21582787Y-10930099D01*
X21608117Y-10928138D01*
X21634398Y-10926962D01*
X21661630Y-10926570D01*
X22062798Y-10926570D01*
X22089987Y-10926962D01*
G37*
G36*
X21098894Y-12108461D02*
G01*
X20718974Y-12108461D01*
X20718974Y-12425000D01*
X21098894Y-12425000D01*
X21098894Y-12108461D01*
G37*
G36*
X20310112Y-12425000D02*
G01*
X20310112Y-11274982D01*
X20552645Y-11359246D01*
X20658158Y-11116713D01*
X20267613Y-10947819D01*
X19930192Y-10947819D01*
X19930192Y-12425000D01*
X20310112Y-12425000D01*
G37*
G36*
X44694829Y-8240425D02*
G01*
X44188757Y-8240425D01*
X44188757Y-9675596D01*
X44189280Y-9711847D01*
X44190849Y-9746839D01*
X44193463Y-9780571D01*
X44197123Y-9813044D01*
X44201828Y-9844257D01*
X44207579Y-9874211D01*
X44214376Y-9902906D01*
X44222219Y-9930341D01*
X44231107Y-9956517D01*
X44241041Y-9981434D01*
X44252020Y-10005091D01*
X44264045Y-10027489D01*
X44277116Y-10048627D01*
X44291232Y-10068507D01*
X44306395Y-10087126D01*
X44322602Y-10104487D01*
X44339906Y-10120694D01*
X44358476Y-10135857D01*
X44378313Y-10149973D01*
X44399417Y-10163044D01*
X44421788Y-10175069D01*
X44445426Y-10186048D01*
X44470331Y-10195982D01*
X44496503Y-10204870D01*
X44523942Y-10212713D01*
X44552649Y-10219510D01*
X44582622Y-10225261D01*
X44613862Y-10229966D01*
X44646369Y-10233626D01*
X44680143Y-10236240D01*
X44715185Y-10237809D01*
X44751493Y-10238332D01*
X45398248Y-10238332D01*
X45434558Y-10237809D01*
X45469605Y-10236240D01*
X45503389Y-10233626D01*
X45535909Y-10229966D01*
X45567167Y-10225261D01*
X45597161Y-10219510D01*
X45625892Y-10212713D01*
X45653360Y-10204870D01*
X45679564Y-10195982D01*
X45704506Y-10186048D01*
X45728184Y-10175069D01*
X45750599Y-10163044D01*
X45771751Y-10149973D01*
X45791639Y-10135857D01*
X45810265Y-10120694D01*
X45827627Y-10104487D01*
X45843776Y-10087126D01*
X45858882Y-10068507D01*
X45872947Y-10048627D01*
X45885970Y-10027489D01*
X45897952Y-10005091D01*
X45908891Y-9981434D01*
X45918789Y-9956517D01*
X45927644Y-9930341D01*
X45935458Y-9902906D01*
X45942230Y-9874211D01*
X45947960Y-9844257D01*
X45952649Y-9813044D01*
X45956295Y-9780571D01*
X45958900Y-9746839D01*
X45960463Y-9711847D01*
X45960983Y-9675596D01*
X45960983Y-8240425D01*
X45454912Y-8240425D01*
X45454912Y-9675596D01*
X45454252Y-9696004D01*
X45450786Y-9724147D01*
X45444349Y-9749327D01*
X45434941Y-9771545D01*
X45422562Y-9790801D01*
X45407211Y-9807094D01*
X45388890Y-9820425D01*
X45367598Y-9830793D01*
X45343335Y-9838199D01*
X45316101Y-9842643D01*
X45296295Y-9843959D01*
X45285896Y-9844124D01*
X44863845Y-9844124D01*
X44843378Y-9843465D01*
X44815153Y-9840009D01*
X44789900Y-9833591D01*
X44767618Y-9824210D01*
X44748306Y-9811866D01*
X44731966Y-9796561D01*
X44718596Y-9778293D01*
X44708198Y-9757062D01*
X44700771Y-9732869D01*
X44696314Y-9705714D01*
X44694994Y-9685965D01*
X44694829Y-9675596D01*
X44694829Y-8240425D01*
G37*
G36*
X42934326Y-10210000D02*
G01*
X43946957Y-10210000D01*
X43946957Y-9816280D01*
X43693921Y-9816280D01*
X43693921Y-8634145D01*
X43946957Y-8634145D01*
X43946957Y-8240425D01*
X42934326Y-8240425D01*
X42934326Y-8634145D01*
X43187362Y-8634145D01*
X43187362Y-9816280D01*
X42934326Y-9816280D01*
X42934326Y-10210000D01*
G37*
G36*
X40972079Y-10210000D02*
G01*
X41506482Y-10210000D01*
X42182058Y-9028353D01*
X42182058Y-10210000D01*
X42688129Y-10210000D01*
X42688129Y-8240425D01*
X42153726Y-8240425D01*
X41478639Y-9422072D01*
X41478639Y-8240425D01*
X40972079Y-8240425D01*
X40972079Y-10210000D01*
G37*
G36*
X39716182Y-10210000D02*
G01*
X40728813Y-10210000D01*
X40728813Y-9816280D01*
X40475778Y-9816280D01*
X40475778Y-8634145D01*
X40728813Y-8634145D01*
X40728813Y-8240425D01*
X39716182Y-8240425D01*
X39716182Y-8634145D01*
X39969218Y-8634145D01*
X39969218Y-9816280D01*
X39716182Y-9816280D01*
X39716182Y-10210000D01*
G37*
G36*
X39000165Y-8212616D02*
G01*
X39035157Y-8214184D01*
X39068889Y-8216799D01*
X39101362Y-8220458D01*
X39132575Y-8225164D01*
X39162530Y-8230915D01*
X39191224Y-8237712D01*
X39218660Y-8245554D01*
X39244836Y-8254442D01*
X39269752Y-8264376D01*
X39293409Y-8275356D01*
X39315807Y-8287381D01*
X39336946Y-8300452D01*
X39356825Y-8314568D01*
X39375444Y-8329730D01*
X39392805Y-8345938D01*
X39409013Y-8363298D01*
X39424175Y-8381918D01*
X39438291Y-8401797D01*
X39451362Y-8422936D01*
X39463387Y-8445333D01*
X39474367Y-8468991D01*
X39484300Y-8493907D01*
X39493189Y-8520083D01*
X39501031Y-8547519D01*
X39507828Y-8576213D01*
X39513579Y-8606167D01*
X39518285Y-8637381D01*
X39521944Y-8669854D01*
X39524559Y-8703586D01*
X39526127Y-8738578D01*
X39526650Y-8774829D01*
X39526650Y-9675596D01*
X39526127Y-9711847D01*
X39524559Y-9746839D01*
X39521944Y-9780571D01*
X39518285Y-9813044D01*
X39513579Y-9844257D01*
X39507828Y-9874211D01*
X39501031Y-9902906D01*
X39493189Y-9930341D01*
X39484300Y-9956517D01*
X39474367Y-9981434D01*
X39463387Y-10005091D01*
X39451362Y-10027489D01*
X39438291Y-10048627D01*
X39424175Y-10068507D01*
X39409013Y-10087126D01*
X39392805Y-10104487D01*
X39375444Y-10120694D01*
X39356825Y-10135857D01*
X39336946Y-10149973D01*
X39315807Y-10163044D01*
X39293409Y-10175069D01*
X39269752Y-10186048D01*
X39244836Y-10195982D01*
X39218660Y-10204870D01*
X39191224Y-10212713D01*
X39162530Y-10219510D01*
X39132575Y-10225261D01*
X39101362Y-10229966D01*
X39068889Y-10233626D01*
X39035157Y-10236240D01*
X39000165Y-10237809D01*
X38963914Y-10238332D01*
X38260495Y-10238332D01*
X38224187Y-10237809D01*
X38189146Y-10236240D01*
X38155371Y-10233626D01*
X38122864Y-10229966D01*
X38091624Y-10225261D01*
X38061651Y-10219510D01*
X38032945Y-10212713D01*
X38005505Y-10204870D01*
X37979333Y-10195982D01*
X37954428Y-10186048D01*
X37930790Y-10175069D01*
X37908419Y-10163044D01*
X37887315Y-10149973D01*
X37867478Y-10135857D01*
X37848908Y-10120694D01*
X37831605Y-10104487D01*
X37815397Y-10087126D01*
X37800235Y-10068507D01*
X37786118Y-10048627D01*
X37773047Y-10027489D01*
X37761022Y-10005091D01*
X37750043Y-9981434D01*
X37740109Y-9956517D01*
X37731221Y-9930341D01*
X37723378Y-9902906D01*
X37716581Y-9874211D01*
X37710830Y-9844257D01*
X37706125Y-9813044D01*
X37702465Y-9780571D01*
X37699851Y-9746839D01*
X37698282Y-9711847D01*
X37697759Y-9675596D01*
X38203831Y-9675596D01*
X38203996Y-9685965D01*
X38205316Y-9705714D01*
X38209773Y-9732869D01*
X38217200Y-9757062D01*
X38227599Y-9778293D01*
X38240968Y-9796561D01*
X38257308Y-9811866D01*
X38276620Y-9824210D01*
X38298902Y-9833591D01*
X38324156Y-9840009D01*
X38352380Y-9843465D01*
X38372847Y-9844124D01*
X38851074Y-9844124D01*
X38861473Y-9843959D01*
X38881279Y-9842643D01*
X38908513Y-9838199D01*
X38932776Y-9830793D01*
X38954068Y-9820425D01*
X38972389Y-9807094D01*
X38987739Y-9790801D01*
X39000119Y-9771545D01*
X39009527Y-9749327D01*
X39015964Y-9724147D01*
X39019430Y-9696004D01*
X39020090Y-9675596D01*
X39020090Y-8774829D01*
X39019925Y-8764460D01*
X39018605Y-8744711D01*
X39014148Y-8717555D01*
X39006721Y-8693363D01*
X38996322Y-8672132D01*
X38982953Y-8653864D01*
X38966612Y-8638558D01*
X38947301Y-8626215D01*
X38925019Y-8616834D01*
X38899765Y-8610415D01*
X38871541Y-8606959D01*
X38851074Y-8606301D01*
X38372847Y-8606301D01*
X38362448Y-8606466D01*
X38342642Y-8607782D01*
X38315408Y-8612226D01*
X38291145Y-8619632D01*
X38269853Y-8630000D01*
X38251531Y-8643331D01*
X38236181Y-8659624D01*
X38223802Y-8678880D01*
X38214394Y-8701098D01*
X38207957Y-8726278D01*
X38204491Y-8754421D01*
X38203831Y-8774829D01*
X38203831Y-9675596D01*
X37697759Y-9675596D01*
X37697759Y-8774829D01*
X37698282Y-8738578D01*
X37699851Y-8703586D01*
X37702465Y-8669854D01*
X37706125Y-8637381D01*
X37710830Y-8606167D01*
X37716581Y-8576213D01*
X37723378Y-8547519D01*
X37731221Y-8520083D01*
X37740109Y-8493907D01*
X37750043Y-8468991D01*
X37761022Y-8445333D01*
X37773047Y-8422936D01*
X37786118Y-8401797D01*
X37800235Y-8381918D01*
X37815397Y-8363298D01*
X37831605Y-8345938D01*
X37848908Y-8329730D01*
X37867478Y-8314568D01*
X37887315Y-8300452D01*
X37908419Y-8287381D01*
X37930790Y-8275356D01*
X37954428Y-8264376D01*
X37979333Y-8254442D01*
X38005505Y-8245554D01*
X38032945Y-8237712D01*
X38061651Y-8230915D01*
X38091624Y-8225164D01*
X38122864Y-8220458D01*
X38155371Y-8216799D01*
X38189146Y-8214184D01*
X38224187Y-8212616D01*
X38260495Y-8212093D01*
X38963914Y-8212093D01*
X39000165Y-8212616D01*
G37*
G36*
X37510669Y-9422072D02*
G01*
X37510669Y-9028353D01*
X36357355Y-9028353D01*
X36357355Y-9422072D01*
X37510669Y-9422072D01*
G37*
G36*
X34422951Y-9112861D02*
G01*
X34817159Y-9816280D01*
X35210879Y-9816280D01*
X35605087Y-9112861D01*
X35605087Y-10210000D01*
X36111158Y-10210000D01*
X36111158Y-8240425D01*
X35576755Y-8240425D01*
X35014019Y-9281388D01*
X34451284Y-8240425D01*
X33916880Y-8240425D01*
X33916880Y-10210000D01*
X34422951Y-10210000D01*
X34422951Y-9112861D01*
G37*
G36*
X32073335Y-10181667D02*
G01*
X32112328Y-10185154D01*
X32150903Y-10188529D01*
X32189062Y-10191794D01*
X32226804Y-10194948D01*
X32264128Y-10197992D01*
X32301036Y-10200924D01*
X32337527Y-10203747D01*
X32373601Y-10206458D01*
X32409258Y-10209059D01*
X32444498Y-10211549D01*
X32479322Y-10213928D01*
X32513728Y-10216197D01*
X32547717Y-10218355D01*
X32581290Y-10220403D01*
X32614445Y-10222339D01*
X32647184Y-10224166D01*
X32679505Y-10225881D01*
X32711410Y-10227486D01*
X32742898Y-10228980D01*
X32773969Y-10230363D01*
X32804623Y-10231636D01*
X32834860Y-10232798D01*
X32864680Y-10233849D01*
X32894083Y-10234790D01*
X32923069Y-10235620D01*
X32951638Y-10236340D01*
X32979790Y-10236948D01*
X33007526Y-10237446D01*
X33034844Y-10237834D01*
X33061746Y-10238110D01*
X33088230Y-10238276D01*
X33114298Y-10238332D01*
X33148225Y-10237826D01*
X33181007Y-10236309D01*
X33212644Y-10233781D01*
X33243136Y-10230241D01*
X33272484Y-10225690D01*
X33300686Y-10220128D01*
X33327744Y-10213554D01*
X33353656Y-10205969D01*
X33378424Y-10197373D01*
X33402047Y-10187766D01*
X33424525Y-10177147D01*
X33445858Y-10165517D01*
X33466046Y-10152875D01*
X33485089Y-10139223D01*
X33502988Y-10124558D01*
X33519741Y-10108883D01*
X33535417Y-10092129D01*
X33550081Y-10074231D01*
X33563734Y-10055188D01*
X33576375Y-10035000D01*
X33588005Y-10013666D01*
X33598624Y-9991188D01*
X33608232Y-9967566D01*
X33616828Y-9942798D01*
X33624413Y-9916885D01*
X33630986Y-9889828D01*
X33636549Y-9861625D01*
X33641099Y-9832278D01*
X33644639Y-9801786D01*
X33647167Y-9770149D01*
X33648684Y-9737367D01*
X33649190Y-9703440D01*
X33649190Y-8803161D01*
X33648667Y-8766852D01*
X33647099Y-8731811D01*
X33644485Y-8698037D01*
X33640825Y-8665530D01*
X33636119Y-8634290D01*
X33630368Y-8604316D01*
X33623571Y-8575610D01*
X33615729Y-8548171D01*
X33606841Y-8521999D01*
X33596907Y-8497094D01*
X33585927Y-8473456D01*
X33573902Y-8451085D01*
X33560831Y-8429981D01*
X33546715Y-8410143D01*
X33531553Y-8391573D01*
X33515345Y-8374270D01*
X33497985Y-8358062D01*
X33479365Y-8342900D01*
X33459486Y-8328784D01*
X33438347Y-8315713D01*
X33415950Y-8303688D01*
X33392292Y-8292708D01*
X33367376Y-8282775D01*
X33341200Y-8273886D01*
X33313764Y-8266044D01*
X33285070Y-8259247D01*
X33255116Y-8253496D01*
X33223902Y-8248790D01*
X33191429Y-8245131D01*
X33157697Y-8242517D01*
X33122705Y-8240948D01*
X33086454Y-8240425D01*
X32073335Y-8240425D01*
X32073335Y-8634145D01*
X32973614Y-8634145D01*
X32994081Y-8634805D01*
X33022305Y-8638271D01*
X33047559Y-8644708D01*
X33069841Y-8654116D01*
X33089153Y-8666495D01*
X33105493Y-8681845D01*
X33118862Y-8700167D01*
X33129261Y-8721459D01*
X33136688Y-8745722D01*
X33141145Y-8772956D01*
X33142465Y-8792762D01*
X33142630Y-8803161D01*
X33142630Y-9703440D01*
X33141700Y-9723087D01*
X33138128Y-9744931D01*
X33131877Y-9764886D01*
X33122947Y-9782953D01*
X33111338Y-9799130D01*
X33104528Y-9806510D01*
X33089502Y-9819293D01*
X33070104Y-9830864D01*
X33051877Y-9837916D01*
X33032174Y-9842324D01*
X33010993Y-9844087D01*
X33007320Y-9844124D01*
X32984760Y-9844072D01*
X32961410Y-9843918D01*
X32941348Y-9843710D01*
X32920738Y-9843431D01*
X32899579Y-9843080D01*
X32877871Y-9842658D01*
X32855758Y-9842176D01*
X32833383Y-9841647D01*
X32810745Y-9841070D01*
X32787845Y-9840445D01*
X32764682Y-9839772D01*
X32741257Y-9839052D01*
X32731814Y-9838750D01*
X32707976Y-9837834D01*
X32684091Y-9836919D01*
X32660158Y-9836003D01*
X32636178Y-9835087D01*
X32612149Y-9834171D01*
X32588073Y-9833255D01*
X32578429Y-9832889D01*
X32558424Y-9832072D01*
X32537000Y-9831087D01*
X32514155Y-9829935D01*
X32489891Y-9828614D01*
X32464208Y-9827126D01*
X32444013Y-9825899D01*
X32423020Y-9824579D01*
X32401229Y-9823163D01*
X32378639Y-9821653D01*
X32355121Y-9820071D01*
X32330548Y-9818436D01*
X32304918Y-9816750D01*
X32278232Y-9815013D01*
X32250490Y-9813224D01*
X32221692Y-9811384D01*
X32201906Y-9810128D01*
X32181651Y-9808850D01*
X32160927Y-9807548D01*
X32139733Y-9806224D01*
X32118070Y-9804877D01*
X32095937Y-9803507D01*
X32073335Y-9802114D01*
X32073335Y-10181667D01*
G37*
G36*
X30591270Y-8240425D02*
G01*
X30085198Y-8240425D01*
X30085198Y-9675596D01*
X30085721Y-9711847D01*
X30087290Y-9746839D01*
X30089904Y-9780571D01*
X30093564Y-9813044D01*
X30098269Y-9844257D01*
X30104020Y-9874211D01*
X30110817Y-9902906D01*
X30118660Y-9930341D01*
X30127548Y-9956517D01*
X30137482Y-9981434D01*
X30148461Y-10005091D01*
X30160486Y-10027489D01*
X30173557Y-10048627D01*
X30187674Y-10068507D01*
X30202836Y-10087126D01*
X30219043Y-10104487D01*
X30236347Y-10120694D01*
X30254917Y-10135857D01*
X30274754Y-10149973D01*
X30295858Y-10163044D01*
X30318229Y-10175069D01*
X30341867Y-10186048D01*
X30366772Y-10195982D01*
X30392944Y-10204870D01*
X30420384Y-10212713D01*
X30449090Y-10219510D01*
X30479063Y-10225261D01*
X30510303Y-10229966D01*
X30542810Y-10233626D01*
X30576584Y-10236240D01*
X30611626Y-10237809D01*
X30647934Y-10238332D01*
X31294689Y-10238332D01*
X31330999Y-10237809D01*
X31366046Y-10236240D01*
X31399830Y-10233626D01*
X31432350Y-10229966D01*
X31463608Y-10225261D01*
X31493602Y-10219510D01*
X31522333Y-10212713D01*
X31549801Y-10204870D01*
X31576005Y-10195982D01*
X31600947Y-10186048D01*
X31624625Y-10175069D01*
X31647040Y-10163044D01*
X31668192Y-10149973D01*
X31688080Y-10135857D01*
X31706706Y-10120694D01*
X31724068Y-10104487D01*
X31740217Y-10087126D01*
X31755323Y-10068507D01*
X31769388Y-10048627D01*
X31782411Y-10027489D01*
X31794393Y-10005091D01*
X31805332Y-9981434D01*
X31815230Y-9956517D01*
X31824085Y-9930341D01*
X31831899Y-9902906D01*
X31838671Y-9874211D01*
X31844401Y-9844257D01*
X31849090Y-9813044D01*
X31852736Y-9780571D01*
X31855341Y-9746839D01*
X31856904Y-9711847D01*
X31857424Y-9675596D01*
X31857424Y-8240425D01*
X31351353Y-8240425D01*
X31351353Y-9675596D01*
X31350693Y-9696004D01*
X31347227Y-9724147D01*
X31340790Y-9749327D01*
X31331382Y-9771545D01*
X31319003Y-9790801D01*
X31303652Y-9807094D01*
X31285331Y-9820425D01*
X31264039Y-9830793D01*
X31239776Y-9838199D01*
X31212542Y-9842643D01*
X31192736Y-9843959D01*
X31182337Y-9844124D01*
X30760286Y-9844124D01*
X30739819Y-9843465D01*
X30711594Y-9840009D01*
X30686341Y-9833591D01*
X30664059Y-9824210D01*
X30644747Y-9811866D01*
X30628407Y-9796561D01*
X30615037Y-9778293D01*
X30604639Y-9757062D01*
X30597212Y-9732869D01*
X30592755Y-9705714D01*
X30591435Y-9685965D01*
X30591270Y-9675596D01*
X30591270Y-8240425D01*
G37*
G36*
X29843398Y-9422072D02*
G01*
X29843398Y-9028353D01*
X28690083Y-9028353D01*
X28690083Y-9422072D01*
X29843398Y-9422072D01*
G37*
G36*
X26755680Y-10167990D02*
G01*
X26796730Y-10172317D01*
X26837572Y-10176508D01*
X26878204Y-10180561D01*
X26918628Y-10184476D01*
X26958843Y-10188254D01*
X26998848Y-10191895D01*
X27038645Y-10195398D01*
X27078233Y-10198764D01*
X27117612Y-10201993D01*
X27156782Y-10205084D01*
X27195743Y-10208038D01*
X27234495Y-10210854D01*
X27273038Y-10213533D01*
X27311372Y-10216075D01*
X27349498Y-10218479D01*
X27387414Y-10220746D01*
X27425121Y-10222876D01*
X27462620Y-10224868D01*
X27499909Y-10226723D01*
X27536990Y-10228440D01*
X27573861Y-10230020D01*
X27610524Y-10231462D01*
X27646978Y-10232768D01*
X27683223Y-10233935D01*
X27719258Y-10234966D01*
X27755085Y-10235859D01*
X27790703Y-10236614D01*
X27826112Y-10237233D01*
X27861312Y-10237713D01*
X27896304Y-10238057D01*
X27931086Y-10238263D01*
X27965659Y-10238332D01*
X27999586Y-10237826D01*
X28032368Y-10236309D01*
X28064005Y-10233781D01*
X28094497Y-10230241D01*
X28123844Y-10225690D01*
X28152047Y-10220128D01*
X28179104Y-10213554D01*
X28205017Y-10205969D01*
X28229785Y-10197373D01*
X28253408Y-10187766D01*
X28275886Y-10177147D01*
X28297219Y-10165517D01*
X28317407Y-10152875D01*
X28336450Y-10139223D01*
X28354349Y-10124558D01*
X28371102Y-10108883D01*
X28386778Y-10092129D01*
X28401442Y-10074231D01*
X28415094Y-10055188D01*
X28427736Y-10035000D01*
X28439366Y-10013666D01*
X28449985Y-9991188D01*
X28459592Y-9967566D01*
X28468189Y-9942798D01*
X28475773Y-9916885D01*
X28482347Y-9889828D01*
X28487909Y-9861625D01*
X28492460Y-9832278D01*
X28496000Y-9801786D01*
X28498528Y-9770149D01*
X28500045Y-9737367D01*
X28500551Y-9703440D01*
X28500551Y-8803161D01*
X28500028Y-8766852D01*
X28498459Y-8731811D01*
X28495845Y-8698037D01*
X28492185Y-8665530D01*
X28487480Y-8634290D01*
X28481729Y-8604316D01*
X28474932Y-8575610D01*
X28467090Y-8548171D01*
X28458201Y-8521999D01*
X28448268Y-8497094D01*
X28437288Y-8473456D01*
X28425263Y-8451085D01*
X28412192Y-8429981D01*
X28398076Y-8410143D01*
X28382914Y-8391573D01*
X28366706Y-8374270D01*
X28349345Y-8358062D01*
X28330726Y-8342900D01*
X28310847Y-8328784D01*
X28289708Y-8315713D01*
X28267310Y-8303688D01*
X28243653Y-8292708D01*
X28218737Y-8282775D01*
X28192561Y-8273886D01*
X28165125Y-8266044D01*
X28136431Y-8259247D01*
X28106476Y-8253496D01*
X28075263Y-8248790D01*
X28042790Y-8245131D01*
X28009058Y-8242517D01*
X27974066Y-8240948D01*
X27937815Y-8240425D01*
X26924696Y-8240425D01*
X26924696Y-8634145D01*
X27824975Y-8634145D01*
X27845442Y-8634805D01*
X27873666Y-8638271D01*
X27898920Y-8644708D01*
X27921202Y-8654116D01*
X27940513Y-8666495D01*
X27956854Y-8681845D01*
X27970223Y-8700167D01*
X27980622Y-8721459D01*
X27988049Y-8745722D01*
X27992506Y-8772956D01*
X27993826Y-8792762D01*
X27993991Y-8803161D01*
X27993991Y-9703440D01*
X27993061Y-9723087D01*
X27989489Y-9744931D01*
X27983238Y-9764886D01*
X27974308Y-9782953D01*
X27962698Y-9799130D01*
X27955889Y-9806510D01*
X27940674Y-9819293D01*
X27923603Y-9829431D01*
X27904678Y-9836924D01*
X27883899Y-9841773D01*
X27861264Y-9843977D01*
X27853307Y-9844124D01*
X27833121Y-9844110D01*
X27813045Y-9844068D01*
X27793080Y-9843999D01*
X27773226Y-9843902D01*
X27753483Y-9843778D01*
X27733850Y-9843626D01*
X27694916Y-9843238D01*
X27656425Y-9842740D01*
X27618376Y-9842132D01*
X27580770Y-9841412D01*
X27543607Y-9840582D01*
X27506887Y-9839641D01*
X27470609Y-9838590D01*
X27434774Y-9837428D01*
X27399382Y-9836155D01*
X27364432Y-9834772D01*
X27329925Y-9833278D01*
X27295861Y-9831673D01*
X27262240Y-9829958D01*
X27262240Y-9422072D01*
X27628115Y-9422072D01*
X27628115Y-9084528D01*
X26755680Y-9084528D01*
X26755680Y-10167990D01*
G37*
G36*
X26484082Y-10210000D02*
G01*
X25386943Y-10210000D01*
X25347792Y-10209356D01*
X25309839Y-10207427D01*
X25273084Y-10204212D01*
X25237527Y-10199711D01*
X25203169Y-10193923D01*
X25170010Y-10186850D01*
X25138048Y-10178490D01*
X25107285Y-10168845D01*
X25077720Y-10157913D01*
X25049354Y-10145695D01*
X25022185Y-10132191D01*
X24996215Y-10117401D01*
X24971444Y-10101325D01*
X24947871Y-10083963D01*
X24925496Y-10065314D01*
X24904319Y-10045380D01*
X24894191Y-10034941D01*
X24874900Y-10013166D01*
X24856894Y-9990191D01*
X24840175Y-9966019D01*
X24824742Y-9940648D01*
X24810595Y-9914079D01*
X24797734Y-9886312D01*
X24786159Y-9857346D01*
X24775871Y-9827182D01*
X24766868Y-9795820D01*
X24759152Y-9763259D01*
X24752721Y-9729500D01*
X24747577Y-9694543D01*
X24743718Y-9658388D01*
X24741146Y-9621034D01*
X24739860Y-9582481D01*
X24739699Y-9562756D01*
X25246259Y-9562756D01*
X25247248Y-9593456D01*
X25250213Y-9622176D01*
X25255155Y-9648915D01*
X25262074Y-9673673D01*
X25270970Y-9696450D01*
X25281842Y-9717247D01*
X25294692Y-9736063D01*
X25309518Y-9752899D01*
X25326321Y-9767754D01*
X25345101Y-9780628D01*
X25365858Y-9791522D01*
X25388592Y-9800435D01*
X25413302Y-9807367D01*
X25439989Y-9812319D01*
X25468654Y-9815290D01*
X25499295Y-9816280D01*
X25978011Y-9816280D01*
X25978011Y-8634145D01*
X25499295Y-8634145D01*
X25468654Y-8635135D01*
X25439989Y-8638106D01*
X25413302Y-8643058D01*
X25388592Y-8649990D01*
X25365858Y-8658903D01*
X25345101Y-8669796D01*
X25326321Y-8682671D01*
X25309518Y-8697526D01*
X25294692Y-8714361D01*
X25281842Y-8733177D01*
X25270970Y-8753974D01*
X25262074Y-8776752D01*
X25255155Y-8801510D01*
X25250213Y-8828249D01*
X25247248Y-8856969D01*
X25246259Y-8887669D01*
X25246259Y-9562756D01*
X24739699Y-9562756D01*
X24739699Y-8887669D01*
X24740342Y-8848517D01*
X24742272Y-8810564D01*
X24745487Y-8773810D01*
X24749988Y-8738253D01*
X24755776Y-8703895D01*
X24762849Y-8670735D01*
X24771209Y-8638774D01*
X24780854Y-8608011D01*
X24791786Y-8578446D01*
X24804004Y-8550079D01*
X24817508Y-8522911D01*
X24832298Y-8496941D01*
X24848374Y-8472170D01*
X24865736Y-8448596D01*
X24884385Y-8426221D01*
X24904319Y-8405045D01*
X24914758Y-8394917D01*
X24936533Y-8375626D01*
X24959507Y-8357620D01*
X24983680Y-8340901D01*
X25009051Y-8325468D01*
X25035620Y-8311321D01*
X25063387Y-8298460D01*
X25092353Y-8286885D01*
X25122517Y-8276596D01*
X25153879Y-8267594D01*
X25186440Y-8259877D01*
X25220199Y-8253447D01*
X25255156Y-8248302D01*
X25291311Y-8244444D01*
X25328665Y-8241872D01*
X25367218Y-8240586D01*
X25386943Y-8240425D01*
X26484082Y-8240425D01*
X26484082Y-10210000D01*
G37*
G36*
X23541444Y-10238332D02*
G01*
X23570913Y-10238276D01*
X23600579Y-10238110D01*
X23630443Y-10237834D01*
X23660505Y-10237446D01*
X23690764Y-10236948D01*
X23721220Y-10236340D01*
X23751874Y-10235620D01*
X23782725Y-10234790D01*
X23813774Y-10233849D01*
X23845021Y-10232798D01*
X23876465Y-10231636D01*
X23908106Y-10230363D01*
X23939945Y-10228980D01*
X23971981Y-10227486D01*
X24004215Y-10225881D01*
X24036646Y-10224166D01*
X24069275Y-10222339D01*
X24102102Y-10220403D01*
X24135125Y-10218355D01*
X24168347Y-10216197D01*
X24201766Y-10213928D01*
X24235382Y-10211549D01*
X24269196Y-10209059D01*
X24303207Y-10206458D01*
X24337416Y-10203747D01*
X24371822Y-10200924D01*
X24406426Y-10197992D01*
X24441227Y-10194948D01*
X24476226Y-10191794D01*
X24511422Y-10188529D01*
X24546816Y-10185154D01*
X24582407Y-10181667D01*
X24582407Y-9802114D01*
X24543850Y-9804699D01*
X24505908Y-9807201D01*
X24468581Y-9809622D01*
X24431869Y-9811960D01*
X24395774Y-9814216D01*
X24360293Y-9816391D01*
X24325428Y-9818483D01*
X24291178Y-9820493D01*
X24257544Y-9822421D01*
X24224524Y-9824268D01*
X24192121Y-9826032D01*
X24160332Y-9827714D01*
X24129160Y-9829314D01*
X24098602Y-9830832D01*
X24068660Y-9832267D01*
X24039333Y-9833621D01*
X24010622Y-9834893D01*
X23982526Y-9836083D01*
X23955045Y-9837190D01*
X23928180Y-9838216D01*
X23901930Y-9839160D01*
X23876295Y-9840021D01*
X23851276Y-9840801D01*
X23826872Y-9841498D01*
X23803084Y-9842113D01*
X23779911Y-9842647D01*
X23757353Y-9843098D01*
X23735411Y-9843467D01*
X23714084Y-9843754D01*
X23693373Y-9843960D01*
X23673276Y-9844083D01*
X23653796Y-9844124D01*
X23630543Y-9842801D01*
X23609145Y-9838834D01*
X23589602Y-9832223D01*
X23571913Y-9822966D01*
X23556080Y-9811065D01*
X23551214Y-9806510D01*
X23538265Y-9791278D01*
X23527995Y-9774156D01*
X23520405Y-9755145D01*
X23515493Y-9734245D01*
X23513261Y-9711456D01*
X23513112Y-9703440D01*
X23513112Y-9591088D01*
X23513772Y-9570621D01*
X23517238Y-9542397D01*
X23523675Y-9517144D01*
X23533083Y-9494861D01*
X23545463Y-9475550D01*
X23560813Y-9459209D01*
X23579134Y-9445840D01*
X23600426Y-9435442D01*
X23624689Y-9428014D01*
X23651923Y-9423558D01*
X23671729Y-9422237D01*
X23682128Y-9422072D01*
X24272707Y-9422072D01*
X24272707Y-9028353D01*
X23738304Y-9028353D01*
X23717837Y-9027692D01*
X23689613Y-9024226D01*
X23664359Y-9017789D01*
X23642077Y-9008381D01*
X23622765Y-8996002D01*
X23606425Y-8980652D01*
X23593056Y-8962331D01*
X23582657Y-8941039D01*
X23575230Y-8916776D01*
X23570773Y-8889542D01*
X23569453Y-8869735D01*
X23569288Y-8859337D01*
X23569288Y-8803161D01*
X23569948Y-8782694D01*
X23573414Y-8754470D01*
X23579851Y-8729216D01*
X23589259Y-8706934D01*
X23601638Y-8687622D01*
X23616989Y-8671282D01*
X23635310Y-8657913D01*
X23656602Y-8647514D01*
X23680865Y-8640087D01*
X23708099Y-8635630D01*
X23727905Y-8634310D01*
X23738304Y-8634145D01*
X24554075Y-8634145D01*
X24554075Y-8240425D01*
X23597620Y-8240425D01*
X23563693Y-8240916D01*
X23530911Y-8242387D01*
X23499274Y-8244839D01*
X23468782Y-8248271D01*
X23439434Y-8252685D01*
X23411232Y-8258079D01*
X23384175Y-8264454D01*
X23358262Y-8271810D01*
X23333494Y-8280147D01*
X23309871Y-8289465D01*
X23287393Y-8299763D01*
X23266060Y-8311042D01*
X23245872Y-8323302D01*
X23226829Y-8336542D01*
X23208930Y-8350764D01*
X23192177Y-8365966D01*
X23176501Y-8382109D01*
X23161837Y-8399275D01*
X23148184Y-8417463D01*
X23135543Y-8436674D01*
X23123913Y-8456908D01*
X23113294Y-8478165D01*
X23103686Y-8500445D01*
X23095090Y-8523747D01*
X23087505Y-8548072D01*
X23080932Y-8573420D01*
X23075370Y-8599790D01*
X23070819Y-8627184D01*
X23067279Y-8655600D01*
X23064751Y-8685039D01*
X23063234Y-8715500D01*
X23062728Y-8746985D01*
X23063031Y-8767805D01*
X23063942Y-8788132D01*
X23065459Y-8807967D01*
X23068872Y-8836797D01*
X23073650Y-8864519D01*
X23079794Y-8891133D01*
X23087303Y-8916640D01*
X23096177Y-8941039D01*
X23106417Y-8964330D01*
X23118022Y-8986514D01*
X23130992Y-9007590D01*
X23140397Y-9021025D01*
X23155302Y-9040255D01*
X23171075Y-9058377D01*
X23187714Y-9075392D01*
X23205221Y-9091299D01*
X23223595Y-9106098D01*
X23242836Y-9119789D01*
X23262945Y-9132373D01*
X23283920Y-9143849D01*
X23305764Y-9154217D01*
X23328474Y-9163478D01*
X23344096Y-9169036D01*
X23316212Y-9177493D01*
X23289469Y-9187355D01*
X23263868Y-9198620D01*
X23239407Y-9211290D01*
X23216088Y-9225365D01*
X23193909Y-9240844D01*
X23172872Y-9257727D01*
X23152976Y-9276015D01*
X23134221Y-9295707D01*
X23116606Y-9316803D01*
X23100133Y-9339304D01*
X23084801Y-9363210D01*
X23070611Y-9388519D01*
X23057561Y-9415233D01*
X23045652Y-9443352D01*
X23034884Y-9472875D01*
X23028244Y-9495063D01*
X23022489Y-9518151D01*
X23017619Y-9542140D01*
X23013635Y-9567030D01*
X23010536Y-9592821D01*
X23008793Y-9612755D01*
X23007548Y-9633195D01*
X23006801Y-9654142D01*
X23006552Y-9675596D01*
X23006552Y-9703440D01*
X23007058Y-9737367D01*
X23008575Y-9770149D01*
X23011103Y-9801786D01*
X23014643Y-9832278D01*
X23019194Y-9861625D01*
X23024756Y-9889828D01*
X23031329Y-9916885D01*
X23038914Y-9942798D01*
X23047511Y-9967566D01*
X23057118Y-9991188D01*
X23067737Y-10013666D01*
X23079367Y-10035000D01*
X23092009Y-10055188D01*
X23105661Y-10074231D01*
X23120325Y-10092129D01*
X23136001Y-10108883D01*
X23152754Y-10124558D01*
X23170653Y-10139223D01*
X23189696Y-10152875D01*
X23209884Y-10165517D01*
X23231217Y-10177147D01*
X23253695Y-10187766D01*
X23277318Y-10197373D01*
X23302086Y-10205969D01*
X23327999Y-10213554D01*
X23355056Y-10220128D01*
X23383259Y-10225690D01*
X23412606Y-10230241D01*
X23443098Y-10233781D01*
X23474735Y-10236309D01*
X23507517Y-10237826D01*
X23541444Y-10238332D01*
G37*
G36*
X21354982Y-8859337D02*
G01*
X21355774Y-8889003D01*
X21358150Y-8918161D01*
X21362109Y-8946812D01*
X21367652Y-8974955D01*
X21374779Y-9002591D01*
X21383490Y-9029719D01*
X21393784Y-9056339D01*
X21405662Y-9082452D01*
X21419124Y-9108058D01*
X21434170Y-9133156D01*
X21450800Y-9157746D01*
X21469013Y-9181829D01*
X21488810Y-9205404D01*
X21510191Y-9228471D01*
X21533155Y-9251031D01*
X21557704Y-9273084D01*
X21573389Y-9286403D01*
X21589425Y-9299737D01*
X21605812Y-9313086D01*
X21622550Y-9326451D01*
X21639639Y-9339831D01*
X21657080Y-9353226D01*
X21674871Y-9366637D01*
X21693014Y-9380062D01*
X22297759Y-9816280D01*
X21354982Y-9816280D01*
X21354982Y-10210000D01*
X22874661Y-10210000D01*
X22874661Y-9675596D01*
X21861542Y-8943845D01*
X21861542Y-8803161D01*
X21862202Y-8782694D01*
X21865668Y-8754470D01*
X21872105Y-8729216D01*
X21881513Y-8706934D01*
X21893892Y-8687622D01*
X21909243Y-8671282D01*
X21927564Y-8657913D01*
X21948856Y-8647514D01*
X21973119Y-8640087D01*
X22000353Y-8635630D01*
X22020159Y-8634310D01*
X22030558Y-8634145D01*
X22818485Y-8634145D01*
X22818485Y-8240425D01*
X21917718Y-8240425D01*
X21881467Y-8240948D01*
X21846475Y-8242517D01*
X21812743Y-8245131D01*
X21780270Y-8248790D01*
X21749056Y-8253496D01*
X21719102Y-8259247D01*
X21690408Y-8266044D01*
X21662972Y-8273886D01*
X21636796Y-8282775D01*
X21611880Y-8292708D01*
X21588223Y-8303688D01*
X21565825Y-8315713D01*
X21544686Y-8328784D01*
X21524807Y-8342900D01*
X21506187Y-8358062D01*
X21488827Y-8374270D01*
X21472619Y-8391573D01*
X21457457Y-8410143D01*
X21443341Y-8429981D01*
X21430270Y-8451085D01*
X21418245Y-8473456D01*
X21407265Y-8497094D01*
X21397331Y-8521999D01*
X21388443Y-8548171D01*
X21380601Y-8575610D01*
X21373804Y-8604316D01*
X21368053Y-8634290D01*
X21363347Y-8665530D01*
X21359688Y-8698037D01*
X21357073Y-8731811D01*
X21355505Y-8766852D01*
X21354982Y-8803161D01*
X21354982Y-8859337D01*
G37*
G36*
X20604668Y-10210000D02*
G01*
X21110739Y-10210000D01*
X21110739Y-8240425D01*
X19549539Y-8240425D01*
X19549539Y-8634145D01*
X20604668Y-8634145D01*
X20604668Y-9098695D01*
X19774242Y-9098695D01*
X19774242Y-9492414D01*
X20604668Y-9492414D01*
X20604668Y-10210000D01*
G37*
G36*
X18433838Y-10238332D02*
G01*
X18463307Y-10238276D01*
X18492973Y-10238110D01*
X18522837Y-10237834D01*
X18552898Y-10237446D01*
X18583157Y-10236948D01*
X18613614Y-10236340D01*
X18644268Y-10235620D01*
X18675119Y-10234790D01*
X18706168Y-10233849D01*
X18737414Y-10232798D01*
X18768858Y-10231636D01*
X18800500Y-10230363D01*
X18832338Y-10228980D01*
X18864375Y-10227486D01*
X18896609Y-10225881D01*
X18929040Y-10224166D01*
X18961669Y-10222339D01*
X18994495Y-10220403D01*
X19027519Y-10218355D01*
X19060740Y-10216197D01*
X19094159Y-10213928D01*
X19127775Y-10211549D01*
X19161589Y-10209059D01*
X19195601Y-10206458D01*
X19229809Y-10203747D01*
X19264216Y-10200924D01*
X19298819Y-10197992D01*
X19333621Y-10194948D01*
X19368619Y-10191794D01*
X19403816Y-10188529D01*
X19439209Y-10185154D01*
X19474801Y-10181667D01*
X19474801Y-9802114D01*
X19436243Y-9804699D01*
X19398301Y-9807201D01*
X19360974Y-9809622D01*
X19324263Y-9811960D01*
X19288167Y-9814216D01*
X19252687Y-9816391D01*
X19217821Y-9818483D01*
X19183572Y-9820493D01*
X19149937Y-9822421D01*
X19116918Y-9824268D01*
X19084514Y-9826032D01*
X19052726Y-9827714D01*
X19021553Y-9829314D01*
X18990996Y-9830832D01*
X18961053Y-9832267D01*
X18931727Y-9833621D01*
X18903015Y-9834893D01*
X18874919Y-9836083D01*
X18847439Y-9837190D01*
X18820573Y-9838216D01*
X18794323Y-9839160D01*
X18768689Y-9840021D01*
X18743670Y-9840801D01*
X18719266Y-9841498D01*
X18695478Y-9842113D01*
X18672304Y-9842647D01*
X18649747Y-9843098D01*
X18627805Y-9843467D01*
X18606478Y-9843754D01*
X18585766Y-9843960D01*
X18565670Y-9844083D01*
X18546189Y-9844124D01*
X18522937Y-9842801D01*
X18501539Y-9838834D01*
X18481995Y-9832223D01*
X18464307Y-9822966D01*
X18448473Y-9811065D01*
X18443607Y-9806510D01*
X18430659Y-9791278D01*
X18420389Y-9774156D01*
X18412798Y-9755145D01*
X18407887Y-9734245D01*
X18405654Y-9711456D01*
X18405505Y-9703440D01*
X18405505Y-9591088D01*
X18406166Y-9570621D01*
X18409632Y-9542397D01*
X18416069Y-9517144D01*
X18425477Y-9494861D01*
X18437856Y-9475550D01*
X18453206Y-9459209D01*
X18471527Y-9445840D01*
X18492819Y-9435442D01*
X18517082Y-9428014D01*
X18544316Y-9423558D01*
X18564123Y-9422237D01*
X18574521Y-9422072D01*
X19165101Y-9422072D01*
X19165101Y-9028353D01*
X18630697Y-9028353D01*
X18610231Y-9027692D01*
X18582006Y-9024226D01*
X18556753Y-9017789D01*
X18534470Y-9008381D01*
X18515159Y-8996002D01*
X18498819Y-8980652D01*
X18485449Y-8962331D01*
X18475051Y-8941039D01*
X18467623Y-8916776D01*
X18463167Y-8889542D01*
X18461846Y-8869735D01*
X18461681Y-8859337D01*
X18461681Y-8803161D01*
X18462342Y-8782694D01*
X18465808Y-8754470D01*
X18472245Y-8729216D01*
X18481653Y-8706934D01*
X18494032Y-8687622D01*
X18509382Y-8671282D01*
X18527703Y-8657913D01*
X18548995Y-8647514D01*
X18573258Y-8640087D01*
X18600492Y-8635630D01*
X18620299Y-8634310D01*
X18630697Y-8634145D01*
X19446468Y-8634145D01*
X19446468Y-8240425D01*
X18490013Y-8240425D01*
X18456087Y-8240916D01*
X18423305Y-8242387D01*
X18391668Y-8244839D01*
X18361175Y-8248271D01*
X18331828Y-8252685D01*
X18303626Y-8258079D01*
X18276568Y-8264454D01*
X18250655Y-8271810D01*
X18225888Y-8280147D01*
X18202265Y-8289465D01*
X18179787Y-8299763D01*
X18158454Y-8311042D01*
X18138266Y-8323302D01*
X18119222Y-8336542D01*
X18101324Y-8350764D01*
X18084570Y-8365966D01*
X18068895Y-8382109D01*
X18054231Y-8399275D01*
X18040578Y-8417463D01*
X18027937Y-8436674D01*
X18016306Y-8456908D01*
X18005688Y-8478165D01*
X17996080Y-8500445D01*
X17987484Y-8523747D01*
X17979899Y-8548072D01*
X17973325Y-8573420D01*
X17967763Y-8599790D01*
X17963212Y-8627184D01*
X17959673Y-8655600D01*
X17957144Y-8685039D01*
X17955627Y-8715500D01*
X17955122Y-8746985D01*
X17955425Y-8767805D01*
X17956335Y-8788132D01*
X17957852Y-8807967D01*
X17961265Y-8836797D01*
X17966044Y-8864519D01*
X17972188Y-8891133D01*
X17979697Y-8916640D01*
X17988571Y-8941039D01*
X17998811Y-8964330D01*
X18010415Y-8986514D01*
X18023386Y-9007590D01*
X18032791Y-9021025D01*
X18047696Y-9040255D01*
X18063468Y-9058377D01*
X18080108Y-9075392D01*
X18097614Y-9091299D01*
X18115988Y-9106098D01*
X18135230Y-9119789D01*
X18155338Y-9132373D01*
X18176314Y-9143849D01*
X18198157Y-9154217D01*
X18220867Y-9163478D01*
X18236489Y-9169036D01*
X18208606Y-9177493D01*
X18181863Y-9187355D01*
X18156261Y-9198620D01*
X18131801Y-9211290D01*
X18108481Y-9225365D01*
X18086303Y-9240844D01*
X18065266Y-9257727D01*
X18045369Y-9276015D01*
X18026614Y-9295707D01*
X18009000Y-9316803D01*
X17992527Y-9339304D01*
X17977195Y-9363210D01*
X17963004Y-9388519D01*
X17949954Y-9415233D01*
X17938046Y-9443352D01*
X17927278Y-9472875D01*
X17920638Y-9495063D01*
X17914883Y-9518151D01*
X17910013Y-9542140D01*
X17906029Y-9567030D01*
X17902930Y-9592821D01*
X17901187Y-9612755D01*
X17899942Y-9633195D01*
X17899195Y-9654142D01*
X17898946Y-9675596D01*
X17898946Y-9703440D01*
X17899451Y-9737367D01*
X17900968Y-9770149D01*
X17903497Y-9801786D01*
X17907036Y-9832278D01*
X17911587Y-9861625D01*
X17917149Y-9889828D01*
X17923723Y-9916885D01*
X17931308Y-9942798D01*
X17939904Y-9967566D01*
X17949512Y-9991188D01*
X17960131Y-10013666D01*
X17971761Y-10035000D01*
X17984402Y-10055188D01*
X17998055Y-10074231D01*
X18012719Y-10092129D01*
X18028394Y-10108883D01*
X18045148Y-10124558D01*
X18063046Y-10139223D01*
X18082090Y-10152875D01*
X18102278Y-10165517D01*
X18123611Y-10177147D01*
X18146089Y-10187766D01*
X18169712Y-10197373D01*
X18194480Y-10205969D01*
X18220392Y-10213554D01*
X18247450Y-10220128D01*
X18275652Y-10225690D01*
X18305000Y-10230241D01*
X18335492Y-10233781D01*
X18367129Y-10236309D01*
X18399911Y-10237826D01*
X18433838Y-10238332D01*
G37*
G36*
X16726092Y-10238332D02*
G01*
X16755561Y-10238276D01*
X16785227Y-10238110D01*
X16815091Y-10237834D01*
X16845152Y-10237446D01*
X16875411Y-10236948D01*
X16905868Y-10236340D01*
X16936522Y-10235620D01*
X16967373Y-10234790D01*
X16998422Y-10233849D01*
X17029668Y-10232798D01*
X17061112Y-10231636D01*
X17092754Y-10230363D01*
X17124592Y-10228980D01*
X17156629Y-10227486D01*
X17188863Y-10225881D01*
X17221294Y-10224166D01*
X17253923Y-10222339D01*
X17286749Y-10220403D01*
X17319773Y-10218355D01*
X17352994Y-10216197D01*
X17386413Y-10213928D01*
X17420029Y-10211549D01*
X17453843Y-10209059D01*
X17487855Y-10206458D01*
X17522063Y-10203747D01*
X17556470Y-10200924D01*
X17591073Y-10197992D01*
X17625875Y-10194948D01*
X17660873Y-10191794D01*
X17696070Y-10188529D01*
X17731463Y-10185154D01*
X17767055Y-10181667D01*
X17767055Y-9802114D01*
X17728497Y-9804699D01*
X17690555Y-9807201D01*
X17653228Y-9809622D01*
X17616517Y-9811960D01*
X17580421Y-9814216D01*
X17544941Y-9816391D01*
X17510075Y-9818483D01*
X17475826Y-9820493D01*
X17442191Y-9822421D01*
X17409172Y-9824268D01*
X17376768Y-9826032D01*
X17344980Y-9827714D01*
X17313807Y-9829314D01*
X17283250Y-9830832D01*
X17253307Y-9832267D01*
X17223981Y-9833621D01*
X17195269Y-9834893D01*
X17167173Y-9836083D01*
X17139693Y-9837190D01*
X17112827Y-9838216D01*
X17086577Y-9839160D01*
X17060943Y-9840021D01*
X17035924Y-9840801D01*
X17011520Y-9841498D01*
X16987732Y-9842113D01*
X16964558Y-9842647D01*
X16942001Y-9843098D01*
X16920059Y-9843467D01*
X16898732Y-9843754D01*
X16878020Y-9843960D01*
X16857924Y-9844083D01*
X16838443Y-9844124D01*
X16815191Y-9842801D01*
X16793793Y-9838834D01*
X16774249Y-9832223D01*
X16756561Y-9822966D01*
X16740727Y-9811065D01*
X16735861Y-9806510D01*
X16722913Y-9791278D01*
X16712643Y-9774156D01*
X16705052Y-9755145D01*
X16700141Y-9734245D01*
X16697908Y-9711456D01*
X16697759Y-9703440D01*
X16697759Y-9562756D01*
X16698420Y-9542348D01*
X16701886Y-9514206D01*
X16708323Y-9489025D01*
X16717731Y-9466807D01*
X16730110Y-9447552D01*
X16745460Y-9431258D01*
X16763781Y-9417928D01*
X16785073Y-9407559D01*
X16809336Y-9400153D01*
X16836570Y-9395710D01*
X16856377Y-9394393D01*
X16866775Y-9394228D01*
X17682547Y-9394228D01*
X17682547Y-8240425D01*
X16331884Y-8240425D01*
X16331884Y-8634145D01*
X17175987Y-8634145D01*
X17175987Y-9000020D01*
X16726092Y-9000020D01*
X16692165Y-9000511D01*
X16659383Y-9001982D01*
X16627746Y-9004434D01*
X16597254Y-9007867D01*
X16567906Y-9012280D01*
X16539704Y-9017675D01*
X16512646Y-9024050D01*
X16486734Y-9031406D01*
X16461966Y-9039742D01*
X16438343Y-9049060D01*
X16415865Y-9059358D01*
X16394532Y-9070637D01*
X16374344Y-9082897D01*
X16355300Y-9096138D01*
X16337402Y-9110359D01*
X16320648Y-9125561D01*
X16304973Y-9141704D01*
X16290309Y-9158870D01*
X16276656Y-9177058D01*
X16264015Y-9196270D01*
X16252385Y-9216504D01*
X16241766Y-9237760D01*
X16232158Y-9260040D01*
X16223562Y-9283342D01*
X16215977Y-9307667D01*
X16209404Y-9333015D01*
X16203841Y-9359386D01*
X16199290Y-9386779D01*
X16195751Y-9415195D01*
X16193222Y-9444634D01*
X16191705Y-9475096D01*
X16191200Y-9506580D01*
X16191200Y-9703440D01*
X16191705Y-9737367D01*
X16193222Y-9770149D01*
X16195751Y-9801786D01*
X16199290Y-9832278D01*
X16203841Y-9861625D01*
X16209404Y-9889828D01*
X16215977Y-9916885D01*
X16223562Y-9942798D01*
X16232158Y-9967566D01*
X16241766Y-9991188D01*
X16252385Y-10013666D01*
X16264015Y-10035000D01*
X16276656Y-10055188D01*
X16290309Y-10074231D01*
X16304973Y-10092129D01*
X16320648Y-10108883D01*
X16337402Y-10124558D01*
X16355300Y-10139223D01*
X16374344Y-10152875D01*
X16394532Y-10165517D01*
X16415865Y-10177147D01*
X16438343Y-10187766D01*
X16461966Y-10197373D01*
X16486734Y-10205969D01*
X16512646Y-10213554D01*
X16539704Y-10220128D01*
X16567906Y-10225690D01*
X16597254Y-10230241D01*
X16627746Y-10233781D01*
X16659383Y-10236309D01*
X16692165Y-10237826D01*
X16726092Y-10238332D01*
G37*
G36*
X15505957Y-8212616D02*
G01*
X15540949Y-8214184D01*
X15574681Y-8216799D01*
X15607154Y-8220458D01*
X15638368Y-8225164D01*
X15668322Y-8230915D01*
X15697016Y-8237712D01*
X15724452Y-8245554D01*
X15750628Y-8254442D01*
X15775544Y-8264376D01*
X15799201Y-8275356D01*
X15821599Y-8287381D01*
X15842738Y-8300452D01*
X15862617Y-8314568D01*
X15881237Y-8329730D01*
X15898597Y-8345938D01*
X15914805Y-8363298D01*
X15929967Y-8381918D01*
X15944083Y-8401797D01*
X15957154Y-8422936D01*
X15969179Y-8445333D01*
X15980159Y-8468991D01*
X15990093Y-8493907D01*
X15998981Y-8520083D01*
X16006823Y-8547519D01*
X16013620Y-8576213D01*
X16019371Y-8606167D01*
X16024077Y-8637381D01*
X16027736Y-8669854D01*
X16030351Y-8703586D01*
X16031919Y-8738578D01*
X16032442Y-8774829D01*
X16032442Y-9675596D01*
X16031919Y-9711847D01*
X16030351Y-9746839D01*
X16027736Y-9780571D01*
X16024077Y-9813044D01*
X16019371Y-9844257D01*
X16013620Y-9874211D01*
X16006823Y-9902906D01*
X15998981Y-9930341D01*
X15990093Y-9956517D01*
X15980159Y-9981434D01*
X15969179Y-10005091D01*
X15957154Y-10027489D01*
X15944083Y-10048627D01*
X15929967Y-10068507D01*
X15914805Y-10087126D01*
X15898597Y-10104487D01*
X15881237Y-10120694D01*
X15862617Y-10135857D01*
X15842738Y-10149973D01*
X15821599Y-10163044D01*
X15799201Y-10175069D01*
X15775544Y-10186048D01*
X15750628Y-10195982D01*
X15724452Y-10204870D01*
X15697016Y-10212713D01*
X15668322Y-10219510D01*
X15638368Y-10225261D01*
X15607154Y-10229966D01*
X15574681Y-10233626D01*
X15540949Y-10236240D01*
X15505957Y-10237809D01*
X15469706Y-10238332D01*
X14934815Y-10238332D01*
X14898506Y-10237809D01*
X14863465Y-10236240D01*
X14829691Y-10233626D01*
X14797184Y-10229966D01*
X14765944Y-10225261D01*
X14735970Y-10219510D01*
X14707264Y-10212713D01*
X14679825Y-10204870D01*
X14653653Y-10195982D01*
X14628748Y-10186048D01*
X14605110Y-10175069D01*
X14582739Y-10163044D01*
X14561634Y-10149973D01*
X14541797Y-10135857D01*
X14523227Y-10120694D01*
X14505924Y-10104487D01*
X14489716Y-10087126D01*
X14474554Y-10068507D01*
X14460438Y-10048627D01*
X14447367Y-10027489D01*
X14435342Y-10005091D01*
X14424362Y-9981434D01*
X14414428Y-9956517D01*
X14405540Y-9930341D01*
X14397698Y-9902906D01*
X14390901Y-9874211D01*
X14385150Y-9844257D01*
X14380444Y-9813044D01*
X14376785Y-9780571D01*
X14374170Y-9746839D01*
X14372602Y-9711847D01*
X14372079Y-9675596D01*
X14878639Y-9675596D01*
X14878804Y-9685965D01*
X14880124Y-9705714D01*
X14884581Y-9732869D01*
X14892008Y-9757062D01*
X14902407Y-9778293D01*
X14915776Y-9796561D01*
X14932116Y-9811866D01*
X14951428Y-9824210D01*
X14973710Y-9833591D01*
X14998964Y-9840009D01*
X15027188Y-9843465D01*
X15047655Y-9844124D01*
X15356866Y-9844124D01*
X15367265Y-9843959D01*
X15387071Y-9842643D01*
X15414305Y-9838199D01*
X15438568Y-9830793D01*
X15459860Y-9820425D01*
X15478181Y-9807094D01*
X15493532Y-9790801D01*
X15505911Y-9771545D01*
X15515319Y-9749327D01*
X15521756Y-9724147D01*
X15525222Y-9696004D01*
X15525882Y-9675596D01*
X15525882Y-8774829D01*
X15525717Y-8764460D01*
X15524397Y-8744711D01*
X15519940Y-8717555D01*
X15512513Y-8693363D01*
X15502114Y-8672132D01*
X15488745Y-8653864D01*
X15472405Y-8638558D01*
X15453093Y-8626215D01*
X15430811Y-8616834D01*
X15405557Y-8610415D01*
X15377333Y-8606959D01*
X15356866Y-8606301D01*
X15047655Y-8606301D01*
X15037256Y-8606466D01*
X15017450Y-8607782D01*
X14990216Y-8612226D01*
X14965953Y-8619632D01*
X14944661Y-8630000D01*
X14926340Y-8643331D01*
X14910989Y-8659624D01*
X14898610Y-8678880D01*
X14889202Y-8701098D01*
X14882765Y-8726278D01*
X14879299Y-8754421D01*
X14878639Y-8774829D01*
X14878639Y-9675596D01*
X14372079Y-9675596D01*
X14372079Y-8774829D01*
X14372602Y-8738578D01*
X14374170Y-8703586D01*
X14376785Y-8669854D01*
X14380444Y-8637381D01*
X14385150Y-8606167D01*
X14390901Y-8576213D01*
X14397698Y-8547519D01*
X14405540Y-8520083D01*
X14414428Y-8493907D01*
X14424362Y-8468991D01*
X14435342Y-8445333D01*
X14447367Y-8422936D01*
X14460438Y-8401797D01*
X14474554Y-8381918D01*
X14489716Y-8363298D01*
X14505924Y-8345938D01*
X14523227Y-8329730D01*
X14541797Y-8314568D01*
X14561634Y-8300452D01*
X14582739Y-8287381D01*
X14605110Y-8275356D01*
X14628748Y-8264376D01*
X14653653Y-8254442D01*
X14679825Y-8245554D01*
X14707264Y-8237712D01*
X14735970Y-8230915D01*
X14765944Y-8225164D01*
X14797184Y-8220458D01*
X14829691Y-8216799D01*
X14863465Y-8214184D01*
X14898506Y-8212616D01*
X14934815Y-8212093D01*
X15469706Y-8212093D01*
X15505957Y-8212616D01*
G37*
G36*
X14099993Y-10210000D02*
G01*
X13593921Y-10210000D01*
X13593921Y-9618932D01*
X13199713Y-9618932D01*
X12876336Y-10210000D01*
X12327766Y-10210000D01*
X12679476Y-9591088D01*
X12669002Y-9588347D01*
X12648593Y-9582355D01*
X12628901Y-9575685D01*
X12609926Y-9568334D01*
X12591669Y-9560305D01*
X12574129Y-9551596D01*
X12549165Y-9537259D01*
X12525815Y-9521394D01*
X12504079Y-9504000D01*
X12483958Y-9485078D01*
X12465451Y-9464628D01*
X12448558Y-9442649D01*
X12433279Y-9419141D01*
X12428501Y-9410949D01*
X12415076Y-9385153D01*
X12406884Y-9366940D01*
X12399299Y-9347914D01*
X12392321Y-9328075D01*
X12385950Y-9307423D01*
X12380185Y-9285958D01*
X12375027Y-9263681D01*
X12370476Y-9240590D01*
X12366532Y-9216687D01*
X12363195Y-9191971D01*
X12360464Y-9166441D01*
X12358341Y-9140099D01*
X12356824Y-9112945D01*
X12355914Y-9084977D01*
X12355610Y-9056196D01*
X12862170Y-9056196D01*
X12862335Y-9066595D01*
X12863655Y-9086401D01*
X12868112Y-9113635D01*
X12875539Y-9137898D01*
X12885938Y-9159190D01*
X12899307Y-9177512D01*
X12915648Y-9192862D01*
X12934959Y-9205241D01*
X12957241Y-9214649D01*
X12982495Y-9221086D01*
X13010719Y-9224552D01*
X13031186Y-9225212D01*
X13593921Y-9225212D01*
X13593921Y-8634145D01*
X13031186Y-8634145D01*
X13020787Y-8634310D01*
X13000981Y-8635630D01*
X12973747Y-8640087D01*
X12949484Y-8647514D01*
X12928192Y-8657913D01*
X12909871Y-8671282D01*
X12894521Y-8687622D01*
X12882141Y-8706934D01*
X12872733Y-8729216D01*
X12866296Y-8754470D01*
X12862830Y-8782694D01*
X12862170Y-8803161D01*
X12862170Y-9056196D01*
X12355610Y-9056196D01*
X12355610Y-8803161D01*
X12356133Y-8766852D01*
X12357701Y-8731811D01*
X12360316Y-8698037D01*
X12363975Y-8665530D01*
X12368681Y-8634290D01*
X12374432Y-8604316D01*
X12381229Y-8575610D01*
X12389071Y-8548171D01*
X12397960Y-8521999D01*
X12407893Y-8497094D01*
X12418873Y-8473456D01*
X12430898Y-8451085D01*
X12443969Y-8429981D01*
X12458085Y-8410143D01*
X12473247Y-8391573D01*
X12489455Y-8374270D01*
X12506758Y-8358062D01*
X12525328Y-8342900D01*
X12545165Y-8328784D01*
X12566270Y-8315713D01*
X12588641Y-8303688D01*
X12612279Y-8292708D01*
X12637184Y-8282775D01*
X12663356Y-8273886D01*
X12690795Y-8266044D01*
X12719501Y-8259247D01*
X12749475Y-8253496D01*
X12780715Y-8248790D01*
X12813222Y-8245131D01*
X12846996Y-8242517D01*
X12882037Y-8240948D01*
X12918346Y-8240425D01*
X14099993Y-8240425D01*
X14099993Y-10210000D01*
G37*
G36*
X12085478Y-10210000D02*
G01*
X10875987Y-10210000D01*
X10842060Y-10209494D01*
X10809278Y-10207977D01*
X10777641Y-10205449D01*
X10747149Y-10201909D01*
X10717802Y-10197358D01*
X10689599Y-10191796D01*
X10662542Y-10185222D01*
X10636629Y-10177637D01*
X10611861Y-10169041D01*
X10588238Y-10159434D01*
X10565760Y-10148815D01*
X10544427Y-10137185D01*
X10524239Y-10124543D01*
X10505196Y-10110890D01*
X10487297Y-10096226D01*
X10470544Y-10080551D01*
X10454868Y-10063799D01*
X10440204Y-10045906D01*
X10426551Y-10026873D01*
X10413910Y-10006698D01*
X10402280Y-9985382D01*
X10391661Y-9962925D01*
X10382053Y-9939327D01*
X10373457Y-9914588D01*
X10365872Y-9888708D01*
X10359299Y-9861686D01*
X10353737Y-9833524D01*
X10349186Y-9804221D01*
X10345646Y-9773776D01*
X10343118Y-9742190D01*
X10341601Y-9709464D01*
X10341095Y-9675596D01*
X10341344Y-9654142D01*
X10341589Y-9647264D01*
X10847655Y-9647264D01*
X10847820Y-9657662D01*
X10849140Y-9677469D01*
X10853597Y-9704703D01*
X10861024Y-9728966D01*
X10871423Y-9750258D01*
X10884792Y-9768579D01*
X10901133Y-9783929D01*
X10920444Y-9796308D01*
X10942726Y-9805717D01*
X10967980Y-9812154D01*
X10996204Y-9815620D01*
X11016671Y-9816280D01*
X11579406Y-9816280D01*
X11579406Y-9422072D01*
X11016671Y-9422072D01*
X11006272Y-9422237D01*
X10986466Y-9423558D01*
X10959232Y-9428014D01*
X10934969Y-9435442D01*
X10913677Y-9445840D01*
X10895356Y-9459209D01*
X10880005Y-9475550D01*
X10867626Y-9494861D01*
X10858218Y-9517144D01*
X10851781Y-9542397D01*
X10848315Y-9570621D01*
X10847655Y-9591088D01*
X10847655Y-9647264D01*
X10341589Y-9647264D01*
X10342091Y-9633195D01*
X10343336Y-9612755D01*
X10345079Y-9592821D01*
X10348178Y-9567030D01*
X10352162Y-9542140D01*
X10357032Y-9518151D01*
X10362787Y-9495063D01*
X10369427Y-9472875D01*
X10380195Y-9443352D01*
X10392104Y-9415233D01*
X10405154Y-9388519D01*
X10419344Y-9363210D01*
X10434676Y-9339304D01*
X10451149Y-9316803D01*
X10468764Y-9295707D01*
X10487519Y-9276015D01*
X10507415Y-9257727D01*
X10528452Y-9240844D01*
X10550631Y-9225365D01*
X10573950Y-9211290D01*
X10598411Y-9198620D01*
X10624012Y-9187355D01*
X10650755Y-9177493D01*
X10678639Y-9169036D01*
X10665457Y-9163478D01*
X10646172Y-9154217D01*
X10627470Y-9143849D01*
X10609352Y-9132373D01*
X10591818Y-9119789D01*
X10574868Y-9106098D01*
X10558502Y-9091299D01*
X10542719Y-9075392D01*
X10527521Y-9058377D01*
X10512907Y-9040255D01*
X10498876Y-9021025D01*
X10490003Y-9007590D01*
X10477767Y-8986514D01*
X10466819Y-8964330D01*
X10457159Y-8941039D01*
X10448787Y-8916640D01*
X10441703Y-8891133D01*
X10435907Y-8864519D01*
X10435064Y-8859337D01*
X10932163Y-8859337D01*
X10932327Y-8869735D01*
X10933644Y-8889542D01*
X10938088Y-8916776D01*
X10945494Y-8941039D01*
X10955862Y-8962331D01*
X10969193Y-8980652D01*
X10985486Y-8996002D01*
X11004742Y-9008381D01*
X11026960Y-9017789D01*
X11052140Y-9024226D01*
X11080283Y-9027692D01*
X11100690Y-9028353D01*
X11579406Y-9028353D01*
X11579406Y-8634145D01*
X11100690Y-8634145D01*
X11090322Y-8634310D01*
X11070573Y-8635630D01*
X11043417Y-8640087D01*
X11019224Y-8647514D01*
X10997994Y-8657913D01*
X10979726Y-8671282D01*
X10964420Y-8687622D01*
X10952077Y-8706934D01*
X10942696Y-8729216D01*
X10936277Y-8754470D01*
X10932821Y-8782694D01*
X10932163Y-8803161D01*
X10932163Y-8859337D01*
X10435064Y-8859337D01*
X10431399Y-8836797D01*
X10428179Y-8807967D01*
X10426748Y-8788132D01*
X10425889Y-8767805D01*
X10425603Y-8746985D01*
X10426109Y-8715500D01*
X10427626Y-8685039D01*
X10430154Y-8655600D01*
X10433694Y-8627184D01*
X10438245Y-8599790D01*
X10443807Y-8573420D01*
X10450380Y-8548072D01*
X10457965Y-8523747D01*
X10466562Y-8500445D01*
X10476169Y-8478165D01*
X10486788Y-8456908D01*
X10498418Y-8436674D01*
X10511060Y-8417463D01*
X10524712Y-8399275D01*
X10539376Y-8382109D01*
X10555052Y-8365966D01*
X10571803Y-8350764D01*
X10589696Y-8336542D01*
X10608730Y-8323302D01*
X10628905Y-8311042D01*
X10650221Y-8299763D01*
X10672678Y-8289465D01*
X10696276Y-8280147D01*
X10721015Y-8271810D01*
X10746895Y-8264454D01*
X10773916Y-8258079D01*
X10802079Y-8252685D01*
X10831382Y-8248271D01*
X10861827Y-8244839D01*
X10893412Y-8242387D01*
X10926139Y-8240916D01*
X10960006Y-8240425D01*
X12085478Y-8240425D01*
X12085478Y-10210000D01*
G37*
G36*
X9198527Y-10210000D02*
G01*
X9705087Y-10210000D01*
X9705087Y-8634145D01*
X10295666Y-8634145D01*
X10295666Y-8240425D01*
X8607459Y-8240425D01*
X8607459Y-8634145D01*
X9198527Y-8634145D01*
X9198527Y-10210000D01*
G37*
G36*
X7975580Y-8212599D02*
G01*
X8008362Y-8214116D01*
X8039999Y-8216644D01*
X8070491Y-8220184D01*
X8099839Y-8224734D01*
X8128041Y-8230297D01*
X8155099Y-8236870D01*
X8181011Y-8244455D01*
X8205779Y-8253051D01*
X8229402Y-8262659D01*
X8251880Y-8273278D01*
X8273213Y-8284908D01*
X8293401Y-8297549D01*
X8312445Y-8311202D01*
X8330343Y-8325866D01*
X8347096Y-8341542D01*
X8362772Y-8358295D01*
X8377436Y-8376194D01*
X8391089Y-8395237D01*
X8403730Y-8415425D01*
X8415360Y-8436758D01*
X8425979Y-8459236D01*
X8435587Y-8482859D01*
X8444183Y-8507627D01*
X8451768Y-8533539D01*
X8458341Y-8560597D01*
X8463904Y-8588799D01*
X8468455Y-8618147D01*
X8471994Y-8648639D01*
X8474523Y-8680276D01*
X8476040Y-8713058D01*
X8476545Y-8746985D01*
X8476545Y-9731772D01*
X8476040Y-9763258D01*
X8474523Y-9793726D01*
X8471994Y-9823174D01*
X8468455Y-9851604D01*
X8463904Y-9879014D01*
X8458341Y-9905406D01*
X8451768Y-9930778D01*
X8444183Y-9955132D01*
X8435587Y-9978467D01*
X8425979Y-10000783D01*
X8415360Y-10022079D01*
X8403730Y-10042357D01*
X8391089Y-10061616D01*
X8377436Y-10079856D01*
X8362772Y-10097077D01*
X8347096Y-10113279D01*
X8330343Y-10128422D01*
X8312445Y-10142588D01*
X8293401Y-10155778D01*
X8273213Y-10167990D01*
X8251880Y-10179225D01*
X8229402Y-10189483D01*
X8205779Y-10198764D01*
X8181011Y-10207069D01*
X8155099Y-10214396D01*
X8128041Y-10220746D01*
X8099839Y-10226120D01*
X8070491Y-10230516D01*
X8039999Y-10233935D01*
X8008362Y-10236378D01*
X7975580Y-10237843D01*
X7941653Y-10238332D01*
X7407250Y-10238332D01*
X7373323Y-10237843D01*
X7340541Y-10236378D01*
X7308904Y-10233935D01*
X7278412Y-10230516D01*
X7249065Y-10226120D01*
X7220862Y-10220746D01*
X7193805Y-10214396D01*
X7167892Y-10207069D01*
X7143124Y-10198764D01*
X7119501Y-10189483D01*
X7097023Y-10179225D01*
X7075690Y-10167990D01*
X7055502Y-10155778D01*
X7036459Y-10142588D01*
X7018560Y-10128422D01*
X7001807Y-10113279D01*
X6986131Y-10097077D01*
X6971467Y-10079856D01*
X6957815Y-10061616D01*
X6945173Y-10042357D01*
X6933543Y-10022079D01*
X6922924Y-10000783D01*
X6913317Y-9978467D01*
X6904720Y-9955132D01*
X6897135Y-9930778D01*
X6890562Y-9905406D01*
X6885000Y-9879014D01*
X6880449Y-9851604D01*
X6876909Y-9823174D01*
X6874381Y-9793726D01*
X6872864Y-9763258D01*
X6872358Y-9731772D01*
X6872358Y-9675596D01*
X7378918Y-9675596D01*
X7379083Y-9685965D01*
X7380403Y-9705714D01*
X7384860Y-9732869D01*
X7392287Y-9757062D01*
X7402686Y-9778293D01*
X7416055Y-9796561D01*
X7432396Y-9811866D01*
X7451707Y-9824210D01*
X7473989Y-9833591D01*
X7499243Y-9840009D01*
X7527467Y-9843465D01*
X7547934Y-9844124D01*
X7800969Y-9844124D01*
X7811368Y-9843959D01*
X7831175Y-9842643D01*
X7858409Y-9838199D01*
X7882672Y-9830793D01*
X7903964Y-9820425D01*
X7922285Y-9807094D01*
X7937635Y-9790801D01*
X7950014Y-9771545D01*
X7959422Y-9749327D01*
X7965859Y-9724147D01*
X7969325Y-9696004D01*
X7969986Y-9675596D01*
X7969986Y-9365896D01*
X7956010Y-9364347D01*
X7933015Y-9361708D01*
X7911990Y-9359220D01*
X7889271Y-9356470D01*
X7869877Y-9354081D01*
X7849398Y-9351524D01*
X7827836Y-9348799D01*
X7822263Y-9348108D01*
X7799624Y-9345563D01*
X7776436Y-9343368D01*
X7752699Y-9341525D01*
X7728412Y-9340033D01*
X7703576Y-9338892D01*
X7678190Y-9338102D01*
X7652254Y-9337663D01*
X7632442Y-9337564D01*
X7477592Y-9337564D01*
X7464669Y-9338256D01*
X7443211Y-9342987D01*
X7424071Y-9352200D01*
X7407250Y-9365896D01*
X7397622Y-9377002D01*
X7386914Y-9395463D01*
X7380689Y-9416088D01*
X7378918Y-9436238D01*
X7378918Y-9675596D01*
X6872358Y-9675596D01*
X6872358Y-9365896D01*
X6872810Y-9342258D01*
X6874167Y-9319215D01*
X6876428Y-9296768D01*
X6879594Y-9274916D01*
X6883664Y-9253659D01*
X6888639Y-9232998D01*
X6894518Y-9212932D01*
X6901301Y-9193461D01*
X6908989Y-9174585D01*
X6917581Y-9156305D01*
X6927078Y-9138621D01*
X6937479Y-9121531D01*
X6948785Y-9105037D01*
X6960995Y-9089139D01*
X6974110Y-9073835D01*
X6988129Y-9059127D01*
X7002835Y-9045167D01*
X7018133Y-9032108D01*
X7034022Y-9019949D01*
X7050503Y-9008691D01*
X7067575Y-8998334D01*
X7085239Y-8988877D01*
X7103494Y-8980321D01*
X7122341Y-8972665D01*
X7141779Y-8965910D01*
X7161809Y-8960056D01*
X7182430Y-8955103D01*
X7203643Y-8951050D01*
X7225447Y-8947897D01*
X7247843Y-8945646D01*
X7270831Y-8944295D01*
X7294410Y-8943845D01*
X7491758Y-8943845D01*
X7517669Y-8944064D01*
X7544110Y-8944722D01*
X7571082Y-8945820D01*
X7598584Y-8947356D01*
X7626616Y-8949331D01*
X7655179Y-8951744D01*
X7684273Y-8954597D01*
X7713897Y-8957889D01*
X7744051Y-8961619D01*
X7774736Y-8965788D01*
X7805952Y-8970396D01*
X7837698Y-8975443D01*
X7869974Y-8980929D01*
X7902781Y-8986854D01*
X7936118Y-8993218D01*
X7969986Y-9000020D01*
X7969986Y-8746985D01*
X7969818Y-8738329D01*
X7967299Y-8714012D01*
X7961758Y-8692168D01*
X7953194Y-8672796D01*
X7941608Y-8655898D01*
X7926999Y-8641472D01*
X7909368Y-8629519D01*
X7888714Y-8620040D01*
X7865037Y-8613033D01*
X7838339Y-8608499D01*
X7818860Y-8606851D01*
X7798039Y-8606301D01*
X7792068Y-8606306D01*
X7767842Y-8606432D01*
X7743067Y-8606726D01*
X7717742Y-8607188D01*
X7691867Y-8607817D01*
X7672101Y-8608400D01*
X7652025Y-8609077D01*
X7631641Y-8609848D01*
X7610947Y-8610714D01*
X7589944Y-8611674D01*
X7581512Y-8612401D01*
X7560381Y-8614169D01*
X7539179Y-8615865D01*
X7517906Y-8617489D01*
X7496561Y-8619042D01*
X7475144Y-8620523D01*
X7453656Y-8621933D01*
X7435819Y-8622963D01*
X7411783Y-8624401D01*
X7391164Y-8625672D01*
X7369308Y-8627050D01*
X7346216Y-8628534D01*
X7321887Y-8630126D01*
X7296321Y-8631824D01*
X7276336Y-8633168D01*
X7262599Y-8634028D01*
X7241314Y-8635341D01*
X7219214Y-8636679D01*
X7196297Y-8638043D01*
X7172565Y-8639432D01*
X7148017Y-8640847D01*
X7122654Y-8642289D01*
X7096474Y-8643756D01*
X7069479Y-8645248D01*
X7041669Y-8646767D01*
X7013042Y-8648311D01*
X7013042Y-8268757D01*
X7046838Y-8265271D01*
X7080325Y-8261896D01*
X7113505Y-8258631D01*
X7146376Y-8255477D01*
X7178939Y-8252433D01*
X7211194Y-8249500D01*
X7243140Y-8246678D01*
X7274779Y-8243967D01*
X7306109Y-8241366D01*
X7337131Y-8238876D01*
X7367845Y-8236496D01*
X7398251Y-8234228D01*
X7428349Y-8232069D01*
X7458138Y-8230022D01*
X7487620Y-8228085D01*
X7516793Y-8226259D01*
X7545658Y-8224544D01*
X7574215Y-8222939D01*
X7602464Y-8221445D01*
X7630404Y-8220061D01*
X7658036Y-8218789D01*
X7685361Y-8217627D01*
X7712377Y-8216575D01*
X7739084Y-8215635D01*
X7765484Y-8214804D01*
X7791576Y-8214085D01*
X7817359Y-8213476D01*
X7842834Y-8212978D01*
X7868001Y-8212591D01*
X7892860Y-8212314D01*
X7917411Y-8212148D01*
X7941653Y-8212093D01*
X7975580Y-8212599D01*
G37*
D12*
%TO.C,HOLE1*%
X84120000Y-17710000D02*
G75*
G03*
X84120000Y-17710000I-900000J0D01*
G01*
%TO.C,HOLE3*%
X-180000Y-17710000D02*
G75*
G03*
X-180000Y-17710000I-900000J0D01*
G01*
%TO.C,HOLE2*%
X84110000Y-2600000D02*
G75*
G03*
X84110000Y-2600000I-900000J0D01*
G01*
%TO.C,HOLE4*%
X-180000Y-2600000D02*
G75*
G03*
X-180000Y-2600000I-900000J0D01*
G01*
D13*
%TO.C,J2*%
X81760000Y0D02*
X81760000Y-2660000D01*
X2960000Y0D02*
X81760000Y0D01*
X2960000Y0D02*
X2960000Y-2660000D01*
X1690000Y0D02*
X360000Y0D01*
X360000Y0D02*
X360000Y-1330000D01*
X2960000Y-2660000D02*
X81760000Y-2660000D01*
%TO.C,J1*%
X81760000Y-17650000D02*
X81760000Y-20310000D01*
X2960000Y-17650000D02*
X81760000Y-17650000D01*
X2960000Y-17650000D02*
X2960000Y-20310000D01*
X1690000Y-17650000D02*
X360000Y-17650000D01*
X360000Y-17650000D02*
X360000Y-18980000D01*
X2960000Y-20310000D02*
X81760000Y-20310000D01*
%TD*%
%LPC*%
D14*
%TO.C,HOLE1*%
X83220000Y-17710000D03*
%TD*%
%TO.C,HOLE3*%
X-1080000Y-17710000D03*
%TD*%
%TO.C,HOLE2*%
X83210000Y-2600000D03*
%TD*%
D15*
%TO.C,USB1*%
X2599000Y-7263599D03*
X2599000Y-13043599D03*
D16*
X3099000Y-5828599D03*
X3099000Y-14478599D03*
D17*
X-1101000Y-5828599D03*
X-1101000Y-14478599D03*
%TD*%
D18*
%TO.C,J3*%
X83770000Y-6340000D03*
D19*
X83770000Y-8880000D03*
X83770000Y-11420000D03*
X83770000Y-13960000D03*
%TD*%
D14*
%TO.C,HOLE4*%
X-1080000Y-2600000D03*
%TD*%
D18*
%TO.C,J2*%
X1690000Y-1330000D03*
D19*
X4230000Y-1330000D03*
X6770000Y-1330000D03*
X9310000Y-1330000D03*
X11850000Y-1330000D03*
X14390000Y-1330000D03*
X16930000Y-1330000D03*
X19470000Y-1330000D03*
X22010000Y-1330000D03*
X24550000Y-1330000D03*
X27090000Y-1330000D03*
X29630000Y-1330000D03*
X32170000Y-1330000D03*
X34710000Y-1330000D03*
X37250000Y-1330000D03*
X39790000Y-1330000D03*
X42330000Y-1330000D03*
X44870000Y-1330000D03*
X47410000Y-1330000D03*
X49950000Y-1330000D03*
X52490000Y-1330000D03*
X55030000Y-1330000D03*
X57570000Y-1330000D03*
X60110000Y-1330000D03*
X62650000Y-1330000D03*
X65190000Y-1330000D03*
X67730000Y-1330000D03*
X70270000Y-1330000D03*
X72810000Y-1330000D03*
X75350000Y-1330000D03*
X77890000Y-1330000D03*
X80430000Y-1330000D03*
%TD*%
D18*
%TO.C,J1*%
X1690000Y-18980000D03*
D19*
X4230000Y-18980000D03*
X6770000Y-18980000D03*
X9310000Y-18980000D03*
X11850000Y-18980000D03*
X14390000Y-18980000D03*
X16930000Y-18980000D03*
X19470000Y-18980000D03*
X22010000Y-18980000D03*
X24550000Y-18980000D03*
X27090000Y-18980000D03*
X29630000Y-18980000D03*
X32170000Y-18980000D03*
X34710000Y-18980000D03*
X37250000Y-18980000D03*
X39790000Y-18980000D03*
X42330000Y-18980000D03*
X44870000Y-18980000D03*
X47410000Y-18980000D03*
X49950000Y-18980000D03*
X52490000Y-18980000D03*
X55030000Y-18980000D03*
X57570000Y-18980000D03*
X60110000Y-18980000D03*
X62650000Y-18980000D03*
X65190000Y-18980000D03*
X67730000Y-18980000D03*
X70270000Y-18980000D03*
X72810000Y-18980000D03*
X75350000Y-18980000D03*
X77890000Y-18980000D03*
X80430000Y-18980000D03*
%TD*%
%LPD*%
M02*
